<svg width="12" height="8" viewBox="0 0 12 8" fill="none" xmlns="http://www.w3.org/2000/svg">
<path d="M11.7149 1.08091L11.1374 0.503168C10.9372 0.313249 10.7035 0.218262 10.4366 0.218262C10.1643 0.218262 9.93333 0.313249 9.74333 0.503168L6.00001 4.24658L2.25673 0.503276C2.06676 0.313356 1.83572 0.21837 1.56349 0.21837C1.29653 0.21837 1.06282 0.313356 0.862652 0.503276L0.292676 1.08102C0.0975228 1.27604 0 1.50974 0 1.78191C0 2.05916 0.0976307 2.29022 0.292649 2.47504L5.30675 7.48916C5.49168 7.6842 5.72263 7.7818 5.99999 7.7818C6.27213 7.7818 6.50581 7.68423 6.70078 7.48916L11.7149 2.47504C11.9049 2.28501 12 2.05398 12 1.78191C12 1.51481 11.9049 1.28124 11.7149 1.08091Z" fill="#0EBED9"/>
</svg>
