<svg  viewBox="0 0 8 8" fill="none" xmlns="http://www.w3.org/2000/svg">
<path d="M7.76334 0.448962L7.72313 0.40875C7.58133 0.267462 7.38924 0.190758 7.18979 0.194991C6.99033 0.198711 6.80137 0.284393 6.66592 0.431518L2.57538 4.89347L2.49496 4.92785L2.41665 4.89187L1.40177 3.70666C1.25473 3.53575 1.0441 3.43364 0.818745 3.42467C0.593296 3.41569 0.374295 3.50187 0.21505 3.6606C-0.0389224 3.91508 -0.0722728 4.31559 0.136742 4.60825L2.23041 7.54002C2.34944 7.70671 2.54152 7.80509 2.7463 7.80509H2.92883C3.27329 7.80509 3.59551 7.63688 3.79073 7.35377L7.85638 1.48178C8.07869 1.1606 8.03848 0.72562 7.76334 0.448962Z" fill="#0EBED9"/>
</svg>
