<svg width="28" height="28" viewBox="0 0 28 28" fill="none" xmlns="http://www.w3.org/2000/svg">
<g clip-path="url(#clip0_301_28)">
<path d="M28.0002 14C28.0002 6.26801 21.7322 0 14.0002 0C6.26826 0 0.000244141 6.26801 0.000244141 14C0.000244141 21.732 6.26826 28 14.0002 28C21.7322 28 28.0002 21.732 28.0002 14Z" fill="url(#paint0_radial_301_28)"/>
<path opacity="0.1" d="M24.5371 4.7891C22.496 8.53595 19.6094 12.4007 16.0026 16.0075C12.3957 19.6144 8.531 22.4954 4.78968 24.5365C4.55512 24.3326 4.32731 24.1202 4.10626 23.8991C2.7701 22.6076 1.70445 21.0629 0.971434 19.3552C0.23842 17.6476 -0.147282 15.8111 -0.163184 13.9528C-0.179085 12.0945 0.175133 10.2517 0.878817 8.53173C1.5825 6.81177 2.62157 5.24912 3.93543 3.9349C5.24929 2.62067 6.81165 1.58116 8.53141 0.877001C10.2512 0.172838 12.0939 -0.181895 13.9522 -0.166513C15.8105 -0.15113 17.6471 0.23406 19.355 0.966597C21.0628 1.69913 22.6078 2.76436 23.8997 4.10016C24.1207 4.32121 24.3332 4.55086 24.5371 4.7891Z" fill="white"/>
<path d="M12.2392 14.9518H10.4081C10.1189 14.9518 10.0176 14.8468 10.0176 14.5575C10.0176 13.8133 10.0176 13.0685 10.0176 12.3231C10.0176 12.0357 10.1263 11.927 10.4099 11.927H12.2392V10.3152C12.2174 9.59115 12.3912 8.87465 12.7421 8.24097C13.1068 7.60122 13.6913 7.11555 14.3871 6.87412C14.8386 6.70984 15.3158 6.62749 15.7963 6.63096H17.6071C17.8668 6.63096 17.9755 6.74518 17.9755 6.99939V9.10123C17.9755 9.36465 17.8649 9.46965 17.6071 9.46965C17.1115 9.46965 16.616 9.46965 16.1223 9.48991C15.6286 9.51018 15.3597 9.73491 15.3597 10.2507C15.3486 10.8033 15.3597 11.3449 15.3597 11.9086H17.4873C17.7894 11.9086 17.8926 12.0118 17.8926 12.3157C17.8926 13.0525 17.8926 13.7931 17.8926 14.5373C17.8926 14.8375 17.7968 14.9333 17.4928 14.9333H15.3486V20.9275C15.3486 21.2481 15.2473 21.3494 14.9323 21.3494H12.626C12.3478 21.3494 12.2392 21.2407 12.2392 20.9625V14.9518Z" fill="white"/>
</g>
<defs>
<radialGradient id="paint0_radial_301_28" cx="0" cy="0" r="1" gradientUnits="userSpaceOnUse" gradientTransform="translate(14.0002 14) scale(14)">
<stop stop-color="#42A5F5"/>
<stop offset="1" stop-color="#1565C0"/>
</radialGradient>
<clipPath id="clip0_301_28">
<rect width="28" height="28" fill="white" transform="translate(0.000244141)"/>
</clipPath>
</defs>
</svg>
