<svg width="28" height="28" viewBox="0 0 28 28" fill="none" xmlns="http://www.w3.org/2000/svg">
<g clip-path="url(#clip0_301_50)">
<path d="M28.0002 14C28.0002 6.26801 21.7322 0 14.0002 0C6.26826 0 0.000244141 6.26801 0.000244141 14C0.000244141 21.732 6.26826 28 14.0002 28C21.7322 28 28.0002 21.732 28.0002 14Z" fill="url(#paint0_radial_301_50)"/>
<path opacity="0.1" d="M24.537 4.7891C22.496 8.53595 19.6094 12.4007 16.0026 16.0075C12.3957 19.6144 8.531 22.4954 4.78968 24.5365C4.55512 24.3326 4.32731 24.1202 4.10626 23.8991C2.7701 22.6076 1.70445 21.0629 0.971434 19.3552C0.23842 17.6476 -0.147282 15.8111 -0.163184 13.9528C-0.179085 12.0945 0.175133 10.2517 0.878816 8.53173C1.5825 6.81177 2.62157 5.24912 3.93543 3.9349C5.24929 2.62067 6.81165 1.58117 8.53141 0.877001C10.2512 0.172838 12.0939 -0.181895 13.9522 -0.166513C15.8105 -0.15113 17.6471 0.23406 19.3549 0.966597C21.0628 1.69913 22.6078 2.76436 23.8997 4.10016C24.1207 4.32121 24.3332 4.55086 24.537 4.7891Z" fill="white"/>
<path d="M15.4739 6.63086H12.5265C11.1586 6.63086 9.84666 7.17428 8.87937 8.14157C7.91207 9.10887 7.36865 10.4208 7.36865 11.7888V13.9993C7.36824 14.9757 7.645 15.9322 8.16675 16.7575C8.6885 17.5829 9.43381 18.2432 10.316 18.6617V21.1245C10.3169 21.1726 10.3318 21.2193 10.3588 21.259C10.3859 21.2988 10.424 21.3297 10.4684 21.3481C10.5128 21.3665 10.5616 21.3715 10.6088 21.3626C10.656 21.3536 10.6996 21.3311 10.7342 21.2977L12.8747 19.1572H15.4739C16.8419 19.1572 18.1538 18.6138 19.1211 17.6465C20.0884 16.6792 20.6318 15.3672 20.6318 13.9993V11.7888C20.6318 10.4208 20.0884 9.10887 19.1211 8.14157C18.1538 7.17428 16.8419 6.63086 15.4739 6.63086ZM17.4044 16.2982L16.6676 17.0351C15.8829 17.8032 13.8344 16.9264 12.0292 15.0824C10.2239 13.2385 9.43181 11.1698 10.1871 10.4016L10.9239 9.66481C11.0683 9.53517 11.2561 9.46439 11.4501 9.46644C11.6442 9.46849 11.8304 9.54321 11.9721 9.67586L13.0479 10.7811C13.1333 10.8693 13.1949 10.9777 13.2269 11.0963C13.2589 11.2148 13.2602 11.3395 13.2307 11.4587C13.2013 11.5779 13.142 11.6876 13.0584 11.7776C12.9749 11.8675 12.8698 11.9348 12.7531 11.973C12.5802 12.026 12.4343 12.1437 12.3458 12.3015C12.2573 12.4593 12.233 12.6451 12.2779 12.8203C12.4621 13.6382 13.501 14.6624 14.2747 14.8632C14.4491 14.9048 14.6327 14.8813 14.7911 14.7972C14.9494 14.7131 15.0717 14.5742 15.135 14.4064C15.1758 14.2894 15.2461 14.1848 15.3391 14.1029C15.4321 14.0209 15.5446 13.9642 15.6658 13.9383C15.787 13.9124 15.9128 13.9181 16.0312 13.9549C16.1495 13.9917 16.2564 14.0584 16.3415 14.1485L17.4155 15.2538C17.5445 15.3978 17.6149 15.5848 17.6128 15.7781C17.6108 15.9714 17.5364 16.157 17.4044 16.2982ZM14.6708 10.1309C14.5975 10.1305 14.5243 10.1348 14.4515 10.1438C14.4195 10.1473 14.3871 10.1444 14.3561 10.1354C14.3252 10.1264 14.2963 10.1113 14.2711 10.0912C14.246 10.071 14.2251 10.046 14.2096 10.0178C14.1941 9.98949 14.1843 9.95844 14.1808 9.92639C14.1772 9.89433 14.1801 9.8619 14.1891 9.83095C14.1981 9.79999 14.2132 9.77112 14.2334 9.74597C14.2535 9.72083 14.2785 9.6999 14.3068 9.6844C14.335 9.66889 14.3661 9.6591 14.3981 9.6556C14.4886 9.64518 14.5797 9.64026 14.6708 9.64086C15.3227 9.64037 15.9481 9.89874 16.4096 10.3592C16.8711 10.8196 17.1308 11.4445 17.1318 12.0964C17.1324 12.1875 17.1275 12.2785 17.1171 12.369C17.1136 12.4011 17.1038 12.4321 17.0883 12.4604C17.0728 12.4887 17.0518 12.5136 17.0267 12.5338C17.0015 12.554 16.9727 12.569 16.9417 12.578C16.9108 12.5871 16.8783 12.5899 16.8463 12.5864C16.8142 12.5829 16.7832 12.5731 16.7549 12.5576C16.7266 12.5421 16.7017 12.5212 16.6815 12.496C16.6613 12.4709 16.6463 12.442 16.6373 12.411C16.6282 12.3801 16.6254 12.3477 16.6289 12.3156C16.6369 12.2428 16.6412 12.1696 16.6418 12.0964C16.6408 11.5744 16.4327 11.0742 16.0631 10.7057C15.6935 10.3371 15.1927 10.1304 14.6708 10.1309ZM16.1444 12.0964C16.1391 12.1579 16.1109 12.2152 16.0654 12.257C16.0198 12.2988 15.9603 12.3219 15.8985 12.3219C15.8367 12.3219 15.7772 12.2988 15.7317 12.257C15.6861 12.2152 15.6579 12.1579 15.6526 12.0964C15.6526 11.836 15.5492 11.5862 15.365 11.4021C15.1809 11.218 14.9312 11.1145 14.6708 11.1145C14.6367 11.1175 14.6023 11.1133 14.57 11.1023C14.5376 11.0913 14.5078 11.0737 14.4826 11.0505C14.4574 11.0274 14.4373 10.9993 14.4235 10.968C14.4097 10.9367 14.4026 10.9028 14.4026 10.8686C14.4026 10.8344 14.4097 10.8006 14.4235 10.7693C14.4373 10.7379 14.4574 10.7098 14.4826 10.6867C14.5078 10.6636 14.5376 10.6459 14.57 10.6349C14.6023 10.6239 14.6367 10.6197 14.6708 10.6227C15.0616 10.6227 15.4364 10.778 15.7128 11.0543C15.9892 11.3307 16.1444 11.7055 16.1444 12.0964ZM18.0179 12.894C18.0124 12.9275 18.0001 12.9595 17.9817 12.988C17.9634 13.0166 17.9393 13.041 17.9111 13.0598C17.8828 13.0786 17.851 13.0914 17.8176 13.0974C17.7842 13.1033 17.75 13.1024 17.717 13.0945C17.684 13.0866 17.6529 13.072 17.6258 13.0516C17.5987 13.0312 17.5761 13.0055 17.5594 12.9759C17.5427 12.9464 17.5322 12.9138 17.5287 12.88C17.5252 12.8463 17.5287 12.8122 17.5389 12.7798C17.5921 12.5572 17.6187 12.329 17.6181 12.1001C17.6181 11.3184 17.3076 10.5687 16.7549 10.016C16.2021 9.46323 15.4524 9.1527 14.6708 9.1527C14.5952 9.1527 14.5179 9.1527 14.4423 9.1527C14.4102 9.15512 14.3778 9.15118 14.3472 9.1411C14.3165 9.13102 14.2882 9.11501 14.2637 9.09397C14.2143 9.05148 14.1838 8.9911 14.1789 8.92612C14.174 8.86114 14.1952 8.79689 14.2376 8.74749C14.2801 8.69809 14.3405 8.66759 14.4055 8.6627C14.4939 8.65533 14.5823 8.65165 14.6708 8.65165C15.5834 8.65311 16.4582 9.01669 17.103 9.66254C17.7478 10.3084 18.11 11.1837 18.11 12.0964C18.1101 12.3649 18.0792 12.6326 18.0179 12.894Z" fill="white"/>
</g>
<defs>
<radialGradient id="paint0_radial_301_50" cx="0" cy="0" r="1" gradientUnits="userSpaceOnUse" gradientTransform="translate(14.0002 14) scale(14)">
<stop stop-color="#7E57C2"/>
<stop offset="1" stop-color="#4527A0"/>
</radialGradient>
<clipPath id="clip0_301_50">
<rect width="28" height="28" fill="white" transform="translate(0.000244141)"/>
</clipPath>
</defs>
</svg>
