<svg width="28" height="28" viewBox="0 0 28 28" fill="none" xmlns="http://www.w3.org/2000/svg">
<g clip-path="url(#clip0_301_42)">
<path d="M28.0002 14C28.0002 6.26801 21.7322 0 14.0002 0C6.26826 0 0.000244141 6.26801 0.000244141 14C0.000244141 21.732 6.26826 28 14.0002 28C21.7322 28 28.0002 21.732 28.0002 14Z" fill="url(#paint0_radial_301_42)"/>
<path opacity="0.1" d="M24.5371 4.7891C22.496 8.53595 19.6094 12.4007 16.0026 16.0075C12.3957 19.6144 8.531 22.4954 4.78968 24.5365C4.55512 24.3326 4.32731 24.1202 4.10626 23.8991C2.7701 22.6076 1.70445 21.0629 0.971434 19.3552C0.23842 17.6476 -0.147282 15.8111 -0.163184 13.9528C-0.179085 12.0945 0.175133 10.2517 0.878817 8.53173C1.5825 6.81177 2.62157 5.24912 3.93543 3.9349C5.24929 2.62067 6.81165 1.58116 8.53141 0.877001C10.2512 0.172838 12.0939 -0.181895 13.9522 -0.166513C15.8105 -0.15113 17.6471 0.23406 19.355 0.966597C21.0628 1.69913 22.6078 2.76436 23.8997 4.10016C24.1207 4.32121 24.3332 4.55086 24.5371 4.7891Z" fill="white"/>
<path d="M14.0001 6.63184C12.6427 6.63235 11.3117 7.00786 10.1541 7.71692C8.99657 8.42598 8.05737 9.44104 7.44017 10.6501C6.82297 11.8591 6.55177 13.2152 6.65648 14.5686C6.76119 15.9221 7.23774 17.2203 8.03357 18.32L7.11251 21.0574L9.94751 20.151C10.9066 20.7837 12.0003 21.1833 13.1413 21.3179C14.2824 21.4525 15.4391 21.3185 16.519 20.9264C17.599 20.5344 18.5724 19.8952 19.3613 19.06C20.1503 18.2248 20.733 17.2166 21.0629 16.1161C21.3928 15.0155 21.4608 13.853 21.2614 12.7215C21.062 11.59 20.6008 10.5208 19.9146 9.59933C19.2283 8.67784 18.3361 7.92958 17.3092 7.41433C16.2823 6.89908 15.1491 6.63111 14.0001 6.63184ZM17.9165 17.0526L17.1317 17.8374C16.3065 18.6626 14.118 17.7545 12.1783 15.811C10.2386 13.8676 9.36909 11.6847 10.1538 10.8687L10.9386 10.0839C11.0905 9.94426 11.2894 9.86675 11.4958 9.86675C11.7022 9.86675 11.9011 9.94426 12.053 10.0839L13.2099 11.2371C13.3042 11.3288 13.3734 11.4432 13.4109 11.5693C13.4483 11.6954 13.4527 11.8291 13.4237 11.9574C13.3946 12.0857 13.3331 12.2044 13.2451 12.3022C13.157 12.3999 13.0453 12.4734 12.9207 12.5155C12.7368 12.5743 12.5827 12.7016 12.4904 12.8711C12.3981 13.0406 12.3747 13.2392 12.4251 13.4255C12.6315 14.2913 13.7459 15.3653 14.573 15.5716C14.7584 15.6105 14.9515 15.5812 15.1169 15.4892C15.2824 15.3971 15.4091 15.2485 15.4738 15.0705C15.5155 14.9441 15.5893 14.8306 15.6879 14.7412C15.7865 14.6518 15.9067 14.5895 16.0366 14.5604C16.1665 14.5312 16.3017 14.5363 16.4291 14.575C16.5565 14.6137 16.6716 14.6848 16.7633 14.7813L17.9183 15.9382C18.0577 16.0903 18.1349 16.2893 18.1346 16.4958C18.1342 16.7022 18.0564 16.9009 17.9165 17.0526Z" fill="white"/>
</g>
<defs>
<radialGradient id="paint0_radial_301_42" cx="0" cy="0" r="1" gradientUnits="userSpaceOnUse" gradientTransform="translate(14.0002 14) scale(14)">
<stop stop-color="#66BB6A"/>
<stop offset="1" stop-color="#2E7D32"/>
</radialGradient>
<clipPath id="clip0_301_42">
<rect width="28" height="28" fill="white" transform="translate(0.000244141)"/>
</clipPath>
</defs>
</svg>
