<svg width="72" height="72" viewBox="0 0 72 72" fill="none" xmlns="http://www.w3.org/2000/svg">
<g clip-path="url(#clip0_301_25334)">
<path d="M62.7828 20.27L42.1748 6.00425C38.4596 3.4325 33.5394 3.4325 29.8243 6.00425L9.21623 20.27C6.28884 22.2964 4.54199 25.6302 4.54199 29.1905V60.0957C4.54199 66.0877 9.39946 70.9452 15.3915 70.9452H56.6076C62.5996 70.9452 67.4571 66.0877 67.4571 60.0957V29.1905C67.4571 25.6302 65.7102 22.2964 62.7828 20.27Z" fill="#FFE07D"/>
<path d="M11.1273 29.1901V60.0965C11.1273 66.0885 15.9841 70.9453 21.9761 70.9453H15.3914C9.39919 70.9453 4.54102 66.0885 4.54102 60.0965V29.1901C4.54102 25.6308 6.2887 22.2961 9.21581 20.2694L29.8236 6.00382C32.6369 4.05757 36.1416 3.5845 39.2916 4.58646C38.2836 4.90778 37.3103 5.38071 36.4099 6.00382L15.8006 20.2694C12.8735 22.2961 11.1273 25.6308 11.1273 29.1901Z" fill="#FFD064"/>
<path d="M67.4552 28.9871H67.4537C67.39 32.4705 65.6544 35.7158 62.7834 37.7031L60.2049 39.4872L42.1741 51.9687C38.4603 54.541 33.5398 54.541 29.8245 51.9687L12.4046 39.9101L9.21677 37.7031C6.34422 35.7158 4.60863 32.4705 4.54492 28.9871C4.60863 25.5052 6.34577 22.2583 9.21677 20.2694L12.4046 18.0623L29.8245 6.00386C33.5398 3.43296 38.4602 3.43296 42.1755 6.00386L60.2049 18.4852L62.7834 20.2693C65.6544 22.2583 67.3915 25.5052 67.4552 28.9871Z" fill="#FFD064"/>
<path d="M60.2046 14.4956V39.4871L42.1738 51.9685C38.46 54.5408 33.5395 54.5408 29.8242 51.9685L12.4043 39.9101V5.90991C12.4043 3.22847 14.5779 1.05469 17.258 1.05469H46.7636L60.2046 14.4956Z" fill="#F9F6F9"/>
<path d="M60.2046 33.1357V39.4871L42.1738 51.9685C38.46 54.5408 33.5395 54.5408 29.8242 51.9685L12.4043 39.9101V33.5587L29.8244 45.6172C33.5397 48.1895 38.46 48.1895 42.1739 45.6172L60.2046 33.1357Z" fill="#DDDAEC"/>
<path d="M60.2054 14.4962H51.6185C48.938 14.4962 46.7646 12.3229 46.7646 9.6424V1.05542" fill="#DDDAEC"/>
<path d="M50.6469 22.6327C51.2026 21.5126 50.7449 20.155 49.6248 19.5992L46.1199 17.8631C44.9998 17.3073 43.6422 17.7651 43.0865 18.8851L36.1507 32.879L32.7732 27.2302C32.1314 26.1566 30.7428 25.8073 29.6692 26.4491L26.3122 28.4554C25.2402 29.0972 24.8892 30.4857 25.531 31.5594L32.1863 42.6918C32.6113 43.4024 33.3908 43.8257 34.2167 43.7931L38.9347 43.6073C39.7622 43.5747 40.5056 43.0929 40.872 42.3512L50.6469 22.6327Z" fill="#CCF49F"/>
<path d="M37.9144 35.829L46.3124 18.8851C46.4429 18.6222 46.6187 18.3973 46.8241 18.212L46.1197 17.8631C44.9995 17.3073 43.642 17.7651 43.0863 18.8851L36.1504 32.879L37.9144 35.829Z" fill="#B3E59F"/>
<path d="M35.4116 42.6916L28.7562 31.5592C28.1144 30.4855 28.4654 29.097 29.5374 28.4552L32.3874 26.7518C31.6696 26.0686 30.5609 25.9154 29.6682 26.4489L26.3112 28.4552C25.2392 29.097 24.8882 30.4855 25.53 31.5592L32.1854 42.6916C32.6103 43.4022 33.3898 43.8255 34.2157 43.7929L36.6916 43.6954C36.1641 43.5333 35.7039 43.1805 35.4116 42.6916Z" fill="#B3E59F"/>
<path d="M63.3833 19.4026L61.2598 17.9326V14.4956C61.2598 14.2159 61.1488 13.9476 60.951 13.7499L47.5102 0.308953C47.3122 0.111094 47.0441 0 46.7644 0H17.2601C14.0013 0 11.3502 2.6512 11.3502 5.90991V17.5109L8.61702 19.4026C5.45633 21.5903 3.55044 25.1696 3.49095 29.0064H3.49067C3.49067 29.0088 3.49081 29.0114 3.49095 29.0138C3.49011 29.0728 3.48828 29.1319 3.48828 29.1911V60.0962C3.48828 66.66 8.82838 72.0001 15.3922 72.0001H16.9081C17.4907 72.0001 17.9628 71.5279 17.9628 70.9455C17.9628 70.363 17.4907 69.8908 16.9081 69.8908H15.3922C9.99149 69.8908 5.59766 65.4969 5.59766 60.0962V35.5428C6.404 36.7124 7.42142 37.7432 8.61688 38.5702L29.2243 52.8356C31.2512 54.2389 33.6255 54.9404 36.0002 54.9404C38.3745 54.9404 40.7493 54.2386 42.7747 52.8358L63.384 38.5702C64.5793 37.7429 65.5964 36.7118 66.4026 35.542V60.0961C66.4026 65.4968 62.0088 69.8906 56.6081 69.8906H21.127C20.5444 69.8906 20.0723 70.3628 20.0723 70.9453C20.0723 71.5278 20.5444 72 21.127 72H56.6081C63.1721 72 68.512 66.6599 68.512 60.0961V29.1909C68.5119 25.2844 66.5946 21.6252 63.3833 19.4026ZM47.8193 3.60113L57.6596 13.4414H51.6185C49.5237 13.4414 47.8193 11.7371 47.8193 9.64223V3.60113ZM5.60061 28.9928C5.66403 25.8533 7.22947 22.9282 9.81753 21.1369L11.3501 20.0762V37.8969L9.81697 36.8356C7.24072 35.0533 5.666 32.1228 5.60061 28.9928ZM41.5739 51.1016C38.2404 53.4105 33.7603 53.4105 30.4251 51.1014L13.4596 39.3571V5.90991C13.4596 3.81431 15.1645 2.10938 17.2601 2.10938H45.71V9.64223C45.71 12.9002 48.3605 15.5507 51.6185 15.5507H59.1506V38.9351L41.5739 51.1016ZM62.1833 36.8357L61.2598 37.475V20.4982L62.1826 21.1369C64.7654 22.9243 66.3297 25.841 66.3993 28.9731C66.3401 32.1103 64.7644 35.0492 62.1833 36.8357Z" fill="black"/>
<path d="M30.781 56.9483C30.5426 56.4167 29.9184 56.1789 29.3871 56.4173L11.8451 64.2809C11.3137 64.5191 11.0759 65.1432 11.3143 65.6748C11.4898 66.0663 11.8744 66.2983 12.2773 66.2983C12.4214 66.2983 12.5681 66.2686 12.7081 66.2058L30.25 58.3422C30.7815 58.1039 31.0192 57.4798 30.781 56.9483Z" fill="black"/>
<path d="M59.2902 66.2057C59.4304 66.2685 59.5768 66.2982 59.7211 66.2982C60.1238 66.2982 60.5086 66.066 60.6841 65.6747C60.9223 65.1431 60.6847 64.5192 60.1532 64.2808L42.6114 56.4172C42.08 56.1791 41.4559 56.4165 41.2175 56.9482C40.9793 57.4797 41.217 58.1037 41.7484 58.3421L59.2902 66.2057Z" fill="black"/>
<path d="M51.762 20.5675C51.4789 19.7272 50.8855 19.0477 50.0907 18.6539L46.5881 16.9194C45.794 16.5245 44.8943 16.4628 44.0535 16.7461C43.2137 17.0291 42.5342 17.6221 42.1402 18.4163L36.0628 30.6795L33.6774 26.6903C33.2229 25.9287 32.4989 25.3901 31.6393 25.1737C30.7805 24.9575 29.8881 25.0889 29.127 25.5436L25.7704 27.5504C24.2001 28.4889 23.6858 30.5301 24.6243 32.1004L31.2798 43.2317C31.8806 44.2385 32.9628 44.85 34.1276 44.85C34.171 44.85 34.2144 44.8492 34.2579 44.8475L38.9753 44.6605C40.1912 44.6129 41.2801 43.9065 41.8153 42.8194L46.7683 32.8294C47.027 32.3076 46.8137 31.6747 46.2917 31.416C45.7698 31.1572 45.137 31.3706 44.8783 31.8924L39.9242 41.8851C39.7299 42.2797 39.3347 42.5355 38.8923 42.5529L34.1749 42.74C33.7318 42.7564 33.3182 42.5314 33.0907 42.1502L26.435 31.0184C26.0932 30.4465 26.2805 29.703 26.8528 29.3612L30.2094 27.3545C30.4869 27.1887 30.8116 27.1409 31.1246 27.2195C31.4373 27.2982 31.7007 27.4942 31.8667 27.7723L35.2446 33.4212C35.4426 33.7523 35.8025 33.9489 36.1913 33.9337C36.5768 33.9186 36.9234 33.694 37.0947 33.3482L44.0299 19.3537C44.1735 19.0645 44.4211 18.8485 44.7271 18.7453C45.0328 18.6425 45.3601 18.6645 45.6504 18.8091L49.1545 20.5443C49.4439 20.6877 49.6601 20.9351 49.763 21.2411C49.8661 21.5469 49.8439 21.8746 49.7002 22.1643L46.7514 28.1122C46.4925 28.6339 46.7057 29.2668 47.2276 29.5257C47.749 29.7847 48.3822 29.5716 48.6411 29.0497L51.5902 23.1013C51.9838 22.3072 52.0449 21.4073 51.762 20.5675Z" fill="black"/>
</g>
<defs>
<clipPath id="clip0_301_25334">
<rect width="72" height="72" fill="white"/>
</clipPath>
</defs>
</svg>
