<svg width="312" height="1207" viewBox="0 0 312 1207" fill="none" xmlns="http://www.w3.org/2000/svg">
<path d="M286 64C286 64 286.797 70.0825 293 70.5C286.797 70.9202 286 77 286 77C286 77 285.203 70.9175 279 70.5C285.203 70.0798 286 64 286 64Z" fill="#0EBED9"/>
<path d="M12.9376 0C12.9376 0 13.6158 5.55982 18.8752 5.93877C13.6124 6.32338 12.9376 11.8775 12.9376 11.8775C12.9376 11.8775 12.2594 6.3149 7 5.93877C12.2628 5.55982 12.9376 0 12.9376 0Z" fill="#6FA926"/>
<path d="M44.4012 38C44.4012 38 45.4826 45.8705 53.8024 46.4133C45.4718 46.9507 44.4012 54.8265 44.4012 54.8265C44.4012 54.8265 43.3198 46.9561 35 46.4133C43.3306 45.8678 44.4012 38 44.4012 38Z" fill="#6FA926"/>
<path d="M239 250C239 250 239.797 256.083 246 256.5C239.797 256.92 239 263 239 263C239 263 238.203 256.917 232 256.5C238.203 256.08 239 250 239 250Z" fill="#FFA945"/>
<path d="M64 673C64 673 64.5695 677.345 69 677.643C64.5695 677.943 64 682.286 64 682.286C64 682.286 63.4305 677.941 59 677.643C63.4305 677.343 64 673 64 673Z" fill="#0EBED9"/>
<path d="M175 807C175 807 175.569 811.345 180 811.643C175.569 811.943 175 816.286 175 816.286C175 816.286 174.431 811.941 170 811.643C174.431 811.343 175 807 175 807Z" fill="#0EBED9"/>
<path d="M223 1000C223 1000 223.569 1004.34 228 1004.64C223.569 1004.94 223 1009.29 223 1009.29C223 1009.29 222.431 1004.94 218 1004.64C222.431 1004.34 223 1000 223 1000Z" fill="#0EBED9"/>
<path d="M179 452C179 452 179.575 455.742 184 456C179.569 456.256 179 460 179 460C179 460 178.425 456.258 174 456C178.431 455.741 179 452 179 452Z" fill="#FFA945"/>
<path d="M264 546C264 546 264.92 552.697 272 553.159C264.911 553.617 264 560.319 264 560.319C264 560.319 263.08 553.621 256 553.159C263.089 552.695 264 546 264 546Z" fill="#FFA945"/>
<path d="M293 907C293 907 293.92 913.697 301 914.159C293.911 914.617 293 921.319 293 921.319C293 921.319 292.08 914.621 285 914.159C292.089 913.695 293 907 293 907Z" fill="#FFA945"/>
<path d="M11 1139C11 1139 12.2653 1148.21 22 1148.84C12.2527 1149.47 11 1158.69 11 1158.69C11 1158.69 9.73466 1149.48 0 1148.84C9.74731 1148.21 11 1139 11 1139Z" fill="#6FA926"/>
<path d="M306 1196C306 1196 306.69 1201.02 312 1201.37C306.683 1201.71 306 1206.74 306 1206.74C306 1206.74 305.31 1201.72 300 1201.37C305.317 1201.02 306 1196 306 1196Z" fill="#6FA926"/>
<path d="M228 720C228 720 228.69 725.023 234 725.369C228.683 725.712 228 730.739 228 730.739C228 730.739 227.31 725.716 222 725.369C227.317 725.021 228 720 228 720Z" fill="#6FA926"/>
<path d="M296 688C296 688 296.46 691.349 300 691.58C296.456 691.808 296 695.159 296 695.159C296 695.159 295.54 691.811 292 691.58C295.544 691.348 296 688 296 688Z" fill="#6FA926"/>
</svg>
