<svg width="925" height="918" viewBox="0 0 925 918" fill="none" xmlns="http://www.w3.org/2000/svg">
<path d="M462.5 785C660.603 785 821.197 775.695 821.197 764.217C821.197 752.738 660.603 743.433 462.5 743.433C264.397 743.433 103.804 752.738 103.804 764.217C103.804 775.695 264.397 785 462.5 785Z" fill="#DCDCDC"/>
<path d="M706.071 702.949H422.114C420.415 702.976 418.729 702.645 417.167 701.979C415.605 701.314 414.203 700.328 413.051 699.087C411.9 697.846 411.027 696.377 410.487 694.777C409.948 693.177 409.756 691.482 409.923 689.804L445.72 234.035C446.044 230.483 447.68 227.175 450.313 224.749C452.946 222.322 456.391 220.947 459.984 220.889H743.922C745.622 220.863 747.309 221.194 748.872 221.859C750.434 222.525 751.838 223.51 752.99 224.751C754.143 225.992 755.018 227.46 755.56 229.06C756.101 230.66 756.296 232.355 756.132 234.035L720.334 689.804C720.007 693.354 718.37 696.659 715.737 699.085C713.105 701.511 709.663 702.887 706.071 702.949Z" fill="#2E353A"/>
<path opacity="0.2" d="M706.071 702.949H422.114C420.415 702.976 418.729 702.645 417.167 701.979C415.605 701.314 414.203 700.328 413.051 699.087C411.9 697.846 411.027 696.377 410.487 694.777C409.948 693.177 409.756 691.482 409.923 689.804L445.72 234.035C446.044 230.483 447.68 227.175 450.313 224.749C452.946 222.322 456.391 220.947 459.984 220.889H743.922C745.622 220.863 747.309 221.194 748.872 221.859C750.434 222.525 751.838 223.51 752.99 224.751C754.143 225.992 755.018 227.46 755.56 229.06C756.101 230.66 756.296 232.355 756.132 234.035L720.334 689.804C720.007 693.354 718.37 696.659 715.737 699.085C713.105 701.511 709.663 702.887 706.071 702.949Z" fill="white"/>
<path d="M667.609 250.687H531.635C531.04 250.698 530.45 250.583 529.903 250.352C529.356 250.12 528.865 249.776 528.461 249.343C528.058 248.909 527.751 248.396 527.562 247.837C527.372 247.277 527.304 246.685 527.361 246.097L529.452 219.457C529.565 218.213 530.138 217.054 531.06 216.204C531.982 215.353 533.188 214.871 534.447 214.849H670.421C671.016 214.84 671.606 214.957 672.152 215.191C672.698 215.425 673.188 215.771 673.59 216.206C673.992 216.641 674.296 217.156 674.483 217.716C674.671 218.276 674.736 218.87 674.676 219.457L672.586 246.024C672.49 247.276 671.926 248.448 671.006 249.31C670.086 250.173 668.875 250.664 667.609 250.687Z" fill="#0EBED9"/>
<path opacity="0.2" d="M667.609 250.687H531.635C531.04 250.698 530.45 250.583 529.903 250.352C529.356 250.12 528.865 249.776 528.461 249.343C528.058 248.909 527.751 248.396 527.562 247.837C527.372 247.277 527.304 246.685 527.361 246.097L529.452 219.457C529.565 218.213 530.138 217.054 531.06 216.204C531.982 215.353 533.188 214.871 534.447 214.849H670.421C671.016 214.84 671.606 214.957 672.152 215.191C672.698 215.425 673.188 215.771 673.59 216.206C673.992 216.641 674.296 217.156 674.483 217.716C674.671 218.276 674.736 218.87 674.676 219.457L672.586 246.024C672.49 247.276 671.926 248.448 671.006 249.31C670.086 250.173 668.875 250.664 667.609 250.687Z" fill="black"/>
<path d="M612.35 223.129H591.075L591.907 212.554C592.167 209.702 593.481 207.046 595.595 205.097C597.709 203.148 600.474 202.044 603.359 201.997C604.725 201.975 606.081 202.24 607.337 202.774C608.594 203.308 609.722 204.099 610.65 205.095C611.577 206.092 612.282 207.271 612.718 208.556C613.154 209.841 613.313 211.204 613.182 212.554L612.35 223.129Z" fill="#0EBED9"/>
<path opacity="0.4" d="M612.35 223.129H591.075L591.907 212.554C592.167 209.702 593.481 207.046 595.595 205.097C597.709 203.148 600.474 202.044 603.359 201.997C604.725 201.975 606.081 202.24 607.337 202.774C608.594 203.308 609.722 204.099 610.65 205.095C611.577 206.092 612.282 207.271 612.718 208.556C613.154 209.841 613.313 211.204 613.182 212.554L612.35 223.129Z" fill="white"/>
<path d="M702.241 683.91H428.922L463.813 239.91H737.114L702.241 683.91Z" fill="white"/>
<path d="M642.32 263.154H555C553.6 263.173 552.212 262.899 550.926 262.35C549.64 261.801 548.485 260.989 547.537 259.966C546.589 258.944 545.869 257.735 545.424 256.417C544.979 255.1 544.819 253.704 544.954 252.322L546.064 238.221C546.333 235.296 547.681 232.572 549.849 230.573C552.017 228.574 554.853 227.44 557.812 227.389H645.15C646.551 227.369 647.94 227.643 649.227 228.193C650.513 228.742 651.669 229.554 652.619 230.576C653.568 231.598 654.29 232.807 654.737 234.124C655.185 235.441 655.347 236.837 655.215 238.221L654.104 252.322C653.827 255.25 652.472 257.974 650.298 259.972C648.123 261.971 645.283 263.104 642.32 263.154ZM557.479 231.079C555.527 231.112 553.656 231.859 552.225 233.177C550.795 234.495 549.905 236.292 549.727 238.221L548.617 252.322C548.526 253.235 548.63 254.156 548.923 255.027C549.215 255.897 549.689 256.696 550.315 257.372C550.94 258.048 551.702 258.585 552.551 258.949C553.399 259.313 554.316 259.494 555.24 259.482H642.597C644.554 259.449 646.43 258.7 647.864 257.378C649.298 256.057 650.19 254.256 650.367 252.322L651.477 238.221C651.563 237.309 651.455 236.388 651.159 235.52C650.863 234.652 650.386 233.855 649.76 233.182C649.134 232.508 648.371 231.973 647.523 231.611C646.675 231.249 645.759 231.067 644.836 231.079H557.479Z" fill="#0EBED9"/>
<g opacity="0.4">
<path opacity="0.4" d="M642.32 263.154H555C553.6 263.173 552.212 262.899 550.926 262.35C549.64 261.801 548.485 260.989 547.537 259.966C546.589 258.944 545.869 257.735 545.424 256.417C544.979 255.1 544.819 253.704 544.954 252.322L546.064 238.221C546.333 235.296 547.681 232.572 549.849 230.573C552.017 228.574 554.853 227.44 557.812 227.389H645.15C646.551 227.369 647.94 227.643 649.227 228.193C650.513 228.742 651.669 229.554 652.619 230.576C653.568 231.598 654.29 232.807 654.737 234.124C655.185 235.441 655.347 236.837 655.215 238.221L654.104 252.322C653.827 255.25 652.472 257.974 650.298 259.972C648.123 261.971 645.283 263.104 642.32 263.154ZM557.479 231.079C555.527 231.112 553.656 231.859 552.225 233.177C550.795 234.495 549.905 236.292 549.727 238.221L548.617 252.322C548.526 253.235 548.63 254.156 548.923 255.027C549.215 255.897 549.689 256.696 550.315 257.372C550.94 258.048 551.702 258.585 552.551 258.949C553.399 259.313 554.316 259.494 555.24 259.482H642.597C644.554 259.449 646.43 258.7 647.864 257.378C649.298 256.057 650.19 254.256 650.367 252.322L651.477 238.221C651.563 237.309 651.455 236.388 651.159 235.52C650.863 234.652 650.386 233.855 649.76 233.182C649.134 232.508 648.371 231.973 647.523 231.611C646.675 231.249 645.759 231.067 644.836 231.079H557.479Z" fill="white"/>
</g>
<path d="M637.806 235.522H563.806C563.48 235.529 563.156 235.467 562.855 235.34C562.554 235.214 562.284 235.025 562.062 234.788C561.84 234.55 561.672 234.269 561.567 233.962C561.463 233.655 561.425 233.329 561.457 233.007L562.03 225.663C562.098 224.981 562.417 224.347 562.925 223.884C563.433 223.42 564.096 223.158 564.787 223.148H638.787C639.112 223.141 639.436 223.202 639.735 223.329C640.035 223.456 640.304 223.644 640.525 223.882C640.745 224.12 640.912 224.402 641.014 224.709C641.117 225.016 641.152 225.341 641.117 225.663L640.544 233.007C640.48 233.687 640.165 234.32 639.66 234.785C639.155 235.249 638.495 235.512 637.806 235.522Z" fill="#0EBED9"/>
<path d="M700.465 304.776H493.265L495.023 282.34H702.223L700.465 304.776Z" fill="#0EBED9"/>
<path d="M616.605 336.007H478.669L479.131 330.223H617.067L616.605 336.007Z" fill="#0EBED9"/>
<path d="M615.31 352.714H477.374L477.818 346.912H615.754L615.31 352.714Z" fill="#0EBED9"/>
<path d="M613.996 369.421H476.06L476.504 363.62H614.44L613.996 369.421Z" fill="#0EBED9"/>
<path d="M612.683 386.111H474.747L475.191 380.328H613.127L612.683 386.111Z" fill="#0EBED9"/>
<path d="M703.185 386.111H646.908L651.311 330.223H707.588L703.185 386.111Z" fill="#0EBED9"/>
<path d="M687.608 350.97C687.867 347.702 685.314 345.462 680.689 345.462C678.894 345.377 677.103 345.697 675.449 346.396C673.796 347.096 672.324 348.157 671.143 349.501L667.591 346.839C669.316 344.929 671.447 343.424 673.831 342.433C676.215 341.442 678.792 340.99 681.373 341.111C688.773 341.111 693.324 344.544 692.862 350.291C692.196 358.828 683.038 359.471 682.52 366.099H677.359C678.006 358.02 687.145 356.845 687.608 350.97ZM675.99 374.343C676.056 373.427 676.48 372.573 677.171 371.963C677.862 371.353 678.766 371.034 679.69 371.074C680.115 371.058 680.539 371.134 680.932 371.296C681.325 371.458 681.678 371.703 681.967 372.013C682.255 372.324 682.473 372.693 682.603 373.096C682.734 373.498 682.775 373.923 682.724 374.343C682.654 375.231 682.25 376.06 681.592 376.666C680.933 377.271 680.069 377.609 679.172 377.611C678.736 377.643 678.298 377.579 677.89 377.425C677.482 377.271 677.113 377.029 676.809 376.717C676.505 376.405 676.274 376.031 676.133 375.62C675.991 375.21 675.942 374.774 675.99 374.343Z" fill="white"/>
<path d="M609.963 420.591H472.027L472.49 414.789H610.426L609.963 420.591Z" fill="#0EBED9"/>
<path d="M608.65 437.28H470.714L471.176 431.497H609.112L608.65 437.28Z" fill="#0EBED9"/>
<path d="M607.355 453.988H469.419L469.863 448.205H607.799L607.355 453.988Z" fill="#0EBED9"/>
<path d="M606.041 470.695H468.105L468.549 464.894H606.485L606.041 470.695Z" fill="#0EBED9"/>
<path d="M696.543 470.695H640.266L644.651 414.789H700.928L696.543 470.695Z" fill="#0EBED9"/>
<path d="M680.967 435.554C681.226 432.268 678.673 430.046 674.048 430.046C672.252 429.961 670.461 430.281 668.808 430.98C667.155 431.68 665.683 432.741 664.502 434.085L660.95 431.46C662.672 429.547 664.803 428.039 667.188 427.048C669.572 426.057 672.15 425.607 674.732 425.732C682.132 425.732 686.683 429.165 686.221 434.912C685.555 443.449 676.397 444.092 675.879 450.72H670.718C671.347 442.476 680.504 441.429 680.967 435.554ZM669.349 459C669.41 458.097 669.819 457.253 670.49 456.641C671.162 456.029 672.045 455.697 672.956 455.713C673.383 455.697 673.809 455.773 674.204 455.936C674.598 456.099 674.952 456.346 675.241 456.658C675.53 456.971 675.746 457.343 675.876 457.747C676.005 458.152 676.044 458.579 675.99 459C675.916 459.886 675.511 460.713 674.853 461.318C674.196 461.923 673.334 462.262 672.438 462.268C672.01 462.286 671.583 462.213 671.186 462.052C670.789 461.891 670.431 461.648 670.138 461.337C669.845 461.027 669.622 460.658 669.486 460.254C669.35 459.851 669.303 459.423 669.349 459Z" fill="white"/>
<path d="M603.322 505.157H465.386L465.848 499.374H603.784L603.322 505.157Z" fill="#0EBED9"/>
<path d="M602.008 521.865H464.072L464.535 516.063H602.471L602.008 521.865Z" fill="#0EBED9"/>
<path d="M600.695 538.573H462.777L463.221 532.771H601.157L600.695 538.573Z" fill="#0EBED9"/>
<path d="M599.4 555.262H461.464L461.908 549.479H599.844L599.4 555.262Z" fill="#0EBED9"/>
<path d="M689.902 555.261H633.625L638.009 499.374H694.287L689.902 555.261Z" fill="#0EBED9"/>
<path d="M674.325 520.12C674.584 516.852 672.031 514.612 667.387 514.612C665.595 514.529 663.807 514.849 662.157 515.549C660.507 516.248 659.038 517.309 657.86 518.652L654.308 515.916C656.03 514.003 658.161 512.495 660.546 511.504C662.931 510.513 665.508 510.063 668.09 510.188C675.49 510.188 680.023 513.603 679.579 519.276C678.913 527.832 669.755 528.456 669.237 535.084H664.15C664.705 527.134 673.862 525.996 674.325 520.12ZM662.707 543.456C662.773 542.557 663.184 541.717 663.855 541.109C664.526 540.501 665.406 540.171 666.314 540.188C666.74 540.172 667.164 540.247 667.557 540.409C667.95 540.571 668.303 540.816 668.592 541.127C668.88 541.438 669.097 541.807 669.228 542.209C669.358 542.611 669.4 543.037 669.348 543.456C669.279 544.344 668.874 545.174 668.216 545.779C667.558 546.385 666.694 546.722 665.796 546.724C665.367 546.745 664.939 546.674 664.54 546.514C664.142 546.355 663.783 546.111 663.489 545.8C663.195 545.489 662.973 545.118 662.838 544.714C662.703 544.309 662.658 543.88 662.707 543.456Z" fill="white"/>
<path d="M596.68 589.742H458.744L459.207 583.94H597.143L596.68 589.742Z" fill="#0EBED9"/>
<path d="M595.367 606.45H457.431L457.893 600.648H595.829L595.367 606.45Z" fill="#0EBED9"/>
<path d="M594.053 623.138H456.117L456.58 617.355H594.516L594.053 623.138Z" fill="#0EBED9"/>
<path d="M592.74 639.846H454.804L455.266 634.044H593.202L592.74 639.846Z" fill="#0EBED9"/>
<path d="M683.26 639.846H626.983L631.368 583.94H687.645L683.26 639.846Z" fill="#0EBED9"/>
<path d="M667.683 604.705C667.942 601.419 665.389 599.197 660.746 599.197C658.954 599.112 657.165 599.432 655.515 600.132C653.865 600.831 652.396 601.893 651.218 603.236L647.666 600.574C649.389 598.661 651.52 597.154 653.905 596.162C656.289 595.171 658.867 594.722 661.449 594.846C668.849 594.846 673.381 598.279 672.937 604.026C672.271 612.563 663.114 613.206 662.596 619.834H657.434C658.063 611.7 667.221 610.58 667.683 604.705ZM656.065 628.078C656.127 627.175 656.536 626.33 657.207 625.719C657.879 625.107 658.762 624.775 659.673 624.791C660.1 624.774 660.526 624.85 660.92 625.013C661.315 625.177 661.669 625.423 661.958 625.736C662.247 626.049 662.463 626.42 662.593 626.825C662.722 627.229 662.761 627.657 662.707 628.078C662.633 628.964 662.227 629.791 661.57 630.396C660.913 631.001 660.051 631.339 659.155 631.346C658.727 631.364 658.299 631.29 657.902 631.13C657.505 630.969 657.148 630.725 656.855 630.415C656.561 630.105 656.339 629.735 656.203 629.332C656.067 628.928 656.02 628.501 656.065 628.078Z" fill="white"/>
<path opacity="0.7" d="M700.465 304.776H493.265L495.023 282.34H702.223L700.465 304.776Z" fill="white"/>
<path opacity="0.7" d="M616.605 336.007H478.669L479.131 330.223H617.067L616.605 336.007Z" fill="white"/>
<path opacity="0.7" d="M615.31 352.714H477.374L477.818 346.912H615.754L615.31 352.714Z" fill="white"/>
<path opacity="0.7" d="M613.996 369.421H476.06L476.504 363.62H614.44L613.996 369.421Z" fill="white"/>
<path opacity="0.7" d="M612.683 386.111H474.747L475.191 380.328H613.127L612.683 386.111Z" fill="white"/>
<path opacity="0.7" d="M703.185 386.111H646.908L651.311 330.223H707.588L703.185 386.111Z" fill="white"/>
<path opacity="0.7" d="M609.963 420.591H472.027L472.49 414.789H610.426L609.963 420.591Z" fill="white"/>
<path opacity="0.7" d="M608.65 437.28H470.714L471.176 431.497H609.112L608.65 437.28Z" fill="white"/>
<path opacity="0.7" d="M607.355 453.988H469.419L469.863 448.205H607.799L607.355 453.988Z" fill="white"/>
<path opacity="0.7" d="M606.041 470.695H468.105L468.549 464.894H606.485L606.041 470.695Z" fill="white"/>
<path opacity="0.7" d="M696.543 470.695H640.266L644.651 414.789H700.928L696.543 470.695Z" fill="white"/>
<path opacity="0.7" d="M603.322 505.157H465.386L465.848 499.374H603.784L603.322 505.157Z" fill="white"/>
<path opacity="0.7" d="M602.008 521.865H464.072L464.535 516.063H602.471L602.008 521.865Z" fill="white"/>
<path opacity="0.7" d="M600.695 538.573H462.777L463.221 532.771H601.157L600.695 538.573Z" fill="white"/>
<path opacity="0.7" d="M599.4 555.262H461.464L461.908 549.479H599.844L599.4 555.262Z" fill="white"/>
<path opacity="0.7" d="M689.902 555.261H633.625L638.009 499.374H694.287L689.902 555.261Z" fill="white"/>
<path opacity="0.7" d="M596.68 589.742H458.744L459.207 583.94H597.143L596.68 589.742Z" fill="white"/>
<path opacity="0.7" d="M595.367 606.45H457.431L457.893 600.648H595.829L595.367 606.45Z" fill="white"/>
<path opacity="0.7" d="M594.053 623.138H456.117L456.58 617.355H594.516L594.053 623.138Z" fill="white"/>
<path opacity="0.7" d="M592.74 639.846H454.804L455.266 634.044H593.202L592.74 639.846Z" fill="white"/>
<path opacity="0.7" d="M683.26 639.846H626.983L631.368 583.94H687.645L683.26 639.846Z" fill="white"/>
<path d="M370 471.852V522.416C370.013 532.386 366.134 541.973 359.178 549.166L311.633 598.536H338.55L387.945 550.286C391.629 546.691 394.557 542.405 396.558 537.677C398.558 532.949 399.593 527.874 399.6 522.746V471.852H370Z" fill="#0EBED9"/>
<path opacity="0.4" d="M399.6 471.852V522.691C399.607 525.539 399.285 528.379 398.638 531.155C397.019 538.426 393.304 545.073 387.945 550.286L338.55 598.536H311.633L359.178 549.166C366.134 541.973 370.013 532.386 370 522.416V471.852H399.6Z" fill="white"/>
<path opacity="0.2" d="M399.6 471.852V522.691C399.607 525.54 399.284 528.379 398.638 531.155L370 519.68V471.852H399.6Z" fill="black"/>
<path d="M292.929 604.044L253.08 754.707C252.723 756.078 251.917 757.293 250.789 758.161C249.66 759.028 248.273 759.499 246.846 759.499H175.639C175.053 759.497 174.474 759.361 173.949 759.104C173.423 758.846 172.963 758.472 172.605 758.011C172.246 757.552 171.999 757.016 171.883 756.446C171.767 755.876 171.787 755.287 171.939 754.725L211.807 604.044H204.148L164.78 752.852C164.348 754.501 164.302 756.227 164.646 757.896C164.989 759.566 165.712 761.135 166.759 762.485C167.807 763.835 169.152 764.929 170.691 765.684C172.23 766.439 173.922 766.836 175.639 766.843H246.846C249.907 766.841 252.881 765.832 255.305 763.976C257.728 762.119 259.463 759.518 260.24 756.579L300.57 604.044H292.929Z" fill="#0EBED9"/>
<g opacity="0.4">
<path opacity="0.4" d="M292.929 604.044L253.08 754.707C252.723 756.078 251.917 757.293 250.789 758.161C249.66 759.028 248.273 759.499 246.846 759.499H175.639C175.053 759.497 174.474 759.361 173.949 759.104C173.423 758.846 172.963 758.472 172.605 758.011C172.246 757.552 171.999 757.016 171.883 756.446C171.767 755.876 171.787 755.287 171.939 754.725L211.807 604.044H204.148L164.78 752.852C164.348 754.501 164.302 756.227 164.646 757.896C164.989 759.566 165.712 761.135 166.759 762.485C167.807 763.835 169.152 764.929 170.691 765.684C172.23 766.439 173.922 766.836 175.639 766.843H246.846C249.907 766.841 252.881 765.832 255.305 763.976C257.728 762.119 259.463 759.518 260.24 756.579L300.57 604.044H292.929Z" fill="white"/>
</g>
<path d="M309.228 766.843L265.66 601.97L258.5 603.824L301.569 766.843H309.228Z" fill="#0EBED9"/>
<path d="M398.028 766.843L354.46 601.97L347.301 603.824L390.369 766.843H398.028Z" fill="#0EBED9"/>
<g opacity="0.5">
<path opacity="0.5" d="M309.228 766.843L265.66 601.97L258.5 603.824L301.569 766.843H309.228Z" fill="white"/>
</g>
<g opacity="0.5">
<path opacity="0.5" d="M398.028 766.843L354.46 601.97L347.301 603.824L390.369 766.843H398.028Z" fill="white"/>
</g>
<path opacity="0.2" d="M204.148 604.044H211.807L205.794 626.756L198.709 624.608L204.148 604.044Z" fill="black"/>
<path opacity="0.2" d="M265.66 601.97L275.558 639.443L267.251 636.946L258.5 603.824L265.66 601.97Z" fill="black"/>
<path opacity="0.2" d="M292.929 604.044H300.57L288.027 651.597L280.923 649.449L292.929 604.044Z" fill="black"/>
<path opacity="0.2" d="M371.943 668.58L363.599 666.046L347.301 604.283L354.46 602.264L371.943 668.58Z" fill="black"/>
<path d="M197.395 606.559L162.8 420.701L162.338 417.892C161.996 416.156 162.042 414.366 162.474 412.65C162.905 410.934 163.711 409.332 164.835 407.959C165.92 406.669 167.283 405.637 168.823 404.938C170.363 404.239 172.041 403.891 173.734 403.92H248.622C252.176 404.094 255.571 405.437 258.271 407.737C260.97 410.038 262.822 413.165 263.533 416.625L264.088 419.765L298.664 605.201L291.375 606.523L256.688 420.536L256.244 417.929C255.858 416.155 254.91 414.55 253.538 413.351C252.167 412.151 250.443 411.42 248.622 411.264H173.66C173.052 411.241 172.446 411.354 171.889 411.596C171.331 411.837 170.836 412.201 170.441 412.659C170.008 413.219 169.705 413.866 169.552 414.554C169.398 415.242 169.399 415.955 169.553 416.644L170.071 419.728L204.684 605.164L197.395 606.559Z" fill="#0EBED9"/>
<g opacity="0.5">
<path opacity="0.5" d="M197.395 606.559L162.8 420.701L162.338 417.892C161.996 416.156 162.042 414.366 162.474 412.65C162.905 410.934 163.711 409.332 164.835 407.959C165.92 406.669 167.283 405.637 168.823 404.938C170.363 404.239 172.041 403.891 173.734 403.92H248.622C252.176 404.094 255.571 405.437 258.271 407.737C260.97 410.038 262.822 413.165 263.533 416.625L264.088 419.765L298.664 605.201L291.375 606.523L256.688 420.536L256.244 417.929C255.858 416.155 254.91 414.55 253.538 413.351C252.167 412.151 250.443 411.42 248.622 411.264H173.66C173.052 411.241 172.446 411.354 171.889 411.596C171.331 411.837 170.836 412.201 170.441 412.659C170.008 413.219 169.705 413.866 169.552 414.554C169.398 415.242 169.399 415.955 169.553 416.644L170.071 419.728L204.684 605.164L197.395 606.559Z" fill="white"/>
</g>
<path d="M212.528 588.126H354.849C357.302 588.126 359.655 589.093 361.389 590.815C363.124 592.536 364.099 594.871 364.099 597.306V609.552H203.278V597.269C203.288 594.841 204.267 592.515 206 590.802C207.734 589.088 210.081 588.126 212.528 588.126Z" fill="#0EBED9"/>
<path d="M366.319 598.866H201.058C199.004 598.866 197.34 600.518 197.34 602.557V605.898C197.34 607.936 199.004 609.589 201.058 609.589H366.319C368.372 609.589 370.037 607.936 370.037 605.898V602.557C370.037 600.518 368.372 598.866 366.319 598.866Z" fill="#0EBED9"/>
<path opacity="0.6" d="M366.319 598.866H201.058C199.004 598.866 197.34 600.518 197.34 602.557V605.898C197.34 607.936 199.004 609.589 201.058 609.589H366.319C368.372 609.589 370.037 607.936 370.037 605.898V602.557C370.037 600.518 368.372 598.866 366.319 598.866Z" fill="white"/>
<path d="M274.411 495.72H180.375L166.352 420.444H260.369L274.281 495.023L274.411 495.72Z" fill="#0EBED9"/>
<path d="M366.91 335.309C366.91 335.309 355.089 308.063 354.071 305.143C353.054 302.224 354.256 287.481 353.35 284.947C352.443 282.414 338.716 280.596 335.812 280.927C332.907 281.257 335.46 304.06 336.663 305.859C338.231 307.71 339.999 309.385 341.935 310.853L352.388 342.065L366.91 335.309Z" fill="#FFC3BD"/>
<path d="M307.1 386.735C315.166 388.002 348.189 392.738 355.57 387.855C361.527 383.907 344.748 319.923 344.748 319.923L359.677 313.882C359.677 313.882 395.142 391.398 376.198 409.097C366.578 418.094 339.531 420.37 300.625 420.37L307.1 386.735Z" fill="#6FA926"/>
<path opacity="0.1" d="M306.881 386.735C314.947 388.002 347.969 392.739 355.351 387.855C361.308 383.908 344.528 319.923 344.528 319.923L359.458 313.883C359.458 313.883 394.922 391.399 375.978 409.098C366.358 418.094 339.311 420.371 300.406 420.371L306.881 386.735Z" fill="white"/>
<path opacity="0.1" d="M320.772 420.187C315.037 420.352 308.913 420.426 302.475 420.426L308.025 399.33C314.038 405.057 318.433 412.248 320.772 420.187Z" fill="black"/>
<path d="M353.665 431.441L392.811 472.531" stroke="#2E353A" stroke-width="2" stroke-miterlimit="10"/>
<path d="M325.6 455.64C325.6 455.64 355.478 454.722 358.586 454.41C361.694 454.098 374.625 446.754 377.4 446.46C380.175 446.166 387.575 457.77 388.5 460.524C389.425 463.278 367.54 470.622 365.375 470.328C363.023 469.691 360.747 468.805 358.586 467.684L325.6 471.54V455.64Z" fill="#FFC3BD"/>
<path d="M308.025 752.448L322.77 750.447L324.805 715.673L310.097 717.693L308.025 752.448Z" fill="#FFC3BD"/>
<path d="M323.88 748.684L307.23 747.638C306.952 747.617 306.676 747.702 306.459 747.876C306.242 748.05 306.101 748.3 306.064 748.574L304.436 761.61C304.39 762.294 304.62 762.968 305.074 763.484C305.528 764.001 306.17 764.317 306.86 764.364C312.669 764.639 315.462 764.474 322.788 764.878C327.302 765.135 336.164 766.09 342.361 765.484C348.559 764.878 347.8 758.819 345.136 758.526C338.772 757.81 330.336 753.183 326.377 749.658C325.676 749.067 324.798 748.725 323.88 748.684Z" fill="#2E353A"/>
<path d="M328.985 751.512C327.654 751.393 326.34 751.135 325.063 750.741C324.998 750.724 324.939 750.689 324.893 750.641C324.847 750.592 324.817 750.531 324.804 750.465C324.801 750.398 324.814 750.331 324.843 750.27C324.872 750.209 324.916 750.156 324.971 750.116C325.47 749.823 329.855 747.234 331.631 748.042C331.83 748.138 332 748.283 332.126 748.463C332.253 748.643 332.331 748.852 332.352 749.07C332.442 749.395 332.439 749.739 332.344 750.063C332.249 750.387 332.067 750.678 331.816 750.906C330.982 751.452 329.972 751.668 328.985 751.512ZM331.335 748.739C330.391 748.299 327.838 749.382 326.044 750.355C328.671 751.034 330.613 751.071 331.372 750.447C331.524 750.288 331.633 750.094 331.688 749.882C331.743 749.67 331.742 749.447 331.686 749.235C331.679 749.129 331.642 749.026 331.58 748.939C331.518 748.851 331.433 748.783 331.335 748.739Z" fill="#6FA926"/>
<path d="M325.137 750.741C325.09 750.757 325.037 750.757 324.989 750.741C324.895 750.675 324.829 750.577 324.804 750.465C324.804 750.337 324.804 746.022 326.321 744.682C326.53 744.512 326.775 744.389 327.037 744.322C327.299 744.255 327.573 744.247 327.838 744.296C328.132 744.322 328.408 744.444 328.622 744.644C328.837 744.844 328.978 745.109 329.022 745.398C329.263 747.032 326.858 749.97 325.322 750.741C325.293 750.754 325.262 750.761 325.23 750.761C325.198 750.761 325.166 750.754 325.137 750.741ZM327.542 745.012C327.404 745.002 327.264 745.022 327.133 745.069C327.003 745.117 326.883 745.191 326.784 745.288C325.822 746.077 325.581 748.501 325.526 749.878C326.961 748.835 327.962 747.307 328.338 745.582C328.338 745.38 328.208 745.123 327.709 745.031L327.542 745.012Z" fill="#6FA926"/>
<path opacity="0.2" d="M310.097 717.693L324.804 715.691L323.639 735.557L308.95 736.842L310.097 717.693Z" fill="black"/>
<path d="M308.617 548.064L305.028 525.702L222.407 520.8C222.407 520.8 213.619 567.324 220.372 579.717C232.415 601.841 297.369 590.733 316.368 592.844C305.009 638.946 306.119 729.039 306.119 729.039L333.259 731.095C333.259 731.095 354.145 634.026 358.363 587.887C361.212 556.767 335.22 557.538 308.617 548.064Z" fill="#2E353A"/>
<path d="M302.938 730.306L335.553 732.436L338.346 718.574L302.512 716.922L302.938 730.306Z" fill="#6FA926"/>
<path d="M342.028 739.467L356.865 740.551L366.152 706.97L351.333 705.905L342.028 739.467Z" fill="#FFC3BD"/>
<path d="M358.326 739.045L342.25 734.602C341.985 734.515 341.696 734.535 341.446 734.659C341.197 734.783 341.007 735 340.918 735.263L336.589 747.674C336.496 748.006 336.471 748.352 336.514 748.694C336.557 749.035 336.668 749.364 336.84 749.663C337.012 749.962 337.242 750.224 337.516 750.434C337.791 750.644 338.104 750.798 338.439 750.887C343.989 752.338 346.819 752.723 353.905 754.67C358.252 755.863 366.725 758.617 372.923 759.315C379.12 760.012 379.638 753.917 377.085 753.091C371.017 751.071 363.765 744.792 360.602 740.532C360.035 739.795 359.233 739.271 358.326 739.045Z" fill="#2E353A"/>
<path d="M362.729 742.882C361.439 742.498 360.198 741.969 359.029 741.303C358.968 741.279 358.916 741.235 358.883 741.179C358.849 741.122 358.836 741.056 358.844 740.991C358.849 740.924 358.872 740.859 358.911 740.804C358.95 740.749 359.004 740.706 359.066 740.679C359.603 740.496 364.45 738.843 366.004 740.036C366.184 740.169 366.326 740.344 366.416 740.547C366.507 740.75 366.544 740.972 366.522 741.193C366.545 741.54 366.469 741.886 366.302 742.192C366.135 742.497 365.884 742.749 365.578 742.919C364.657 743.26 363.641 743.247 362.729 742.882ZM365.597 740.642C364.764 740.018 362.045 740.642 360.047 741.138C362.47 742.35 364.376 742.79 365.227 742.331C365.412 742.21 365.563 742.043 365.663 741.847C365.764 741.651 365.811 741.432 365.8 741.212C365.82 741.104 365.807 740.993 365.765 740.892C365.722 740.791 365.651 740.704 365.56 740.642H365.597Z" fill="#6FA926"/>
<path d="M359.122 741.34H358.9C358.857 741.301 358.824 741.252 358.805 741.198C358.785 741.143 358.78 741.085 358.789 741.028C358.789 740.899 359.659 736.676 361.472 735.685C361.715 735.573 361.98 735.515 362.249 735.515C362.517 735.515 362.782 735.573 363.026 735.685C363.31 735.774 363.556 735.953 363.727 736.196C363.898 736.438 363.983 736.73 363.969 737.025C363.84 738.659 360.88 741.046 359.215 741.487C359.167 741.45 359.135 741.398 359.122 741.34ZM362.6 736.236C362.467 736.198 362.328 736.189 362.191 736.208C362.054 736.227 361.922 736.274 361.805 736.346C360.695 736.933 359.955 739.247 359.603 740.587C361.12 739.889 363.118 738.035 363.303 736.915C363.303 736.713 363.303 736.456 362.804 736.272L362.6 736.236Z" fill="#6FA926"/>
<path opacity="0.2" d="M351.333 705.905L366.152 706.989L360.842 726.175L346.19 724.394L351.333 705.905Z" fill="black"/>
<path d="M371.184 723.806L345.062 716.187C345.062 716.187 360.75 628.83 376.475 598.536C375.291 598.15 373.719 597.655 371.776 597.086C368.28 596.039 363.636 594.735 358.178 593.23C320.217 582.783 243.275 563.193 243.275 563.193L278.425 530.641C278.425 530.641 418.433 551.828 421.337 588.438C422.725 606.045 371.184 723.806 371.184 723.806Z" fill="#2E353A"/>
<path d="M341.695 716.756L373.145 725.587L378.788 712.606L344.082 703.573L341.695 716.756Z" fill="#6FA926"/>
<path opacity="0.2" d="M371.85 597.086C368.354 596.039 363.71 594.735 358.253 593.23C359.344 584.344 359.363 574.154 355.052 568.958C346.487 558.603 324.453 552.526 311.91 550.323C301.421 548.487 266.178 544.815 266.178 544.815C266.178 544.815 311.91 540.463 358.678 553.995C381.692 560.714 377.197 583.132 371.85 597.086Z" fill="black"/>
<path d="M307.1 386.735C307.1 386.735 319.088 430.799 305.083 525.702C278.98 525.151 235.116 524.142 222.407 523.866C222.092 510.647 231.916 445.873 220.427 383.394C228.701 381.978 237.066 381.155 245.458 380.934C257.741 380.499 270.039 380.762 282.291 381.723C290.679 382.758 298.973 384.434 307.1 386.735Z" fill="#6FA926"/>
<path opacity="0.3" d="M307.1 386.735C307.1 386.735 319.088 430.799 305.083 525.702C278.98 525.151 235.116 524.142 222.407 523.866C222.092 510.647 231.916 445.873 220.427 383.394C228.701 381.978 237.066 381.155 245.458 380.934C257.741 380.499 270.039 380.762 282.291 381.723C290.679 382.758 298.973 384.434 307.1 386.735Z" fill="white"/>
<path opacity="0.1" d="M249.435 463.902C242.035 462.286 233.211 455.218 225.94 448.241C225.94 435.83 225.33 422.629 223.979 409.171C234.265 424.281 262.126 466.674 249.435 463.902Z" fill="black"/>
<path d="M220.372 383.394C192.086 393.51 241.74 469.52 257.15 477.36C272.561 485.2 350.89 468.786 350.89 468.786L347.8 453.07C347.8 453.07 278.499 454.814 272.117 453.217C265.734 451.619 250.564 419.214 241.832 403.92C236.978 395.049 229.484 387.881 220.372 383.394Z" fill="#6FA926"/>
<path opacity="0.1" d="M220.153 383.394C191.866 393.51 241.52 469.52 256.931 477.36C272.341 485.2 350.67 468.786 350.67 468.786L347.581 453.07C347.581 453.07 278.28 454.814 271.897 453.217C265.515 451.619 250.345 419.214 241.613 403.92C236.759 395.049 229.264 387.881 220.153 383.394Z" fill="white"/>
<path d="M342.25 451.656L346.264 472.531L353.664 470.016L350.889 451.656H342.25Z" fill="#6FA926"/>
<path opacity="0.7" d="M342.25 451.656L346.264 472.531L353.664 470.016L350.889 451.656H342.25Z" fill="white"/>
<path d="M344.248 324.568L364.154 316.747L360.287 310.009L342.62 316.141L344.248 324.568Z" fill="#6FA926"/>
<path opacity="0.7" d="M344.248 324.568L364.154 316.747L360.287 310.009L342.62 316.141L344.248 324.568Z" fill="white"/>
<path opacity="0.1" d="M240.944 381.117C240.944 381.117 241.481 389.691 258.445 397.953L270.174 389.526C270.174 389.526 273.523 411.044 275.724 427.109C275.724 427.109 275.576 401.405 273.356 391.527L282.329 394.685C282.329 394.685 274.688 381.668 261.683 378.675C248.677 375.683 240.944 381.117 240.944 381.117Z" fill="black"/>
<path d="M249.935 339.954C252.007 351.759 253.857 373.35 245.402 381.025L270.1 387.855L282.162 381.814C269.008 378.399 269.563 368.669 272.061 359.58L249.935 339.954Z" fill="#FFC3BD"/>
<path opacity="0.2" d="M259 347.959L272.135 359.581C271.527 361.696 271.1 363.858 270.858 366.044C265.826 365.217 259.018 359.562 258.593 354.312C258.33 352.187 258.468 350.033 259 347.959Z" fill="black"/>
<path d="M267.454 307.145C262.071 312.946 266.714 319.574 283.901 327.634C287.989 318.693 285.492 303.766 279.942 301.159C274.392 298.552 272.153 302.114 267.454 307.145Z" fill="#2E353A"/>
<path d="M242.72 325.395C247.086 340.762 248.862 349.96 258.519 356.258C273.06 365.713 290.876 354.422 291.227 338.063C291.523 323.375 284.345 300.7 267.64 297.818C263.963 297.166 260.179 297.456 256.647 298.662C253.115 299.867 249.952 301.947 247.456 304.705C244.961 307.463 243.216 310.807 242.387 314.421C241.558 318.035 241.673 321.8 242.72 325.358V325.395Z" fill="#FFC3BD"/>
<path d="M267.085 324.623C267.362 325.89 268.269 326.771 269.101 326.587C269.934 326.404 270.378 325.247 270.1 323.98C269.823 322.713 268.935 321.832 268.102 321.997C267.27 322.163 266.9 323.356 267.085 324.623Z" fill="#2E353A"/>
<path d="M281.607 321.52C281.885 322.787 282.791 323.668 283.624 323.485C284.456 323.301 284.919 322.144 284.641 320.859C284.364 319.574 283.457 318.711 282.625 318.895C281.792 319.078 281.33 320.253 281.607 321.52Z" fill="#2E353A"/>
<path d="M277 323.136C279.364 326.688 282.216 329.895 285.474 332.665C284.734 333.471 283.826 334.107 282.813 334.528C281.8 334.95 280.707 335.148 279.609 335.107L277 323.136Z" fill="#E9B3AD"/>
<path d="M262.126 320.933C261.989 320.984 261.839 320.992 261.697 320.956C261.555 320.921 261.427 320.843 261.33 320.733C261.234 320.623 261.173 320.487 261.157 320.342C261.141 320.198 261.169 320.051 261.238 319.923C261.723 318.811 262.47 317.832 263.417 317.068C264.363 316.304 265.482 315.778 266.677 315.535C266.871 315.502 267.069 315.545 267.231 315.655C267.394 315.764 267.507 315.932 267.547 316.123C267.569 316.321 267.514 316.52 267.394 316.68C267.274 316.841 267.097 316.95 266.899 316.985C265.96 317.192 265.085 317.618 264.345 318.228C263.605 318.838 263.022 319.614 262.644 320.492C262.6 320.602 262.53 320.699 262.44 320.775C262.35 320.852 262.242 320.906 262.126 320.933Z" fill="#2E353A"/>
<path d="M287.157 315.241C287.014 315.277 286.864 315.27 286.726 315.221C286.588 315.172 286.467 315.083 286.38 314.966C285.806 314.198 285.058 313.576 284.196 313.149C283.335 312.721 282.385 312.501 281.422 312.505C281.219 312.521 281.017 312.456 280.862 312.326C280.706 312.195 280.608 312.009 280.589 311.808C280.578 311.61 280.642 311.415 280.769 311.262C280.896 311.109 281.076 311.009 281.274 310.981C282.494 310.954 283.703 311.216 284.8 311.746C285.898 312.276 286.852 313.059 287.582 314.029C287.645 314.107 287.691 314.197 287.719 314.293C287.746 314.389 287.754 314.489 287.742 314.589C287.73 314.688 287.698 314.783 287.649 314.87C287.599 314.957 287.532 315.033 287.453 315.094C287.369 315.168 287.267 315.218 287.157 315.241Z" fill="#2E353A"/>
<path d="M246.05 310.284C253.931 311.202 254.745 319.244 246.975 336.447C238.003 332.297 230.103 319.335 232.638 313.791C235.172 308.246 239.076 309.458 246.05 310.284Z" fill="#2E353A"/>
<path d="M237.966 339.458C238.913 341.212 240.2 342.764 241.752 344.024C243.305 345.284 245.092 346.228 247.012 346.802C252.155 348.289 254.782 343.736 253.413 338.889C252.173 334.519 247.993 328.479 242.813 329.122C237.633 329.764 235.635 335.107 237.966 339.458Z" fill="#FFC3BD"/>
<path d="M233.248 312.469C233.248 312.469 229.344 307.475 236.948 297.487C244.551 287.499 263.125 284.433 277.37 287.187C291.615 289.941 283.142 305.547 278.055 308.136L278.684 305.694C273.239 308.514 267.243 310.129 261.109 310.431L263.921 307.842C263.921 307.842 241.573 313.589 233.248 312.469Z" fill="#2E353A"/>
<path d="M278.665 339.33C278.343 341.217 278.163 343.126 278.129 345.04L277.13 345.187C272.542 345.793 270.229 344.562 269.045 343.039C268.483 342.272 268.109 341.385 267.954 340.45C267.878 339.92 267.878 339.382 267.954 338.853C270.953 339.732 274.109 339.957 277.204 339.513C278.055 339.44 278.665 339.33 278.665 339.33Z" fill="#2E353A"/>
<path d="M277.093 339.513L276.889 341.203C272.597 341.753 269.489 341.57 267.954 340.45C267.878 339.92 267.878 339.382 267.954 338.853C270.918 339.716 274.034 339.941 277.093 339.513Z" fill="white"/>
<path d="M277.13 345.168C272.542 345.774 270.23 344.544 269.046 343.02C270.784 342.824 272.545 342.936 274.244 343.35C275.375 343.64 276.385 344.276 277.13 345.168Z" fill="#E9B3AD"/>
<path d="M249.75 373.773C249.75 373.773 263.107 383.724 270.1 386.019C270.1 386.019 273.393 379.887 272.043 374.819L282.162 381.815C283.3 386.024 283.3 390.457 282.162 394.667L270.1 387.855L258.704 396.117C258.704 396.117 241.85 391.27 240.87 381.117L249.75 373.773Z" fill="#6FA926"/>
<path opacity="0.7" d="M249.75 373.773C249.75 373.773 263.107 383.724 270.1 386.019C270.1 386.019 273.393 379.887 272.043 374.819L282.162 381.815C283.3 386.024 283.3 390.457 282.162 394.667L270.1 387.855L258.704 396.117C258.704 396.117 241.85 391.27 240.87 381.117L249.75 373.773Z" fill="white"/>
<path d="M470.214 467.941H285.825C284.629 467.941 283.66 468.903 283.66 470.09V475.469C283.66 476.655 284.629 477.617 285.825 477.617H470.214C471.41 477.617 472.379 476.655 472.379 475.469V470.09C472.379 468.903 471.41 467.941 470.214 467.941Z" fill="#0EBED9"/>
<path opacity="0.5" d="M471.75 469.832V475.211C471.75 476.405 471.417 477.36 470.233 477.36H285.825C284.623 477.36 283.05 476.405 283.05 475.211V469.832C283.05 468.657 284.623 468.18 285.825 468.18H470.233C471.417 468.18 471.75 468.657 471.75 469.832Z" fill="white"/>
<path opacity="0.2" d="M360.75 469.832V475.211C360.75 476.405 360.343 477.36 359.159 477.36H285.825C284.623 477.36 283.05 476.405 283.05 475.211V469.832C283.05 468.657 284.623 468.18 285.825 468.18H359.159C360.343 468.18 360.75 468.657 360.75 469.832Z" fill="black"/>
<path d="M318.866 200.362C317.272 194.63 314.237 189.392 310.047 185.142C305.856 180.891 300.646 177.766 294.906 176.059C289.166 174.353 283.083 174.121 277.227 175.385C271.372 176.649 265.936 179.368 261.429 183.287C256.922 187.206 253.491 192.196 251.458 197.791C249.425 203.385 248.857 209.4 249.807 215.272C250.757 221.144 253.193 226.68 256.888 231.362C260.583 236.044 265.416 239.718 270.932 242.04C273.303 243.005 275.215 244.83 276.279 247.144L277.481 249.843L311.54 240.663L311.188 237.725C310.944 235.178 311.662 232.633 313.205 230.583C316.379 226.293 318.537 221.348 319.517 216.115C320.497 210.882 320.275 205.498 318.866 200.362Z" fill="#FFA945"/>
<path d="M288.6 249.916C288.6 249.916 283.475 233.962 274.429 226.893L279.442 225.534L279.831 217.878L288.026 229.647L287.36 215.326L295.445 228.38L296.259 221.036L303.418 219.2C299.502 227.931 298.801 237.75 301.439 246.942" stroke="white" stroke-linecap="round" stroke-linejoin="round"/>
<path d="M295.038 247.236C289.007 248.87 285.64 255.755 287.527 262.603C289.414 269.452 295.815 273.619 301.846 272.04C307.877 270.461 311.225 263.54 309.357 256.691C307.488 249.843 301.069 245.62 295.038 247.236Z" fill="#2E353A"/>
<path d="M306.656 265.742L294.52 269.029C291.621 269.812 288.531 269.479 285.869 268.096C283.207 266.714 281.169 264.385 280.164 261.575L276.186 250.43C276.107 250.21 276.074 249.976 276.091 249.742C276.107 249.509 276.172 249.281 276.281 249.074C276.391 248.867 276.543 248.685 276.727 248.539C276.911 248.393 277.124 248.287 277.352 248.227L310.8 239.175C311.027 239.113 311.266 239.098 311.499 239.132C311.733 239.166 311.957 239.247 312.157 239.372C312.357 239.496 312.529 239.66 312.661 239.854C312.794 240.048 312.885 240.267 312.927 240.497L315.203 252.082C315.776 255.009 315.214 258.043 313.629 260.576C312.044 263.109 309.554 264.954 306.656 265.742Z" fill="#FFA945"/>
<path opacity="0.4" d="M306.656 265.742L294.52 269.029C291.621 269.812 288.531 269.479 285.869 268.096C283.207 266.714 281.169 264.385 280.164 261.575L276.186 250.43C276.107 250.21 276.074 249.976 276.091 249.742C276.107 249.509 276.172 249.281 276.281 249.074C276.391 248.867 276.543 248.685 276.727 248.539C276.911 248.393 277.124 248.287 277.352 248.227L310.8 239.175C311.027 239.113 311.266 239.098 311.499 239.132C311.733 239.166 311.957 239.247 312.157 239.372C312.357 239.496 312.529 239.66 312.661 239.854C312.794 240.048 312.885 240.267 312.927 240.497L315.203 252.082C315.776 255.009 315.214 258.043 313.629 260.576C312.044 263.109 309.554 264.954 306.656 265.742Z" fill="white"/>
<path d="M237.503 235.467C234.189 234.862 230.827 234.549 227.457 234.53C225.782 234.52 224.108 234.612 222.444 234.806C221.611 234.934 220.779 235.026 219.983 235.228C219.576 235.338 219.169 235.393 218.781 235.54L217.615 235.907L216.283 236.33L217.079 235.173C219.323 231.876 221.109 228.294 222.388 224.524C223.025 222.654 223.489 220.731 223.776 218.778C223.917 217.81 224.004 216.835 224.035 215.858C224.09 214.886 224.09 213.911 224.035 212.939C223.964 211.976 223.828 211.019 223.628 210.075L223.276 208.68L222.814 207.303C222.485 206.402 222.083 205.53 221.611 204.695C221.157 203.853 220.644 203.044 220.076 202.272C219.504 201.502 218.886 200.766 218.226 200.069L217.208 199.041L216.098 198.086C215.377 197.425 214.526 196.911 213.767 196.25C213.009 195.589 212.102 195.222 211.27 194.689L209.42 193.477L211.473 192.504C212.454 192.027 213.49 191.458 214.47 190.87C215.451 190.283 216.431 189.677 217.393 189.034C219.3 187.744 221.112 186.321 222.814 184.775C223.646 184.004 224.46 183.214 225.256 182.388C226.051 181.562 226.773 180.681 227.457 179.799C228.142 178.918 228.808 177.963 229.307 177.027C229.905 176.088 230.442 175.113 230.917 174.108C231.406 173.109 231.826 172.078 232.175 171.023L232.656 169.444L233.007 167.81C233.214 166.732 233.337 165.639 233.377 164.542C233.476 162.329 233.277 160.112 232.785 157.951L232.415 156.317L231.897 154.719C231.583 153.636 231.083 152.626 230.676 151.58C230.269 150.533 229.677 149.56 229.178 148.532L226.532 143.024L231.601 146.256C232.489 146.843 233.451 147.412 234.506 147.945C235.56 148.477 236.541 148.991 237.577 149.45C239.64 150.406 241.766 151.222 243.941 151.892C245.032 152.204 246.124 152.498 247.215 152.737C248.308 152.984 249.413 153.168 250.527 153.287C251.625 153.427 252.731 153.495 253.838 153.489C254.933 153.481 256.027 153.408 257.113 153.269L258.704 152.994L260.276 152.571C261.292 152.24 262.281 151.835 263.236 151.36C263.713 151.132 264.171 150.868 264.605 150.57C265.069 150.303 265.509 149.995 265.919 149.652C266.768 148.996 267.571 148.285 268.324 147.522C269.064 146.73 269.75 145.89 270.377 145.007C271.03 144.12 271.617 143.187 272.135 142.216C272.708 141.28 273.097 140.215 273.596 139.224C274.096 138.232 274.392 137.131 274.799 136.084L277.111 130.062L278.258 136.341C278.452 137.368 278.718 138.38 279.054 139.371C280.029 142.441 281.518 145.327 283.457 147.908C284.735 149.593 286.249 151.089 287.952 152.351C288.792 152.986 289.683 153.551 290.616 154.04C291.549 154.543 292.52 154.973 293.521 155.325C294.525 155.673 295.551 155.955 296.592 156.17C297.649 156.381 298.718 156.528 299.792 156.611C300.871 156.666 301.951 156.666 303.03 156.611C304.121 156.611 305.213 156.464 306.304 156.372C307.396 156.28 308.487 156.023 309.56 155.858L312.798 155.087L315.998 154.132L319.162 153.012L323.546 151.451L321.03 155.325C320.568 156.005 320.105 156.831 319.68 157.62C319.254 158.41 318.866 159.218 318.496 160.062C317.768 161.709 317.192 163.417 316.775 165.166C316.362 166.892 316.157 168.661 316.165 170.436C316.185 172.175 316.491 173.899 317.071 175.54L317.571 176.751L318.2 178.092C318.652 178.836 319.166 179.542 319.735 180.203C320.306 180.859 320.925 181.473 321.585 182.039C322.27 182.63 322.993 183.176 323.75 183.673C324.5 184.181 325.278 184.647 326.081 185.069C326.876 185.509 327.727 185.84 328.56 186.244L331.15 187.217L333.814 188.043L335.664 188.63L334.11 189.824C333.063 190.63 332.08 191.514 331.168 192.468C330.247 193.424 329.394 194.442 328.615 195.515C328.19 196.048 327.857 196.617 327.487 197.168C327.13 197.723 326.809 198.299 326.525 198.894C326.2 199.481 325.928 200.095 325.711 200.73C325.454 201.323 325.25 201.937 325.1 202.566C324.971 203.208 324.749 203.833 324.675 204.402L324.49 206.366C324.49 207.027 324.49 207.688 324.601 208.349C324.638 209.008 324.75 209.661 324.934 210.295C325.055 210.92 325.228 211.535 325.452 212.131L326.21 213.967C326.465 214.608 326.781 215.222 327.154 215.803L328.19 217.639L328.578 218.282H327.857C325.121 218.289 322.397 218.647 319.754 219.347C318.43 219.695 317.151 220.194 315.943 220.834C315.643 220.994 315.352 221.172 315.073 221.366C314.773 221.535 314.493 221.738 314.241 221.972C313.965 222.173 313.706 222.393 313.464 222.633L312.742 223.386L313.427 222.596C313.651 222.335 313.898 222.096 314.167 221.88C314.417 221.636 314.69 221.415 314.981 221.219C315.258 221.036 315.536 220.816 315.832 220.65C317.028 219.939 318.3 219.36 319.624 218.924C322.288 218.066 325.058 217.578 327.857 217.474L327.542 218.117L326.395 216.281C325.979 215.704 325.62 215.089 325.322 214.445L324.453 212.609C324.177 211.958 323.966 211.281 323.824 210.589C323.593 209.917 323.444 209.221 323.38 208.514C323.38 207.817 323.213 207.101 323.195 206.403V204.255C323.195 203.557 323.454 202.859 323.565 202.162C323.706 201.462 323.904 200.774 324.157 200.105C324.359 199.421 324.626 198.757 324.952 198.123C325.231 197.49 325.552 196.876 325.914 196.287C326.251 195.655 326.622 195.042 327.024 194.451C327.822 193.279 328.707 192.169 329.67 191.127C330.634 190.064 331.68 189.076 332.796 188.171L333.148 190.007L330.354 189.218L327.598 188.245C326.691 187.859 325.748 187.51 324.897 187.051C324.01 186.622 323.151 186.137 322.325 185.601C321.479 185.074 320.67 184.491 319.902 183.857C319.141 183.219 318.436 182.518 317.793 181.764C317.103 181.007 316.484 180.19 315.943 179.322L315.184 178L314.574 176.586C313.862 174.717 313.462 172.745 313.39 170.748C313.317 168.744 313.497 166.74 313.926 164.781C314.337 162.855 314.919 160.968 315.665 159.144C316.035 158.226 316.442 157.308 316.886 156.464C317.33 155.619 317.793 154.738 318.366 153.838L320.216 156.152L316.923 157.345L313.575 158.373C312.428 158.685 311.281 158.942 310.134 159.218C308.987 159.493 307.821 159.658 306.637 159.787C305.454 159.949 304.262 160.047 303.067 160.081C301.835 160.148 300.599 160.148 299.367 160.081C298.162 159.994 296.963 159.834 295.778 159.603C294.582 159.365 293.401 159.052 292.244 158.667C291.09 158.259 289.966 157.775 288.877 157.216C287.784 156.653 286.738 156.002 285.751 155.27C283.778 153.828 282.022 152.116 280.534 150.185C279.057 148.282 277.815 146.211 276.834 144.016C276.334 142.927 275.895 141.811 275.52 140.674C275.121 139.515 274.8 138.332 274.558 137.131L278.018 137.388C277.592 138.526 277.204 139.683 276.741 140.803C276.267 141.936 275.736 143.045 275.15 144.126C274.611 145.227 273.993 146.288 273.3 147.302C272.575 148.33 271.784 149.312 270.932 150.24C270.049 151.155 269.097 152.002 268.083 152.773C267.584 153.172 267.052 153.528 266.492 153.838C265.959 154.192 265.402 154.51 264.827 154.793C263.676 155.361 262.483 155.84 261.257 156.225L259.407 156.684L257.557 157.014C256.33 157.169 255.094 157.237 253.857 157.216C252.62 157.219 251.384 157.139 250.157 156.978C248.913 156.831 247.677 156.617 246.457 156.335C245.254 156.078 244.07 155.748 242.905 155.38C240.587 154.66 238.325 153.777 236.134 152.737C235.024 152.241 233.951 151.69 232.896 151.121C231.842 150.552 230.806 149.946 229.714 149.285L232.138 147.1C232.674 148.202 233.248 149.267 233.729 150.405C234.224 151.527 234.663 152.673 235.042 153.838L235.597 155.674L236.004 157.51C236.253 158.724 236.439 159.95 236.559 161.182C236.631 162.405 236.631 163.631 236.559 164.854C236.503 166.087 236.355 167.315 236.115 168.526L235.708 170.362L235.153 172.198C234.749 173.379 234.267 174.532 233.71 175.65C233.171 176.763 232.552 177.836 231.86 178.863C231.183 179.866 230.455 180.835 229.677 181.764C228.882 182.719 228.068 183.6 227.217 184.499C226.366 185.399 225.459 186.189 224.553 186.996C222.708 188.571 220.761 190.025 218.725 191.348C217.702 192.009 216.666 192.621 215.617 193.184C214.544 193.771 213.49 194.322 212.324 194.836L212.454 192.651C213.323 193.239 214.304 193.771 215.081 194.377C215.858 194.983 216.783 195.607 217.541 196.342L218.725 197.407L219.817 198.545C220.529 199.327 221.196 200.149 221.815 201.005C222.427 201.878 222.977 202.792 223.461 203.741C223.953 204.675 224.373 205.645 224.719 206.642L225.182 208.165L225.515 209.708C225.711 210.744 225.835 211.794 225.885 212.847C226.016 217.008 225.286 221.151 223.739 225.02C222.265 228.852 220.28 232.47 217.837 235.779L217.301 235.045L218.54 234.696C218.966 234.567 219.391 234.512 219.817 234.42C220.649 234.237 221.5 234.182 222.351 234.071C224.052 233.971 225.757 233.971 227.457 234.071C230.84 234.249 234.201 234.716 237.503 235.467Z" fill="#FFA945"/>
<path opacity="0.7" d="M237.503 235.467C234.189 234.862 230.827 234.549 227.457 234.53C225.782 234.52 224.108 234.612 222.444 234.806C221.611 234.934 220.779 235.026 219.983 235.228C219.576 235.338 219.169 235.393 218.781 235.54L217.615 235.907L216.283 236.33L217.079 235.173C219.323 231.876 221.109 228.294 222.388 224.524C223.025 222.654 223.489 220.731 223.776 218.778C223.917 217.81 224.004 216.835 224.035 215.858C224.09 214.886 224.09 213.911 224.035 212.939C223.964 211.976 223.828 211.019 223.628 210.075L223.276 208.68L222.814 207.303C222.485 206.402 222.083 205.53 221.611 204.695C221.157 203.853 220.644 203.044 220.076 202.272C219.504 201.502 218.886 200.766 218.226 200.069L217.208 199.041L216.098 198.086C215.377 197.425 214.526 196.911 213.767 196.25C213.009 195.589 212.102 195.222 211.27 194.689L209.42 193.477L211.473 192.504C212.454 192.027 213.49 191.458 214.47 190.87C215.451 190.283 216.431 189.677 217.393 189.034C219.3 187.744 221.112 186.321 222.814 184.775C223.646 184.004 224.46 183.214 225.256 182.388C226.051 181.562 226.773 180.681 227.457 179.799C228.142 178.918 228.808 177.963 229.307 177.027C229.905 176.088 230.442 175.113 230.917 174.108C231.406 173.109 231.826 172.078 232.175 171.023L232.656 169.444L233.007 167.81C233.214 166.732 233.337 165.639 233.377 164.542C233.476 162.329 233.277 160.112 232.785 157.951L232.415 156.317L231.897 154.719C231.583 153.636 231.083 152.626 230.676 151.58C230.269 150.533 229.677 149.56 229.178 148.532L226.532 143.024L231.601 146.256C232.489 146.843 233.451 147.412 234.506 147.945C235.56 148.477 236.541 148.991 237.577 149.45C239.64 150.406 241.766 151.222 243.941 151.892C245.032 152.204 246.124 152.498 247.215 152.737C248.308 152.984 249.413 153.168 250.527 153.287C251.625 153.427 252.731 153.495 253.838 153.489C254.933 153.481 256.027 153.408 257.113 153.269L258.704 152.994L260.276 152.571C261.292 152.24 262.281 151.835 263.236 151.36C263.713 151.132 264.171 150.868 264.605 150.57C265.069 150.303 265.509 149.995 265.919 149.652C266.768 148.996 267.571 148.285 268.324 147.522C269.064 146.73 269.75 145.89 270.377 145.007C271.03 144.12 271.617 143.187 272.135 142.216C272.708 141.28 273.097 140.215 273.596 139.224C274.096 138.232 274.392 137.131 274.799 136.084L277.111 130.062L278.258 136.341C278.452 137.368 278.718 138.38 279.054 139.371C280.029 142.441 281.518 145.327 283.457 147.908C284.735 149.593 286.249 151.089 287.952 152.351C288.792 152.986 289.683 153.551 290.616 154.04C291.549 154.543 292.52 154.973 293.521 155.325C294.525 155.673 295.551 155.955 296.592 156.17C297.649 156.381 298.718 156.528 299.792 156.611C300.871 156.666 301.951 156.666 303.03 156.611C304.121 156.611 305.213 156.464 306.304 156.372C307.396 156.28 308.487 156.023 309.56 155.858L312.798 155.087L315.998 154.132L319.162 153.012L323.546 151.451L321.03 155.325C320.568 156.005 320.105 156.831 319.68 157.62C319.254 158.41 318.866 159.218 318.496 160.062C317.768 161.709 317.192 163.417 316.775 165.166C316.362 166.892 316.157 168.661 316.165 170.436C316.185 172.175 316.491 173.899 317.071 175.54L317.571 176.751L318.2 178.092C318.652 178.836 319.166 179.542 319.735 180.203C320.306 180.859 320.925 181.473 321.585 182.039C322.27 182.63 322.993 183.176 323.75 183.673C324.5 184.181 325.278 184.647 326.081 185.069C326.876 185.509 327.727 185.84 328.56 186.244L331.15 187.217L333.814 188.043L335.664 188.63L334.11 189.824C333.063 190.63 332.08 191.514 331.168 192.468C330.247 193.424 329.394 194.442 328.615 195.515C328.19 196.048 327.857 196.617 327.487 197.168C327.13 197.723 326.809 198.299 326.525 198.894C326.2 199.481 325.928 200.095 325.711 200.73C325.454 201.323 325.25 201.937 325.1 202.566C324.971 203.208 324.749 203.833 324.675 204.402L324.49 206.366C324.49 207.027 324.49 207.688 324.601 208.349C324.638 209.008 324.75 209.661 324.934 210.295C325.055 210.92 325.228 211.535 325.452 212.131L326.21 213.967C326.465 214.608 326.781 215.222 327.154 215.803L328.19 217.639L328.578 218.282H327.857C325.121 218.289 322.397 218.647 319.754 219.347C318.43 219.695 317.151 220.194 315.943 220.834C315.643 220.994 315.352 221.172 315.073 221.366C314.773 221.535 314.493 221.738 314.241 221.972C313.965 222.173 313.706 222.393 313.464 222.633L312.742 223.386L313.427 222.596C313.651 222.335 313.898 222.096 314.167 221.88C314.417 221.636 314.69 221.415 314.981 221.219C315.258 221.036 315.536 220.816 315.832 220.65C317.028 219.939 318.3 219.36 319.624 218.924C322.288 218.066 325.058 217.578 327.857 217.474L327.542 218.117L326.395 216.281C325.979 215.704 325.62 215.089 325.322 214.445L324.453 212.609C324.177 211.958 323.966 211.281 323.824 210.589C323.593 209.917 323.444 209.221 323.38 208.514C323.38 207.817 323.213 207.101 323.195 206.403V204.255C323.195 203.557 323.454 202.859 323.565 202.162C323.706 201.462 323.904 200.774 324.157 200.105C324.359 199.421 324.626 198.757 324.952 198.123C325.231 197.49 325.552 196.876 325.914 196.287C326.251 195.655 326.622 195.042 327.024 194.451C327.822 193.279 328.707 192.169 329.67 191.127C330.634 190.064 331.68 189.076 332.796 188.171L333.148 190.007L330.354 189.218L327.598 188.245C326.691 187.859 325.748 187.51 324.897 187.051C324.01 186.622 323.151 186.137 322.325 185.601C321.479 185.074 320.67 184.491 319.902 183.857C319.141 183.219 318.436 182.518 317.793 181.764C317.103 181.007 316.484 180.19 315.943 179.322L315.184 178L314.574 176.586C313.862 174.717 313.462 172.745 313.39 170.748C313.317 168.744 313.497 166.74 313.926 164.781C314.337 162.855 314.919 160.968 315.665 159.144C316.035 158.226 316.442 157.308 316.886 156.464C317.33 155.619 317.793 154.738 318.366 153.838L320.216 156.152L316.923 157.345L313.575 158.373C312.428 158.685 311.281 158.942 310.134 159.218C308.987 159.493 307.821 159.658 306.637 159.787C305.454 159.949 304.262 160.047 303.067 160.081C301.835 160.148 300.599 160.148 299.367 160.081C298.162 159.994 296.963 159.834 295.778 159.603C294.582 159.365 293.401 159.052 292.244 158.667C291.09 158.259 289.966 157.775 288.877 157.216C287.784 156.653 286.738 156.002 285.751 155.27C283.778 153.828 282.022 152.116 280.534 150.185C279.057 148.282 277.815 146.211 276.834 144.016C276.334 142.927 275.895 141.811 275.52 140.674C275.121 139.515 274.8 138.332 274.558 137.131L278.018 137.388C277.592 138.526 277.204 139.683 276.741 140.803C276.267 141.936 275.736 143.045 275.15 144.126C274.611 145.227 273.993 146.288 273.3 147.302C272.575 148.33 271.784 149.312 270.932 150.24C270.049 151.155 269.097 152.002 268.083 152.773C267.584 153.172 267.052 153.528 266.492 153.838C265.959 154.192 265.402 154.51 264.827 154.793C263.676 155.361 262.483 155.84 261.257 156.225L259.407 156.684L257.557 157.014C256.33 157.169 255.094 157.237 253.857 157.216C252.62 157.219 251.384 157.139 250.157 156.978C248.913 156.831 247.677 156.617 246.457 156.335C245.254 156.078 244.07 155.748 242.905 155.38C240.587 154.66 238.325 153.777 236.134 152.737C235.024 152.241 233.951 151.69 232.896 151.121C231.842 150.552 230.806 149.946 229.714 149.285L232.138 147.1C232.674 148.202 233.248 149.267 233.729 150.405C234.224 151.527 234.663 152.673 235.042 153.838L235.597 155.674L236.004 157.51C236.253 158.724 236.439 159.95 236.559 161.182C236.631 162.405 236.631 163.631 236.559 164.854C236.503 166.087 236.355 167.315 236.115 168.526L235.708 170.362L235.153 172.198C234.749 173.379 234.267 174.532 233.71 175.65C233.171 176.763 232.552 177.836 231.86 178.863C231.183 179.866 230.455 180.835 229.677 181.764C228.882 182.719 228.068 183.6 227.217 184.499C226.366 185.399 225.459 186.189 224.553 186.996C222.708 188.571 220.761 190.025 218.725 191.348C217.702 192.009 216.666 192.621 215.617 193.184C214.544 193.771 213.49 194.322 212.324 194.836L212.454 192.651C213.323 193.239 214.304 193.771 215.081 194.377C215.858 194.983 216.783 195.607 217.541 196.342L218.725 197.407L219.817 198.545C220.529 199.327 221.196 200.149 221.815 201.005C222.427 201.878 222.977 202.792 223.461 203.741C223.953 204.675 224.373 205.645 224.719 206.642L225.182 208.165L225.515 209.708C225.711 210.744 225.835 211.794 225.885 212.847C226.016 217.008 225.286 221.151 223.739 225.02C222.265 228.852 220.28 232.47 217.837 235.779L217.301 235.045L218.54 234.696C218.966 234.567 219.391 234.512 219.817 234.42C220.649 234.237 221.5 234.182 222.351 234.071C224.052 233.971 225.757 233.971 227.457 234.071C230.84 234.249 234.201 234.716 237.503 235.467Z" fill="white"/>
<path d="M409.711 296C409.711 296 408.38 304.875 398.012 305.489C408.376 306.104 409.711 314.978 409.711 314.978C409.711 314.978 411.041 306.104 421.409 305.489C411.045 304.877 409.711 296 409.711 296Z" fill="#FFA945"/>
<path d="M403.609 145C403.609 145 402.397 152.889 392.974 153.435C402.397 153.98 403.609 161.87 403.609 161.87C403.609 161.87 404.821 153.98 414.244 153.435C404.821 152.889 403.609 145 403.609 145Z" fill="#0EBED9"/>
<path d="M519.843 169C519.843 169 518.935 174.919 511.874 175.326C518.942 175.735 519.85 181.652 519.85 181.652C519.85 181.652 520.758 175.735 527.826 175.326C520.751 174.919 519.843 169 519.843 169Z" fill="#6FA926"/>
</svg>
