<svg viewBox="0 0 273 291" fill="none" xmlns="http://www.w3.org/2000/svg">
<path d="M137.379 236.344L175.187 251.463L221.99 135.421L190.031 122.645C189.263 122.337 188.442 122.184 187.614 122.193C186.786 122.202 185.968 122.373 185.206 122.697C184.445 123.02 183.755 123.49 183.176 124.079C182.597 124.669 182.14 125.366 181.832 126.131L137.379 236.344Z" fill="#F4A640"/>
<path d="M132.92 232.039L205.312 244.814L223.352 143.466L150.959 130.691L132.92 232.039Z" fill="#ADCFD8"/>
<path d="M169.121 145.014L201.448 150.719L201.577 149.997L169.25 144.292L169.121 145.014Z" fill="#55769F"/>
<path d="M162.655 141.982L208.564 150.084L208.693 149.361L162.783 141.26L162.655 141.982Z" fill="#55769F"/>
<path d="M156.083 150.54L211.783 160.369L211.912 159.647L156.212 149.818L156.083 150.54Z" fill="#55769F"/>
<path d="M155.464 154.014L211.164 163.843L211.293 163.121L155.593 153.292L155.464 154.014Z" fill="#55769F"/>
<path d="M154.226 160.967L209.926 170.796L210.054 170.073L154.354 160.244L154.226 160.967Z" fill="#55769F"/>
<path d="M153.876 166.57L209.312 176.146L209.438 175.426L154.001 165.851L153.876 166.57Z" fill="#55769F"/>
<path d="M152.988 167.918L208.688 177.747L208.816 177.024L153.116 167.195L152.988 167.918Z" fill="#55769F"/>
<path d="M150.266 183.205L205.966 193.034L206.094 192.312L150.394 182.483L150.266 183.205Z" fill="#55769F"/>
<path d="M149.625 186.809L205.325 196.638L205.454 195.916L149.754 186.087L149.625 186.809Z" fill="#55769F"/>
<path d="M148.983 190.413L204.684 200.242L204.812 199.519L149.112 189.69L148.983 190.413Z" fill="#55769F"/>
<path d="M148.34 194.016L204.04 203.845L204.169 203.123L148.469 193.294L148.34 194.016Z" fill="#55769F"/>
<path d="M147.697 197.622L203.397 207.451L203.526 206.729L147.826 196.899L147.697 197.622Z" fill="#55769F"/>
<path d="M147.055 201.226L202.755 211.055L202.883 210.332L147.183 200.503L147.055 201.226Z" fill="#55769F"/>
<path d="M146.413 204.829L202.113 214.658L202.242 213.936L146.542 204.107L146.413 204.829Z" fill="#55769F"/>
<path d="M135.082 227.704L206.183 246.33L232.484 146.79L161.383 128.165L135.082 227.704Z" fill="#DAEEF7"/>
<path d="M178.309 143.919L210.06 152.237L210.247 151.527L178.496 143.21L178.309 143.919Z" fill="#55769F"/>
<path d="M172.113 140.373L217.206 152.185L217.394 151.475L172.301 139.663L172.113 140.373Z" fill="#55769F"/>
<path d="M164.86 148.364L219.566 162.695L219.754 161.986L165.047 147.655L164.86 148.364Z" fill="#55769F"/>
<path d="M163.958 151.779L218.664 166.11L218.852 165.4L164.145 151.069L163.958 151.779Z" fill="#55769F"/>
<path d="M162.153 158.604L216.859 172.935L217.047 172.226L162.34 157.895L162.153 158.604Z" fill="#55769F"/>
<path d="M161.252 162.019L215.958 176.35L216.146 175.64L161.439 161.31L161.252 162.019Z" fill="#55769F"/>
<path d="M160.349 165.432L215.056 179.763L215.243 179.053L160.537 164.722L160.349 165.432Z" fill="#55769F"/>
<path d="M156.379 180.447L211.085 194.778L211.272 194.069L156.566 179.738L156.379 180.447Z" fill="#55769F"/>
<path d="M155.443 183.986L210.149 198.317L210.337 197.607L155.631 183.276L155.443 183.986Z" fill="#55769F"/>
<path d="M154.507 187.524L209.214 201.855L209.401 201.145L154.695 186.814L154.507 187.524Z" fill="#55769F"/>
<path d="M153.572 191.065L208.278 205.396L208.466 204.686L153.759 190.355L153.572 191.065Z" fill="#55769F"/>
<path d="M152.634 194.603L207.341 208.934L207.528 208.224L152.822 193.894L152.634 194.603Z" fill="#55769F"/>
<path d="M151.699 198.146L206.405 212.477L206.593 211.767L151.886 197.436L151.699 198.146Z" fill="#55769F"/>
<path d="M150.765 201.684L205.472 216.015L205.659 215.305L150.953 200.974L150.765 201.684Z" fill="#55769F"/>
<path d="M151.725 242.081L227.837 272.519L272.232 162.457L208.274 123.163C207.43 122.643 206.481 122.314 205.495 122.198C204.509 122.082 203.51 122.182 202.567 122.491C201.624 122.8 200.76 123.31 200.036 123.987C199.312 124.663 198.745 125.489 198.375 126.406L151.725 242.081Z" fill="#FFA945"/>
<path d="M243.339 230.529L257.129 226.514C259.556 216.52 261.015 208.009 261.015 208.009C244.376 208.677 231.57 213.748 221.719 220.956L219.682 237.27L215.283 226.318C192.03 248.404 189.308 282.485 189.308 282.485C189.308 282.485 236.111 264.25 245.034 256.736C248.479 253.834 251.646 245.907 254.236 237.266C249.579 234.78 243.339 230.529 243.339 230.529Z" fill="#6FA926"/>
<path d="M261.017 208.002C261.017 208.002 206.244 250.776 189.308 282.495C189.308 282.495 236.111 264.261 245.034 256.747C248.479 253.845 251.646 245.918 254.236 237.277C249.58 234.78 243.34 230.524 243.34 230.524L257.131 226.508C259.551 216.513 261.017 208.002 261.017 208.002Z" fill="#5E8E20"/>
<path d="M270.419 249.99C260.703 247.205 251.549 246.79 243.115 247.926C241.54 251.527 239.566 255.796 239.566 255.796L237.359 248.951C205.752 256.033 185.603 283.901 185.603 283.901C206.799 290.328 223.082 289.258 235.438 284.814C235.522 282.189 235.59 278.288 235.59 278.288L239.348 283.242C244.682 280.851 249.61 277.649 253.958 273.751C251.983 271.196 249.833 268.229 249.833 268.229L257.607 270.204C266.996 260.268 270.419 249.99 270.419 249.99Z" fill="#6FA926"/>
<path d="M235.437 284.812C235.522 282.187 235.59 278.286 235.59 278.286L239.348 283.24C244.682 280.849 249.61 277.647 253.957 273.749C251.983 271.194 249.833 268.228 249.833 268.228L257.607 270.202C266.998 260.269 270.421 249.982 270.421 249.982C232.899 255.699 185.603 283.901 185.603 283.901C206.799 290.333 223.08 289.263 235.437 284.812Z" fill="#5E8E20"/>
<path d="M31.29 166.514H26.084C26.9922 165.904 28.0643 165.581 29.1599 165.587H159.558C166.381 165.587 171.912 170.468 171.912 176.489V183.414C171.912 189.437 166.381 194.318 159.558 194.318L30.6173 194.28L31.29 166.514Z" fill="#5E8E20"/>
<path d="M160.973 183.416V176.489C160.973 170.466 155.443 165.587 148.62 165.587H151.421C158.244 165.587 163.774 170.468 163.774 176.489V183.414C163.774 189.437 158.244 194.318 151.421 194.318H148.659C155.463 194.3 160.973 189.426 160.973 183.416Z" fill="#FFA945"/>
<path d="M130.434 183.416V176.489C130.434 170.466 124.904 165.587 118.081 165.587H120.882C127.705 165.587 133.235 170.468 133.235 176.489V183.414C133.235 189.437 127.705 194.318 120.882 194.318H118.12C124.924 194.3 130.434 189.426 130.434 183.416Z" fill="#FFA945"/>
<path d="M105.32 165.613C111.844 165.613 117.133 170.282 117.133 176.04V183.867C117.133 189.625 111.844 194.294 105.32 194.294H24.1426V192.551H24.478L45.1152 190.826L49.2929 176.374C49.2929 176.374 41.2419 168.392 40.7176 168.186C40.1933 167.98 24.4854 167.356 24.4854 167.356H24.1499V165.614H105.32V165.613Z" fill="#6FA926"/>
<path d="M29.4094 179.901C29.4094 171.457 24.46 167.363 24.46 167.363H103.65C109.643 167.363 114.501 171.651 114.501 176.94V182.963C114.501 188.257 109.643 192.54 103.65 192.54H24.46C24.46 192.54 29.4094 190.534 29.4094 179.901Z" fill="#DAEEF7"/>
<g style="mix-blend-mode:multiply">
<path d="M114.507 176.94V182.963C114.507 183.74 114.4 184.512 114.19 185.26C111.519 179.492 106.399 173.943 96.6545 172.149C73.9056 167.982 24.4629 167.363 24.4629 167.363H103.653C109.649 167.363 114.507 171.651 114.507 176.94Z" fill="#DAEEF7"/>
</g>
<path d="M33.4365 223.945H27.5449C28.5473 223.19 29.7707 222.782 31.0278 222.784H178.614C186.335 222.784 192.595 228.895 192.595 236.432V245.1C192.595 252.638 186.335 258.747 178.614 258.747L32.6776 258.698L33.4365 223.945Z" fill="#07085B"/>
<path d="M117.224 222.814C124.608 222.814 130.595 228.655 130.595 235.864V245.666C130.595 252.874 124.608 258.716 117.224 258.716H25.3486V256.526H25.7281L49.0856 254.367L53.8059 236.297C53.8059 236.297 44.6935 226.307 44.0995 226.05C43.5056 225.793 25.7281 225.011 25.7281 225.011H25.3486V222.814H117.224Z" fill="#55769F"/>
<path d="M31.3066 240.699C31.3066 230.129 25.7119 225.002 25.7119 225.002H115.351C122.134 225.002 127.633 230.37 127.633 236.99V244.532C127.633 251.152 122.134 256.52 115.351 256.52H25.7119C25.7119 256.52 31.3066 254.009 31.3066 240.699Z" fill="#DAEEF7"/>
<g style="mix-blend-mode:multiply">
<path d="M127.623 236.992V244.534C127.62 245.504 127.497 246.469 127.257 247.409C124.234 240.188 118.439 233.236 107.411 230.998C81.6617 225.778 25.7041 225.004 25.7041 225.004H115.343C122.126 225.006 127.623 230.372 127.623 236.992Z" fill="#DAEEF7"/>
</g>
<path d="M197.458 195.166H203.351C202.294 194.555 201.091 194.239 199.868 194.253H52.2259C44.5012 194.253 38.2393 199.101 38.2393 205.082V211.96C38.2393 217.941 44.5012 222.789 52.2259 222.789L198.219 222.751L197.458 195.166Z" fill="#0EBED9"/>
<path d="M113.635 194.271C106.247 194.271 100.253 198.907 100.253 204.627V212.401C100.253 218.121 106.242 222.757 113.635 222.757H205.547V221.025H205.167L181.801 219.311L177.081 204.963C177.081 204.963 186.197 197.036 186.796 196.832C187.395 196.627 205.175 196.007 205.175 196.007H205.554V194.278H113.635V194.271Z" fill="#0EBED9"/>
<path d="M199.588 208.462C199.588 200.066 205.186 196.01 205.186 196.01H115.519C108.737 196.01 103.237 200.268 103.237 205.523V211.506C103.237 216.759 108.737 221.018 115.519 221.018H205.186C205.186 221.018 199.588 219.017 199.588 208.462Z" fill="#DAEEF7"/>
<g style="mix-blend-mode:multiply">
<path d="M103.234 205.521V211.505C103.238 212.279 103.362 213.049 103.601 213.786C106.626 208.057 112.422 202.539 123.455 200.765C149.216 196.623 205.196 196.008 205.196 196.008H115.52C108.736 196.01 103.234 200.268 103.234 205.521Z" fill="#DAEEF7"/>
</g>
<path opacity="0.5" d="M65.2871 211.952V205.074C65.2871 199.093 71.549 194.245 79.2738 194.245H65.2523C57.5275 194.245 51.2656 199.093 51.2656 205.074V211.952C51.2656 217.933 57.5275 222.781 65.2523 222.781H79.0868C71.45 222.701 65.2871 217.886 65.2871 211.952Z" fill="#55769F"/>
<path d="M207.184 259.848H214.573C213.223 259.156 211.724 258.802 210.206 258.818H25.1078C15.4235 258.818 7.57227 264.236 7.57227 270.918V278.604C7.57227 285.286 15.4235 290.703 25.1078 290.703L208.135 290.66L207.184 259.848Z" fill="#FFA945"/>
<path d="M102.099 258.848C92.8385 258.848 85.3301 264.028 85.3301 270.418V279.102C85.3301 285.491 92.8458 290.673 102.099 290.673H217.327V288.73H216.85L187.557 286.816L181.636 270.788C181.636 270.788 193.064 261.932 193.81 261.704C194.556 261.476 216.85 260.792 216.85 260.792H217.327V258.859H102.099V258.848Z" fill="#F4A640"/>
<path d="M209.854 274.704C209.854 265.333 216.872 260.79 216.872 260.79H104.46C95.954 260.79 89.0615 265.548 89.0615 271.418V278.104C89.0615 283.974 95.9577 288.732 104.46 288.732H216.872C216.872 288.732 209.854 286.502 209.854 274.704Z" fill="#DAEEF7"/>
<g style="mix-blend-mode:multiply">
<path d="M89.0566 271.418V278.104C89.0577 278.975 89.2097 279.839 89.5058 280.659C93.2966 274.258 100.563 268.094 114.396 266.11C146.692 261.481 216.867 260.797 216.867 260.797H104.46C95.9528 260.79 89.0566 265.548 89.0566 271.418Z" fill="#DAEEF7"/>
</g>
<path d="M258.751 174.602L206.929 145.088L199.925 158.903L252.951 186.837L258.751 174.602Z" fill="#F4A640"/>
<path d="M217.5 73C217.5 73 217.9 76.2767 221 76.5C217.898 76.7267 217.5 80 217.5 80C217.5 80 217.1 76.7217 214 76.5C217.102 76.2767 217.5 73 217.5 73Z" fill="#6FA926"/>
<path d="M30.3405 40.9072C30.3405 40.9072 30.8078 43.9583 34.4404 44.1681C30.8042 44.3791 30.3369 47.429 30.3369 47.429C30.3369 47.429 29.8696 44.3791 26.2334 44.1681C29.8732 43.9583 30.3405 40.9072 30.3405 40.9072Z" fill="#6FA926"/>
<path d="M8 133C8 133 8.91007 139.079 16 139.5C8.91245 139.921 8 146 8 146C8 146 7.08993 139.921 0 139.5C7.08755 139.081 8 133 8 133Z" fill="#6FA926"/>
<path d="M188.5 25C188.5 25 189.133 29.6774 194 30C189.126 30.3194 188.5 35 188.5 35C188.5 35 187.867 30.3226 183 30C187.874 29.6758 188.5 25 188.5 25Z" fill="#0EBED9"/>
<path d="M65.4713 102C65.4713 102 66.0948 106.067 70.9427 106.348C66.0948 106.629 65.4713 110.696 65.4713 110.696C65.4713 110.696 64.8479 106.629 60 106.348C64.8479 106.067 65.4713 102 65.4713 102Z" fill="#0EBED9"/>
<g style="mix-blend-mode:multiply">
<path d="M129.02 100.304L137.381 100.972L134.683 107.707L130.467 107.369L128.709 112.984C128.28 112.788 127.964 112.64 127.902 112.599C127.774 112.515 127.308 109.727 126.897 107.097L129.02 100.304Z" fill="#DAEEF7"/>
</g>
<path d="M133.799 162.238V165.173C133.799 165.23 133.81 165.288 133.832 165.341C133.854 165.394 133.886 165.443 133.927 165.484C133.968 165.525 134.016 165.557 134.07 165.579C134.123 165.601 134.181 165.613 134.239 165.613H141.12C141.227 165.61 141.33 165.575 141.414 165.51C141.499 165.446 141.561 165.356 141.59 165.254C141.62 165.152 141.617 165.044 141.58 164.944C141.544 164.844 141.476 164.759 141.388 164.7L137.527 162.243C137.527 162.243 135.999 163.348 133.799 162.238Z" fill="#5E8E20"/>
<path d="M120.282 37.8331C120.26 37.8422 120.235 37.845 120.21 37.8412C120.186 37.8373 120.163 37.8269 120.145 37.8112C120.126 37.7954 120.112 37.7749 120.104 37.7518C120.096 37.7286 120.094 37.7037 120.099 37.6798C120.271 36.8639 120.798 34.2976 120.6 34.2118C120.363 34.1041 119.837 36.3875 119.599 36.4149C119.36 36.4423 119.929 34.2246 119.659 34.1534C119.39 34.0822 118.937 36.1155 118.812 36.1228C118.688 36.1301 118.909 34.1333 118.777 33.9946C118.645 33.8559 118.147 35.9586 117.997 36.0024C117.846 36.0462 117.707 34.4892 117.571 34.4856C117.436 34.4819 117.344 34.4564 116.655 38.0704C116.655 38.0704 116.614 39.3955 116.378 39.7131L116.902 40.7772L118.526 40.8301C118.526 40.8301 122.053 37.6524 122.024 37.4589C121.995 37.2654 121.831 37.2235 120.282 37.8331Z" fill="#FFC0BB"/>
<path d="M136.992 38.6325C137.008 38.6508 137.029 38.6645 137.052 38.672C137.076 38.6795 137.101 38.6806 137.124 38.6752C137.148 38.6698 137.17 38.658 137.188 38.6412C137.206 38.6243 137.218 38.603 137.225 38.5795C137.445 37.7764 138.152 35.2521 138.371 35.2613C138.631 35.2722 138.054 37.5428 138.253 37.676C138.453 37.8093 138.961 35.5807 139.236 35.6354C139.511 35.6902 138.981 37.7089 139.089 37.7728C139.197 37.8367 139.912 35.9585 140.094 35.8946C140.275 35.8307 139.756 37.9297 139.865 38.0429C139.973 38.1561 140.814 36.8273 140.937 36.8875C141.06 36.9478 141.151 36.9642 140.118 40.4979C140.118 40.4979 139.547 41.6952 139.615 42.0785L138.662 42.7885L137.196 42.0986C137.196 42.0986 135.511 37.6687 135.625 37.5099C135.738 37.3512 135.89 37.3931 136.992 38.6325Z" fill="#FFC0BB"/>
<path d="M124.09 67.5736L124.116 73.752L118.089 72.8266L119.093 65.8779L124.09 67.5736Z" fill="#FFC0BB"/>
<path opacity="0.6" d="M118.63 69.0756L119.094 65.8796L124.096 68.1594V69.3786C122.894 69.6706 120.637 69.9335 118.63 69.0756Z" fill="#FC8D84"/>
<path d="M113.199 161.913V165.133C113.199 165.26 113.148 165.383 113.057 165.473C112.967 165.564 112.844 165.614 112.715 165.614H105.144C105.027 165.613 104.912 165.574 104.818 165.503C104.724 165.432 104.656 165.333 104.623 165.22C104.59 165.108 104.594 164.987 104.635 164.877C104.675 164.767 104.751 164.673 104.849 164.609L109.097 161.913C109.097 161.913 110.765 163.125 113.199 161.913Z" fill="#5E8E20"/>
<path d="M106.286 107.221C106.301 106.533 104.501 108.563 104.536 108.014C105.241 96.5839 127.671 106.166 127.671 106.166L133.147 110.167L139.328 163.145C139.328 163.145 135.974 164.112 133.765 163.327L120.077 117.923L118.401 117.278C118.401 117.278 110.908 112.077 106.286 107.221Z" fill="#07085B"/>
<path d="M104.51 108.479C104.51 108.612 104.497 108.749 104.491 108.89C104.497 108.749 104.502 108.612 104.51 108.479Z" fill="#0EBED9"/>
<path d="M104.491 108.897C104.491 109.039 104.48 109.187 104.477 109.337C104.48 109.187 104.486 109.039 104.491 108.897Z" fill="#0EBED9"/>
<path d="M104.469 109.395C104.469 109.55 104.469 109.709 104.456 109.874C104.465 109.71 104.469 109.551 104.469 109.395Z" fill="#0EBED9"/>
<path d="M104.535 108.012C104.535 108.136 104.52 108.264 104.513 108.395C104.52 108.265 104.527 108.136 104.535 108.012Z" fill="#0EBED9"/>
<path d="M104.537 105.416C109.158 110.273 118.393 117.28 118.393 117.28L120.076 117.925L118.401 117.278L113.197 163.145C113.197 163.145 109.488 163.848 107.369 162.705C107.36 162.703 104.236 119.045 104.537 105.416Z" fill="#07085B"/>
<path d="M139.328 163.143C138.327 163.412 137.3 163.573 136.265 163.623C137.3 163.573 138.327 163.412 139.328 163.143Z" fill="#0EBED9"/>
<path d="M134.411 163.497C134.56 163.528 134.712 163.552 134.866 163.572C134.715 163.554 134.561 163.53 134.411 163.497Z" fill="#0EBED9"/>
<path d="M136.264 163.623C135.875 163.64 135.485 163.631 135.097 163.598C135.485 163.631 135.875 163.64 136.264 163.623Z" fill="#0EBED9"/>
<path d="M133.147 110.167L134.028 117.728C131.693 118.627 126.003 119.589 121.717 110.244C120.364 107.3 120.018 105.179 120.267 103.657C122.787 104.332 125.261 105.168 127.673 106.159L133.147 110.167Z" fill="#050645"/>
<path d="M112.566 79.3061C112.825 79.3061 116.711 70.5449 116.711 70.5449C120.034 72.8666 124.546 71.2549 124.546 71.2549C124.546 71.2549 142.694 104.326 130.524 109.485C118.353 114.643 106.876 108.368 106.876 108.368C106.876 108.368 104.286 101.654 104.286 101.397C104.286 101.14 112.308 79.3061 112.566 79.3061Z" fill="#DAEEF7"/>
<path d="M136.221 42.1718C136.221 42.1718 137.008 57.8688 135.53 60.7381C130.63 70.2786 124.544 71.246 124.544 71.246C124.544 71.246 122.451 104.619 124.178 112.613C124.178 112.613 129.919 114.376 138.379 110.423C138.379 110.423 131.904 84.5502 132.249 81.283C132.249 81.283 142.608 72.0856 142.954 61.2546C143.301 50.4237 140.45 40.7974 140.45 40.7974L136.221 42.1718Z" fill="#55769F"/>
<path d="M108.293 111.412C108.293 111.412 108.94 98.9914 111.789 87.215C114.638 75.4385 116.709 70.5396 116.709 70.5396C112.889 66.3415 113.523 62.5615 113.86 57.6461C114.249 51.9733 119.818 40.6257 119.818 40.6257L116.062 38.1763C98.0627 59.7141 108.033 76.8567 108.033 76.8567C108.033 76.8567 101.3 100.585 100.393 107.802C102.926 109.212 105.568 110.419 108.293 111.412Z" fill="#55769F"/>
<path d="M132.074 81.2464C131.805 81.0493 131.562 80.8193 131.35 80.5619C130.588 79.6493 130.192 78.6125 129.918 77.459C130.083 77.9518 130.527 79.3828 131.46 80.4725C131.699 80.7694 131.983 81.0274 132.301 81.2372L132.25 81.2829C132.25 81.3048 132.25 81.3267 132.25 81.3504C132.01 81.3997 131.59 81.4143 130.883 81.031C130.469 80.8011 130.082 80.5249 129.731 80.2078C130.108 80.4874 130.507 80.7347 130.925 80.947C131.279 81.1346 131.673 81.2371 132.074 81.2464Z" fill="white"/>
<path d="M108.172 76.7763C108.481 76.5648 108.758 76.311 108.995 76.0225C109.76 75.13 110.178 74.075 110.537 73.009C110.264 74.1571 109.872 75.1993 109.104 76.1119C108.892 76.3694 108.649 76.5993 108.38 76.7964C108.55 76.8033 108.721 76.7836 108.885 76.738C109.11 76.6805 109.328 76.5997 109.536 76.497C109.955 76.2853 110.354 76.038 110.73 75.7578C110.378 76.0745 109.992 76.3507 109.578 76.581C109.368 76.696 109.146 76.7884 108.917 76.8566C108.68 76.9342 108.427 76.9474 108.183 76.8949L108.046 76.8584L108.172 76.7763Z" fill="white"/>
<path d="M115.444 54.9648L115.079 59.2049L115.752 59.6265L116.997 54.4629L115.444 54.9648Z" fill="#07085B"/>
<path d="M115.28 60.787C116.052 60.6397 116.528 59.7419 116.343 58.7815C116.158 57.8212 115.383 57.1621 114.611 57.3093C113.839 57.4566 113.364 58.3544 113.549 59.3148C113.733 60.2751 114.509 60.9342 115.28 60.787Z" fill="#F99893"/>
<path d="M115.245 62.6875C115.073 61.5079 115.052 60.3112 115.185 59.1265C115.208 58.8947 115.218 58.6628 115.223 58.431C115.248 57.3823 115.491 56.3501 115.938 55.4C116.385 54.45 117.025 53.6028 117.819 52.9124C118.612 52.222 119.541 51.7034 120.546 51.3895C121.551 51.0757 122.611 50.9734 123.658 51.0892C124.705 51.2051 125.717 51.5365 126.629 52.0625C127.54 52.5884 128.332 53.2974 128.954 54.1443C129.575 54.9913 130.013 55.9577 130.24 56.9823C130.466 58.0068 130.476 59.0671 130.269 60.0957C130.511 60.0105 130.77 59.9826 131.024 60.0143C131.279 60.046 131.522 60.1363 131.736 60.2782C132.541 60.8477 132.614 62.1217 131.899 63.1237C131.184 64.1258 129.952 64.4762 129.149 63.9068C129.04 63.8288 128.942 63.736 128.858 63.6311C127.758 67.1885 124.203 69.3971 120.631 68.6232C117.925 68.0282 115.687 65.7886 115.245 62.6875Z" fill="#FFC0BB"/>
<path d="M123.484 59.2962C123.431 59.4278 123.421 59.5731 123.457 59.7106C123.493 59.8481 123.572 59.9704 123.683 60.0593C123.795 60.1483 123.932 60.1992 124.074 60.2046C124.217 60.2099 124.357 60.1694 124.475 60.0889C124.592 60.0085 124.681 59.8925 124.727 59.7581C124.773 59.6237 124.775 59.478 124.731 59.3428C124.688 59.2075 124.601 59.0898 124.485 59.0071C124.369 58.9244 124.23 58.8811 124.087 58.8837C123.957 58.886 123.831 58.9263 123.723 58.9997C123.616 59.073 123.533 59.1761 123.484 59.2962Z" fill="#333333"/>
<path d="M117.841 58.4546C117.787 58.5862 117.777 58.7316 117.813 58.869C117.849 59.0065 117.929 59.1288 118.04 59.2178C118.151 59.3067 118.288 59.3577 118.431 59.363C118.573 59.3683 118.714 59.3278 118.831 59.2473C118.949 59.1669 119.037 59.0509 119.083 58.9165C119.13 58.7821 119.131 58.6365 119.088 58.5012C119.044 58.3659 118.958 58.2482 118.842 58.1655C118.726 58.0828 118.586 58.0395 118.444 58.0421C118.314 58.0444 118.187 58.0848 118.08 58.1581C117.973 58.2315 117.889 58.3346 117.841 58.4546Z" fill="#333333"/>
<path d="M122.607 63.9139C122.269 64.081 121.911 64.2037 121.542 64.2789C121.177 64.3539 120.802 64.3681 120.433 64.3209C120.064 64.2678 119.71 64.1438 119.39 63.9559C119.068 63.7597 118.776 63.5195 118.522 63.2422C118.741 63.5571 119.017 63.8283 119.336 64.0416C119.661 64.2557 120.03 64.3948 120.416 64.4487C120.801 64.4981 121.192 64.4726 121.567 64.3738C121.938 64.2816 122.29 64.1259 122.607 63.9139Z" fill="#F99893"/>
<path d="M122.949 57.9545C123.276 57.8929 123.608 57.8575 123.941 57.8486C124.25 57.8418 124.559 57.8787 124.857 57.9582C125.157 58.0361 125.442 58.1592 125.704 58.3232C125.985 58.5024 126.256 58.6961 126.516 58.9036C126.398 58.5677 126.198 58.2657 125.935 58.0239C125.668 57.768 125.339 57.5851 124.98 57.4927C124.621 57.3964 124.243 57.3901 123.88 57.4745C123.534 57.5532 123.214 57.7184 122.949 57.9545Z" fill="#07085B"/>
<path d="M120.311 57.5237C120.135 57.2143 119.882 56.9548 119.577 56.7699C119.263 56.5768 118.906 56.4634 118.538 56.4395C118.168 56.4122 117.798 56.48 117.462 56.6366C117.135 56.7818 116.849 57.0043 116.628 57.2846C116.941 57.1707 117.261 57.0738 117.585 56.9944C117.885 56.9226 118.194 56.8968 118.501 56.9177C118.814 56.9346 119.123 56.996 119.418 57.1002C119.726 57.2176 120.025 57.3592 120.311 57.5237Z" fill="#07085B"/>
<path d="M121.462 58.356C121.153 58.6473 120.864 58.9589 120.597 59.2887C120.324 59.6168 120.076 59.9639 119.853 60.3272C119.701 60.5621 119.591 60.8206 119.526 61.092C119.504 61.2307 119.515 61.3658 119.748 61.5939C119.9 61.7487 120.068 61.887 120.249 62.0064C120.423 62.1262 120.607 62.2324 120.798 62.324C120.472 62.0637 120.171 61.7748 119.897 61.4607C119.839 61.3909 119.79 61.315 119.75 61.2344C119.745 61.1533 119.761 61.0724 119.796 60.9989C119.871 60.8085 119.963 60.6253 120.071 60.4513C120.282 60.0863 120.52 59.7504 120.753 59.4018C120.985 59.0532 121.233 58.7137 121.462 58.356Z" fill="#F99893"/>
<path d="M116.236 50.4381C116.236 50.4381 114.001 50 116.751 48.664C119.501 47.3279 126.261 46.5357 129.794 49.5474C129.794 49.5474 130.981 48.0306 132.048 48.6968C133.115 49.363 130.937 50.1004 130.937 50.1004C130.937 50.1004 132.428 50.387 132.716 51.2102C132.928 51.8198 132.015 51.6391 131.526 51.504C132.336 51.8362 134.719 54.0776 131.625 60.1995C131.075 59.9439 127.535 54.9063 127.535 54.9063C127.535 54.9063 120.417 57.2426 121.715 55.3115C121.715 55.3115 113.417 57.3904 115.428 53.645C115.429 53.6505 112.37 53.1851 116.236 50.4381Z" fill="#07085B"/>
<path d="M131.628 60.1995C131.428 60.0738 131.199 59.9984 130.962 59.98C130.726 59.9615 130.488 60.0005 130.27 60.0937C129.449 60.4039 128.928 62.2292 128.928 62.2292C128.928 62.2292 126.241 64.4195 127.552 54.8716C128.835 45.4899 130.622 56.434 130.622 56.434L131.628 60.1995Z" fill="#07085B"/>
<g clip-path="url(#clip0_301_11142)">
<path d="M146.603 4.77723L141.802 4.43673C141.833 4.12176 141.887 3.82679 141.91 3.50544C141.947 2.98224 141.564 2.54196 141.037 2.50464L122.248 1.17185C121.722 1.13452 121.279 1.51618 121.242 2.03937C121.219 2.36072 121.23 2.66025 121.215 2.97638L116.415 2.63589C115.896 2.59905 115.445 2.98707 115.408 3.50341L115.239 5.86982C114.864 11.0858 118.762 15.621 123.921 16.2611C124.894 17.8146 126.096 19.0015 127.508 19.7223C126.957 24.2463 124.119 27.2185 123.452 27.8285C123.353 27.8965 123.269 28.0033 123.224 28.1127L136.226 29.035C136.196 28.9203 136.129 28.8028 136.041 28.7215C135.449 28.0222 133.081 24.6995 133.183 20.1248C134.684 19.6106 136.051 18.6056 137.236 17.2047C142.43 17.2945 146.931 13.3575 147.305 8.14445L147.475 5.77803C147.512 5.26169 147.122 4.81407 146.603 4.77723ZM117.117 6.0031L117.22 4.57085L121.162 4.85042C121.184 7.9553 121.623 11.2731 122.838 14.1524C119.348 13.1065 116.847 9.76745 117.117 6.0031ZM145.427 8.01117C145.157 11.7736 142.207 14.7245 138.605 15.2692C140.209 12.5899 141.118 9.39954 141.588 6.29934L145.529 6.57891L145.427 8.01117Z" fill="#EB9C40"/>
<path d="M146.603 4.77713L141.802 4.43662C141.833 4.12165 141.887 3.82668 141.91 3.50533C141.947 2.98214 141.563 2.54185 141.037 2.50453L131.643 1.83813L129.725 28.5738L136.226 29.0349C136.196 28.9202 136.129 28.8027 136.04 28.7214C135.448 28.0221 133.081 24.6994 133.182 20.1247C134.684 19.6105 136.05 18.6055 137.236 17.2046C142.43 17.2944 146.931 13.3574 147.305 8.14434L147.475 5.77793C147.512 5.26159 147.122 4.81396 146.603 4.77713ZM145.426 8.01106C145.156 11.7735 142.207 14.7244 138.605 15.2691C140.209 12.5898 141.118 9.39944 141.588 6.29923L145.529 6.57881L145.426 8.01106Z" fill="#FFA945"/>
<path d="M132.29 13.8267L130.846 12.9458L129.292 13.614C128.966 13.7523 128.585 13.6987 128.311 13.4712C128.038 13.2427 127.919 12.8803 128.002 12.536L128.397 10.8961L127.279 9.63128C127.036 9.35913 126.983 8.97749 127.113 8.66041C127.247 8.33248 127.557 8.10687 127.913 8.07899L129.6 7.94745L130.464 6.49857C130.829 5.8881 131.871 5.96203 132.145 6.61779L132.793 8.17391L134.445 8.54234C134.793 8.62026 135.067 8.88726 135.153 9.23075C135.239 9.57517 135.123 9.93828 134.85 10.1683L133.564 11.2626L133.72 12.9415C133.754 13.2942 133.583 13.636 133.28 13.8236C132.979 14.0095 132.594 14.0128 132.29 13.8267Z" fill="#ECC53C"/>
<path d="M132.289 13.8269C132.594 14.013 132.979 14.0097 133.28 13.8238C133.583 13.6362 133.753 13.2944 133.719 12.9417L133.563 11.2628L134.849 10.1685C135.122 9.93846 135.239 9.57535 135.153 9.23093C135.067 8.88738 134.793 8.62038 134.444 8.54252L132.792 8.1741L132.144 6.61797C132.007 6.29009 131.678 6.10764 131.338 6.0835L130.846 12.946L132.289 13.8269Z" fill="#FFD53F"/>
</g>
<path d="M135.547 30.8349L123.265 29.9643C122.967 29.9428 122.689 29.8042 122.493 29.5791C122.298 29.3539 122.199 29.0605 122.221 28.7633C122.231 28.6161 122.271 28.4724 122.337 28.3404C122.403 28.2084 122.495 28.0907 122.607 27.994C122.719 27.8974 122.849 27.8237 122.99 27.7772C123.13 27.7307 123.279 27.7122 123.427 27.7229L135.709 28.5936C136.007 28.6151 136.285 28.7536 136.481 28.9788C136.677 29.204 136.775 29.4974 136.754 29.7946C136.732 30.0917 136.593 30.3682 136.367 30.5632C136.141 30.7583 135.846 30.856 135.547 30.8349Z" fill="#FFA945"/>
<path d="M138.714 31.3183L120.049 29.9927L119.581 36.525L138.246 37.8507L138.714 31.3183Z" fill="#6F747A"/>
<g style="mix-blend-mode:multiply">
<path d="M119.625 35.7912L119.574 36.5049L138.239 37.8273L138.29 37.1136L119.625 35.7912Z" fill="#CDD6E0"/>
</g>
<g style="mix-blend-mode:multiply">
<path d="M120.032 29.2816L119.981 29.9971L138.694 31.3013L138.744 30.5858L120.032 29.2816Z" fill="#CDD6E0"/>
</g>
<path d="M138.565 31.6127L120.178 30.3076C120.068 30.2998 119.96 30.2702 119.86 30.2207C119.761 30.1713 119.673 30.1028 119.6 30.0192C119.527 29.9356 119.472 29.8386 119.437 29.7337C119.402 29.6288 119.388 29.518 119.396 29.4078C119.404 29.2975 119.433 29.1899 119.483 29.091C119.533 28.9921 119.601 28.904 119.685 28.8316C119.769 28.7592 119.867 28.704 119.972 28.6692C120.077 28.6343 120.189 28.6204 120.299 28.6284L138.686 29.9334C138.796 29.9413 138.904 29.9708 139.004 30.0203C139.103 30.0698 139.192 30.1383 139.264 30.2219C139.337 30.3054 139.392 30.4024 139.427 30.5074C139.462 30.6123 139.476 30.723 139.468 30.8333C139.46 30.9436 139.431 31.0512 139.381 31.1501C139.331 31.2489 139.263 31.3371 139.179 31.4094C139.095 31.4818 138.997 31.537 138.892 31.5719C138.787 31.6068 138.675 31.6206 138.565 31.6127Z" fill="#F4A640"/>
<path d="M138.496 39.368L118.881 37.9772C118.851 37.9751 118.822 37.9672 118.796 37.9539C118.769 37.9405 118.745 37.922 118.725 37.8995C118.706 37.8769 118.691 37.8507 118.681 37.8224C118.672 37.7941 118.668 37.7642 118.671 37.7345L118.759 36.5079C118.761 36.4782 118.769 36.4491 118.782 36.4224C118.795 36.3958 118.814 36.372 118.837 36.3525C118.859 36.333 118.886 36.3181 118.914 36.3088C118.942 36.2994 118.972 36.2958 119.002 36.298L138.617 37.6888C138.647 37.6909 138.676 37.6988 138.703 37.7122C138.729 37.7255 138.753 37.744 138.773 37.7666C138.792 37.7891 138.807 37.8153 138.817 37.8436C138.826 37.872 138.83 37.9018 138.827 37.9316L138.739 39.1581C138.737 39.1879 138.729 39.2169 138.716 39.2436C138.703 39.2703 138.684 39.294 138.661 39.3136C138.639 39.3331 138.612 39.3479 138.584 39.3573C138.556 39.3666 138.526 39.3703 138.496 39.368Z" fill="#6F747A"/>
<path d="M132.516 35.694L125.418 35.1902C125.208 35.1754 125.003 35.1196 124.815 35.026C124.627 34.9324 124.46 34.8028 124.322 34.6447C124.184 34.4865 124.079 34.3029 124.013 34.1043C123.946 33.9057 123.92 33.696 123.935 33.4873C123.95 33.2785 124.006 33.0746 124.1 32.8874C124.194 32.7002 124.324 32.5333 124.483 32.3961C124.641 32.259 124.826 32.1544 125.025 32.0882C125.225 32.0221 125.435 31.9957 125.645 32.0106L132.743 32.5144C132.953 32.5292 133.157 32.585 133.345 32.6786C133.533 32.7722 133.701 32.9018 133.839 33.06C133.976 33.2181 134.081 33.4017 134.148 33.6003C134.214 33.7989 134.241 34.0086 134.226 34.2174C134.211 34.4261 134.155 34.63 134.061 34.8172C133.967 35.0044 133.837 35.1714 133.678 35.3085C133.519 35.4456 133.335 35.5502 133.135 35.6164C132.936 35.6825 132.725 35.7089 132.516 35.694Z" fill="#FFA945"/>
<g style="mix-blend-mode:multiply">
<path d="M125.456 34.6681C125.306 34.6573 125.159 34.6146 125.026 34.543C124.892 34.4714 124.776 34.3724 124.684 34.2527C124.592 34.1329 124.527 33.9951 124.493 33.8483C124.458 33.7016 124.456 33.5493 124.485 33.4014C124.543 33.1427 124.694 32.9138 124.909 32.7574C125.124 32.601 125.389 32.5276 125.654 32.5509L132.661 33.0473C132.927 33.062 133.178 33.1722 133.368 33.3575C133.559 33.5427 133.675 33.7905 133.696 34.0549C133.704 34.2054 133.68 34.3558 133.625 34.4962C133.57 34.6367 133.486 34.7639 133.378 34.8695C133.27 34.9751 133.141 35.0567 132.999 35.1088C132.857 35.161 132.705 35.1825 132.554 35.1719L125.456 34.6681Z" fill="#D9D9D9"/>
</g>
<defs>
<clipPath id="clip0_301_11142">
<rect width="32.1475" height="31.9679" fill="white" transform="matrix(0.997494 0.070756 -0.0715571 0.997436 115.609 0.700928)"/>
</clipPath>
</defs>
</svg>
