<svg width="297" height="300" viewBox="0 0 297 300" fill="none" xmlns="http://www.w3.org/2000/svg">
<rect width="297" height="300" fill="#E5E5E5"/>
<g clip-path="url(#clip0_0_1)">
<rect width="375" height="13653" transform="translate(-26 -404)" fill="white"/>
<path d="M319.108 213.573C276.566 304.537 177.202 347.938 97.1718 310.51C17.1414 273.082 -15.6503 147.385 26.8912 56.4205C69.4328 -34.5444 125.709 77.125 205.739 114.553C285.77 151.981 361.649 122.608 319.108 213.573Z" fill="#F1F6FF"/>
<path d="M152.379 242.344L190.187 257.463L236.99 141.421L205.031 128.645C204.263 128.337 203.442 128.184 202.614 128.193C201.786 128.202 200.968 128.373 200.206 128.697C199.445 129.02 198.755 129.49 198.176 130.079C197.597 130.669 197.14 131.366 196.832 132.131L152.379 242.344Z" fill="#F4A640"/>
<path d="M147.92 238.039L220.312 250.814L238.352 149.466L165.959 136.691L147.92 238.039Z" fill="#ADCFD8"/>
<path d="M184.121 151.014L216.448 156.719L216.577 155.997L184.25 150.292L184.121 151.014Z" fill="#55769F"/>
<path d="M177.655 147.982L223.564 156.084L223.693 155.361L177.783 147.26L177.655 147.982Z" fill="#55769F"/>
<path d="M171.083 156.54L226.783 166.369L226.912 165.647L171.212 155.818L171.083 156.54Z" fill="#55769F"/>
<path d="M170.464 160.014L226.164 169.843L226.293 169.121L170.593 159.292L170.464 160.014Z" fill="#55769F"/>
<path d="M169.226 166.967L224.926 176.796L225.054 176.073L169.354 166.244L169.226 166.967Z" fill="#55769F"/>
<path d="M168.876 172.57L224.312 182.146L224.438 181.426L169.001 171.851L168.876 172.57Z" fill="#55769F"/>
<path d="M167.988 173.918L223.688 183.747L223.816 183.024L168.116 173.195L167.988 173.918Z" fill="#55769F"/>
<path d="M165.266 189.205L220.966 199.034L221.094 198.312L165.394 188.483L165.266 189.205Z" fill="#55769F"/>
<path d="M164.625 192.809L220.325 202.638L220.454 201.916L164.754 192.087L164.625 192.809Z" fill="#55769F"/>
<path d="M163.983 196.413L219.684 206.242L219.812 205.519L164.112 195.69L163.983 196.413Z" fill="#55769F"/>
<path d="M163.34 200.016L219.04 209.845L219.169 209.123L163.469 199.294L163.34 200.016Z" fill="#55769F"/>
<path d="M162.697 203.622L218.397 213.451L218.526 212.729L162.826 202.899L162.697 203.622Z" fill="#55769F"/>
<path d="M162.055 207.226L217.755 217.055L217.883 216.332L162.183 206.503L162.055 207.226Z" fill="#55769F"/>
<path d="M161.413 210.829L217.113 220.658L217.242 219.936L161.542 210.107L161.413 210.829Z" fill="#55769F"/>
<path d="M150.082 233.704L221.183 252.33L247.484 152.79L176.383 134.165L150.082 233.704Z" fill="#DAEEF7"/>
<path d="M193.309 149.919L225.06 158.237L225.247 157.527L193.496 149.21L193.309 149.919Z" fill="#55769F"/>
<path d="M187.113 146.373L232.206 158.185L232.394 157.475L187.301 145.663L187.113 146.373Z" fill="#55769F"/>
<path d="M179.86 154.364L234.566 168.695L234.754 167.986L180.047 153.655L179.86 154.364Z" fill="#55769F"/>
<path d="M178.958 157.779L233.664 172.11L233.852 171.4L179.145 157.069L178.958 157.779Z" fill="#55769F"/>
<path d="M177.153 164.604L231.859 178.935L232.047 178.226L177.34 163.895L177.153 164.604Z" fill="#55769F"/>
<path d="M176.252 168.019L230.958 182.35L231.146 181.64L176.439 167.31L176.252 168.019Z" fill="#55769F"/>
<path d="M175.349 171.432L230.056 185.763L230.243 185.053L175.537 170.722L175.349 171.432Z" fill="#55769F"/>
<path d="M171.379 186.447L226.085 200.778L226.272 200.069L171.566 185.738L171.379 186.447Z" fill="#55769F"/>
<path d="M170.443 189.986L225.149 204.317L225.337 203.607L170.631 189.276L170.443 189.986Z" fill="#55769F"/>
<path d="M169.507 193.524L224.214 207.855L224.401 207.145L169.695 192.814L169.507 193.524Z" fill="#55769F"/>
<path d="M168.572 197.065L223.278 211.396L223.466 210.686L168.759 196.355L168.572 197.065Z" fill="#55769F"/>
<path d="M167.634 200.603L222.341 214.934L222.528 214.224L167.822 199.894L167.634 200.603Z" fill="#55769F"/>
<path d="M166.699 204.146L221.405 218.477L221.593 217.767L166.886 203.436L166.699 204.146Z" fill="#55769F"/>
<path d="M165.765 207.684L220.472 222.015L220.659 221.305L165.953 206.974L165.765 207.684Z" fill="#55769F"/>
<path d="M166.725 248.081L242.837 278.519L287.232 168.457L223.274 129.163C222.43 128.643 221.481 128.314 220.495 128.198C219.509 128.082 218.51 128.182 217.567 128.491C216.624 128.8 215.76 129.31 215.036 129.987C214.312 130.663 213.745 131.489 213.375 132.406L166.725 248.081Z" fill="#FFA945"/>
<path d="M258.339 236.529L272.129 232.514C274.556 222.52 276.015 214.009 276.015 214.009C259.376 214.677 246.57 219.748 236.719 226.956L234.682 243.27L230.283 232.318C207.03 254.404 204.308 288.485 204.308 288.485C204.308 288.485 251.111 270.25 260.034 262.736C263.479 259.834 266.646 251.907 269.236 243.266C264.579 240.78 258.339 236.529 258.339 236.529Z" fill="#6FA926"/>
<path d="M276.017 214.002C276.017 214.002 221.244 256.776 204.308 288.495C204.308 288.495 251.111 270.261 260.034 262.747C263.479 259.845 266.646 251.918 269.236 243.277C264.58 240.78 258.34 236.524 258.34 236.524L272.131 232.508C274.551 222.513 276.017 214.002 276.017 214.002Z" fill="#5E8E20"/>
<path d="M285.419 255.99C275.703 253.205 266.549 252.79 258.115 253.926C256.54 257.527 254.566 261.796 254.566 261.796L252.359 254.951C220.752 262.033 200.603 289.901 200.603 289.901C221.799 296.328 238.082 295.258 250.438 290.814C250.522 288.189 250.59 284.288 250.59 284.288L254.348 289.242C259.682 286.851 264.61 283.649 268.958 279.751C266.983 277.196 264.833 274.229 264.833 274.229L272.607 276.204C281.996 266.268 285.419 255.99 285.419 255.99Z" fill="#6FA926"/>
<path d="M250.437 290.812C250.522 288.187 250.59 284.286 250.59 284.286L254.348 289.24C259.682 286.849 264.61 283.647 268.957 279.749C266.983 277.194 264.833 274.228 264.833 274.228L272.607 276.202C281.998 266.269 285.421 255.982 285.421 255.982C247.899 261.699 200.603 289.901 200.603 289.901C221.799 296.333 238.08 295.263 250.437 290.812Z" fill="#5E8E20"/>
<path d="M46.29 172.514H41.084C41.9922 171.904 43.0643 171.581 44.1599 171.587H174.558C181.381 171.587 186.912 176.468 186.912 182.489V189.414C186.912 195.437 181.381 200.318 174.558 200.318L45.6173 200.28L46.29 172.514Z" fill="#5E8E20"/>
<path d="M175.973 189.416V182.489C175.973 176.466 170.443 171.587 163.62 171.587H166.421C173.244 171.587 178.774 176.468 178.774 182.489V189.414C178.774 195.437 173.244 200.318 166.421 200.318H163.659C170.463 200.3 175.973 195.426 175.973 189.416Z" fill="#FFA945"/>
<path d="M145.434 189.416V182.489C145.434 176.466 139.904 171.587 133.081 171.587H135.882C142.705 171.587 148.235 176.468 148.235 182.489V189.414C148.235 195.437 142.705 200.318 135.882 200.318H133.12C139.924 200.3 145.434 195.426 145.434 189.416Z" fill="#FFA945"/>
<path d="M120.32 171.613C126.844 171.613 132.133 176.282 132.133 182.04V189.867C132.133 195.625 126.844 200.294 120.32 200.294H39.1426V198.551H39.478L60.1152 196.826L64.2929 182.374C64.2929 182.374 56.2419 174.392 55.7176 174.186C55.1933 173.98 39.4854 173.356 39.4854 173.356H39.1499V171.614H120.32V171.613Z" fill="#6FA926"/>
<path d="M44.4094 185.901C44.4094 177.457 39.46 173.363 39.46 173.363H118.65C124.643 173.363 129.501 177.651 129.501 182.94V188.963C129.501 194.257 124.643 198.54 118.65 198.54H39.46C39.46 198.54 44.4094 196.534 44.4094 185.901Z" fill="#DAEEF7"/>
<g style="mix-blend-mode:multiply">
<path d="M129.507 182.94V188.963C129.507 189.739 129.4 190.512 129.19 191.26C126.519 185.492 121.399 179.943 111.655 178.149C88.9056 173.982 39.4629 173.363 39.4629 173.363H118.653C124.649 173.363 129.507 177.651 129.507 182.94Z" fill="#DAEEF7"/>
</g>
<path d="M48.4365 229.945H42.5449C43.5473 229.19 44.7707 228.782 46.0278 228.784H193.614C201.335 228.784 207.595 234.895 207.595 242.432V251.1C207.595 258.638 201.335 264.747 193.614 264.747L47.6776 264.698L48.4365 229.945Z" fill="#07085B"/>
<path d="M132.224 228.814C139.608 228.814 145.595 234.655 145.595 241.864V251.666C145.595 258.874 139.608 264.716 132.224 264.716H40.3486V262.526H40.7281L64.0856 260.367L68.8059 242.297C68.8059 242.297 59.6935 232.307 59.0995 232.05C58.5056 231.793 40.7281 231.011 40.7281 231.011H40.3486V228.814H132.224Z" fill="#55769F"/>
<path d="M46.3066 246.699C46.3066 236.129 40.7119 231.002 40.7119 231.002H130.351C137.134 231.002 142.633 236.37 142.633 242.99V250.532C142.633 257.152 137.134 262.52 130.351 262.52H40.7119C40.7119 262.52 46.3066 260.009 46.3066 246.699Z" fill="#DAEEF7"/>
<g style="mix-blend-mode:multiply">
<path d="M142.623 242.992V250.534C142.62 251.504 142.497 252.469 142.257 253.409C139.234 246.188 133.439 239.236 122.411 236.998C96.6617 231.778 40.7041 231.004 40.7041 231.004H130.343C137.126 231.006 142.623 236.372 142.623 242.992Z" fill="#DAEEF7"/>
</g>
<path d="M212.458 201.166H218.351C217.294 200.555 216.091 200.239 214.868 200.253H67.2259C59.5012 200.253 53.2393 205.101 53.2393 211.082V217.96C53.2393 223.941 59.5012 228.789 67.2259 228.789L213.219 228.751L212.458 201.166Z" fill="#0EBED9"/>
<path d="M128.635 200.271C121.247 200.271 115.253 204.907 115.253 210.627V218.401C115.253 224.121 121.242 228.757 128.635 228.757H220.547V227.025H220.167L196.801 225.311L192.081 210.963C192.081 210.963 201.197 203.036 201.796 202.832C202.395 202.627 220.175 202.007 220.175 202.007H220.554V200.278H128.635V200.271Z" fill="#0EBED9"/>
<path d="M214.588 214.462C214.588 206.066 220.186 202.01 220.186 202.01H130.519C123.737 202.01 118.237 206.268 118.237 211.523V217.506C118.237 222.759 123.737 227.018 130.519 227.018H220.186C220.186 227.018 214.588 225.017 214.588 214.462Z" fill="#DAEEF7"/>
<g style="mix-blend-mode:multiply">
<path d="M118.234 211.521V217.505C118.238 218.279 118.362 219.049 118.601 219.786C121.626 214.057 127.422 208.539 138.455 206.765C164.216 202.623 220.196 202.008 220.196 202.008H130.52C123.736 202.01 118.234 206.268 118.234 211.521Z" fill="#DAEEF7"/>
</g>
<path opacity="0.5" d="M80.2871 217.952V211.074C80.2871 205.093 86.549 200.245 94.2738 200.245H80.2523C72.5275 200.245 66.2656 205.093 66.2656 211.074V217.952C66.2656 223.933 72.5275 228.781 80.2523 228.781H94.0868C86.45 228.701 80.2871 223.886 80.2871 217.952Z" fill="#55769F"/>
<path d="M222.184 265.848H229.573C228.223 265.156 226.724 264.802 225.206 264.818H40.1078C30.4235 264.818 22.5723 270.236 22.5723 276.918V284.604C22.5723 291.286 30.4235 296.703 40.1078 296.703L223.135 296.66L222.184 265.848Z" fill="#FFA945"/>
<path d="M117.099 264.848C107.839 264.848 100.33 270.028 100.33 276.418V285.102C100.33 291.491 107.846 296.673 117.099 296.673H232.327V294.73H231.85L202.557 292.816L196.636 276.788C196.636 276.788 208.064 267.932 208.81 267.704C209.556 267.476 231.85 266.792 231.85 266.792H232.327V264.859H117.099V264.848Z" fill="#F4A640"/>
<path d="M224.854 280.704C224.854 271.333 231.872 266.79 231.872 266.79H119.46C110.954 266.79 104.062 271.548 104.062 277.418V284.104C104.062 289.974 110.958 294.732 119.46 294.732H231.872C231.872 294.732 224.854 292.502 224.854 280.704Z" fill="#DAEEF7"/>
<g style="mix-blend-mode:multiply">
<path d="M104.057 277.418V284.104C104.058 284.975 104.21 285.839 104.506 286.659C108.297 280.258 115.563 274.094 129.396 272.11C161.692 267.481 231.867 266.797 231.867 266.797H119.46C110.953 266.79 104.057 271.548 104.057 277.418Z" fill="#DAEEF7"/>
</g>
<path d="M273.751 180.602L221.929 151.088L214.925 164.903L267.951 192.837L273.751 180.602Z" fill="#F4A640"/>
<path d="M232.5 79C232.5 79 232.9 82.2767 236 82.5C232.898 82.7267 232.5 86 232.5 86C232.5 86 232.1 82.7217 229 82.5C232.102 82.2767 232.5 79 232.5 79Z" fill="#6FA926"/>
<path d="M45.3405 46.9072C45.3405 46.9072 45.8078 49.9583 49.4404 50.1681C45.8042 50.3791 45.3369 53.429 45.3369 53.429C45.3369 53.429 44.8696 50.3791 41.2334 50.1681C44.8732 49.9583 45.3405 46.9072 45.3405 46.9072Z" fill="#6FA926"/>
<path d="M23 139C23 139 23.9101 145.079 31 145.5C23.9124 145.921 23 152 23 152C23 152 22.0899 145.921 15 145.5C22.0876 145.081 23 139 23 139Z" fill="#6FA926"/>
<path d="M203.5 31C203.5 31 204.133 35.6774 209 36C204.126 36.3194 203.5 41 203.5 41C203.5 41 202.867 36.3226 198 36C202.874 35.6758 203.5 31 203.5 31Z" fill="#0EBED9"/>
<path d="M80.4713 108C80.4713 108 81.0948 112.067 85.9427 112.348C81.0948 112.629 80.4713 116.696 80.4713 116.696C80.4713 116.696 79.8479 112.629 75 112.348C79.8479 112.067 80.4713 108 80.4713 108Z" fill="#0EBED9"/>
<g style="mix-blend-mode:multiply">
<path d="M144.02 106.304L152.381 106.972L149.683 113.707L145.467 113.369L143.709 118.984C143.28 118.788 142.964 118.64 142.902 118.599C142.774 118.515 142.308 115.727 141.897 113.097L144.02 106.304Z" fill="#DAEEF7"/>
</g>
<path d="M148.799 168.238V171.173C148.799 171.23 148.81 171.288 148.832 171.341C148.854 171.394 148.886 171.443 148.927 171.484C148.968 171.525 149.016 171.557 149.07 171.579C149.123 171.601 149.181 171.613 149.239 171.613H156.12C156.227 171.61 156.33 171.575 156.414 171.51C156.499 171.446 156.561 171.356 156.59 171.254C156.62 171.152 156.617 171.044 156.58 170.944C156.544 170.844 156.476 170.759 156.388 170.7L152.527 168.243C152.527 168.243 150.999 169.348 148.799 168.238Z" fill="#5E8E20"/>
<path d="M135.282 43.8331C135.26 43.8422 135.235 43.845 135.21 43.8412C135.186 43.8373 135.163 43.8269 135.145 43.8112C135.126 43.7954 135.112 43.7749 135.104 43.7518C135.096 43.7286 135.094 43.7037 135.099 43.6798C135.271 42.8639 135.798 40.2976 135.6 40.2118C135.363 40.1041 134.837 42.3875 134.599 42.4149C134.36 42.4423 134.929 40.2246 134.659 40.1534C134.39 40.0822 133.937 42.1155 133.812 42.1228C133.688 42.1301 133.909 40.1333 133.777 39.9946C133.645 39.8559 133.147 41.9586 132.997 42.0024C132.846 42.0462 132.707 40.4892 132.571 40.4856C132.436 40.4819 132.344 40.4564 131.655 44.0704C131.655 44.0704 131.614 45.3955 131.378 45.7131L131.902 46.7772L133.526 46.8301C133.526 46.8301 137.053 43.6524 137.024 43.4589C136.995 43.2654 136.831 43.2235 135.282 43.8331Z" fill="#FFC0BB"/>
<path d="M151.992 44.6325C152.008 44.6508 152.029 44.6645 152.052 44.672C152.076 44.6795 152.101 44.6806 152.124 44.6752C152.148 44.6698 152.17 44.658 152.188 44.6412C152.206 44.6243 152.218 44.603 152.225 44.5795C152.445 43.7764 153.152 41.2521 153.371 41.2613C153.631 41.2722 153.054 43.5428 153.253 43.676C153.453 43.8093 153.961 41.5807 154.236 41.6354C154.511 41.6902 153.981 43.7089 154.089 43.7728C154.197 43.8367 154.912 41.9585 155.094 41.8946C155.275 41.8307 154.756 43.9297 154.865 44.0429C154.973 44.1561 155.814 42.8273 155.937 42.8875C156.06 42.9478 156.151 42.9642 155.118 46.4979C155.118 46.4979 154.547 47.6952 154.615 48.0785L153.662 48.7885L152.196 48.0986C152.196 48.0986 150.511 43.6687 150.625 43.5099C150.738 43.3512 150.89 43.3931 151.992 44.6325Z" fill="#FFC0BB"/>
<path d="M139.09 73.5736L139.116 79.752L133.089 78.8266L134.093 71.8779L139.09 73.5736Z" fill="#FFC0BB"/>
<path opacity="0.6" d="M133.63 75.0756L134.094 71.8796L139.096 74.1594V75.3786C137.894 75.6706 135.637 75.9335 133.63 75.0756Z" fill="#FC8D84"/>
<path d="M128.199 167.913V171.133C128.199 171.26 128.148 171.383 128.057 171.473C127.967 171.564 127.844 171.614 127.715 171.614H120.144C120.027 171.613 119.912 171.574 119.818 171.503C119.724 171.432 119.656 171.333 119.623 171.22C119.59 171.108 119.594 170.987 119.635 170.877C119.675 170.767 119.751 170.673 119.849 170.609L124.097 167.913C124.097 167.913 125.765 169.125 128.199 167.913Z" fill="#5E8E20"/>
<path d="M121.286 113.221C121.301 112.533 119.501 114.563 119.536 114.014C120.241 102.584 142.671 112.166 142.671 112.166L148.147 116.167L154.328 169.145C154.328 169.145 150.974 170.112 148.765 169.327L135.077 123.923L133.401 123.278C133.401 123.278 125.908 118.077 121.286 113.221Z" fill="#07085B"/>
<path d="M119.51 114.479C119.51 114.612 119.497 114.749 119.491 114.89C119.497 114.749 119.502 114.612 119.51 114.479Z" fill="#0EBED9"/>
<path d="M119.491 114.897C119.491 115.039 119.48 115.187 119.477 115.337C119.48 115.187 119.486 115.039 119.491 114.897Z" fill="#0EBED9"/>
<path d="M119.469 115.395C119.469 115.55 119.469 115.709 119.456 115.874C119.465 115.71 119.469 115.551 119.469 115.395Z" fill="#0EBED9"/>
<path d="M119.535 114.012C119.535 114.136 119.52 114.264 119.513 114.395C119.52 114.265 119.527 114.136 119.535 114.012Z" fill="#0EBED9"/>
<path d="M119.537 111.416C124.158 116.273 133.393 123.28 133.393 123.28L135.076 123.925L133.401 123.278L128.197 169.145C128.197 169.145 124.488 169.848 122.369 168.705C122.36 168.703 119.236 125.045 119.537 111.416Z" fill="#07085B"/>
<path d="M154.328 169.143C153.327 169.412 152.3 169.573 151.265 169.623C152.3 169.573 153.327 169.412 154.328 169.143Z" fill="#0EBED9"/>
<path d="M149.411 169.497C149.56 169.528 149.712 169.552 149.866 169.572C149.715 169.554 149.561 169.53 149.411 169.497Z" fill="#0EBED9"/>
<path d="M151.264 169.623C150.875 169.64 150.485 169.631 150.097 169.598C150.485 169.631 150.875 169.64 151.264 169.623V169.623Z" fill="#0EBED9"/>
<path d="M148.147 116.167L149.028 123.728C146.693 124.627 141.003 125.589 136.717 116.244C135.364 113.3 135.018 111.179 135.267 109.657C137.787 110.332 140.261 111.168 142.673 112.159L148.147 116.167Z" fill="#050645"/>
<path d="M127.566 85.3061C127.825 85.3061 131.711 76.5449 131.711 76.5449C135.034 78.8666 139.546 77.2549 139.546 77.2549C139.546 77.2549 157.694 110.326 145.524 115.485C133.353 120.643 121.876 114.368 121.876 114.368C121.876 114.368 119.286 107.654 119.286 107.397C119.286 107.14 127.308 85.3061 127.566 85.3061Z" fill="#DAEEF7"/>
<path d="M151.221 48.1718C151.221 48.1718 152.008 63.8688 150.53 66.7381C145.63 76.2786 139.544 77.246 139.544 77.246C139.544 77.246 137.451 110.619 139.178 118.613C139.178 118.613 144.919 120.376 153.379 116.423C153.379 116.423 146.904 90.5502 147.249 87.283C147.249 87.283 157.608 78.0856 157.954 67.2546C158.301 56.4237 155.45 46.7974 155.45 46.7974L151.221 48.1718Z" fill="#55769F"/>
<path d="M123.293 117.412C123.293 117.412 123.94 104.991 126.789 93.215C129.638 81.4385 131.709 76.5396 131.709 76.5396C127.889 72.3415 128.523 68.5615 128.86 63.6461C129.249 57.9733 134.818 46.6257 134.818 46.6257L131.062 44.1763C113.063 65.7141 123.033 82.8567 123.033 82.8567C123.033 82.8567 116.3 106.585 115.393 113.802C117.926 115.212 120.568 116.419 123.293 117.412V117.412Z" fill="#55769F"/>
<path d="M147.074 87.2464C146.805 87.0493 146.562 86.8193 146.35 86.5619C145.588 85.6493 145.192 84.6125 144.918 83.459C145.083 83.9518 145.527 85.3828 146.46 86.4725C146.699 86.7694 146.983 87.0274 147.301 87.2372L147.25 87.2829C147.25 87.3048 147.25 87.3267 147.25 87.3504C147.01 87.3997 146.59 87.4143 145.883 87.031C145.469 86.8011 145.082 86.5249 144.731 86.2078C145.108 86.4874 145.507 86.7347 145.925 86.947C146.279 87.1346 146.673 87.2371 147.074 87.2464Z" fill="white"/>
<path d="M123.172 82.7763C123.481 82.5648 123.758 82.311 123.995 82.0225C124.76 81.13 125.178 80.075 125.537 79.009C125.264 80.1571 124.872 81.1993 124.104 82.1119C123.892 82.3694 123.649 82.5993 123.38 82.7964C123.55 82.8033 123.721 82.7836 123.885 82.738C124.11 82.6805 124.328 82.5997 124.536 82.497C124.955 82.2853 125.354 82.038 125.73 81.7578C125.378 82.0745 124.992 82.3507 124.578 82.581C124.368 82.696 124.146 82.7884 123.917 82.8566C123.68 82.9342 123.427 82.9474 123.183 82.8949L123.046 82.8584L123.172 82.7763Z" fill="white"/>
<path d="M130.444 60.9648L130.079 65.2049L130.752 65.6265L131.997 60.4629L130.444 60.9648Z" fill="#07085B"/>
<path d="M130.28 66.787C131.052 66.6397 131.528 65.7419 131.343 64.7815C131.158 63.8212 130.383 63.1621 129.611 63.3093C128.839 63.4566 128.364 64.3544 128.549 65.3148C128.733 66.2751 129.509 66.9342 130.28 66.787Z" fill="#F99893"/>
<path d="M130.245 68.6875C130.073 67.5079 130.052 66.3112 130.185 65.1265C130.208 64.8947 130.218 64.6628 130.223 64.431C130.248 63.3823 130.491 62.3501 130.938 61.4C131.385 60.45 132.025 59.6028 132.819 58.9124C133.612 58.222 134.541 57.7034 135.546 57.3895C136.551 57.0757 137.611 56.9734 138.658 57.0892C139.705 57.2051 140.717 57.5365 141.629 58.0625C142.54 58.5884 143.332 59.2974 143.954 60.1443C144.575 60.9913 145.013 61.9577 145.24 62.9823C145.466 64.0068 145.476 65.0671 145.269 66.0957C145.511 66.0105 145.77 65.9826 146.024 66.0143C146.279 66.046 146.522 66.1363 146.736 66.2782C147.541 66.8477 147.614 68.1217 146.899 69.1237C146.184 70.1258 144.952 70.4762 144.149 69.9068C144.04 69.8288 143.942 69.736 143.858 69.6311C142.758 73.1885 139.203 75.3971 135.631 74.6232C132.925 74.0282 130.687 71.7886 130.245 68.6875Z" fill="#FFC0BB"/>
<path d="M138.484 65.2962C138.431 65.4278 138.421 65.5731 138.457 65.7106C138.493 65.8481 138.572 65.9704 138.683 66.0593C138.795 66.1483 138.932 66.1992 139.074 66.2046C139.217 66.2099 139.357 66.1694 139.475 66.0889C139.592 66.0085 139.681 65.8925 139.727 65.7581C139.773 65.6237 139.775 65.478 139.731 65.3428C139.688 65.2075 139.601 65.0898 139.485 65.0071C139.369 64.9244 139.23 64.8811 139.087 64.8837C138.957 64.886 138.831 64.9263 138.723 64.9997C138.616 65.073 138.533 65.1761 138.484 65.2962V65.2962Z" fill="#333333"/>
<path d="M132.841 64.4546C132.787 64.5862 132.777 64.7316 132.813 64.869C132.849 65.0065 132.929 65.1288 133.04 65.2178C133.151 65.3067 133.288 65.3577 133.431 65.363C133.573 65.3683 133.714 65.3278 133.831 65.2473C133.949 65.1669 134.037 65.0509 134.083 64.9165C134.13 64.7821 134.131 64.6365 134.088 64.5012C134.044 64.3659 133.958 64.2482 133.842 64.1655C133.726 64.0828 133.586 64.0395 133.444 64.0421C133.314 64.0444 133.187 64.0848 133.08 64.1581C132.973 64.2315 132.889 64.3346 132.841 64.4546V64.4546Z" fill="#333333"/>
<path d="M137.607 69.9139C137.269 70.081 136.911 70.2037 136.542 70.2789C136.177 70.3539 135.802 70.3681 135.433 70.3209C135.064 70.2678 134.71 70.1438 134.39 69.9559C134.068 69.7597 133.776 69.5195 133.522 69.2422C133.741 69.5571 134.017 69.8283 134.336 70.0416C134.661 70.2557 135.03 70.3948 135.416 70.4487C135.801 70.4981 136.192 70.4726 136.567 70.3738C136.938 70.2816 137.29 70.1259 137.607 69.9139V69.9139Z" fill="#F99893"/>
<path d="M137.949 63.9545C138.276 63.8929 138.608 63.8575 138.941 63.8486C139.25 63.8418 139.559 63.8787 139.857 63.9582C140.157 64.0361 140.442 64.1592 140.704 64.3232C140.985 64.5024 141.256 64.6961 141.516 64.9036C141.398 64.5677 141.198 64.2657 140.935 64.0239C140.668 63.768 140.339 63.5851 139.98 63.4927C139.621 63.3964 139.243 63.3901 138.88 63.4745C138.534 63.5532 138.214 63.7184 137.949 63.9545V63.9545Z" fill="#07085B"/>
<path d="M135.311 63.5237C135.135 63.2143 134.882 62.9548 134.577 62.7699C134.263 62.5768 133.906 62.4634 133.538 62.4395C133.168 62.4122 132.798 62.48 132.462 62.6366C132.135 62.7818 131.849 63.0043 131.628 63.2846C131.941 63.1707 132.261 63.0738 132.585 62.9944C132.885 62.9226 133.194 62.8968 133.501 62.9177C133.814 62.9346 134.123 62.996 134.418 63.1002C134.726 63.2176 135.025 63.3592 135.311 63.5237Z" fill="#07085B"/>
<path d="M136.462 64.356C136.153 64.6473 135.864 64.9589 135.597 65.2887C135.324 65.6168 135.076 65.9639 134.853 66.3272C134.701 66.5621 134.591 66.8206 134.526 67.092C134.504 67.2307 134.515 67.3658 134.748 67.5939C134.9 67.7487 135.068 67.887 135.249 68.0064C135.423 68.1262 135.607 68.2324 135.798 68.324C135.472 68.0637 135.171 67.7748 134.897 67.4607C134.839 67.3909 134.79 67.315 134.75 67.2344C134.745 67.1533 134.761 67.0724 134.796 66.9989C134.871 66.8085 134.963 66.6253 135.071 66.4513C135.282 66.0863 135.52 65.7504 135.753 65.4018C135.985 65.0532 136.233 64.7137 136.462 64.356Z" fill="#F99893"/>
<path d="M131.236 56.4381C131.236 56.4381 129.001 56 131.751 54.664C134.501 53.3279 141.261 52.5357 144.794 55.5474C144.794 55.5474 145.981 54.0306 147.048 54.6968C148.115 55.363 145.937 56.1004 145.937 56.1004C145.937 56.1004 147.428 56.387 147.716 57.2102C147.928 57.8198 147.015 57.6391 146.526 57.504C147.336 57.8362 149.719 60.0776 146.625 66.1995C146.075 65.9439 142.535 60.9063 142.535 60.9063C142.535 60.9063 135.417 63.2426 136.715 61.3115C136.715 61.3115 128.417 63.3904 130.428 59.645C130.429 59.6505 127.37 59.1851 131.236 56.4381Z" fill="#07085B"/>
<path d="M146.628 66.1995C146.428 66.0738 146.199 65.9984 145.962 65.98C145.726 65.9615 145.488 66.0005 145.27 66.0937C144.449 66.4039 143.928 68.2292 143.928 68.2292C143.928 68.2292 141.241 70.4195 142.552 60.8716C143.835 51.4899 145.622 62.434 145.622 62.434L146.628 66.1995Z" fill="#07085B"/>
<g clip-path="url(#clip1_0_1)">
<path d="M161.603 10.7772L156.802 10.4367C156.833 10.1218 156.887 9.82679 156.91 9.50544C156.947 8.98224 156.564 8.54196 156.037 8.50464L137.248 7.17185C136.722 7.13452 136.279 7.51618 136.242 8.03937C136.219 8.36072 136.23 8.66025 136.215 8.97638L131.415 8.63589C130.896 8.59905 130.445 8.98707 130.408 9.50341L130.239 11.8698C129.864 17.0858 133.762 21.621 138.921 22.2611C139.894 23.8146 141.096 25.0015 142.508 25.7223C141.957 30.2463 139.119 33.2185 138.452 33.8285C138.353 33.8965 138.269 34.0033 138.224 34.1127L151.226 35.035C151.196 34.9203 151.129 34.8028 151.041 34.7215C150.449 34.0222 148.081 30.6995 148.183 26.1248C149.684 25.6106 151.051 24.6056 152.236 23.2047C157.43 23.2945 161.931 19.3575 162.305 14.1444L162.475 11.778C162.512 11.2617 162.122 10.8141 161.603 10.7772V10.7772ZM132.117 12.0031L132.22 10.5708L136.162 10.8504C136.184 13.9553 136.623 17.2731 137.838 20.1524C134.348 19.1065 131.847 15.7675 132.117 12.0031V12.0031ZM160.427 14.0112C160.157 17.7736 157.207 20.7245 153.605 21.2692C155.209 18.5899 156.118 15.3995 156.588 12.2993L160.529 12.5789L160.427 14.0112Z" fill="#EB9C40"/>
<path d="M161.603 10.7771L156.802 10.4366C156.833 10.1216 156.887 9.82668 156.91 9.50533C156.947 8.98214 156.563 8.54185 156.037 8.50453L146.643 7.83813L144.725 34.5738L151.226 35.0349C151.196 34.9202 151.129 34.8027 151.04 34.7214C150.448 34.0221 148.081 30.6994 148.182 26.1247C149.684 25.6105 151.05 24.6055 152.236 23.2046C157.43 23.2944 161.931 19.3574 162.305 14.1443L162.475 11.7779C162.512 11.2616 162.122 10.814 161.603 10.7771V10.7771ZM160.426 14.0111C160.156 17.7735 157.207 20.7244 153.605 21.2691C155.209 18.5898 156.118 15.3994 156.588 12.2992L160.529 12.5788L160.426 14.0111Z" fill="#FFA945"/>
<path d="M147.29 19.8267L145.846 18.9458L144.292 19.614C143.966 19.7523 143.585 19.6987 143.311 19.4712C143.038 19.2427 142.919 18.8803 143.002 18.536L143.397 16.8961L142.279 15.6313C142.036 15.3591 141.983 14.9775 142.113 14.6604C142.247 14.3325 142.557 14.1069 142.913 14.079L144.6 13.9474L145.464 12.4986C145.829 11.8881 146.871 11.962 147.145 12.6178L147.793 14.1739L149.445 14.5423C149.793 14.6203 150.067 14.8873 150.153 15.2307C150.239 15.5752 150.123 15.9383 149.85 16.1683L148.564 17.2626L148.72 18.9415C148.754 19.2942 148.583 19.636 148.28 19.8236C147.979 20.0095 147.594 20.0128 147.29 19.8267V19.8267Z" fill="#ECC53C"/>
<path d="M147.289 19.8269C147.594 20.013 147.979 20.0097 148.28 19.8238C148.583 19.6362 148.753 19.2944 148.719 18.9417L148.563 17.2628L149.849 16.1685C150.122 15.9385 150.239 15.5753 150.153 15.2309C150.067 14.8874 149.793 14.6204 149.444 14.5425L147.792 14.1741L147.144 12.618C147.007 12.2901 146.678 12.1076 146.338 12.0835L145.846 18.946L147.289 19.8269Z" fill="#FFD53F"/>
</g>
<path d="M150.547 36.8349L138.265 35.9643C137.967 35.9428 137.689 35.8042 137.493 35.5791C137.298 35.3539 137.199 35.0605 137.221 34.7633V34.7633C137.231 34.6161 137.271 34.4724 137.337 34.3404C137.403 34.2084 137.495 34.0907 137.607 33.994C137.719 33.8974 137.849 33.8237 137.99 33.7772C138.13 33.7307 138.279 33.7122 138.427 33.7229L150.709 34.5936C151.007 34.6151 151.285 34.7536 151.481 34.9788C151.677 35.204 151.775 35.4974 151.754 35.7946V35.7946C151.732 36.0917 151.593 36.3682 151.367 36.5632C151.141 36.7583 150.846 36.856 150.547 36.8349V36.8349Z" fill="#FFA945"/>
<path d="M153.714 37.3183L135.049 35.9927L134.581 42.525L153.246 43.8507L153.714 37.3183Z" fill="#6F747A"/>
<g style="mix-blend-mode:multiply">
<path d="M134.625 41.7912L134.574 42.5049L153.239 43.8273L153.29 43.1136L134.625 41.7912Z" fill="#CDD6E0"/>
</g>
<g style="mix-blend-mode:multiply">
<path d="M135.032 35.2816L134.981 35.9971L153.694 37.3013L153.744 36.5858L135.032 35.2816Z" fill="#CDD6E0"/>
</g>
<path d="M153.565 37.6127L135.178 36.3076C135.068 36.2998 134.96 36.2702 134.86 36.2207C134.761 36.1713 134.673 36.1028 134.6 36.0192C134.527 35.9356 134.472 35.8386 134.437 35.7337C134.402 35.6288 134.388 35.518 134.396 35.4078V35.4078C134.404 35.2975 134.433 35.1899 134.483 35.091C134.533 34.9921 134.601 34.904 134.685 34.8316C134.769 34.7592 134.867 34.704 134.972 34.6692C135.077 34.6343 135.189 34.6204 135.299 34.6284L153.686 35.9334C153.796 35.9413 153.904 35.9708 154.004 36.0203C154.103 36.0698 154.192 36.1383 154.264 36.2219C154.337 36.3054 154.392 36.4024 154.427 36.5074C154.462 36.6123 154.476 36.723 154.468 36.8333V36.8333C154.46 36.9436 154.431 37.0512 154.381 37.1501C154.331 37.2489 154.263 37.3371 154.179 37.4094C154.095 37.4818 153.997 37.537 153.892 37.5719C153.787 37.6068 153.675 37.6206 153.565 37.6127V37.6127Z" fill="#F4A640"/>
<path d="M153.496 45.368L133.881 43.9772C133.851 43.9751 133.822 43.9672 133.796 43.9539C133.769 43.9405 133.745 43.922 133.725 43.8995C133.706 43.8769 133.691 43.8507 133.681 43.8224C133.672 43.7941 133.668 43.7642 133.671 43.7345L133.759 42.5079C133.761 42.4782 133.769 42.4491 133.782 42.4224C133.795 42.3958 133.814 42.372 133.837 42.3525C133.859 42.333 133.886 42.3181 133.914 42.3088C133.942 42.2994 133.972 42.2958 134.002 42.298L153.617 43.6888C153.647 43.6909 153.676 43.6988 153.703 43.7122C153.729 43.7255 153.753 43.744 153.773 43.7666C153.792 43.7891 153.807 43.8153 153.817 43.8436C153.826 43.872 153.83 43.9018 153.827 43.9316L153.739 45.1581C153.737 45.1879 153.729 45.2169 153.716 45.2436C153.703 45.2703 153.684 45.294 153.661 45.3136C153.639 45.3331 153.612 45.3479 153.584 45.3573C153.556 45.3666 153.526 45.3703 153.496 45.368V45.368Z" fill="#6F747A"/>
<path d="M147.516 41.694L140.418 41.1902C140.208 41.1754 140.003 41.1196 139.815 41.026C139.627 40.9324 139.46 40.8028 139.322 40.6447C139.184 40.4865 139.079 40.3029 139.013 40.1043C138.946 39.9057 138.92 39.696 138.935 39.4873V39.4873C138.95 39.2785 139.006 39.0746 139.1 38.8874C139.194 38.7002 139.324 38.5333 139.483 38.3961C139.641 38.259 139.826 38.1544 140.025 38.0882C140.225 38.0221 140.435 37.9957 140.645 38.0106L147.743 38.5144C147.953 38.5292 148.157 38.585 148.345 38.6786C148.533 38.7722 148.701 38.9018 148.839 39.06C148.976 39.2181 149.081 39.4017 149.148 39.6003C149.214 39.7989 149.241 40.0086 149.226 40.2174V40.2174C149.211 40.4261 149.155 40.63 149.061 40.8172C148.967 41.0044 148.837 41.1714 148.678 41.3085C148.519 41.4456 148.335 41.5502 148.135 41.6164C147.936 41.6825 147.725 41.7089 147.516 41.694V41.694Z" fill="#FFA945"/>
<g style="mix-blend-mode:multiply">
<path d="M140.456 40.6681C140.306 40.6573 140.159 40.6146 140.026 40.543C139.892 40.4714 139.776 40.3724 139.684 40.2527C139.592 40.1329 139.527 39.9951 139.493 39.8483C139.458 39.7016 139.456 39.5493 139.485 39.4014C139.543 39.1427 139.694 38.9138 139.909 38.7574C140.124 38.601 140.389 38.5276 140.654 38.5509L147.661 39.0473C147.927 39.062 148.178 39.1722 148.368 39.3575C148.559 39.5427 148.675 39.7905 148.696 40.0549C148.704 40.2054 148.68 40.3558 148.625 40.4962C148.57 40.6367 148.486 40.7639 148.378 40.8695C148.27 40.9751 148.141 41.0567 147.999 41.1088C147.857 41.161 147.705 41.1825 147.554 41.1719L140.456 40.6681Z" fill="#D9D9D9"/>
</g>
</g>
<defs>
<clipPath id="clip0_0_1">
<rect width="375" height="13653" fill="white" transform="translate(-26 -404)"/>
</clipPath>
<clipPath id="clip1_0_1">
<rect width="32.1475" height="31.9679" fill="white" transform="matrix(0.997494 0.070756 -0.0715571 0.997436 130.609 6.70093)"/>
</clipPath>
</defs>
</svg>
