<svg width="546" height="494" viewBox="0 0 546 494" fill="none" xmlns="http://www.w3.org/2000/svg">
<path d="M505.302 273.113C448.299 395.001 315.157 453.154 207.921 403.004C100.685 352.853 56.7465 184.426 113.75 62.5389C170.753 -59.3486 246.159 90.2817 353.395 140.433C460.631 190.584 562.305 151.226 505.302 273.113Z" fill="#E4EEF5"/>
<path d="M260 362.171C375.649 362.171 469.401 356.697 469.401 349.945C469.401 343.193 375.649 337.72 260 337.72C144.351 337.72 50.5988 343.193 50.5988 349.945C50.5988 356.697 144.351 362.171 260 362.171Z" fill="#DCDCDC"/>
<path d="M403.132 79.9452C402.873 80.6796 402.668 81.198 402.42 81.8244C402.171 82.4508 401.944 82.9908 401.685 83.5632C401.188 84.7188 400.605 85.8528 400.076 86.9652C398.94 89.2413 397.671 91.4483 396.274 93.5748C394.827 95.8076 393.198 97.9172 391.404 99.882C390.449 100.936 389.424 101.925 388.336 102.841C387.786 103.316 387.17 103.748 386.565 104.213L385.582 104.872L384.945 105.26C384.708 105.412 384.47 105.53 384.243 105.66C382.551 106.482 380.719 106.976 378.843 107.118C377.326 107.248 375.799 107.226 374.286 107.053C371.634 106.715 369.024 106.104 366.499 105.228C361.802 103.573 357.32 101.362 353.15 98.64L355.969 92.6568C360.232 93.8471 364.559 94.7954 368.929 95.4972C370.907 95.81 372.909 95.9509 374.912 95.9184C375.723 95.9079 376.53 95.8101 377.32 95.6268C377.78 95.5374 378.215 95.3495 378.595 95.076V95.022L378.681 94.9356L379.124 94.5468C379.416 94.266 379.718 93.996 380.031 93.6396C380.625 93.0132 381.219 92.3112 381.802 91.566C383.004 89.9565 384.108 88.2758 385.107 86.5332C386.133 84.708 387.138 82.8504 388.066 80.9172C388.542 79.9992 388.984 78.9732 389.438 78.0012L390.097 76.5432L391.825 72.5364L403.132 79.9452Z" fill="#0EBED9"/>
<path d="M355.526 97.7544L349.737 98.4888V90.702C349.737 90.702 355.472 91.3608 357.88 94.2444L355.526 97.7544Z" fill="#FFB573"/>
<path d="M342.642 98.0244L343.441 92.6892L349.759 90.702L349.737 98.4888L342.642 98.0244Z" fill="#FFB573"/>
<path d="M464.606 297.857C465.109 296.494 465.839 295.227 466.766 294.109V294.109C466.766 294.109 470.395 287.132 466.766 275.468L471.972 270.414C473.454 270.357 474.902 270.875 476.011 271.861C476.747 272.593 477.423 273.384 478.03 274.226C480.19 277.553 484.932 285.178 484.932 285.178L484.143 285.674C482.601 283.415 480.924 281.251 479.121 279.194C477.242 277.283 477.447 280.847 478.257 283.849C479.067 286.852 477.339 291.722 472.317 295.114C466.496 299.088 463.893 300.395 464.606 297.857Z" fill="#263238"/>
<path d="M473.84 281.16C473.937 283.169 475.46 286.636 473.84 289.368C473.104 290.626 472.095 291.702 470.888 292.517C469.68 293.332 468.305 293.865 466.863 294.077C466.863 294.077 469.704 288.677 467.857 279.346C467.595 278.026 467.264 276.721 466.863 275.436C466.863 275.436 471.41 271.721 473.559 271.116L474.855 274.172C474.782 276.244 474.482 278.301 473.959 280.307C473.866 280.581 473.825 280.871 473.84 281.16V281.16Z" fill="#FFB573"/>
<path d="M474.758 274.216C474.685 276.287 474.385 278.344 473.862 280.35C473.784 280.624 473.759 280.909 473.786 281.192L469.466 283.352L467.803 279.432L461.895 265.468L469.52 261.72L473.505 271.148L474.758 274.216Z" fill="#FFB573"/>
<path opacity="0.2" d="M469.52 261.72L461.895 265.392L464.898 272.498H464.995C466.439 272.498 467.866 272.187 469.18 271.587C470.493 270.987 471.663 270.112 472.609 269.021V269.021L469.52 261.72Z" fill="black"/>
<path d="M405.033 296.28C406.192 295.405 407.492 294.736 408.878 294.304V294.304C408.878 294.304 415.693 290.383 418.922 278.6L426.158 276.775C426.81 277.056 427.397 277.467 427.884 277.984C428.37 278.5 428.746 279.11 428.988 279.778C429.108 281.048 429.148 282.325 429.106 283.601C429.171 287.586 429.02 297.911 429.02 297.911H428.08C427.983 295.189 427.735 291.128 427.324 288.439C426.914 285.75 425.024 288.914 424.084 291.884C423.145 294.854 419.073 298.019 413.004 298.17C405.908 298.31 403.024 297.997 405.033 296.28Z" fill="#263238"/>
<path d="M425.24 282.596C424.489 284.072 423.484 285.402 422.27 286.528C420.866 287.705 420.607 292.457 417.28 294.088C415.981 294.743 414.552 295.102 413.097 295.137C411.642 295.173 410.197 294.884 408.867 294.293C408.867 294.293 414.008 291.334 417.507 282.834C418.302 280.861 418.453 278.688 417.939 276.624L414.624 263.318L423.404 261.72L426.417 277.736C426.547 280.08 426.115 281.57 425.24 282.596Z" fill="#FFB573"/>
<path opacity="0.2" d="M413.652 258.232L416.265 270.004L417.043 270.144C418.369 270.376 419.73 270.321 421.034 269.984C422.338 269.647 423.555 269.035 424.603 268.189V268.189L422.54 256.774L413.652 258.232Z" fill="black"/>
<path d="M434.226 71.64C434.226 71.3052 434.161 70.9596 434.107 70.6248C433.871 69.1944 433.355 67.8245 432.59 66.5933C431.825 65.3621 430.824 64.2938 429.646 63.4493C428.467 62.6048 427.134 62.0008 425.722 61.6717C424.31 61.3426 422.847 61.2949 421.417 61.5312H421.222C420.477 61.65 419.721 61.7904 418.976 61.9416C413.87 62.8614 408.835 64.1426 403.91 65.7756C403.068 66.0348 402.214 66.3588 401.372 66.6828C400.292 67.1256 399.104 67.59 398.035 68.0436C395.575 69.0778 393.573 70.9681 392.399 73.3647C391.226 75.7613 390.96 78.5019 391.652 81.0792C393.824 90.4932 397.337 99.5462 402.085 107.96C403.662 110.736 404.158 116.482 405.552 119.938L438.729 111.6L438.783 111.665C436.612 101.232 435.068 83.358 434.226 71.64Z" fill="#0EBED9"/>
<path opacity="0.8" d="M434.226 71.64C434.226 71.3052 434.161 70.9596 434.107 70.6248C433.871 69.1944 433.355 67.8245 432.59 66.5933C431.825 65.3621 430.824 64.2938 429.646 63.4493C428.467 62.6048 427.134 62.0008 425.722 61.6717C424.31 61.3426 422.847 61.2949 421.417 61.5312H421.222C420.477 61.65 419.721 61.7904 418.976 61.9416C413.87 62.8614 408.835 64.1426 403.91 65.7756C403.068 66.0348 402.214 66.3588 401.372 66.6828C400.292 67.1256 399.104 67.59 398.035 68.0436C395.575 69.0778 393.573 70.9681 392.399 73.3647C391.226 75.7613 390.96 78.5019 391.652 81.0792C393.218 86.8788 396.512 93.618 402.312 108.544C403.392 111.287 404.288 116.795 405.552 119.938L438.729 111.6L438.783 111.665C436.612 101.232 435.068 83.358 434.226 71.64Z" fill="white"/>
<path d="M405.552 119.981C405.552 119.981 402.56 160.697 402.43 193.68C402.376 219.87 412.874 266.407 412.874 266.407C417.552 267.371 422.422 266.464 426.439 263.88C426.72 265.824 426.504 228.488 423.868 203.324C423.476 199.542 423.691 195.721 424.506 192.006C432.12 157.37 442.444 125.305 432.195 113.09L405.552 119.981Z" fill="#263238"/>
<path opacity="0.3" d="M422.702 144.324L436.137 135.77C434.906 148.828 430.618 165.373 426.525 183.02C422 169.391 419.538 155.048 422.702 144.324Z" fill="black"/>
<path d="M411.6 120.726C411.6 120.726 422.4 153.439 429.819 184.932C433.491 207.612 461.074 268.88 461.074 268.88L465.265 267.865C467.252 267.377 469.068 266.354 470.514 264.906L471.874 263.524C471.874 263.524 465.34 232.571 458.601 212.18C455.868 203.939 454.269 195.365 453.849 186.692C452.337 154.541 449.745 123.286 437.217 113.144L411.6 120.726Z" fill="#263238"/>
<path d="M419.689 61.6717C419.689 61.6717 418.08 101.027 429.409 151.517C443.978 149.94 452.78 145.458 452.78 145.458C452.78 145.458 448.46 117.983 438.74 104.342C436.72 94.5469 437.077 73.4221 435.792 65.7757C435.558 64.4366 434.888 63.2125 433.886 62.2943C432.884 61.3761 431.606 60.8154 430.251 60.6997C426.705 60.6184 423.161 60.9446 419.689 61.6717V61.6717Z" fill="#0EBED9"/>
<path d="M403.737 65.2788C403.737 65.2788 402.711 83.9412 418.015 153.029C413.414 155.761 403.273 155.394 403.273 155.394C403.273 155.394 402.312 132.185 403.003 113.576C403.338 104.526 396.739 103.511 392.57 93.7368C390.205 82.2888 390.842 72.8604 392.419 71.4672C395 69.1992 399.136 66.0888 403.737 65.2788Z" fill="#0EBED9"/>
<path opacity="0.7" d="M419.516 61.5744C419.516 61.5744 419.613 77.634 420.423 89.3628C421.244 81.0036 423.782 72.9144 423.588 70.3008C422.715 69.8911 421.874 69.4183 421.071 68.886C421.964 68.051 422.954 67.3258 424.02 66.726C424.067 64.7547 424.002 62.7823 423.825 60.8184C421.503 61.1748 419.516 61.5744 419.516 61.5744Z" fill="black"/>
<path opacity="0.7" d="M403.878 65.16C403.878 65.16 403.813 75.2472 406.459 92.8837C403.521 85.6044 399.828 78.6816 399.979 75.8844C400.828 75.0954 401.635 74.2627 402.398 73.3896C401.511 72.9014 400.546 72.569 399.547 72.4068C399.491 70.3316 399.549 68.2549 399.72 66.186C401.977 65.538 403.878 65.16 403.878 65.16Z" fill="black"/>
<path d="M434.733 63.0756C436.558 65.0628 438.492 67.1688 440.414 69.2208C442.336 71.2728 444.27 73.3032 446.224 75.2256C448.179 77.148 450.177 79.0272 452.132 80.6904C453.046 81.4621 454.001 82.1832 454.994 82.8504C455.379 83.1244 455.779 83.3768 456.193 83.6064C456.528 83.8008 456.765 83.8764 456.625 83.8764H454.929C455.988 83.792 456.993 83.3764 457.802 82.6884C459.219 81.6313 460.522 80.4296 461.69 79.1028C463.019 77.621 464.27 76.0709 465.438 74.4588C466.647 72.8388 467.835 71.0676 468.948 69.4368L475.071 71.8992C474.513 74.1698 473.792 76.3968 472.911 78.5628C472.033 80.7659 470.989 82.8996 469.79 84.9456C468.528 87.178 466.986 89.2395 465.2 91.08C464.12 92.1394 462.925 93.0741 461.636 93.8664C460.11 94.8152 458.416 95.464 456.646 95.778L455.923 95.9076L454.951 95.778C453.675 95.6042 452.429 95.259 451.246 94.752C450.343 94.3761 449.463 93.947 448.611 93.4668C447.137 92.6266 445.716 91.696 444.356 90.6804C441.848 88.8343 439.446 86.8475 437.163 84.7296C434.917 82.6884 432.778 80.5608 430.683 78.4224C428.588 76.284 426.633 74.1024 424.646 71.7156L434.733 63.0756Z" fill="#0EBED9"/>
<path d="M469.93 73.584C468.537 71.16 468.062 68.3158 468.591 65.5704L478.311 66.8016L475.147 72.288L469.93 73.584Z" fill="#FFB573"/>
<path d="M478.29 66.8016L468.591 65.5704L472.782 59.9436L479.845 62.6112L478.29 66.8016Z" fill="#FFB573"/>
<path d="M402.96 67.8708C402.355 70.0848 401.512 74.0592 402.549 75.5712C402.625 74.7072 404.212 71.7696 405.562 72.99C406.002 73.3643 406.4 73.7842 406.75 74.2428L409.342 77.9148C409.72 78.444 410.196 78.9948 410.854 79.0488C411.513 79.1028 412.14 78.2712 412.496 77.58L414.656 73.26C415.081 72.2287 415.766 71.3248 416.643 70.6356C417.572 70.0308 421.104 71.0028 421.73 71.9316C421.73 69.3828 422.011 63.972 421.73 62.5032C421.449 61.0344 418.371 59.166 416.892 58.95C415.892 58.9018 414.9 59.1377 414.03 59.6304C410.055 61.4988 404.266 63.1188 402.96 67.8708Z" fill="white"/>
<path d="M414.289 52.2C414.991 56.3472 416.373 60.4944 418.954 61.9956C418.954 61.9956 421.773 65.16 413.36 72.0072C411.978 73.2384 409.893 74.5668 408.511 73.3356C405.616 70.668 405.454 68.0976 405.789 66.456C406.017 65.5612 406.492 64.7489 407.161 64.1124C408.997 62.2116 407.658 60.1812 405.498 53.8848L409.418 51.1524C409.631 50.8628 409.898 50.618 410.205 50.4319C410.513 50.2459 410.854 50.1222 411.209 50.0681C411.564 50.0139 411.926 50.0303 412.275 50.1163C412.624 50.2022 412.952 50.3562 413.241 50.5692C413.782 50.9622 414.156 51.5443 414.289 52.2Z" fill="#FFB573"/>
<path opacity="0.2" d="M409.429 51.12C409.723 50.7208 410.12 50.4091 410.577 50.2183C411.035 50.0276 411.536 49.9649 412.027 50.037C412.517 50.1091 412.979 50.3134 413.362 50.6278C413.745 50.9423 414.036 51.3551 414.202 51.822C412.93 55.2138 410.645 58.1321 407.658 60.1812C407.42 58.5072 406.027 56.8872 405.336 55.3536C405.109 54.846 405.768 54.3492 405.498 53.8632L409.429 51.12Z" fill="black"/>
<path d="M407.96 22.9104C406.893 22.1352 405.647 21.6434 404.338 21.481C403.029 21.3186 401.7 21.4908 400.476 21.9816C398.035 22.991 395.888 24.5994 394.233 26.658C391.137 30.0887 388.967 34.2516 387.926 38.754C386.886 43.2786 387.423 48.0228 389.449 52.2C390.374 54.2163 391.877 55.9118 393.769 57.0708C395.329 57.8352 397.06 58.1851 398.794 58.0867C400.529 57.9884 402.209 57.4451 403.672 56.5092C406.588 54.597 408.896 51.8916 410.325 48.7116C412.345 44.6616 415.52 34.7364 411.492 27.576C410.62 25.8118 409.421 24.2287 407.96 22.9104V22.9104Z" fill="#614A43"/>
<path d="M415.628 51.3576C412.053 53.0424 410.152 54.5004 409.256 53.8308C408.111 52.9668 411.06 48.312 411.232 46.8864C411.402 45.3783 411.891 43.9238 412.668 42.62C413.444 41.3162 414.49 40.1933 415.736 39.3264C416.998 38.4816 418.459 37.9805 419.974 37.8726C421.489 37.7646 423.007 38.0535 424.376 38.7108C425.166 39.1067 425.864 39.6656 426.422 40.3506C426.981 41.0357 427.388 41.8314 427.616 42.6852C428.016 44.4564 426.536 45.6876 425.316 46.8108C422.691 49.2624 418.922 49.7916 415.628 51.3576Z" fill="#263238"/>
<path d="M416.362 36.702C416.654 45.126 416.967 48.69 413.23 53.4852C407.604 60.6996 397.408 59.4468 394.611 51.3252C392.116 44.0136 392.041 31.464 399.763 27.144C407.485 22.824 416.049 28.2672 416.362 36.702Z" fill="#FFB573"/>
<path d="M413.36 37.08C411.708 38.0412 412.431 45.936 416.47 45.3852C420.51 44.8344 418.76 33.9696 413.36 37.08Z" fill="#263238"/>
<path d="M418.965 44.262C418.741 45.8802 417.897 47.3479 416.611 48.3552C414.894 49.6728 413.295 48.3552 413.144 46.2816C413.014 44.4132 413.738 41.5512 415.758 41.0436C417.777 40.536 419.235 42.2748 418.965 44.262Z" fill="#FFB573"/>
<path d="M406.945 22.0896C395.605 24.8112 396.933 32.382 407.128 36.6048C412.798 38.9268 420.488 44.6292 416.481 54.8028C415.207 58.0428 433.178 45.1476 427.465 38.6028C416.481 26.0424 415.596 18.5688 406.945 22.0896Z" fill="#614A43"/>
<path d="M402.798 40.914C402.873 41.5944 402.582 42.1884 402.128 42.2424C401.674 42.2964 401.286 41.7888 401.221 41.1084C401.156 40.428 401.437 39.8232 401.89 39.78C402.344 39.7368 402.733 40.2336 402.798 40.914Z" fill="#263238"/>
<path d="M395.227 41.8212C395.302 42.5016 395.011 43.0956 394.557 43.1496C394.104 43.2036 393.715 42.696 393.65 42.0156C393.585 41.3352 393.866 40.7412 394.32 40.6872C394.773 40.6332 395.162 41.1408 395.227 41.8212Z" fill="#263238"/>
<path d="M394.514 40.698L392.862 40.4172C392.862 40.4172 393.823 41.5944 394.514 40.698Z" fill="#263238"/>
<path d="M397.862 42.48C397.485 44.31 396.868 46.0822 396.026 47.7504C396.448 47.9503 396.909 48.054 397.376 48.054C397.843 48.054 398.304 47.9503 398.726 47.7504L397.862 42.48Z" fill="#EDAA6D"/>
<path d="M404.979 37.836C404.91 37.824 404.848 37.7852 404.806 37.728C404.484 37.3642 404.08 37.0817 403.628 36.9034C403.176 36.7251 402.688 36.6561 402.204 36.702C402.153 36.7114 402.102 36.7107 402.051 36.7C402.001 36.6893 401.954 36.6688 401.912 36.6397C401.87 36.6106 401.834 36.5734 401.806 36.5304C401.778 36.4873 401.759 36.4392 401.75 36.3888V36.3888C401.734 36.283 401.761 36.1753 401.823 36.0886C401.886 36.0019 401.98 35.9429 402.085 35.9244C402.706 35.8412 403.337 35.9131 403.923 36.1336C404.509 36.3541 405.032 36.7163 405.444 37.188C405.518 37.2646 405.56 37.3673 405.56 37.4742C405.56 37.5811 405.518 37.6838 405.444 37.7604C405.385 37.822 405.308 37.8628 405.224 37.8764C405.14 37.8901 405.054 37.8759 404.979 37.836V37.836Z" fill="#263238"/>
<path d="M391.911 38.5488V38.484C391.88 38.4409 391.858 38.3921 391.846 38.3404C391.834 38.2887 391.833 38.2351 391.842 38.1828C391.851 38.1306 391.87 38.0806 391.899 38.0359C391.928 37.9912 391.965 37.9526 392.008 37.9224C392.516 37.5506 393.108 37.3081 393.73 37.2159C394.353 37.1237 394.989 37.1845 395.583 37.3932C395.68 37.4401 395.755 37.5221 395.793 37.6225C395.831 37.7229 395.829 37.834 395.788 37.9332C395.746 38.0284 395.668 38.1037 395.572 38.1438C395.476 38.1839 395.368 38.1858 395.27 38.1492C394.796 37.982 394.288 37.9339 393.79 38.0092C393.293 38.0846 392.822 38.281 392.419 38.5812C392.343 38.6337 392.251 38.659 392.159 38.6531C392.067 38.6472 391.98 38.6105 391.911 38.5488V38.5488Z" fill="#263238"/>
<path d="M402.085 39.7908L400.432 39.4992C400.432 39.4992 401.383 40.6872 402.085 39.7908Z" fill="#263238"/>
<path d="M398.704 49.7592C401.383 48.8066 404.157 48.144 406.977 47.7828C406.913 48.9782 406.416 50.1093 405.579 50.9656C404.743 51.8219 403.624 52.3451 402.43 52.4376C402.01 52.5071 401.58 52.4928 401.165 52.3957C400.749 52.2986 400.358 52.1205 400.011 51.8717C399.665 51.6229 399.372 51.3082 399.147 50.9457C398.923 50.5832 398.773 50.18 398.704 49.7592Z" fill="#263238"/>
<path d="M403.64 50.5476C402.406 50.6755 401.257 51.2382 400.4 52.1352C401.042 52.4761 401.783 52.583 402.495 52.4376C403.729 52.3097 404.878 51.747 405.735 50.85C405.094 50.5065 404.352 50.3994 403.64 50.5476V50.5476Z" fill="#FF5652"/>
<path d="M398.974 49.6512C399.07 49.889 399.227 50.0968 399.431 50.2526C399.634 50.4085 399.876 50.5066 400.13 50.5368C401.973 50.2309 403.781 49.7462 405.53 49.0896C405.826 49.0067 406.095 48.8456 406.308 48.6233C406.52 48.4011 406.67 48.1257 406.74 47.826C404.103 48.2084 401.505 48.8191 398.974 49.6512V49.6512Z" fill="white"/>
<path d="M362.006 142.758H329.854C328.485 142.731 327.173 142.205 326.164 141.278C325.156 140.351 324.521 139.087 324.379 137.725L322.543 116.708C322.474 116.068 322.542 115.42 322.742 114.808C322.942 114.196 323.27 113.634 323.704 113.158C324.138 112.682 324.668 112.304 325.259 112.048C325.85 111.793 326.489 111.666 327.133 111.676H359.284C360.654 111.702 361.966 112.229 362.975 113.156C363.983 114.083 364.618 115.346 364.76 116.708L366.596 137.725C366.667 138.366 366.6 139.014 366.401 139.627C366.201 140.24 365.873 140.803 365.439 141.279C365.005 141.756 364.474 142.134 363.882 142.389C363.29 142.644 362.65 142.77 362.006 142.758Z" fill="#0EBED9"/>
<path d="M360.861 142.758H328.71C327.34 142.731 326.028 142.205 325.019 141.278C324.011 140.351 323.376 139.087 323.234 137.725L321.398 116.708C321.329 116.068 321.397 115.42 321.597 114.808C321.797 114.196 322.125 113.634 322.559 113.158C322.993 112.682 323.523 112.304 324.114 112.048C324.705 111.793 325.344 111.666 325.988 111.676H358.14C359.509 111.702 360.821 112.229 361.83 113.156C362.838 114.083 363.473 115.346 363.615 116.708L365.451 137.725C365.522 138.366 365.455 139.014 365.256 139.627C365.056 140.24 364.728 140.803 364.294 141.279C363.86 141.756 363.329 142.134 362.737 142.389C362.145 142.644 361.506 142.77 360.861 142.758Z" fill="#263238"/>
<path opacity="0.7" d="M360.861 142.758H328.71C327.34 142.731 326.028 142.205 325.019 141.278C324.011 140.351 323.376 139.087 323.234 137.725L321.398 116.708C321.329 116.068 321.397 115.42 321.597 114.808C321.797 114.196 322.125 113.634 322.559 113.158C322.993 112.682 323.523 112.304 324.114 112.048C324.705 111.793 325.344 111.666 325.988 111.676H358.14C359.509 111.702 360.821 112.229 361.83 113.156C362.838 114.083 363.473 115.346 363.615 116.708L365.451 137.725C365.522 138.366 365.455 139.014 365.256 139.627C365.056 140.24 364.728 140.803 364.294 141.279C363.86 141.756 363.329 142.134 362.737 142.389C362.145 142.644 361.506 142.77 360.861 142.758Z" fill="white"/>
<path d="M345.72 128.675C345.767 129.103 345.723 129.536 345.59 129.945C345.457 130.355 345.238 130.731 344.947 131.049C344.657 131.367 344.302 131.62 343.906 131.789C343.51 131.959 343.083 132.042 342.652 132.034C341.739 132.017 340.862 131.666 340.19 131.047C339.517 130.428 339.094 129.584 339.002 128.675C338.954 128.246 338.999 127.812 339.132 127.401C339.266 126.991 339.486 126.614 339.778 126.296C340.07 125.978 340.426 125.726 340.823 125.557C341.22 125.388 341.649 125.306 342.08 125.316C342.992 125.335 343.866 125.687 344.536 126.306C345.207 126.925 345.628 127.767 345.72 128.675V128.675Z" fill="white"/>
<path d="M369.35 142.758H367.525V111.265C367.539 96.9026 372.566 82.9954 381.738 71.9424L390.572 61.3152L391.976 62.4816L383.12 73.1088C374.218 83.8327 369.34 97.3281 369.328 111.265L369.35 142.758Z" fill="#263238"/>
<path d="M392.84 63.3672C392.84 64.0614 392.634 64.74 392.249 65.3172C391.863 65.8944 391.315 66.3443 390.673 66.61C390.032 66.8757 389.326 66.9452 388.645 66.8097C387.964 66.6743 387.339 66.34 386.848 65.8491C386.357 65.3582 386.023 64.7328 385.888 64.0519C385.752 63.3711 385.822 62.6653 386.087 62.024C386.353 61.3826 386.803 60.8344 387.38 60.4487C387.957 60.063 388.636 59.8572 389.33 59.8572C390.261 59.8572 391.154 60.227 391.812 60.8852C392.47 61.5435 392.84 62.4363 392.84 63.3672V63.3672Z" fill="#263238"/>
<path d="M317.672 146.138H419.008L411.124 297.9H325.556L317.672 146.138Z" fill="#FFA945"/>
<path opacity="0.5" d="M317.672 146.138H419.008L411.124 297.9H325.556L317.672 146.138Z" fill="white"/>
<path opacity="0.1" d="M379.988 146.138H419.008L411.124 297.9H378.174L379.988 146.138Z" fill="black"/>
<path d="M334.131 288.288H369.242L369.383 159.336H328.85L334.131 288.288Z" fill="#FFA945"/>
<path d="M421.784 146.16H314.864C313.967 146.16 313.108 145.804 312.474 145.17C311.84 144.536 311.484 143.676 311.484 142.78V142.78C311.489 141.885 311.847 141.028 312.48 140.396C313.113 139.763 313.969 139.405 314.864 139.399H421.784C422.68 139.405 423.538 139.762 424.172 140.395C424.806 141.027 425.167 141.884 425.175 142.78V142.78C425.172 143.677 424.814 144.537 424.178 145.171C423.542 145.804 422.682 146.16 421.784 146.16V146.16Z" fill="#FFA945"/>
<path opacity="0.3" d="M421.784 146.16H377.191C376.293 146.16 375.432 145.804 374.797 145.171C374.161 144.537 373.802 143.677 373.8 142.78V142.78C373.808 141.884 374.168 141.027 374.803 140.395C375.437 139.762 376.295 139.405 377.191 139.399H421.784C422.68 139.405 423.537 139.762 424.172 140.395C424.806 141.027 425.167 141.884 425.175 142.78V142.78C425.172 143.677 424.814 144.537 424.178 145.171C423.542 145.804 422.681 146.16 421.784 146.16V146.16Z" fill="black"/>
<path d="M478.214 297.9H311.516V324.814H478.214V297.9Z" fill="#FFA945"/>
<path opacity="0.3" d="M478.214 298.04H391.792V324.814H478.214V298.04Z" fill="black"/>
<path d="M78.3441 134.14C78.2469 134.809 78.5277 135.403 78.9705 135.468C79.4133 135.533 79.8453 135.047 79.9317 134.388C80.0181 133.729 79.7481 133.114 79.3269 133.049C78.9057 132.984 78.4521 133.47 78.3441 134.14Z" fill="#263238"/>
<path d="M78.3548 134.809C78.8591 136.977 79.6547 139.066 80.72 141.019C80.2202 141.27 79.6727 141.411 79.114 141.434C78.5552 141.456 77.9982 141.359 77.48 141.149L78.3548 134.809Z" fill="#FFB573"/>
<path d="M76.508 130.079C76.5852 130.104 76.6685 130.104 76.7456 130.079C77.1841 129.831 77.6752 129.691 78.1785 129.67C78.6817 129.649 79.1827 129.749 79.64 129.96C79.7364 130.001 79.8449 130.004 79.9433 129.968C80.0417 129.932 80.1225 129.859 80.1692 129.766C80.2106 129.68 80.2192 129.582 80.1934 129.491C80.1675 129.399 80.1089 129.32 80.0288 129.269C79.4602 128.994 78.834 128.859 78.2026 128.876C77.5712 128.893 76.9531 129.061 76.4 129.366C76.3535 129.392 76.3126 129.427 76.2797 129.468C76.2469 129.51 76.2227 129.558 76.2086 129.61C76.1945 129.661 76.1908 129.714 76.1977 129.767C76.2046 129.82 76.222 129.871 76.2488 129.917C76.2821 129.967 76.325 130.01 76.3751 130.043C76.4251 130.077 76.4813 130.1 76.5404 130.111L76.508 130.079Z" fill="#263238"/>
<path d="M56.8413 139.529C58.0509 145.674 59.2497 156.938 54.9513 161.042C54.9513 161.042 56.6361 167.274 68.0625 167.274C80.6229 167.274 74.0673 161.042 74.0673 161.042C67.2093 159.401 68.3109 154.314 69.5097 149.54L56.8413 139.529Z" fill="#FFB573"/>
<path d="M56.1716 129.496C55.4912 137.812 54.6812 142.65 58.2344 147.478C63.5696 154.746 77.0048 153.212 78.83 143.341C79.5752 133.87 80.9144 124.981 73.322 120.499C71.6525 119.508 69.757 118.961 67.8161 118.91C65.8752 118.859 63.9536 119.306 62.2343 120.208C60.5149 121.109 59.0551 122.437 57.9939 124.062C56.9326 125.688 56.3053 127.559 56.1716 129.496V129.496Z" fill="#FFB573"/>
<path d="M77.6528 131.612C76.7193 133.15 75.485 134.483 74.024 135.533C73.2334 136.098 72.3373 136.498 71.3888 136.71C70.784 136.829 69.2288 136.246 69.11 136.786C67.5008 148.428 65.1896 148.817 65.1896 148.817C63.891 149.075 62.5517 149.048 61.2648 148.737C59.9778 148.425 58.7742 147.837 57.7376 147.013C55.6955 145.347 53.969 143.328 52.64 141.052C50.9415 138.63 49.6636 135.939 48.86 133.092C48.0553 130.216 48.404 127.14 49.832 124.517C50.5558 123.257 51.6335 122.238 52.9313 121.585C54.2291 120.932 55.69 120.675 57.1328 120.845C56.6898 120.481 56.1993 120.18 55.6748 119.948C54.4661 119.434 53.1491 119.227 51.8408 119.344C52.2562 118.905 52.7744 118.576 53.3486 118.387C53.9228 118.199 54.535 118.156 55.1298 118.263C55.7246 118.371 56.2833 118.624 56.7556 119.001C57.2278 119.378 57.5987 119.867 57.8348 120.424C60.2432 118.685 65.6864 116.395 70.6544 117.108C83.0852 118.912 79.4672 128.804 77.6528 131.612Z" fill="#263238"/>
<path d="M66.5073 137.401C67.1205 139.382 68.3645 141.107 70.0497 142.315C72.2853 143.87 73.8729 142.218 73.6461 139.745C73.4301 137.477 72.0261 134.032 69.5961 133.438C67.1661 132.844 65.8053 135.004 66.5073 137.401Z" fill="#FFB573"/>
<path d="M85.4073 192.978C84.7053 190.148 84.0681 187.297 83.4849 184.457C82.9017 181.616 82.4049 178.765 81.9297 175.817L93.8097 173.938C94.7817 179.338 96.9417 185.126 98.1297 190.505C99.3177 195.883 102.19 208.627 102.633 209.869C102.849 210.496 103.119 211.046 103.368 211.64L107.547 215.453L95.3433 218.833C95.0568 218.916 94.7509 218.902 94.4734 218.792C94.196 218.683 93.9626 218.485 93.8097 218.228C92.4813 215.939 88.9389 208.876 85.4073 192.978Z" fill="#FFB573"/>
<path d="M118.714 240.12L119.6 243.36L122.214 246.492L131.124 244.699C130.652 243.125 130.049 241.593 129.32 240.12C129.149 239.791 128.896 239.513 128.586 239.31L122.84 235.465L118.714 240.12Z" fill="#FFB573"/>
<path d="M125.691 248.954L132.279 247.55L131.059 244.721L122.17 246.535L125.691 248.954Z" fill="#FFB573"/>
<path d="M120.248 244.3C120.756 244.872 120.248 243.522 120.907 243.803C123.067 244.667 125.518 237.971 123.996 236.243C120.162 231.923 114.384 216.23 101.316 212.483C99.5794 212.058 97.7461 212.33 96.2072 213.239C95.4238 213.646 94.7734 214.27 94.3332 215.035C93.893 215.801 93.6813 216.677 93.7232 217.559C94.0148 220.248 114.34 237.593 120.248 244.3Z" fill="#FFB573"/>
<path d="M78.8301 168.84C75.2445 175.849 82.6101 199.598 82.6101 199.598L100.268 194.641C100.268 194.641 100.03 182.912 95.8509 173.786C91.0989 163.375 82.7721 161.28 78.8301 168.84Z" fill="#0EBED9"/>
<path d="M52.7372 190.116C52.0172 187.279 51.3764 184.435 50.8148 181.584C50.2316 178.711 49.7348 175.903 49.2488 172.944L61.1288 171.076C62.1116 176.476 64.2716 182.254 65.4488 187.643C66.626 193.032 69.4988 205.765 69.9524 206.996C70.1684 207.634 70.4384 208.174 70.6868 208.768L74.8556 212.58L62.6516 215.96C62.3667 216.044 62.0619 216.03 61.7859 215.921C61.5098 215.811 61.2785 215.612 61.1288 215.356C59.8112 213.12 56.2688 206.014 52.7372 190.116Z" fill="#FFB573"/>
<path d="M86.0337 237.193L86.8869 240.53L89.4897 243.662L98.4105 241.87C97.9597 240.278 97.3744 238.728 96.6609 237.236C96.4926 236.909 96.2435 236.63 95.9373 236.426L90.1485 232.56L86.0337 237.193Z" fill="#FFB573"/>
<path d="M93.0212 246.082L99.6092 244.678L98.378 241.859L89.4896 243.662L93.0212 246.082Z" fill="#FFB573"/>
<path d="M87.578 241.427C88.0748 241.999 87.578 240.649 88.2368 240.93C90.3968 241.794 92.8484 235.098 91.3256 233.37C87.4916 229.05 81.7136 213.368 68.6456 209.61C66.9089 209.197 65.0799 209.468 63.5372 210.366C62.752 210.771 62.1002 211.394 61.6597 212.161C61.2192 212.927 61.0086 213.803 61.0532 214.686C61.3448 217.44 81.6596 234.72 87.578 241.427Z" fill="#FFB573"/>
<path d="M52.2296 163.181C51.3224 161.204 50.3396 158.947 52.3808 158.245C54.638 157.468 66.9933 156.668 71.2485 158.126C71.8059 158.278 72.3279 158.538 72.7845 158.891C73.2412 159.245 73.6235 159.685 73.9096 160.187C74.1956 160.689 74.3796 161.242 74.4512 161.815C74.5227 162.388 74.4803 162.97 74.3265 163.526V163.613L52.2296 163.181Z" fill="#263238"/>
<path d="M88.6472 173.387C90.3428 182.027 86.3684 202.547 86.4116 236.027H41.4512C41.1488 229.255 46.0736 213.228 39.9608 181.303C38.3511 176.735 38.4935 171.732 40.3604 167.263C42.8012 160.783 49.454 161.291 53.8712 161.021C60.2376 160.643 66.6208 160.643 72.9872 161.021C75.5792 161.28 79.6832 162.889 82.2644 163.829C86.3036 165.287 87.8156 169.186 88.6472 173.387Z" fill="#0EBED9"/>
<path opacity="0.2" d="M76.7456 181.973C77.9228 189.068 82.5668 198.454 87.2108 203.951C87.3944 199.922 87.794 195.71 87.7832 192.481L76.7456 181.973Z" fill="black"/>
<path d="M78.8301 168.84C75.2445 175.849 82.6101 199.598 82.6101 199.598L100.268 194.641C100.268 194.641 100.03 182.912 95.8509 173.786C91.0989 163.375 82.7721 161.28 78.8301 168.84Z" fill="#0EBED9"/>
<path d="M125.572 337.126H133.975L135.886 317.653H127.484L125.572 337.126Z" fill="#FFB573"/>
<path opacity="0.2" d="M135.757 318.841L134.785 328.874H126.372L127.354 318.841H135.757Z" fill="black"/>
<path d="M92.4272 337.126H100.83L105.052 317.653H96.6501L92.4272 337.126Z" fill="#FFB573"/>
<g opacity="0.2">
<path opacity="0.2" d="M96.4664 318.69H104.869L102.687 328.723H94.2848L96.4664 318.69Z" fill="black"/>
</g>
<path d="M134.45 333.346H125.281C125.091 333.368 124.915 333.455 124.783 333.593C124.651 333.731 124.571 333.911 124.557 334.102L122.894 343.724C122.8 344.097 122.84 344.491 123.005 344.838C123.171 345.185 123.452 345.463 123.801 345.625C123.902 345.636 124.003 345.636 124.104 345.625C127.408 345.55 132.193 345.301 136.351 345.301C141.222 345.301 145.423 345.636 151.125 345.636C154.581 345.636 155.542 341.122 154.095 340.711C147.518 338.854 142.15 338.659 136.47 334.112C135.9 333.64 135.19 333.37 134.45 333.346V333.346Z" fill="#263238"/>
<path d="M141.124 336.478C142.204 336.478 143.284 336.326 143.598 335.84C143.687 335.712 143.735 335.559 143.735 335.403C143.735 335.247 143.687 335.094 143.598 334.966C143.454 334.738 143.231 334.573 142.971 334.501C141.567 334.123 138.651 335.797 138.511 335.873C138.473 335.89 138.442 335.92 138.424 335.957C138.406 335.995 138.402 336.038 138.414 336.078C138.423 336.116 138.442 336.15 138.468 336.179C138.495 336.207 138.528 336.228 138.565 336.24C139.41 336.389 140.266 336.469 141.124 336.478V336.478ZM142.464 334.847C142.589 334.825 142.717 334.825 142.842 334.847C142.923 334.861 143.001 334.894 143.068 334.943C143.136 334.991 143.191 335.055 143.23 335.128C143.371 335.376 143.328 335.495 143.23 335.56C142.842 336.11 140.714 336.121 139.148 335.894C140.175 335.333 141.301 334.978 142.464 334.847V334.847Z" fill="#0EBED9"/>
<path d="M138.586 336.24H138.673C139.688 335.786 141.697 333.972 141.535 333C141.535 332.773 141.34 332.503 140.8 332.438C140.607 332.422 140.411 332.444 140.226 332.503C140.04 332.562 139.869 332.658 139.72 332.784C138.641 333.659 138.424 335.927 138.414 336.024C138.41 336.059 138.415 336.094 138.428 336.126C138.441 336.158 138.462 336.186 138.489 336.208L138.586 336.24ZM140.638 332.838H140.757C141.114 332.838 141.135 333.022 141.146 333.065C141.243 333.637 139.872 335.063 138.835 335.678C138.921 334.728 139.298 333.826 139.915 333.097C140.116 332.925 140.374 332.833 140.638 332.838V332.838Z" fill="#0EBED9"/>
<path d="M101.424 333.346H91.9844C91.7974 333.372 91.625 333.461 91.4954 333.599C91.3659 333.736 91.287 333.913 91.2716 334.102L89.6084 343.724C89.5187 344.104 89.566 344.503 89.7419 344.85C89.9178 345.198 90.211 345.473 90.5696 345.625C90.659 345.641 90.7503 345.641 90.8396 345.625C94.0796 345.55 95.7428 345.301 99.89 345.301C102.45 345.301 105.722 345.636 109.254 345.636C112.785 345.636 113.239 341.122 111.792 340.711C105.312 338.886 104.869 336.391 102.795 333.94C102.623 333.748 102.411 333.595 102.174 333.493C101.938 333.39 101.682 333.34 101.424 333.346V333.346Z" fill="#263238"/>
<path d="M106.359 337.547C106.716 337.593 107.078 337.569 107.424 337.474C107.771 337.38 108.096 337.217 108.379 336.996C108.478 336.859 108.531 336.695 108.531 336.526C108.531 336.357 108.478 336.193 108.379 336.056C108.315 335.938 108.226 335.835 108.117 335.754C108.009 335.674 107.885 335.619 107.752 335.592C106.521 335.3 104.199 336.888 104.102 336.953C104.07 336.976 104.046 337.007 104.03 337.043C104.015 337.08 104.01 337.119 104.016 337.158C104.026 337.194 104.045 337.227 104.071 337.254C104.098 337.28 104.131 337.299 104.167 337.309C104.888 337.464 105.622 337.543 106.359 337.547V337.547ZM107.439 335.948H107.72C107.798 335.959 107.871 335.988 107.935 336.033C107.999 336.078 108.051 336.138 108.087 336.208C108.271 336.542 108.163 336.672 108.087 336.726C107.731 337.19 106.014 337.201 104.75 336.996C105.56 336.435 106.487 336.065 107.461 335.916L107.439 335.948Z" fill="#0EBED9"/>
<path d="M104.221 337.32H104.307C105.182 336.845 106.867 335.009 106.683 334.08C106.658 333.93 106.579 333.795 106.462 333.698C106.346 333.601 106.198 333.549 106.046 333.551C105.895 333.532 105.742 333.546 105.597 333.591C105.452 333.635 105.318 333.71 105.204 333.81C104.232 334.609 104.026 337.05 104.016 337.136C104.015 337.173 104.024 337.209 104.041 337.241C104.058 337.273 104.083 337.3 104.113 337.32H104.221ZM105.916 333.918H106.003C106.262 333.918 106.284 334.069 106.294 334.123C106.402 334.674 105.322 336.067 104.458 336.726C104.522 335.769 104.867 334.852 105.452 334.091C105.582 333.98 105.746 333.919 105.916 333.918V333.918Z" fill="#0EBED9"/>
<path d="M72.9333 236.016C72.9333 236.016 112.731 252.443 120.95 265.079C117.907 284.796 113.516 304.282 107.806 323.399H92.8377C92.8614 307.567 94.158 291.762 96.7148 276.138C97.6652 259.193 27.7029 287.856 41.4297 235.984L72.9333 236.016Z" fill="#263238"/>
<path d="M86.4116 236.016C86.4116 236.016 123.196 240.757 143.468 252.302C143.468 252.302 149.192 255.002 149.203 264.442C148.761 284.614 144.882 304.563 137.733 323.431H125.248C125.248 323.431 125.886 303.052 125.464 270.166C125.335 260.305 104.944 267.412 85.5044 266.267C77.2676 265.749 69.3395 262.939 62.6146 258.155C55.8896 253.371 50.6356 246.803 47.4452 239.191L46.1168 236.016H86.4116Z" fill="#263238"/>
<path d="M72.9333 236.016C72.9333 236.016 112.731 252.443 120.95 265.079C117.907 284.796 113.516 304.282 107.806 323.399H92.8377C92.8614 307.567 94.158 291.762 96.7148 276.138C97.6652 259.193 27.7029 287.856 41.4297 235.984L72.9333 236.016Z" fill="#263238"/>
<path d="M86.4116 236.016C86.4116 236.016 123.196 240.757 143.468 252.302C143.468 252.302 149.192 255.002 149.203 264.442C148.761 284.614 144.882 304.563 137.733 323.431H125.248C125.248 323.431 125.886 303.052 125.464 270.166C125.335 260.305 104.944 267.412 85.5044 266.267C77.2676 265.749 69.3395 262.939 62.6146 258.155C55.8896 253.371 50.6356 246.803 47.4452 239.191L46.1168 236.016H86.4116Z" fill="#263238"/>
<path d="M44.2268 269.658H40.1012V350.453H44.2268V269.658Z" fill="#0EBED9"/>
<path d="M76.7024 269.658H72.5768V350.453H76.7024V269.658Z" fill="#0EBED9"/>
<path d="M101.953 269.658H97.8271V350.453H101.953V269.658Z" fill="#0EBED9"/>
<path opacity="0.4" d="M101.953 269.658H97.8271V350.453H101.953V269.658Z" fill="black"/>
<path d="M69.4772 269.658H65.3516V350.453H69.4772V269.658Z" fill="#0EBED9"/>
<path opacity="0.4" d="M69.4772 269.658H65.3516V350.453H69.4772V269.658Z" fill="black"/>
<path d="M43.244 204.523H39.2804V265.684H43.244V204.523Z" fill="#0EBED9"/>
<path opacity="0.8" d="M43.244 204.523H39.2804V265.684H43.244V204.523Z" fill="white"/>
<path d="M76.6159 204.523H72.6523V265.684H76.6159V204.523Z" fill="#0EBED9"/>
<path opacity="0.8" d="M76.6159 204.523H72.6523V265.684H76.6159V204.523Z" fill="white"/>
<path d="M78.56 183.787H39.1292C36.63 183.787 34.604 185.813 34.604 188.312V202.46C34.604 204.96 36.63 206.986 39.1292 206.986H78.56C81.0592 206.986 83.0852 204.96 83.0852 202.46V188.312C83.0852 185.813 81.0592 183.787 78.56 183.787Z" fill="#0EBED9"/>
<path opacity="0.8" d="M78.56 183.787H39.1292C36.63 183.787 34.604 185.813 34.604 188.312V202.46C34.604 204.96 36.63 206.986 39.1292 206.986H78.56C81.0592 206.986 83.0852 204.96 83.0852 202.46V188.312C83.0852 185.813 81.0592 183.787 78.56 183.787Z" fill="white"/>
<path d="M106.294 269.658H36.0944C36.0944 267.533 36.9387 265.494 38.4415 263.992C39.9444 262.489 41.9827 261.644 44.108 261.644H98.2808C100.406 261.644 102.444 262.489 103.947 263.992C105.45 265.494 106.294 267.533 106.294 269.658Z" fill="#0EBED9"/>
<path opacity="0.7" d="M106.294 269.658H36.0944C36.0944 267.533 36.9387 265.494 38.4415 263.992C39.9444 262.489 41.9827 261.644 44.108 261.644H98.2808C100.406 261.644 102.444 262.489 103.947 263.992C105.45 265.494 106.294 267.533 106.294 269.658Z" fill="white"/>
<path d="M114.2 190.958L112.116 206.284C111.457 211.392 110.776 216.5 110.28 221.522L110.118 223.391L110.042 224.33C110.064 224.176 110.064 224.02 110.042 223.866C110.023 223.718 109.986 223.573 109.934 223.434C109.876 223.245 109.789 223.066 109.675 222.905C109.513 222.7 109.491 222.732 109.534 222.775C109.631 222.871 109.736 222.957 109.848 223.034C110.232 223.299 110.636 223.534 111.057 223.736C113.23 224.729 115.471 225.562 117.764 226.231C122.559 227.722 127.592 228.931 132.56 230.173L131.998 234.493C126.685 234.319 121.391 233.771 116.155 232.852C113.379 232.386 110.653 231.663 108.012 230.692C107.234 230.387 106.48 230.026 105.754 229.612C105.308 229.356 104.882 229.067 104.48 228.748C103.918 228.303 103.423 227.779 103.011 227.192C102.727 226.753 102.495 226.282 102.32 225.788C102.233 225.49 102.161 225.187 102.104 224.881C102.082 224.568 102.082 224.254 102.104 223.942V220.907C102.32 215.572 102.806 210.355 103.368 205.15C103.929 199.944 104.588 194.771 105.409 189.587L114.2 190.958Z" fill="#FFC3BD"/>
<path d="M144.019 234.774L140.66 237.841C140.279 238.191 139.801 238.419 139.288 238.494C138.776 238.569 138.253 238.488 137.787 238.262L134.083 236.48C134.083 236.48 128.596 236.254 127.808 232.895L129.234 230.292L137.733 229.342C138.611 229.242 139.497 229.44 140.25 229.903L143.749 232.063C143.941 232.181 144.108 232.336 144.241 232.519C144.373 232.702 144.468 232.91 144.52 233.129C144.572 233.349 144.581 233.577 144.545 233.8C144.509 234.023 144.429 234.236 144.31 234.428C144.225 234.553 144.127 234.669 144.019 234.774V234.774Z" fill="#FFC3BD"/>
<path d="M123.92 159.466C124.784 164.725 125.518 174.337 121.76 177.707C127.685 181.009 132.863 185.503 136.966 190.904C143.446 185.807 138.046 178.193 138.046 178.193C132.258 176.627 132.538 172.307 133.672 168.278L123.92 159.466Z" fill="#FFC3BD"/>
<path d="M111.414 179.078C104.793 181.238 103.368 190.105 103.962 197.006L117.321 205.225C117.321 205.225 120.561 195.149 120.561 189.76C120.507 184.025 115.906 177.62 111.414 179.078Z" fill="#263238"/>
<path d="M145.326 186.12L152.184 195.775C153.104 197.022 153.687 198.486 153.876 200.024C154.065 201.562 153.854 203.123 153.264 204.556C152.741 205.818 151.834 206.883 150.67 207.599C149.506 208.315 148.146 208.644 146.784 208.541C138.208 208.508 145.326 186.12 145.326 186.12Z" fill="#263238"/>
<path d="M152.302 192.438C148.231 203.627 143.522 212.774 147.064 233.921L111.295 232.841C112.234 219.632 110.82 209.794 107.58 186.682C107.316 184.697 107.85 182.689 109.064 181.097C110.279 179.506 112.076 178.461 114.06 178.193C116.201 177.371 118.442 176.837 120.723 176.605C126.128 176.378 131.542 176.54 136.923 177.091C138.694 177.307 155.542 179.78 152.302 192.438Z" fill="#263238"/>
<path d="M140.476 148.849C140.692 149.53 141.232 149.929 141.675 149.821C142.118 149.713 142.302 149.011 142.086 148.342C141.87 147.672 141.33 147.262 140.887 147.37C140.444 147.478 140.239 148.18 140.476 148.849Z" fill="#263238"/>
<path d="M140.703 147.467L142.172 146.473C142.172 146.473 141.751 148.018 140.703 147.467Z" fill="#263238"/>
<path d="M140.93 149.875C142.03 151.224 143.309 152.416 144.732 153.418C144.467 153.777 144.127 154.074 143.735 154.286C143.343 154.499 142.909 154.623 142.464 154.649L140.93 149.875Z" fill="#FFC3BD"/>
<path d="M139.375 142.758C139.412 142.696 139.432 142.625 139.432 142.553C139.432 142.481 139.412 142.41 139.375 142.348C139.343 142.303 139.302 142.265 139.255 142.236C139.208 142.208 139.156 142.189 139.102 142.181C139.047 142.173 138.992 142.176 138.938 142.19C138.885 142.203 138.835 142.228 138.792 142.261C138.247 142.641 137.803 143.147 137.496 143.735C137.19 144.324 137.03 144.978 137.031 145.642C137.037 145.747 137.082 145.846 137.159 145.918C137.235 145.99 137.336 146.031 137.442 146.03V146.03C137.496 146.029 137.549 146.017 137.598 145.995C137.647 145.973 137.692 145.942 137.729 145.903C137.766 145.863 137.795 145.817 137.814 145.767C137.833 145.717 137.843 145.663 137.841 145.609C137.846 145.084 137.978 144.568 138.226 144.105C138.475 143.642 138.832 143.247 139.267 142.952C139.325 142.902 139.363 142.834 139.375 142.758V142.758Z" fill="#263238"/>
<path d="M116.554 153.353C119.794 161.496 120.874 165.006 126.49 167.922C134.871 172.307 144.17 166.604 143.479 157.673C142.863 149.638 137.755 137.671 128.553 136.98C126.521 136.805 124.479 137.156 122.622 137.999C120.766 138.842 119.157 140.149 117.952 141.794C116.746 143.439 115.985 145.366 115.74 147.39C115.495 149.415 115.776 151.468 116.554 153.353Z" fill="#FFC3BD"/>
<path d="M136.113 151.474C137.301 151.128 139.137 149.314 137.96 145.706C137.333 143.636 137.333 141.426 137.96 139.356C138.446 137.65 137.517 135.306 133.294 133.697C126.274 131.008 118.617 132.314 113.973 138.751C113.973 138.751 99.1664 143.125 111.23 158.364C123.294 173.603 138.586 167.393 136.113 151.474Z" fill="#263238"/>
<path d="M141.2 166.41C139.017 166.396 136.861 165.925 134.871 165.028C137.193 166.453 139.958 169.672 140.401 172.35C136.477 169.311 131.751 167.487 126.804 167.101C121.717 167.101 119.082 170.039 115.215 173.354C116.079 171.389 116.932 169.423 117.796 167.468C116.145 168.396 114.36 169.063 112.504 169.445C114.222 168.073 114.492 165.492 113.833 163.397C113.001 161.363 111.885 159.458 110.517 157.738C109.136 156.011 108.341 153.888 108.249 151.679C108.339 150.614 108.642 149.578 109.139 148.632C109.636 147.686 110.318 146.849 111.144 146.171C112.797 144.812 114.651 143.719 116.641 142.931C119.384 141.7 122.268 140.544 125.281 140.598C127.112 140.643 128.907 141.127 130.512 142.011C132.117 142.894 133.486 144.15 134.504 145.674C135.575 147.317 136.197 149.213 136.308 151.171C136.426 153.04 135.66 154.8 135.789 156.571C136.223 160.437 138.168 163.973 141.2 166.41V166.41Z" fill="#263238"/>
<path d="M132.614 153.158C133.439 154.778 134.872 156.005 136.599 156.571C138.889 157.295 140.12 155.264 139.548 153.061C139.04 151.074 137.236 148.298 134.904 148.536C134.503 148.583 134.115 148.708 133.763 148.905C133.41 149.102 133.1 149.367 132.851 149.684C132.601 150.001 132.416 150.364 132.307 150.753C132.198 151.142 132.166 151.548 132.214 151.949C132.259 152.376 132.395 152.789 132.614 153.158V153.158Z" fill="#FFC3BD"/>
<path d="M190.491 332.363L198.937 331.564L193.245 310.763L184.8 311.562L190.491 332.363Z" fill="#FFC3BD"/>
<path d="M210.32 337.255C205.158 335.732 205.32 333.464 200.168 329.274C199.654 328.809 199.009 328.514 198.321 328.432L189.919 327.848C189.756 327.849 189.599 327.909 189.476 328.016C189.353 328.123 189.272 328.27 189.249 328.432L188.061 334.253C187.651 336.272 188.893 338.206 190.642 338.27C193.44 338.378 196.874 338.486 199.93 338.692C204.391 339.005 204.445 341.262 209.65 341.014C212.858 340.862 212.08 337.774 210.32 337.255Z" fill="#263238"/>
<path d="M221.919 305.6L227.643 300.632L218.064 286.085L210.903 292.867L221.919 305.6Z" fill="#FFC3BD"/>
<path d="M226.11 297.554L219.284 303.84C219.154 303.963 219.071 304.127 219.049 304.305C219.028 304.482 219.069 304.662 219.165 304.812L222.405 309.823C222.926 310.554 223.715 311.048 224.6 311.198C225.485 311.347 226.392 311.141 227.125 310.622L227.438 310.363C229.674 308.635 230.937 305.6 233.583 303.116C237.439 299.509 238.13 299.606 240.517 294.563C242.137 291.172 238.605 291.161 237.363 292.208C234.242 294.865 235.473 294.973 228.205 296.528C227.424 296.668 226.698 297.023 226.11 297.554V297.554Z" fill="#263238"/>
<path d="M134.59 233.305C134.59 233.305 192.5 224.73 198.494 239.58C208.927 265.403 224.025 294.498 224.025 294.498L217.221 300.74C217.221 300.74 191.301 277.51 182.316 251.557C171.591 255.035 137.452 266.202 124.946 266.202C111.597 266.202 106.143 254.819 110.971 235.962C111.179 235.14 111.658 234.412 112.329 233.895C113.001 233.378 113.827 233.102 114.675 233.111C123.078 233.111 134.59 233.305 134.59 233.305Z" fill="#8383AD"/>
<path d="M140.12 240.844C140.12 240.844 187.64 239.407 188.05 256.244C188.709 284.098 197.252 323.928 197.252 323.928L187.888 324.803C187.888 324.803 173.719 293.04 169.993 265.813C153.058 266.893 137.452 266.159 124.946 266.159C110.906 266.159 109.826 250.769 123.423 232.819C131.761 232.862 140.12 240.844 140.12 240.844Z" fill="#07085B"/>
<path opacity="0.5" d="M140.12 240.844C140.12 240.844 187.64 239.407 188.05 256.244C188.709 284.098 197.252 323.928 197.252 323.928L187.888 324.803C187.888 324.803 173.719 293.04 169.993 265.813C153.058 266.893 137.452 266.159 124.946 266.159C110.906 266.159 109.826 250.769 123.423 232.819C131.761 232.862 140.12 240.844 140.12 240.844Z" fill="white"/>
<path d="M110.83 230.746L109.815 233.921C109.686 234.169 109.966 234.428 110.388 234.439L147.194 235.519C147.518 235.519 147.788 235.379 147.82 235.184L148.231 231.944C148.231 231.728 147.993 231.523 147.637 231.512L111.414 230.432C111.296 230.422 111.179 230.447 111.075 230.502C110.972 230.558 110.887 230.642 110.83 230.746V230.746Z" fill="#0EBED9"/>
<path d="M115.572 234.936H114.6C114.405 234.936 114.265 234.828 114.276 234.698L114.859 230.551C114.859 230.432 115.042 230.335 115.237 230.346H116.209C116.403 230.346 116.544 230.454 116.533 230.573L115.95 234.72C115.939 234.85 115.766 234.947 115.572 234.936Z" fill="#263238"/>
<path d="M144.44 235.8H143.468C143.274 235.8 143.133 235.692 143.144 235.573L143.727 231.426C143.727 231.307 143.911 231.21 144.105 231.21H145.077C145.272 231.21 145.412 231.318 145.401 231.448L144.818 235.584C144.829 235.714 144.656 235.8 144.44 235.8Z" fill="#263238"/>
<path d="M130.011 235.368H129.05C128.856 235.368 128.704 235.26 128.726 235.141L129.298 230.994C129.298 230.875 129.493 230.778 129.687 230.789H130.659C130.854 230.789 130.994 230.908 130.972 231.026L130.4 235.174C130.4 235.282 130.206 235.379 130.011 235.368Z" fill="#263238"/>
<path d="M150.531 196.682C150.369 197.438 150.164 198.443 149.991 199.328C149.818 200.214 149.656 201.175 149.516 202.104C149.235 203.962 148.998 216.63 149.343 218.304L149.397 218.617V218.509C149.375 218.445 149.346 218.384 149.311 218.326C149.264 218.209 149.206 218.097 149.138 217.991C148.969 217.71 148.736 217.473 148.458 217.3C148.188 217.192 148.339 217.3 148.555 217.3C149.268 217.516 166.915 229.18 168.643 232.938L165.9 236.362C164.182 238.381 144.904 224.352 144.073 223.844C143.378 223.389 142.785 222.793 142.334 222.095C142.204 221.883 142.089 221.663 141.988 221.436L141.848 221.069L141.74 220.788L141.632 220.367C140.39 216.047 139.785 194.598 140.098 193.442L150.531 196.682Z" fill="#FFC3BD"/>
<path d="M152.065 187.405C153.145 194.512 150.002 202.99 150.002 202.99L138.889 201.532C138.889 201.532 134.968 186.822 138.522 183.485C139.148 181.044 141.481 179.165 145.088 179.932C146.871 180.325 148.492 181.25 149.738 182.584C150.984 183.919 151.795 185.6 152.065 187.405V187.405Z" fill="#263238"/>
<path d="M181.624 236.264L178.622 233.942C177.861 233.356 176.926 233.041 175.965 233.046H167.52L162.346 233.521C162.346 236.966 171.634 239.753 171.634 239.753L175.533 242.226C175.846 242.42 176.209 242.517 176.576 242.503C176.944 242.49 177.299 242.367 177.596 242.15L181.56 239.31C181.961 239.031 182.237 238.604 182.326 238.122C182.415 237.641 182.31 237.144 182.035 236.74C181.925 236.56 181.786 236.399 181.624 236.264V236.264Z" fill="#FFC3BD"/>
<path d="M111.252 273.794H107.126V354.967H111.252V273.794Z" fill="#0EBED9"/>
<path d="M143.727 273.794H139.602V354.967H143.727V273.794Z" fill="#0EBED9"/>
<path d="M168.988 273.794H164.863V354.967H168.988V273.794Z" fill="#0EBED9"/>
<path opacity="0.4" d="M168.988 273.794H164.863V354.967H168.988V273.794Z" fill="black"/>
<path d="M136.513 273.794H132.387V354.967H136.513V273.794Z" fill="#0EBED9"/>
<path opacity="0.4" d="M136.513 273.794H132.387V354.967H136.513V273.794Z" fill="black"/>
<path d="M110.28 208.66H106.316V269.82H110.28V208.66Z" fill="#0EBED9"/>
<path opacity="0.8" d="M110.28 208.66H106.316V269.82H110.28V208.66Z" fill="white"/>
<path d="M143.652 208.66H139.688V269.82H143.652V208.66Z" fill="#0EBED9"/>
<path opacity="0.8" d="M143.652 208.66H139.688V269.82H143.652V208.66Z" fill="white"/>
<path d="M145.585 187.924H106.154C103.655 187.924 101.629 189.95 101.629 192.449V206.597C101.629 209.096 103.655 211.122 106.154 211.122H145.585C148.084 211.122 150.11 209.096 150.11 206.597V192.449C150.11 189.95 148.084 187.924 145.585 187.924Z" fill="#0EBED9"/>
<path opacity="0.8" d="M145.585 187.924H106.154C103.655 187.924 101.629 189.95 101.629 192.449V206.597C101.629 209.096 103.655 211.122 106.154 211.122H145.585C148.084 211.122 150.11 209.096 150.11 206.597V192.449C150.11 189.95 148.084 187.924 145.585 187.924Z" fill="white"/>
<path d="M173.319 273.794H103.119C103.119 271.669 103.963 269.631 105.466 268.128C106.969 266.625 109.007 265.781 111.133 265.781H165.306C167.431 265.781 169.469 266.625 170.972 268.128C172.475 269.631 173.319 271.669 173.319 273.794Z" fill="#0EBED9"/>
<path opacity="0.7" d="M173.319 273.794H103.119C103.119 271.669 103.963 269.631 105.466 268.128C106.969 266.625 109.007 265.781 111.133 265.781H165.306C167.431 265.781 169.469 266.625 170.972 268.128C172.475 269.631 173.319 271.669 173.319 273.794Z" fill="white"/>
<path d="M265.292 239.105L270.692 244.008L266.826 252.238C265.389 251.421 264.024 250.485 262.743 249.44C262.463 249.196 262.251 248.884 262.128 248.533L259.795 241.999L265.292 239.105Z" fill="#FFB573"/>
<path d="M272.258 248.004L269.32 254.074L266.869 252.205L270.746 244.008L272.258 248.004Z" fill="#FFB573"/>
<path d="M218.463 199.372C217.333 196.672 216.253 193.961 215.223 191.239C214.208 188.485 213.236 185.839 212.34 182.923L223.777 179.24C225.57 184.381 228.604 189.803 230.635 194.933C232.665 200.063 237.439 212.213 238.076 213.358C238.389 213.952 238.746 214.438 239.07 214.999L243.789 218.12L233.767 225.551C233.767 225.551 225.796 221.263 218.463 199.372Z" fill="#FFB573"/>
<path d="M260.832 244.678C261.415 245.164 268.932 242.356 263.715 237.053C260.173 233.456 250.701 217.861 237.212 216.187C235.434 216.045 233.67 216.594 232.287 217.721C231.58 218.242 231.036 218.953 230.719 219.771C230.401 220.59 230.323 221.482 230.494 222.343C231.196 225 253.952 238.964 260.832 244.678Z" fill="#FFB573"/>
<path d="M266.21 351.846L273.111 348.973L270.206 330.138L260.216 332.838L266.21 351.846Z" fill="#FFB573"/>
<path opacity="0.2" d="M259.309 330.289L269.547 325.753L271.102 335.981L261.955 338.357L259.309 330.289Z" fill="black"/>
<path d="M207.609 239.926C207.609 239.926 261.199 238.846 262.322 262.033C263.24 281.041 266.307 300.632 271.308 331.78L258.013 333.94C258.013 333.94 239.588 289.411 239.48 270.976C224.5 272.542 189.735 278.978 181.009 262.336C178.037 256.514 177.036 249.885 178.158 243.446L207.609 239.926Z" fill="#6FA926"/>
<path d="M256.166 336.726L273.316 331.898L272.215 324.209L254.557 330.127L256.166 336.726Z" fill="#263238"/>
<path d="M273.576 345.712L264.828 348.412C264.67 348.468 264.54 348.582 264.462 348.729C264.384 348.877 264.364 349.049 264.406 349.211L266.026 357.57C266.061 357.768 266.135 357.957 266.244 358.126C266.353 358.295 266.495 358.441 266.661 358.555C266.827 358.668 267.014 358.748 267.211 358.788C267.408 358.829 267.611 358.829 267.808 358.79C270.832 357.786 272.247 357.138 276.081 355.95C278.446 355.216 283.846 353.477 287.173 352.71C290.499 351.943 289.668 348.098 288.199 348.044C281.578 347.872 277.755 347.213 275.055 345.884C274.602 345.641 274.073 345.58 273.576 345.712V345.712Z" fill="#263238"/>
<path d="M279.094 346.014C279.189 345.85 279.239 345.664 279.239 345.474C279.239 345.284 279.189 345.098 279.094 344.934C279.043 344.823 278.963 344.729 278.862 344.66C278.761 344.591 278.644 344.552 278.522 344.545C277.442 344.437 275.671 346.543 275.476 346.792C275.458 346.823 275.449 346.858 275.449 346.894C275.449 346.93 275.458 346.966 275.476 346.997C275.491 347.027 275.514 347.052 275.543 347.07C275.572 347.087 275.605 347.095 275.638 347.094C276.367 347.076 277.091 346.978 277.798 346.802C278.311 346.705 278.772 346.425 279.094 346.014V346.014ZM278.414 344.934C278.472 344.943 278.528 344.967 278.575 345.003C278.622 345.038 278.66 345.085 278.684 345.139C278.755 345.236 278.798 345.351 278.81 345.471C278.821 345.59 278.8 345.711 278.749 345.82C278.49 346.284 277.474 346.565 275.995 346.716C276.751 345.884 277.863 344.88 278.414 344.88V344.934Z" fill="black"/>
<path d="M275.703 347.04C276.351 346.36 277.064 344.416 276.654 343.606C276.577 343.464 276.457 343.352 276.31 343.285C276.164 343.219 276 343.203 275.844 343.238C275.697 343.255 275.556 343.306 275.434 343.389C275.311 343.472 275.211 343.583 275.142 343.714C274.558 344.686 275.379 346.878 275.379 346.954C275.395 346.984 275.416 347.011 275.442 347.034C275.468 347.056 275.498 347.073 275.53 347.083H275.606C275.643 347.082 275.678 347.067 275.703 347.04V347.04ZM275.898 343.616C276.178 343.616 276.297 343.681 276.308 343.778C276.445 344.745 276.205 345.727 275.638 346.522C275.298 345.693 275.233 344.776 275.455 343.908C275.49 343.841 275.539 343.783 275.599 343.736C275.658 343.69 275.727 343.656 275.8 343.638L275.898 343.616Z" fill="black"/>
<path d="M300.381 351.414L307.39 347.342L301.504 327.319L291.655 331.585L300.381 351.414Z" fill="#FFB573"/>
<path opacity="0.2" d="M290.672 329.501L300.565 324.306L303.211 333.14L294.538 338.152L290.672 329.501Z" fill="black"/>
<path d="M223.42 238.262C223.734 238.262 264.59 238.694 281.74 257.476C284.586 260.654 286.611 264.48 287.637 268.621C296.601 304.207 302.952 328.453 302.952 328.453L291.86 335.484C291.86 335.484 267.139 296.345 264.73 270.425C247.947 267.466 206.637 279.745 200.233 266.764C194.995 256.147 195.654 241.189 195.654 241.189L223.42 238.262Z" fill="#6FA926"/>
<path d="M290.121 337.363L305.058 328.648L303.124 322.362L287.184 329.814L290.121 337.363Z" fill="#263238"/>
<path d="M306.019 341.316L297.26 344.113C297.1 344.188 296.972 344.317 296.897 344.476C296.822 344.636 296.805 344.817 296.85 344.988L298.524 354.2C298.75 355.194 299.55 355.799 300.306 355.572C303.33 354.492 304.734 353.833 308.568 352.613C310.933 351.857 317.348 349.567 320.577 348.358C323.806 347.148 322.618 342.958 321.096 343.12C314.529 343.714 310.166 343.12 307.444 341.521C307.233 341.391 306.998 341.306 306.753 341.271C306.508 341.236 306.258 341.251 306.019 341.316Z" fill="#263238"/>
<path d="M311.505 343.109C311.672 343.025 311.815 342.9 311.919 342.744C312.023 342.589 312.085 342.41 312.099 342.223C312.119 342.106 312.11 341.985 312.072 341.872C312.035 341.759 311.97 341.657 311.883 341.575C311.084 340.852 308.395 341.5 308.082 341.575C308.049 341.586 308.02 341.605 307.995 341.629C307.971 341.654 307.952 341.683 307.941 341.716C307.935 341.753 307.94 341.791 307.955 341.826C307.971 341.86 307.996 341.889 308.028 341.91C308.61 342.321 309.237 342.665 309.896 342.936C310.39 343.2 310.967 343.262 311.505 343.109ZM311.57 341.824C311.612 341.863 311.643 341.913 311.66 341.967C311.677 342.022 311.679 342.081 311.667 342.137C311.669 342.258 311.637 342.377 311.576 342.481C311.516 342.586 311.428 342.672 311.322 342.731C310.825 342.947 309.82 342.601 308.568 341.824C309.68 341.64 311.149 341.478 311.57 341.824Z" fill="black"/>
<path d="M308.114 341.932C309.043 341.77 310.782 340.625 310.911 339.772C310.936 339.612 310.907 339.45 310.829 339.309C310.751 339.168 310.627 339.057 310.479 338.994C310.349 338.928 310.204 338.893 310.058 338.893C309.912 338.893 309.767 338.928 309.637 338.994C308.557 339.437 307.952 341.705 307.909 341.78C307.892 341.806 307.884 341.836 307.884 341.867C307.884 341.897 307.892 341.927 307.909 341.953H307.995L308.114 341.932ZM310.274 339.275C310.522 339.404 310.555 339.566 310.512 339.653C310.047 340.509 309.275 341.157 308.352 341.467C308.58 340.596 309.074 339.819 309.766 339.242C309.836 339.21 309.911 339.194 309.988 339.194C310.064 339.194 310.14 339.21 310.209 339.242L310.274 339.275Z" fill="black"/>
<path d="M191.442 144.94L196.485 149.67L204.045 156.042C203.937 156.409 203.797 156.884 203.656 157.381C203.258 158.744 203.094 160.165 203.17 161.582C203.322 164.444 203.84 166.82 208.57 168.278C208.57 168.278 213.97 173.927 202.555 173.398C191.139 172.868 188.893 167.231 188.893 167.231C193.483 163.181 192.522 151.43 191.442 144.94Z" fill="#FFB573"/>
<path d="M213.646 136.667C213.711 137.369 214.132 137.93 214.597 137.898C215.061 137.866 215.374 137.282 215.32 136.58C215.266 135.878 214.824 135.328 214.359 135.349C213.895 135.371 213.56 135.965 213.646 136.667Z" fill="#263238"/>
<path d="M211.022 134.28C211.09 134.27 211.155 134.244 211.211 134.205C211.267 134.165 211.313 134.114 211.346 134.053C211.573 133.574 211.907 133.153 212.323 132.823C212.739 132.493 213.225 132.264 213.744 132.152C213.851 132.131 213.947 132.071 214.013 131.983C214.079 131.896 214.11 131.787 214.1 131.677C214.084 131.569 214.026 131.472 213.94 131.405C213.853 131.339 213.744 131.308 213.636 131.321V131.321C212.982 131.453 212.369 131.734 211.842 132.142C211.316 132.551 210.891 133.075 210.601 133.675C210.552 133.774 210.543 133.889 210.578 133.994C210.612 134.099 210.686 134.186 210.784 134.237C210.86 134.267 210.941 134.281 211.022 134.28V134.28Z" fill="#263238"/>
<path d="M213.938 137.034C214.709 138.882 215.718 140.621 216.94 142.207C216.532 142.498 216.065 142.694 215.572 142.782C215.079 142.87 214.572 142.847 214.089 142.715L213.938 137.034Z" fill="#FFB573"/>
<path d="M189.8 135.608C191.118 144.248 191.463 149.357 196.28 153.482C197.82 154.859 199.707 155.789 201.737 156.172C203.766 156.554 205.862 156.374 207.797 155.651C209.732 154.928 211.433 153.69 212.715 152.07C213.997 150.451 214.812 148.512 215.072 146.462C216.217 138.6 213.841 125.845 205.093 122.875C203.2 122.165 201.153 121.968 199.16 122.305C197.166 122.642 195.298 123.502 193.744 124.795C192.19 126.089 191.007 127.771 190.314 129.67C189.622 131.569 189.444 133.618 189.8 135.608V135.608Z" fill="#FFB573"/>
<path d="M186.193 139.151C187.834 142.693 189.271 147.197 192.057 149.951L202.479 151.225C202.479 151.225 212.847 144.94 209.834 139.064C211.206 137.628 210.234 133.762 208.938 131.71C208.159 132.502 207.119 132.985 206.011 133.07C204.904 133.156 203.803 132.837 202.911 132.174C202.627 132.747 202.215 133.246 201.706 133.632C201.197 134.018 200.605 134.281 199.977 134.401C199.35 134.52 198.703 134.492 198.087 134.319C197.472 134.147 196.905 133.834 196.431 133.405C196 133.929 195.452 134.344 194.83 134.616C194.209 134.888 193.532 135.01 192.855 134.972C192.178 134.935 191.519 134.738 190.932 134.398C190.345 134.058 189.846 133.585 189.476 133.016C188.83 133.523 188.041 133.813 187.222 133.846C186.402 133.879 185.592 133.653 184.908 133.2L184.735 133.07C184.8 135.176 185.297 137.245 186.193 139.151V139.151Z" fill="#263238"/>
<path opacity="0.1" d="M186.193 139.151C187.834 142.693 189.271 147.197 192.057 149.951L202.479 151.225C202.479 151.225 212.847 144.94 209.834 139.064C211.206 137.628 210.234 133.762 208.938 131.71C208.159 132.502 207.119 132.985 206.011 133.07C204.904 133.156 203.803 132.837 202.911 132.174C202.627 132.747 202.215 133.246 201.706 133.632C201.197 134.018 200.605 134.281 199.977 134.401C199.35 134.52 198.703 134.492 198.087 134.319C197.472 134.147 196.905 133.834 196.431 133.405C196 133.929 195.452 134.344 194.83 134.616C194.209 134.888 193.532 135.01 192.855 134.972C192.178 134.935 191.519 134.738 190.932 134.398C190.345 134.058 189.846 133.585 189.476 133.016C188.83 133.523 188.041 133.813 187.222 133.846C186.402 133.879 185.592 133.653 184.908 133.2L184.735 133.07C184.8 135.176 185.297 137.245 186.193 139.151V139.151Z" fill="white"/>
<path d="M183.579 135.965C184.854 138.125 189.476 140.857 203.57 137.304C204.477 137.066 209.856 134.777 209.834 133.848C209.618 132.725 209.255 131.636 208.754 130.608C209.046 129.096 211.324 129.269 212.653 128.448C213.328 127.963 213.812 127.257 214.023 126.453C214.234 125.648 214.158 124.796 213.808 124.042C213.059 122.547 211.847 121.335 210.352 120.586C204.564 117.194 199.498 118.048 193.332 119.03C187.932 119.884 177.628 125.996 183.579 135.965Z" fill="#263238"/>
<path d="M204.92 140.112C205.442 142.229 206.631 144.122 208.311 145.512C210.471 147.143 211.864 145.134 211.551 142.348C211.292 139.82 209.931 135.932 207.609 135.425C205.287 134.917 204.25 137.412 204.92 140.112Z" fill="#FFB573"/>
<path d="M174.021 171.842C174.594 169.682 178.082 167.134 180.361 166.885C180.361 166.885 187.662 164.282 190.88 164.326C197.004 164.326 201.68 163.591 209.337 167.501C212.145 167.933 214.888 168.581 217.059 169.132C219.846 169.909 221.487 170.449 221.487 170.449C221.487 170.449 220.612 190.246 221.131 209.761C221.422 220.615 222.891 231.275 223.399 238.651L205.59 244.159C196.622 246.927 186.992 246.662 178.19 243.403V243.403C175.695 234.763 175.134 226.998 173.33 211.003C172.25 201.478 171.656 180.904 174.021 171.842Z" fill="#263238"/>
<path opacity="0.2" d="M220.969 198.832C221.055 202.936 221.152 207.223 221.228 211.532C215.115 204.35 209.964 183.452 209.964 183.452L220.969 198.832Z" fill="black"/>
<path d="M228.259 176.303C232.028 183.517 238.562 197.514 238.562 197.514L222.567 205.376C217.275 199.609 209.92 185.699 209.402 180.31C208.743 174.1 212.901 169.196 219.23 169.898C221.142 170.153 222.963 170.869 224.536 171.985C226.109 173.101 227.387 174.583 228.259 176.303V176.303Z" fill="#263238"/>
<path d="M175.371 278.978H171.246V359.773H175.371V278.978Z" fill="#0EBED9"/>
<path d="M207.847 278.978H203.721V359.773H207.847V278.978Z" fill="#0EBED9"/>
<path d="M233.097 278.978H228.972V359.773H233.097V278.978Z" fill="#0EBED9"/>
<path opacity="0.4" d="M233.097 278.978H228.972V359.773H233.097V278.978Z" fill="black"/>
<path d="M200.632 278.978H196.507V359.773H200.632V278.978Z" fill="#0EBED9"/>
<path opacity="0.4" d="M200.632 278.978H196.507V359.773H200.632V278.978Z" fill="black"/>
<path d="M174.399 213.844H170.436V275.004H174.399V213.844Z" fill="#0EBED9"/>
<path opacity="0.8" d="M174.399 213.844H170.436V275.004H174.399V213.844Z" fill="white"/>
<path d="M207.771 213.844H203.808V275.004H207.771V213.844Z" fill="#0EBED9"/>
<path opacity="0.8" d="M207.771 213.844H203.808V275.004H207.771V213.844Z" fill="white"/>
<path d="M209.704 193.108H170.274C167.774 193.108 165.748 195.134 165.748 197.633V211.781C165.748 214.28 167.774 216.306 170.274 216.306H209.704C212.204 216.306 214.23 214.28 214.23 211.781V197.633C214.23 195.134 212.204 193.108 209.704 193.108Z" fill="#0EBED9"/>
<path opacity="0.8" d="M209.704 193.108H170.274C167.774 193.108 165.748 195.134 165.748 197.633V211.781C165.748 214.28 167.774 216.306 170.274 216.306H209.704C212.204 216.306 214.23 214.28 214.23 211.781V197.633C214.23 195.134 212.204 193.108 209.704 193.108Z" fill="white"/>
<path d="M237.439 279H167.239C167.239 276.875 168.083 274.836 169.586 273.334C171.089 271.831 173.127 270.986 175.252 270.986H229.425C231.551 270.986 233.589 271.831 235.092 273.334C236.594 274.836 237.439 276.875 237.439 279Z" fill="#0EBED9"/>
<path opacity="0.7" d="M237.439 279H167.239C167.239 276.875 168.083 274.836 169.586 273.334C171.089 271.831 173.127 270.986 175.252 270.986H229.425C231.551 270.986 233.589 271.831 235.092 273.334C236.594 274.836 237.439 276.875 237.439 279Z" fill="white"/>
</svg>
