<svg width="560" height="540" viewBox="0 0 560 540" fill="none" xmlns="http://www.w3.org/2000/svg">
<path d="M519.302 315.113C462.299 437.001 329.157 495.154 221.921 445.003C114.685 394.853 70.7465 226.426 127.75 104.539C184.753 -17.3486 260.159 132.282 367.395 182.433C474.631 232.584 576.305 193.226 519.302 315.113Z" fill="#E4EEF5"/>
<path d="M270 461.765C385.649 461.765 479.401 456.291 479.401 449.539C479.401 442.787 385.649 437.314 270 437.314C154.351 437.314 60.5988 442.787 60.5988 449.539C60.5988 456.291 154.351 461.765 270 461.765Z" fill="#DCDCDC"/>
<path d="M480.146 110.041H270.81V270.54H480.146V110.041Z" fill="#0EBED9"/>
<path opacity="0.8" d="M480.146 110.041H270.81V270.54H480.146V110.041Z" fill="white"/>
<path d="M266.306 110.041H56.97V270.54H266.306V110.041Z" fill="#0EBED9"/>
<path opacity="0.8" d="M266.306 110.041H56.97V270.54H266.306V110.041Z" fill="white"/>
<g opacity="0.2">
<path opacity="0.2" d="M238.68 234.76H191.97V247.504H181.321V256.003H175.37V247.504H157.561V256.003H125.15V260.28H87.1236V240.462H70.038V256.586H56.97V270.54H70.038H79.7364H87.1236H125.15H146.74H157.561H175.37H181.321H184.205H191.97H199.13H224.554H238.68H266.306V256.057H238.68V234.76Z" fill="#0EBED9"/>
</g>
<path opacity="0.5" d="M190.156 270.562H155.639L184.831 110.041H219.359L190.156 270.562Z" fill="white"/>
<path opacity="0.2" d="M467.078 256.586V240.462H450.004V260.28H411.966V256.003H376.51V247.504H345.146V234.76H312.574V256.057H270.81V270.54H312.574H337.997H345.146H373.453H376.51H390.377H411.966H450.004H457.38H467.078H480.146V256.586H467.078Z" fill="#0EBED9"/>
<path opacity="0.5" d="M388.368 270.562H343.375L372.578 110.041H417.56L388.368 270.562Z" fill="white"/>
<path opacity="0.5" d="M144.99 270.562H127.732L156.924 110.041H174.182L144.99 270.562Z" fill="white"/>
<path d="M313.2 149.44C314.118 147.69 316.44 146.2 319.183 145.552C321.614 142.928 324.965 141.345 328.536 141.134C329.571 141.047 330.613 141.094 331.636 141.275C334.928 138.1 339.234 136.188 343.796 135.875C348.527 135.508 352.112 136.955 353.365 139.374C354.17 139.175 354.99 139.042 355.817 138.974C359.456 138.694 362.189 139.871 362.977 141.804C364.202 141.25 365.514 140.914 366.854 140.81C370.559 140.519 373.021 142.225 372.362 144.623C372.182 145.203 371.884 145.74 371.488 146.2C376.78 146.686 381.078 148.014 378.432 149.634L304.819 155.369C302.81 151.945 308.383 150.314 313.2 149.44Z" fill="white"/>
<path d="M216.583 223.085C216.924 222.575 217.365 222.14 217.879 221.806C218.394 221.471 218.97 221.245 219.575 221.141C220.796 219.843 222.472 219.069 224.251 218.981C224.767 218.933 225.287 218.959 225.796 219.056C227.443 217.473 229.596 216.521 231.876 216.367C234.241 216.184 236.034 216.907 236.66 218.117C237.061 218.02 237.47 217.955 237.881 217.922C239.706 217.771 241.121 218.365 241.466 219.337C242.08 219.058 242.738 218.886 243.41 218.83C245.257 218.689 246.488 219.542 246.164 220.741C246.072 221.032 245.922 221.3 245.722 221.53C248.368 221.778 250.517 222.437 249.199 223.247L212.393 226.109C211.399 224.338 214.186 223.56 216.583 223.085Z" fill="white"/>
<path d="M406.566 208.602C406.524 208.291 406.546 207.975 406.631 207.673C407.192 205.654 410.184 203.818 413.316 203.569C413.936 203.516 414.56 203.542 415.174 203.645C417.282 201.633 420.031 200.425 422.939 200.232C424.353 200.08 425.784 200.273 427.108 200.794C429.408 199.055 432.16 198.017 435.035 197.802C439.949 197.413 443.221 199.681 442.346 202.856L442.282 203.051H442.508C444.884 202.856 446.472 203.958 446.04 205.492C445.864 206.036 445.543 206.521 445.111 206.896C447.606 207.306 449.215 207.976 447.822 208.883L400.572 212.555C399.211 210.168 403.391 209.142 406.566 208.602Z" fill="white"/>
<path d="M91.152 149.04C91.1058 148.729 91.1279 148.412 91.2168 148.111C91.7784 146.092 94.77 144.256 97.902 144.007C98.5183 143.954 99.1388 143.98 99.7488 144.083C101.859 142.073 104.606 140.866 107.514 140.67C108.929 140.518 110.359 140.711 111.683 141.232C113.983 139.493 116.735 138.455 119.61 138.24C124.524 137.851 127.796 140.119 126.911 143.294C126.894 143.361 126.872 143.426 126.846 143.489H127.073C129.449 143.294 131.036 144.396 130.615 145.93C130.435 146.471 130.114 146.956 129.686 147.334C132.181 147.733 133.78 148.414 132.386 149.321L85.1472 152.993C83.7972 150.649 87.966 149.612 91.152 149.04Z" fill="white"/>
<path d="M74.3364 420.304C71.82 428.576 69.12 437.303 69.12 437.303L75.5136 439.204L81.8964 423.716L74.3364 420.304Z" fill="#FFC3BD"/>
<path d="M129.805 427.885C131.274 436.417 132.775 445.435 132.775 445.435L139.331 444.258L138.1 427.55L129.805 427.885Z" fill="#FFC3BD"/>
<path d="M137.452 170.273C141.426 173.448 141.394 178.524 138.326 182.358C135.259 186.192 130.313 187.337 126.338 184.162C122.364 180.986 120.852 174.668 123.919 170.834C126.986 167 133.466 167.087 137.452 170.273Z" fill="#6FA926"/>
<path d="M140.4 177.8L134.309 185.36C135.159 185.022 135.953 184.556 136.663 183.978C136.777 183.884 136.92 183.833 137.068 183.833C137.216 183.833 137.359 183.884 137.473 183.978L144.86 190.188C145.498 190.728 148.1 187.488 147.42 186.948L139.741 181.105C139.624 181.015 139.542 180.888 139.508 180.744C139.475 180.6 139.492 180.449 139.558 180.317C139.961 179.524 140.244 178.676 140.4 177.8V177.8Z" fill="#0EBED9"/>
<path opacity="0.6" d="M140.4 177.8L134.309 185.36C135.159 185.022 135.953 184.556 136.663 183.978C136.777 183.884 136.92 183.833 137.068 183.833C137.216 183.833 137.359 183.884 137.473 183.978L144.86 190.188C145.498 190.728 148.1 187.488 147.42 186.948L139.741 181.105C139.624 181.015 139.542 180.888 139.508 180.744C139.475 180.6 139.492 180.449 139.558 180.317C139.961 179.524 140.244 178.676 140.4 177.8V177.8Z" fill="white"/>
<path d="M90.0504 247.774L84.9312 252.45C83.2032 254.016 81.54 255.625 79.92 257.202C78.3 258.779 76.788 260.388 75.5244 261.878C74.898 262.602 74.3688 263.347 74.0124 263.844C73.8396 264.092 73.7316 264.287 73.6992 264.265C73.6668 264.244 73.7532 263.984 73.6992 263.066L73.4832 261.868C73.9476 264.136 74.4228 266.501 74.9412 268.855L76.4856 276.016C77.4792 280.832 78.4728 285.736 79.2072 290.617C79.3458 291.579 79.1475 292.56 78.6457 293.392C78.1439 294.225 77.3697 294.858 76.4542 295.185C75.5388 295.512 74.5385 295.512 73.623 295.185C72.7075 294.858 71.9331 294.225 71.4312 293.393C70.1244 291.233 68.9688 288.976 67.8132 286.729C66.6576 284.483 65.5992 282.215 64.5732 279.925C63.5472 277.636 62.5212 275.324 61.6032 272.959C60.6852 270.594 59.7456 268.207 58.9356 265.702C58.8436 265.425 58.782 265.139 58.752 264.848V264.503C58.5826 262.876 58.7367 261.231 59.2056 259.664C59.4845 258.64 59.8456 257.639 60.2856 256.673C61.0009 255.194 61.8277 253.771 62.7588 252.418C64.3397 250.107 66.0791 247.91 67.9644 245.84C69.7464 243.821 71.5932 241.974 73.4724 240.17C75.3516 238.367 77.2416 236.693 79.3908 234.976C81.0872 233.691 83.2103 233.104 85.3254 233.335C87.4406 233.565 89.3876 234.595 90.768 236.214C92.1483 237.833 92.8574 239.919 92.7501 242.044C92.6428 244.169 91.7272 246.172 90.1908 247.644L90.0504 247.774Z" fill="#FFC3BD"/>
<path d="M78.1056 289.559L82.4256 293.004L74.358 298.631C73.2598 297.467 72.3358 296.15 71.6148 294.721C71.1422 293.702 71.0854 292.538 71.4564 291.478C71.8274 290.417 72.597 289.543 73.602 289.04V289.04C74.327 288.701 75.132 288.57 75.9273 288.661C76.7225 288.753 77.4766 289.064 78.1056 289.559V289.559Z" fill="#FFC3BD"/>
<path d="M83.376 301.46L80.2224 302.962C79.6136 303.25 78.922 303.313 78.2712 303.139C77.6203 302.965 77.0525 302.565 76.6692 302.011L74.3256 298.631L82.3932 293.004L84.6936 297.626C84.8639 297.964 84.9649 298.332 84.9907 298.709C85.0165 299.086 84.9665 299.464 84.8437 299.821C84.7209 300.179 84.5277 300.508 84.2756 300.789C84.0236 301.071 83.7176 301.299 83.376 301.46V301.46Z" fill="#FFC3BD"/>
<path d="M147.398 184.68L147.204 180.576C147.173 179.904 146.904 179.264 146.445 178.772C145.986 178.279 145.367 177.965 144.698 177.887L141.232 177.487C140.856 177.442 140.475 177.473 140.111 177.577C139.747 177.682 139.408 177.858 139.113 178.095C138.818 178.333 138.574 178.627 138.394 178.96C138.215 179.293 138.103 179.659 138.067 180.036L137.581 185.177L140.27 192.92L145.228 193.46C148.975 191.938 147.398 184.68 147.398 184.68Z" fill="#FFC3BD"/>
<path d="M66.6252 443.329L72.468 444.874L73.3644 444.388L74.2716 445.338C77.8356 446.278 82.6848 447.412 85.1796 447.239C85.3197 446.989 85.3869 446.704 85.3735 446.418C85.3601 446.132 85.2668 445.855 85.104 445.619C85.104 445.619 76.464 440.219 76.0968 438.059L68.9364 436.169" fill="#263238"/>
<path d="M131.026 450.511H137.063L137.808 449.82L138.888 450.511C142.571 450.511 150.12 450.371 152.485 449.572C152.556 449.295 152.549 449.003 152.463 448.73C152.377 448.457 152.216 448.214 151.999 448.027C151.999 448.027 140.983 445.003 140.119 442.973H131.414" fill="#263238"/>
<path d="M87.9552 364.403C89.1648 333.158 86.2812 313.643 91.8216 297.13L119.459 292.68C119.459 292.68 114.361 345.6 108.248 367.502C102.136 389.405 80.9136 428.274 80.9136 428.274L71.8092 425.855C71.8092 425.855 79.812 390.042 87.9552 364.403Z" fill="#263238"/>
<path opacity="0.2" d="M109.631 318.881L114.772 332.197C113.13 343.872 111.164 355.806 109.058 364.403C106.812 348.84 108.443 323.266 109.631 318.881Z" fill="black"/>
<path d="M118.876 366.962C109.563 344.16 103.386 320.199 100.516 295.736L130.756 290.801C130.756 290.801 135.227 345.384 137.236 367.826C139.277 391.154 139.396 432.788 139.396 432.788L129.427 434.765C129.427 434.765 119.88 395.971 118.876 366.962Z" fill="#263238"/>
<path d="M89.2944 211.183C91.0764 216.929 92.5344 226.735 90.8064 231.422C94.1544 233.723 99.0468 234.868 105.386 233.842C111.726 232.816 110.3 230.245 108.27 228.28C103.388 226.66 103.82 221.26 104.641 219.056L89.2944 211.183Z" fill="#FFB573"/>
<path d="M105.84 204.347C106.024 204.908 106.477 205.265 106.844 205.146C107.212 205.027 107.363 204.455 107.179 203.893C106.996 203.332 106.542 202.975 106.175 203.094C105.808 203.213 105.646 203.785 105.84 204.347Z" fill="#263238"/>
<path d="M106.056 205.2C107.307 206.701 108.761 208.021 110.376 209.12C110.084 209.525 109.708 209.861 109.274 210.105C108.839 210.349 108.357 210.496 107.86 210.535L106.056 205.2Z" fill="#FFC3BD"/>
<path d="M105.84 200.448C105.816 200.501 105.778 200.547 105.731 200.581C105.683 200.615 105.628 200.636 105.57 200.642C105.126 200.676 104.698 200.818 104.321 201.055C103.945 201.292 103.632 201.618 103.41 202.003C103.368 202.087 103.295 202.152 103.206 202.182C103.117 202.212 103.019 202.206 102.935 202.165C102.855 202.122 102.794 202.05 102.765 201.964C102.735 201.878 102.738 201.785 102.773 201.701C103.042 201.217 103.424 200.805 103.886 200.5C104.349 200.195 104.878 200.007 105.43 199.951C105.475 199.945 105.521 199.948 105.565 199.96C105.61 199.972 105.651 199.993 105.687 200.021C105.723 200.049 105.754 200.084 105.776 200.124C105.799 200.164 105.813 200.208 105.818 200.254C105.847 200.314 105.854 200.383 105.84 200.448V200.448Z" fill="#263238"/>
<path d="M86.2704 209.164C88.9812 215.946 90.2232 220.061 94.9104 222.437C101.93 226.012 109.436 219.931 108.81 212.458C108.238 205.718 103.907 195.75 96.228 195.286C94.5247 195.181 92.8227 195.511 91.2813 196.243C89.74 196.975 88.4096 198.087 87.4147 199.473C86.4199 200.86 85.7931 202.476 85.5929 204.171C85.3928 205.866 85.6259 207.583 86.2704 209.164V209.164Z" fill="#FFC3BD"/>
<path d="M100.202 208.559C103.442 207.425 103.799 203.396 102.535 202.619C105.419 199.26 108.4 192.65 101.369 191.398C94.338 190.145 90.4068 191.657 87.7824 192.056C88.7799 192.564 89.8516 192.91 90.9576 193.082C86.3568 193.504 82.3176 197.316 79.0776 199.444C80.0782 199.68 81.108 199.767 82.134 199.703C82.134 199.703 77.1552 203.936 81.2916 206.939C79.4988 208.375 83.8188 217.469 91.3788 221.173C99.6516 221.098 99.1764 218.884 99.1764 218.884C99.1764 218.884 104.404 211.734 100.202 208.559Z" fill="#263238"/>
<path d="M97.956 209.52C98.8383 210.81 100.178 211.718 101.704 212.058C103.626 212.425 104.22 210.481 103.367 208.602C102.6 206.917 100.678 204.682 98.8956 205.168C97.1136 205.654 96.822 207.835 97.956 209.52Z" fill="#FFC3BD"/>
<path d="M85.0176 231.293C94.7376 228.636 108.67 226.703 118.184 226.973C120.538 227.049 122.799 227.903 124.615 229.402C126.431 230.901 127.698 232.96 128.218 235.256C131.458 249.232 131.933 274.406 132.872 299.689C112.126 310.198 88.8948 306.029 88.8948 306.029C87.6744 301.072 87.9768 284.234 88.3764 275.195C85.806 266.317 81.1404 256.392 77.5764 244.609C77.1714 243.246 77.0434 241.816 77.2 240.403C77.3566 238.99 77.7946 237.623 78.4882 236.381C79.1817 235.14 80.1167 234.051 81.2382 233.177C82.3596 232.303 83.6446 231.662 85.0176 231.293V231.293Z" fill="#FFA945"/>
<path opacity="0.2" d="M128.909 238.68L117.331 242.579C121.738 245.462 125.971 245.56 129.913 245.462C129.6 243 129.287 240.71 128.909 238.68Z" fill="black"/>
<path opacity="0.5" d="M128.898 298.642C128.531 281.599 126.328 246.683 123.25 237.762L123.757 237.589C126.857 246.564 129.071 281.556 129.438 298.631L128.898 298.642Z" fill="white"/>
<path d="M119.016 227.794L122.148 226.498C123.228 226.022 124.308 225.558 125.388 225.061C127.548 224.089 129.611 223.031 131.598 221.94C133.476 220.906 135.28 219.744 136.998 218.462C138.338 217.481 139.533 216.318 140.551 215.006L140.065 216.162C140.684 214.693 141.049 213.13 141.145 211.54C141.296 209.48 141.296 207.411 141.145 205.351C141.016 203.191 140.746 200.934 140.432 198.666C140.119 196.398 139.72 194.054 139.352 191.884V191.603C139.196 190.65 139.374 189.672 139.857 188.835C140.339 187.999 141.097 187.355 142.001 187.014C142.904 186.673 143.898 186.655 144.813 186.964C145.728 187.273 146.508 187.889 147.02 188.708C148.413 190.915 149.647 193.218 150.714 195.599C151.8 197.998 152.727 200.466 153.49 202.986C154.306 205.654 154.86 208.396 155.142 211.172C155.519 214.428 155.281 217.725 154.44 220.892C154.382 221.124 154.299 221.349 154.192 221.562L153.954 222.048C152.341 225.247 150.143 228.115 147.474 230.504C145.217 232.597 142.769 234.473 140.162 236.11C137.735 237.67 135.21 239.073 132.602 240.311C131.306 240.926 130.021 241.52 128.693 242.05C128.034 242.32 127.364 242.579 126.695 242.827C126.025 243.076 125.388 243.302 124.535 243.583C122.487 244.265 120.255 244.126 118.308 243.196C116.36 242.266 114.849 240.617 114.093 238.596C113.336 236.575 113.392 234.339 114.25 232.359C115.108 230.378 116.7 228.808 118.692 227.977L119.016 227.794Z" fill="#FFC3BD"/>
<path d="M154.926 303.34L154.429 303.124C154.829 302.227 155.326 301.18 155.898 299.959C158.162 295.434 160.072 290.74 161.611 285.919L162.13 286.07C160.584 290.935 158.663 295.673 156.384 300.24C155.812 301.406 155.315 302.454 154.926 303.34Z" fill="#0EBED9"/>
<path d="M164.722 276.253L164.192 276.134C169.43 254.07 174.917 213.246 152.788 187.736L153.198 187.38C175.478 213.073 169.981 254.092 164.722 276.253Z" fill="#0EBED9"/>
<path d="M446.386 226.562C440.5 220.018 429.106 223.085 422.744 227.524L424.364 232.74C431.006 230.969 431.86 238.658 434.743 246.359C438.858 257.31 453.341 263.855 464.465 251.251C448.546 248.281 451.31 232.038 446.386 226.562Z" fill="#263238"/>
<path d="M461.009 248.994C460.594 248.997 460.181 248.949 459.778 248.854C455.252 247.774 452.477 241.11 450.058 235.202C448.589 231.66 447.196 228.312 445.738 226.822C439.657 220.828 428.728 224.662 422.906 229.241C422.794 229.329 422.652 229.37 422.511 229.353C422.369 229.337 422.239 229.266 422.15 229.154C422.064 229.04 422.025 228.896 422.041 228.754C422.057 228.611 422.127 228.48 422.237 228.388C428.371 223.538 439.949 219.596 446.494 226.055C448.157 227.696 449.582 231.142 451.094 234.792C453.438 240.451 456.095 246.866 460.08 247.752C461.948 248.195 463.99 247.406 466.312 245.376C466.362 245.325 466.421 245.285 466.487 245.258C466.553 245.23 466.624 245.216 466.695 245.216C466.766 245.216 466.837 245.23 466.903 245.258C466.968 245.285 467.028 245.325 467.078 245.376C467.171 245.486 467.217 245.627 467.207 245.77C467.197 245.914 467.132 246.047 467.024 246.143C464.864 248.065 462.866 248.994 461.009 248.994Z" fill="#263238"/>
<path d="M422.442 225.839C426.459 224.878 429.44 227.005 429.041 230.936C428.641 234.868 425.326 235.559 424.181 233.82C423.036 232.081 422.442 225.839 422.442 225.839Z" fill="#0EBED9"/>
<path d="M400.486 233.28C399.986 230.813 400.452 228.249 401.789 226.117C403.125 223.984 405.23 222.447 407.668 221.821C414.029 220.471 421.783 221.702 425.444 227.221C429.106 232.74 423.349 247.741 414.223 247.504C401.576 247.115 400.486 233.28 400.486 233.28Z" fill="#263238"/>
<path d="M409.968 306.418C409.968 306.418 405.454 338.99 401.414 360.418C397.17 382.892 381.326 433.566 380.646 435.089L386.629 437.735C386.629 437.735 413.629 394.967 414.212 368.539C424.721 352.415 430.672 334.098 432.572 323.665C434.916 310.478 429.667 298.717 429.667 298.717L409.968 306.418Z" fill="#0EBED9"/>
<path opacity="0.2" d="M426.902 320.987C426.873 321.05 426.847 321.115 426.827 321.181C424.548 325.944 423.349 334.454 423.349 342.425C423.342 345.179 423.5 347.93 423.824 350.665C426.925 343.733 429.433 336.551 431.32 329.195L426.902 320.987Z" fill="black"/>
<path d="M377.19 442.541C378.539 440.141 379.694 437.639 380.646 435.056C382.873 435.271 384.972 436.199 386.629 437.702C384.998 441.212 383.108 444.366 383.108 444.366L377.19 442.541Z" fill="#FFC3BD"/>
<path d="M408.143 268.92C408.143 269.428 408.143 269.687 408.143 270V270.994C408.143 271.642 408.078 272.29 408.024 272.927C407.916 274.212 407.754 275.476 407.527 276.739C407.061 279.297 406.337 281.801 405.367 284.213C404.393 286.702 403.112 289.06 401.555 291.233C400.759 292.341 399.886 293.391 398.941 294.376C398.444 294.851 397.969 295.348 397.44 295.79L397.051 296.136L396.857 296.298L396.522 296.59C395.876 297.105 395.145 297.503 394.362 297.767C393.338 298.108 392.266 298.279 391.187 298.274C390.398 298.27 389.611 298.205 388.832 298.08C387.518 297.87 386.219 297.57 384.944 297.184C382.635 296.471 380.373 295.612 378.173 294.613C373.921 292.71 369.816 290.494 365.893 287.982C365.331 287.636 364.916 287.094 364.727 286.462C364.538 285.829 364.588 285.149 364.869 284.551C365.149 283.953 365.639 283.479 366.247 283.22C366.854 282.96 367.535 282.933 368.161 283.144H368.226C372.427 284.515 376.726 285.854 380.905 287.021C382.99 287.593 385.085 288.101 387.061 288.446C387.974 288.62 388.898 288.728 389.826 288.77C390.185 288.803 390.547 288.803 390.906 288.77C391.154 288.77 391.316 288.652 391.057 288.706C390.806 288.785 390.572 288.909 390.366 289.073C390.366 289.073 390.269 289.17 390.29 289.138H390.344L390.463 289.008L390.69 288.77C391.003 288.457 391.273 288.101 391.554 287.766C392.108 287.075 392.623 286.354 393.098 285.606C394.037 284.015 394.811 282.332 395.409 280.584C396.018 278.755 396.481 276.881 396.792 274.979C396.965 274.028 397.094 273.046 397.181 272.084C397.181 271.598 397.256 271.112 397.278 270.637V269.946V269.017C397.278 267.585 397.847 266.212 398.86 265.199C399.872 264.186 401.246 263.617 402.678 263.617C404.11 263.617 405.484 264.186 406.496 265.199C407.509 266.212 408.078 267.585 408.078 269.017L408.143 268.92Z" fill="#FFC3BD"/>
<path d="M437.897 297.14C437.897 297.14 445.295 302.011 448.027 315.122C450.187 325.49 448.794 341.377 446.72 362.999C458.741 384.599 448.448 436.795 448.448 436.795H441.914C441.99 435.132 435.542 384.448 431.114 362.005C426.902 340.643 415.789 299.981 415.789 299.981L437.897 297.14Z" fill="#0EBED9"/>
<path d="M440.845 443.88C440.845 443.88 441.925 442.163 441.925 436.547C441.925 436.547 445.835 435.553 448.459 436.774C448.254 440.651 447.941 444.398 447.941 444.398L440.845 443.88Z" fill="#FFC3BD"/>
<path d="M448.427 441.817H440.867C440.709 441.811 440.555 441.865 440.435 441.968C437.347 443.942 433.958 445.402 430.402 446.288C429.997 446.396 429.629 446.609 429.333 446.904C429.037 447.2 428.824 447.569 428.717 447.973H447.854C448.101 447.975 448.345 447.921 448.569 447.817C448.792 447.712 448.99 447.56 449.147 447.369C449.304 447.179 449.417 446.956 449.477 446.717C449.538 446.478 449.544 446.228 449.496 445.986C449.259 444.83 449.129 443.655 449.107 442.476C449.096 442.301 449.021 442.137 448.895 442.015C448.769 441.893 448.602 441.822 448.427 441.817V441.817Z" fill="#263238"/>
<path d="M384.48 441.817H376.92C376.762 441.812 376.608 441.866 376.488 441.968C373.401 443.945 370.012 445.404 366.455 446.288C366.051 446.397 365.683 446.61 365.387 446.906C365.091 447.201 364.879 447.569 364.77 447.973H383.918C384.16 447.973 384.398 447.921 384.617 447.82C384.836 447.718 385.03 447.57 385.187 447.387C385.343 447.203 385.457 446.987 385.522 446.754C385.586 446.522 385.599 446.278 385.56 446.04C385.333 444.883 385.203 443.709 385.171 442.53C385.174 442.437 385.158 442.345 385.125 442.259C385.091 442.172 385.041 442.094 384.977 442.027C384.912 441.961 384.835 441.908 384.75 441.872C384.664 441.836 384.573 441.817 384.48 441.817V441.817Z" fill="#263238"/>
<path d="M397.624 272.678C398.347 275.486 395.248 282.971 401.566 285.638C403.743 292.811 406.555 299.776 409.968 306.45L437.897 297.173C433.08 287.55 433.08 282.485 433.08 263.434C433.08 262.391 432.86 261.36 432.435 260.407C432.01 259.455 431.389 258.603 430.613 257.907C429.836 257.211 428.922 256.687 427.929 256.368C426.936 256.049 425.887 255.943 424.85 256.057C423.684 256.176 422.442 256.338 421.178 256.543C416.763 257.15 412.396 258.07 408.11 259.297C406.728 259.718 405.302 260.204 403.952 260.69C401.598 261.548 399.647 263.249 398.477 265.465C397.308 267.68 397.003 270.251 397.624 272.678Z" fill="#263238"/>
<path d="M416.804 242.093C416.858 246.478 417.658 254.351 421.189 256.543C421.189 256.543 411.826 261.338 408.499 270.011C404.849 264.794 408.121 259.297 408.121 259.297C412.571 257.137 411.718 253.735 410.216 250.657L416.804 242.093Z" fill="#FFC3BD"/>
<path opacity="0.2" d="M426.978 263.855L433.102 267.268L433.188 275.724C430.423 272.7 427.388 267.149 426.989 263.93C426.989 263.93 426.989 263.866 426.989 263.844L426.978 263.855Z" fill="black"/>
<path opacity="0.2" d="M414.115 245.581L410.216 250.636C410.581 251.353 410.881 252.101 411.113 252.871C412.852 252.234 414.893 249.739 414.688 247.828C414.639 247.05 414.445 246.288 414.115 245.581V245.581Z" fill="black"/>
<path d="M419.612 233.442C419.407 240.635 419.472 243.68 416.038 247.482C410.875 253.195 402.268 251.359 400.356 244.242C398.639 237.848 399.276 227.167 406.048 224.089C407.559 223.417 409.217 223.144 410.864 223.297C412.511 223.45 414.091 224.023 415.452 224.962C416.814 225.901 417.912 227.174 418.64 228.659C419.369 230.143 419.703 231.791 419.612 233.442V233.442Z" fill="#FFC3BD"/>
<path d="M406.75 222.782C410.465 232.157 419.71 233.129 419.461 238.01C423.22 232.438 420.336 221.044 406.75 222.782Z" fill="#263238"/>
<path d="M408.931 235.656C408.931 236.239 408.65 236.736 408.272 236.736C407.894 236.736 407.57 236.282 407.549 235.656C407.527 235.03 407.819 234.576 408.208 234.576C408.596 234.576 408.91 235.073 408.931 235.656Z" fill="#263238"/>
<path d="M401.76 235.991C401.76 236.574 401.49 237.071 401.101 237.071C400.712 237.071 400.399 236.617 400.378 235.991C400.356 235.364 400.658 234.911 401.036 234.911C401.414 234.911 401.76 235.44 401.76 235.991Z" fill="#263238"/>
<path d="M401.198 234.976L399.784 234.619C399.784 234.619 400.54 235.688 401.198 234.976Z" fill="#263238"/>
<path d="M404.028 236.596C403.551 237.944 402.889 239.219 402.062 240.386C402.367 240.589 402.713 240.723 403.074 240.779C403.436 240.835 403.806 240.811 404.158 240.71L404.028 236.596Z" fill="#E9B3AD"/>
<path d="M407.905 243.054C407.581 243.114 407.252 243.15 406.922 243.162C406.9 243.165 406.877 243.164 406.855 243.157C406.833 243.15 406.813 243.138 406.797 243.123C406.78 243.107 406.767 243.088 406.759 243.067C406.751 243.046 406.748 243.023 406.75 243C406.748 242.977 406.751 242.955 406.758 242.933C406.766 242.911 406.777 242.892 406.792 242.875C406.807 242.857 406.826 242.844 406.846 242.834C406.867 242.824 406.889 242.818 406.912 242.816C407.638 242.811 408.354 242.635 409 242.301C409.645 241.967 410.203 241.485 410.627 240.894C410.635 240.87 410.649 240.848 410.667 240.83C410.685 240.812 410.707 240.798 410.731 240.789C410.755 240.78 410.78 240.777 410.806 240.779C410.831 240.782 410.856 240.79 410.878 240.803C410.9 240.816 410.919 240.833 410.933 240.855C410.947 240.876 410.957 240.9 410.961 240.925C410.964 240.95 410.963 240.976 410.955 241.001C410.948 241.025 410.935 241.048 410.918 241.067C410.21 242.096 409.13 242.808 407.905 243.054V243.054Z" fill="#F99893"/>
<path d="M421.135 238.777C420.851 239.368 420.443 239.891 419.941 240.312C419.438 240.733 418.851 241.042 418.219 241.218C416.621 241.618 415.876 239.846 416.383 238.086C416.837 236.498 418.219 234.382 419.807 234.781C421.394 235.181 421.913 237.233 421.135 238.777Z" fill="#FFC3BD"/>
<path d="M410.702 232.286C410.61 232.274 410.525 232.228 410.465 232.157C410.205 231.815 409.868 231.538 409.482 231.351C409.095 231.163 408.67 231.069 408.24 231.077C408.149 231.083 408.059 231.054 407.988 230.996C407.918 230.937 407.873 230.854 407.862 230.764C407.856 230.674 407.885 230.585 407.944 230.516C408.002 230.448 408.085 230.405 408.175 230.396C408.721 230.377 409.263 230.49 409.755 230.725C410.248 230.96 410.677 231.31 411.005 231.746C411.033 231.781 411.054 231.821 411.066 231.864C411.079 231.906 411.083 231.951 411.078 231.995C411.073 232.04 411.059 232.082 411.037 232.121C411.015 232.16 410.986 232.194 410.951 232.222C410.916 232.249 410.876 232.269 410.834 232.281C410.791 232.292 410.746 232.294 410.702 232.286V232.286Z" fill="#263238"/>
<path d="M399.935 232.286C399.854 232.313 399.767 232.313 399.686 232.286C399.61 232.237 399.554 232.161 399.532 232.072C399.51 231.984 399.523 231.891 399.568 231.811C399.842 231.34 400.225 230.942 400.686 230.651C401.146 230.359 401.67 230.183 402.214 230.137C402.259 230.134 402.305 230.141 402.348 230.156C402.391 230.172 402.431 230.196 402.464 230.227C402.498 230.259 402.524 230.297 402.543 230.339C402.561 230.381 402.57 230.426 402.57 230.472C402.571 230.517 402.564 230.562 402.548 230.603C402.531 230.645 402.507 230.683 402.476 230.716C402.445 230.748 402.407 230.774 402.366 230.791C402.324 230.809 402.28 230.818 402.235 230.818C401.806 230.864 401.394 231.01 401.032 231.244C400.67 231.479 400.368 231.795 400.151 232.168C400.097 232.234 400.02 232.277 399.935 232.286V232.286Z" fill="#263238"/>
<path d="M408.37 234.641L406.955 234.284C406.955 234.284 407.711 235.354 408.37 234.641Z" fill="#263238"/>
<path d="M435.326 300.445C434.898 299.788 434.329 299.235 433.66 298.826C432.992 298.416 432.24 298.162 431.46 298.08L429.559 297.875C428.524 297.767 427.479 297.913 426.513 298.301C425.548 298.688 424.692 299.306 424.019 300.1V300.1C423.717 300.454 423.531 300.892 423.485 301.355C423.438 301.818 423.534 302.284 423.76 302.691L425.088 305.121C425.37 305.628 425.831 306.01 426.381 306.192C426.931 306.374 427.53 306.343 428.058 306.104L429.278 305.554C429.278 305.554 433.793 304.106 435.866 301.234L435.326 300.445Z" fill="#FFC3BD"/>
<path d="M430.456 257.677C431.611 258.39 432.507 258.984 433.469 259.686C434.43 260.388 435.337 261.058 436.255 261.781C438.082 263.224 439.834 264.76 441.504 266.382C444.965 269.699 447.946 273.483 450.36 277.625C450.662 278.154 450.954 278.705 451.235 279.277C451.386 279.547 451.505 279.839 451.645 280.12L451.85 280.552L451.969 280.822C452.055 281.027 452.142 281.221 452.218 281.426C452.471 282.182 452.602 282.973 452.606 283.77C452.607 284.406 452.534 285.04 452.39 285.66C452.164 286.576 451.819 287.458 451.364 288.284C450.009 290.548 448.291 292.573 446.278 294.278C442.832 297.296 439.053 299.908 435.013 302.065C434.448 302.369 433.793 302.462 433.166 302.327C432.539 302.192 431.98 301.838 431.59 301.328C431.2 300.819 431.005 300.187 431.038 299.546C431.072 298.905 431.332 298.298 431.773 297.832L431.849 297.745C434.754 294.721 437.735 291.589 440.219 288.49C440.834 287.723 441.396 286.934 441.893 286.189C442.325 285.557 442.687 284.88 442.973 284.17C443.059 283.91 443.07 283.716 443.038 283.738C442.993 283.824 442.97 283.921 442.973 284.018C442.963 284.271 443 284.524 443.081 284.764C443.101 284.841 443.126 284.916 443.156 284.99C443.156 285.055 443.156 284.926 443.102 284.904L442.93 284.602C442.811 284.407 442.713 284.213 442.584 284.018C442.335 283.63 442.098 283.241 441.828 282.852C439.591 279.678 436.988 276.778 434.074 274.212C432.605 272.862 431.05 271.588 429.473 270.324C428.684 269.698 427.874 269.093 427.064 268.499C426.254 267.905 425.39 267.3 424.71 266.846L424.58 266.76C423.427 265.964 422.629 264.751 422.354 263.378C422.078 262.004 422.347 260.577 423.104 259.399C423.861 258.22 425.047 257.381 426.41 257.06C427.774 256.739 429.209 256.96 430.412 257.677H430.456Z" fill="#FFC3BD"/>
<path d="M368.69 283.716L367.481 282.247C366.821 281.438 365.973 280.802 365.011 280.396C364.049 279.989 363.002 279.824 361.962 279.914V279.914C361.498 279.956 361.058 280.137 360.699 280.434C360.34 280.731 360.08 281.13 359.953 281.578L359.186 284.234C359.028 284.792 359.086 285.388 359.348 285.905C359.61 286.421 360.058 286.82 360.601 287.021L361.865 287.496C361.865 287.496 366.088 289.656 369.554 289.084L369.76 288.122C369.921 287.355 369.908 286.561 369.723 285.798C369.538 285.036 369.185 284.325 368.69 283.716V283.716Z" fill="#FFC3BD"/>
<path d="M376.294 273.305C375.214 278.294 370.71 280.552 365.904 279.547C361.098 278.543 357.847 274.655 358.884 269.665C359.921 264.676 364.878 260.485 369.684 261.49C374.49 262.494 377.341 268.315 376.294 273.305Z" fill="#6FA926"/>
<path d="M370.926 279.364L361.379 277.376C362.071 277.974 362.846 278.469 363.679 278.845C363.814 278.906 363.925 279.01 363.994 279.141C364.062 279.273 364.085 279.423 364.057 279.569L361.897 288.965C361.703 289.775 365.764 290.617 365.915 289.807L367.654 280.314C367.679 280.167 367.756 280.034 367.871 279.939C367.986 279.844 368.131 279.793 368.28 279.796C369.178 279.78 370.069 279.635 370.926 279.364Z" fill="#0EBED9"/>
<path opacity="0.6" d="M370.926 279.364L361.379 277.376C362.071 277.974 362.846 278.469 363.679 278.845C363.814 278.906 363.925 279.01 363.994 279.141C364.062 279.273 364.085 279.423 364.057 279.569L361.897 288.965C361.703 289.775 365.764 290.617 365.915 289.807L367.654 280.314C367.679 280.167 367.756 280.034 367.871 279.939C367.986 279.844 368.131 279.793 368.28 279.796C369.178 279.78 370.069 279.635 370.926 279.364Z" fill="#6FA926"/>
<path d="M369.5 283.921C368.852 280.595 365.915 279.785 363.83 278.456C363.485 278.23 362.578 278.888 362.869 279.59C363.005 280.038 363.231 280.453 363.534 280.81C363.837 281.167 364.21 281.458 364.63 281.664C364.464 282.7 364.689 283.76 365.262 284.638C365.835 285.516 366.715 286.15 367.729 286.416C368.604 285.828 369.234 284.941 369.5 283.921Z" fill="#FFC3BD"/>
<path d="M433.652 295.445C432.281 296.352 430.034 297.605 430.574 298.685C431.114 299.765 433.177 303.394 434.387 303.124C435.892 302.69 437.229 301.808 438.221 300.596C439.042 299.484 434.495 294.905 433.652 295.445Z" fill="white"/>
<path d="M176.882 343.505H180.241V443.642C180.241 443.863 180.198 444.082 180.113 444.285C180.028 444.489 179.904 444.674 179.747 444.83C179.59 444.985 179.405 445.109 179.2 445.192C178.996 445.276 178.777 445.318 178.556 445.316V445.316C178.336 445.318 178.118 445.275 177.914 445.192C177.71 445.108 177.525 444.985 177.369 444.829C177.214 444.674 177.09 444.488 177.007 444.285C176.923 444.081 176.881 443.863 176.882 443.642V343.505Z" fill="#263238"/>
<path d="M160.207 355.32H163.566V452.833C163.567 453.054 163.525 453.273 163.442 453.477C163.358 453.681 163.235 453.867 163.079 454.024C162.924 454.18 162.739 454.305 162.535 454.39C162.331 454.474 162.113 454.518 161.892 454.518V454.518C161.445 454.518 161.017 454.34 160.701 454.024C160.385 453.709 160.207 453.28 160.207 452.833V355.32Z" fill="#263238"/>
<path d="M178.556 373.572L161.892 380.214V370.969L178.556 364.327V373.572Z" fill="#263238"/>
<path d="M363.118 343.505H359.759V443.642C359.759 443.863 359.802 444.082 359.887 444.285C359.972 444.489 360.096 444.674 360.253 444.83C360.41 444.985 360.595 445.109 360.8 445.192C361.004 445.276 361.223 445.318 361.444 445.316V445.316C361.664 445.318 361.882 445.275 362.086 445.192C362.29 445.108 362.475 444.985 362.631 444.829C362.786 444.674 362.909 444.488 362.993 444.285C363.077 444.081 363.119 443.863 363.118 443.642V343.505Z" fill="#263238"/>
<path d="M379.793 355.32H376.434V452.833C376.433 453.054 376.475 453.273 376.558 453.477C376.642 453.681 376.765 453.867 376.92 454.024C377.076 454.18 377.261 454.305 377.465 454.39C377.669 454.474 377.887 454.518 378.108 454.518V454.518C378.555 454.518 378.983 454.34 379.299 454.024C379.615 453.709 379.793 453.28 379.793 452.833V355.32Z" fill="#263238"/>
<path d="M361.444 373.572L378.108 380.214V370.969L361.444 364.327V373.572Z" fill="#263238"/>
<path d="M270 342.22C269.62 342.217 269.256 342.065 268.987 341.796C268.719 341.527 268.566 341.163 268.564 340.783V328.093C268.566 327.713 268.719 327.349 268.987 327.081C269.256 326.812 269.62 326.66 270 326.657V326.657C270.38 326.66 270.744 326.812 271.013 327.081C271.281 327.349 271.434 327.713 271.436 328.093V340.783C271.434 341.163 271.281 341.527 271.013 341.796C270.744 342.065 270.38 342.217 270 342.22Z" fill="black"/>
<path d="M406.436 351.292H133.564L187.175 334.444H352.836L406.436 351.292Z" fill="#6FA926"/>
<path opacity="0.8" d="M373.226 340.848L352.836 334.444H187.164L166.774 340.848L165.359 341.291L133.564 351.292H406.436L374.641 341.28L373.226 340.848ZM189.313 334.8H350.687L369.5 340.902H170.5L189.313 334.8ZM399.503 350.633H140.497L169.128 341.28H370.872L399.503 350.633Z" fill="white"/>
<path d="M406.447 351.292H133.564V355.374H406.447V351.292Z" fill="#6FA926"/>
<path opacity="0.2" d="M406.447 351.292H133.564V355.374H406.447V351.292Z" fill="black"/>
<path d="M270 349.002C269.842 349.002 269.689 348.94 269.576 348.829C269.463 348.718 269.398 348.567 269.395 348.408V322.823C269.398 322.664 269.463 322.513 269.576 322.402C269.689 322.291 269.842 322.229 270 322.229V322.229C270.159 322.229 270.311 322.291 270.424 322.402C270.537 322.513 270.602 322.664 270.605 322.823V348.408C270.602 348.567 270.537 348.718 270.424 348.829C270.311 348.94 270.159 349.002 270 349.002Z" fill="#0EBED9"/>
<path opacity="0.9" d="M270 349.002C269.842 349.002 269.689 348.94 269.576 348.829C269.463 348.718 269.398 348.567 269.395 348.408V322.823C269.398 322.664 269.463 322.513 269.576 322.402C269.689 322.291 269.842 322.229 270 322.229V322.229C270.159 322.229 270.311 322.291 270.424 322.402C270.537 322.513 270.602 322.664 270.605 322.823V348.408C270.602 348.567 270.537 348.718 270.424 348.829C270.311 348.94 270.159 349.002 270 349.002Z" fill="white"/>
<path d="M270 359.078C269.618 359.076 269.253 358.922 268.984 358.651C268.715 358.38 268.564 358.013 268.564 357.631V344.941C268.566 344.561 268.719 344.197 268.987 343.929C269.256 343.66 269.62 343.508 270 343.505V343.505C270.38 343.508 270.744 343.66 271.013 343.929C271.281 344.197 271.434 344.561 271.436 344.941V357.631C271.436 358.013 271.285 358.38 271.016 358.651C270.747 358.922 270.382 359.076 270 359.078V359.078Z" fill="black"/>
<path d="M317.671 290.79C318.373 292.399 317.023 294.538 314.647 295.574C312.271 296.611 309.787 296.147 309.096 294.494C308.405 292.842 309.744 290.747 312.109 289.71C314.474 288.673 316.969 289.192 317.671 290.79Z" fill="white"/>
<path d="M312.12 296.395C311.805 296.394 311.49 296.365 311.18 296.309C310.674 296.271 310.187 296.096 309.773 295.802C309.359 295.508 309.033 295.106 308.83 294.64C308.628 294.174 308.557 293.662 308.625 293.158C308.692 292.655 308.896 292.179 309.215 291.784C309.9 290.771 310.864 289.98 311.99 289.505C313.105 288.997 314.344 288.828 315.554 289.019C316.054 289.08 316.53 289.264 316.941 289.554C317.352 289.844 317.684 290.232 317.909 290.682C318.665 292.421 317.25 294.732 314.744 295.823C313.918 296.191 313.025 296.386 312.12 296.395ZM314.615 289.472C313.784 289.484 312.965 289.664 312.206 290.002C311.178 290.433 310.296 291.153 309.668 292.075C309.394 292.396 309.216 292.787 309.154 293.205C309.092 293.622 309.149 294.048 309.318 294.435C309.487 294.822 309.761 295.153 310.11 295.39C310.458 295.628 310.867 295.763 311.288 295.78C312.39 295.949 313.516 295.791 314.528 295.326C316.764 294.354 318.049 292.367 317.412 290.898C317.223 290.529 316.946 290.212 316.605 289.977C316.264 289.741 315.869 289.594 315.457 289.548C315.183 289.49 314.905 289.454 314.626 289.44L314.615 289.472Z" fill="#6FA926"/>
<path d="M248.778 329.206L248.432 328.795C259.124 319.896 277.744 307.141 305.672 296.892L305.856 297.4C278.003 307.627 259.438 320.339 248.778 329.206Z" fill="#6FA926"/>
<path d="M229.619 330.556C220.986 324.13 211.798 318.484 202.165 313.686L202.403 313.2C212.066 318.014 221.282 323.677 229.943 330.124L229.619 330.556Z" fill="#6FA926"/>
<path d="M193.622 309.96C190.497 308.708 187.307 307.627 184.064 306.72L184.216 306.202C187.475 307.11 190.684 308.191 193.828 309.442L193.622 309.96Z" fill="#0EBED9"/>
<path d="M292.896 297.216L292.734 296.708C295.958 295.681 299.235 294.826 302.551 294.149L302.659 294.678C299.363 295.355 296.104 296.202 292.896 297.216V297.216Z" fill="#6FA926"/>
</svg>
