<svg width="118" height="118" viewBox="0 0 118 118" fill="none" xmlns="http://www.w3.org/2000/svg">
<path d="M57.3713 0.597744L57.6373 8.87436C57.6457 9.01839 57.709 9.15372 57.8141 9.25261C57.9191 9.35149 58.058 9.40644 58.2023 9.40619H59.7978C59.9421 9.40644 60.081 9.35149 60.1861 9.25261C60.2911 9.15372 60.3544 9.01839 60.3629 8.87436L60.6288 0.597744C60.6343 0.514856 60.6214 0.431776 60.5911 0.354424C60.5609 0.277072 60.5139 0.207349 60.4536 0.150219C60.3933 0.0930879 60.3211 0.0499547 60.2423 0.0238924C60.1634 -0.00216983 60.0797 -0.0105211 59.9973 -0.00056698H57.9364C57.8593 -0.000700473 57.783 0.0149411 57.7122 0.0453943C57.6414 0.0758474 57.5776 0.120469 57.5246 0.176513C57.4717 0.232557 57.4308 0.298838 57.4044 0.371279C57.3781 0.44372 57.3668 0.520789 57.3713 0.597744Z" fill="url(#paint0_linear_301_1959)"/>
<g style="mix-blend-mode:multiply">
<path d="M53.7153 0.797512L54.4798 9.14061C54.4966 9.2846 54.568 9.41665 54.6794 9.50945C54.7907 9.60225 54.9335 9.6487 55.0781 9.6392H56.6736C56.8177 9.63072 56.953 9.56746 57.0519 9.46239C57.1508 9.35733 57.2057 9.21841 57.2055 9.07413L56.9728 0.797512C56.9686 0.723263 56.9497 0.65058 56.9173 0.583632C56.8849 0.516684 56.8396 0.456788 56.7841 0.407379C56.7285 0.35797 56.6637 0.32002 56.5934 0.295705C56.5231 0.271389 56.4487 0.261186 56.3745 0.265682H54.2472C54.1087 0.273613 53.978 0.332192 53.8799 0.430263C53.7818 0.528334 53.7233 0.659046 53.7153 0.797512Z" fill="url(#paint1_linear_301_1959)"/>
</g>
<g style="mix-blend-mode:multiply">
<path d="M50.0254 1.26293L51.3217 9.43983C51.3462 9.58407 51.4258 9.71316 51.5436 9.79995C51.6614 9.88675 51.8082 9.92446 51.9532 9.90518L53.5155 9.70574C53.6595 9.69726 53.7949 9.63399 53.8937 9.52893C53.9926 9.42386 54.0476 9.28495 54.0473 9.14067L53.3493 0.830812C53.3411 0.756402 53.3181 0.684371 53.2818 0.6189C53.2455 0.55343 53.1966 0.495827 53.1378 0.449438C53.079 0.403048 53.0117 0.368796 52.9395 0.348674C52.8674 0.328552 52.792 0.32296 52.7178 0.332222L50.5904 0.598137C50.507 0.596826 50.4244 0.613991 50.3484 0.648403C50.2724 0.682815 50.205 0.73362 50.151 0.797169C50.097 0.860719 50.0577 0.93544 50.036 1.01597C50.0143 1.09649 50.0106 1.18083 50.0254 1.26293Z" fill="url(#paint2_linear_301_1959)"/>
</g>
<g style="mix-blend-mode:multiply">
<path d="M46.4358 1.92762L48.264 10.0048C48.2959 10.1497 48.3835 10.2762 48.5078 10.357C48.6322 10.4379 48.7834 10.4666 48.9287 10.4369L50.491 10.1378C50.6352 10.1132 50.7643 10.0337 50.8511 9.91589C50.9379 9.7981 50.9756 9.65124 50.9564 9.50621L49.6933 1.3293C49.6813 1.25457 49.6544 1.18301 49.6142 1.11887C49.574 1.05473 49.5214 0.99931 49.4594 0.955906C49.3974 0.912502 49.3273 0.881998 49.2532 0.866202C49.1792 0.850407 49.1028 0.849642 49.0285 0.863955L46.9344 1.26283C46.8567 1.27072 46.7815 1.29461 46.7135 1.33302C46.6455 1.37143 46.5863 1.4235 46.5394 1.48596C46.4926 1.54843 46.4592 1.61992 46.4413 1.69594C46.4235 1.77195 46.4216 1.85084 46.4358 1.92762Z" fill="url(#paint3_linear_301_1959)"/>
</g>
<g style="mix-blend-mode:multiply">
<path d="M42.8799 2.82485L45.2067 10.7691C45.2457 10.9078 45.3363 11.0264 45.4599 11.1005C45.5835 11.1746 45.7307 11.1988 45.8715 11.1679L47.4005 10.7691C47.5392 10.73 47.6578 10.6394 47.7319 10.5159C47.8061 10.3923 47.8302 10.2451 47.7994 10.1043L46.0377 2.0271C46.0222 1.95184 45.9914 1.88054 45.9474 1.81756C45.9034 1.75457 45.847 1.70123 45.7817 1.66078C45.7163 1.62034 45.6435 1.59364 45.5675 1.58233C45.4914 1.57102 45.4139 1.57532 45.3397 1.59499L43.3785 2.12682C43.2974 2.13404 43.2187 2.15873 43.148 2.19919C43.0773 2.23965 43.0161 2.29492 42.9688 2.36123C42.9214 2.42753 42.889 2.50329 42.8736 2.58331C42.8583 2.66334 42.8604 2.74573 42.8799 2.82485Z" fill="url(#paint4_linear_301_1959)"/>
</g>
<g style="mix-blend-mode:multiply">
<path d="M39.389 3.95498L42.2144 11.733C42.2667 11.8667 42.368 11.9755 42.4976 12.0373C42.6273 12.099 42.7756 12.1091 42.9124 12.0654L44.4082 11.5668C44.548 11.521 44.6645 11.4224 44.7327 11.292C44.801 11.1617 44.8157 11.0098 44.7738 10.8688L42.4803 2.92456C42.4648 2.8493 42.4341 2.778 42.39 2.71502C42.346 2.65203 42.2896 2.59869 42.2243 2.55824C42.1589 2.5178 42.0861 2.4911 42.01 2.47979C41.934 2.46848 41.8565 2.47278 41.7823 2.49245L39.7546 3.15724C39.6732 3.1782 39.5975 3.21706 39.533 3.271C39.4685 3.32494 39.4169 3.39259 39.3818 3.46903C39.3468 3.54546 39.3293 3.62875 39.3305 3.71282C39.3317 3.79689 39.3517 3.87962 39.389 3.95498Z" fill="url(#paint5_linear_301_1959)"/>
</g>
<g style="mix-blend-mode:multiply">
<path d="M35.9651 5.28513L39.2891 12.8637C39.3477 12.9993 39.457 13.1064 39.5937 13.1624C39.7304 13.2183 39.8835 13.2184 40.0203 13.1629L41.4829 12.4649C41.6166 12.4125 41.7254 12.3112 41.7871 12.1816C41.8489 12.0519 41.8589 11.9036 41.8153 11.7668L39.0231 3.98879C38.9973 3.91872 38.9578 3.85446 38.9069 3.79975C38.8561 3.74503 38.7949 3.70095 38.7269 3.67004C38.6588 3.63912 38.5854 3.622 38.5107 3.61966C38.4361 3.61732 38.3617 3.62981 38.2919 3.6564L36.2975 4.45415C36.2143 4.47773 36.1377 4.52009 36.0734 4.57795C36.0092 4.63582 35.9591 4.70765 35.927 4.78792C35.8949 4.86819 35.8816 4.95476 35.8882 5.04096C35.8949 5.12716 35.9212 5.21069 35.9651 5.28513Z" fill="url(#paint6_linear_301_1959)"/>
</g>
<g style="mix-blend-mode:multiply">
<path d="M32.6417 6.84644L36.431 14.2256C36.4956 14.3552 36.6075 14.455 36.7435 14.5045C36.8796 14.5539 37.0295 14.5493 37.1622 14.4915L38.5915 13.8267C38.7211 13.7621 38.8209 13.6502 38.8704 13.5141C38.9199 13.3781 38.9152 13.2282 38.8574 13.0955L35.5335 5.48362C35.5047 5.41239 35.4616 5.3478 35.4069 5.29378C35.3523 5.23977 35.2872 5.19747 35.2156 5.16947C35.1441 5.14147 35.0676 5.12836 34.9908 5.13093C34.914 5.13351 34.8385 5.15173 34.769 5.18446L32.8411 6.08193C32.7146 6.15803 32.6228 6.28065 32.5856 6.42353C32.5483 6.56642 32.5684 6.71821 32.6417 6.84644Z" fill="url(#paint7_linear_301_1959)"/>
</g>
<g style="mix-blend-mode:multiply">
<path d="M29.4171 8.60796L33.6385 15.7877C33.7146 15.9142 33.8372 16.0059 33.9801 16.0432C34.123 16.0805 34.2748 16.0603 34.403 15.9871L35.799 15.2226C35.8645 15.1877 35.9225 15.1402 35.9696 15.0829C36.0167 15.0256 36.0521 14.9595 36.0737 14.8885C36.0953 14.8175 36.1027 14.743 36.0955 14.6691C36.0883 14.5953 36.0666 14.5236 36.0317 14.4581L32.2757 7.07894C32.2407 7.01347 32.1933 6.95551 32.136 6.90838C32.0786 6.86125 32.0126 6.82587 31.9416 6.80427C31.8706 6.78266 31.7961 6.77525 31.7222 6.78246C31.6484 6.78966 31.5766 6.81135 31.5112 6.84627L29.6498 7.87669C29.526 7.94691 29.4334 8.06121 29.3902 8.19677C29.3471 8.33232 29.3567 8.47916 29.4171 8.60796Z" fill="url(#paint8_linear_301_1959)"/>
</g>
<g style="mix-blend-mode:multiply">
<path d="M26.3259 10.5365L30.9795 17.3838C31.0837 17.4796 31.2201 17.5327 31.3617 17.5327C31.5033 17.5327 31.6397 17.4796 31.744 17.3838L33.0735 16.5196C33.1436 16.4937 33.2079 16.4542 33.2626 16.4033C33.3173 16.3525 33.3614 16.2913 33.3923 16.2233C33.4232 16.1553 33.4403 16.0818 33.4427 16.0071C33.445 15.9325 33.4325 15.8581 33.4059 15.7883L29.0848 8.80801C29.0471 8.74084 28.9962 8.68208 28.935 8.63533C28.8738 8.58858 28.8037 8.55483 28.729 8.53616C28.6543 8.51748 28.5765 8.51427 28.5005 8.52673C28.4245 8.53918 28.3519 8.56703 28.2871 8.60858L26.4921 9.77196C26.3711 9.85333 26.2863 9.97832 26.2553 10.1208C26.2244 10.2633 26.2497 10.4122 26.3259 10.5365Z" fill="url(#paint9_linear_301_1959)"/>
</g>
<g style="mix-blend-mode:multiply">
<path d="M23.434 12.6969L28.5196 19.3448C28.6239 19.4406 28.7603 19.4937 28.9019 19.4937C29.0434 19.4937 29.1799 19.4406 29.2841 19.3448L30.5805 18.4141C30.6762 18.3098 30.7294 18.1734 30.7294 18.0318C30.7294 17.8903 30.6762 17.7539 30.5805 17.6496L25.9269 10.8023C25.821 10.6967 25.6776 10.6375 25.5281 10.6375C25.3785 10.6375 25.2351 10.6967 25.1292 10.8023L23.434 11.8992C23.3284 12.0051 23.2692 12.1485 23.2692 12.298C23.2692 12.4476 23.3284 12.591 23.434 12.6969Z" fill="url(#paint10_linear_301_1959)"/>
</g>
<g style="mix-blend-mode:multiply">
<path d="M20.5094 15.0239L25.9939 21.2065C26.0998 21.312 26.2433 21.3713 26.3928 21.3713C26.5423 21.3713 26.6858 21.312 26.7917 21.2065L28.0215 20.2093C28.1173 20.105 28.1704 19.9686 28.1704 19.827C28.1704 19.6855 28.1173 19.5491 28.0215 19.4448L22.9691 12.7969C22.8632 12.6914 22.7198 12.6321 22.5703 12.6321C22.4207 12.6321 22.2773 12.6914 22.1714 12.7969L20.5094 14.1597C20.4465 14.2128 20.3959 14.2789 20.3612 14.3536C20.3265 14.4282 20.3085 14.5095 20.3085 14.5918C20.3085 14.6741 20.3265 14.7555 20.3612 14.8301C20.3959 14.9047 20.4465 14.9709 20.5094 15.0239Z" fill="url(#paint11_linear_301_1959)"/>
</g>
<g style="mix-blend-mode:multiply">
<path d="M17.8171 17.5169L23.6673 23.367C23.7732 23.4726 23.9166 23.5318 24.0661 23.5318C24.2157 23.5318 24.3591 23.4726 24.465 23.367L25.6284 22.4363C25.7339 22.3304 25.7932 22.1869 25.7932 22.0374C25.7932 21.8879 25.7339 21.7445 25.6284 21.6386L20.1106 15.2898C20.0047 15.1843 19.8613 15.125 19.7118 15.125C19.5622 15.125 19.4188 15.1843 19.3129 15.2898L17.7506 16.7524C17.6635 16.8648 17.6219 17.0059 17.6342 17.1476C17.6465 17.2893 17.7119 17.4212 17.8171 17.5169Z" fill="url(#paint12_linear_301_1959)"/>
</g>
<g style="mix-blend-mode:multiply">
<path d="M15.2902 20.2087L21.506 25.7597C21.6119 25.8652 21.7553 25.9245 21.9048 25.9245C22.0544 25.9245 22.1978 25.8652 22.3037 25.7597L23.4339 24.4633C23.5394 24.3574 23.5987 24.214 23.5987 24.0645C23.5987 23.9149 23.5394 23.7715 23.4339 23.6656L17.5172 17.8155C17.4113 17.7099 17.2679 17.6506 17.1184 17.6506C16.9688 17.6506 16.8254 17.7099 16.7195 17.8155L15.257 19.3777C15.2016 19.4329 15.1583 19.4989 15.1298 19.5717C15.1013 19.6445 15.0881 19.7224 15.0913 19.8005C15.0944 19.8786 15.1137 19.9552 15.1479 20.0255C15.1822 20.0957 15.2306 20.1581 15.2902 20.2087Z" fill="url(#paint13_linear_301_1959)"/>
</g>
<g style="mix-blend-mode:multiply">
<path d="M12.9303 23.0343L19.5781 28.0867C19.6824 28.1824 19.8188 28.2356 19.9604 28.2356C20.102 28.2356 20.2384 28.1824 20.3427 28.0867L21.3398 26.8568C21.4454 26.7509 21.5047 26.6075 21.5047 26.4579C21.5047 26.3084 21.4454 26.165 21.3398 26.0591L15.0243 20.5081C14.9184 20.4025 14.775 20.3433 14.6255 20.3433C14.4759 20.3433 14.3325 20.4025 14.2266 20.5081L12.8638 22.17C12.8046 22.2278 12.7589 22.2978 12.7298 22.3751C12.7006 22.4525 12.6888 22.5353 12.6951 22.6177C12.7015 22.7001 12.7258 22.7801 12.7664 22.8521C12.8071 22.9241 12.863 22.9863 12.9303 23.0343Z" fill="url(#paint14_linear_301_1959)"/>
</g>
<g style="mix-blend-mode:multiply">
<path d="M10.7704 25.992L17.6177 30.6456C17.722 30.7413 17.8584 30.7945 18 30.7945C18.1415 30.7945 18.278 30.7413 18.3822 30.6456L19.3462 29.0833C19.4419 28.979 19.4951 28.8426 19.4951 28.7011C19.4951 28.5595 19.4419 28.4231 19.3462 28.3188L12.6983 23.2332C12.5924 23.1276 12.4489 23.0684 12.2994 23.0684C12.1499 23.0684 12.0065 23.1276 11.9005 23.2332L10.6374 24.9616C10.5421 25.0178 10.4654 25.1007 10.4168 25.2001C10.3682 25.2995 10.3499 25.411 10.364 25.5207C10.3782 25.6304 10.4242 25.7336 10.4965 25.8174C10.5687 25.9011 10.664 25.9619 10.7704 25.992Z" fill="url(#paint15_linear_301_1959)"/>
</g>
<g style="mix-blend-mode:multiply">
<path d="M8.80904 29.0843L15.9555 33.2725C16.0193 33.321 16.0927 33.3554 16.1708 33.3734C16.2489 33.3914 16.3299 33.3926 16.4085 33.3769C16.4871 33.3611 16.5615 33.3289 16.6266 33.2822C16.6918 33.2356 16.7463 33.1756 16.7865 33.1063L17.6507 31.7767C17.7465 31.6724 17.7996 31.536 17.7996 31.3944C17.7996 31.2529 17.7465 31.1164 17.6507 31.0122L10.8034 26.3587C10.6975 26.2531 10.5541 26.1938 10.4045 26.1938C10.255 26.1938 10.1116 26.2531 10.0057 26.3587L8.87551 28.1536C8.79611 28.1999 8.72921 28.2649 8.68062 28.343C8.63202 28.421 8.6032 28.5097 8.59665 28.6014C8.5901 28.6931 8.60602 28.785 8.64303 28.8691C8.68004 28.9533 8.73702 29.0271 8.80904 29.0843Z" fill="url(#paint16_linear_301_1959)"/>
</g>
<g style="mix-blend-mode:multiply">
<path d="M7.01427 32.4075L14.3934 36.1636C14.4717 36.1944 14.5559 36.2074 14.6399 36.2016C14.7238 36.1957 14.8054 36.1712 14.8787 36.1298C14.952 36.0884 15.0151 36.0311 15.0634 35.9622C15.1117 35.8933 15.144 35.8145 15.1579 35.7314L15.9224 34.3354C15.9957 34.2072 16.0158 34.0554 15.9785 33.9125C15.9413 33.7696 15.8495 33.647 15.723 33.5709L8.57652 29.416C8.51169 29.3744 8.43904 29.3466 8.36305 29.3341C8.28706 29.3216 8.20932 29.3249 8.13462 29.3435C8.05991 29.3622 7.98981 29.396 7.92862 29.4427C7.86743 29.4895 7.81644 29.5482 7.77878 29.6154L6.81483 31.51C6.75478 31.5769 6.71156 31.6572 6.68876 31.7442C6.66596 31.8311 6.66424 31.9223 6.68374 32.0101C6.70325 32.0978 6.74341 32.1797 6.8009 32.2488C6.85838 32.3179 6.93153 32.3723 7.01427 32.4075Z" fill="url(#paint17_linear_301_1959)"/>
</g>
<g style="mix-blend-mode:multiply">
<path d="M5.45225 35.7317L13.0641 39.0557C13.1968 39.1135 13.3467 39.1181 13.4828 39.0686C13.6188 39.0192 13.7307 38.9193 13.7953 38.7898L14.4601 37.3605C14.5179 37.2277 14.5226 37.0778 14.4731 36.9418C14.4236 36.8057 14.3238 36.6938 14.1942 36.6292L6.81507 32.6405C6.74759 32.6067 6.67404 32.5868 6.59876 32.582C6.52348 32.5771 6.44798 32.5874 6.37673 32.6122C6.30548 32.637 6.23991 32.6758 6.18389 32.7263C6.12787 32.7768 6.08254 32.838 6.05056 32.9064L5.1531 34.8343C5.09478 34.9079 5.05571 34.9948 5.03944 35.0873C5.02316 35.1798 5.03019 35.2748 5.05988 35.3639C5.08957 35.453 5.141 35.5333 5.2095 35.5975C5.27801 35.6617 5.36144 35.7079 5.45225 35.7317Z" fill="url(#paint18_linear_301_1959)"/>
</g>
<g style="mix-blend-mode:multiply">
<path d="M4.08958 39.0555L11.8676 41.8476C12.0044 41.8913 12.1527 41.8812 12.2824 41.8195C12.412 41.7577 12.5133 41.6489 12.5656 41.5152L13.1639 40.0527C13.2195 39.9158 13.2193 39.7627 13.1634 39.6261C13.1075 39.4894 13.0003 39.38 12.8648 39.3214L5.2862 35.9974C5.21668 35.9647 5.14122 35.9465 5.06442 35.9439C4.98762 35.9413 4.9111 35.9545 4.83955 35.9825C4.76799 36.0105 4.70289 36.0528 4.64824 36.1068C4.59359 36.1608 4.55053 36.2254 4.52169 36.2966L3.72395 38.291C3.69261 38.3647 3.67732 38.4443 3.67909 38.5245C3.68087 38.6046 3.69968 38.6834 3.73426 38.7557C3.76884 38.828 3.8184 38.8922 3.87967 38.9438C3.94093 38.9955 4.01248 39.0336 4.08958 39.0555Z" fill="url(#paint19_linear_301_1959)"/>
</g>
<g style="mix-blend-mode:multiply">
<path d="M2.92566 42.3798L10.8699 44.6734C11.0109 44.7153 11.1628 44.7006 11.2931 44.6323C11.4235 44.564 11.5221 44.4476 11.5679 44.3077L12.0665 42.812C12.052 42.7177 12.014 42.6287 11.9559 42.5532C11.8977 42.4776 11.8215 42.418 11.7341 42.3798L3.95608 39.3883C3.88416 39.3624 3.80774 39.3514 3.73144 39.356C3.65515 39.3605 3.58057 39.3805 3.51221 39.4146C3.44385 39.4488 3.38313 39.4965 3.33373 39.5548C3.28434 39.6131 3.24728 39.6809 3.22481 39.7539L2.56002 41.7815C2.54469 41.9079 2.57246 42.0357 2.63882 42.1443C2.70517 42.2529 2.80624 42.3359 2.92566 42.3798Z" fill="url(#paint20_linear_301_1959)"/>
</g>
<g style="mix-blend-mode:multiply">
<path d="M1.9954 46.069L10.1391 47.8306C10.2798 47.8615 10.4271 47.8373 10.5506 47.7632C10.6742 47.689 10.7648 47.5705 10.8038 47.4318L11.2027 45.9028C11.2335 45.762 11.2094 45.6147 11.1353 45.4912C11.0611 45.3676 10.9426 45.277 10.8038 45.238L2.85962 42.9112C2.7876 42.8911 2.71229 42.8855 2.63808 42.8947C2.56387 42.9039 2.49222 42.9277 2.42729 42.9648C2.36236 43.0019 2.30544 43.0516 2.25984 43.1108C2.21423 43.1701 2.18083 43.2378 2.1616 43.3101L1.62976 45.3709C1.58782 45.512 1.60256 45.6638 1.67084 45.7942C1.73912 45.9245 1.85556 46.0231 1.9954 46.069Z" fill="url(#paint21_linear_301_1959)"/>
</g>
<g style="mix-blend-mode:multiply">
<path d="M1.29633 49.6592L9.47324 50.9223C9.61858 50.952 9.76976 50.9233 9.89414 50.8424C10.0185 50.7616 10.1061 50.6351 10.138 50.4902L10.4372 49.0277C10.4699 48.9581 10.4881 48.8827 10.4907 48.8059C10.4933 48.7291 10.4802 48.6526 10.4522 48.581C10.4242 48.5095 10.3819 48.4444 10.3279 48.3897C10.2738 48.3351 10.2092 48.292 10.138 48.2632L2.06084 46.435C1.91549 46.4053 1.76431 46.434 1.63994 46.5149C1.51556 46.5957 1.42796 46.7222 1.39605 46.8671L0.830983 49.0277C0.811696 49.1727 0.849417 49.3196 0.936209 49.4374C1.023 49.5551 1.1521 49.6347 1.29633 49.6592Z" fill="url(#paint22_linear_301_1959)"/>
</g>
<g style="mix-blend-mode:multiply">
<path d="M0.831829 53.2827L9.07521 54.0472C9.21986 54.0567 9.36262 54.0102 9.47398 53.9174C9.58534 53.8246 9.65678 53.6926 9.67352 53.5486L9.87296 51.9864C9.89224 51.8413 9.85452 51.6945 9.76773 51.5767C9.68094 51.4589 9.55184 51.3793 9.40761 51.3548L1.2307 50.0585C1.15392 50.0443 1.07504 50.0462 0.999022 50.064C0.923007 50.0818 0.851514 50.1152 0.789051 50.1621C0.726588 50.2089 0.674512 50.2682 0.636106 50.3362C0.597701 50.4042 0.573801 50.4794 0.565913 50.5571L0.16704 52.6511C0.154948 52.7399 0.164119 52.8302 0.193799 52.9147C0.223478 52.9992 0.272816 53.0754 0.337743 53.1371C0.402671 53.1988 0.48133 53.2442 0.567235 53.2695C0.65314 53.2948 0.74383 53.2993 0.831829 53.2827Z" fill="url(#paint23_linear_301_1959)"/>
</g>
<g style="mix-blend-mode:multiply">
<path d="M0.598834 56.9715L8.87545 57.2042C9.01973 57.2044 9.15864 57.1495 9.26371 57.0506C9.36878 56.9517 9.43204 56.8164 9.44052 56.6723V55.0768C9.45002 54.9322 9.40356 54.7894 9.31077 54.6781C9.21797 54.5667 9.08592 54.4953 8.94193 54.4785L0.698552 53.6808C0.621684 53.6716 0.543743 53.6782 0.469564 53.7004C0.395386 53.7226 0.326552 53.7597 0.267334 53.8096C0.208117 53.8595 0.159778 53.921 0.125316 53.9903C0.090855 54.0596 0.0710066 54.1353 0.0670025 54.2126V56.3399C0.0577909 56.4168 0.0644731 56.4947 0.0866341 56.5689C0.108795 56.6431 0.145962 56.7119 0.19583 56.7711C0.245697 56.8304 0.307202 56.8787 0.376527 56.9132C0.445852 56.9476 0.521519 56.9675 0.598834 56.9715Z" fill="url(#paint24_linear_301_1959)"/>
</g>
<g style="mix-blend-mode:multiply">
<path d="M0.565595 60.6278L8.84221 60.3619C8.98625 60.3534 9.12158 60.2902 9.22046 60.1851C9.31935 60.08 9.3743 59.9411 9.37405 59.7968V58.2013C9.3743 58.0571 9.31935 57.9182 9.22046 57.8131C9.12158 57.708 8.98625 57.6448 8.84221 57.6363L0.565595 57.3704C0.488641 57.3658 0.411573 57.3771 0.339132 57.4034C0.266691 57.4298 0.200409 57.4707 0.144365 57.5236C0.0883207 57.5766 0.0436996 57.6404 0.0132465 57.7112C-0.0172067 57.782 -0.0328475 57.8583 -0.032714 57.9354V60.0628C-0.0328475 60.1398 -0.0172067 60.2161 0.0132465 60.287C0.0436996 60.3578 0.0883207 60.4216 0.144365 60.4745C0.200409 60.5275 0.266691 60.5684 0.339132 60.5947C0.411573 60.6211 0.488641 60.6324 0.565595 60.6278Z" fill="url(#paint25_linear_301_1959)"/>
</g>
<g style="mix-blend-mode:multiply">
<path d="M0.797988 64.2846L9.04137 63.4869C9.18536 63.4701 9.3174 63.3987 9.4102 63.2873C9.503 63.176 9.54946 63.0332 9.53996 62.8886V61.2931C9.53147 61.149 9.46821 61.0137 9.36315 60.9148C9.25808 60.8159 9.11917 60.761 8.97489 60.7612L0.69827 60.9939C0.62402 60.9981 0.551337 61.017 0.48439 61.0494C0.417442 61.0818 0.357546 61.1271 0.308137 61.1826C0.258727 61.2382 0.220777 61.303 0.196461 61.3733C0.172146 61.4436 0.161943 61.518 0.166439 61.5922V63.7195C0.165882 63.7997 0.182381 63.879 0.214841 63.9523C0.247301 64.0256 0.294979 64.0911 0.35471 64.1446C0.41444 64.198 0.484856 64.2381 0.561282 64.2623C0.637708 64.2864 0.718396 64.294 0.797988 64.2846Z" fill="url(#paint26_linear_301_1959)"/>
</g>
<g style="mix-blend-mode:multiply">
<path d="M1.23078 67.9406L9.40769 66.6443C9.55192 66.6197 9.68102 66.5402 9.76781 66.4224C9.8546 66.3046 9.89232 66.1578 9.87304 66.0127L9.6736 64.4505C9.65686 64.3065 9.58542 64.1745 9.47406 64.0817C9.3627 63.9889 9.21994 63.9424 9.07529 63.9519L0.831912 64.7164C0.757502 64.7246 0.685469 64.7476 0.619999 64.7839C0.554528 64.8202 0.496925 64.8691 0.450536 64.9279C0.404147 64.9867 0.369896 65.0541 0.349774 65.1262C0.329652 65.1983 0.324059 65.2737 0.33332 65.348L0.599236 67.4753C0.623779 67.6195 0.703311 67.7486 0.8211 67.8354C0.938889 67.9222 1.08575 67.9599 1.23078 67.9406Z" fill="url(#paint27_linear_301_1959)"/>
</g>
<g style="mix-blend-mode:multiply">
<path d="M1.92884 71.5643L10.139 69.7362C10.2102 69.7073 10.2748 69.6643 10.3288 69.6096C10.3828 69.555 10.4251 69.4899 10.4531 69.4183C10.4811 69.3467 10.4942 69.2702 10.4917 69.1934C10.4891 69.1166 10.4709 69.0412 10.4381 68.9716L10.139 67.5091C10.1144 67.3649 10.0349 67.2358 9.91712 67.149C9.79933 67.0622 9.65246 67.0245 9.50743 67.0438L1.33053 68.3069C1.2558 68.3188 1.18423 68.3457 1.12009 68.3859C1.05595 68.4261 1.00053 68.4787 0.957127 68.5407C0.913723 68.6028 0.883219 68.6728 0.867423 68.7469C0.851627 68.8209 0.850863 68.8973 0.865175 68.9716L1.26405 71.0657C1.27194 71.1434 1.29584 71.2186 1.33424 71.2866C1.37265 71.3546 1.42472 71.4139 1.48719 71.4607C1.54965 71.5075 1.62114 71.5409 1.69716 71.5588C1.77317 71.5766 1.85206 71.5785 1.92884 71.5643Z" fill="url(#paint28_linear_301_1959)"/>
</g>
<g style="mix-blend-mode:multiply">
<path d="M2.82542 75.1204L10.7696 72.7936C10.9084 72.7546 11.0269 72.664 11.1011 72.5404C11.1752 72.4168 11.1993 72.2696 11.1685 72.1288L10.7696 70.5998C10.7378 70.4617 10.6551 70.3406 10.5381 70.2606C10.4212 70.1805 10.2784 70.1474 10.1381 70.1677L2.06091 71.9626C1.98566 71.9782 1.91436 72.0089 1.85137 72.0529C1.78839 72.0969 1.73504 72.1533 1.6946 72.2186C1.65415 72.284 1.62746 72.3569 1.61614 72.4329C1.60483 72.5089 1.60914 72.5864 1.6288 72.6607L2.16063 74.7215C2.19968 74.8602 2.29026 74.9788 2.41384 75.0529C2.53741 75.1271 2.68464 75.1512 2.82542 75.1204Z" fill="url(#paint29_linear_301_1959)"/>
</g>
<g style="mix-blend-mode:multiply">
<path d="M3.95611 78.6106L11.7341 75.619C11.8679 75.5667 11.9767 75.4654 12.0384 75.3357C12.1001 75.2061 12.1102 75.0578 12.0665 74.921L11.5679 73.4252C11.5221 73.2854 11.4235 73.1689 11.2932 73.1006C11.1628 73.0324 11.011 73.0176 10.8699 73.0596L2.92569 75.619C2.85263 75.6415 2.7849 75.6785 2.72658 75.7279C2.66826 75.7773 2.62057 75.838 2.58639 75.9064C2.55221 75.9748 2.53225 76.0494 2.52773 76.1257C2.5232 76.2019 2.5342 76.2784 2.56005 76.3503L3.22484 78.3779C3.29507 78.5016 3.40937 78.5943 3.54492 78.6374C3.68047 78.6805 3.82731 78.671 3.95611 78.6106Z" fill="url(#paint30_linear_301_1959)"/>
</g>
<g style="mix-blend-mode:multiply">
<path d="M5.28563 82.0341L12.8642 78.7102C12.9998 78.6516 13.1069 78.5422 13.1629 78.4055C13.2188 78.2689 13.219 78.1157 13.1634 77.9789L12.5651 76.5164C12.5127 76.3827 12.4115 76.2739 12.2818 76.2121C12.1521 76.1504 12.0038 76.1403 11.867 76.184L4.08901 78.9429C4.01894 78.9687 3.95468 79.0082 3.89997 79.0591C3.84525 79.1099 3.80117 79.1711 3.77025 79.2392C3.73934 79.3072 3.72222 79.3806 3.71988 79.4553C3.71754 79.5299 3.73003 79.6043 3.75662 79.6741L4.55437 81.6685C4.57684 81.7415 4.61389 81.8093 4.66329 81.8676C4.71269 81.9259 4.7734 81.9736 4.84176 82.0078C4.91012 82.042 4.9847 82.0619 5.061 82.0665C5.13729 82.071 5.21371 82.06 5.28563 82.0341Z" fill="url(#paint31_linear_301_1959)"/>
</g>
<g style="mix-blend-mode:multiply">
<path d="M6.81494 85.3584L14.1941 81.6024C14.3237 81.5378 14.4235 81.4259 14.473 81.2898C14.5225 81.1537 14.5178 81.0039 14.46 80.8711L13.7952 79.4418C13.7306 79.3122 13.6187 79.2124 13.4826 79.1629C13.3466 79.1134 13.1967 79.1181 13.064 79.1759L5.45212 82.2672C5.3809 82.296 5.31631 82.3391 5.26229 82.3937C5.20828 82.4484 5.16597 82.5135 5.13797 82.585C5.10997 82.6566 5.09686 82.7331 5.09944 82.8099C5.10202 82.8867 5.12023 82.9621 5.15297 83.0317L6.05043 84.9596C6.0685 85.0396 6.10378 85.1148 6.15384 85.1798C6.20389 85.2448 6.2675 85.2982 6.34026 85.3361C6.41302 85.3741 6.49317 85.3958 6.57514 85.3996C6.65712 85.4035 6.73895 85.3894 6.81494 85.3584Z" fill="url(#paint32_linear_301_1959)"/>
</g>
<g style="mix-blend-mode:multiply">
<path d="M8.57577 88.5824L15.689 84.361C15.8155 84.2849 15.9073 84.1623 15.9445 84.0194C15.9818 83.8765 15.9617 83.7247 15.8884 83.5965L15.1572 82.2669C15.0866 82.1347 14.9665 82.0359 14.8231 81.9923C14.6797 81.9486 14.5249 81.9637 14.3927 82.0343L7.01351 85.5909C6.88128 85.6614 6.78247 85.7816 6.73884 85.9249C6.6952 86.0683 6.71031 86.2231 6.78083 86.3554L7.81126 88.3497C7.88178 88.482 8.00195 88.5808 8.14532 88.6244C8.2887 88.6681 8.44353 88.6529 8.57577 88.5824Z" fill="url(#paint33_linear_301_1959)"/>
</g>
<g style="mix-blend-mode:multiply">
<path d="M10.5377 91.6741L17.385 87.0206C17.4808 86.9163 17.5339 86.7799 17.5339 86.6383C17.5339 86.4967 17.4808 86.3603 17.385 86.256L16.7867 84.8932C16.7106 84.7667 16.588 84.675 16.4451 84.6377C16.3022 84.6004 16.1504 84.6206 16.0222 84.6938L8.80924 88.9152C8.74207 88.9529 8.6833 89.0038 8.63656 89.065C8.58981 89.1262 8.55606 89.1963 8.53738 89.271C8.5187 89.3457 8.51549 89.4235 8.52795 89.4995C8.5404 89.5755 8.56825 89.6481 8.6098 89.713L9.73994 91.5079C9.78037 91.5723 9.8334 91.628 9.89586 91.6715C9.95832 91.7149 10.0289 91.7453 10.1034 91.7609C10.1779 91.7764 10.2548 91.7767 10.3294 91.7618C10.404 91.7469 10.4749 91.717 10.5377 91.6741Z" fill="url(#paint34_linear_301_1959)"/>
</g>
<g style="mix-blend-mode:multiply">
<path d="M12.698 94.6658L19.3459 89.5801C19.4417 89.4759 19.4948 89.3394 19.4948 89.1979C19.4948 89.0563 19.4417 88.9199 19.3459 88.8156L18.4152 87.5193C18.3109 87.4235 18.1745 87.3704 18.0329 87.3704C17.8914 87.3704 17.755 87.4235 17.6507 87.5193L10.8034 92.1728C10.6978 92.2787 10.6385 92.4221 10.6385 92.5717C10.6385 92.7212 10.6978 92.8646 10.8034 92.9705L12.0665 94.699C12.163 94.7571 12.2748 94.7849 12.3873 94.779C12.4999 94.7731 12.6081 94.7336 12.698 94.6658Z" fill="url(#paint35_linear_301_1959)"/>
</g>
<g style="mix-blend-mode:multiply">
<path d="M15.0244 97.4911L21.2069 92.0066C21.3027 91.9023 21.3559 91.7659 21.3559 91.6243C21.3559 91.4827 21.3027 91.3463 21.2069 91.2421L20.11 90.0122C20.0058 89.9164 19.8694 89.8633 19.7278 89.8633C19.5862 89.8633 19.4498 89.9164 19.3455 90.0122L12.6977 95.0646C12.5921 95.1705 12.5328 95.3139 12.5328 95.4635C12.5328 95.613 12.5921 95.7564 12.6977 95.8623L14.0605 97.5243C14.1138 97.6052 14.1869 97.671 14.273 97.7154C14.359 97.7599 14.455 97.7814 14.5518 97.7781C14.6485 97.7748 14.7428 97.7466 14.8256 97.6964C14.9084 97.6461 14.9768 97.5754 15.0244 97.4911Z" fill="url(#paint36_linear_301_1959)"/>
</g>
<g style="mix-blend-mode:multiply">
<path d="M17.518 100.183L23.4346 94.2999C23.5401 94.194 23.5994 94.0505 23.5994 93.901C23.5994 93.7515 23.5401 93.608 23.4346 93.5021L22.3044 92.239C22.1985 92.1335 22.0551 92.0742 21.9056 92.0742C21.756 92.0742 21.6126 92.1335 21.5067 92.239L15.2909 97.79C15.1854 97.8959 15.1261 98.0394 15.1261 98.1889C15.1261 98.3384 15.1854 98.4818 15.2909 98.5878L16.7867 100.183C16.8888 100.27 17.0184 100.317 17.1523 100.317C17.2863 100.317 17.4158 100.27 17.518 100.183Z" fill="url(#paint37_linear_301_1959)"/>
</g>
<g style="mix-blend-mode:multiply">
<path d="M20.1102 102.709L25.5615 96.4935C25.667 96.3876 25.7263 96.2442 25.7263 96.0947C25.7263 95.9451 25.667 95.8017 25.5615 95.6958L24.3981 94.5989C24.2922 94.4933 24.1487 94.4341 23.9992 94.4341C23.8497 94.4341 23.7062 94.4933 23.6003 94.5989L17.8167 100.482C17.7111 100.588 17.6519 100.732 17.6519 100.881C17.6519 101.031 17.7111 101.174 17.8167 101.28L19.3789 102.743C19.4849 102.825 19.6167 102.866 19.7507 102.86C19.8846 102.854 20.0121 102.801 20.1102 102.709Z" fill="url(#paint38_linear_301_1959)"/>
</g>
<g style="mix-blend-mode:multiply">
<path d="M23.0354 105.036L28.0878 98.3886C28.1835 98.2843 28.2367 98.1479 28.2367 98.0063C28.2367 97.8647 28.1835 97.7283 28.0878 97.624L26.7582 96.7266C26.6523 96.621 26.5088 96.5618 26.3593 96.5618C26.2098 96.5618 26.0664 96.621 25.9604 96.7266L20.5092 102.976C20.4036 103.082 20.3444 103.225 20.3444 103.374C20.3444 103.524 20.4036 103.667 20.5092 103.773L22.1711 105.136C22.2312 105.194 22.3031 105.237 22.3818 105.264C22.4606 105.29 22.5442 105.299 22.6267 105.289C22.7092 105.28 22.7886 105.252 22.8593 105.209C22.9299 105.165 22.99 105.106 23.0354 105.036Z" fill="url(#paint39_linear_301_1959)"/>
</g>
<g style="mix-blend-mode:multiply">
<path d="M25.9935 107.23L30.647 100.383C30.7428 100.278 30.7959 100.142 30.7959 100C30.7959 99.8589 30.7428 99.7225 30.647 99.6182L29.3506 98.6875C29.2464 98.5917 29.11 98.5386 28.9684 98.5386C28.8268 98.5386 28.6904 98.5917 28.5861 98.6875L23.5005 105.335C23.395 105.441 23.3357 105.585 23.3357 105.734C23.3357 105.884 23.395 106.027 23.5005 106.133L25.229 107.396C25.3532 107.473 25.5021 107.498 25.6446 107.467C25.7871 107.436 25.9121 107.351 25.9935 107.23Z" fill="url(#paint40_linear_301_1959)"/>
</g>
<g style="mix-blend-mode:multiply">
<path d="M29.085 109.191L33.4062 102.211C33.4794 102.082 33.4995 101.93 33.4623 101.788C33.425 101.645 33.3333 101.522 33.2067 101.446L31.8772 100.582C31.7729 100.486 31.6365 100.433 31.4949 100.433C31.3533 100.433 31.2169 100.486 31.1126 100.582L26.4591 107.429C26.3536 107.535 26.2943 107.678 26.2943 107.828C26.2943 107.977 26.3536 108.121 26.4591 108.227L28.2541 109.357C28.3178 109.406 28.3912 109.44 28.4693 109.458C28.5474 109.476 28.6285 109.477 28.707 109.461C28.7856 109.446 28.86 109.413 28.9252 109.367C28.9903 109.32 29.0448 109.26 29.085 109.191Z" fill="url(#paint41_linear_301_1959)"/>
</g>
<g style="mix-blend-mode:multiply">
<path d="M32.2758 110.986L36.0318 103.607C36.0667 103.542 36.0884 103.47 36.0956 103.396C36.1028 103.322 36.0954 103.248 36.0738 103.177C36.0522 103.106 36.0168 103.04 35.9697 102.982C35.9226 102.925 35.8646 102.878 35.7991 102.843L34.4031 102.211C34.2749 102.138 34.1231 102.118 33.9802 102.155C33.8373 102.192 33.7147 102.284 33.6386 102.411L29.4172 109.391C29.3756 109.456 29.3478 109.528 29.3353 109.604C29.3229 109.68 29.3261 109.758 29.3448 109.833C29.3634 109.907 29.3972 109.978 29.4439 110.039C29.4907 110.1 29.5494 110.151 29.6166 110.189L31.478 111.219C31.5449 111.259 31.6194 111.285 31.6968 111.295C31.7742 111.305 31.8529 111.299 31.9279 111.277C32.0028 111.256 32.0724 111.218 32.1323 111.168C32.1922 111.118 32.241 111.056 32.2758 110.986Z" fill="url(#paint42_linear_301_1959)"/>
</g>
<g style="mix-blend-mode:multiply">
<path d="M35.5999 112.549L38.9239 104.937C38.9817 104.804 38.9863 104.654 38.9368 104.518C38.8873 104.382 38.7875 104.27 38.6579 104.205L37.2287 103.541C37.0959 103.483 36.946 103.478 36.81 103.528C36.6739 103.577 36.562 103.677 36.4974 103.807L32.7081 111.186C32.6744 111.253 32.6545 111.327 32.6496 111.402C32.6448 111.477 32.655 111.553 32.6798 111.624C32.7046 111.695 32.7434 111.761 32.7939 111.817C32.8444 111.873 32.9057 111.918 32.974 111.95L34.9019 112.848C35.0346 112.893 35.1796 112.888 35.3087 112.833C35.4377 112.778 35.5415 112.676 35.5999 112.549Z" fill="url(#paint43_linear_301_1959)"/>
</g>
<g style="mix-blend-mode:multiply">
<path d="M39.0235 113.911L41.8156 106.133C41.8592 105.996 41.8492 105.848 41.7874 105.718C41.7257 105.589 41.6169 105.487 41.4832 105.435L40.0539 104.837C39.9171 104.781 39.7639 104.781 39.6273 104.837C39.4906 104.893 39.3813 105 39.3226 105.136L35.9987 112.714C35.9659 112.784 35.9477 112.859 35.9451 112.936C35.9426 113.013 35.9557 113.09 35.9837 113.161C36.0117 113.233 36.054 113.298 36.108 113.352C36.162 113.407 36.2266 113.45 36.2978 113.479L38.2922 114.277C38.3641 114.303 38.4405 114.314 38.5168 114.309C38.5931 114.305 38.6677 114.285 38.7361 114.25C38.8044 114.216 38.8651 114.168 38.9145 114.11C38.9639 114.052 39.001 113.984 39.0235 113.911Z" fill="url(#paint44_linear_301_1959)"/>
</g>
<g style="mix-blend-mode:multiply">
<path d="M42.514 115.075L44.8075 107.13C44.8495 106.989 44.8348 106.837 44.7665 106.707C44.6982 106.577 44.5817 106.478 44.4419 106.432L42.9461 105.934C42.8093 105.89 42.661 105.9 42.5314 105.962C42.4017 106.024 42.3004 106.132 42.2481 106.266L39.3895 114.044C39.3637 114.116 39.3527 114.193 39.3572 114.269C39.3617 114.345 39.3817 114.42 39.4159 114.488C39.45 114.556 39.4977 114.617 39.556 114.667C39.6144 114.716 39.6821 114.753 39.7552 114.775L41.7828 115.507C41.8592 115.532 41.94 115.54 42.0199 115.531C42.0999 115.523 42.177 115.497 42.2462 115.456C42.3155 115.415 42.3751 115.36 42.4213 115.294C42.4675 115.228 42.4991 115.154 42.514 115.075Z" fill="url(#paint45_linear_301_1959)"/>
</g>
<g style="mix-blend-mode:multiply">
<path d="M46.0368 115.972L47.8317 107.894C47.8626 107.754 47.8384 107.606 47.7643 107.483C47.6901 107.359 47.5716 107.269 47.4329 107.23L45.9039 106.831C45.7631 106.8 45.6158 106.824 45.4923 106.898C45.3687 106.972 45.2781 107.091 45.2391 107.23L42.9123 115.174C42.8922 115.246 42.8866 115.321 42.8958 115.395C42.905 115.47 42.9288 115.541 42.9659 115.606C43.003 115.671 43.0527 115.728 43.1119 115.774C43.1712 115.819 43.2389 115.853 43.3112 115.872L45.372 116.404C45.5174 116.433 45.6685 116.405 45.7929 116.324C45.9173 116.243 46.0049 116.116 46.0368 115.972Z" fill="url(#paint46_linear_301_1959)"/>
</g>
<g style="mix-blend-mode:multiply">
<path d="M49.6607 116.703L50.9238 108.526C50.9431 108.381 50.9054 108.234 50.8186 108.116C50.7318 107.998 50.6027 107.919 50.4585 107.894L48.8962 107.595C48.7509 107.565 48.5997 107.594 48.4753 107.675C48.3509 107.756 48.2633 107.882 48.2314 108.027L46.4033 116.104C46.3736 116.25 46.4023 116.401 46.4831 116.525C46.564 116.65 46.6905 116.737 46.8354 116.769L48.9294 117.168C49.0082 117.193 49.0915 117.201 49.1735 117.19C49.2554 117.179 49.3341 117.151 49.4038 117.106C49.4735 117.062 49.5327 117.003 49.5771 116.933C49.6214 116.863 49.65 116.785 49.6607 116.703Z" fill="url(#paint47_linear_301_1959)"/>
</g>
<g style="mix-blend-mode:multiply">
<path d="M53.3497 117.168L54.0477 108.859C54.0572 108.714 54.0108 108.571 53.918 108.46C53.8252 108.348 53.6931 108.277 53.5491 108.26L51.9869 108.061C51.8418 108.042 51.695 108.079 51.5772 108.166C51.4594 108.253 51.3799 108.382 51.3553 108.526L50.0258 116.736C50.0116 116.813 50.0135 116.892 50.0313 116.968C50.0491 117.044 50.0825 117.116 50.1294 117.178C50.1762 117.24 50.2355 117.293 50.3035 117.331C50.3715 117.369 50.4467 117.393 50.5243 117.401L52.6517 117.667C52.7308 117.687 52.8132 117.689 52.8932 117.673C52.9732 117.658 53.049 117.626 53.1153 117.578C53.1816 117.531 53.2369 117.47 53.2773 117.399C53.3178 117.328 53.3425 117.25 53.3497 117.168Z" fill="url(#paint48_linear_301_1959)"/>
</g>
<g style="mix-blend-mode:multiply">
<path d="M56.9727 117.401L57.2054 109.124C57.2056 108.98 57.1507 108.841 57.0518 108.736C56.9529 108.631 56.8176 108.567 56.6735 108.559H55.0781C54.9334 108.549 54.7906 108.596 54.6793 108.689C54.5679 108.781 54.4965 108.913 54.4797 109.057L53.682 117.301C53.6728 117.378 53.6795 117.456 53.7016 117.53C53.7238 117.604 53.761 117.673 53.8108 117.732C53.8607 117.791 53.9222 117.84 53.9915 117.874C54.0608 117.909 54.1365 117.928 54.2138 117.932H56.3411C56.418 117.942 56.496 117.935 56.5701 117.913C56.6443 117.891 56.7131 117.853 56.7724 117.804C56.8316 117.754 56.8799 117.692 56.9144 117.623C56.9488 117.554 56.9687 117.478 56.9727 117.401Z" fill="url(#paint49_linear_301_1959)"/>
</g>
<g style="mix-blend-mode:multiply">
<path d="M60.6288 117.401L60.3629 109.125C60.3544 108.981 60.2911 108.845 60.1861 108.747C60.081 108.648 59.9421 108.593 59.7978 108.593H58.2023C58.058 108.593 57.9191 108.648 57.8141 108.747C57.709 108.845 57.6457 108.981 57.6373 109.125L57.3713 117.401C57.3668 117.478 57.3781 117.555 57.4044 117.628C57.4308 117.7 57.4717 117.767 57.5246 117.823C57.5776 117.879 57.6414 117.923 57.7122 117.954C57.783 117.984 57.8593 118 57.9364 118H59.9973C60.0797 118.01 60.1634 118.001 60.2423 117.975C60.3211 117.949 60.3933 117.906 60.4536 117.849C60.5139 117.792 60.5609 117.722 60.5911 117.645C60.6214 117.567 60.6343 117.484 60.6288 117.401Z" fill="url(#paint50_linear_301_1959)"/>
</g>
<g style="mix-blend-mode:multiply">
<path d="M64.2857 117.202L63.488 108.859C63.4712 108.715 63.3998 108.583 63.2884 108.49C63.1771 108.398 63.0343 108.351 62.8897 108.361H61.2942C61.1501 108.369 61.0148 108.432 60.9159 108.537C60.817 108.642 60.7621 108.781 60.7623 108.926L60.995 117.202C60.9992 117.277 61.0181 117.349 61.0505 117.416C61.0829 117.483 61.1282 117.543 61.1837 117.592C61.2393 117.642 61.3041 117.68 61.3744 117.704C61.4447 117.728 61.5191 117.739 61.5933 117.734H63.7206C63.8649 117.734 64.0038 117.679 64.1089 117.581C64.214 117.482 64.2772 117.346 64.2857 117.202Z" fill="url(#paint51_linear_301_1959)"/>
</g>
<g style="mix-blend-mode:multiply">
<path d="M67.9416 116.737L66.6453 108.593C66.6207 108.449 66.5412 108.32 66.4234 108.233C66.3056 108.146 66.1588 108.108 66.0137 108.127L64.4515 108.327C64.3075 108.344 64.1754 108.415 64.0826 108.526C63.9898 108.638 63.9434 108.781 63.9529 108.925L64.7174 117.169C64.7256 117.243 64.7485 117.315 64.7849 117.381C64.8212 117.446 64.8701 117.504 64.9289 117.55C64.9876 117.596 65.055 117.631 65.1271 117.651C65.1993 117.671 65.2746 117.676 65.3489 117.667L67.4763 117.401C67.551 117.389 67.6225 117.362 67.6867 117.322C67.7508 117.282 67.8063 117.229 67.8497 117.167C67.8931 117.105 67.9236 117.035 67.9394 116.961C67.9552 116.887 67.9559 116.811 67.9416 116.737Z" fill="url(#paint52_linear_301_1959)"/>
</g>
<g style="mix-blend-mode:multiply">
<path d="M71.5655 116.072L69.7374 107.995C69.7055 107.85 69.6179 107.723 69.4935 107.642C69.3691 107.561 69.2179 107.533 69.0726 107.562L67.5103 107.862C67.3661 107.886 67.237 107.966 67.1502 108.083C67.0634 108.201 67.0257 108.348 67.045 108.493L68.3081 116.67C68.3201 116.745 68.3469 116.816 68.3871 116.88C68.4273 116.945 68.4799 117 68.542 117.043C68.604 117.087 68.6741 117.117 68.7481 117.133C68.8221 117.149 68.8985 117.15 68.9729 117.135L71.0669 116.737C71.1446 116.729 71.2198 116.705 71.2878 116.666C71.3558 116.628 71.4151 116.576 71.4619 116.513C71.5088 116.451 71.5422 116.379 71.56 116.303C71.5778 116.227 71.5797 116.149 71.5655 116.072Z" fill="url(#paint53_linear_301_1959)"/>
</g>
<g style="mix-blend-mode:multiply">
<path d="M75.1215 115.174L72.7947 107.23C72.7557 107.091 72.6651 106.972 72.5415 106.898C72.4179 106.824 72.2707 106.8 72.1299 106.831L70.6009 107.23C70.4622 107.269 70.3436 107.359 70.2695 107.483C70.1953 107.606 70.1712 107.754 70.202 107.894L71.997 115.972C72.0125 116.047 72.0432 116.118 72.0872 116.181C72.1312 116.244 72.1876 116.297 72.253 116.338C72.3183 116.378 72.3912 116.405 72.4672 116.416C72.5432 116.428 72.6207 116.423 72.695 116.404L74.7558 115.872C74.8957 115.826 75.0121 115.727 75.0804 115.597C75.1487 115.467 75.1634 115.315 75.1215 115.174Z" fill="url(#paint54_linear_301_1959)"/>
</g>
<g style="mix-blend-mode:multiply">
<path d="M78.6112 114.044L75.7859 106.266C75.7336 106.132 75.6323 106.024 75.5026 105.962C75.373 105.9 75.2247 105.89 75.0879 105.934L73.5921 106.432C73.4522 106.478 73.3358 106.577 73.2675 106.707C73.1992 106.837 73.1845 106.989 73.2264 107.13L75.52 115.075C75.5424 115.148 75.5795 115.215 75.6289 115.274C75.6783 115.332 75.739 115.38 75.8074 115.414C75.8757 115.448 75.9503 115.468 76.0266 115.473C76.1029 115.477 76.1793 115.466 76.2512 115.44L78.2788 114.775C78.3489 114.75 78.4132 114.71 78.4679 114.659C78.5226 114.608 78.5667 114.547 78.5976 114.479C78.6285 114.411 78.6456 114.338 78.648 114.263C78.6503 114.188 78.6378 114.114 78.6112 114.044Z" fill="url(#paint55_linear_301_1959)"/>
</g>
<g style="mix-blend-mode:multiply">
<path d="M82.036 112.714L78.712 105.136C78.6534 105 78.544 104.893 78.4074 104.837C78.2707 104.781 78.1176 104.781 77.9808 104.837L76.6179 105.535C76.4842 105.587 76.3754 105.688 76.3137 105.818C76.2519 105.948 76.2419 106.096 76.2855 106.233L79.0777 114.011C79.1035 114.081 79.143 114.145 79.1939 114.2C79.2447 114.255 79.3059 114.299 79.3739 114.33C79.442 114.36 79.5154 114.378 79.5901 114.38C79.6647 114.382 79.7391 114.37 79.8089 114.343L81.8033 113.545C81.878 113.511 81.9444 113.461 81.9977 113.399C82.0511 113.336 82.0903 113.263 82.1124 113.184C82.1346 113.105 82.1392 113.022 82.126 112.941C82.1128 112.86 82.0821 112.782 82.036 112.714Z" fill="url(#paint56_linear_301_1959)"/>
</g>
<g style="mix-blend-mode:multiply">
<path d="M85.3595 111.152L81.6035 103.773C81.5389 103.643 81.427 103.543 81.2909 103.494C81.1548 103.444 81.005 103.449 80.8722 103.507L79.4429 104.171C79.3133 104.236 79.2135 104.348 79.164 104.484C79.1145 104.62 79.1192 104.77 79.177 104.903L82.5009 112.515C82.5298 112.586 82.5728 112.65 82.6275 112.704C82.6821 112.758 82.7472 112.801 82.8188 112.829C82.8903 112.857 82.9669 112.87 83.0437 112.867C83.1205 112.865 83.1959 112.846 83.2654 112.814L85.1933 111.916C85.3143 111.835 85.3992 111.71 85.4301 111.567C85.4611 111.425 85.4358 111.276 85.3595 111.152Z" fill="url(#paint57_linear_301_1959)"/>
</g>
<g style="mix-blend-mode:multiply">
<path d="M88.5833 109.391L84.3287 102.211C84.2266 102.124 84.097 102.077 83.9631 102.077C83.8291 102.077 83.6995 102.124 83.5974 102.211L82.2014 102.975C82.0691 103.046 81.9703 103.166 81.9267 103.309C81.8831 103.453 81.8982 103.608 81.9687 103.74L85.7248 111.119C85.7597 111.185 85.8071 111.243 85.8645 111.29C85.9218 111.337 85.9878 111.372 86.0588 111.394C86.1298 111.415 86.2044 111.423 86.2782 111.416C86.3521 111.408 86.4238 111.387 86.4893 111.352L88.3507 110.321C88.442 110.292 88.5244 110.24 88.59 110.169C88.6555 110.099 88.7021 110.014 88.7254 109.921C88.7487 109.827 88.7479 109.73 88.723 109.637C88.6982 109.544 88.6501 109.46 88.5833 109.391Z" fill="url(#paint58_linear_301_1959)"/>
</g>
<g style="mix-blend-mode:multiply">
<path d="M91.6748 107.463L87.0212 100.615C86.917 100.52 86.7806 100.467 86.639 100.467C86.4974 100.467 86.361 100.52 86.2567 100.615L84.9272 101.48C84.8006 101.556 84.7089 101.678 84.6716 101.821C84.6343 101.964 84.6545 102.116 84.7277 102.244L88.9159 109.191C88.9536 109.258 89.0045 109.317 89.0657 109.364C89.1269 109.411 89.197 109.444 89.2717 109.463C89.3464 109.482 89.4242 109.485 89.5002 109.473C89.5762 109.46 89.6488 109.432 89.7136 109.391L91.5086 108.261C91.573 108.22 91.6287 108.167 91.6722 108.105C91.7156 108.042 91.746 107.972 91.7616 107.897C91.7771 107.823 91.7774 107.746 91.7625 107.671C91.7476 107.596 91.7177 107.526 91.6748 107.463Z" fill="url(#paint59_linear_301_1959)"/>
</g>
<g style="mix-blend-mode:multiply">
<path d="M94.667 105.302L89.5813 98.8869C89.4771 98.7912 89.3407 98.738 89.1991 98.738C89.0575 98.738 88.9211 98.7912 88.8168 98.8869L87.5205 99.8176C87.4247 99.9219 87.3716 100.058 87.3716 100.2C87.3716 100.341 87.4247 100.478 87.5205 100.582L92.174 107.429C92.2799 107.535 92.4234 107.594 92.5729 107.594C92.7224 107.594 92.8658 107.535 92.9718 107.429L94.7002 106.166C94.7612 106.111 94.8093 106.043 94.8412 105.967C94.8731 105.891 94.8879 105.809 94.8848 105.727C94.8816 105.644 94.8605 105.564 94.8228 105.49C94.7852 105.417 94.732 105.353 94.667 105.302Z" fill="url(#paint60_linear_301_1959)"/>
</g>
<g style="mix-blend-mode:multiply">
<path d="M97.4923 102.976L92.0078 96.7932C91.9035 96.6974 91.7671 96.6443 91.6255 96.6443C91.484 96.6443 91.3475 96.6974 91.2433 96.7932L90.0134 97.7904C89.9177 97.8946 89.8645 98.0311 89.8645 98.1726C89.8645 98.3142 89.9177 98.4506 90.0134 98.5549L95.0658 105.203C95.1717 105.308 95.3152 105.368 95.4647 105.368C95.6142 105.368 95.7576 105.308 95.8636 105.203L97.5255 103.84C97.5865 103.785 97.6346 103.716 97.6665 103.64C97.6984 103.564 97.7132 103.482 97.7101 103.4C97.7069 103.318 97.6858 103.237 97.6481 103.164C97.6105 103.091 97.5573 103.026 97.4923 102.976Z" fill="url(#paint61_linear_301_1959)"/>
</g>
<g style="mix-blend-mode:multiply">
<path d="M100.184 100.483L94.3342 94.6326C94.2283 94.527 94.0848 94.4678 93.9353 94.4678C93.7858 94.4678 93.6424 94.527 93.5364 94.6326L92.3731 95.5633C92.2675 95.6692 92.2083 95.8126 92.2083 95.9622C92.2083 96.1117 92.2675 96.2551 92.3731 96.361L97.8243 102.577C97.9302 102.682 98.0737 102.742 98.2232 102.742C98.3727 102.742 98.5162 102.682 98.6221 102.577L100.184 101.114C100.247 101.021 100.281 100.911 100.281 100.799C100.281 100.686 100.247 100.576 100.184 100.483Z" fill="url(#paint62_linear_301_1959)"/>
</g>
<g style="mix-blend-mode:multiply">
<path d="M102.71 97.79L96.5612 92.239C96.4553 92.1335 96.3118 92.0742 96.1623 92.0742C96.0128 92.0742 95.8693 92.1335 95.7634 92.239L94.6665 93.4024C94.561 93.5083 94.5017 93.6518 94.5017 93.8013C94.5017 93.9508 94.561 94.0942 94.6665 94.2002L100.517 100.05C100.623 100.156 100.766 100.215 100.916 100.215C101.065 100.215 101.208 100.156 101.314 100.05L102.777 98.488C102.846 98.3812 102.877 98.2542 102.865 98.1275C102.853 98.0008 102.799 97.8819 102.71 97.79Z" fill="url(#paint63_linear_301_1959)"/>
</g>
<g style="mix-blend-mode:multiply">
<path d="M105.037 94.9642L98.3891 89.9119C98.2848 89.8161 98.1484 89.7629 98.0068 89.7629C97.8652 89.7629 97.7288 89.8161 97.6246 89.9119L96.5609 91.2414C96.4651 91.3457 96.412 91.4821 96.412 91.6237C96.412 91.7653 96.4651 91.9017 96.5609 92.0059L102.743 97.4904C102.849 97.596 102.993 97.6553 103.142 97.6553C103.292 97.6553 103.435 97.596 103.541 97.4904L104.904 95.8285C104.976 95.7859 105.038 95.7279 105.085 95.6586C105.131 95.5894 105.162 95.5105 105.175 95.4278C105.188 95.3452 105.182 95.2607 105.158 95.1805C105.134 95.1003 105.093 95.0265 105.037 94.9642Z" fill="url(#paint64_linear_301_1959)"/>
</g>
<path d="M107.231 92.0061L100.383 87.3525C100.279 87.2568 100.143 87.2036 100.001 87.2036C99.8594 87.2036 99.723 87.2568 99.6187 87.3525L98.6548 88.9148C98.559 89.019 98.5059 89.1555 98.5059 89.297C98.5059 89.4386 98.559 89.575 98.6548 89.6793L105.303 94.7649C105.409 94.8705 105.552 94.9297 105.702 94.9297C105.851 94.9297 105.994 94.8705 106.1 94.7649L107.364 93.0365C107.459 92.9803 107.536 92.8974 107.584 92.798C107.633 92.6986 107.651 92.5871 107.637 92.4774C107.623 92.3677 107.577 92.2645 107.504 92.1807C107.432 92.097 107.337 92.0362 107.231 92.0061Z" fill="url(#paint65_linear_301_1959)"/>
<g style="mix-blend-mode:multiply">
<path d="M109.192 88.9147L102.046 84.7265C101.918 84.6533 101.766 84.6331 101.623 84.6704C101.48 84.7077 101.357 84.7994 101.281 84.9259L100.417 86.2555C100.321 86.3598 100.268 86.4962 100.268 86.6378C100.268 86.7793 100.321 86.9158 100.417 87.02L107.264 91.6735C107.37 91.7791 107.514 91.8384 107.663 91.8384C107.813 91.8384 107.956 91.7791 108.062 91.6735L109.192 89.8786C109.275 89.8281 109.343 89.7573 109.39 89.6729C109.438 89.5885 109.462 89.4934 109.462 89.3966C109.462 89.2999 109.438 89.2048 109.39 89.1204C109.343 89.036 109.275 88.9652 109.192 88.9147Z" fill="url(#paint66_linear_301_1959)"/>
</g>
<g style="mix-blend-mode:multiply">
<path d="M110.987 85.5906L103.608 81.8345C103.476 81.764 103.321 81.7489 103.178 81.7925C103.034 81.8362 102.914 81.935 102.844 82.0672L102.079 83.4633C102.006 83.5915 101.986 83.7433 102.023 83.8862C102.06 84.0291 102.152 84.1517 102.279 84.2278L109.392 88.4492C109.457 88.4907 109.529 88.5186 109.605 88.531C109.681 88.5435 109.759 88.5403 109.834 88.5216C109.908 88.5029 109.979 88.4692 110.04 88.4224C110.101 88.3757 110.152 88.3169 110.19 88.2498L111.22 86.3884C111.26 86.3215 111.286 86.247 111.296 86.1695C111.306 86.0921 111.3 86.0134 111.278 85.9385C111.257 85.8635 111.219 85.7939 111.169 85.7341C111.119 85.6742 111.057 85.6253 110.987 85.5906Z" fill="url(#paint67_linear_301_1959)"/>
</g>
<path d="M112.55 82.2677L104.938 78.9437C104.805 78.8859 104.655 78.8813 104.519 78.9308C104.383 78.9802 104.271 79.0801 104.206 79.2096L103.542 80.6389C103.484 80.7717 103.479 80.9215 103.529 81.0576C103.578 81.1937 103.678 81.3056 103.808 81.3702L111.187 85.1262C111.254 85.16 111.328 85.1799 111.403 85.1847C111.478 85.1896 111.554 85.1793 111.625 85.1545C111.696 85.1298 111.762 85.0909 111.818 85.0404C111.874 84.9899 111.919 84.9287 111.951 84.8603L112.849 82.9324C112.885 82.8042 112.875 82.667 112.821 82.5454C112.766 82.4237 112.67 82.3253 112.55 82.2677Z" fill="url(#paint68_linear_301_1959)"/>
<path d="M113.912 78.9434L106.134 76.1513C105.997 76.1076 105.849 76.1177 105.72 76.1794C105.59 76.2411 105.489 76.3499 105.436 76.4837L104.838 77.9462C104.782 78.083 104.783 78.2361 104.838 78.3728C104.894 78.5095 105.002 78.6188 105.137 78.6775L112.716 82.0014C112.785 82.0341 112.861 82.0524 112.937 82.0549C113.014 82.0575 113.091 82.0444 113.162 82.0164C113.234 81.9884 113.299 81.9461 113.354 81.8921C113.408 81.8381 113.451 81.7735 113.48 81.7023L114.278 79.7079C114.309 79.6341 114.325 79.5545 114.323 79.4744C114.321 79.3943 114.302 79.3154 114.268 79.2431C114.233 79.1708 114.183 79.1067 114.122 79.055C114.061 79.0033 113.989 78.9653 113.912 78.9434Z" fill="url(#paint69_linear_301_1959)"/>
<path d="M115.076 75.6192L107.131 73.3257C106.99 73.2837 106.839 73.2985 106.708 73.3668C106.578 73.435 106.479 73.5515 106.433 73.6913L105.935 75.1871C105.891 75.3239 105.901 75.4722 105.963 75.6018C106.025 75.7315 106.133 75.8328 106.267 75.8851L114.045 78.7105C114.117 78.7363 114.194 78.7473 114.27 78.7428C114.346 78.7383 114.421 78.7183 114.489 78.6841C114.557 78.65 114.618 78.6023 114.668 78.5439C114.717 78.4856 114.754 78.4179 114.777 78.3448L115.441 76.3172C115.483 76.1762 115.469 76.0243 115.4 75.894C115.332 75.7636 115.216 75.665 115.076 75.6192Z" fill="url(#paint70_linear_301_1959)"/>
<path d="M115.973 71.9293L107.896 70.1344C107.755 70.1036 107.608 70.1277 107.484 70.2019C107.36 70.276 107.27 70.3946 107.231 70.5333L106.832 72.0623C106.801 72.2031 106.825 72.3503 106.899 72.4739C106.974 72.5975 107.092 72.688 107.231 72.7271L115.175 75.0539C115.247 75.074 115.322 75.0796 115.397 75.0704C115.471 75.0612 115.542 75.0373 115.607 75.0002C115.672 74.9631 115.729 74.9135 115.775 74.8542C115.82 74.795 115.854 74.7272 115.873 74.655L116.505 72.6274C116.524 72.5457 116.526 72.4606 116.509 72.3783C116.491 72.296 116.456 72.2186 116.405 72.1517C116.354 72.0848 116.289 72.0302 116.214 71.9917C116.139 71.9532 116.057 71.9319 115.973 71.9293Z" fill="url(#paint71_linear_301_1959)"/>
<path d="M116.671 68.3396L108.494 67.0765C108.349 67.0572 108.202 67.0949 108.085 67.1817C107.967 67.2685 107.887 67.3976 107.863 67.5418L107.564 68.9711C107.534 69.1165 107.563 69.2676 107.644 69.392C107.724 69.5164 107.851 69.604 107.996 69.6359L116.073 71.4641C116.218 71.4937 116.369 71.465 116.494 71.3842C116.618 71.3034 116.706 71.1768 116.738 71.032L117.17 68.9711C117.179 68.8968 117.174 68.8214 117.153 68.7493C117.133 68.6772 117.099 68.6098 117.053 68.5511C117.006 68.4923 116.949 68.4433 116.883 68.407C116.818 68.3707 116.746 68.3478 116.671 68.3396Z" fill="url(#paint72_linear_301_1959)"/>
<path d="M117.17 64.7164L108.926 63.9519C108.782 63.9424 108.639 63.9889 108.528 64.0817C108.416 64.1745 108.345 64.3065 108.328 64.4505L108.129 66.0127C108.109 66.1578 108.147 66.3046 108.234 66.4224C108.321 66.5402 108.45 66.6197 108.594 66.6443L116.771 67.9406C116.848 67.9548 116.927 67.9529 117.003 67.9351C117.079 67.9172 117.15 67.8839 117.213 67.837C117.275 67.7902 117.327 67.7309 117.365 67.6629C117.404 67.5949 117.428 67.5197 117.436 67.442L117.702 65.3147C117.706 65.2405 117.696 65.1661 117.672 65.0958C117.647 65.0255 117.609 64.9607 117.56 64.9051C117.51 64.8496 117.451 64.8043 117.384 64.7719C117.317 64.7395 117.244 64.7206 117.17 64.7164Z" fill="url(#paint73_linear_301_1959)"/>
<path d="M117.402 61.0266L109.125 60.7939C108.981 60.7937 108.842 60.8486 108.737 60.9475C108.632 61.0464 108.569 61.1817 108.56 61.3258V62.9213C108.551 63.0659 108.597 63.2087 108.69 63.32C108.783 63.4314 108.915 63.5028 109.059 63.5196L117.302 64.3173C117.379 64.3265 117.457 64.3198 117.531 64.2977C117.605 64.2755 117.674 64.2384 117.733 64.1885C117.792 64.1386 117.841 64.0771 117.875 64.0078C117.91 63.9385 117.93 63.8628 117.934 63.7855V61.6582C117.943 61.5813 117.936 61.5034 117.914 61.4292C117.892 61.355 117.855 61.2862 117.805 61.2269C117.755 61.1677 117.693 61.1194 117.624 61.0849C117.555 61.0505 117.479 61.0306 117.402 61.0266Z" fill="url(#paint74_linear_301_1959)"/>
<path d="M117.403 57.3704L109.126 57.6363C108.982 57.6448 108.847 57.708 108.748 57.8131C108.649 57.9182 108.594 58.0571 108.594 58.2013V59.7968C108.594 59.9411 108.649 60.08 108.748 60.1851C108.847 60.2902 108.982 60.3534 109.126 60.3619L117.403 60.6278C117.48 60.6324 117.557 60.6211 117.629 60.5947C117.701 60.5684 117.768 60.5275 117.824 60.4745C117.88 60.4216 117.924 60.3578 117.955 60.287C117.985 60.2161 118.001 60.1398 118.001 60.0628V57.9354C118.001 57.8583 117.985 57.782 117.955 57.7112C117.924 57.6404 117.88 57.5766 117.824 57.5236C117.768 57.4707 117.701 57.4298 117.629 57.4034C117.557 57.3771 117.48 57.3658 117.403 57.3704Z" fill="url(#paint75_linear_301_1959)"/>
<path d="M117.203 53.7146L108.959 54.5124C108.815 54.5291 108.683 54.6005 108.591 54.7119C108.498 54.8233 108.451 54.966 108.461 55.1107V56.7062C108.469 56.8502 108.533 56.9855 108.638 57.0844C108.743 57.1833 108.882 57.2382 109.026 57.238L117.302 57.0053C117.377 57.0011 117.449 56.9822 117.516 56.9498C117.583 56.9175 117.643 56.8722 117.693 56.8166C117.742 56.761 117.78 56.6962 117.804 56.6259C117.829 56.5556 117.839 56.4812 117.834 56.407V54.2797C117.835 54.1995 117.818 54.1202 117.786 54.0469C117.753 53.9736 117.706 53.9081 117.646 53.8546C117.586 53.8012 117.516 53.7611 117.439 53.7369C117.363 53.7128 117.282 53.7052 117.203 53.7146Z" fill="url(#paint76_linear_301_1959)"/>
<path d="M116.737 50.0577L108.56 51.354C108.416 51.3786 108.287 51.4581 108.2 51.5759C108.113 51.6937 108.075 51.8405 108.095 51.9856L108.294 53.5478C108.311 53.6918 108.382 53.8238 108.494 53.9166C108.605 54.0094 108.748 54.0559 108.893 54.0464L117.136 53.2819C117.21 53.2737 117.282 53.2507 117.348 53.2144C117.413 53.1781 117.471 53.1291 117.517 53.0704C117.564 53.0116 117.598 52.9442 117.618 52.8721C117.638 52.8 117.644 52.7246 117.634 52.6503L117.369 50.523C117.344 50.3788 117.265 50.2497 117.147 50.1629C117.029 50.0761 116.882 50.0384 116.737 50.0577Z" fill="url(#paint77_linear_301_1959)"/>
<path d="M116.073 46.4349L107.996 48.263C107.851 48.2949 107.724 48.3825 107.644 48.5069C107.563 48.6313 107.534 48.7825 107.564 48.9278L107.863 50.4901C107.887 50.6343 107.967 50.7634 108.085 50.8502C108.202 50.937 108.349 50.9747 108.494 50.9554L116.671 49.6923C116.749 49.6844 116.824 49.6605 116.892 49.6221C116.96 49.5837 117.019 49.5317 117.066 49.4692C117.113 49.4067 117.146 49.3352 117.164 49.2592C117.182 49.1832 117.184 49.1043 117.17 49.0275L116.771 46.9335C116.764 46.8523 116.739 46.7737 116.699 46.7029C116.658 46.6322 116.603 46.5711 116.537 46.5237C116.47 46.4764 116.395 46.4439 116.314 46.4286C116.234 46.4132 116.152 46.4154 116.073 46.4349Z" fill="url(#paint78_linear_301_1959)"/>
<path d="M115.175 42.8782L107.231 45.205C107.092 45.244 106.974 45.3346 106.899 45.4582C106.825 45.5817 106.801 45.729 106.832 45.8697L107.231 47.3988C107.27 47.5375 107.36 47.656 107.484 47.7302C107.608 47.8043 107.755 47.8284 107.896 47.7976L115.973 46.0027C116.05 45.9987 116.126 45.9788 116.195 45.9444C116.264 45.9099 116.326 45.8616 116.376 45.8024C116.426 45.7431 116.463 45.6743 116.485 45.6001C116.507 45.526 116.514 45.448 116.505 45.3711L115.973 43.3103C115.96 43.223 115.927 43.1399 115.877 43.0675C115.827 42.9952 115.76 42.9356 115.683 42.8936C115.605 42.8517 115.519 42.8284 115.431 42.8257C115.342 42.823 115.255 42.841 115.175 42.8782Z" fill="url(#paint79_linear_301_1959)"/>
<path d="M114.045 39.3877L106.267 42.3792C106.133 42.4315 106.025 42.5328 105.963 42.6625C105.901 42.7921 105.891 42.9404 105.935 43.0772L106.533 44.4401C106.579 44.5799 106.678 44.6963 106.808 44.7646C106.938 44.8329 107.09 44.8476 107.231 44.8057L115.076 42.3792C115.149 42.3567 115.216 42.3197 115.275 42.2703C115.333 42.2209 115.381 42.1602 115.415 42.0918C115.449 42.0235 115.469 41.9489 115.474 41.8726C115.478 41.7963 115.467 41.7199 115.441 41.6479L114.777 39.6203C114.706 39.4966 114.592 39.404 114.456 39.3608C114.321 39.3177 114.174 39.3273 114.045 39.3877Z" fill="url(#paint80_linear_301_1959)"/>
<path d="M112.716 35.9642L105.137 39.2882C105.002 39.3468 104.894 39.4562 104.838 39.5928C104.783 39.7295 104.782 39.8826 104.838 40.0194L105.436 41.482C105.489 41.6157 105.59 41.7245 105.72 41.7862C105.849 41.848 105.997 41.858 106.134 41.8144L113.912 39.0555C113.982 39.0296 114.047 38.9901 114.101 38.9393C114.156 38.8884 114.2 38.8272 114.231 38.7592C114.262 38.6912 114.279 38.6177 114.281 38.5431C114.284 38.4684 114.271 38.394 114.245 38.3242L113.447 36.3299C113.424 36.2568 113.387 36.1891 113.338 36.1308C113.289 36.0724 113.228 36.0247 113.16 35.9906C113.091 35.9564 113.017 35.9364 112.94 35.9319C112.864 35.9274 112.788 35.9384 112.716 35.9642Z" fill="url(#paint81_linear_301_1959)"/>
<path d="M111.153 32.6406L103.774 36.4299C103.644 36.4945 103.544 36.6064 103.495 36.7424C103.445 36.8785 103.45 37.0284 103.508 37.1611L104.173 38.5904C104.237 38.72 104.349 38.8198 104.485 38.8693C104.621 38.9188 104.771 38.9141 104.904 38.8563L112.516 35.5324C112.587 35.5036 112.651 35.4605 112.706 35.4058C112.76 35.3512 112.802 35.2861 112.83 35.2145C112.858 35.143 112.871 35.0665 112.868 34.9897C112.866 34.9129 112.848 34.8374 112.815 34.7679L111.917 32.84C111.841 32.7135 111.719 32.6217 111.576 32.5845C111.433 32.5472 111.281 32.5673 111.153 32.6406Z" fill="url(#paint82_linear_301_1959)"/>
<path d="M109.392 29.416L102.279 33.6374C102.152 33.7135 102.06 33.8361 102.023 33.979C101.986 34.1219 102.006 34.2737 102.079 34.4019L102.844 35.7315C102.914 35.8637 103.034 35.9625 103.178 36.0062C103.321 36.0498 103.476 36.0347 103.608 35.9642L110.987 32.4075C111.053 32.3726 111.111 32.3251 111.158 32.2678C111.205 32.2105 111.24 32.1445 111.262 32.0735C111.284 32.0025 111.291 31.9279 111.284 31.8541C111.277 31.7802 111.255 31.7085 111.22 31.643L110.19 29.7816C110.169 29.7002 110.13 29.6245 110.076 29.56C110.022 29.4955 109.954 29.4438 109.878 29.4088C109.801 29.3738 109.718 29.3562 109.634 29.3575C109.55 29.3587 109.467 29.3787 109.392 29.416Z" fill="url(#paint83_linear_301_1959)"/>
<path d="M107.43 26.3256L100.583 30.9791C100.487 31.0834 100.434 31.2198 100.434 31.3614C100.434 31.5029 100.487 31.6393 100.583 31.7436L101.447 33.0732C101.523 33.1997 101.646 33.2915 101.789 33.3287C101.932 33.366 102.083 33.3459 102.212 33.2726L109.192 29.0845C109.259 29.0468 109.318 28.9958 109.365 28.9346C109.411 28.8734 109.445 28.8033 109.464 28.7286C109.482 28.6539 109.486 28.5762 109.473 28.5002C109.461 28.4242 109.433 28.3515 109.391 28.2867L108.261 26.4918C108.221 26.4224 108.166 26.3625 108.101 26.3158C108.036 26.2692 107.962 26.2369 107.883 26.2212C107.805 26.2055 107.724 26.2066 107.645 26.2246C107.567 26.2426 107.494 26.2771 107.43 26.3256Z" fill="url(#paint84_linear_301_1959)"/>
<path d="M105.303 23.3333L98.6548 28.4189C98.559 28.5232 98.5059 28.6596 98.5059 28.8012C98.5059 28.9427 98.559 29.0791 98.6548 29.1834L99.5855 30.4797C99.6897 30.5755 99.8262 30.6287 99.9677 30.6287C100.109 30.6287 100.246 30.5755 100.35 30.4797L107.197 25.8262C107.303 25.7203 107.362 25.5769 107.362 25.4274C107.362 25.2778 107.303 25.1344 107.197 25.0285L105.934 23.3C105.838 23.242 105.726 23.2141 105.613 23.22C105.501 23.2259 105.393 23.2654 105.303 23.3333Z" fill="url(#paint85_linear_301_1959)"/>
<path d="M102.977 20.5083L96.7941 25.9928C96.6885 26.0987 96.6293 26.2422 96.6293 26.3917C96.6293 26.5412 96.6885 26.6847 96.7941 26.7906L97.7913 28.0204C97.8955 28.1162 98.032 28.1693 98.1735 28.1693C98.3151 28.1693 98.4515 28.1162 98.5558 28.0204L105.204 22.968C105.309 22.8621 105.368 22.7187 105.368 22.5692C105.368 22.4196 105.309 22.2762 105.204 22.1703L103.841 20.5083C103.788 20.4454 103.722 20.3948 103.647 20.3601C103.572 20.3254 103.491 20.3074 103.409 20.3074C103.326 20.3074 103.245 20.3254 103.17 20.3601C103.096 20.3948 103.03 20.4454 102.977 20.5083Z" fill="url(#paint86_linear_301_1959)"/>
<path d="M100.45 17.8161L94.6 23.6663C94.4944 23.7722 94.4352 23.9156 94.4352 24.0652C94.4352 24.2147 94.4944 24.3581 94.6 24.464L95.6969 25.7604C95.7499 25.8233 95.8161 25.8739 95.8907 25.9086C95.9654 25.9433 96.0467 25.9613 96.129 25.9613C96.2113 25.9613 96.2926 25.9433 96.3673 25.9086C96.4419 25.8739 96.5081 25.8233 96.5611 25.7604L102.777 20.3091C102.882 20.2032 102.942 20.0598 102.942 19.9102C102.942 19.7607 102.882 19.6173 102.777 19.5114L101.314 17.9491C101.272 17.8771 101.214 17.8154 101.145 17.7685C101.075 17.7216 100.996 17.6907 100.914 17.678C100.831 17.6652 100.747 17.671 100.666 17.6949C100.586 17.7188 100.512 17.7602 100.45 17.8161Z" fill="url(#paint87_linear_301_1959)"/>
<path d="M97.7905 15.2898L92.3393 21.5056C92.2337 21.6115 92.1744 21.7549 92.1744 21.9045C92.1744 22.054 92.2337 22.1974 92.3393 22.3033L93.5026 23.4002C93.6085 23.5058 93.752 23.5651 93.9015 23.5651C94.051 23.5651 94.1945 23.5058 94.3004 23.4002L100.151 17.5501C100.256 17.4442 100.315 17.3008 100.315 17.1512C100.315 17.0017 100.256 16.8583 100.151 16.7524L98.5883 15.2898C98.4824 15.1843 98.3389 15.125 98.1894 15.125C98.0399 15.125 97.8964 15.1843 97.7905 15.2898Z" fill="url(#paint88_linear_301_1959)"/>
<path d="M94.9655 12.9633L89.9131 19.6112C89.8173 19.7154 89.7642 19.8519 89.7642 19.9934C89.7642 20.135 89.8173 20.2714 89.9131 20.3757L91.1429 21.3729C91.2472 21.4686 91.3836 21.5218 91.5252 21.5218C91.6668 21.5218 91.8032 21.4686 91.9074 21.3729L97.392 15.1903C97.4975 15.0844 97.5568 14.941 97.5568 14.7915C97.5568 14.6419 97.4975 14.4985 97.392 14.3926L95.73 13.0298C95.6343 12.9245 95.5025 12.8592 95.3607 12.8469C95.219 12.8345 95.0779 12.8761 94.9655 12.9633Z" fill="url(#paint89_linear_301_1959)"/>
<path d="M92.007 10.7687L87.3535 17.6161C87.2577 17.7203 87.2046 17.8568 87.2046 17.9983C87.2046 18.1399 87.2577 18.2763 87.3535 18.3806L88.6498 19.3113C88.7541 19.407 88.8905 19.4602 89.0321 19.4602C89.1737 19.4602 89.3101 19.407 89.4144 19.3113L94.5 12.6634C94.6055 12.5575 94.6648 12.414 94.6648 12.2645C94.6648 12.115 94.6055 11.9716 94.5 11.8656L92.7715 10.6025C92.6473 10.5263 92.4983 10.501 92.3559 10.5319C92.2134 10.5629 92.0884 10.6478 92.007 10.7687Z" fill="url(#paint90_linear_301_1959)"/>
<path d="M88.9159 8.80822L84.7277 15.7885C84.6545 15.9167 84.6343 16.0685 84.6716 16.2114C84.7089 16.3543 84.8006 16.4769 84.9272 16.553L86.2567 17.4172C86.361 17.513 86.4974 17.5662 86.639 17.5662C86.7806 17.5662 86.917 17.513 87.0212 17.4172L91.6748 10.5699C91.7803 10.464 91.8396 10.3206 91.8396 10.171C91.8396 10.0215 91.7803 9.87808 91.6748 9.77217L89.8798 8.60879C89.814 8.53333 89.7292 8.47674 89.6343 8.44479C89.5394 8.41285 89.4377 8.40671 89.3396 8.427C89.2415 8.44729 89.1506 8.49329 89.0762 8.56027C89.0017 8.62726 88.9464 8.71283 88.9159 8.80822Z" fill="url(#paint91_linear_301_1959)"/>
<path d="M85.7248 7.01279L81.9687 14.3919C81.8982 14.5242 81.8831 14.679 81.9267 14.8224C81.9703 14.9658 82.0691 15.0859 82.2014 15.1565L83.5974 15.788C83.6995 15.8747 83.8291 15.9222 83.9631 15.9222C84.097 15.9222 84.2266 15.8747 84.3287 15.788L88.5501 8.67476C88.5916 8.60992 88.6195 8.53728 88.632 8.46129C88.6444 8.3853 88.6412 8.30756 88.6225 8.23286C88.6038 8.15815 88.5701 8.08805 88.5233 8.02686C88.4766 7.96566 88.4178 7.91467 88.3507 7.87701L86.589 6.78011C86.5202 6.72773 86.4403 6.69182 86.3555 6.67515C86.2707 6.65848 86.1831 6.66151 86.0997 6.68398C86.0162 6.70646 85.939 6.74779 85.874 6.80479C85.809 6.8618 85.7579 6.93295 85.7248 7.01279Z" fill="url(#paint92_linear_301_1959)"/>
<path d="M82.4006 5.45049L79.0766 13.0623C79.0188 13.1951 79.0142 13.3449 79.0637 13.481C79.1132 13.6171 79.213 13.729 79.3426 13.7936L80.7719 14.4584C80.9046 14.5162 81.0545 14.5208 81.1906 14.4713C81.3266 14.4219 81.4385 14.322 81.5031 14.1925L85.2592 6.81331C85.2929 6.74583 85.3128 6.67228 85.3177 6.597C85.3225 6.52172 85.3123 6.44622 85.2875 6.37497C85.2627 6.30371 85.2239 6.23815 85.1734 6.18213C85.1228 6.12611 85.0616 6.08078 84.9933 6.0488L83.2648 5.15134C83.1917 5.10026 83.1075 5.06723 83.0191 5.05495C82.9308 5.04266 82.8408 5.05147 82.7565 5.08065C82.6722 5.10983 82.596 5.15855 82.5341 5.22283C82.4723 5.28712 82.4265 5.36513 82.4006 5.45049Z" fill="url(#paint93_linear_301_1959)"/>
<path d="M78.9771 4.08801L76.185 11.866C76.1733 12.001 76.2105 12.1357 76.2898 12.2455C76.3692 12.3553 76.4853 12.433 76.6171 12.4643L78.0796 13.0627C78.2164 13.1182 78.3695 13.118 78.5062 13.0621C78.6429 13.0062 78.7522 12.899 78.8109 12.7635L82.1348 5.18491C82.1676 5.11539 82.1858 5.03993 82.1883 4.96313C82.1909 4.88633 82.1778 4.80982 82.1498 4.73826C82.1218 4.6667 82.0795 4.60161 82.0255 4.54695C81.9715 4.4923 81.9069 4.44924 81.8357 4.4204L79.8413 3.62266C79.7568 3.56986 79.6598 3.54036 79.5601 3.53716C79.4605 3.53395 79.3618 3.55715 79.2741 3.60441C79.1863 3.65166 79.1126 3.72128 79.0605 3.80622C79.0083 3.89115 78.9795 3.98837 78.9771 4.08801Z" fill="url(#paint94_linear_301_1959)"/>
<path d="M75.4868 2.92434L73.293 10.9018C73.251 11.0429 73.2658 11.1947 73.334 11.3251C73.4023 11.4554 73.5188 11.554 73.6586 11.5998L75.1544 12.0984C75.2912 12.1421 75.4395 12.132 75.5691 12.0703C75.6988 12.0085 75.8001 11.8998 75.8524 11.766L78.6778 3.988C78.7036 3.91607 78.7146 3.83965 78.7101 3.76336C78.7056 3.68707 78.6856 3.61248 78.6514 3.54412C78.6172 3.47576 78.5696 3.41505 78.5112 3.36565C78.4529 3.31625 78.3852 3.2792 78.3121 3.25673L76.218 2.49222C76.1416 2.46718 76.0608 2.45873 75.9809 2.46743C75.9009 2.47614 75.8238 2.5018 75.7546 2.5427C75.6854 2.5836 75.6257 2.6388 75.5795 2.70461C75.5333 2.77042 75.5017 2.84533 75.4868 2.92434Z" fill="url(#paint95_linear_301_1959)"/>
<path d="M71.9304 2.0275L70.1355 10.1047C70.1047 10.2455 70.1288 10.3927 70.203 10.5163C70.2771 10.6398 70.3957 10.7304 70.5344 10.7695L72.0634 11.1683C72.2042 11.1992 72.3514 11.175 72.475 11.1009C72.5986 11.0268 72.6891 10.9082 72.7282 10.7695L75.055 2.82525C75.0751 2.75322 75.0807 2.67792 75.0715 2.60371C75.0623 2.5295 75.0384 2.45785 75.0013 2.39292C74.9642 2.32799 74.9146 2.27107 74.8553 2.22546C74.7961 2.17985 74.7283 2.14646 74.6561 2.12722L72.5952 1.59539C72.4499 1.56574 72.2987 1.59443 72.1743 1.67528C72.05 1.75612 71.9624 1.88263 71.9304 2.0275Z" fill="url(#paint96_linear_301_1959)"/>
<path d="M68.3407 1.29555L67.0776 9.47245C67.0583 9.61749 67.096 9.76434 67.1828 9.88213C67.2696 9.99992 67.3987 10.0795 67.5429 10.104L69.1052 10.4032C69.2505 10.4328 69.4017 10.4041 69.5261 10.3233C69.6505 10.2424 69.7381 10.1159 69.77 9.97104L71.5981 1.89386C71.6278 1.74851 71.5991 1.59733 71.5182 1.47295C71.4374 1.34858 71.3109 1.26098 71.166 1.22907L69.0719 0.830195C68.9932 0.805189 68.9099 0.797767 68.8279 0.808455C68.7459 0.819144 68.6673 0.847681 68.5976 0.892054C68.5279 0.936427 68.4687 0.995557 68.4243 1.06527C68.3799 1.13499 68.3514 1.2136 68.3407 1.29555Z" fill="url(#paint97_linear_301_1959)"/>
<path d="M64.6841 0.830812L63.9529 9.14067C63.9434 9.28532 63.9898 9.42808 64.0826 9.53944C64.1754 9.6508 64.3075 9.72224 64.4515 9.73898L66.0137 9.93842C66.0906 9.94763 66.1685 9.94095 66.2427 9.91879C66.3169 9.89663 66.3857 9.85946 66.4449 9.80959C66.5041 9.75972 66.5525 9.69822 66.587 9.62889C66.6214 9.55957 66.6413 9.4839 66.6453 9.40659L67.9416 1.22969C67.9509 1.1554 67.9453 1.08001 67.9251 1.0079C67.905 0.93579 67.8708 0.868397 67.8244 0.809637C67.778 0.750877 67.7204 0.701921 67.6549 0.665613C67.5895 0.629305 67.5174 0.60637 67.443 0.598137L65.3157 0.332222C65.2414 0.32296 65.166 0.328552 65.0939 0.348674C65.0218 0.368796 64.9544 0.403048 64.8956 0.449438C64.8369 0.495827 64.7879 0.55343 64.7516 0.6189C64.7153 0.684371 64.6924 0.756402 64.6841 0.830812Z" fill="url(#paint98_linear_301_1959)"/>
<path d="M61.0277 0.597966L60.795 8.87459C60.7948 9.01887 60.8497 9.15778 60.9486 9.26284C61.0475 9.36791 61.1828 9.43117 61.3269 9.43966H62.9224C63.0357 9.45269 63.1504 9.43108 63.2513 9.37768C63.3521 9.32428 63.4345 9.2416 63.4874 9.1405L64.2852 0.897122C64.2944 0.820253 64.2877 0.742312 64.2656 0.668133C64.2434 0.593955 64.2062 0.52512 64.1564 0.465902C64.1065 0.406684 64.045 0.358346 63.9757 0.323885C63.9063 0.289424 63.8307 0.269574 63.7534 0.26557H61.626C61.5037 0.247896 61.3789 0.270839 61.2708 0.330878C61.1628 0.390917 61.0774 0.48474 61.0277 0.597966Z" fill="url(#paint99_linear_301_1959)"/>
<defs>
<linearGradient id="paint0_linear_301_1959" x1="59.0002" y1="-0.00463867" x2="59.0002" y2="9.40619" gradientUnits="userSpaceOnUse">
<stop stop-color="#0E84D9"/>
<stop offset="1" stop-color="#0EBED9"/>
</linearGradient>
<linearGradient id="paint1_linear_301_1959" x1="55.4604" y1="0.264648" x2="55.4604" y2="9.64042" gradientUnits="userSpaceOnUse">
<stop stop-color="#0E84D9"/>
<stop offset="1" stop-color="#0EBED9"/>
</linearGradient>
<linearGradient id="paint2_linear_301_1959" x1="52.0319" y1="0.327881" x2="52.0319" y2="9.91011" gradientUnits="userSpaceOnUse">
<stop stop-color="#0E84D9"/>
<stop offset="1" stop-color="#0EBED9"/>
</linearGradient>
<linearGradient id="paint3_linear_301_1959" x1="48.6938" y1="0.85376" x2="48.6938" y2="10.4483" gradientUnits="userSpaceOnUse">
<stop stop-color="#0E84D9"/>
<stop offset="1" stop-color="#0EBED9"/>
</linearGradient>
<linearGradient id="paint4_linear_301_1959" x1="45.338" y1="1.57617" x2="45.338" y2="11.181" gradientUnits="userSpaceOnUse">
<stop stop-color="#0E84D9"/>
<stop offset="1" stop-color="#0EBED9"/>
</linearGradient>
<linearGradient id="paint5_linear_301_1959" x1="42.0638" y1="2.47363" x2="42.0638" y2="12.0922" gradientUnits="userSpaceOnUse">
<stop stop-color="#0E84D9"/>
<stop offset="1" stop-color="#0EBED9"/>
</linearGradient>
<linearGradient id="paint6_linear_301_1959" x1="38.8643" y1="3.61938" x2="38.8643" y2="13.2044" gradientUnits="userSpaceOnUse">
<stop stop-color="#0E84D9"/>
<stop offset="1" stop-color="#0EBED9"/>
</linearGradient>
<linearGradient id="paint7_linear_301_1959" x1="35.7358" y1="5.13062" x2="35.7358" y2="14.5385" gradientUnits="userSpaceOnUse">
<stop stop-color="#0E84D9"/>
<stop offset="1" stop-color="#0EBED9"/>
</linearGradient>
<linearGradient id="paint8_linear_301_1959" x1="32.7309" y1="6.77979" x2="32.7309" y2="16.0615" gradientUnits="userSpaceOnUse">
<stop stop-color="#0E84D9"/>
<stop offset="1" stop-color="#0EBED9"/>
</linearGradient>
<linearGradient id="paint9_linear_301_1959" x1="29.8427" y1="8.51929" x2="29.8427" y2="17.5327" gradientUnits="userSpaceOnUse">
<stop stop-color="#0E84D9"/>
<stop offset="1" stop-color="#0EBED9"/>
</linearGradient>
<linearGradient id="paint10_linear_301_1959" x1="26.9993" y1="10.6375" x2="26.9993" y2="19.4937" gradientUnits="userSpaceOnUse">
<stop stop-color="#0E84D9"/>
<stop offset="1" stop-color="#0EBED9"/>
</linearGradient>
<linearGradient id="paint11_linear_301_1959" x1="24.2395" y1="12.6321" x2="24.2395" y2="21.3713" gradientUnits="userSpaceOnUse">
<stop stop-color="#0E84D9"/>
<stop offset="1" stop-color="#0EBED9"/>
</linearGradient>
<linearGradient id="paint12_linear_301_1959" x1="21.7126" y1="15.125" x2="21.7126" y2="23.5318" gradientUnits="userSpaceOnUse">
<stop stop-color="#0E84D9"/>
<stop offset="1" stop-color="#0EBED9"/>
</linearGradient>
<linearGradient id="paint13_linear_301_1959" x1="19.3447" y1="17.6506" x2="19.3447" y2="25.9245" gradientUnits="userSpaceOnUse">
<stop stop-color="#0E84D9"/>
<stop offset="1" stop-color="#0EBED9"/>
</linearGradient>
<linearGradient id="paint14_linear_301_1959" x1="17.0991" y1="20.3433" x2="17.0991" y2="28.2356" gradientUnits="userSpaceOnUse">
<stop stop-color="#0E84D9"/>
<stop offset="1" stop-color="#0EBED9"/>
</linearGradient>
<linearGradient id="paint15_linear_301_1959" x1="14.9272" y1="23.0684" x2="14.9272" y2="30.7945" gradientUnits="userSpaceOnUse">
<stop stop-color="#0E84D9"/>
<stop offset="1" stop-color="#0EBED9"/>
</linearGradient>
<linearGradient id="paint16_linear_301_1959" x1="13.1974" y1="26.1938" x2="13.1974" y2="33.3878" gradientUnits="userSpaceOnUse">
<stop stop-color="#0E84D9"/>
<stop offset="1" stop-color="#0EBED9"/>
</linearGradient>
<linearGradient id="paint17_linear_301_1959" x1="11.3336" y1="29.3267" x2="11.3336" y2="36.2029" gradientUnits="userSpaceOnUse">
<stop stop-color="#0E84D9"/>
<stop offset="1" stop-color="#0EBED9"/>
</linearGradient>
<linearGradient id="paint18_linear_301_1959" x1="9.769" y1="32.5808" x2="9.769" y2="39.1027" gradientUnits="userSpaceOnUse">
<stop stop-color="#0E84D9"/>
<stop offset="1" stop-color="#0EBED9"/>
</linearGradient>
<linearGradient id="paint19_linear_301_1959" x1="8.44222" y1="35.9436" x2="8.44222" y2="41.8743" gradientUnits="userSpaceOnUse">
<stop stop-color="#0E84D9"/>
<stop offset="1" stop-color="#0EBED9"/>
</linearGradient>
<linearGradient id="paint20_linear_301_1959" x1="7.31121" y1="39.355" x2="7.31121" y2="44.6968" gradientUnits="userSpaceOnUse">
<stop stop-color="#0E84D9"/>
<stop offset="1" stop-color="#0EBED9"/>
</linearGradient>
<linearGradient id="paint21_linear_301_1959" x1="6.41106" y1="42.8904" x2="6.41106" y2="47.8437" gradientUnits="userSpaceOnUse">
<stop stop-color="#0E84D9"/>
<stop offset="1" stop-color="#0EBED9"/>
</linearGradient>
<linearGradient id="paint22_linear_301_1959" x1="5.65854" y1="46.4236" x2="5.65854" y2="50.9337" gradientUnits="userSpaceOnUse">
<stop stop-color="#0E84D9"/>
<stop offset="1" stop-color="#0EBED9"/>
</linearGradient>
<linearGradient id="paint23_linear_301_1959" x1="5.01988" y1="50.0491" x2="5.01988" y2="54.0484" gradientUnits="userSpaceOnUse">
<stop stop-color="#0E84D9"/>
<stop offset="1" stop-color="#0EBED9"/>
</linearGradient>
<linearGradient id="paint24_linear_301_1959" x1="4.75236" y1="53.6768" x2="4.75236" y2="57.2042" gradientUnits="userSpaceOnUse">
<stop stop-color="#0E84D9"/>
<stop offset="1" stop-color="#0EBED9"/>
</linearGradient>
<linearGradient id="paint25_linear_301_1959" x1="4.67067" y1="57.3694" x2="4.67067" y2="60.6288" gradientUnits="userSpaceOnUse">
<stop stop-color="#0E84D9"/>
<stop offset="1" stop-color="#0EBED9"/>
</linearGradient>
<linearGradient id="paint26_linear_301_1959" x1="4.85329" y1="60.7612" x2="4.85329" y2="64.2885" gradientUnits="userSpaceOnUse">
<stop stop-color="#0E84D9"/>
<stop offset="1" stop-color="#0EBED9"/>
</linearGradient>
<linearGradient id="paint27_linear_301_1959" x1="5.10348" y1="63.9507" x2="5.10348" y2="67.9456" gradientUnits="userSpaceOnUse">
<stop stop-color="#0E84D9"/>
<stop offset="1" stop-color="#0EBED9"/>
</linearGradient>
<linearGradient id="paint28_linear_301_1959" x1="5.67348" y1="67.0388" x2="5.67348" y2="71.5737" gradientUnits="userSpaceOnUse">
<stop stop-color="#0E84D9"/>
<stop offset="1" stop-color="#0EBED9"/>
</linearGradient>
<linearGradient id="paint29_linear_301_1959" x1="6.39579" y1="70.1619" x2="6.39579" y2="75.1335" gradientUnits="userSpaceOnUse">
<stop stop-color="#0E84D9"/>
<stop offset="1" stop-color="#0EBED9"/>
</linearGradient>
<linearGradient id="paint30_linear_301_1959" x1="7.31001" y1="73.0361" x2="7.31001" y2="78.664" gradientUnits="userSpaceOnUse">
<stop stop-color="#0E84D9"/>
<stop offset="1" stop-color="#0EBED9"/>
</linearGradient>
<linearGradient id="paint31_linear_301_1959" x1="8.46226" y1="76.1572" x2="8.46226" y2="82.0674" gradientUnits="userSpaceOnUse">
<stop stop-color="#0E84D9"/>
<stop offset="1" stop-color="#0EBED9"/>
</linearGradient>
<linearGradient id="paint32_linear_301_1959" x1="9.80306" y1="79.1289" x2="9.80306" y2="85.4002" gradientUnits="userSpaceOnUse">
<stop stop-color="#0E84D9"/>
<stop offset="1" stop-color="#0EBED9"/>
</linearGradient>
<linearGradient id="paint33_linear_301_1959" x1="11.3386" y1="81.9678" x2="11.3386" y2="88.6489" gradientUnits="userSpaceOnUse">
<stop stop-color="#0E84D9"/>
<stop offset="1" stop-color="#0EBED9"/>
</linearGradient>
<linearGradient id="paint34_linear_301_1959" x1="13.0272" y1="84.6194" x2="13.0272" y2="91.7727" gradientUnits="userSpaceOnUse">
<stop stop-color="#0E84D9"/>
<stop offset="1" stop-color="#0EBED9"/>
</linearGradient>
<linearGradient id="paint35_linear_301_1959" x1="15.0667" y1="87.3704" x2="15.0667" y2="94.7798" gradientUnits="userSpaceOnUse">
<stop stop-color="#0E84D9"/>
<stop offset="1" stop-color="#0EBED9"/>
</linearGradient>
<linearGradient id="paint36_linear_301_1959" x1="16.9443" y1="89.8633" x2="16.9443" y2="97.7784" gradientUnits="userSpaceOnUse">
<stop stop-color="#0E84D9"/>
<stop offset="1" stop-color="#0EBED9"/>
</linearGradient>
<linearGradient id="paint37_linear_301_1959" x1="19.3627" y1="92.0742" x2="19.3627" y2="100.317" gradientUnits="userSpaceOnUse">
<stop stop-color="#0E84D9"/>
<stop offset="1" stop-color="#0EBED9"/>
</linearGradient>
<linearGradient id="paint38_linear_301_1959" x1="21.6891" y1="94.4341" x2="21.6891" y2="102.861" gradientUnits="userSpaceOnUse">
<stop stop-color="#0E84D9"/>
<stop offset="1" stop-color="#0EBED9"/>
</linearGradient>
<linearGradient id="paint39_linear_301_1959" x1="24.2905" y1="96.5618" x2="24.2905" y2="105.293" gradientUnits="userSpaceOnUse">
<stop stop-color="#0E84D9"/>
<stop offset="1" stop-color="#0EBED9"/>
</linearGradient>
<linearGradient id="paint40_linear_301_1959" x1="27.0658" y1="98.5386" x2="27.0658" y2="107.48" gradientUnits="userSpaceOnUse">
<stop stop-color="#0E84D9"/>
<stop offset="1" stop-color="#0EBED9"/>
</linearGradient>
<linearGradient id="paint41_linear_301_1959" x1="29.8874" y1="100.433" x2="29.8874" y2="109.472" gradientUnits="userSpaceOnUse">
<stop stop-color="#0E84D9"/>
<stop offset="1" stop-color="#0EBED9"/>
</linearGradient>
<linearGradient id="paint42_linear_301_1959" x1="32.7131" y1="102.137" x2="32.7131" y2="111.3" gradientUnits="userSpaceOnUse">
<stop stop-color="#0E84D9"/>
<stop offset="1" stop-color="#0EBED9"/>
</linearGradient>
<linearGradient id="paint43_linear_301_1959" x1="35.8096" y1="103.494" x2="35.8096" y2="112.879" gradientUnits="userSpaceOnUse">
<stop stop-color="#0E84D9"/>
<stop offset="1" stop-color="#0EBED9"/>
</linearGradient>
<linearGradient id="paint44_linear_301_1959" x1="38.8936" y1="104.795" x2="38.8936" y2="114.31" gradientUnits="userSpaceOnUse">
<stop stop-color="#0E84D9"/>
<stop offset="1" stop-color="#0EBED9"/>
</linearGradient>
<linearGradient id="paint45_linear_301_1959" x1="42.0936" y1="105.907" x2="42.0936" y2="115.535" gradientUnits="userSpaceOnUse">
<stop stop-color="#0E84D9"/>
<stop offset="1" stop-color="#0EBED9"/>
</linearGradient>
<linearGradient id="paint46_linear_301_1959" x1="45.3681" y1="106.818" x2="45.3681" y2="116.415" gradientUnits="userSpaceOnUse">
<stop stop-color="#0E84D9"/>
<stop offset="1" stop-color="#0EBED9"/>
</linearGradient>
<linearGradient id="paint47_linear_301_1959" x1="48.6603" y1="107.584" x2="48.6603" y2="117.195" gradientUnits="userSpaceOnUse">
<stop stop-color="#0E84D9"/>
<stop offset="1" stop-color="#0EBED9"/>
</linearGradient>
<linearGradient id="paint48_linear_301_1959" x1="52.0326" y1="108.056" x2="52.0326" y2="117.683" gradientUnits="userSpaceOnUse">
<stop stop-color="#0E84D9"/>
<stop offset="1" stop-color="#0EBED9"/>
</linearGradient>
<linearGradient id="paint49_linear_301_1959" x1="55.4417" y1="108.558" x2="55.4417" y2="117.936" gradientUnits="userSpaceOnUse">
<stop stop-color="#0E84D9"/>
<stop offset="1" stop-color="#0EBED9"/>
</linearGradient>
<linearGradient id="paint50_linear_301_1959" x1="59.0002" y1="108.593" x2="59.0002" y2="118.004" gradientUnits="userSpaceOnUse">
<stop stop-color="#0E84D9"/>
<stop offset="1" stop-color="#0EBED9"/>
</linearGradient>
<linearGradient id="paint51_linear_301_1959" x1="62.524" y1="108.359" x2="62.524" y2="117.735" gradientUnits="userSpaceOnUse">
<stop stop-color="#0E84D9"/>
<stop offset="1" stop-color="#0EBED9"/>
</linearGradient>
<linearGradient id="paint52_linear_301_1959" x1="65.9517" y1="108.123" x2="65.9517" y2="117.672" gradientUnits="userSpaceOnUse">
<stop stop-color="#0E84D9"/>
<stop offset="1" stop-color="#0EBED9"/>
</linearGradient>
<linearGradient id="paint53_linear_301_1959" x1="69.3075" y1="107.551" x2="69.3075" y2="117.146" gradientUnits="userSpaceOnUse">
<stop stop-color="#0E84D9"/>
<stop offset="1" stop-color="#0EBED9"/>
</linearGradient>
<linearGradient id="paint54_linear_301_1959" x1="72.6669" y1="106.818" x2="72.6669" y2="116.422" gradientUnits="userSpaceOnUse">
<stop stop-color="#0E84D9"/>
<stop offset="1" stop-color="#0EBED9"/>
</linearGradient>
<linearGradient id="paint55_linear_301_1959" x1="75.9256" y1="105.907" x2="75.9256" y2="115.474" gradientUnits="userSpaceOnUse">
<stop stop-color="#0E84D9"/>
<stop offset="1" stop-color="#0EBED9"/>
</linearGradient>
<linearGradient id="paint56_linear_301_1959" x1="79.1961" y1="104.795" x2="79.1961" y2="114.38" gradientUnits="userSpaceOnUse">
<stop stop-color="#0E84D9"/>
<stop offset="1" stop-color="#0EBED9"/>
</linearGradient>
<linearGradient id="paint57_linear_301_1959" x1="82.2865" y1="103.46" x2="82.2865" y2="112.868" gradientUnits="userSpaceOnUse">
<stop stop-color="#0E84D9"/>
<stop offset="1" stop-color="#0EBED9"/>
</linearGradient>
<linearGradient id="paint58_linear_301_1959" x1="85.3223" y1="102.077" x2="85.3223" y2="111.418" gradientUnits="userSpaceOnUse">
<stop stop-color="#0E84D9"/>
<stop offset="1" stop-color="#0EBED9"/>
</linearGradient>
<linearGradient id="paint59_linear_301_1959" x1="88.2134" y1="100.467" x2="88.2134" y2="109.48" gradientUnits="userSpaceOnUse">
<stop stop-color="#0E84D9"/>
<stop offset="1" stop-color="#0EBED9"/>
</linearGradient>
<linearGradient id="paint60_linear_301_1959" x1="91.1284" y1="98.738" x2="91.1284" y2="107.594" gradientUnits="userSpaceOnUse">
<stop stop-color="#0E84D9"/>
<stop offset="1" stop-color="#0EBED9"/>
</linearGradient>
<linearGradient id="paint61_linear_301_1959" x1="93.7875" y1="96.6443" x2="93.7875" y2="105.368" gradientUnits="userSpaceOnUse">
<stop stop-color="#0E84D9"/>
<stop offset="1" stop-color="#0EBED9"/>
</linearGradient>
<linearGradient id="paint62_linear_301_1959" x1="96.2445" y1="94.4678" x2="96.2445" y2="102.742" gradientUnits="userSpaceOnUse">
<stop stop-color="#0E84D9"/>
<stop offset="1" stop-color="#0EBED9"/>
</linearGradient>
<linearGradient id="paint63_linear_301_1959" x1="98.6847" y1="92.0742" x2="98.6847" y2="100.215" gradientUnits="userSpaceOnUse">
<stop stop-color="#0E84D9"/>
<stop offset="1" stop-color="#0EBED9"/>
</linearGradient>
<linearGradient id="paint64_linear_301_1959" x1="100.797" y1="89.7629" x2="100.797" y2="97.6553" gradientUnits="userSpaceOnUse">
<stop stop-color="#0E84D9"/>
<stop offset="1" stop-color="#0EBED9"/>
</linearGradient>
<linearGradient id="paint65_linear_301_1959" x1="103.074" y1="87.2036" x2="103.074" y2="94.9297" gradientUnits="userSpaceOnUse">
<stop stop-color="#0E84D9"/>
<stop offset="1" stop-color="#0EBED9"/>
</linearGradient>
<linearGradient id="paint66_linear_301_1959" x1="104.865" y1="84.6521" x2="104.865" y2="91.8384" gradientUnits="userSpaceOnUse">
<stop stop-color="#0E84D9"/>
<stop offset="1" stop-color="#0EBED9"/>
</linearGradient>
<linearGradient id="paint67_linear_301_1959" x1="106.653" y1="81.7681" x2="106.653" y2="88.5385" gradientUnits="userSpaceOnUse">
<stop stop-color="#0E84D9"/>
<stop offset="1" stop-color="#0EBED9"/>
</linearGradient>
<linearGradient id="paint68_linear_301_1959" x1="108.183" y1="78.8967" x2="108.183" y2="85.1859" gradientUnits="userSpaceOnUse">
<stop stop-color="#0E84D9"/>
<stop offset="1" stop-color="#0EBED9"/>
</linearGradient>
<linearGradient id="paint69_linear_301_1959" x1="109.56" y1="76.1245" x2="109.56" y2="82.0553" gradientUnits="userSpaceOnUse">
<stop stop-color="#0E84D9"/>
<stop offset="1" stop-color="#0EBED9"/>
</linearGradient>
<linearGradient id="paint70_linear_301_1959" x1="110.686" y1="73.3022" x2="110.686" y2="78.7438" gradientUnits="userSpaceOnUse">
<stop stop-color="#0E84D9"/>
<stop offset="1" stop-color="#0EBED9"/>
</linearGradient>
<linearGradient id="paint71_linear_301_1959" x1="111.67" y1="70.1213" x2="111.67" y2="75.0747" gradientUnits="userSpaceOnUse">
<stop stop-color="#0E84D9"/>
<stop offset="1" stop-color="#0EBED9"/>
</linearGradient>
<linearGradient id="paint72_linear_301_1959" x1="112.363" y1="67.0715" x2="112.363" y2="71.4755" gradientUnits="userSpaceOnUse">
<stop stop-color="#0E84D9"/>
<stop offset="1" stop-color="#0EBED9"/>
</linearGradient>
<linearGradient id="paint73_linear_301_1959" x1="112.913" y1="63.9507" x2="112.913" y2="67.95" gradientUnits="userSpaceOnUse">
<stop stop-color="#0E84D9"/>
<stop offset="1" stop-color="#0EBED9"/>
</linearGradient>
<linearGradient id="paint74_linear_301_1959" x1="113.248" y1="60.7939" x2="113.248" y2="64.3213" gradientUnits="userSpaceOnUse">
<stop stop-color="#0E84D9"/>
<stop offset="1" stop-color="#0EBED9"/>
</linearGradient>
<linearGradient id="paint75_linear_301_1959" x1="113.297" y1="57.3694" x2="113.297" y2="60.6288" gradientUnits="userSpaceOnUse">
<stop stop-color="#0E84D9"/>
<stop offset="1" stop-color="#0EBED9"/>
</linearGradient>
<linearGradient id="paint76_linear_301_1959" x1="113.147" y1="53.7107" x2="113.147" y2="57.238" gradientUnits="userSpaceOnUse">
<stop stop-color="#0E84D9"/>
<stop offset="1" stop-color="#0EBED9"/>
</linearGradient>
<linearGradient id="paint77_linear_301_1959" x1="112.864" y1="50.0527" x2="112.864" y2="54.0476" gradientUnits="userSpaceOnUse">
<stop stop-color="#0E84D9"/>
<stop offset="1" stop-color="#0EBED9"/>
</linearGradient>
<linearGradient id="paint78_linear_301_1959" x1="112.366" y1="46.4185" x2="112.366" y2="50.9604" gradientUnits="userSpaceOnUse">
<stop stop-color="#0E84D9"/>
<stop offset="1" stop-color="#0EBED9"/>
</linearGradient>
<linearGradient id="paint79_linear_301_1959" x1="111.664" y1="42.8254" x2="111.664" y2="47.8107" gradientUnits="userSpaceOnUse">
<stop stop-color="#0E84D9"/>
<stop offset="1" stop-color="#0EBED9"/>
</linearGradient>
<linearGradient id="paint80_linear_301_1959" x1="110.691" y1="39.3342" x2="110.691" y2="44.8291" gradientUnits="userSpaceOnUse">
<stop stop-color="#0E84D9"/>
<stop offset="1" stop-color="#0EBED9"/>
</linearGradient>
<linearGradient id="paint81_linear_301_1959" x1="109.539" y1="35.9309" x2="109.539" y2="41.8411" gradientUnits="userSpaceOnUse">
<stop stop-color="#0E84D9"/>
<stop offset="1" stop-color="#0EBED9"/>
</linearGradient>
<linearGradient id="paint82_linear_301_1959" x1="108.165" y1="32.5662" x2="108.165" y2="38.9033" gradientUnits="userSpaceOnUse">
<stop stop-color="#0E84D9"/>
<stop offset="1" stop-color="#0EBED9"/>
</linearGradient>
<linearGradient id="paint83_linear_301_1959" x1="106.646" y1="29.3574" x2="106.646" y2="36.0306" gradientUnits="userSpaceOnUse">
<stop stop-color="#0E84D9"/>
<stop offset="1" stop-color="#0EBED9"/>
</linearGradient>
<linearGradient id="paint84_linear_301_1959" x1="104.957" y1="26.2102" x2="104.957" y2="33.347" gradientUnits="userSpaceOnUse">
<stop stop-color="#0E84D9"/>
<stop offset="1" stop-color="#0EBED9"/>
</linearGradient>
<linearGradient id="paint85_linear_301_1959" x1="102.934" y1="23.2192" x2="102.934" y2="30.6287" gradientUnits="userSpaceOnUse">
<stop stop-color="#0E84D9"/>
<stop offset="1" stop-color="#0EBED9"/>
</linearGradient>
<linearGradient id="paint86_linear_301_1959" x1="100.999" y1="20.3074" x2="100.999" y2="28.1693" gradientUnits="userSpaceOnUse">
<stop stop-color="#0E84D9"/>
<stop offset="1" stop-color="#0EBED9"/>
</linearGradient>
<linearGradient id="paint87_linear_301_1959" x1="98.6884" y1="17.6714" x2="98.6884" y2="25.9613" gradientUnits="userSpaceOnUse">
<stop stop-color="#0E84D9"/>
<stop offset="1" stop-color="#0EBED9"/>
</linearGradient>
<linearGradient id="paint88_linear_301_1959" x1="96.2449" y1="15.125" x2="96.2449" y2="23.5651" gradientUnits="userSpaceOnUse">
<stop stop-color="#0E84D9"/>
<stop offset="1" stop-color="#0EBED9"/>
</linearGradient>
<linearGradient id="paint89_linear_301_1959" x1="93.6605" y1="12.8447" x2="93.6605" y2="21.5218" gradientUnits="userSpaceOnUse">
<stop stop-color="#0E84D9"/>
<stop offset="1" stop-color="#0EBED9"/>
</linearGradient>
<linearGradient id="paint90_linear_301_1959" x1="90.9347" y1="10.519" x2="90.9347" y2="19.4602" gradientUnits="userSpaceOnUse">
<stop stop-color="#0E84D9"/>
<stop offset="1" stop-color="#0EBED9"/>
</linearGradient>
<linearGradient id="paint91_linear_301_1959" x1="88.2464" y1="8.41528" x2="88.2464" y2="17.5662" gradientUnits="userSpaceOnUse">
<stop stop-color="#0E84D9"/>
<stop offset="1" stop-color="#0EBED9"/>
</linearGradient>
<linearGradient id="paint92_linear_301_1959" x1="85.2708" y1="6.66455" x2="85.2708" y2="15.9222" gradientUnits="userSpaceOnUse">
<stop stop-color="#0E84D9"/>
<stop offset="1" stop-color="#0EBED9"/>
</linearGradient>
<linearGradient id="paint93_linear_301_1959" x1="82.1743" y1="5.04956" x2="82.1743" y2="14.5054" gradientUnits="userSpaceOnUse">
<stop stop-color="#0E84D9"/>
<stop offset="1" stop-color="#0EBED9"/>
</linearGradient>
<linearGradient id="paint94_linear_301_1959" x1="79.1858" y1="3.53687" x2="79.1858" y2="13.1042" gradientUnits="userSpaceOnUse">
<stop stop-color="#0E84D9"/>
<stop offset="1" stop-color="#0EBED9"/>
</linearGradient>
<linearGradient id="paint95_linear_301_1959" x1="75.9903" y1="2.46411" x2="75.9903" y2="12.1252" gradientUnits="userSpaceOnUse">
<stop stop-color="#0E84D9"/>
<stop offset="1" stop-color="#0EBED9"/>
</linearGradient>
<linearGradient id="paint96_linear_301_1959" x1="72.5991" y1="1.58398" x2="72.5991" y2="11.1814" gradientUnits="userSpaceOnUse">
<stop stop-color="#0E84D9"/>
<stop offset="1" stop-color="#0EBED9"/>
</linearGradient>
<linearGradient id="paint97_linear_301_1959" x1="69.3411" y1="0.803711" x2="69.3411" y2="10.4146" gradientUnits="userSpaceOnUse">
<stop stop-color="#0E84D9"/>
<stop offset="1" stop-color="#0EBED9"/>
</linearGradient>
<linearGradient id="paint98_linear_301_1959" x1="65.9488" y1="0.327881" x2="65.9488" y2="9.94243" gradientUnits="userSpaceOnUse">
<stop stop-color="#0E84D9"/>
<stop offset="1" stop-color="#0EBED9"/>
</linearGradient>
<linearGradient id="paint99_linear_301_1959" x1="62.5421" y1="0.259766" x2="62.5421" y2="9.44335" gradientUnits="userSpaceOnUse">
<stop stop-color="#0E84D9"/>
<stop offset="1" stop-color="#0EBED9"/>
</linearGradient>
</defs>
</svg>
