<svg viewBox="0 0 110 110" fill="none" xmlns="http://www.w3.org/2000/svg">
<g clip-path="url(#clip0_301_1122)">
<path d="M50.4574 4.77257L50.0536 0.569345C50.0403 0.48669 49.9979 0.411528 49.9338 0.357611C49.8698 0.303694 49.7885 0.274613 49.7048 0.275662C49.6204 0.284933 49.5429 0.326316 49.4882 0.391248C49.4335 0.456179 49.4059 0.53968 49.4111 0.624407L49.8149 4.77257H50.4574Z" fill="url(#paint0_linear_301_1122)"/>
<path d="M19.2167 19.4564L19.6756 18.9975L16.7021 16.0057C16.6385 15.9626 16.5619 15.9429 16.4854 15.9502C16.4089 15.9575 16.3374 15.9912 16.283 16.0455C16.2287 16.0998 16.195 16.1714 16.1878 16.2479C16.1805 16.3244 16.2001 16.401 16.2432 16.4645L19.2167 19.4564Z" fill="url(#paint1_linear_301_1122)"/>
<path d="M22.8147 16.1522L23.347 15.7851L20.6672 12.518C20.6463 12.472 20.6151 12.4315 20.576 12.3995C20.5369 12.3675 20.491 12.3449 20.4418 12.3334C20.3926 12.3219 20.3415 12.3218 20.2923 12.3332C20.2431 12.3446 20.1971 12.3671 20.1579 12.399C20.1188 12.4309 20.0875 12.4713 20.0664 12.5172C20.0453 12.5631 20.035 12.6133 20.0364 12.6638C20.0377 12.7142 20.0506 12.7638 20.074 12.8085C20.0975 12.8532 20.1309 12.892 20.1717 12.9218L22.8147 16.1522Z" fill="url(#paint2_linear_301_1122)"/>
<path d="M26.8528 13.124L27.4034 12.7752L25.0724 9.25113C25.0118 9.19695 24.9334 9.16699 24.8521 9.16699C24.7709 9.16699 24.6924 9.19695 24.6319 9.25113C24.5777 9.3117 24.5477 9.39011 24.5477 9.47137C24.5477 9.55264 24.5777 9.63105 24.6319 9.69162L26.8528 13.124Z" fill="url(#paint3_linear_301_1122)"/>
<path d="M45.6666 5.41494L44.859 1.28512C44.8526 1.24192 44.8373 1.20054 44.8139 1.16365C44.7905 1.12677 44.7597 1.09517 44.7234 1.07095C44.687 1.04673 44.646 1.03041 44.603 1.02303C44.56 1.01565 44.5159 1.01742 44.4735 1.02816C44.3887 1.04587 44.3143 1.09618 44.2662 1.16828C44.2181 1.24037 44.2003 1.32848 44.2166 1.41359L45.0242 5.54341L45.6666 5.41494Z" fill="url(#paint4_linear_301_1122)"/>
<path d="M36.195 8.18653L34.5982 4.29533C34.5841 4.25439 34.5616 4.21682 34.5323 4.18501C34.5029 4.15321 34.4672 4.12786 34.4275 4.1106C34.3878 4.09333 34.3449 4.08452 34.3016 4.08472C34.2583 4.08492 34.2155 4.09414 34.176 4.11178C34.0965 4.14445 34.0329 4.2068 33.9986 4.28562C33.9643 4.36443 33.9621 4.45351 33.9924 4.53393L35.5526 8.4435L36.195 8.18653Z" fill="url(#paint5_linear_301_1122)"/>
<path d="M40.7474 6.60784L39.536 2.5698C39.5256 2.52781 39.5066 2.48846 39.4802 2.45421C39.4537 2.41997 39.4205 2.39157 39.3825 2.37086C39.3446 2.35015 39.3027 2.33756 39.2596 2.33389C39.2165 2.33022 39.1731 2.33553 39.1322 2.34952C39.0502 2.37501 38.9814 2.43143 38.9402 2.50681C38.8991 2.58218 38.889 2.67059 38.9119 2.75333L40.1233 6.77302L40.7474 6.60784Z" fill="url(#paint6_linear_301_1122)"/>
<path d="M31.001 10.6093L31.57 10.3157L29.5877 6.64474C29.5727 6.59843 29.5478 6.55598 29.5145 6.52044C29.4813 6.48491 29.4406 6.45715 29.3954 6.43917C29.3501 6.42118 29.3015 6.4134 29.2529 6.4164C29.2044 6.41939 29.1571 6.43308 29.1144 6.45647C29.0717 6.47987 29.0348 6.51241 29.0061 6.55175C28.9775 6.5911 28.9579 6.63629 28.9488 6.68409C28.9396 6.73188 28.9411 6.7811 28.9532 6.82824C28.9653 6.87538 28.9877 6.91927 29.0187 6.95677L31.001 10.6093Z" fill="url(#paint7_linear_301_1122)"/>
<path d="M2.62486 39.3529L6.64455 40.5826L6.8281 39.9586L2.80841 38.7288C2.72568 38.7059 2.63726 38.716 2.56188 38.7571C2.48651 38.7983 2.4301 38.8671 2.4046 38.9491C2.38165 39.0318 2.39181 39.1202 2.43292 39.1956C2.47403 39.271 2.54287 39.3274 2.62486 39.3529Z" fill="url(#paint8_linear_301_1122)"/>
<path d="M1.3211 44.4551L5.45092 45.2995L5.5794 44.657L1.44959 43.8127C1.3696 43.8074 1.29039 43.8313 1.22673 43.88C1.16307 43.9288 1.11931 43.999 1.10359 44.0776C1.08786 44.1562 1.10126 44.2379 1.14128 44.3073C1.1813 44.3768 1.24521 44.4293 1.3211 44.4551Z" fill="url(#paint9_linear_301_1122)"/>
<path d="M0.569055 49.8702L4.77229 50.2924C4.77229 50.0721 4.77229 49.8519 4.77229 49.65L0.587407 49.2278C0.50371 49.2268 0.422433 49.2558 0.358407 49.3098C0.294381 49.3637 0.251879 49.4388 0.238669 49.5215C0.236171 49.5664 0.24287 49.6113 0.258351 49.6536C0.273832 49.6958 0.297766 49.7344 0.328698 49.7671C0.35963 49.7997 0.396905 49.8257 0.438234 49.8434C0.479563 49.8612 0.52408 49.8703 0.569055 49.8702Z" fill="url(#paint10_linear_301_1122)"/>
<path d="M10.389 31.4235L10.6826 30.8545L7.01168 28.8722C6.97418 28.8412 6.9303 28.8188 6.88317 28.8067C6.83603 28.7946 6.7868 28.7931 6.73901 28.8023C6.69121 28.8114 6.64603 28.831 6.60668 28.8596C6.56733 28.8883 6.5348 28.9252 6.5114 28.9679C6.488 29.0106 6.47432 29.0579 6.47133 29.1065C6.46834 29.155 6.47611 29.2037 6.49409 29.2489C6.51208 29.2941 6.53983 29.3348 6.57536 29.368C6.61089 29.4013 6.65334 29.4263 6.69965 29.4412L10.389 31.4235Z" fill="url(#paint11_linear_301_1122)"/>
<path d="M8.33291 35.8101L8.57153 35.2044L4.69867 33.5891C4.62022 33.5641 4.53524 33.5693 4.4604 33.6036C4.38555 33.638 4.32622 33.699 4.29406 33.7748C4.2619 33.8507 4.25921 33.9357 4.28652 34.0134C4.31383 34.0911 4.36918 34.1558 4.44171 34.1948L8.33291 35.8101Z" fill="url(#paint12_linear_301_1122)"/>
<path d="M12.9769 27.0732L13.344 26.5409L9.85658 24.1915C9.82273 24.1559 9.78135 24.1282 9.73545 24.1106C9.68956 24.093 9.64031 24.0858 9.59129 24.0896C9.54228 24.0934 9.49474 24.1082 9.45213 24.1327C9.40953 24.1572 9.37294 24.191 9.34503 24.2315C9.31712 24.2719 9.29859 24.3181 9.2908 24.3666C9.28301 24.4152 9.28614 24.4649 9.29998 24.512C9.31383 24.5592 9.33802 24.6027 9.3708 24.6393C9.40358 24.676 9.44413 24.7048 9.48949 24.7238L12.9769 27.0732Z" fill="url(#paint13_linear_301_1122)"/>
<path d="M15.84 23.127L16.2438 22.6314L12.9951 19.9517C12.9286 19.9213 12.8539 19.9139 12.7828 19.9305C12.7116 19.9472 12.648 19.9869 12.6018 20.0436C12.5557 20.1002 12.5296 20.1705 12.5277 20.2436C12.5258 20.3166 12.5481 20.3882 12.5912 20.4472L15.84 23.127Z" fill="url(#paint14_linear_301_1122)"/>
<path d="M91.0392 19.6767L94.031 16.7032C94.0713 16.6759 94.105 16.64 94.1298 16.5981C94.1546 16.5563 94.1699 16.5095 94.1745 16.461C94.1791 16.4126 94.1729 16.3637 94.1565 16.3179C94.14 16.2721 94.1136 16.2305 94.0792 16.1961C94.0448 16.1617 94.0032 16.1353 93.9574 16.1189C93.9116 16.1024 93.8628 16.0962 93.8143 16.1008C93.7659 16.1055 93.7191 16.1207 93.6772 16.1455C93.6353 16.1703 93.5995 16.2041 93.5721 16.2443L90.5803 19.2178L91.0392 19.6767Z" fill="url(#paint15_linear_301_1122)"/>
<path d="M97.2434 27.3853L100.768 25.0542C100.822 24.9936 100.852 24.9152 100.852 24.8339C100.852 24.7527 100.822 24.6742 100.768 24.6137C100.707 24.5595 100.629 24.5295 100.547 24.5295C100.466 24.5295 100.388 24.5595 100.327 24.6137L96.8947 26.7979L97.2434 27.3853Z" fill="url(#paint16_linear_301_1122)"/>
<path d="M4.55179 55.1378C4.55179 55.1378 4.55179 55.046 4.55179 54.991C4.55179 54.9359 4.55179 54.6606 4.55179 54.4771H0.3302C0.258085 54.4944 0.193909 54.5356 0.148006 54.5938C0.102104 54.6521 0.0771484 54.7241 0.0771484 54.7983C0.0771484 54.8725 0.102104 54.9445 0.148006 55.0027C0.193909 55.061 0.258085 55.1021 0.3302 55.1195H4.55179V55.1378Z" fill="url(#paint17_linear_301_1122)"/>
<path d="M94.2697 23.3109L97.5368 20.6311C97.5799 20.5721 97.6023 20.5005 97.6004 20.4274C97.5984 20.3544 97.5724 20.284 97.5262 20.2274C97.4801 20.1708 97.4164 20.131 97.3453 20.1144C97.2741 20.0978 97.1995 20.1052 97.133 20.1355L93.8658 22.7969L94.2697 23.3109Z" fill="url(#paint18_linear_301_1122)"/>
<path d="M101.814 36.1591L105.705 34.5622C105.771 34.5217 105.821 34.4591 105.846 34.3853C105.871 34.3116 105.869 34.2314 105.84 34.159C105.812 34.0866 105.759 34.0266 105.69 33.9896C105.622 33.9525 105.542 33.9408 105.466 33.9565L101.575 35.5534L101.814 36.1591Z" fill="url(#paint19_linear_301_1122)"/>
<path d="M99.7024 31.5704L103.373 29.5881C103.433 29.5392 103.473 29.4711 103.487 29.3956C103.502 29.3202 103.489 29.242 103.452 29.1747C103.416 29.1073 103.356 29.055 103.285 29.0266C103.213 28.9982 103.134 28.9955 103.061 29.0191L99.3904 31.0014L99.7024 31.5704Z" fill="url(#paint20_linear_301_1122)"/>
<path d="M105.264 50.4575L109.468 50.0537C109.552 50.0444 109.63 50.003 109.684 49.9381C109.739 49.8732 109.767 49.7896 109.761 49.7049C109.752 49.6205 109.711 49.543 109.646 49.4883C109.581 49.4336 109.497 49.406 109.413 49.4113L105.228 49.815C105.228 50.0169 105.246 50.2372 105.264 50.4575Z" fill="url(#paint21_linear_301_1122)"/>
<path d="M103.411 40.7294L107.449 39.518C107.531 39.4925 107.599 39.4361 107.641 39.3607C107.682 39.2854 107.692 39.197 107.669 39.1142C107.658 39.0722 107.639 39.0329 107.613 38.9986C107.587 38.9644 107.553 38.936 107.515 38.9153C107.477 38.8946 107.436 38.882 107.392 38.8783C107.349 38.8747 107.306 38.88 107.265 38.894L103.245 40.1054L103.411 40.7294Z" fill="url(#paint22_linear_301_1122)"/>
<path d="M104.586 45.6486L108.715 44.841C108.8 44.8233 108.875 44.7729 108.923 44.7008C108.971 44.6287 108.989 44.5406 108.972 44.4555C108.966 44.4123 108.951 44.3709 108.927 44.334C108.904 44.2972 108.873 44.2656 108.837 44.2414C108.8 44.2172 108.759 44.2008 108.716 44.1935C108.673 44.1861 108.629 44.1878 108.587 44.1985L104.457 45.0062C104.53 45.153 104.549 45.4283 104.586 45.6486Z" fill="url(#paint23_linear_301_1122)"/>
<path d="M70.0419 6.80955L71.2717 2.78986C71.2955 2.70949 71.288 2.62308 71.2505 2.5481C71.213 2.47312 71.1484 2.41518 71.0698 2.38605C70.987 2.3631 70.8986 2.37325 70.8232 2.41436C70.7479 2.45548 70.6915 2.52434 70.666 2.60632L69.4178 6.60765L70.0419 6.80955Z" fill="url(#paint24_linear_301_1122)"/>
<path d="M65.3429 5.59853L66.1688 1.46871C66.1807 1.38895 66.163 1.3076 66.1191 1.23998C66.0751 1.17236 66.0079 1.12315 65.9302 1.10162C65.8879 1.09088 65.8438 1.08915 65.8008 1.09653C65.7577 1.1039 65.7167 1.12023 65.6804 1.14445C65.6441 1.16867 65.6132 1.20023 65.5898 1.23712C65.5665 1.27401 65.5511 1.31539 65.5448 1.35859L64.7004 5.48841L65.3429 5.59853Z" fill="url(#paint25_linear_301_1122)"/>
<path d="M55.0088 4.53378H55.5227V0.312212C55.5227 0.224588 55.4879 0.140535 55.4259 0.0785761C55.364 0.0166168 55.2799 -0.0181885 55.1923 -0.0181885C55.1047 -0.0181885 55.0207 0.0166168 54.9587 0.0785761C54.8968 0.140535 54.8619 0.224588 54.8619 0.312212V4.53378H55.0088Z" fill="url(#paint26_linear_301_1122)"/>
<path d="M87.3314 16.244L90.0112 12.9952C90.0483 12.9644 90.0781 12.9259 90.0987 12.8823C90.1193 12.8388 90.1302 12.7913 90.1305 12.7431C90.1308 12.6949 90.1205 12.6473 90.1005 12.6035C90.0804 12.5597 90.051 12.5208 90.0143 12.4895C89.9777 12.4583 89.9346 12.4354 89.8882 12.4226C89.8417 12.4098 89.7931 12.4072 89.7455 12.4152C89.698 12.4231 89.6528 12.4414 89.6131 12.4687C89.5734 12.4959 89.5401 12.5315 89.5156 12.573L86.8358 15.7851L87.3314 16.244Z" fill="url(#paint27_linear_301_1122)"/>
<path d="M60.3507 4.77254L60.7728 0.587664C60.7781 0.502937 60.7505 0.419436 60.6958 0.354504C60.6411 0.289573 60.5635 0.24819 60.4792 0.238919C60.3955 0.23787 60.3142 0.266951 60.2501 0.320868C60.1861 0.374785 60.1436 0.449947 60.1304 0.532602L59.7083 4.77254H60.3507Z" fill="url(#paint28_linear_301_1122)"/>
<path d="M83.4587 13.3257L85.8081 9.83825C85.8373 9.76832 85.8417 9.69046 85.8203 9.61773C85.799 9.54499 85.7533 9.4818 85.6909 9.43876C85.6285 9.39572 85.5532 9.37547 85.4776 9.38137C85.402 9.38727 85.3308 9.41897 85.2758 9.47117L82.9264 12.9586L83.4587 13.3257Z" fill="url(#paint29_linear_301_1122)"/>
<path d="M79.1455 10.6826L81.1278 7.01165C81.1514 6.93854 81.1487 6.85948 81.1203 6.7881C81.0919 6.71672 81.0396 6.65747 80.9722 6.62053C80.9048 6.58359 80.8267 6.57128 80.7513 6.58572C80.6758 6.60016 80.6077 6.64043 80.5588 6.69962L78.5581 10.3706L79.1455 10.6826Z" fill="url(#paint30_linear_301_1122)"/>
<path d="M74.7406 8.55336L76.4109 4.77228C76.4327 4.73181 76.4458 4.68725 76.4493 4.64143C76.4529 4.59562 76.4469 4.54957 76.4316 4.50622C76.4164 4.46286 76.3923 4.42315 76.3608 4.38965C76.3294 4.35615 76.2913 4.32957 76.249 4.31162C76.2067 4.29368 76.1611 4.28477 76.1151 4.28544C76.0692 4.2861 76.0239 4.29635 75.9821 4.31552C75.9404 4.33468 75.9031 4.36236 75.8726 4.39676C75.8421 4.43117 75.8192 4.47154 75.8052 4.51532L74.1716 8.38817L74.7406 8.55336Z" fill="url(#paint31_linear_301_1122)"/>
<path d="M30.854 99.3179L28.8717 102.989C28.8318 103.065 28.823 103.153 28.847 103.235C28.8709 103.317 28.9258 103.387 29.0002 103.429H29.147C29.2063 103.431 29.2648 103.416 29.3165 103.387C29.3681 103.358 29.411 103.315 29.4407 103.264L31.4413 99.5932L30.854 99.3179Z" fill="url(#paint32_linear_301_1122)"/>
<path d="M83.165 96.8765L82.6144 97.2252L84.9454 100.749C85.006 100.804 85.0844 100.833 85.1657 100.833C85.247 100.833 85.3254 100.804 85.386 100.749C85.4401 100.689 85.4701 100.61 85.4701 100.529C85.4701 100.448 85.4401 100.369 85.386 100.309L83.165 96.8765Z" fill="url(#paint33_linear_301_1122)"/>
<path d="M87.2028 93.8481L86.6888 94.252L89.4237 97.5191C89.4541 97.5585 89.493 97.5905 89.5375 97.6128C89.582 97.635 89.6309 97.6469 89.6807 97.6476C89.7463 97.6687 89.8169 97.6687 89.8826 97.6476C89.942 97.586 89.9752 97.5038 89.9752 97.4182C89.9752 97.3326 89.942 97.2503 89.8826 97.1887L87.2028 93.8481Z" fill="url(#paint34_linear_301_1122)"/>
<path d="M90.7825 90.5808L90.3236 91.0397L93.2971 94.0315C93.3288 94.0619 93.3662 94.0857 93.4071 94.1014C93.4481 94.1172 93.4918 94.1246 93.5357 94.1233C93.6184 94.1231 93.6976 94.0901 93.7559 94.0315C93.8154 93.9699 93.8486 93.8877 93.8486 93.8021C93.8486 93.7165 93.8154 93.6342 93.7559 93.5727L90.7825 90.5808Z" fill="url(#paint35_linear_301_1122)"/>
<path d="M79.0174 99.3914L78.4484 99.685L80.4307 103.356C80.4603 103.407 80.5032 103.45 80.5549 103.479C80.6066 103.508 80.6651 103.523 80.7244 103.521H80.8712C80.9455 103.479 81.0004 103.409 81.0244 103.327C81.0484 103.245 81.0395 103.156 80.9997 103.081L79.0174 99.3914Z" fill="url(#paint36_linear_301_1122)"/>
<path d="M69.2338 103.411L70.4452 107.449C70.4648 107.517 70.5057 107.577 70.5619 107.62C70.618 107.662 70.6865 107.686 70.7572 107.687H70.8857C70.9677 107.662 71.0365 107.605 71.0776 107.53C71.1187 107.455 71.1289 107.366 71.1059 107.284L69.8945 103.264L69.2338 103.411Z" fill="url(#paint37_linear_301_1122)"/>
<path d="M64.3512 104.586L65.1588 108.715C65.175 108.787 65.2145 108.851 65.2709 108.897C65.3274 108.944 65.3977 108.97 65.4708 108.972C65.5557 108.955 65.6301 108.904 65.6782 108.832C65.7263 108.76 65.7441 108.672 65.7278 108.587L64.9202 104.457L64.3512 104.586Z" fill="url(#paint38_linear_301_1122)"/>
<path d="M73.8596 101.814L75.4565 105.724C75.481 105.782 75.5217 105.832 75.5738 105.868C75.6258 105.903 75.687 105.924 75.7502 105.926H75.8787C75.9581 105.893 76.0218 105.831 76.0561 105.752C76.0903 105.673 76.0925 105.584 76.0622 105.503L74.4653 101.612L73.8596 101.814Z" fill="url(#paint39_linear_301_1122)"/>
<path d="M94.178 86.8181L93.7742 87.3137L97.023 89.9934C97.0886 90.0145 97.1592 90.0145 97.2249 89.9934C97.2886 89.9885 97.3495 89.9652 97.4002 89.9263C97.4509 89.8875 97.4893 89.8348 97.5106 89.7745C97.532 89.7143 97.5355 89.6492 97.5206 89.5871C97.5057 89.5249 97.4731 89.4684 97.4268 89.4245L94.178 86.8181Z" fill="url(#paint40_linear_301_1122)"/>
<path d="M109.449 60.1118L105.246 59.6897C105.246 59.91 105.246 60.1302 105.246 60.3321L109.431 60.7542C109.503 60.7391 109.569 60.6998 109.617 60.6428C109.664 60.5859 109.691 60.5145 109.693 60.4403C109.696 60.366 109.673 60.2932 109.628 60.2336C109.584 60.1741 109.521 60.1311 109.449 60.1118Z" fill="url(#paint41_linear_301_1122)"/>
<path d="M97.0415 82.9087L96.6744 83.4409L100.162 85.7904C100.196 85.8261 100.237 85.8537 100.283 85.8713C100.329 85.8889 100.378 85.8961 100.427 85.8922C100.476 85.8884 100.524 85.8737 100.566 85.8492C100.609 85.8246 100.645 85.7909 100.673 85.7505C100.701 85.71 100.72 85.6638 100.728 85.6153C100.735 85.5667 100.732 85.517 100.718 85.4698C100.705 85.4227 100.68 85.3792 100.648 85.3426C100.615 85.3059 100.574 85.2771 100.529 85.2581L97.0415 82.9087Z" fill="url(#paint42_linear_301_1122)"/>
<path d="M108.66 65.5447L104.53 64.7004L104.402 65.3429L108.532 66.1872C108.612 66.1925 108.691 66.1686 108.754 66.1199C108.818 66.0712 108.862 66.001 108.878 65.9223C108.893 65.8437 108.88 65.7621 108.84 65.6926C108.8 65.6232 108.736 65.5706 108.66 65.5447Z" fill="url(#paint43_linear_301_1122)"/>
<path d="M109.614 54.8623H105.393C105.393 54.8623 105.393 54.9541 105.393 55.0091C105.393 55.0642 105.393 55.3395 105.393 55.523H109.614C109.702 55.523 109.786 55.4883 109.848 55.4263C109.91 55.3644 109.945 55.2803 109.945 55.1927C109.945 55.1051 109.91 55.021 109.848 54.959C109.786 54.8971 109.702 54.8623 109.614 54.8623Z" fill="url(#paint44_linear_301_1122)"/>
<path d="M99.6296 78.5767L99.3359 79.1457L103.007 81.128H103.154C103.213 81.1293 103.272 81.1147 103.323 81.0857C103.375 81.0566 103.418 81.0142 103.447 80.9628C103.487 80.887 103.496 80.7987 103.472 80.7166C103.448 80.6344 103.393 80.5647 103.319 80.5223L99.6296 78.5767Z" fill="url(#paint45_linear_301_1122)"/>
<path d="M107.393 70.6478L103.374 69.418L103.19 70.042L107.21 71.2718H107.302C107.371 71.2608 107.435 71.2279 107.485 71.1778C107.535 71.1278 107.567 71.0632 107.577 70.9935C107.587 70.9239 107.575 70.8527 107.542 70.7905C107.509 70.7283 107.457 70.6783 107.393 70.6478Z" fill="url(#paint46_linear_301_1122)"/>
<path d="M101.685 74.1716L101.446 74.7774L105.319 76.3559H105.448C105.52 76.3511 105.589 76.3228 105.643 76.2753C105.698 76.2278 105.735 76.1637 105.75 76.0928C105.764 76.0219 105.755 75.9482 105.724 75.883C105.693 75.8178 105.641 75.7646 105.576 75.7318L101.685 74.1716Z" fill="url(#paint47_linear_301_1122)"/>
<path d="M12.7749 82.615L9.2508 84.946C9.19895 84.9876 9.16084 85.0438 9.14145 85.1074C9.12206 85.171 9.12229 85.239 9.14211 85.3024C9.16194 85.3658 9.20043 85.4218 9.25257 85.463C9.3047 85.5042 9.36805 85.5287 9.43435 85.5334C9.4943 85.5507 9.55795 85.5507 9.6179 85.5334L13.1237 83.2024L12.7749 82.615Z" fill="url(#paint48_linear_301_1122)"/>
<path d="M4.75378 59.5432L0.550544 59.947C0.478429 59.9644 0.414253 60.0055 0.36835 60.0638C0.322447 60.122 0.297485 60.194 0.297485 60.2682C0.297485 60.3424 0.322447 60.4144 0.36835 60.4727C0.414253 60.531 0.478429 60.5721 0.550544 60.5894L4.73542 60.1856C4.79049 59.9837 4.77213 59.8369 4.75378 59.5432Z" fill="url(#paint49_linear_301_1122)"/>
<path d="M15.7485 86.6899L12.4813 89.3697C12.435 89.4137 12.4024 89.4702 12.3875 89.5323C12.3726 89.5945 12.3761 89.6596 12.3974 89.7198C12.4188 89.78 12.4572 89.8328 12.5079 89.8716C12.5586 89.9105 12.6195 89.9338 12.6832 89.9387C12.7489 89.9598 12.8195 89.9598 12.8851 89.9387L16.1523 87.2773L15.7485 86.6899Z" fill="url(#paint50_linear_301_1122)"/>
<path d="M10.3153 78.4302L6.64433 80.4125C6.58699 80.4497 6.54263 80.5039 6.51738 80.5675C6.49212 80.631 6.4872 80.7008 6.50332 80.7673C6.51943 80.8338 6.55578 80.8936 6.60734 80.9386C6.65889 80.9835 6.72312 81.0113 6.79117 81.0182H6.93801L10.609 79.0359L10.3153 78.4302Z" fill="url(#paint51_linear_301_1122)"/>
<path d="M8.18574 73.8416L4.29453 75.4384C4.23005 75.4713 4.17814 75.5244 4.14678 75.5896C4.11542 75.6548 4.10633 75.7285 4.12092 75.7994C4.13552 75.8703 4.17298 75.9345 4.22756 75.982C4.28214 76.0295 4.3508 76.0578 4.42301 76.0625H4.5515L8.44271 74.4656L8.18574 73.8416Z" fill="url(#paint52_linear_301_1122)"/>
<path d="M5.4144 64.3518L1.3213 65.1594C1.24918 65.1768 1.18501 65.2179 1.1391 65.2762C1.0932 65.3344 1.06824 65.4065 1.06824 65.4807C1.06824 65.5548 1.0932 65.6269 1.1391 65.6851C1.18501 65.7434 1.24918 65.7845 1.3213 65.8018L5.45111 64.9942C5.48782 64.774 5.46947 64.5537 5.4144 64.3518Z" fill="url(#paint53_linear_301_1122)"/>
<path d="M6.60736 69.2529L2.56932 70.4644C2.49668 70.4894 2.43502 70.5388 2.39495 70.6044C2.35487 70.6699 2.33889 70.7474 2.34976 70.8235C2.36062 70.8995 2.39765 70.9694 2.45447 71.0211C2.51129 71.0728 2.58435 71.1031 2.66109 71.1068H2.75286L6.77256 69.8954L6.60736 69.2529Z" fill="url(#paint54_linear_301_1122)"/>
<path d="M18.9782 90.324L16.0048 93.2975C15.9453 93.3591 15.9121 93.4413 15.9121 93.5269C15.9121 93.6125 15.9453 93.6948 16.0048 93.7564C16.0364 93.7867 16.0739 93.8105 16.1148 93.8263C16.1558 93.842 16.1995 93.8494 16.2434 93.8481C16.3261 93.8479 16.4053 93.8149 16.4636 93.7564L19.4555 90.7828L18.9782 90.324Z" fill="url(#paint55_linear_301_1122)"/>
<path d="M55.0089 105.467H54.55V109.688C54.55 109.776 54.5849 109.86 54.6468 109.922C54.7088 109.984 54.7928 110.019 54.8804 110.019C54.9681 110.019 55.0521 109.984 55.114 109.922C55.176 109.86 55.2108 109.776 55.2108 109.688V105.467H55.0089Z" fill="url(#paint56_linear_301_1122)"/>
<path d="M49.6674 105.173L49.2453 109.394C49.24 109.479 49.2676 109.563 49.3223 109.628C49.377 109.692 49.4546 109.734 49.5389 109.743C49.6206 109.744 49.6995 109.714 49.7605 109.66C49.8215 109.605 49.8603 109.531 49.8693 109.449L50.2915 105.246L49.6674 105.173Z" fill="url(#paint57_linear_301_1122)"/>
<path d="M44.6754 104.402L43.8494 108.514C43.8331 108.599 43.8509 108.687 43.899 108.759C43.9471 108.831 44.0215 108.881 44.1064 108.899C44.1795 108.897 44.2498 108.87 44.3063 108.824C44.3627 108.777 44.4022 108.713 44.4184 108.642L45.3728 104.512L44.6754 104.402Z" fill="url(#paint58_linear_301_1122)"/>
<path d="M22.6864 93.7378L20.0066 96.9866C19.9696 97.0173 19.9397 97.0559 19.9191 97.0994C19.8985 97.143 19.8876 97.1905 19.8873 97.2387C19.887 97.2869 19.8973 97.3345 19.9173 97.3783C19.9374 97.4221 19.9668 97.461 20.0035 97.4922C20.0401 97.5234 20.0832 97.5463 20.1296 97.5591C20.1761 97.572 20.2248 97.5745 20.2723 97.5666C20.3198 97.5586 20.365 97.5404 20.4047 97.5131C20.4444 97.4858 20.4777 97.4502 20.5022 97.4087L23.182 94.16L22.6864 93.7378Z" fill="url(#paint59_linear_301_1122)"/>
<path d="M59.5613 105.246L59.9651 109.395C59.9741 109.476 60.0129 109.551 60.0739 109.605C60.1349 109.659 60.2138 109.689 60.2955 109.688C60.3739 109.684 60.4484 109.653 60.5055 109.599C60.5627 109.545 60.5989 109.473 60.6075 109.395L60.2037 105.21L59.5613 105.246Z" fill="url(#paint60_linear_301_1122)"/>
<path d="M26.5593 96.6748L24.1915 100.217C24.1559 100.251 24.1282 100.292 24.1106 100.338C24.093 100.384 24.0858 100.434 24.0896 100.483C24.0935 100.532 24.1082 100.579 24.1327 100.622C24.1572 100.664 24.191 100.701 24.2314 100.729C24.2719 100.757 24.3181 100.775 24.3666 100.783C24.4152 100.791 24.4648 100.788 24.512 100.774C24.5592 100.76 24.6027 100.736 24.6393 100.703C24.676 100.67 24.7048 100.63 24.7238 100.584L27.0732 97.0969L26.5593 96.6748Z" fill="url(#paint61_linear_301_1122)"/>
<path d="M39.9765 103.191L38.7468 107.21C38.7238 107.293 38.734 107.382 38.7751 107.457C38.8162 107.532 38.885 107.589 38.967 107.614H39.0588C39.1295 107.613 39.198 107.589 39.2541 107.546C39.3103 107.503 39.3512 107.443 39.3708 107.376L40.6006 103.356L39.9765 103.191Z" fill="url(#paint62_linear_301_1122)"/>
<path d="M35.2227 101.428L33.6074 105.301C33.5759 105.379 33.5755 105.467 33.6062 105.545C33.6369 105.624 33.6965 105.687 33.7726 105.723H33.9011C33.9642 105.721 34.0255 105.701 34.0775 105.665C34.1296 105.63 34.1703 105.58 34.1948 105.522L35.81 101.649L35.2227 101.428Z" fill="url(#paint63_linear_301_1122)"/>
<path d="M30.7995 15.051L31.3501 14.7206L27.2754 7.87428C27.2546 7.83719 27.2264 7.80473 27.1926 7.77891C27.1588 7.7531 27.1201 7.73447 27.0789 7.72416C27.0376 7.71385 26.9947 7.71207 26.9527 7.71895C26.9108 7.72583 26.8707 7.74121 26.8349 7.76415C26.7637 7.8096 26.7126 7.88055 26.6921 7.96247C26.6716 8.0444 26.6833 8.13106 26.7247 8.20465L30.7995 15.051Z" fill="url(#paint64_linear_301_1122)"/>
<path d="M27.0179 17.6206L27.5318 17.2351L22.778 10.8293C22.7487 10.7976 22.7133 10.7723 22.6738 10.755C22.6343 10.7377 22.5916 10.7288 22.5485 10.7288C22.5054 10.7288 22.4628 10.7377 22.4233 10.755C22.3838 10.7723 22.3483 10.7976 22.3191 10.8293C22.2597 10.8909 22.2264 10.9731 22.2264 11.0587C22.2264 11.1443 22.2597 11.2266 22.3191 11.2882L27.0179 17.6206Z" fill="url(#paint65_linear_301_1122)"/>
<path d="M34.7452 12.9032L35.3326 12.6279L31.937 5.43288C31.8918 5.3709 31.8264 5.32656 31.7521 5.30749C31.6778 5.28842 31.5992 5.2958 31.5298 5.32836C31.4603 5.36091 31.4043 5.41662 31.3715 5.48593C31.3386 5.55523 31.3309 5.63381 31.3496 5.70819L34.7452 12.9032Z" fill="url(#paint66_linear_301_1122)"/>
<path d="M23.476 20.5387L23.9532 20.0982L18.6119 14.188C18.5827 14.1563 18.5473 14.131 18.5078 14.1136C18.4683 14.0963 18.4256 14.0874 18.3825 14.0874C18.3394 14.0874 18.2968 14.0963 18.2573 14.1136C18.2178 14.131 18.1823 14.1563 18.1531 14.188C18.0936 14.2496 18.0604 14.3318 18.0604 14.4174C18.0604 14.503 18.0936 14.5853 18.1531 14.6468L23.476 20.5387Z" fill="url(#paint67_linear_301_1122)"/>
<path d="M39.6649 10.8659L37.0035 3.35878C36.9972 3.3096 36.98 3.26245 36.953 3.22084C36.9261 3.17923 36.8901 3.14424 36.8478 3.11842C36.8055 3.0926 36.7579 3.07663 36.7085 3.0717C36.6592 3.06678 36.6094 3.07302 36.5628 3.08996C36.5162 3.1069 36.474 3.13413 36.4394 3.16959C36.4047 3.20505 36.3785 3.24783 36.3627 3.29481C36.3468 3.34178 36.3418 3.39172 36.3478 3.44092C36.3539 3.49012 36.371 3.53734 36.3978 3.57905L39.0592 11.0861L39.6649 10.8659Z" fill="url(#paint68_linear_301_1122)"/>
<path d="M53.0455 8.33294L52.7151 0.366987C52.7104 0.282583 52.6735 0.203186 52.6121 0.145143C52.5506 0.0870996 52.4692 0.0548015 52.3847 0.054932C52.3413 0.0572765 52.2988 0.0681919 52.2596 0.0870002C52.2204 0.105808 52.1853 0.132154 52.1563 0.164552C52.1273 0.19695 52.105 0.234761 52.0907 0.275796C52.0763 0.316832 52.0702 0.360275 52.0727 0.403677L52.4031 8.44306L53.0455 8.33294Z" fill="url(#paint69_linear_301_1122)"/>
<path d="M43.9778 9.59955L42.0505 1.87219C42.0512 1.822 42.0404 1.77233 42.019 1.72692C41.9976 1.68151 41.9662 1.64156 41.927 1.61013C41.8879 1.5787 41.8421 1.55661 41.7931 1.54552C41.7442 1.53443 41.6933 1.53464 41.6445 1.54613C41.5956 1.55763 41.55 1.58011 41.5111 1.61187C41.4723 1.64362 41.4411 1.68383 41.4201 1.72941C41.3991 1.775 41.3888 1.82475 41.3898 1.87494C41.3909 1.92512 41.4035 1.97441 41.4264 2.01903L43.3537 9.7464L43.9778 9.59955Z" fill="url(#paint70_linear_301_1122)"/>
<path d="M48.5666 8.73689L47.4102 0.844344C47.4059 0.80145 47.3927 0.759911 47.3715 0.722373C47.3503 0.684834 47.3215 0.652121 47.287 0.626252C47.2525 0.600384 47.213 0.581935 47.1711 0.572087C47.1291 0.562239 47.0855 0.561205 47.0431 0.569034C46.9586 0.582641 46.8827 0.628496 46.8313 0.69697C46.78 0.765445 46.7572 0.851189 46.7678 0.936123L47.9242 8.82867L48.5666 8.73689Z" fill="url(#paint71_linear_301_1122)"/>
<path d="M3.41391 36.8743L10.921 39.6458L11.1413 39.0401L3.63416 36.3604C3.57901 36.3691 3.52696 36.3917 3.4829 36.426C3.43883 36.4603 3.40418 36.5052 3.38218 36.5565C3.36018 36.6078 3.35156 36.6639 3.3571 36.7195C3.36265 36.7751 3.3822 36.8283 3.41391 36.8743Z" fill="url(#paint72_linear_301_1122)"/>
<path d="M20.1898 23.8795L20.6304 23.4023L14.7201 18.0427C14.6911 18.0038 14.6539 17.9717 14.6111 17.9488C14.5683 17.9259 14.521 17.9127 14.4725 17.9101C14.4241 17.9076 14.3756 17.9157 14.3306 17.934C14.2857 17.9523 14.2453 17.9803 14.2124 18.0159C14.1794 18.0516 14.1548 18.0941 14.1401 18.1404C14.1255 18.1867 14.1212 18.2356 14.1277 18.2837C14.1341 18.3319 14.151 18.378 14.1773 18.4188C14.2036 18.4596 14.2385 18.4942 14.2796 18.52L20.1898 23.8795Z" fill="url(#paint73_linear_301_1122)"/>
<path d="M0.881376 47.2814L8.77392 48.4562L8.86569 47.8137L0.973156 46.639C0.888221 46.6284 0.802485 46.6512 0.73401 46.7026C0.665535 46.7539 0.619666 46.8299 0.606059 46.9144C0.595461 46.9993 0.618238 47.085 0.669594 47.1535C0.72095 47.222 0.796872 47.2678 0.881376 47.2814Z" fill="url(#paint74_linear_301_1122)"/>
<path d="M1.92715 41.904L9.65449 43.8495L9.81969 43.2255L2.09233 41.2799C2.00977 41.263 1.92389 41.2783 1.85224 41.3227C1.78058 41.367 1.72858 41.4371 1.70689 41.5185C1.68917 41.5986 1.70192 41.6825 1.74263 41.7537C1.78334 41.825 1.84912 41.8785 1.92715 41.904Z" fill="url(#paint75_linear_301_1122)"/>
<path d="M12.683 35.2228L12.9583 34.6354L5.76325 31.2214C5.68886 31.2027 5.61028 31.2104 5.54097 31.2433C5.47167 31.2762 5.41596 31.3321 5.38341 31.4016C5.35085 31.471 5.34348 31.5497 5.36255 31.6239C5.38162 31.6982 5.42595 31.7636 5.48793 31.8088L12.683 35.2228Z" fill="url(#paint76_linear_301_1122)"/>
<path d="M17.364 27.3484L17.8412 26.7977L11.4538 22.0439C11.3857 22.0145 11.3097 22.0089 11.238 22.028C11.1663 22.047 11.1031 22.0897 11.0586 22.149C11.0141 22.2083 10.9909 22.2809 10.9926 22.3551C10.9944 22.4292 11.0211 22.5006 11.0684 22.5578L17.364 27.3484Z" fill="url(#paint77_linear_301_1122)"/>
<path d="M14.7755 31.2581L15.1059 30.7075L8.27793 26.6144C8.20721 26.5923 8.13113 26.5946 8.0619 26.621C7.99267 26.6474 7.93432 26.6962 7.8962 26.7598C7.85809 26.8233 7.84243 26.8978 7.85174 26.9713C7.86105 27.0448 7.89479 27.113 7.94754 27.165L14.7755 31.2581Z" fill="url(#paint78_linear_301_1122)"/>
<path d="M71.0692 11.1228L73.749 3.61564C73.7758 3.57394 73.7929 3.52674 73.7989 3.47754C73.805 3.42834 73.7999 3.3784 73.7841 3.33143C73.7682 3.28446 73.742 3.24164 73.7074 3.20618C73.6727 3.17072 73.6305 3.14353 73.584 3.12658C73.5374 3.10964 73.4876 3.1034 73.4382 3.10832C73.3889 3.11325 73.3413 3.12919 73.299 3.15501C73.2567 3.18083 73.2207 3.21585 73.1937 3.25746C73.1668 3.29907 73.1495 3.34622 73.1433 3.3954L70.4635 10.8841L71.0692 11.1228Z" fill="url(#paint79_linear_301_1122)"/>
<path d="M99.1336 39.6462L106.641 36.9848C106.704 36.9443 106.751 36.8835 106.775 36.8125C106.799 36.7415 106.798 36.6644 106.773 36.5939C106.747 36.5235 106.698 36.4639 106.634 36.4248C106.57 36.3858 106.495 36.3696 106.42 36.3791L98.9133 39.0405L99.1336 39.6462Z" fill="url(#paint80_linear_301_1122)"/>
<path d="M97.3722 35.3145L104.567 31.9188C104.615 31.9069 104.659 31.8847 104.696 31.8538C104.734 31.8229 104.764 31.784 104.785 31.74C104.806 31.696 104.817 31.6479 104.817 31.5992C104.817 31.5505 104.806 31.5023 104.786 31.4582C104.765 31.4141 104.735 31.3751 104.697 31.344C104.66 31.3129 104.616 31.2905 104.569 31.2784C104.522 31.2663 104.472 31.2648 104.424 31.274C104.377 31.2831 104.331 31.3028 104.292 31.3315L97.0969 34.7455L97.3722 35.3145Z" fill="url(#paint81_linear_301_1122)"/>
<path d="M95.2975 31.3496L102.144 27.2748C102.186 27.254 102.223 27.2245 102.252 27.1884C102.282 27.1522 102.303 27.1102 102.315 27.0651C102.327 27.02 102.33 26.9729 102.323 26.9268C102.315 26.8806 102.298 26.8366 102.272 26.7976C102.227 26.7264 102.156 26.6754 102.074 26.6549C101.992 26.6344 101.905 26.6461 101.832 26.6875L94.9304 30.7989L95.2975 31.3496Z" fill="url(#paint82_linear_301_1122)"/>
<path d="M92.7286 27.4404L99.1344 22.6865C99.1803 22.6667 99.2211 22.6367 99.2537 22.5989C99.2863 22.5611 99.31 22.5163 99.3228 22.4681C99.3357 22.4198 99.3374 22.3692 99.3279 22.3202C99.3183 22.2711 99.2978 22.2249 99.2678 22.1849C99.2379 22.1449 99.1992 22.1123 99.1548 22.0894C99.1104 22.0665 99.0613 22.054 99.0114 22.0528C98.9614 22.0516 98.9119 22.0618 98.8664 22.0825C98.821 22.1033 98.7808 22.134 98.749 22.1725L92.3431 26.9264L92.7286 27.4404Z" fill="url(#paint83_linear_301_1122)"/>
<path d="M101.667 53.0267L109.633 52.6412C109.705 52.6238 109.769 52.5827 109.815 52.5244C109.861 52.4662 109.886 52.3942 109.886 52.32C109.886 52.2458 109.861 52.1738 109.815 52.1155C109.769 52.0573 109.705 52.0161 109.633 51.9988L101.667 52.3842C101.649 52.6045 101.649 52.8248 101.667 53.0267Z" fill="url(#paint84_linear_301_1122)"/>
<path d="M89.9013 23.9527L95.8115 18.6114C95.871 18.5498 95.9042 18.4676 95.9042 18.382C95.9042 18.2964 95.871 18.2141 95.8115 18.1525C95.7823 18.1208 95.7468 18.0956 95.7073 18.0782C95.6679 18.0609 95.6252 18.052 95.5821 18.052C95.539 18.052 95.4963 18.0609 95.4568 18.0782C95.4173 18.0956 95.3819 18.1208 95.3527 18.1525L89.4241 23.4754L89.9013 23.9527Z" fill="url(#paint85_linear_301_1122)"/>
<path d="M100.437 43.9777L108.165 42.0504C108.211 42.0064 108.244 41.95 108.259 41.8878C108.273 41.8257 108.27 41.7606 108.249 41.7003C108.227 41.6401 108.189 41.5874 108.138 41.5486C108.087 41.5097 108.027 41.4864 107.963 41.4814L100.235 43.3169L100.437 43.9777Z" fill="url(#paint86_linear_301_1122)"/>
<path d="M101.263 48.5666L109.156 47.4102C109.228 47.3852 109.29 47.3357 109.33 47.2702C109.37 47.2046 109.386 47.1272 109.375 47.0511C109.365 46.9751 109.327 46.9052 109.271 46.8535C109.214 46.8018 109.141 46.7715 109.064 46.7678L101.172 47.9242C101.208 48.1444 101.245 48.3463 101.263 48.5666Z" fill="url(#paint87_linear_301_1122)"/>
<path d="M79.311 15.1061L83.4041 8.27817C83.4392 8.24256 83.4658 8.19943 83.4818 8.15206C83.4978 8.10468 83.5029 8.0543 83.4966 8.00468C83.4903 7.95507 83.4729 7.90751 83.4455 7.86563C83.4182 7.82374 83.3817 7.78863 83.3388 7.7629C83.296 7.73717 83.2478 7.72151 83.198 7.71711C83.1481 7.7127 83.098 7.71966 83.0512 7.73747C83.0045 7.75527 82.9624 7.78343 82.9282 7.81986C82.8939 7.8563 82.8684 7.90003 82.8535 7.94777L78.7604 14.7757L79.311 15.1061Z" fill="url(#paint88_linear_301_1122)"/>
<path d="M66.7746 9.80144L68.7202 2.07408C68.7312 2.0319 68.7338 1.98796 68.7277 1.94477C68.7217 1.90159 68.7071 1.86003 68.685 1.8225C68.6628 1.78496 68.6334 1.75219 68.5985 1.72607C68.5636 1.69994 68.5238 1.68097 68.4816 1.67028C68.399 1.65339 68.3131 1.66869 68.2415 1.71304C68.1698 1.7574 68.1178 1.82747 68.0961 1.9089L66.1505 9.63623L66.7746 9.80144Z" fill="url(#paint89_linear_301_1122)"/>
<path d="M62.186 8.84686L63.3607 0.954312C63.3713 0.869377 63.3485 0.783662 63.2972 0.715187C63.2458 0.646712 63.1699 0.600829 63.0854 0.587222C63.043 0.579393 62.9994 0.580427 62.9574 0.590275C62.9155 0.600123 62.876 0.618572 62.8415 0.644441C62.807 0.67031 62.7783 0.703051 62.757 0.740589C62.7358 0.778128 62.7226 0.819638 62.7183 0.862532L61.5436 8.75508L62.186 8.84686Z" fill="url(#paint90_linear_301_1122)"/>
<path d="M0.385505 52.4947L8.35147 52.8985C8.35147 52.6783 8.35147 52.4641 8.35147 52.2561L0.385505 51.8523C0.31339 51.8697 0.249214 51.9108 0.203311 51.9691C0.157408 52.0273 0.132446 52.0993 0.132446 52.1735C0.132446 52.2477 0.157408 52.3197 0.203311 52.378C0.249214 52.4362 0.31339 52.4774 0.385505 52.4947Z" fill="url(#paint91_linear_301_1122)"/>
<path d="M83.1655 17.7308L87.9194 11.3433C87.9488 11.2752 87.9544 11.1992 87.9353 11.1275C87.9163 11.0559 87.8736 10.9927 87.8143 10.9482C87.755 10.9037 87.6824 10.8804 87.6082 10.8822C87.5341 10.8839 87.4627 10.9106 87.4055 10.9579L82.6516 17.3453L83.1655 17.7308Z" fill="url(#paint92_linear_301_1122)"/>
<path d="M86.6158 20.6123L91.9754 14.7021C92.0143 14.6731 92.0464 14.6359 92.0693 14.5931C92.0922 14.5503 92.1054 14.5029 92.108 14.4545C92.1105 14.406 92.1024 14.3576 92.0841 14.3126C92.0658 14.2676 92.0378 14.2272 92.0021 14.1943C91.9665 14.1614 91.924 14.1367 91.8777 14.1221C91.8314 14.1074 91.7825 14.1032 91.7343 14.1096C91.6862 14.116 91.6401 14.133 91.5993 14.1592C91.5585 14.1855 91.5239 14.2204 91.4981 14.2616L86.1385 20.1718L86.6158 20.6123Z" fill="url(#paint93_linear_301_1122)"/>
<path d="M75.3643 12.9581L78.7783 5.76303C78.807 5.72366 78.8266 5.67844 78.8358 5.63059C78.8449 5.58274 78.8434 5.53346 78.8313 5.48627C78.8192 5.43908 78.7968 5.39515 78.7657 5.35763C78.7346 5.32011 78.6956 5.28994 78.6515 5.26927C78.6074 5.24859 78.5593 5.23793 78.5105 5.23804C78.4618 5.23815 78.4137 5.24903 78.3697 5.26991C78.3257 5.29079 78.2868 5.32115 78.2559 5.3588C78.225 5.39646 78.2028 5.44048 78.1909 5.48772L74.7402 12.6828L75.3643 12.9581Z" fill="url(#paint94_linear_301_1122)"/>
<path d="M57.7261 8.44306L58.2216 0.403677C58.2241 0.360275 58.218 0.316832 58.2037 0.275796C58.1893 0.234761 58.167 0.19695 58.138 0.164552C58.109 0.132154 58.0739 0.105808 58.0347 0.0870002C57.9955 0.0681919 57.953 0.0572765 57.9096 0.054932C57.8251 0.0548015 57.7437 0.0870996 57.6822 0.145143C57.6208 0.203186 57.5839 0.282583 57.5792 0.366987L57.1754 8.33294L57.7261 8.44306Z" fill="url(#paint95_linear_301_1122)"/>
<path d="M47.8328 101.153L46.6581 109.045C46.6475 109.13 46.6702 109.216 46.7216 109.284C46.773 109.353 46.8489 109.399 46.9334 109.412C47.0091 109.409 47.0814 109.38 47.1382 109.33C47.195 109.28 47.2329 109.212 47.2454 109.137L48.4201 101.245L47.8328 101.153Z" fill="url(#paint96_linear_301_1122)"/>
<path d="M83.0921 92.3242L82.5781 92.7097L87.332 99.1154C87.3624 99.1548 87.4013 99.1869 87.4458 99.2091C87.4903 99.2314 87.5392 99.2433 87.589 99.2439C87.6544 99.2663 87.7254 99.2663 87.7909 99.2439C87.8503 99.1824 87.8835 99.1001 87.8835 99.0145C87.8835 98.9289 87.8503 98.8467 87.7909 98.7851L83.0921 92.3242Z" fill="url(#paint97_linear_301_1122)"/>
<path d="M79.2194 94.9492L78.6687 95.2796L82.7435 102.053C82.7715 102.101 82.8115 102.142 82.8597 102.171C82.9079 102.2 82.9626 102.216 83.0188 102.218H83.184C83.2552 102.172 83.3062 102.101 83.3267 102.019C83.3472 101.937 83.3355 101.851 83.2941 101.777L79.2194 94.9492Z" fill="url(#paint98_linear_301_1122)"/>
<path d="M86.5423 89.4429L86.0651 89.8834L91.4063 95.7936C91.4681 95.8396 91.544 95.8626 91.621 95.8585C91.698 95.8545 91.7711 95.8236 91.8277 95.7714C91.8843 95.7191 91.9209 95.6487 91.9311 95.5723C91.9413 95.4959 91.9244 95.4184 91.8835 95.3531L86.5423 89.4429Z" fill="url(#paint99_linear_301_1122)"/>
<path d="M75.2733 97.0781L74.6859 97.3534L78.0815 104.548C78.1087 104.603 78.1505 104.649 78.2024 104.682C78.2542 104.714 78.3141 104.732 78.3752 104.732H78.522C78.5995 104.693 78.6584 104.624 78.6859 104.542C78.7134 104.459 78.7073 104.37 78.6689 104.292L75.2733 97.0781Z" fill="url(#paint100_linear_301_1122)"/>
<path d="M89.8282 86.1204L89.3877 86.5975L95.2979 91.9572C95.3692 91.9824 95.4469 91.9824 95.5182 91.9572C95.5834 91.9556 95.6467 91.9347 95.7001 91.8971C95.7535 91.8596 95.7946 91.807 95.8181 91.7462C95.8417 91.6853 95.8467 91.6188 95.8325 91.5551C95.8183 91.4914 95.7856 91.4333 95.7384 91.3882L89.8282 86.1204Z" fill="url(#paint101_linear_301_1122)"/>
<path d="M66.0406 100.382L67.9679 108.109C67.9875 108.177 68.0284 108.237 68.0846 108.28C68.1408 108.323 68.2092 108.347 68.2799 108.348C68.3614 108.326 68.4314 108.274 68.4758 108.202C68.5201 108.131 68.5354 108.045 68.5185 107.962L66.6647 100.217L66.0406 100.382Z" fill="url(#paint102_linear_301_1122)"/>
<path d="M70.3538 99.1341L73.0152 106.641C73.038 106.706 73.0803 106.762 73.1362 106.801C73.192 106.84 73.2588 106.862 73.3272 106.861H73.4374C73.4784 106.847 73.5161 106.825 73.5485 106.796C73.5809 106.767 73.6072 106.731 73.6259 106.692C73.6447 106.653 73.6555 106.61 73.6578 106.567C73.6601 106.524 73.6538 106.48 73.6393 106.439L70.9778 98.9321L70.3538 99.1341Z" fill="url(#paint103_linear_301_1122)"/>
<path d="M92.6552 82.6331L92.2698 83.147L98.6022 87.9192C98.6678 87.9403 98.7384 87.9403 98.8041 87.9192C98.8719 87.918 98.9377 87.896 98.9926 87.8561C99.0475 87.8162 99.0888 87.7604 99.1108 87.6963C99.1329 87.6321 99.1346 87.5627 99.1159 87.4975C99.0971 87.4323 99.0587 87.3745 99.006 87.3319L92.6552 82.6331Z" fill="url(#paint104_linear_301_1122)"/>
<path d="M108.091 68.0777L100.437 66.1321L100.272 66.7561L107.999 68.7017C108.069 68.6908 108.133 68.6579 108.183 68.6078C108.232 68.5577 108.264 68.4931 108.275 68.4235C108.285 68.3538 108.273 68.2827 108.24 68.2205C108.207 68.1583 108.154 68.1082 108.091 68.0777Z" fill="url(#paint105_linear_301_1122)"/>
<path d="M109.138 62.6998L101.245 61.5251L101.153 62.1675L109.046 63.3422C109.122 63.3386 109.196 63.3083 109.252 63.2566C109.309 63.2049 109.346 63.135 109.357 63.0589C109.368 62.9829 109.352 62.9055 109.312 62.8399C109.272 62.7744 109.21 62.7248 109.138 62.6998Z" fill="url(#paint106_linear_301_1122)"/>
<path d="M109.614 57.4685L101.648 57.0647C101.648 57.285 101.648 57.4991 101.648 57.7071L109.614 58.1293C109.702 58.1293 109.786 58.0945 109.848 58.0325C109.91 57.9706 109.945 57.8866 109.945 57.7989C109.945 57.7113 109.91 57.6273 109.848 57.5653C109.786 57.5033 109.702 57.4685 109.614 57.4685Z" fill="url(#paint107_linear_301_1122)"/>
<path d="M106.586 73.1253L99.0973 70.4456L98.8771 71.0512L106.384 73.7311H106.494C106.558 73.7158 106.616 73.6818 106.661 73.6333C106.705 73.5849 106.735 73.5243 106.744 73.4592C106.754 73.3941 106.744 73.3275 106.716 73.2681C106.688 73.2086 106.643 73.1589 106.586 73.1253Z" fill="url(#paint108_linear_301_1122)"/>
<path d="M95.2427 78.7419L94.9124 79.2926L101.74 83.3857H101.906C101.975 83.3822 102.042 83.3568 102.096 83.3132C102.15 83.2695 102.189 83.2099 102.207 83.1427C102.226 83.0756 102.222 83.0043 102.198 82.9392C102.173 82.8741 102.129 82.8184 102.071 82.78L95.2427 78.7419Z" fill="url(#paint109_linear_301_1122)"/>
<path d="M61.4331 101.263L62.5894 109.155C62.602 109.23 62.6399 109.298 62.6967 109.348C62.7535 109.399 62.8258 109.428 62.9015 109.431C62.986 109.417 63.0619 109.371 63.1133 109.303C63.1646 109.234 63.1874 109.149 63.1768 109.064L62.0205 101.171L61.4331 101.263Z" fill="url(#paint110_linear_301_1122)"/>
<path d="M97.335 74.7771L97.0597 75.3644L104.255 78.7784H104.402C104.475 78.7774 104.547 78.7518 104.604 78.7057C104.661 78.6595 104.702 78.5955 104.719 78.5237C104.736 78.452 104.728 78.3766 104.697 78.3097C104.666 78.2428 104.614 78.1881 104.548 78.1544L97.335 74.7771Z" fill="url(#paint111_linear_301_1122)"/>
<path d="M10.8843 70.3352L3.37724 72.9967C3.31342 73.0284 3.26159 73.08 3.22949 73.1436C3.19738 73.2073 3.18673 73.2796 3.19912 73.3498C3.21151 73.42 3.24628 73.4843 3.29823 73.5332C3.35018 73.582 3.41653 73.6127 3.48738 73.6207H3.59751L11.1046 70.9593L10.8843 70.3352Z" fill="url(#paint112_linear_301_1122)"/>
<path d="M14.7203 78.6499L7.87399 82.7247C7.81589 82.763 7.77139 82.8187 7.74683 82.8839C7.72228 82.949 7.71891 83.0202 7.73723 83.0874C7.75554 83.1545 7.7946 83.2142 7.84882 83.2578C7.90305 83.3014 7.96966 83.3268 8.03918 83.3303H8.20437L15.0507 79.2556L14.7203 78.6499Z" fill="url(#paint113_linear_301_1122)"/>
<path d="M12.647 74.667L5.45191 78.0626C5.38639 78.0964 5.33404 78.1511 5.30318 78.218C5.27232 78.285 5.26473 78.3603 5.28161 78.4321C5.29849 78.5038 5.33887 78.5678 5.39634 78.614C5.45381 78.6601 5.52506 78.6857 5.59876 78.6867H5.74559L12.9407 75.2727L12.647 74.667Z" fill="url(#paint114_linear_301_1122)"/>
<path d="M17.2901 82.5598L10.9027 87.3687C10.8499 87.4114 10.8115 87.4692 10.7928 87.5344C10.774 87.5996 10.7758 87.669 10.7978 87.7332C10.8199 87.7973 10.8612 87.8531 10.9161 87.893C10.9709 87.9329 11.0368 87.9549 11.1046 87.9561C11.17 87.9785 11.2411 87.9785 11.3065 87.9561L17.7123 83.2022L17.2901 82.5598Z" fill="url(#paint115_linear_301_1122)"/>
<path d="M8.66354 61.4331L0.771003 62.5895C0.698888 62.6068 0.634712 62.6479 0.588809 62.7062C0.542906 62.7645 0.517944 62.8365 0.517944 62.9106C0.517944 62.9848 0.542906 63.0569 0.588809 63.1152C0.634712 63.1734 0.698888 63.2145 0.771003 63.2319L8.66354 62.0755C8.81038 61.8553 8.77367 61.6717 8.66354 61.4331Z" fill="url(#paint116_linear_301_1122)"/>
<path d="M20.1168 86.0471L14.1699 91.3884C14.1287 91.4141 14.0938 91.4487 14.0675 91.4895C14.0413 91.5303 14.0243 91.5765 14.0179 91.6246C14.0115 91.6727 14.0158 91.7216 14.0304 91.7679C14.045 91.8142 14.0697 91.8567 14.1026 91.8924C14.1356 91.928 14.1759 91.956 14.2209 91.9743C14.2659 91.9926 14.3143 92.0007 14.3628 91.9982C14.4113 91.9956 14.4586 91.9824 14.5014 91.9595C14.5442 91.9366 14.5814 91.9045 14.6104 91.8656L20.539 86.5244L20.1168 86.0471Z" fill="url(#paint117_linear_301_1122)"/>
<path d="M9.61822 66.0217L1.89088 67.949C1.81876 67.9664 1.75459 68.0075 1.70868 68.0657C1.66278 68.124 1.63782 68.196 1.63782 68.2702C1.63782 68.3444 1.66278 68.4164 1.70868 68.4747C1.75459 68.5329 1.81876 68.574 1.89088 68.5914L9.61822 66.6642V66.0217Z" fill="url(#paint118_linear_301_1122)"/>
<path d="M56.973 101.649L57.3585 109.614C57.3632 109.699 57.4 109.778 57.4615 109.836C57.5229 109.894 57.6043 109.927 57.6888 109.927C57.7323 109.924 57.7748 109.913 57.814 109.894C57.8532 109.876 57.8883 109.849 57.9172 109.817C57.9462 109.784 57.9685 109.747 57.9829 109.706C57.9972 109.665 58.0033 109.621 58.0009 109.578L57.6154 101.612L56.973 101.649Z" fill="url(#paint119_linear_301_1122)"/>
<path d="M8.35146 56.9546L0.385505 57.3401C0.31339 57.3574 0.249214 57.3986 0.203311 57.4568C0.157408 57.5151 0.132446 57.5871 0.132446 57.6613C0.132446 57.7354 0.157408 57.8075 0.203311 57.8657C0.249214 57.924 0.31339 57.9651 0.385505 57.9825L8.35146 57.597C8.36982 57.3951 8.36982 57.1748 8.35146 56.9546Z" fill="url(#paint120_linear_301_1122)"/>
<path d="M43.2434 100.217L41.2978 107.944C41.281 108.026 41.2963 108.112 41.3406 108.184C41.385 108.256 41.455 108.308 41.5365 108.329C41.6071 108.328 41.6756 108.304 41.7318 108.261C41.7879 108.218 41.8289 108.159 41.8485 108.091L43.7941 100.363L43.2434 100.217Z" fill="url(#paint121_linear_301_1122)"/>
<path d="M38.9673 98.8586L36.1958 106.366C36.1812 106.407 36.1749 106.45 36.1772 106.494C36.1795 106.537 36.1903 106.579 36.2091 106.619C36.2279 106.658 36.2542 106.693 36.2865 106.722C36.3189 106.751 36.3566 106.773 36.3977 106.788H36.5078C36.5762 106.788 36.643 106.767 36.6989 106.727C36.7548 106.688 36.797 106.632 36.8198 106.568L39.4996 99.0789L38.9673 98.8586Z" fill="url(#paint122_linear_301_1122)"/>
<path d="M23.3471 89.3875L17.9876 95.2977C17.9486 95.3267 17.9165 95.3639 17.8936 95.4067C17.8707 95.4495 17.8575 95.4968 17.855 95.5453C17.8524 95.5937 17.8605 95.6422 17.8788 95.6871C17.8971 95.7321 17.9251 95.7725 17.9608 95.8054C17.9965 95.8384 18.0389 95.863 18.0852 95.8777C18.1315 95.8923 18.1804 95.8966 18.2286 95.8901C18.2767 95.8837 18.3228 95.8668 18.3636 95.8405C18.4044 95.8142 18.439 95.7793 18.4648 95.7382L23.8244 89.8279L23.3471 89.3875Z" fill="url(#paint123_linear_301_1122)"/>
<path d="M52.2924 101.612L51.8886 109.578C51.8861 109.621 51.8922 109.665 51.9066 109.706C51.9209 109.747 51.9432 109.784 51.9722 109.817C52.0012 109.849 52.0363 109.876 52.0755 109.894C52.1147 109.913 52.1572 109.924 52.2006 109.927C52.2852 109.927 52.3665 109.894 52.428 109.836C52.4895 109.778 52.5263 109.699 52.531 109.614L52.9348 101.649L52.2924 101.612Z" fill="url(#paint124_linear_301_1122)"/>
<path d="M34.6541 97.0413L31.2401 104.236C31.2018 104.314 31.1956 104.404 31.2231 104.487C31.2506 104.569 31.3095 104.638 31.387 104.677H31.5338C31.595 104.676 31.6548 104.659 31.7066 104.627C31.7585 104.594 31.8003 104.548 31.8275 104.493L35.2415 97.2983L34.6541 97.0413Z" fill="url(#paint125_linear_301_1122)"/>
<path d="M26.8528 92.2507L22.0989 98.6382C22.0604 98.67 22.0297 98.7102 22.0089 98.7557C21.9882 98.8011 21.978 98.8507 21.9792 98.9006C21.9804 98.9506 21.9929 98.9996 22.0158 99.044C22.0387 99.0884 22.0713 99.1271 22.1113 99.1571C22.1513 99.187 22.1975 99.2076 22.2466 99.2171C22.2956 99.2266 22.3462 99.2249 22.3945 99.2121C22.4427 99.1992 22.4875 99.1756 22.5253 99.1429C22.5631 99.1103 22.5931 99.0695 22.6129 99.0236L27.3668 92.6362L26.8528 92.2507Z" fill="url(#paint126_linear_301_1122)"/>
<path d="M30.689 94.8938L26.5959 101.722C26.5545 101.795 26.5428 101.882 26.5633 101.964C26.5838 102.046 26.6349 102.117 26.7061 102.162H26.8713C26.9274 102.16 26.9822 102.144 27.0303 102.115C27.0785 102.086 27.1185 102.046 27.1466 101.997L31.2397 95.1691L30.689 94.8938Z" fill="url(#paint127_linear_301_1122)"/>
<path id='big-circle'  d="M55.0092 97.3171C43.7898 97.3025 33.0344 92.8379 25.1028 84.9028C17.1712 76.9678 12.7113 66.2104 12.7015 54.991H14.537C14.537 62.9957 16.9107 70.8206 21.3578 77.4762C25.805 84.1318 32.1258 89.3192 39.5212 92.3825C46.9165 95.4457 55.0541 96.2473 62.905 94.6856C70.7558 93.124 77.9673 89.2693 83.6274 83.6092C89.2875 77.9491 93.1421 70.7376 94.7038 62.8868C96.2654 55.0359 95.4639 46.8983 92.4007 39.503C89.3374 32.1077 84.15 25.7868 77.4944 21.3396C70.8388 16.8925 63.0139 14.5188 55.0092 14.5188V12.6833C66.2324 12.6833 76.9958 17.1417 84.9318 25.0777C92.8677 33.0136 97.3261 43.7771 97.3261 55.0002C97.3261 66.2233 92.8677 76.9868 84.9318 84.9228C76.9958 92.8587 66.2324 97.3171 55.0092 97.3171Z" fill="url(#paint128_linear_301_1122)"/>

<path id='small-circle'  d="M56.2512 19.0219C65.7907 19.3649 74.8045 23.4778 81.315 30.4581C87.8254 37.4383 91.3007 46.7158 90.9784 56.255L89.4176 56.2009C89.6535 49.3953 87.8658 42.6725 84.2805 36.8827C80.6952 31.0929 75.4734 26.4962 69.2754 23.6738C63.0773 20.8515 56.1815 19.9302 49.4598 21.0265C42.7382 22.1228 36.4927 25.1876 31.513 29.8331C26.5334 34.4786 23.0432 40.4962 21.484 47.1251C19.9248 53.754 20.3665 60.6963 22.7533 67.0742C25.14 73.4521 29.3646 78.9791 34.8929 82.9563C40.4212 86.9335 47.0048 89.1822 53.8112 89.4181L53.7571 90.9787C44.214 90.6479 35.1931 86.5401 28.679 79.5589C22.1649 72.5778 18.6911 63.2952 19.0218 53.7531C19.3526 44.211 23.4608 35.1912 30.4426 28.6778C37.4245 22.1644 46.7081 18.6911 56.2512 19.0219Z" fill="url(#paint129_linear_301_1122)"/>
</g>
<defs>
<linearGradient id="paint0_linear_301_1122" x1="49.9339" y1="0.275635" x2="49.9339" y2="4.77257" gradientUnits="userSpaceOnUse">
<stop stop-color="#0EBED9"/>
<stop offset="1" stop-color="#0E53D9"/>
</linearGradient>
<linearGradient id="paint1_linear_301_1122" x1="17.9309" y1="15.9487" x2="17.9309" y2="19.4564" gradientUnits="userSpaceOnUse">
<stop stop-color="#0EBED9"/>
<stop offset="1" stop-color="#0E53D9"/>
</linearGradient>
<linearGradient id="paint2_linear_301_1122" x1="21.6916" y1="12.3247" x2="21.6916" y2="16.1522" gradientUnits="userSpaceOnUse">
<stop stop-color="#0EBED9"/>
<stop offset="1" stop-color="#0E53D9"/>
</linearGradient>
<linearGradient id="paint3_linear_301_1122" x1="25.9756" y1="9.16699" x2="25.9756" y2="13.124" gradientUnits="userSpaceOnUse">
<stop stop-color="#0EBED9"/>
<stop offset="1" stop-color="#0E53D9"/>
</linearGradient>
<linearGradient id="paint4_linear_301_1122" x1="44.9386" y1="1.01855" x2="44.9386" y2="5.54341" gradientUnits="userSpaceOnUse">
<stop stop-color="#0EBED9"/>
<stop offset="1" stop-color="#0E53D9"/>
</linearGradient>
<linearGradient id="paint5_linear_301_1122" x1="35.0831" y1="4.08472" x2="35.0831" y2="8.4435" gradientUnits="userSpaceOnUse">
<stop stop-color="#0EBED9"/>
<stop offset="1" stop-color="#0E53D9"/>
</linearGradient>
<linearGradient id="paint6_linear_301_1122" x1="39.8237" y1="2.33276" x2="39.8237" y2="6.77302" gradientUnits="userSpaceOnUse">
<stop stop-color="#0EBED9"/>
<stop offset="1" stop-color="#0E53D9"/>
</linearGradient>
<linearGradient id="paint7_linear_301_1122" x1="30.2564" y1="6.41577" x2="30.2564" y2="10.6093" gradientUnits="userSpaceOnUse">
<stop stop-color="#0EBED9"/>
<stop offset="1" stop-color="#0E53D9"/>
</linearGradient>
<linearGradient id="paint8_linear_301_1122" x1="4.61034" y1="38.7168" x2="4.61034" y2="40.5826" gradientUnits="userSpaceOnUse">
<stop stop-color="#0EBED9"/>
<stop offset="1" stop-color="#0E53D9"/>
</linearGradient>
<linearGradient id="paint9_linear_301_1122" x1="3.33829" y1="43.812" x2="3.33829" y2="45.2995" gradientUnits="userSpaceOnUse">
<stop stop-color="#0EBED9"/>
<stop offset="1" stop-color="#0E53D9"/>
</linearGradient>
<linearGradient id="paint10_linear_301_1122" x1="2.50523" y1="49.2278" x2="2.50523" y2="50.2924" gradientUnits="userSpaceOnUse">
<stop stop-color="#0EBED9"/>
<stop offset="1" stop-color="#0E53D9"/>
</linearGradient>
<linearGradient id="paint11_linear_301_1122" x1="8.57666" y1="28.7964" x2="8.57666" y2="31.4235" gradientUnits="userSpaceOnUse">
<stop stop-color="#0EBED9"/>
<stop offset="1" stop-color="#0E53D9"/>
</linearGradient>
<linearGradient id="paint12_linear_301_1122" x1="6.41967" y1="33.5735" x2="6.41967" y2="35.8101" gradientUnits="userSpaceOnUse">
<stop stop-color="#0EBED9"/>
<stop offset="1" stop-color="#0E53D9"/>
</linearGradient>
<linearGradient id="paint13_linear_301_1122" x1="11.3153" y1="24.0886" x2="11.3153" y2="27.0732" gradientUnits="userSpaceOnUse">
<stop stop-color="#0EBED9"/>
<stop offset="1" stop-color="#0E53D9"/>
</linearGradient>
<linearGradient id="paint14_linear_301_1122" x1="14.3857" y1="19.9219" x2="14.3857" y2="23.127" gradientUnits="userSpaceOnUse">
<stop stop-color="#0EBED9"/>
<stop offset="1" stop-color="#0E53D9"/>
</linearGradient>
<linearGradient id="paint15_linear_301_1122" x1="92.3782" y1="16.0994" x2="92.3782" y2="19.6767" gradientUnits="userSpaceOnUse">
<stop stop-color="#0EBED9"/>
<stop offset="1" stop-color="#0E53D9"/>
</linearGradient>
<linearGradient id="paint16_linear_301_1122" x1="98.8731" y1="24.5295" x2="98.8731" y2="27.3853" gradientUnits="userSpaceOnUse">
<stop stop-color="#0EBED9"/>
<stop offset="1" stop-color="#0E53D9"/>
</linearGradient>
<linearGradient id="paint17_linear_301_1122" x1="2.31447" y1="54.4771" x2="2.31447" y2="55.1378" gradientUnits="userSpaceOnUse">
<stop stop-color="#0EBED9"/>
<stop offset="1" stop-color="#0E53D9"/>
</linearGradient>
<linearGradient id="paint18_linear_301_1122" x1="95.7332" y1="20.1057" x2="95.7332" y2="23.3109" gradientUnits="userSpaceOnUse">
<stop stop-color="#0EBED9"/>
<stop offset="1" stop-color="#0E53D9"/>
</linearGradient>
<linearGradient id="paint19_linear_301_1122" x1="103.719" y1="33.9497" x2="103.719" y2="36.1591" gradientUnits="userSpaceOnUse">
<stop stop-color="#0EBED9"/>
<stop offset="1" stop-color="#0E53D9"/>
</linearGradient>
<linearGradient id="paint20_linear_301_1122" x1="101.442" y1="29.0032" x2="101.442" y2="31.5704" gradientUnits="userSpaceOnUse">
<stop stop-color="#0EBED9"/>
<stop offset="1" stop-color="#0E53D9"/>
</linearGradient>
<linearGradient id="paint21_linear_301_1122" x1="107.495" y1="49.4106" x2="107.495" y2="50.4575" gradientUnits="userSpaceOnUse">
<stop stop-color="#0EBED9"/>
<stop offset="1" stop-color="#0E53D9"/>
</linearGradient>
<linearGradient id="paint22_linear_301_1122" x1="105.463" y1="38.8772" x2="105.463" y2="40.7294" gradientUnits="userSpaceOnUse">
<stop stop-color="#0EBED9"/>
<stop offset="1" stop-color="#0E53D9"/>
</linearGradient>
<linearGradient id="paint23_linear_301_1122" x1="106.718" y1="44.189" x2="106.718" y2="45.6486" gradientUnits="userSpaceOnUse">
<stop stop-color="#0EBED9"/>
<stop offset="1" stop-color="#0E53D9"/>
</linearGradient>
<linearGradient id="paint24_linear_301_1122" x1="70.3516" y1="2.37402" x2="70.3516" y2="6.80955" gradientUnits="userSpaceOnUse">
<stop stop-color="#0EBED9"/>
<stop offset="1" stop-color="#0E53D9"/>
</linearGradient>
<linearGradient id="paint25_linear_301_1122" x1="65.4364" y1="1.09204" x2="65.4364" y2="5.59853" gradientUnits="userSpaceOnUse">
<stop stop-color="#0EBED9"/>
<stop offset="1" stop-color="#0E53D9"/>
</linearGradient>
<linearGradient id="paint26_linear_301_1122" x1="55.1923" y1="-0.0181885" x2="55.1923" y2="4.53378" gradientUnits="userSpaceOnUse">
<stop stop-color="#0EBED9"/>
<stop offset="1" stop-color="#0E53D9"/>
</linearGradient>
<linearGradient id="paint27_linear_301_1122" x1="88.4832" y1="12.4106" x2="88.4832" y2="16.244" gradientUnits="userSpaceOnUse">
<stop stop-color="#0EBED9"/>
<stop offset="1" stop-color="#0E53D9"/>
</linearGradient>
<linearGradient id="paint28_linear_301_1122" x1="60.2409" y1="0.238892" x2="60.2409" y2="4.77254" gradientUnits="userSpaceOnUse">
<stop stop-color="#0EBED9"/>
<stop offset="1" stop-color="#0E53D9"/>
</linearGradient>
<linearGradient id="paint29_linear_301_1122" x1="84.38" y1="9.38037" x2="84.38" y2="13.3257" gradientUnits="userSpaceOnUse">
<stop stop-color="#0EBED9"/>
<stop offset="1" stop-color="#0E53D9"/>
</linearGradient>
<linearGradient id="paint30_linear_301_1122" x1="79.8509" y1="6.57983" x2="79.8509" y2="10.6826" gradientUnits="userSpaceOnUse">
<stop stop-color="#0EBED9"/>
<stop offset="1" stop-color="#0E53D9"/>
</linearGradient>
<linearGradient id="paint31_linear_301_1122" x1="75.311" y1="4.2854" x2="75.311" y2="8.55336" gradientUnits="userSpaceOnUse">
<stop stop-color="#0EBED9"/>
<stop offset="1" stop-color="#0E53D9"/>
</linearGradient>
<linearGradient id="paint32_linear_301_1122" x1="30.1375" y1="99.3179" x2="30.1375" y2="103.429" gradientUnits="userSpaceOnUse">
<stop stop-color="#0EBED9"/>
<stop offset="1" stop-color="#0E53D9"/>
</linearGradient>
<linearGradient id="paint33_linear_301_1122" x1="84.0422" y1="96.8765" x2="84.0422" y2="100.833" gradientUnits="userSpaceOnUse">
<stop stop-color="#0EBED9"/>
<stop offset="1" stop-color="#0E53D9"/>
</linearGradient>
<linearGradient id="paint34_linear_301_1122" x1="88.332" y1="93.8481" x2="88.332" y2="97.6634" gradientUnits="userSpaceOnUse">
<stop stop-color="#0EBED9"/>
<stop offset="1" stop-color="#0E53D9"/>
</linearGradient>
<linearGradient id="paint35_linear_301_1122" x1="92.0861" y1="90.5808" x2="92.0861" y2="94.1234" gradientUnits="userSpaceOnUse">
<stop stop-color="#0EBED9"/>
<stop offset="1" stop-color="#0E53D9"/>
</linearGradient>
<linearGradient id="paint36_linear_301_1122" x1="79.743" y1="99.3914" x2="79.743" y2="103.521" gradientUnits="userSpaceOnUse">
<stop stop-color="#0EBED9"/>
<stop offset="1" stop-color="#0E53D9"/>
</linearGradient>
<linearGradient id="paint37_linear_301_1122" x1="70.1759" y1="103.264" x2="70.1759" y2="107.687" gradientUnits="userSpaceOnUse">
<stop stop-color="#0EBED9"/>
<stop offset="1" stop-color="#0E53D9"/>
</linearGradient>
<linearGradient id="paint38_linear_301_1122" x1="65.0424" y1="104.457" x2="65.0424" y2="108.972" gradientUnits="userSpaceOnUse">
<stop stop-color="#0EBED9"/>
<stop offset="1" stop-color="#0E53D9"/>
</linearGradient>
<linearGradient id="paint39_linear_301_1122" x1="74.9715" y1="101.612" x2="74.9715" y2="105.926" gradientUnits="userSpaceOnUse">
<stop stop-color="#0EBED9"/>
<stop offset="1" stop-color="#0E53D9"/>
</linearGradient>
<linearGradient id="paint40_linear_301_1122" x1="95.6519" y1="86.8181" x2="95.6519" y2="90.0092" gradientUnits="userSpaceOnUse">
<stop stop-color="#0EBED9"/>
<stop offset="1" stop-color="#0E53D9"/>
</linearGradient>
<linearGradient id="paint41_linear_301_1122" x1="107.47" y1="59.6897" x2="107.47" y2="60.7542" gradientUnits="userSpaceOnUse">
<stop stop-color="#0EBED9"/>
<stop offset="1" stop-color="#0E53D9"/>
</linearGradient>
<linearGradient id="paint42_linear_301_1122" x1="98.7031" y1="82.9087" x2="98.7031" y2="85.8932" gradientUnits="userSpaceOnUse">
<stop stop-color="#0EBED9"/>
<stop offset="1" stop-color="#0E53D9"/>
</linearGradient>
<linearGradient id="paint43_linear_301_1122" x1="106.643" y1="64.7004" x2="106.643" y2="66.1879" gradientUnits="userSpaceOnUse">
<stop stop-color="#0EBED9"/>
<stop offset="1" stop-color="#0E53D9"/>
</linearGradient>
<linearGradient id="paint44_linear_301_1122" x1="107.669" y1="54.8623" x2="107.669" y2="55.523" gradientUnits="userSpaceOnUse">
<stop stop-color="#0EBED9"/>
<stop offset="1" stop-color="#0E53D9"/>
</linearGradient>
<linearGradient id="paint45_linear_301_1122" x1="101.411" y1="78.5767" x2="101.411" y2="81.1281" gradientUnits="userSpaceOnUse">
<stop stop-color="#0EBED9"/>
<stop offset="1" stop-color="#0E53D9"/>
</linearGradient>
<linearGradient id="paint46_linear_301_1122" x1="105.385" y1="69.418" x2="105.385" y2="71.2718" gradientUnits="userSpaceOnUse">
<stop stop-color="#0EBED9"/>
<stop offset="1" stop-color="#0E53D9"/>
</linearGradient>
<linearGradient id="paint47_linear_301_1122" x1="103.601" y1="74.1716" x2="103.601" y2="76.3559" gradientUnits="userSpaceOnUse">
<stop stop-color="#0EBED9"/>
<stop offset="1" stop-color="#0E53D9"/>
</linearGradient>
<linearGradient id="paint48_linear_301_1122" x1="11.1254" y1="82.615" x2="11.1254" y2="85.5464" gradientUnits="userSpaceOnUse">
<stop stop-color="#0EBED9"/>
<stop offset="1" stop-color="#0E53D9"/>
</linearGradient>
<linearGradient id="paint49_linear_301_1122" x1="2.53481" y1="59.5432" x2="2.53481" y2="60.5894" gradientUnits="userSpaceOnUse">
<stop stop-color="#0EBED9"/>
<stop offset="1" stop-color="#0E53D9"/>
</linearGradient>
<linearGradient id="paint50_linear_301_1122" x1="14.2653" y1="86.6899" x2="14.2653" y2="89.9545" gradientUnits="userSpaceOnUse">
<stop stop-color="#0EBED9"/>
<stop offset="1" stop-color="#0E53D9"/>
</linearGradient>
<linearGradient id="paint51_linear_301_1122" x1="8.55149" y1="78.4302" x2="8.55149" y2="81.0182" gradientUnits="userSpaceOnUse">
<stop stop-color="#0EBED9"/>
<stop offset="1" stop-color="#0E53D9"/>
</linearGradient>
<linearGradient id="paint52_linear_301_1122" x1="6.27842" y1="73.8416" x2="6.27842" y2="76.0625" gradientUnits="userSpaceOnUse">
<stop stop-color="#0EBED9"/>
<stop offset="1" stop-color="#0E53D9"/>
</linearGradient>
<linearGradient id="paint53_linear_301_1122" x1="3.26922" y1="64.3518" x2="3.26922" y2="65.8018" gradientUnits="userSpaceOnUse">
<stop stop-color="#0EBED9"/>
<stop offset="1" stop-color="#0E53D9"/>
</linearGradient>
<linearGradient id="paint54_linear_301_1122" x1="4.5595" y1="69.2529" x2="4.5595" y2="71.1068" gradientUnits="userSpaceOnUse">
<stop stop-color="#0EBED9"/>
<stop offset="1" stop-color="#0E53D9"/>
</linearGradient>
<linearGradient id="paint55_linear_301_1122" x1="17.6838" y1="90.324" x2="17.6838" y2="93.8483" gradientUnits="userSpaceOnUse">
<stop stop-color="#0EBED9"/>
<stop offset="1" stop-color="#0E53D9"/>
</linearGradient>
<linearGradient id="paint56_linear_301_1122" x1="54.8804" y1="105.467" x2="54.8804" y2="110.019" gradientUnits="userSpaceOnUse">
<stop stop-color="#0EBED9"/>
<stop offset="1" stop-color="#0E53D9"/>
</linearGradient>
<linearGradient id="paint57_linear_301_1122" x1="49.7681" y1="105.173" x2="49.7681" y2="109.743" gradientUnits="userSpaceOnUse">
<stop stop-color="#0EBED9"/>
<stop offset="1" stop-color="#0E53D9"/>
</linearGradient>
<linearGradient id="paint58_linear_301_1122" x1="44.6082" y1="104.402" x2="44.6082" y2="108.899" gradientUnits="userSpaceOnUse">
<stop stop-color="#0EBED9"/>
<stop offset="1" stop-color="#0E53D9"/>
</linearGradient>
<linearGradient id="paint59_linear_301_1122" x1="21.5347" y1="93.7378" x2="21.5347" y2="97.5711" gradientUnits="userSpaceOnUse">
<stop stop-color="#0EBED9"/>
<stop offset="1" stop-color="#0E53D9"/>
</linearGradient>
<linearGradient id="paint60_linear_301_1122" x1="60.0844" y1="105.21" x2="60.0844" y2="109.688" gradientUnits="userSpaceOnUse">
<stop stop-color="#0EBED9"/>
<stop offset="1" stop-color="#0E53D9"/>
</linearGradient>
<linearGradient id="paint61_linear_301_1122" x1="25.5809" y1="96.6748" x2="25.5809" y2="100.787" gradientUnits="userSpaceOnUse">
<stop stop-color="#0EBED9"/>
<stop offset="1" stop-color="#0E53D9"/>
</linearGradient>
<linearGradient id="paint62_linear_301_1122" x1="39.6677" y1="103.191" x2="39.6677" y2="107.614" gradientUnits="userSpaceOnUse">
<stop stop-color="#0EBED9"/>
<stop offset="1" stop-color="#0E53D9"/>
</linearGradient>
<linearGradient id="paint63_linear_301_1122" x1="34.6968" y1="101.428" x2="34.6968" y2="105.723" gradientUnits="userSpaceOnUse">
<stop stop-color="#0EBED9"/>
<stop offset="1" stop-color="#0E53D9"/>
</linearGradient>
<linearGradient id="paint64_linear_301_1122" x1="29.0162" y1="7.71484" x2="29.0162" y2="15.051" gradientUnits="userSpaceOnUse">
<stop stop-color="#0EBED9"/>
<stop offset="1" stop-color="#0E53D9"/>
</linearGradient>
<linearGradient id="paint65_linear_301_1122" x1="24.8791" y1="10.7288" x2="24.8791" y2="17.6206" gradientUnits="userSpaceOnUse">
<stop stop-color="#0EBED9"/>
<stop offset="1" stop-color="#0E53D9"/>
</linearGradient>
<linearGradient id="paint66_linear_301_1122" x1="33.3361" y1="5.29712" x2="33.3361" y2="12.9032" gradientUnits="userSpaceOnUse">
<stop stop-color="#0EBED9"/>
<stop offset="1" stop-color="#0E53D9"/>
</linearGradient>
<linearGradient id="paint67_linear_301_1122" x1="21.0068" y1="14.0874" x2="21.0068" y2="20.5387" gradientUnits="userSpaceOnUse">
<stop stop-color="#0EBED9"/>
<stop offset="1" stop-color="#0E53D9"/>
</linearGradient>
<linearGradient id="paint68_linear_301_1122" x1="38.0051" y1="3.07007" x2="38.0051" y2="11.0861" gradientUnits="userSpaceOnUse">
<stop stop-color="#0EBED9"/>
<stop offset="1" stop-color="#0E53D9"/>
</linearGradient>
<linearGradient id="paint69_linear_301_1122" x1="52.5588" y1="0.0549316" x2="52.5588" y2="8.44306" gradientUnits="userSpaceOnUse">
<stop stop-color="#0EBED9"/>
<stop offset="1" stop-color="#0E53D9"/>
</linearGradient>
<linearGradient id="paint70_linear_301_1122" x1="42.6838" y1="1.53735" x2="42.6838" y2="9.7464" gradientUnits="userSpaceOnUse">
<stop stop-color="#0EBED9"/>
<stop offset="1" stop-color="#0E53D9"/>
</linearGradient>
<linearGradient id="paint71_linear_301_1122" x1="47.6659" y1="0.563843" x2="47.6659" y2="8.82867" gradientUnits="userSpaceOnUse">
<stop stop-color="#0EBED9"/>
<stop offset="1" stop-color="#0E53D9"/>
</linearGradient>
<linearGradient id="paint72_linear_301_1122" x1="7.24836" y1="36.3604" x2="7.24836" y2="39.6458" gradientUnits="userSpaceOnUse">
<stop stop-color="#0EBED9"/>
<stop offset="1" stop-color="#0E53D9"/>
</linearGradient>
<linearGradient id="paint73_linear_301_1122" x1="17.3776" y1="17.9097" x2="17.3776" y2="23.8795" gradientUnits="userSpaceOnUse">
<stop stop-color="#0EBED9"/>
<stop offset="1" stop-color="#0E53D9"/>
</linearGradient>
<linearGradient id="paint74_linear_301_1122" x1="4.73461" y1="46.6365" x2="4.73461" y2="48.4562" gradientUnits="userSpaceOnUse">
<stop stop-color="#0EBED9"/>
<stop offset="1" stop-color="#0E53D9"/>
</linearGradient>
<linearGradient id="paint75_linear_301_1122" x1="5.75939" y1="41.2732" x2="5.75939" y2="43.8495" gradientUnits="userSpaceOnUse">
<stop stop-color="#0EBED9"/>
<stop offset="1" stop-color="#0E53D9"/>
</linearGradient>
<linearGradient id="paint76_linear_301_1122" x1="9.15524" y1="31.2114" x2="9.15524" y2="35.2228" gradientUnits="userSpaceOnUse">
<stop stop-color="#0EBED9"/>
<stop offset="1" stop-color="#0E53D9"/>
</linearGradient>
<linearGradient id="paint77_linear_301_1122" x1="14.4169" y1="22.0168" x2="14.4169" y2="27.3484" gradientUnits="userSpaceOnUse">
<stop stop-color="#0EBED9"/>
<stop offset="1" stop-color="#0E53D9"/>
</linearGradient>
<linearGradient id="paint78_linear_301_1122" x1="11.4775" y1="26.5994" x2="11.4775" y2="31.2581" gradientUnits="userSpaceOnUse">
<stop stop-color="#0EBED9"/>
<stop offset="1" stop-color="#0E53D9"/>
</linearGradient>
<linearGradient id="paint79_linear_301_1122" x1="72.1325" y1="3.10669" x2="72.1325" y2="11.1228" gradientUnits="userSpaceOnUse">
<stop stop-color="#0EBED9"/>
<stop offset="1" stop-color="#0E53D9"/>
</linearGradient>
<linearGradient id="paint80_linear_301_1122" x1="102.853" y1="36.3765" x2="102.853" y2="39.6462" gradientUnits="userSpaceOnUse">
<stop stop-color="#0EBED9"/>
<stop offset="1" stop-color="#0E53D9"/>
</linearGradient>
<linearGradient id="paint81_linear_301_1122" x1="100.957" y1="31.2681" x2="100.957" y2="35.3145" gradientUnits="userSpaceOnUse">
<stop stop-color="#0EBED9"/>
<stop offset="1" stop-color="#0E53D9"/>
</linearGradient>
<linearGradient id="paint82_linear_301_1122" x1="98.6286" y1="26.645" x2="98.6286" y2="31.3496" gradientUnits="userSpaceOnUse">
<stop stop-color="#0EBED9"/>
<stop offset="1" stop-color="#0E53D9"/>
</linearGradient>
<linearGradient id="paint83_linear_301_1122" x1="95.8385" y1="22.0527" x2="95.8385" y2="27.4404" gradientUnits="userSpaceOnUse">
<stop stop-color="#0EBED9"/>
<stop offset="1" stop-color="#0E53D9"/>
</linearGradient>
<linearGradient id="paint84_linear_301_1122" x1="105.77" y1="51.9988" x2="105.77" y2="53.0267" gradientUnits="userSpaceOnUse">
<stop stop-color="#0EBED9"/>
<stop offset="1" stop-color="#0E53D9"/>
</linearGradient>
<linearGradient id="paint85_linear_301_1122" x1="92.6641" y1="18.052" x2="92.6641" y2="23.9527" gradientUnits="userSpaceOnUse">
<stop stop-color="#0EBED9"/>
<stop offset="1" stop-color="#0E53D9"/>
</linearGradient>
<linearGradient id="paint86_linear_301_1122" x1="104.252" y1="41.4814" x2="104.252" y2="43.9777" gradientUnits="userSpaceOnUse">
<stop stop-color="#0EBED9"/>
<stop offset="1" stop-color="#0E53D9"/>
</linearGradient>
<linearGradient id="paint87_linear_301_1122" x1="105.275" y1="46.7678" x2="105.275" y2="48.5666" gradientUnits="userSpaceOnUse">
<stop stop-color="#0EBED9"/>
<stop offset="1" stop-color="#0E53D9"/>
</linearGradient>
<linearGradient id="paint88_linear_301_1122" x1="81.1298" y1="7.71582" x2="81.1298" y2="15.1061" gradientUnits="userSpaceOnUse">
<stop stop-color="#0EBED9"/>
<stop offset="1" stop-color="#0E53D9"/>
</linearGradient>
<linearGradient id="paint89_linear_301_1122" x1="67.4407" y1="1.66357" x2="67.4407" y2="9.80144" gradientUnits="userSpaceOnUse">
<stop stop-color="#0EBED9"/>
<stop offset="1" stop-color="#0E53D9"/>
</linearGradient>
<linearGradient id="paint90_linear_301_1122" x1="62.4534" y1="0.582031" x2="62.4534" y2="8.84686" gradientUnits="userSpaceOnUse">
<stop stop-color="#0EBED9"/>
<stop offset="1" stop-color="#0E53D9"/>
</linearGradient>
<linearGradient id="paint91_linear_301_1122" x1="4.24196" y1="51.8523" x2="4.24196" y2="52.8985" gradientUnits="userSpaceOnUse">
<stop stop-color="#0EBED9"/>
<stop offset="1" stop-color="#0E53D9"/>
</linearGradient>
<linearGradient id="paint92_linear_301_1122" x1="85.299" y1="10.8821" x2="85.299" y2="17.7308" gradientUnits="userSpaceOnUse">
<stop stop-color="#0EBED9"/>
<stop offset="1" stop-color="#0E53D9"/>
</linearGradient>
<linearGradient id="paint93_linear_301_1122" x1="89.1235" y1="14.1067" x2="89.1235" y2="20.6123" gradientUnits="userSpaceOnUse">
<stop stop-color="#0EBED9"/>
<stop offset="1" stop-color="#0E53D9"/>
</linearGradient>
<linearGradient id="paint94_linear_301_1122" x1="76.791" y1="5.23804" x2="76.791" y2="12.9581" gradientUnits="userSpaceOnUse">
<stop stop-color="#0EBED9"/>
<stop offset="1" stop-color="#0E53D9"/>
</linearGradient>
<linearGradient id="paint95_linear_301_1122" x1="57.6988" y1="0.0549316" x2="57.6988" y2="8.44306" gradientUnits="userSpaceOnUse">
<stop stop-color="#0EBED9"/>
<stop offset="1" stop-color="#0E53D9"/>
</linearGradient>
<linearGradient id="paint96_linear_301_1122" x1="47.5378" y1="101.153" x2="47.5378" y2="109.412" gradientUnits="userSpaceOnUse">
<stop stop-color="#0EBED9"/>
<stop offset="1" stop-color="#0E53D9"/>
</linearGradient>
<linearGradient id="paint97_linear_301_1122" x1="85.2308" y1="92.3242" x2="85.2308" y2="99.2607" gradientUnits="userSpaceOnUse">
<stop stop-color="#0EBED9"/>
<stop offset="1" stop-color="#0E53D9"/>
</linearGradient>
<linearGradient id="paint98_linear_301_1122" x1="81.0026" y1="94.9492" x2="81.0026" y2="102.218" gradientUnits="userSpaceOnUse">
<stop stop-color="#0EBED9"/>
<stop offset="1" stop-color="#0E53D9"/>
</linearGradient>
<linearGradient id="paint99_linear_301_1122" x1="88.9995" y1="89.4429" x2="88.9995" y2="95.859" gradientUnits="userSpaceOnUse">
<stop stop-color="#0EBED9"/>
<stop offset="1" stop-color="#0E53D9"/>
</linearGradient>
<linearGradient id="paint100_linear_301_1122" x1="76.6944" y1="97.0781" x2="76.6944" y2="104.732" gradientUnits="userSpaceOnUse">
<stop stop-color="#0EBED9"/>
<stop offset="1" stop-color="#0E53D9"/>
</linearGradient>
<linearGradient id="paint101_linear_301_1122" x1="92.6141" y1="86.1204" x2="92.6141" y2="91.9761" gradientUnits="userSpaceOnUse">
<stop stop-color="#0EBED9"/>
<stop offset="1" stop-color="#0E53D9"/>
</linearGradient>
<linearGradient id="paint102_linear_301_1122" x1="67.2829" y1="100.217" x2="67.2829" y2="108.348" gradientUnits="userSpaceOnUse">
<stop stop-color="#0EBED9"/>
<stop offset="1" stop-color="#0E53D9"/>
</linearGradient>
<linearGradient id="paint103_linear_301_1122" x1="72.006" y1="98.9321" x2="72.006" y2="106.861" gradientUnits="userSpaceOnUse">
<stop stop-color="#0EBED9"/>
<stop offset="1" stop-color="#0E53D9"/>
</linearGradient>
<linearGradient id="paint104_linear_301_1122" x1="95.6993" y1="82.6331" x2="95.6993" y2="87.935" gradientUnits="userSpaceOnUse">
<stop stop-color="#0EBED9"/>
<stop offset="1" stop-color="#0E53D9"/>
</linearGradient>
<linearGradient id="paint105_linear_301_1122" x1="104.275" y1="66.1321" x2="104.275" y2="68.7017" gradientUnits="userSpaceOnUse">
<stop stop-color="#0EBED9"/>
<stop offset="1" stop-color="#0E53D9"/>
</linearGradient>
<linearGradient id="paint106_linear_301_1122" x1="105.257" y1="61.5251" x2="105.257" y2="63.3422" gradientUnits="userSpaceOnUse">
<stop stop-color="#0EBED9"/>
<stop offset="1" stop-color="#0E53D9"/>
</linearGradient>
<linearGradient id="paint107_linear_301_1122" x1="105.797" y1="57.0647" x2="105.797" y2="58.1293" gradientUnits="userSpaceOnUse">
<stop stop-color="#0EBED9"/>
<stop offset="1" stop-color="#0E53D9"/>
</linearGradient>
<linearGradient id="paint108_linear_301_1122" x1="102.813" y1="70.4456" x2="102.813" y2="73.7311" gradientUnits="userSpaceOnUse">
<stop stop-color="#0EBED9"/>
<stop offset="1" stop-color="#0E53D9"/>
</linearGradient>
<linearGradient id="paint109_linear_301_1122" x1="98.5657" y1="78.7419" x2="98.5657" y2="83.3857" gradientUnits="userSpaceOnUse">
<stop stop-color="#0EBED9"/>
<stop offset="1" stop-color="#0E53D9"/>
</linearGradient>
<linearGradient id="paint110_linear_301_1122" x1="62.3062" y1="101.171" x2="62.3062" y2="109.431" gradientUnits="userSpaceOnUse">
<stop stop-color="#0EBED9"/>
<stop offset="1" stop-color="#0E53D9"/>
</linearGradient>
<linearGradient id="paint111_linear_301_1122" x1="100.894" y1="74.7771" x2="100.894" y2="78.7784" gradientUnits="userSpaceOnUse">
<stop stop-color="#0EBED9"/>
<stop offset="1" stop-color="#0E53D9"/>
</linearGradient>
<linearGradient id="paint112_linear_301_1122" x1="7.14935" y1="70.3352" x2="7.14935" y2="73.6207" gradientUnits="userSpaceOnUse">
<stop stop-color="#0EBED9"/>
<stop offset="1" stop-color="#0E53D9"/>
</linearGradient>
<linearGradient id="paint113_linear_301_1122" x1="11.3881" y1="78.6499" x2="11.3881" y2="83.3303" gradientUnits="userSpaceOnUse">
<stop stop-color="#0EBED9"/>
<stop offset="1" stop-color="#0E53D9"/>
</linearGradient>
<linearGradient id="paint114_linear_301_1122" x1="9.10674" y1="74.667" x2="9.10674" y2="78.6867" gradientUnits="userSpaceOnUse">
<stop stop-color="#0EBED9"/>
<stop offset="1" stop-color="#0E53D9"/>
</linearGradient>
<linearGradient id="paint115_linear_301_1122" x1="14.2461" y1="82.5598" x2="14.2461" y2="87.9729" gradientUnits="userSpaceOnUse">
<stop stop-color="#0EBED9"/>
<stop offset="1" stop-color="#0E53D9"/>
</linearGradient>
<linearGradient id="paint116_linear_301_1122" x1="4.63917" y1="61.4331" x2="4.63917" y2="63.2319" gradientUnits="userSpaceOnUse">
<stop stop-color="#0EBED9"/>
<stop offset="1" stop-color="#0E53D9"/>
</linearGradient>
<linearGradient id="paint117_linear_301_1122" x1="17.277" y1="86.0471" x2="17.277" y2="91.9986" gradientUnits="userSpaceOnUse">
<stop stop-color="#0EBED9"/>
<stop offset="1" stop-color="#0E53D9"/>
</linearGradient>
<linearGradient id="paint118_linear_301_1122" x1="5.62802" y1="66.0217" x2="5.62802" y2="68.5914" gradientUnits="userSpaceOnUse">
<stop stop-color="#0EBED9"/>
<stop offset="1" stop-color="#0E53D9"/>
</linearGradient>
<linearGradient id="paint119_linear_301_1122" x1="57.4872" y1="101.612" x2="57.4872" y2="109.927" gradientUnits="userSpaceOnUse">
<stop stop-color="#0EBED9"/>
<stop offset="1" stop-color="#0E53D9"/>
</linearGradient>
<linearGradient id="paint120_linear_301_1122" x1="4.24884" y1="56.9546" x2="4.24884" y2="57.9825" gradientUnits="userSpaceOnUse">
<stop stop-color="#0EBED9"/>
<stop offset="1" stop-color="#0E53D9"/>
</linearGradient>
<linearGradient id="paint121_linear_301_1122" x1="42.5426" y1="100.217" x2="42.5426" y2="108.329" gradientUnits="userSpaceOnUse">
<stop stop-color="#0EBED9"/>
<stop offset="1" stop-color="#0E53D9"/>
</linearGradient>
<linearGradient id="paint122_linear_301_1122" x1="37.8382" y1="98.8586" x2="37.8382" y2="106.788" gradientUnits="userSpaceOnUse">
<stop stop-color="#0EBED9"/>
<stop offset="1" stop-color="#0E53D9"/>
</linearGradient>
<linearGradient id="paint123_linear_301_1122" x1="20.8394" y1="89.3875" x2="20.8394" y2="95.893" gradientUnits="userSpaceOnUse">
<stop stop-color="#0EBED9"/>
<stop offset="1" stop-color="#0E53D9"/>
</linearGradient>
<linearGradient id="paint124_linear_301_1122" x1="52.4114" y1="101.612" x2="52.4114" y2="109.927" gradientUnits="userSpaceOnUse">
<stop stop-color="#0EBED9"/>
<stop offset="1" stop-color="#0E53D9"/>
</linearGradient>
<linearGradient id="paint125_linear_301_1122" x1="33.2238" y1="97.0413" x2="33.2238" y2="104.677" gradientUnits="userSpaceOnUse">
<stop stop-color="#0EBED9"/>
<stop offset="1" stop-color="#0E53D9"/>
</linearGradient>
<linearGradient id="paint126_linear_301_1122" x1="24.6729" y1="92.2507" x2="24.6729" y2="99.2232" gradientUnits="userSpaceOnUse">
<stop stop-color="#0EBED9"/>
<stop offset="1" stop-color="#0E53D9"/>
</linearGradient>
<linearGradient id="paint127_linear_301_1122" x1="28.8966" y1="94.8938" x2="28.8966" y2="102.162" gradientUnits="userSpaceOnUse">
<stop stop-color="#0EBED9"/>
<stop offset="1" stop-color="#0E53D9"/>
</linearGradient>
<linearGradient id="paint128_linear_301_1122" x1="55.0138" y1="12.6833" x2="55.0138" y2="97.3171" gradientUnits="userSpaceOnUse">
<stop stop-color="#0EBED9"/>
<stop offset="1" stop-color="#0E53D9"/>
</linearGradient>
<linearGradient id="paint129_linear_301_1122" x1="53.7532" y1="90.9785" x2="56.2473" y2="19.0217" gradientUnits="userSpaceOnUse">
<stop stop-color="#0EBED9"/>
<stop offset="1" stop-color="#0E53D9"/>
</linearGradient>
<clipPath id="clip0_301_1122">
<rect width="110" height="110" fill="white"/>
</clipPath>
</defs>
</svg>
