<svg width="32" height="32" viewBox="0 0 32 32" fill="none" xmlns="http://www.w3.org/2000/svg">
<g clip-path="url(#clip0_301_2668)">
<path d="M18.6023 25.8779C18.2042 25.8779 17.8442 25.6042 17.7508 25.1998L15.6005 15.8879C15.4918 15.4172 15.7853 14.9476 16.256 14.8389C16.7268 14.7301 17.1964 15.0236 17.3052 15.4943L19.4555 24.8062C19.5642 25.2769 19.2707 25.7466 18.8 25.8552C18.7337 25.8705 18.6675 25.8779 18.6023 25.8779Z" fill="#0EBED9"/>
<path d="M5.02496 24.5174C4.77514 24.5174 4.52708 24.411 4.35408 24.2045C4.04383 23.8343 4.09239 23.2826 4.46264 22.9723L6.29164 21.4396C6.66189 21.1292 7.21364 21.178 7.52396 21.5482C7.83421 21.9183 7.78564 22.4701 7.41539 22.7803L5.58639 24.3131C5.42246 24.4504 5.22308 24.5174 5.02496 24.5174Z" fill="#0EBED9"/>
<path d="M9.20644 20.8755C8.96219 20.8755 8.71938 20.7739 8.5465 20.5752C8.22925 20.2109 8.26738 19.6584 8.63169 19.3411L22.5581 7.21265C22.9224 6.89546 23.4748 6.93358 23.7921 7.29783C24.1094 7.66215 24.0713 8.21458 23.707 8.53189L9.7805 20.6604C9.61482 20.8046 9.41013 20.8755 9.20644 20.8755Z" fill="#0EBED9"/>
<path d="M17.6421 17.7547C17.3991 17.7547 17.1573 17.654 16.9844 17.4569L5.82201 4.73772C5.50338 4.37472 5.53938 3.82197 5.90251 3.50341C6.26557 3.18478 6.81826 3.22078 7.13688 3.58391L18.2993 16.3031C18.618 16.6661 18.5819 17.2188 18.2188 17.5374C18.0528 17.6831 17.847 17.7547 17.6421 17.7547Z" fill="#0EBED9"/>
<path d="M30.4034 15.9437H24.8314C24.3482 15.9437 23.9567 15.552 23.9567 15.069C23.9567 14.586 24.3483 14.1943 24.8314 14.1943H30.4034C30.8865 14.1943 31.2781 14.586 31.2781 15.069C31.2781 15.552 30.8865 15.9437 30.4034 15.9437Z" fill="#0EBED9"/>
<path d="M15.967 20.7912C19.1275 20.7912 21.6895 18.2292 21.6895 15.0687C21.6895 11.9083 19.1275 9.34621 15.967 9.34621C12.8066 9.34621 10.2445 11.9083 10.2445 15.0687C10.2445 18.2292 12.8066 20.7912 15.967 20.7912Z" fill="#CEE8FA"/>
<path d="M15.9672 21.6659C12.3296 21.6659 9.37024 18.7065 9.37024 15.0689C9.37024 11.4314 12.3296 8.472 15.9672 8.472C19.6047 8.472 22.5641 11.4314 22.5641 15.0689C22.5641 18.7065 19.6047 21.6659 15.9672 21.6659ZM15.9672 10.2214C13.2942 10.2214 11.1196 12.3959 11.1196 15.0689C11.1196 17.742 13.2942 19.9165 15.9672 19.9165C18.6401 19.9165 20.8147 17.742 20.8147 15.0689C20.8147 12.3959 18.6401 10.2214 15.9672 10.2214Z" fill="#0EBED9"/>
<path d="M6.47992 6.5381C7.79297 6.5381 8.85742 5.47366 8.85742 4.1606C8.85742 2.84754 7.79297 1.7831 6.47992 1.7831C5.16686 1.7831 4.10242 2.84754 4.10242 4.1606C4.10242 5.47366 5.16686 6.5381 6.47992 6.5381Z" fill="#CEE8FA"/>
<path d="M6.47973 7.41312C4.68629 7.41312 3.22729 5.95412 3.22729 4.16068C3.22729 2.36724 4.68629 0.908182 6.47973 0.908182C8.27317 0.908182 9.73223 2.36731 9.73223 4.16068C9.73223 5.95406 8.27311 7.41312 6.47973 7.41312ZM6.47973 2.65762C5.65092 2.65762 4.97673 3.33193 4.97673 4.16074C4.97673 4.98956 5.65098 5.66374 6.47973 5.66374C7.30854 5.66374 7.98286 4.98949 7.98286 4.16074C7.98286 3.33199 7.30848 2.65762 6.47973 2.65762Z" fill="#0EBED9"/>
<path d="M19.1798 31.0917C17.2661 31.0917 15.7092 29.5348 15.7092 27.6211C15.7092 25.7074 17.2661 24.1506 19.1798 24.1506C21.0935 24.1506 22.6504 25.7074 22.6504 27.6211C22.6504 29.5348 21.0935 31.0917 19.1798 31.0917ZM19.1798 25.8999C18.2307 25.8999 17.4586 26.6721 17.4586 27.6211C17.4586 28.5702 18.2307 29.3423 19.1798 29.3423C20.1289 29.3423 20.901 28.5702 20.901 27.6211C20.901 26.6721 20.1289 25.8999 19.1798 25.8999Z" fill="#0EBED9"/>
<path d="M24.446 9.21355C23.0006 9.21355 21.8246 8.03761 21.8246 6.59212C21.8246 5.14662 23.0005 3.97068 24.446 3.97068C25.8915 3.97068 27.0675 5.14662 27.0675 6.59212C27.0675 8.03761 25.8915 9.21355 24.446 9.21355ZM24.446 5.72024C23.9652 5.72024 23.574 6.11143 23.574 6.59224C23.574 7.07305 23.9652 7.46424 24.446 7.46424C24.9268 7.46424 25.318 7.07305 25.318 6.59224C25.318 6.11143 24.9268 5.72024 24.446 5.72024Z" fill="#0EBED9"/>
<path d="M28.9601 17.2344C30.1561 17.2344 31.1257 16.2648 31.1257 15.0688C31.1257 13.8728 30.1561 12.9032 28.9601 12.9032C27.764 12.9032 26.7944 13.8728 26.7944 15.0688C26.7944 16.2648 27.764 17.2344 28.9601 17.2344Z" fill="#CEE8FA"/>
<path d="M28.9597 18.1092C27.2833 18.1092 25.9194 16.7454 25.9194 15.0689C25.9194 13.3925 27.2833 12.0286 28.9597 12.0286C30.6362 12.0286 32.0001 13.3924 32.0001 15.0689C32.0001 16.7454 30.6362 18.1092 28.9597 18.1092ZM28.9597 13.778C28.2479 13.778 27.6689 14.3571 27.6689 15.0689C27.6689 15.7807 28.2479 16.3597 28.9597 16.3597C29.6716 16.3597 30.2506 15.7807 30.2506 15.0689C30.2506 14.3571 29.6716 13.778 28.9597 13.778Z" fill="#0EBED9"/>
<path d="M3.25165 27.6999C4.5647 27.6999 5.62915 26.6354 5.62915 25.3224C5.62915 24.0093 4.5647 22.9449 3.25165 22.9449C1.93859 22.9449 0.874146 24.0093 0.874146 25.3224C0.874146 26.6354 1.93859 27.6999 3.25165 27.6999Z" fill="#CEE8FA"/>
<path d="M3.2525 28.5752C1.45913 28.5752 0 27.116 0 25.3227C0 23.5294 1.45913 22.0702 3.2525 22.0702C5.04588 22.0702 6.505 23.5293 6.505 25.3227C6.505 27.1162 5.04594 28.5752 3.2525 28.5752ZM3.2525 23.8197C2.42362 23.8197 1.74937 24.494 1.74937 25.3228C1.74937 26.1516 2.42362 26.8258 3.2525 26.8258C4.08138 26.8258 4.75562 26.1515 4.75562 25.3228C4.75562 24.494 4.08131 23.8197 3.2525 23.8197Z" fill="#0EBED9"/>
</g>
<defs>
<clipPath id="clip0_301_2668">
<rect width="32" height="32" fill="white"/>
</clipPath>
</defs>
</svg>
