<svg width="30" height="30" viewBox="0 0 30 30" fill="none" xmlns="http://www.w3.org/2000/svg">
<path d="M29.1865 18.5254H24.0639C22.2178 18.5254 20.7208 17.0284 20.7208 15.1824V14.7034C20.7208 12.8574 22.2178 11.3604 24.0639 11.3604H29.1865C27.3405 11.3604 25.8434 12.8574 25.8434 14.7034V15.1824C25.8435 17.0284 27.3405 18.5254 29.1865 18.5254Z" fill="#CEE8FA"/>
<path d="M29.1882 19.3372C29.1877 19.3372 29.1871 19.3372 29.1866 19.3372H24.0639C21.7729 19.3372 19.9091 17.4734 19.9091 15.1824V14.7034C19.9091 12.4124 21.7729 10.5485 24.0639 10.5485H29.1866C29.6349 10.5485 29.9984 10.9121 29.9984 11.3604C29.9984 11.8087 29.6349 12.1722 29.1866 12.1722C27.7908 12.1722 26.6553 13.3077 26.6553 14.7034V15.1824C26.6553 16.578 27.7908 17.7136 29.1866 17.7136C29.1868 17.7135 29.1871 17.7135 29.1874 17.7136H29.1882C29.6366 17.7136 30 18.0771 30 18.5254C30 18.9737 29.6366 19.3372 29.1882 19.3372ZM24.0639 12.1722C22.6682 12.1722 21.5327 13.3077 21.5327 14.7034V15.1824C21.5327 16.578 22.6682 17.7136 24.0639 17.7136H25.8938C25.3534 17.0123 25.0317 16.1342 25.0317 15.1824V14.7034C25.0317 13.7516 25.3533 12.8735 25.8938 12.1722H24.0639Z" fill="#0EBED9"/>
<path d="M29.1882 26.6165C29.1877 26.6165 29.1871 26.6165 29.1866 26.6165H24.0639C21.7729 26.6165 19.9091 24.7526 19.9091 22.4616V21.9827C19.9091 19.6917 21.7729 17.8278 24.0639 17.8278H29.1866C29.6349 17.8278 29.9984 18.1913 29.9984 18.6396C29.9984 19.0879 29.6349 19.4514 29.1866 19.4514C27.7908 19.4514 26.6553 20.5869 26.6553 21.9827V22.4616C26.6553 23.8573 27.7908 24.9929 29.1866 24.9929C29.1868 24.9928 29.1871 24.9929 29.1874 24.9929H29.1882C29.6366 24.9929 30 25.3564 30 25.8047C30 26.253 29.6366 26.6165 29.1882 26.6165ZM24.0639 19.4514C22.6682 19.4514 21.5327 20.5869 21.5327 21.9827V22.4616C21.5327 23.8573 22.6682 24.9929 24.0639 24.9929H25.8938C25.3534 24.2916 25.0317 23.4135 25.0317 22.4616V21.9827C25.0317 21.0308 25.3533 20.1527 25.8938 19.4514H24.0639Z" fill="#0EBED9"/>
<path d="M20.7209 22.4616V21.9827C20.7209 20.1366 22.2179 18.6396 24.064 18.6396H4.15496C2.3089 18.6396 0.81189 20.1366 0.81189 21.9827V22.4616C0.81189 24.3077 2.3089 25.8047 4.15496 25.8047H24.064C22.2179 25.8047 20.7209 24.3078 20.7209 22.4616Z" fill="#CEE8FA"/>
<path d="M24.0639 26.6165H4.15488C1.86387 26.6165 0 24.7526 0 22.4616V21.9827C0 19.6917 1.86387 17.8278 4.15488 17.8278H24.0639C24.5123 17.8278 24.8757 18.1913 24.8757 18.6396C24.8757 19.0879 24.5123 19.4514 24.0639 19.4514C22.6682 19.4514 21.5327 20.5869 21.5327 21.9827V22.4616C21.5327 23.8573 22.6682 24.9929 24.0639 24.9929C24.5123 24.9929 24.8757 25.3564 24.8757 25.8047C24.8757 26.253 24.5123 26.6165 24.0639 26.6165ZM4.15488 19.4514C2.75912 19.4514 1.62363 20.5869 1.62363 21.9827V22.4616C1.62363 23.8573 2.75912 24.9929 4.15488 24.9929H20.7712C20.2308 24.2916 19.909 23.4135 19.909 22.4616V21.9827C19.909 21.0308 20.2307 20.1527 20.7712 19.4514H4.15488Z" fill="#0EBED9"/>
<path d="M29.1866 12.1722H24.0639C21.7729 12.1722 19.9091 10.3083 19.9091 8.01733V7.53838C19.9091 5.24737 21.7729 3.3835 24.0639 3.3835C24.5123 3.3835 24.8758 3.74701 24.8758 4.19532C24.8758 4.64362 24.5123 5.00713 24.0639 5.00713C22.6682 5.00713 21.5327 6.14262 21.5327 7.53838V8.01733C21.5327 9.41303 22.6682 10.5486 24.0639 10.5486H25.8938C25.3534 9.84727 25.0317 8.96918 25.0317 8.01733V7.53838C25.0317 5.24737 26.8955 3.3835 29.1866 3.3835C29.6349 3.3835 29.9984 3.74701 29.9984 4.19532C29.9984 4.64362 29.6349 5.00713 29.1866 5.00713C27.7908 5.00713 26.6553 6.14262 26.6553 7.53838V8.01733C26.6553 9.41303 27.7908 10.5486 29.1866 10.5486C29.6349 10.5486 29.9984 10.9121 29.9984 11.3604C29.9984 11.8087 29.6349 12.1722 29.1866 12.1722Z" fill="#0EBED9"/>
<path d="M6.2001 16.5672C6.01125 16.5673 5.82311 16.5156 5.65448 16.413C5.33883 16.2208 5.15051 15.8855 5.15051 15.516V7.11579C5.15051 6.66749 5.51397 6.30397 5.96233 6.30397H11.7521C12.2004 6.30397 12.5639 6.66749 12.5639 7.11579V11.3606C12.5639 11.8089 12.2004 12.1724 11.7521 12.1724C11.3037 12.1724 10.9403 11.8089 10.9403 11.3606V7.92761H6.77403V14.5742L8.37498 13.747C8.67703 13.591 9.03727 13.5912 9.33891 13.7469L10.9406 14.5743C10.9532 14.137 11.3116 13.7863 11.752 13.7863C12.2004 13.7863 12.5638 14.1499 12.5638 14.5982V15.5159C12.5638 15.8854 12.3754 16.2207 12.0599 16.4129C11.7442 16.605 11.3599 16.6185 11.0316 16.4489L8.85709 15.3254L6.68262 16.4488C6.52981 16.528 6.36469 16.5672 6.2001 16.5672Z" fill="#0EBED9"/>
<path d="M28.3747 19.3372H3.34295C1.82877 19.3372 0 17.484 0 15.1824V14.7034C0 12.4124 1.86387 10.5485 4.15488 10.5485H5.96215C6.41051 10.5485 6.77396 10.912 6.77396 11.3603C6.77396 11.8086 6.41051 12.1722 5.96215 12.1722H4.15488C2.75912 12.1722 1.62363 13.3076 1.62363 14.7034V15.1824C1.62363 16.6447 2.83014 17.7136 3.34295 17.7136H25.8219C25.346 17.0136 25.0317 16.1365 25.0317 15.1824V14.7034C25.0317 13.7493 25.346 12.8721 25.8219 12.1722H11.7519C11.3036 12.1722 10.9401 11.8086 10.9401 11.3603C10.9401 10.912 11.3036 10.5485 11.7519 10.5485H28.3747C28.823 10.5485 29.1865 10.912 29.1865 11.3603C29.1865 11.8086 28.823 12.1722 28.3747 12.1722C27.8619 12.1722 26.6553 13.2411 26.6553 14.7034V15.1824C26.6553 16.6447 27.8618 17.7136 28.3747 17.7136C28.823 17.7136 29.1865 18.0771 29.1865 18.5254C29.1865 18.9737 28.823 19.3372 28.3747 19.3372Z" fill="#0EBED9"/>
<path d="M20.7209 8.01734V7.5384C20.7209 5.69234 22.2179 4.19533 24.064 4.19533H4.15496C2.3089 4.19533 0.81189 5.69234 0.81189 7.5384V8.01734C0.81189 9.8634 2.3089 11.3604 4.15496 11.3604H5.96222V7.11582H11.752V11.3604H24.064C22.2179 11.3604 20.7209 9.8634 20.7209 8.01734Z" fill="#CEE8FA"/>
<path d="M24.0639 12.1723H11.7519C11.3036 12.1723 10.9401 11.8087 10.9401 11.3604V7.92767H6.77396V11.3604C6.77396 11.8087 6.41051 12.1723 5.96215 12.1723H4.15488C1.86387 12.1723 0 10.3084 0 8.01749V7.53855C0 5.24753 1.86387 3.38367 4.15488 3.38367H24.0639C24.5123 3.38367 24.8757 3.74718 24.8757 4.19548C24.8757 4.64378 24.5123 5.0073 24.0639 5.0073C22.6682 5.0073 21.5327 6.14279 21.5327 7.53855V8.01749C21.5327 9.4132 22.6682 10.5487 24.0639 10.5487C24.5123 10.5487 24.8757 10.9123 24.8757 11.3606C24.8757 11.8089 24.5123 12.1723 24.0639 12.1723ZM12.5637 10.5486H20.7712C20.2308 9.84732 19.909 8.96923 19.909 8.01738V7.53843C19.909 6.58658 20.2307 5.70849 20.7712 5.00718H4.15488C2.75912 5.00718 1.62363 6.14273 1.62363 7.53843V8.01738C1.62363 9.41308 2.75912 10.5486 4.15488 10.5486H5.15033V7.11585C5.15033 6.66755 5.51379 6.30404 5.96215 6.30404H11.7519C12.2003 6.30404 12.5637 6.66755 12.5637 7.11585V10.5486Z" fill="#0EBED9"/>
</svg>
