<svg width="30" height="30" viewBox="0 0 30 30" fill="none" xmlns="http://www.w3.org/2000/svg">
<g clip-path="url(#clip0_301_2701)">
<path d="M18.6251 29.3155H3.38617C2.16262 29.3155 1.06751 28.6826 0.456789 27.6222C-0.153931 26.5619 -0.151997 25.2971 0.462004 24.2388L5.75851 15.1078C5.78733 15.0582 5.80257 15.0013 5.80257 14.9438V7.71521C5.80257 7.24986 6.17991 6.87264 6.64514 6.87264C7.11038 6.87264 7.48772 7.24986 7.48772 7.71521V14.9438C7.48772 15.2979 7.39385 15.6469 7.21625 15.9533L1.91969 25.0843C1.61178 25.6151 1.61079 26.2495 1.91706 26.7811C2.22333 27.3129 2.77246 27.6303 3.38611 27.6303H18.625C19.0903 27.6303 19.4676 28.0076 19.4676 28.4729C19.4676 28.9383 19.0904 29.3155 18.6251 29.3155Z" fill="#0EBED9"/>
<path d="M12.8381 14.9437C12.3728 14.9437 11.9955 14.5664 11.9955 14.1011V7.71521C11.9955 7.24986 12.3728 6.87264 12.8381 6.87264C13.3033 6.87264 13.6806 7.24986 13.6806 7.71521V14.1011C13.6806 14.5664 13.3033 14.9437 12.8381 14.9437Z" fill="#0EBED9"/>
<path d="M17.1459 22.6852H2.33703L1.19065 24.6614C0.209208 26.3534 1.42995 28.4727 3.38597 28.4727H21.3457L17.1459 22.6852Z" fill="#CEE8FA"/>
<path d="M21.3459 29.3155H3.38617C2.16262 29.3155 1.06751 28.6825 0.456789 27.6222C-0.153931 26.562 -0.151997 25.2971 0.462004 24.2387L1.60827 22.2625C1.75903 22.0026 2.0367 21.8427 2.33711 21.8427H17.146C17.4159 21.8427 17.6694 21.972 17.8279 22.1904L22.0278 27.9781C22.2139 28.2344 22.2403 28.5735 22.0965 28.8558C21.9526 29.1378 21.6626 29.3155 21.3459 29.3155ZM2.82256 23.5279L1.91981 25.0843C1.6119 25.6151 1.61091 26.2495 1.91717 26.7811C2.22344 27.3129 2.77258 27.6303 3.38623 27.6303H19.6934L16.7165 23.5279H2.82256Z" fill="#0EBED9"/>
<path d="M25.5771 29.3155H17.4024C17.2432 29.3155 17.0873 29.2705 16.9527 29.1855C14.4648 27.6149 12.9795 24.9231 12.9795 21.9848C12.9795 18.8794 14.6718 16.0202 17.396 14.5229C17.4899 14.4712 17.5508 14.3619 17.5508 14.2445V7.71521C17.5508 7.24986 17.9281 6.87264 18.3934 6.87264C18.8586 6.87264 19.2359 7.24986 19.2359 7.71521V14.2445C19.2359 14.9785 18.842 15.6511 18.2077 15.9997C16.0223 17.2009 14.6647 19.4943 14.6647 21.9849C14.6647 24.2621 15.7776 26.355 17.6537 27.6304H25.3259C27.202 26.355 28.3149 24.2621 28.3149 21.9849C28.3149 21.5196 28.6922 21.1423 29.1575 21.1423C29.6228 21.1423 30.0001 21.5196 30.0001 21.9849C30.0001 24.9231 28.5148 27.6149 26.0269 29.1855C25.8922 29.2705 25.7363 29.3155 25.5771 29.3155Z" fill="#0EBED9"/>
<path d="M24.5861 14.2445C24.1208 14.2445 23.7435 13.8672 23.7435 13.4019V7.71521C23.7435 7.24986 24.1209 6.87264 24.5861 6.87264C25.0513 6.87264 25.4287 7.24986 25.4287 7.71521V13.4018C25.4287 13.8672 25.0514 14.2445 24.5861 14.2445Z" fill="#0EBED9"/>
<path d="M14.5748 18.6689C14.0925 19.6724 13.822 20.7969 13.822 21.9849C13.822 24.7169 15.2512 27.1148 17.4024 28.473H25.577C27.7281 27.1149 29.1573 24.7169 29.1573 21.9849C29.1573 20.9814 28.9643 20.0232 28.6137 19.1449C28.5493 18.9835 28.4795 18.8247 28.4047 18.6689H14.5748V18.6689Z" fill="#CEE8FA"/>
<path d="M25.577 29.3154H17.4023C17.2431 29.3154 17.0872 29.2704 16.9525 29.1853C14.4647 27.6147 12.9794 24.923 12.9794 21.9847C12.9794 20.6967 13.2606 19.4582 13.8152 18.3038C13.9555 18.0119 14.2507 17.8262 14.5747 17.8262H28.4045C28.7285 17.8262 29.0237 18.0119 29.164 18.3038C29.2471 18.4766 29.3252 18.6544 29.3963 18.8324C29.7969 19.8358 29.9999 20.8964 29.9999 21.9847C29.9999 24.9228 28.5147 27.6147 26.0268 29.1853C25.8921 29.2704 25.7361 29.3154 25.577 29.3154ZM17.6535 27.6302H25.3257C27.2017 26.3549 28.3147 24.2619 28.3147 21.9847C28.3147 21.131 28.1591 20.2992 27.8524 19.5114H15.1265C14.8197 20.2974 14.6646 21.127 14.6646 21.9847C14.6646 24.2619 15.7774 26.3549 17.6535 27.6302Z" fill="#0EBED9"/>
<path d="M25.8499 8.55779H24.5783C24.113 8.55779 23.7357 8.18056 23.7357 7.71521C23.7357 7.24986 24.1131 6.87264 24.5783 6.87264H25.8499C26.3152 6.87264 26.6925 7.24986 26.6925 7.71521C26.6925 8.18056 26.3152 8.55779 25.8499 8.55779Z" fill="#0EBED9"/>
<path d="M20.9833 8.55779H17.1294C16.6641 8.55779 16.2869 8.18056 16.2869 7.71521C16.2869 7.24986 16.6642 6.87264 17.1294 6.87264H20.9833C21.4486 6.87264 21.8259 7.24986 21.8259 7.71521C21.8259 8.18056 21.4486 8.55779 20.9833 8.55779Z" fill="#0EBED9"/>
<path d="M14.102 8.55779H12.8379C12.3726 8.55779 11.9954 8.18056 11.9954 7.71521C11.9954 7.24986 12.3727 6.87264 12.8379 6.87264H14.102C14.5673 6.87264 14.9445 7.24986 14.9445 7.71521C14.9445 8.18056 14.5673 8.55779 14.102 8.55779Z" fill="#0EBED9"/>
<path d="M9.15885 8.55779H5.38115C4.91586 8.55779 4.53857 8.18056 4.53857 7.71521C4.53857 7.24986 4.91592 6.87264 5.38115 6.87264H9.15885C9.62414 6.87264 10.0014 7.24986 10.0014 7.71521C10.0014 8.18056 9.62414 8.55779 9.15885 8.55779Z" fill="#0EBED9"/>
<path d="M11.0949 5.61641C9.73515 5.61641 8.62891 4.51017 8.62891 3.15044C8.62891 1.79072 9.73515 0.684477 11.0949 0.684477C12.4547 0.684477 13.5609 1.79072 13.5609 3.15044C13.5609 4.51017 12.4547 5.61641 11.0949 5.61641ZM11.0949 2.36969C10.6644 2.36969 10.3141 2.71996 10.3141 3.15044C10.3141 3.58093 10.6644 3.9312 11.0949 3.9312C11.5255 3.9312 11.8757 3.58093 11.8757 3.15044C11.8757 2.71996 11.5255 2.36969 11.0949 2.36969Z" fill="#0EBED9"/>
<path d="M19.0562 25.5749C17.6965 25.5749 16.5902 24.4687 16.5902 23.1089C16.5902 21.7491 17.6965 20.6429 19.0562 20.6429C20.4159 20.6429 21.5221 21.7492 21.5221 23.1089C21.5221 24.4686 20.4159 25.5749 19.0562 25.5749ZM19.0562 22.3283C18.6257 22.3283 18.2754 22.6785 18.2754 23.109C18.2754 23.5395 18.6256 23.8898 19.0562 23.8898C19.4867 23.8898 19.8369 23.5395 19.8369 23.109C19.8369 22.6784 19.4867 22.3283 19.0562 22.3283Z" fill="#0EBED9"/>
</g>
<defs>
<clipPath id="clip0_301_2701">
<rect width="30" height="30" fill="white"/>
</clipPath>
</defs>
</svg>
