<svg width="30" height="30" viewBox="0 0 30 30" fill="none" xmlns="http://www.w3.org/2000/svg">
<path d="M17.0842 18.1382C17.1563 18.0499 17.2303 17.9628 17.3065 17.8773C17.3231 17.8586 17.3401 17.8403 17.3569 17.8219C17.4393 17.7311 17.5233 17.6414 17.6105 17.5541C17.6764 17.4882 17.7441 17.4234 17.8129 17.3596C17.8339 17.34 17.8554 17.3212 17.8765 17.302C17.9253 17.2577 17.9745 17.2137 18.0248 17.1704C18.0496 17.1489 18.0748 17.1278 18.0998 17.1067C18.1487 17.0656 18.1983 17.0248 18.2486 16.9845C18.2733 16.9645 18.2981 16.9446 18.3231 16.9251C18.3799 16.8806 18.4376 16.837 18.4959 16.7937C18.5144 16.78 18.5327 16.7659 18.5512 16.7524C18.6282 16.6962 18.7065 16.6411 18.7863 16.587C18.8027 16.5759 18.8194 16.5654 18.8358 16.5543C18.8989 16.5121 18.9627 16.4705 19.0274 16.4296C19.0563 16.4113 19.0853 16.3935 19.1144 16.3756C19.1685 16.3422 19.2233 16.3092 19.2787 16.2767C19.3102 16.2582 19.3417 16.2396 19.3735 16.2214C19.4345 16.1864 19.4965 16.1522 19.5589 16.1182C19.5997 16.096 19.6405 16.0741 19.6815 16.0525C19.744 16.0197 19.807 15.9872 19.8708 15.9553C19.9152 15.9332 19.9598 15.9116 20.0044 15.8902C20.0457 15.8703 20.0873 15.8506 20.129 15.8312C20.1794 15.8077 20.2299 15.7843 20.2807 15.7617C20.3101 15.7486 20.34 15.7358 20.3696 15.723C20.4855 15.6724 20.6021 15.6237 20.7194 15.5771C20.7335 15.5715 20.7474 15.5658 20.7616 15.5602C20.8326 15.5324 20.9038 15.5053 20.9751 15.4789C20.9823 15.4762 20.9895 15.4736 20.9966 15.471C24.6915 14.1104 28.8489 14.6135 28.9125 14.6216C29.4121 14.6862 29.8702 14.3337 29.9352 13.8337C30.0002 13.3336 29.6474 12.8754 29.1473 12.8104C29.078 12.8014 28.6875 12.7532 28.0723 12.7204C27.664 8.34656 25.2367 4.41625 21.4596 2.0853C21.4578 2.08419 21.4561 2.08313 21.4544 2.08202C21.4468 2.07739 21.4381 2.07224 21.4286 2.06667C21.3768 2.03433 21.3242 2.00286 21.2692 1.97017C21.258 1.96313 21.2463 1.9561 21.2336 1.9486C21.2308 1.94696 21.2281 1.94532 21.2254 1.94374C21.1689 1.91087 21.1124 1.87788 21.0529 1.84372C20.9847 1.8047 20.9164 1.76667 20.8467 1.72841C20.7864 1.69525 20.726 1.66285 20.6656 1.6305C20.6537 1.62365 20.6414 1.61708 20.6292 1.6107L20.5782 1.58439C20.5282 1.55861 20.4786 1.53306 20.4284 1.50793C20.223 1.40252 20.0053 1.29916 19.7856 1.20266C19.7135 1.17049 19.6413 1.13926 19.5683 1.10803L19.5664 1.10721C19.5641 1.10621 19.5617 1.10522 19.5595 1.10422C19.1133 0.915667 18.6612 0.751079 18.2178 0.615905C18.1421 0.592643 18.0654 0.570261 17.9897 0.548171C17.8575 0.509558 17.7283 0.474226 17.6056 0.443231C17.5696 0.433621 17.5335 0.424774 17.4952 0.415399C17.4257 0.398114 17.3562 0.381591 17.288 0.365536C17.2074 0.346435 17.1257 0.328271 17.0472 0.311748L17.0306 0.308174C16.9661 0.294287 16.9021 0.280694 16.8375 0.268623L16.712 0.24378C16.6279 0.227725 16.5426 0.212726 16.4653 0.199952C16.3309 0.176691 16.1964 0.156125 16.062 0.136555C16.0586 0.136086 16.0551 0.135559 16.0517 0.13509L16.0287 0.131984C15.9644 0.123371 15.9008 0.114934 15.8377 0.107258C15.7523 0.0968285 15.667 0.0873365 15.5814 0.0777858C15.5774 0.077317 15.5734 0.0769655 15.5693 0.0764967L15.4235 0.0623172C15.2529 0.0466143 15.097 0.0345441 14.9542 0.0259895C14.9072 0.0227669 14.8601 0.0204818 14.8085 0.0182552C14.7529 0.0155014 14.6971 0.0128647 14.6407 0.0109311C14.6324 0.0104624 14.6241 0.0104624 14.6158 0.0101108C14.5926 0.00929049 14.5693 0.00858737 14.546 0.00770848C14.5169 0.00677099 14.4876 0.00524757 14.4585 0.00477882C14.4536 0.00466164 14.4487 0.00466164 14.4436 0.00466164C14.3938 0.00284525 14.3438 0.00190776 14.2993 0.00190776C14.2434 0.00108746 14.1871 0.000735903 14.1308 0.000560124C14.1189 0.000560124 14.1071 -8.44002e-05 14.0952 -8.44002e-05C14.087 -8.44002e-05 14.0788 0.000384344 14.0705 0.000384344C13.9886 0.00050153 13.9079 0.00120465 13.8313 0.00296244C13.7809 0.00378274 13.7316 0.00624365 13.6816 0.00770848C13.6191 0.00952486 13.5564 0.0109897 13.494 0.0136264C13.4861 0.0139779 13.4781 0.0139779 13.4702 0.0143295C13.4025 0.0164388 13.3347 0.0203646 13.2666 0.0243489C13.1926 0.0287434 13.1189 0.033841 13.0457 0.0389386C13.0342 0.0397589 13.0228 0.040462 13.0114 0.0413995C13.0082 0.0416925 13.0051 0.0418682 13.002 0.0422198C12.9971 0.0425714 12.9923 0.0429229 12.9874 0.0433917C12.9108 0.0490752 12.835 0.0561649 12.7584 0.0634891C12.7384 0.0650125 12.7184 0.0668875 12.6986 0.0691726C12.6412 0.0745632 12.5838 0.0808326 12.5264 0.0873365C12.5058 0.0896216 12.4853 0.0919067 12.4649 0.0942504C12.4554 0.0953637 12.4464 0.0963598 12.4362 0.0977074C12.2765 0.116047 12.1289 0.135793 11.9865 0.157824C11.9717 0.159992 11.9569 0.162394 11.9421 0.164679L11.9441 0.164328C11.9298 0.16632 11.9155 0.168546 11.9015 0.17089C11.7804 0.189874 11.6599 0.210909 11.5394 0.233057L11.4982 0.240909C11.4561 0.24876 11.4141 0.257139 11.3721 0.265401C11.3008 0.279463 11.2289 0.293994 11.1522 0.310342L11.0786 0.326162C11.058 0.330732 11.0376 0.33583 11.0169 0.3404C10.9548 0.354286 10.8928 0.3687 10.831 0.383407C10.7995 0.390907 10.7677 0.397645 10.7363 0.405321C10.7322 0.406317 10.7261 0.407782 10.7234 0.408544C10.6292 0.431805 10.5351 0.456004 10.4415 0.481316C10.409 0.490105 10.3766 0.499597 10.3442 0.508621C10.2225 0.542312 10.1014 0.57776 9.98084 0.614733C9.93736 0.628092 9.89389 0.641392 9.85059 0.655103C9.7334 0.692368 9.61692 0.73145 9.50084 0.771821C9.45098 0.789106 9.401 0.806156 9.35137 0.824027C9.23723 0.865218 9.12374 0.908225 9.01077 0.952346C8.94995 0.976017 8.88931 0.999923 8.82884 1.02447C8.72402 1.06713 8.61972 1.11096 8.51595 1.15607C8.44939 1.18502 8.38301 1.21473 8.31685 1.24467C8.22691 1.28551 8.13732 1.32711 8.04826 1.36988C7.97221 1.40632 7.89657 1.44365 7.82104 1.4815C7.74891 1.51765 7.67719 1.55457 7.60577 1.59201C7.51981 1.63701 7.43427 1.68277 7.34913 1.72964C7.27232 1.77183 7.19597 1.81484 7.12003 1.85843C7.05054 1.89833 6.98134 1.9387 6.91244 1.97989C6.81921 2.0355 6.7267 2.09233 6.63471 2.15011C6.59469 2.1753 6.55455 2.19997 6.51482 2.22551C6.39565 2.30215 6.27787 2.38114 6.16098 2.46129C6.14235 2.47407 6.12325 2.48596 6.10473 2.49885C6.09834 2.5033 6.09243 2.50828 6.0861 2.5128C4.96299 3.29419 3.95062 4.23824 3.0934 5.31817C1.10668 7.82109 0.0565796 10.8367 0.0565796 14.039C0.0565796 14.2161 0.0600366 14.3967 0.0671849 14.5912C0.0677123 14.6066 0.0687083 14.6218 0.0699388 14.6369C0.0723997 14.6951 0.0761497 14.7531 0.0793723 14.8113C0.082009 14.8607 0.0841183 14.9102 0.0873409 14.9594C0.0915596 15.0247 0.0969502 15.0897 0.102048 15.155C0.105974 15.205 0.109372 15.2552 0.113708 15.3052C0.11945 15.3694 0.126305 15.4333 0.132868 15.4973C0.138083 15.548 0.142711 15.5988 0.148512 15.6494C0.15566 15.7118 0.163863 15.774 0.171774 15.8362C0.178336 15.8881 0.184371 15.94 0.191578 15.9917C0.199957 16.0524 0.209449 16.1127 0.218707 16.1732C0.226734 16.226 0.234234 16.279 0.242788 16.3317C0.252456 16.3914 0.263413 16.4507 0.273901 16.5102C0.283335 16.5633 0.292182 16.6166 0.302143 16.6694C0.3131 16.7275 0.32517 16.7853 0.33683 16.8433C0.34767 16.8972 0.3581 16.9514 0.369642 17.0051C0.381713 17.0616 0.394955 17.1176 0.407728 17.1739C0.42015 17.2287 0.432103 17.2836 0.445169 17.3382C0.458411 17.3936 0.472825 17.4486 0.486828 17.5038C0.500715 17.5588 0.514016 17.6139 0.528664 17.6687C0.543078 17.7231 0.558722 17.7771 0.573781 17.8312C0.589132 17.8863 0.604015 17.9416 0.620069 17.9966C0.635596 18.0499 0.652295 18.1029 0.668584 18.156C0.685459 18.2112 0.701806 18.2665 0.719267 18.3216C0.735966 18.374 0.753778 18.4261 0.771122 18.4784C0.789403 18.5335 0.807274 18.5889 0.826258 18.6438C0.84407 18.6952 0.862879 18.7462 0.881218 18.7973C0.901023 18.8526 0.920417 18.9081 0.940925 18.9631C0.959733 19.0135 0.979655 19.0635 0.999108 19.1136C1.02049 19.1688 1.04141 19.2242 1.06338 19.2791C1.08336 19.329 1.10446 19.3783 1.12514 19.4279C1.14788 19.4826 1.17008 19.5375 1.19346 19.5919C1.21467 19.6411 1.23694 19.6898 1.25873 19.7389C1.28282 19.7931 1.30643 19.8476 1.33115 19.9014C1.35319 19.9493 1.37633 19.9967 1.39889 20.0445C1.42467 20.0989 1.44992 20.1535 1.47641 20.2076C1.49961 20.2551 1.52398 20.3019 1.54771 20.3492C1.57473 20.4028 1.60121 20.4566 1.62898 20.5099C1.65371 20.5574 1.67949 20.6043 1.7048 20.6516C1.73281 20.7041 1.76041 20.7567 1.78918 20.8088C1.81531 20.8562 1.8425 20.9029 1.86927 20.95C1.89834 21.0013 1.92687 21.0528 1.95669 21.1037C1.98435 21.1511 2.01312 21.1979 2.04142 21.245C2.07148 21.295 2.10089 21.3453 2.13154 21.3949C2.16048 21.4418 2.1906 21.4881 2.22019 21.5348C2.2513 21.584 2.28194 21.6334 2.3137 21.6821C2.34347 21.7277 2.37435 21.7729 2.40476 21.8183C2.43757 21.8673 2.46979 21.9167 2.50319 21.9653C2.53389 22.0099 2.56565 22.0539 2.59688 22.0983C2.6311 22.1469 2.66485 22.1958 2.6996 22.244C2.73176 22.2885 2.76499 22.3323 2.79768 22.3763C2.83284 22.4237 2.86746 22.4715 2.90326 22.5184C2.93625 22.5618 2.97041 22.6044 3.00393 22.6474C3.04067 22.6945 3.07682 22.7419 3.11414 22.7885C3.14748 22.8302 3.18182 22.8711 3.21568 22.9123C3.25441 22.9595 3.29256 23.0071 3.33181 23.0539C3.36545 23.0938 3.40002 23.133 3.43412 23.1726C3.47484 23.22 3.51509 23.2676 3.55658 23.3146C3.58833 23.3506 3.62115 23.3859 3.65331 23.4216C3.69826 23.4713 3.74273 23.5215 3.78837 23.5707C3.81503 23.5993 3.84251 23.6275 3.86935 23.656C3.92167 23.7114 3.97364 23.767 4.02685 23.8217C4.03974 23.835 4.05298 23.8478 4.06593 23.8609C4.21475 24.0126 4.36709 24.1618 4.52354 24.3078L4.52436 24.3084C6.79771 26.4283 9.70088 27.7261 12.7771 28.0148C12.8099 28.6308 12.8582 29.0218 12.8672 29.0911C12.9207 29.5021 13.2442 29.8255 13.6551 29.879C13.7618 29.8929 14.6308 30.0001 15.9113 30.0001C18.6929 30.0001 23.4159 29.494 26.4833 26.4268C28.1045 24.8056 29.191 22.5435 29.7128 19.7032C29.8039 19.2071 29.4757 18.7312 28.9796 18.64C28.4828 18.5485 28.0075 18.8771 27.9165 19.3732C27.4628 21.8424 26.5461 23.781 25.1917 25.1353C22.0643 28.263 16.5816 28.2467 14.6164 28.1287C14.5036 26.2958 14.4791 21.4064 17.0252 18.2126C17.0444 18.1877 17.0642 18.1628 17.0842 18.1382ZM16.2064 16.3773C15.6842 15.6405 15.5392 14.6734 15.7071 13.2511C16.0522 10.3288 12.5956 9.08003 11.2944 8.60993C11.1874 8.57132 11.0938 8.53763 11.0165 8.50786C9.69531 8.0018 8.67163 5.66733 7.92428 3.96292C7.86967 3.83846 7.81623 3.71653 7.76385 3.59788C8.71212 3.02062 9.72643 2.57983 10.7832 2.28223C10.7946 2.27901 10.8061 2.27573 10.8176 2.27256C10.9382 2.23893 11.0594 2.20729 11.1812 2.17741C11.2199 2.16792 11.2587 2.15954 11.2975 2.15046C11.3832 2.13036 11.4689 2.11061 11.5552 2.09245C11.6049 2.08184 11.6551 2.07206 11.7051 2.06222C11.7828 2.04681 11.8606 2.03192 11.9385 2.01792C11.9897 2.00878 12.0409 2.00011 12.0922 1.99155C12.325 1.95312 12.5592 1.92095 12.7947 1.89593C12.8201 1.89329 12.8455 1.89025 12.871 1.8879C12.9863 1.87642 13.102 1.86663 13.218 1.85843C13.2462 1.8565 13.2745 1.85468 13.3029 1.85286C13.4067 1.84618 13.5105 1.84097 13.6147 1.83698C13.6439 1.83581 13.6728 1.83441 13.7024 1.83353C13.8256 1.8296 13.9491 1.82749 14.0728 1.8272C14.0965 1.8272 14.1207 1.82732 14.1451 1.82749C14.2126 1.82778 14.2801 1.82861 14.3475 1.83007C14.361 1.83036 14.3745 1.83025 14.3879 1.83089C14.4006 1.83142 14.4133 1.83171 14.426 1.83171C14.5049 1.83382 14.5837 1.83693 14.6625 1.84056C14.6815 1.8415 14.7007 1.84208 14.7197 1.84302L14.7224 1.84314C14.8137 1.84777 14.9047 1.85357 14.9958 1.86019C15.0038 1.86083 15.0115 1.86118 15.0196 1.86183C16.337 1.96126 17.6251 2.27268 18.8359 2.78262C17.5337 3.4405 16.5936 4.27879 15.564 5.61811C15.392 5.83819 15.2295 6.04596 15.3976 8.17599C15.5053 9.53939 15.6837 10.4847 15.9281 10.9856C16.238 11.621 16.7147 11.716 16.9716 11.716C17.1382 11.716 17.2998 11.6769 17.451 11.6001C17.8104 11.4174 18.1348 11.3247 18.4153 11.3247C19.3038 11.3247 19.9132 12.3427 20.5623 13.5724C20.5786 13.6034 20.5948 13.6341 20.6108 13.6645C19.0683 14.2031 17.5587 15.0236 16.3193 16.263L16.3162 16.2662C16.2792 16.3027 16.2427 16.3398 16.2064 16.3773ZM26.2331 12.6991C25.1225 12.7308 23.7912 12.8504 22.4113 13.1559C22.3352 13.0188 22.2558 12.8687 22.1772 12.7198C21.5002 11.4368 20.4771 9.49809 18.415 9.49809C18.0918 9.49809 17.7581 9.54924 17.4172 9.6506C17.2457 8.76468 17.1324 7.17393 17.155 6.54763C18.2497 5.16741 19.1785 4.50766 20.8917 3.89219C23.8999 5.90867 25.8426 9.12491 26.2331 12.6991ZM5.31161 22.5227C5.2498 22.4589 5.18851 22.3947 5.12822 22.3297C5.12447 22.3256 5.12084 22.3215 5.11709 22.3174C5.05674 22.2522 4.99721 22.1863 4.93838 22.1199C4.91863 22.0976 4.8993 22.075 4.87973 22.0525C4.83725 22.004 4.79506 21.9553 4.75352 21.906C4.73084 21.8793 4.70869 21.8524 4.68619 21.8255C4.64811 21.7797 4.61032 21.7337 4.57293 21.6874C4.55008 21.6591 4.52746 21.6308 4.50496 21.6024C4.46846 21.5562 4.43225 21.5098 4.39645 21.4633C4.37471 21.435 4.35297 21.4068 4.33153 21.3784C4.29444 21.3294 4.258 21.28 4.22178 21.2304C4.20268 21.2043 4.18335 21.1784 4.16454 21.1521C4.12141 21.0922 4.07917 21.032 4.03722 20.9714C4.02608 20.9554 4.01454 20.9394 4.00353 20.9234C3.95085 20.8465 3.89917 20.7692 3.84825 20.6912C3.83501 20.6709 3.8223 20.6503 3.80929 20.6301C3.77214 20.5722 3.73511 20.5143 3.69896 20.4559C3.68097 20.4269 3.66345 20.3977 3.6457 20.3685C3.61511 20.3182 3.5847 20.2678 3.55494 20.2171C3.53601 20.1851 3.5175 20.1527 3.49886 20.1205C3.47091 20.072 3.44332 20.0233 3.41601 19.9745C3.39756 19.9413 3.3791 19.9081 3.36094 19.8747C3.33392 19.8252 3.30744 19.7755 3.28113 19.7256C3.26408 19.6932 3.24691 19.6609 3.2301 19.6283C3.20227 19.5742 3.17502 19.5198 3.14801 19.4654C3.13383 19.4369 3.11941 19.4085 3.10547 19.3799C3.06733 19.3016 3.02994 19.2228 2.9935 19.1436C2.98904 19.1339 2.98465 19.1241 2.98014 19.1144C2.94434 19.036 2.90936 18.9572 2.8752 18.878C2.86231 18.8481 2.84989 18.8178 2.83723 18.7877C2.81403 18.7326 2.79094 18.6776 2.76856 18.6221C2.75438 18.5872 2.74073 18.5521 2.7269 18.517C2.70674 18.4657 2.6867 18.4143 2.66725 18.3627C2.65348 18.3261 2.63983 18.2894 2.62641 18.2528C2.60766 18.2018 2.58944 18.1507 2.57145 18.0994C2.55856 18.0627 2.54567 18.0259 2.53307 17.989C2.51497 17.9359 2.49757 17.8826 2.48022 17.8293C2.46891 17.7944 2.45731 17.7595 2.44624 17.7244C2.42708 17.6633 2.40862 17.6019 2.39028 17.5405C2.38214 17.513 2.37358 17.4857 2.36561 17.4584C2.34013 17.3704 2.31563 17.2822 2.2922 17.1937C2.28552 17.1684 2.27931 17.1428 2.27286 17.1175C2.25616 17.0529 2.2397 16.9883 2.22411 16.9234C2.21562 16.8883 2.20777 16.8529 2.19956 16.8176C2.18667 16.7619 2.17402 16.7063 2.16183 16.6502C2.15363 16.6123 2.14577 16.5743 2.13798 16.5363C2.12685 16.4824 2.11607 16.4284 2.10564 16.3744C2.09825 16.3357 2.09093 16.2969 2.08384 16.2581C2.07388 16.2034 2.06439 16.1486 2.05519 16.0937C2.0488 16.0559 2.04242 16.0181 2.03638 15.9802C2.02706 15.9214 2.01851 15.8625 2.01001 15.8035C2.00515 15.7697 1.99999 15.7358 1.99542 15.7018C1.98494 15.6239 1.97533 15.5457 1.9663 15.4675C1.96455 15.4523 1.96249 15.4373 1.96074 15.4221C1.95107 15.3351 1.94257 15.2479 1.93472 15.1605C2.75772 14.809 3.35994 14.4472 3.76622 14.0617C4.53942 13.3264 4.85137 13.2692 4.92865 13.2692C4.99908 13.2692 5.18482 13.4194 5.40765 13.8327C5.55366 14.104 5.68802 14.3746 5.81798 14.6361C6.45711 15.9226 7.11792 17.253 8.804 17.5275C9.57426 17.6534 10.6515 18.3032 10.8341 18.9211C10.9285 19.2407 10.744 19.6135 10.2857 20.0291C9.30749 20.9162 7.936 21.4561 6.72605 21.9325C6.22742 22.1286 5.74743 22.3177 5.31161 22.5227ZM12.7553 26.1767C10.6082 25.9407 8.56453 25.1391 6.83158 23.856C7.01433 23.782 7.20271 23.7075 7.39483 23.632C8.75056 23.0983 10.2871 22.4934 11.5126 21.3819C12.7856 20.2275 12.7988 19.1251 12.5856 18.4036C12.1341 16.8754 10.2747 15.9172 9.09796 15.7249C8.36894 15.6062 8.0499 15.0239 7.45366 13.8236C7.31714 13.5488 7.17593 13.2646 7.0155 12.9667C6.47059 11.9555 5.76835 11.4427 4.92853 11.4427C3.99544 11.4427 3.18105 12.0975 2.50811 12.7376C2.41407 12.8268 2.23589 12.9667 1.91597 13.1435C2.15937 9.78091 3.76247 6.75189 6.24172 4.67394C6.245 4.6815 6.24828 4.68883 6.25156 4.6965C7.17728 6.80737 8.32922 9.4344 10.3623 10.2133C10.4485 10.2463 10.5536 10.2844 10.6738 10.3278C12.2543 10.8988 14.0485 11.7227 13.8933 13.037C13.7184 14.5175 13.713 16.3508 15.0404 17.8393C13.2762 20.522 12.8224 23.839 12.7553 26.1767Z" fill="#0EBED9"/>
</svg>
