<svg width="32" height="32" viewBox="0 0 32 32" fill="none" xmlns="http://www.w3.org/2000/svg">
<g clip-path="url(#clip0_301_2795)">
<path d="M9.80354 20.3863L15.9998 16.01L22.1961 20.3863C23.1916 21.0894 23.788 22.2625 23.788 23.5173V27.4724H8.21155V23.5173C8.21155 22.2625 8.80805 21.0895 9.80354 20.3863Z" fill="#CEE8FA"/>
<path d="M27.4823 26.5061H24.7357V23.5173C24.7357 21.9535 23.9908 20.4937 22.7428 19.6123L16.6937 15.3399L10.3501 10.8349C9.60437 10.3082 9.15918 9.42715 9.15918 8.47797V5.47504H22.8403V8.47803C22.8403 9.42709 22.3951 10.3083 21.6494 10.835C21.2218 11.1369 21.12 11.7282 21.422 12.1557C21.724 12.5832 22.3154 12.6849 22.7428 12.3831C23.9908 11.5018 24.7357 10.0419 24.7357 8.47803V5.47504H25.9241H27.4823C28.0056 5.47504 28.43 5.05079 28.43 4.52736C28.43 4.00392 28.0056 3.57967 27.4823 3.57967H26.8717V0.947684C26.8717 0.424311 26.4474 0 25.9241 0H15.6364C15.1131 0 14.6887 0.424248 14.6887 0.947684C14.6887 1.47112 15.1131 1.89537 15.6364 1.89537H24.9764V3.57974H23.875C23.8463 3.57711 23.8174 3.57536 23.788 3.57536H8.2115C8.18213 3.57536 8.15313 3.57717 8.1245 3.57974H7.02313V1.89537H10.3722C10.8956 1.89537 11.3199 1.47112 11.3199 0.947684C11.3199 0.424248 10.8956 0 10.3723 0H6.07551C5.5522 0 5.12783 0.424248 5.12783 0.947684V3.57974H4.51727C3.99396 3.57974 3.56958 4.00398 3.56958 4.52742C3.56958 5.05086 3.99396 5.4751 4.51727 5.4751H6.07551H7.26388V8.47809C7.26388 10.0419 8.00881 11.5017 9.25675 12.3831L14.3745 15.9978L9.25675 19.6125C8.00888 20.4938 7.26388 21.9537 7.26388 23.5175V26.5063H4.51714C3.99383 26.5063 3.56946 26.9305 3.56946 27.454C3.56946 27.9773 3.99383 28.4016 4.51714 28.4016H5.1277V31.0524C5.1277 31.5758 5.55207 32.0001 6.07539 32.0001H16.363C16.8863 32.0001 17.3107 31.5759 17.3107 31.0524C17.3107 30.529 16.8863 30.1048 16.363 30.1048H7.02313V28.4204H8.2115H23.788H24.9764V30.1048H21.6273C21.104 30.1048 20.6796 30.529 20.6796 31.0524C20.6796 31.5759 21.104 32.0001 21.6273 32.0001H25.9241C26.4474 32.0001 26.8717 31.5759 26.8717 31.0524V28.4016H27.4823C28.0056 28.4016 28.43 27.9774 28.43 27.454C28.4299 26.9305 28.0057 26.5061 27.4823 26.5061ZM9.15918 23.5174C9.15918 22.5683 9.60437 21.6872 10.3501 21.1605L15.9997 17.1702L21.6493 21.1605C22.3951 21.6872 22.8403 22.5682 22.8403 23.5174V26.5061H9.15918V23.5174Z" fill="#0EBED9"/>
</g>
<defs>
<clipPath id="clip0_301_2795">
<rect width="32" height="32" fill="white"/>
</clipPath>
</defs>
</svg>
