<svg width="32" height="32" viewBox="0 0 32 32" fill="none" xmlns="http://www.w3.org/2000/svg">
<g clip-path="url(#clip0_301_2747)">
<path d="M21.3825 30.9686H2.78581C1.24975 30.9686 0 29.719 0 28.183V3.81702C0 2.28096 1.24975 1.03133 2.78581 1.03133H21.3825C22.9186 1.03133 24.1682 2.28102 24.1682 3.81702V11.855C24.1682 12.3793 23.7432 12.8043 23.2189 12.8043C22.6947 12.8043 22.2697 12.3793 22.2697 11.855V3.81702C22.2697 3.32777 21.8717 2.92977 21.3824 2.92977H2.78581C2.29656 2.92977 1.8985 3.32777 1.8985 3.81702V28.1828C1.8985 28.6721 2.2965 29.0701 2.78581 29.0701H21.3825C21.8717 29.0701 22.2698 28.6721 22.2698 28.1828V25.0179C22.2698 24.4936 22.6947 24.0686 23.219 24.0686C23.7432 24.0686 24.1682 24.4936 24.1682 25.0179V28.1828C24.1682 29.719 22.9186 30.9686 21.3825 30.9686Z" fill="#0EBED9"/>
<path d="M17.4473 6.15967H6.72107V10.0199H17.4473V6.15967Z" fill="#CEE8FA"/>
<path d="M17.4473 10.969H6.7211C6.19685 10.969 5.77185 10.5441 5.77185 10.0198V6.15971C5.77185 5.63546 6.19685 5.21046 6.7211 5.21046H17.4473C17.9715 5.21046 18.3965 5.63546 18.3965 6.15971V10.02C18.3965 10.5441 17.9715 10.969 17.4473 10.969ZM7.67035 9.07058H16.4981V7.10889H7.67035V9.07058Z" fill="#0EBED9"/>
<path d="M31.0509 10.9815C30.8079 10.9815 30.5649 10.8888 30.3797 10.7035L27.9237 8.24752L25.9971 10.1741C25.6265 10.5448 25.0255 10.5449 24.6547 10.1741C24.284 9.80346 24.284 9.2024 24.6547 8.83177L27.2526 6.2339C27.6233 5.86334 28.2242 5.86321 28.595 6.2339L31.7221 9.36102C32.0928 9.73171 32.0928 10.3328 31.7221 10.7035C31.5368 10.8888 31.2938 10.9815 31.0509 10.9815Z" fill="#0EBED9"/>
<path d="M25.3257 9.50291L13.3601 21.4685L12.861 25.0947L16.4872 24.5957L28.4528 12.63L25.3257 9.50291Z" fill="#CEE8FA"/>
<path d="M12.8612 26.044C12.6112 26.044 12.3692 25.9451 12.19 25.766C11.9799 25.5559 11.8804 25.2596 11.9209 24.9653L12.42 21.339C12.4482 21.1339 12.5427 20.9436 12.6891 20.7972L24.6547 8.83165C24.8327 8.65365 25.0741 8.55365 25.3259 8.55365C25.5776 8.55365 25.8191 8.65371 25.997 8.83165L29.1242 11.9588C29.4949 12.3295 29.4949 12.9305 29.1242 13.3012L17.1587 25.2669C17.0123 25.4133 16.822 25.5078 16.6169 25.536L12.9907 26.0351C12.9474 26.041 12.9042 26.044 12.8612 26.044ZM14.2571 21.914L13.9722 23.9836L16.0417 23.6988L27.1105 12.63L25.3257 10.8453L14.2571 21.914Z" fill="#0EBED9"/>
<path d="M12.8612 26.044H6.7211C6.19685 26.044 5.77185 25.619 5.77185 25.0947C5.77185 24.5704 6.19685 24.1455 6.7211 24.1455H12.8612C13.3854 24.1455 13.8104 24.5704 13.8104 25.0947C13.8104 25.619 13.3855 26.044 12.8612 26.044Z" fill="#0EBED9"/>
</g>
<defs>
<clipPath id="clip0_301_2747">
<rect width="32" height="32" fill="white"/>
</clipPath>
</defs>
</svg>
