<svg width="32" height="32" viewBox="0 0 32 32" fill="none" xmlns="http://www.w3.org/2000/svg">
<g clip-path="url(#clip0_301_2772)">
<path d="M20.7047 16.7779H11.2956C9.26402 16.7779 7.61121 15.125 7.61121 13.0934V3.68444C7.61127 1.65287 9.26402 0 11.2956 0H16.0001H18.3523H20.7046C22.7361 0 24.389 1.65287 24.389 3.68444V13.0934C24.389 15.125 22.7363 16.7779 20.7047 16.7779ZM11.2956 1.72344C10.2143 1.72344 9.33464 2.60319 9.33464 3.68444V13.0934C9.33464 14.1747 10.2143 15.0544 11.2956 15.0544H20.7046C21.7859 15.0544 22.6655 14.1747 22.6655 13.0934V3.68444C22.6655 2.60313 21.7859 1.72344 20.7046 1.72344H18.3523H16.0001H11.2956Z" fill="#0EBED9"/>
<path d="M15.1477 4.29959H16.8526L19.8361 12.4784H17.9008L17.2672 10.6468H14.7215L14.0994 12.4784H12.1642L15.1477 4.29959ZM16.9562 9.34509L16.0002 6.45365L15.021 9.34503H16.9562V9.34509Z" fill="#0EBED9"/>
<path d="M13.1362 31.1381H3.72717C2.16823 31.1381 0.904419 29.8743 0.904419 28.3154V18.9065C0.904419 17.3476 2.16823 16.0838 3.72717 16.0838H13.1362C14.6951 16.0838 15.9589 17.3476 15.9589 18.9065V28.3155C15.9589 29.8744 14.6951 31.1381 13.1362 31.1381Z" fill="#CEE8FA"/>
<path d="M13.1359 32H3.72692C1.69536 32 0.0424805 30.3471 0.0424805 28.3156V18.9065C0.0424805 16.875 1.69536 15.2221 3.72692 15.2221H13.1359C15.1675 15.2221 16.8204 16.875 16.8204 18.9065V28.3155C16.8204 30.3471 15.1675 32 13.1359 32ZM3.72692 16.9455C2.64561 16.9455 1.76592 17.8253 1.76592 18.9065V28.3155C1.76592 29.3968 2.64554 30.2765 3.72692 30.2765H13.1359C14.2172 30.2765 15.0969 29.3968 15.0969 28.3155V18.9065C15.0969 17.8252 14.2173 16.9455 13.1359 16.9455H3.72692Z" fill="#0EBED9"/>
<path d="M11.8124 25.604C11.8124 25.9573 11.7393 26.2645 11.5935 26.5256C11.4475 26.7868 11.2479 27.0037 10.9945 27.1765C10.7411 27.3493 10.4453 27.48 10.1075 27.5681C9.76941 27.6565 9.41235 27.7007 9.03616 27.7007H5.05066V19.5218H9.60078C9.88478 19.5218 10.1422 19.5835 10.3725 19.7061C10.603 19.8291 10.7987 19.9885 10.96 20.1842C11.1213 20.3801 11.246 20.6029 11.3343 20.8524C11.4226 21.1021 11.4668 21.3575 11.4668 21.6184C11.4668 22.0101 11.369 22.3788 11.1731 22.7243C10.9772 23.0699 10.6835 23.3311 10.2918 23.5076C10.7602 23.6458 11.1308 23.8918 11.4035 24.245C11.676 24.598 11.8124 25.051 11.8124 25.604ZM6.93978 21.1345V22.8278H8.79435C9.00166 22.8278 9.18597 22.7587 9.34728 22.6205C9.50853 22.4823 9.58916 22.2674 9.58916 21.9753C9.58916 21.7067 9.5181 21.4993 9.37603 21.3533C9.23385 21.2075 9.06303 21.1344 8.86341 21.1344H6.93972V21.1345H6.93978ZM9.88872 25.2238C9.88872 24.9705 9.81566 24.7555 9.66985 24.5788C9.52385 24.4022 9.33953 24.3138 9.11691 24.3138H6.93978V26.0993H9.03635C9.28203 26.0993 9.48553 26.0186 9.64685 25.8575C9.8081 25.6961 9.88872 25.4851 9.88872 25.2238Z" fill="#0EBED9"/>
<path d="M28.273 32H18.864C16.8324 32 15.1796 30.3471 15.1796 28.3156V18.9065C15.1796 16.875 16.8324 15.2221 18.864 15.2221H28.273C30.3046 15.2221 31.9574 16.875 31.9574 18.9065V28.3155C31.9574 30.3471 30.3046 32 28.273 32ZM18.864 16.9455C17.7827 16.9455 16.903 17.8253 16.903 18.9065V28.3155C16.903 29.3968 17.7826 30.2765 18.864 30.2765H28.273C29.3543 30.2765 30.234 29.3968 30.234 28.3155V18.9065C30.234 17.8252 29.3544 16.9455 28.273 16.9455H18.864Z" fill="#0EBED9"/>
<path d="M19.8418 23.5303C19.8418 23.0389 19.9339 22.5494 20.1182 22.0616C20.3025 21.5741 20.5713 21.1382 20.9246 20.7543C21.2777 20.3704 21.7079 20.0593 22.2148 19.8211C22.7217 19.5831 23.2975 19.464 23.9427 19.464C24.7106 19.464 25.3769 19.6293 25.9413 19.9594C26.5057 20.2897 26.9262 20.7196 27.2027 21.2496L25.7513 22.2633C25.6592 22.0484 25.5419 21.8699 25.3999 21.7277C25.2577 21.5857 25.1022 21.4704 24.9333 21.3821C24.7642 21.294 24.5914 21.2324 24.4149 21.1978C24.2381 21.1633 24.0654 21.146 23.8964 21.146C23.5354 21.146 23.2206 21.2191 22.9519 21.3649C22.683 21.5109 22.4604 21.6989 22.2837 21.9294C22.107 22.1597 21.9765 22.4209 21.8921 22.7127C21.8075 23.0046 21.7654 23.3001 21.7654 23.5996C21.7654 23.9222 21.8153 24.2333 21.9152 24.5328C22.0149 24.8323 22.1589 25.0972 22.3472 25.3275C22.5353 25.558 22.7619 25.7404 23.0268 25.8747C23.2918 26.0092 23.5892 26.0763 23.9196 26.0763C24.0884 26.0763 24.2632 26.0553 24.4437 26.013C24.6241 25.9709 24.7969 25.9056 24.9621 25.8171C25.1271 25.729 25.2789 25.6138 25.4171 25.4716C25.5554 25.3296 25.6665 25.1547 25.7512 24.9474L27.2947 25.8575C27.1718 26.1571 26.9894 26.4258 26.7475 26.6638C26.5057 26.902 26.2272 27.1016 25.9124 27.2628C25.5974 27.4241 25.2633 27.547 24.9102 27.6314C24.5569 27.7159 24.2112 27.7582 23.8734 27.7582C23.2819 27.7582 22.7388 27.6372 22.2435 27.3953C21.7482 27.1534 21.3219 26.8329 20.9648 26.4334C20.6077 26.0342 20.3312 25.5809 20.1354 25.0742C19.9397 24.5671 19.8418 24.0527 19.8418 23.5303Z" fill="#0EBED9"/>
</g>
<defs>
<clipPath id="clip0_301_2772">
<rect width="32" height="32" fill="white"/>
</clipPath>
</defs>
</svg>
