<svg width="32" height="32" viewBox="0 0 32 32" fill="none" xmlns="http://www.w3.org/2000/svg">
<g clip-path="url(#clip0_301_2783)">
<path d="M30.7522 21.5332L27.3383 18.1193L30.7522 14.7054C31.1547 14.3029 31.1547 13.6501 30.7522 13.2476L28.93 11.4254C28.5274 11.0228 27.8747 11.0228 27.4721 11.4254L24.0582 14.8393L20.6444 11.4254C20.2418 11.0228 19.589 11.0228 19.1865 11.4254L17.3643 13.2476C16.9617 13.6501 16.9617 14.3029 17.3643 14.7054L20.7782 18.1193L17.3643 21.5332C16.9617 21.9358 16.9617 22.5885 17.3643 22.9911L19.1865 24.8133C19.589 25.2158 20.2418 25.2158 20.6444 24.8133L24.0582 21.3994L27.4721 24.8133C27.8747 25.2158 28.5274 25.2158 28.93 24.8133L30.7522 22.9911C31.1547 22.5885 31.1547 21.9358 30.7522 21.5332Z" fill="#CEE8FA"/>
<path d="M28.2011 26.0614C27.6731 26.0614 27.1766 25.8557 26.8033 25.4824L24.0583 22.7374L21.3134 25.4824C20.94 25.8557 20.4436 26.0614 19.9155 26.0614C19.3875 26.0614 18.891 25.8557 18.5176 25.4824L16.6955 23.6602C16.3221 23.2868 16.1165 22.7903 16.1165 22.2623C16.1165 21.7342 16.3221 21.2377 16.6955 20.8644L19.4404 18.1195L16.6955 15.3746C16.3221 15.0012 16.1165 14.5047 16.1165 13.9767C16.1165 13.4486 16.3221 12.9521 16.6955 12.5788L18.5177 10.7566C18.891 10.3833 19.3875 10.1776 19.9155 10.1776C20.4435 10.1776 20.94 10.3833 21.3133 10.7567L24.0583 13.5016L26.8032 10.7566C27.1765 10.3833 27.673 10.1776 28.2011 10.1776C28.7291 10.1776 29.2256 10.3833 29.599 10.7567L31.421 12.5787C31.7944 12.9521 32.0001 13.4486 32.0001 13.9766C32.0001 14.5046 31.7945 15.0011 31.4211 15.3744L28.6761 18.1194L31.4211 20.8644C31.7944 21.2377 32.0001 21.7342 32.0001 22.2622C32.0001 22.7902 31.7944 23.2867 31.421 23.66L29.599 25.4822C29.2256 25.8557 28.7291 26.0614 28.2011 26.0614ZM24.0583 20.0616L28.1411 24.1444C28.1741 24.1773 28.2281 24.1773 28.2611 24.1444L30.0831 22.3221C30.0997 22.3057 30.108 22.2855 30.108 22.2622C30.108 22.2389 30.0997 22.2187 30.0832 22.2022L26.0004 18.1194L30.0832 14.0366C30.0996 14.0202 30.1081 13.9999 30.1081 13.9766C30.1081 13.9533 30.0998 13.9331 30.0833 13.9166L28.2611 12.0944C28.2281 12.0613 28.1741 12.0614 28.1411 12.0943L24.0582 16.1773L19.9754 12.0945C19.9425 12.0615 19.8886 12.0615 19.8555 12.0944L18.0333 13.9166C18.0168 13.9331 18.0085 13.9533 18.0085 13.9766C18.0085 13.9999 18.0168 14.0201 18.0333 14.0367L22.1161 18.1194L18.0334 22.2022C18.0168 22.2187 18.0085 22.2389 18.0085 22.2622C18.0085 22.2855 18.0168 22.3057 18.0334 22.3223L19.8555 24.1444C19.8884 24.1773 19.9424 24.1773 19.9754 24.1444L24.0583 20.0616Z" fill="#0EBED9"/>
<path d="M9.22194 26.0615C8.39537 26.0615 7.67744 25.5762 7.36825 24.7954L5.25225 19.4526C5.11931 19.1168 4.80025 18.9 4.43925 18.9H0V17.0079H4.43913C5.58119 17.0079 6.59081 17.694 7.01131 18.7559L9.12744 24.0989C9.13937 24.1289 9.15744 24.1734 9.23825 24.169C9.31913 24.1636 9.33094 24.1162 9.33881 24.0849L13.3382 8.03619C13.6459 6.80113 14.7498 5.93851 16.0227 5.93851H31.4736V7.83057H16.0227C15.6203 7.83057 15.2714 8.10319 15.1741 8.49363L11.1747 24.5422C10.9601 25.4034 10.2493 25.9978 9.36375 26.0567C9.31619 26.0599 9.26888 26.0615 9.22194 26.0615Z" fill="#0EBED9"/>
</g>
<defs>
<clipPath id="clip0_301_2783">
<rect width="32" height="32" fill="white"/>
</clipPath>
</defs>
</svg>
