<svg width="32" height="32" viewBox="0 0 32 32" fill="none" xmlns="http://www.w3.org/2000/svg">
<g clip-path="url(#clip0_301_2758)">
<path d="M18.1035 12.991H3.00345C2.5022 12.991 2.09595 12.5846 2.09595 12.0835C2.09595 11.5822 2.50226 11.176 3.00345 11.176H18.1035C18.6046 11.176 19.011 11.5823 19.011 12.0835C19.011 12.5846 18.6048 12.991 18.1035 12.991Z" fill="#0EBED9"/>
<path d="M18.1943 20.8655H3.00345C2.5022 20.8655 2.09595 20.4591 2.09595 19.958C2.09595 19.4568 2.50226 19.0505 3.00345 19.0505H18.1943C18.6954 19.0505 19.1018 19.4568 19.1018 19.958C19.1018 20.4591 18.6955 20.8655 18.1943 20.8655Z" fill="#0EBED9"/>
<path d="M18.1943 28.7397H3.00345C2.5022 28.7397 2.09595 28.3334 2.09595 27.8322C2.09595 27.331 2.50226 26.9247 3.00345 26.9247H18.1943C18.6954 26.9247 19.1018 27.331 19.1018 27.8322C19.1018 28.3334 18.6955 28.7397 18.1943 28.7397Z" fill="#0EBED9"/>
<path d="M28.9962 12.991H25.6226C25.1215 12.991 24.7151 12.5846 24.7151 12.0835C24.7151 11.5822 25.1215 11.176 25.6226 11.176H28.9962C29.4973 11.176 29.9037 11.5823 29.9037 12.0835C29.9038 12.5846 29.4975 12.991 28.9962 12.991Z" fill="#0EBED9"/>
<path d="M28.9963 20.8655H26.0766C25.5754 20.8655 25.1691 20.4591 25.1691 19.958C25.1691 19.4568 25.5754 19.0505 26.0766 19.0505H28.9963C29.4974 19.0505 29.9038 19.4568 29.9038 19.958C29.9038 20.4591 29.4975 20.8655 28.9963 20.8655Z" fill="#0EBED9"/>
<path d="M28.9963 28.7397H26.0766C25.5754 28.7397 25.1691 28.3334 25.1691 27.8322C25.1691 27.331 25.5754 26.9247 26.0766 26.9247H28.9963C29.4974 26.9247 29.9038 27.331 29.9038 27.8322C29.9038 28.3334 29.4975 28.7397 28.9963 28.7397Z" fill="#0EBED9"/>
<path d="M21.7361 26.2424C21.6989 26.2424 21.6614 26.2402 21.6241 26.2354L18.0822 25.7949C17.6278 25.7384 17.2866 25.3522 17.2866 24.8944V0.9075C17.2866 0.40625 17.693 0 18.1941 0C18.6952 0 19.1016 0.406313 19.1016 0.9075V24.0927L20.8284 24.3075V6.04306C20.8284 5.54181 21.2348 5.13556 21.7359 5.13556C22.2371 5.13556 22.6434 5.54188 22.6434 6.04306V25.3347C22.6434 25.5949 22.5318 25.8427 22.3367 26.0149C22.1701 26.1624 21.9561 26.2424 21.7361 26.2424Z" fill="#0EBED9"/>
<path d="M16.4231 31.0925C19.3571 31.0925 21.7356 28.714 21.7356 25.78C21.7356 22.846 19.3571 20.4675 16.4231 20.4675C13.4891 20.4675 11.1106 22.846 11.1106 25.78C11.1106 28.714 13.4891 31.0925 16.4231 31.0925Z" fill="#CEE8FA"/>
<path d="M16.4235 32.0001C12.9937 32.0001 10.2032 29.2096 10.2032 25.7798C10.2032 22.35 12.9937 19.5596 16.4235 19.5596C19.8534 19.5596 22.6438 22.35 22.6438 25.7798C22.6438 29.2096 19.8534 32.0001 16.4235 32.0001ZM16.4235 21.3746C13.9944 21.3746 12.0183 23.3508 12.0183 25.7798C12.0183 28.2089 13.9944 30.185 16.4235 30.185C18.8527 30.185 20.8288 28.2089 20.8288 25.7798C20.8288 23.3508 18.8527 21.3746 16.4235 21.3746Z" fill="#0EBED9"/>
<path d="M27.5815 16.759C27.0804 16.759 26.674 16.3527 26.674 15.8515V14.9239C26.674 14.0829 26.1763 13.3216 25.4059 12.9843L23.184 12.0113C21.7533 11.3849 20.8289 9.97097 20.8289 8.40909V7.61984C20.8289 7.11859 21.2352 6.71234 21.7364 6.71234C22.2375 6.71234 22.6439 7.11865 22.6439 7.61984V8.40909C22.6439 9.25009 23.1415 10.0114 23.9119 10.3487L26.1338 11.3217C27.5646 11.9481 28.489 13.362 28.489 14.9239V15.8515C28.489 16.3527 28.0827 16.759 27.5815 16.759Z" fill="#0EBED9"/>
</g>
<defs>
<clipPath id="clip0_301_2758">
<rect width="32" height="32" fill="white"/>
</clipPath>
</defs>
</svg>
