<svg width="30" height="30" viewBox="0 0 30 30" fill="none" xmlns="http://www.w3.org/2000/svg">
<g clip-path="url(#clip0_301_2720)">
<path d="M27.5847 9.2696C26.1978 6.22375 19.4393 6.32008 12.489 9.48476C5.53882 12.6494 1.02883 17.6841 2.41571 20.7299C3.80259 23.7758 10.5612 23.6794 17.5114 20.5147C24.4616 17.3501 28.9716 12.3154 27.5847 9.2696Z" fill="#CEE8FA"/>
<path d="M7.673 23.766C4.59776 23.766 2.46764 22.8074 1.67516 21.0667C0.862351 19.2816 1.58862 16.9882 3.71991 14.609C5.69587 12.4034 8.69042 10.3206 12.1518 8.74459C15.708 7.12541 19.3215 6.23368 22.3268 6.23368C25.4021 6.23368 27.5321 7.19227 28.3246 8.93297C29.1374 10.718 28.4112 13.0114 26.2799 15.3906C24.3039 17.5963 21.3094 19.6791 17.8479 21.2551C14.2919 22.8743 10.6783 23.766 7.673 23.766ZM22.3268 7.86059C19.5894 7.86059 16.1265 8.7225 12.826 10.2252C9.56458 11.7102 6.76093 13.6526 4.93163 15.6946C3.28198 17.5361 2.6347 19.2484 3.15571 20.3927C3.66108 21.5027 5.30763 22.1393 7.673 22.1393C10.4104 22.1393 13.8733 21.2774 17.1739 19.7747C20.4353 18.2897 23.2388 16.3473 25.0683 14.3053C26.7179 12.4638 27.3652 10.7515 26.8442 9.60715C26.3388 8.49715 24.6923 7.86059 22.3268 7.86059Z" fill="#0EBED9"/>
<path d="M4.46423 15.8134C4.2448 15.8134 4.02612 15.7252 3.86575 15.551C1.62027 13.1128 0.842316 10.7626 1.67528 8.93309C2.3613 7.42647 4.01769 6.51141 6.46521 6.28694C6.9128 6.24587 7.30855 6.57528 7.3495 7.02264C7.39052 7.46995 7.06116 7.86587 6.61386 7.90688C4.80777 8.07258 3.57964 8.67645 3.15583 9.60715C2.61905 10.7859 3.31404 12.5507 5.0623 14.449C5.36669 14.7795 5.34542 15.294 5.01501 15.5983C4.8588 15.7422 4.66122 15.8134 4.46423 15.8134Z" fill="#0EBED9"/>
<path d="M22.3399 23.7676C21.66 23.7676 20.935 23.7208 20.1686 23.6256C18.4609 23.4136 16.6529 22.9746 14.7952 22.3211C14.3714 22.172 14.1487 21.7076 14.2978 21.2838C14.4468 20.8602 14.9111 20.6373 15.3349 20.7864C17.0831 21.4014 18.7768 21.8135 20.3691 22.0112C23.7195 22.4272 26.2003 21.8071 26.8443 20.3929C27.3653 19.2487 26.718 17.5362 25.0684 15.6948C23.2391 13.6528 20.4355 11.7104 17.174 10.2254C16.3881 9.86767 15.5871 9.54248 14.7932 9.25906C14.3701 9.10812 14.1495 8.64265 14.3006 8.21955C14.4515 7.7965 14.9166 7.57584 15.3401 7.72695C16.1769 8.02572 17.0207 8.36814 17.8481 8.7449C21.3096 10.3209 24.3041 12.4036 26.28 14.6093C28.4114 16.9885 29.1376 19.2819 28.3248 21.067C27.5249 22.8237 25.3907 23.7676 22.3399 23.7676Z" fill="#0EBED9"/>
<path d="M15.0001 29.6409C13.0387 29.6409 11.2523 28.0296 9.97026 25.1039C8.78156 22.3916 8.12695 18.8033 8.12695 14.9999C8.12695 11.1965 8.78156 7.6082 9.97026 4.89589C11.2524 1.97025 13.0387 0.359095 15.0001 0.359095C16.6756 0.359095 18.2088 1.5124 19.434 3.69413C19.6541 4.08577 19.5148 4.58159 19.1231 4.80156C18.7317 5.02163 18.2356 4.88242 18.0157 4.49066C17.1086 2.87546 16.0376 1.98583 15.0001 1.98583C13.7428 1.98583 12.4525 3.28456 11.4602 5.54892C10.3598 8.05995 9.75381 11.4164 9.75381 15C9.75381 18.5835 10.3598 21.94 11.4603 24.451C12.4526 26.7153 13.7429 28.0141 15.0001 28.0141C16.1086 28.0141 17.0167 27.0311 17.5835 26.2064C18.1998 25.3097 18.7521 24.1016 19.1807 22.7128C19.3133 22.2836 19.7684 22.0434 20.1978 22.1755C20.627 22.308 20.8675 22.7635 20.7351 23.1927C20.2518 24.7586 19.6425 26.0826 18.9241 27.1279C17.7943 28.7718 16.4374 29.6409 15.0001 29.6409Z" fill="#0EBED9"/>
<path d="M14.9995 17.3614C16.3039 17.3614 17.3614 16.3039 17.3614 14.9995C17.3614 13.695 16.3039 12.6376 14.9995 12.6376C13.695 12.6376 12.6376 13.695 12.6376 14.9995C12.6376 16.3039 13.695 17.3614 14.9995 17.3614Z" fill="white"/>
<path d="M14.9998 18.1753C13.2489 18.1753 11.8245 16.7508 11.8245 14.9999C11.8245 13.249 13.2489 11.8245 14.9998 11.8245C16.7507 11.8245 18.1752 13.249 18.1752 14.9999C18.1752 16.7508 16.7507 18.1753 14.9998 18.1753ZM14.9998 13.4513C14.1459 13.4513 13.4513 14.146 13.4513 14.9999C13.4513 15.8538 14.1459 16.5485 14.9998 16.5485C15.8537 16.5485 16.5484 15.8538 16.5484 14.9999C16.5484 14.146 15.8537 13.4513 14.9998 13.4513Z" fill="#0EBED9"/>
<path d="M27.4483 22.3992C28.4084 22.3992 29.1867 21.6209 29.1867 20.6608C29.1867 19.7007 28.4084 18.9225 27.4483 18.9225C26.4883 18.9225 25.71 19.7007 25.71 20.6608C25.71 21.6209 26.4883 22.3992 27.4483 22.3992Z" fill="#CEE8FA"/>
<path d="M27.4484 23.2125C26.0413 23.2125 24.8966 22.0678 24.8966 20.6607C24.8966 19.2536 26.0413 18.1089 27.4484 18.1089C28.8554 18.1089 30.0001 19.2536 30.0001 20.6607C30.0001 22.0678 28.8554 23.2125 27.4484 23.2125ZM27.4484 19.7357C26.9383 19.7357 26.5234 20.1507 26.5234 20.6607C26.5234 21.1707 26.9384 21.5858 27.4484 21.5858C27.9584 21.5858 28.3733 21.1708 28.3733 20.6607C28.3734 20.1506 27.9584 19.7357 27.4484 19.7357Z" fill="#0EBED9"/>
<path d="M2.55172 11.0777C3.51179 11.0777 4.29008 10.2994 4.29008 9.33933C4.29008 8.37926 3.51179 7.60097 2.55172 7.60097C1.59165 7.60097 0.813354 8.37926 0.813354 9.33933C0.813354 10.2994 1.59165 11.0777 2.55172 11.0777Z" fill="#CEE8FA"/>
<path d="M2.55176 11.8909C1.14469 11.8909 0 10.7462 0 9.33916C0 7.93209 1.14469 6.78735 2.55176 6.78735C3.95883 6.78735 5.10357 7.93209 5.10357 9.33916C5.10357 10.7462 3.95883 11.8909 2.55176 11.8909ZM2.55176 8.41408C2.0417 8.41408 1.6268 8.82904 1.6268 9.33916C1.6268 9.84922 2.04176 10.2641 2.55176 10.2641C3.06182 10.2641 3.47684 9.84916 3.47684 9.33916C3.47678 8.8291 3.06182 8.41408 2.55176 8.41408Z" fill="#0EBED9"/>
</g>
<defs>
<clipPath id="clip0_301_2720">
<rect width="30" height="30" fill="white"/>
</clipPath>
</defs>
</svg>
