<svg width="100" height="100" viewBox="0 0 100 100" fill="none" xmlns="http://www.w3.org/2000/svg">
<circle cx="50" cy="50" r="50" fill="#DCF1FF"/>
<path d="M74.8379 59.7577C74.8379 61.5096 73.7146 62.9988 72.1484 63.543C71.7361 63.6875 71.292 63.7655 70.8301 63.7655C70.3681 63.7655 69.9241 63.6875 69.5117 63.543C67.9455 62.9988 66.8223 61.5096 66.8223 59.7577C66.8223 57.5439 68.6163 55.7499 70.8301 55.7499C73.0439 55.7499 74.8379 57.5439 74.8379 59.7577Z" fill="#BFD749"/>
<path d="M71.6738 63.4356C70.1076 62.8914 68.9844 61.4022 68.9844 59.6504C68.9844 57.8817 70.13 56.3821 71.7193 55.8501C71.4331 55.7852 71.1358 55.7499 70.8301 55.7499C68.6163 55.7499 66.8223 57.5439 66.8223 59.7577C66.8223 61.5096 67.9455 62.9988 69.5117 63.543C69.9241 63.6875 70.3681 63.7655 70.8301 63.7655C71.2748 63.7655 71.7027 63.6925 72.1021 63.5582C71.9562 63.525 71.813 63.4845 71.6738 63.4356Z" fill="#84C341"/>
<path d="M71.3258 57.9429C71.7171 58.5567 71.5357 59.372 70.9219 59.7622C70.307 60.1535 69.4928 59.9721 69.1015 59.3583L67.7947 57.3048L66.1611 54.7274C67.0133 54.4363 67.77 53.9346 68.3806 53.2997L70.0465 55.9326L71.3258 57.9429Z" fill="#B3B5BC"/>
<path d="M70.233 58.6831L68.9262 56.6296L67.353 54.1476C66.9834 54.3864 66.5841 54.583 66.1611 54.7273L67.7947 57.3047L69.1015 59.3582C69.4928 59.972 70.307 60.1534 70.9219 59.7621C71.1134 59.6404 71.2628 59.4772 71.3658 59.2917C70.9234 59.2984 70.4882 59.0835 70.233 58.6831Z" fill="#9C9FA7"/>
<path d="M39.875 46.7832H30.6992H30.4355V66.4004C30.4355 69.0804 32.6071 71.252 35.2871 71.252C35.903 71.252 36.4916 71.137 37.0337 70.9271C37.5758 70.7183 38.0704 70.4135 38.4986 70.0359L40.1387 67.7642V63.2026V46.7832H39.875Z" fill="#B4E3F5"/>
<path d="M33.9772 66.4004V46.7832H30.6992H30.4355V66.4004C30.4355 69.0804 32.6071 71.252 35.2871 71.252C35.903 71.252 36.4916 71.137 37.0337 70.9271C37.0418 70.9239 37.0497 70.9204 37.0578 70.9172C35.2544 70.2097 33.9772 68.4551 33.9772 66.4004Z" fill="#83D3F0"/>
<path d="M60.549 51.1761L53.6914 51.1887V48.552L60.5416 48.5393C60.4414 48.957 60.3887 49.3936 60.3887 49.8419C60.3887 50.3017 60.4446 50.7489 60.549 51.1761Z" fill="#B3B5BC"/>
<path d="M56.2142 48.7964V48.5472L53.6914 48.5519V51.1886L60.549 51.1759C60.4565 50.7977 60.4047 50.4031 60.3934 49.9986L57.4242 50.0041C56.7563 50.0053 56.2142 49.4642 56.2142 48.7964Z" fill="#9C9FA7"/>
<path d="M76.209 72.4153V74.3074C76.209 74.9497 75.688 75.4707 75.0457 75.4707H24.9543C24.312 75.4707 23.791 74.9497 23.791 74.3074V72.4153C23.791 71.773 24.312 71.252 24.9543 71.252H35.2871H58.8541H75.0457C75.688 71.252 76.209 71.773 76.209 72.4153Z" fill="#BB7A58"/>
<path d="M27.5911 73.3613C26.9487 73.3613 26.4277 72.8403 26.4277 72.198V71.252H24.9543C24.312 71.252 23.791 71.773 23.791 72.4153V74.3074C23.791 74.9497 24.312 75.4707 24.9543 75.4707H75.0457C75.688 75.4707 76.209 74.9497 76.209 74.3074V73.3613H27.5911Z" fill="#AA624F"/>
<path d="M41.2988 46.4141C41.2988 46.8075 41.1396 47.1629 40.8822 47.4213C40.6238 47.6786 40.2684 47.8379 39.875 47.8379H30.6992C29.9124 47.8379 29.2754 47.2009 29.2754 46.4141C29.2754 46.0207 29.4346 45.6652 29.692 45.4068C29.9504 45.1495 30.3058 44.9902 30.6992 44.9902H39.875C40.6618 44.9902 41.2988 45.6273 41.2988 46.4141Z" fill="#4CB8E9"/>
<path d="M33.3201 46.4141C33.3201 46.0207 33.4794 45.6652 33.7367 45.4068C33.9951 45.1495 34.3505 44.9902 34.7439 44.9902H30.6992C30.3058 44.9902 29.9504 45.1495 29.692 45.4068C29.4346 45.6652 29.2754 46.0207 29.2754 46.4141C29.2754 47.2009 29.9124 47.8379 30.6992 47.8379H34.7439C33.9571 47.8379 33.3201 47.2009 33.3201 46.4141Z" fill="#0AA5DC"/>
<path d="M33.0723 38.9785C34.412 38.9785 35.498 37.8925 35.498 36.5527C35.498 35.213 34.412 34.127 33.0723 34.127C31.7325 34.127 30.6465 35.213 30.6465 36.5527C30.6465 37.8925 31.7325 38.9785 33.0723 38.9785Z" fill="#EF5227"/>
<path d="M32.3182 36.5527C32.3182 35.507 32.9803 34.6156 33.9081 34.2749C33.6475 34.1793 33.366 34.127 33.0723 34.127C31.7328 34.127 30.6465 35.2133 30.6465 36.5527C30.6465 37.8922 31.7328 38.9785 33.0723 38.9785C33.366 38.9785 33.6475 38.9262 33.9081 38.8305C32.9803 38.4899 32.3182 37.5985 32.3182 36.5527Z" fill="#E43A26"/>
<path d="M44.3574 24.5293C46.5712 24.5293 48.3652 26.3233 48.3652 28.5371C48.3652 30.7509 46.5712 32.5449 44.3574 32.5449C42.1436 32.5449 40.3496 30.7509 40.3496 28.5371C40.3496 26.3233 42.1436 24.5293 44.3574 24.5293Z" fill="#BFD749"/>
<path d="M43.1973 28.5371C43.1973 26.8249 44.2708 25.3647 45.7812 24.7904C45.3387 24.6222 44.859 24.5293 44.3574 24.5293C42.1436 24.5293 40.3496 26.3233 40.3496 28.5371C40.3496 30.7509 42.1436 32.5449 44.3574 32.5449C44.859 32.5449 45.3387 32.452 45.7812 32.2838C44.2708 31.7095 43.1973 30.2493 43.1973 28.5371Z" fill="#84C341"/>
<path d="M55.1152 32.4395C55.8142 32.4395 56.3809 31.8728 56.3809 31.1738C56.3809 30.4748 55.8142 29.9082 55.1152 29.9082C54.4162 29.9082 53.8496 30.4748 53.8496 31.1738C53.8496 31.8728 54.4162 32.4395 55.1152 32.4395Z" fill="#BFD749"/>
<path d="M54.9486 31.1738C54.9486 30.6718 55.2413 30.2396 55.6647 30.035C55.4984 29.9546 55.3125 29.9082 55.1152 29.9082C54.416 29.9082 53.8496 30.4746 53.8496 31.1738C53.8496 31.8731 54.416 32.4395 55.1152 32.4395C55.3125 32.4395 55.4984 32.393 55.6647 32.3127C55.2413 32.1081 54.9486 31.6759 54.9486 31.1738Z" fill="#84C341"/>
<path d="M37.502 56.122V66.346C37.502 67.5455 36.571 68.5683 35.3724 68.6135C34.1124 68.6612 33.0723 67.6501 33.0723 66.4004V56.122C33.0723 56.032 33.1452 55.959 33.2353 55.959H37.3388C37.429 55.959 37.502 56.032 37.502 56.122Z" fill="#EF5227"/>
<path d="M33.9772 66.4004V55.959H33.2353C33.1452 55.959 33.0723 56.032 33.0723 56.122V66.4004C33.0723 67.3166 33.6318 68.104 34.4268 68.4406C34.1387 67.8204 33.9772 67.1295 33.9772 66.4004Z" fill="#E43A26"/>
<path d="M61.6195 65.9079L54.9106 56.1711C54.6659 55.8167 54.5351 55.3969 54.5351 54.9666V51.1887V48.552V38.3616H45.3593V54.9666C45.3593 55.3969 45.2286 55.8167 44.9839 56.1711L40.1386 63.2027L38.275 65.9079C37.3342 67.2727 37.562 68.9423 38.4986 70.036C39.0966 70.7352 39.9836 71.1993 41.0404 71.1993H58.8541C61.5646 71.1993 63.1614 68.1449 61.6195 65.9079Z" fill="#A3DCEF"/>
<path d="M42.4008 70.036C41.4643 68.9423 41.2365 67.2727 42.1773 65.9079L44.0409 63.2027L48.8861 56.1711C49.1308 55.8167 49.2616 55.3969 49.2616 54.9666V38.3616H45.3594V54.9666C45.3594 55.3969 45.2286 55.8167 44.9839 56.1711L40.1386 63.2027L38.275 65.9079C37.3342 67.2727 37.562 68.9423 38.4986 70.036C39.0966 70.7352 39.9836 71.1993 41.0404 71.1993H44.9426C43.8858 71.1993 42.9989 70.7352 42.4008 70.036Z" fill="#83D3F0"/>
<path d="M49.5254 43.3027C50.4577 43.3027 51.2129 44.0579 51.2129 44.9902C51.2129 45.9226 50.4577 46.6777 49.5254 46.6777C48.593 46.6777 47.8379 45.9226 47.8379 44.9902C47.8379 44.0579 48.593 43.3027 49.5254 43.3027Z" fill="#BFD749"/>
<path d="M50.3691 56.2754C51.6506 56.2754 52.6895 55.2366 52.6895 53.9551C52.6895 52.6736 51.6506 51.6348 50.3691 51.6348C49.0877 51.6348 48.0488 52.6736 48.0488 53.9551C48.0488 55.2366 49.0877 56.2754 50.3691 56.2754Z" fill="#BFD749"/>
<path d="M49.328 44.8848C49.328 44.2631 49.6647 43.7217 50.1648 43.4289C49.9675 43.3481 49.7519 43.3027 49.5254 43.3027C48.593 43.3027 47.8379 44.0579 47.8379 44.9902C47.8379 45.9226 48.593 46.6777 49.5254 46.6777C49.8361 46.6777 50.1261 46.5924 50.376 46.4461C49.7612 46.1942 49.328 45.5907 49.328 44.8848Z" fill="#84C341"/>
<path d="M49.8945 53.4805C49.8945 52.7476 50.2348 52.0944 50.7655 51.6691C50.6366 51.647 50.5044 51.6348 50.3691 51.6348C49.0877 51.6348 48.0488 52.6736 48.0488 53.9551C48.0488 55.2365 49.0877 56.2754 50.3691 56.2754C50.9177 56.2754 51.4214 56.0846 51.8185 55.7664C50.7259 55.5782 49.8945 54.6267 49.8945 53.4805Z" fill="#84C341"/>
<path d="M59.0166 67.6186C59.0472 67.6629 59.0851 67.7177 59.0292 67.8232C58.9733 67.9297 58.9069 67.9297 58.8542 67.9297H41.0405C40.9878 67.9297 40.9213 67.9297 40.8654 67.8232C40.8095 67.7177 40.8475 67.6629 40.8781 67.6186L46.0313 60.1651C46.2538 59.8423 46.6208 59.6504 47.0132 59.6504H52.8815C53.2738 59.6504 53.6408 59.8423 53.8634 60.1651L59.0166 67.6186Z" fill="#BFD749"/>
<path d="M64.6074 55.4316C67.7092 55.4316 70.2236 52.9172 70.2236 49.8154C70.2236 46.7137 67.7092 44.1992 64.6074 44.1992C61.5057 44.1992 58.9912 46.7137 58.9912 49.8154C58.9912 52.9172 61.5057 55.4316 64.6074 55.4316Z" fill="#4CB8E9"/>
<path d="M62.0234 49.8154C62.0234 47.2392 63.7586 45.0698 66.1235 44.4079C65.641 44.2729 65.133 44.1992 64.6074 44.1992C61.5057 44.1992 58.9912 46.7137 58.9912 49.8154C58.9912 52.9172 61.5057 55.4316 64.6074 55.4316C65.133 55.4316 65.641 55.3579 66.1235 55.2229C63.7586 54.5611 62.0234 52.3916 62.0234 49.8154Z" fill="#0AA5DC"/>
<path d="M65.9258 44.4102V45.9395C65.9258 46.6672 65.3352 47.2578 64.6074 47.2578C63.8797 47.2578 63.2891 46.6672 63.2891 45.9395V44.4102V39.9161C63.7014 40.0606 64.1455 40.1387 64.6074 40.1387C65.0694 40.1387 65.5134 40.0606 65.9258 39.9161V44.4102Z" fill="#B3B5BC"/>
<path d="M64.43 45.9395V44.4102V40.1347C64.0318 40.1174 63.6484 40.042 63.2891 39.9161V44.4102V45.9395C63.2891 46.6672 63.8797 47.2578 64.6074 47.2578C64.812 47.2578 65.005 47.2097 65.1779 47.1265C64.736 46.9135 64.43 46.4626 64.43 45.9395Z" fill="#9C9FA7"/>
<path d="M68.6152 36.9746C68.6152 38.7264 67.492 40.2157 65.9258 40.7599C65.5134 40.9044 65.0694 40.9824 64.6074 40.9824C64.1455 40.9824 63.7014 40.9044 63.2891 40.7599C61.7229 40.2157 60.5996 38.7264 60.5996 36.9746C60.5996 34.7608 62.3936 32.9668 64.6074 32.9668C66.8212 32.9668 68.6152 34.7608 68.6152 36.9746Z" fill="#EF5227"/>
<path d="M63.2891 36.9746C63.2891 35.2327 64.4002 33.7513 65.9521 33.1986C65.5318 33.049 65.0793 32.9668 64.6074 32.9668C62.3936 32.9668 60.5996 34.7608 60.5996 36.9746C60.5996 38.7264 61.7229 40.2157 63.2891 40.7599C63.7014 40.9044 64.1455 40.9824 64.6074 40.9824C65.0694 40.9824 65.5134 40.9044 65.9258 40.7599C65.9346 40.7568 65.9433 40.7532 65.9521 40.7502C64.3999 40.1984 63.2891 38.7165 63.2891 36.9746Z" fill="#E43A26"/>
<path d="M56.2142 37.7129V37.8869C56.2142 38.6737 55.5772 39.3107 54.7904 39.3107H54.5351H45.3594H45.1041C44.3173 39.3107 43.6803 38.6737 43.6803 37.8869V37.7129C43.6803 36.9261 44.3173 36.2891 45.1041 36.2891H54.7904C55.5772 36.2891 56.2142 36.9261 56.2142 37.7129Z" fill="#4CB8E9"/>
<path d="M48.3652 37.8869V37.7129C48.3652 36.9261 49.0023 36.2891 49.789 36.2891H45.1041C44.3173 36.2891 43.6803 36.9261 43.6803 37.7129V37.8869C43.6803 38.6737 44.3173 39.3107 45.1041 39.3107H45.3594H49.789C49.0023 39.3107 48.3652 38.6737 48.3652 37.8869Z" fill="#0AA5DC"/>
<path d="M45.7344 63.6832L47.8687 59.6504H47.0132C46.6209 59.6504 46.2538 59.8423 46.0313 60.1651L40.8781 67.6186C40.8475 67.6629 40.8095 67.7177 40.8654 67.8232C40.9213 67.9297 40.9878 67.9297 41.0405 67.9297H51.0155C49.7183 67.5059 48.1745 67.0085 46.9246 66.6074C45.7038 66.2157 45.1347 64.8162 45.7344 63.6832Z" fill="#84C341"/>
<path d="M45.3804 59.7154L40.2272 67.1687C39.931 67.597 40.0609 67.993 40.1646 68.1906C40.2683 68.3886 40.5201 68.7206 41.0407 68.7206H58.854C59.3747 68.7206 59.6263 68.3886 59.73 68.1909C59.8338 67.9931 59.9636 67.597 59.6676 67.1689L54.5144 59.7154C54.1439 59.1794 53.5335 58.8594 52.8819 58.8594H47.0129C46.3612 58.8594 45.7509 59.1794 45.3804 59.7154ZM53.2131 60.615L57.7234 67.1387H42.1714L46.6816 60.615C46.7568 60.5063 46.8807 60.4414 47.0128 60.4414H52.8818C53.0141 60.4414 53.1379 60.5064 53.2131 60.615Z" fill="black"/>
<path d="M50.3691 50.8438C48.6536 50.8438 47.2578 52.2395 47.2578 53.9551C47.2578 55.6706 48.6536 57.0664 50.3691 57.0664C52.0847 57.0664 53.4805 55.6706 53.4805 53.9551C53.4805 52.2395 52.0847 50.8438 50.3691 50.8438ZM50.3691 55.4844C49.5259 55.4844 48.8398 54.7983 48.8398 53.9551C48.8398 53.1119 49.5259 52.4258 50.3691 52.4258C51.2124 52.4258 51.8984 53.1119 51.8984 53.9551C51.8984 54.7983 51.2124 55.4844 50.3691 55.4844Z" fill="black"/>
<path d="M49.5254 47.4688C50.8921 47.4688 52.0039 46.3569 52.0039 44.9902C52.0039 43.6236 50.8921 42.5117 49.5254 42.5117C48.1587 42.5117 47.0469 43.6236 47.0469 44.9902C47.0469 46.3569 48.1587 47.4688 49.5254 47.4688ZM49.5254 44.0938C50.0197 44.0938 50.4219 44.4959 50.4219 44.9902C50.4219 45.4846 50.0197 45.8867 49.5254 45.8867C49.0311 45.8867 48.6289 45.4846 48.6289 44.9902C48.6289 44.4959 49.0311 44.0938 49.5254 44.0938Z" fill="black"/>
<path d="M75.0461 70.4609H62.0749C62.245 70.2487 62.3971 70.0168 62.5284 69.7668C63.2518 68.3897 63.1531 66.7391 62.2709 65.4586L55.5619 55.7225C55.4081 55.4992 55.3268 55.2377 55.3268 54.9661V51.9775L58.591 51.9683C59.4687 54.4443 61.8342 56.2227 64.6074 56.2227C65.1076 56.2227 65.5945 56.1648 66.0617 56.0554L66.8424 57.282C66.3845 58.0211 66.1367 58.8809 66.1367 59.7559C66.1367 62.3439 68.2421 64.4492 70.8301 64.4492C73.4181 64.4492 75.5234 62.3439 75.5234 59.7559C75.5234 57.1679 73.4181 55.0625 70.8301 55.0625C70.7001 55.0625 70.5702 55.068 70.4408 55.0786L69.619 53.7873C70.4761 52.7008 70.9883 51.33 70.9883 49.8418C70.9883 47.0977 69.2608 44.704 66.7168 43.8189V41.2845C68.3083 40.5024 69.4062 38.8644 69.4062 36.9746C69.4062 34.3285 67.2535 32.1758 64.6074 32.1758C61.9613 32.1758 59.8086 34.3285 59.8086 36.9746C59.8086 38.8643 60.9065 40.5023 62.498 41.2845V43.8189C60.6303 44.4687 59.2027 45.9318 58.5758 47.7496L55.3267 47.7588V45.5907C55.3267 45.1538 54.9725 44.7997 54.5357 44.7997C54.0988 44.7997 53.7447 45.1538 53.7447 45.5907V54.9661C53.7447 55.5597 53.9226 56.1317 54.2591 56.6203L60.9681 66.3563C61.5241 67.1632 61.5838 68.1632 61.1279 69.0312C60.6749 69.8935 59.8248 70.4083 58.8539 70.4083H41.0406C40.2918 70.4083 39.615 70.102 39.1367 69.5664C39.1227 69.5474 39.1078 69.5288 39.0919 69.5108C39.082 69.4996 39.0719 69.4887 39.0614 69.4783C38.9505 69.3422 38.8516 69.1928 38.7667 69.0312C38.3107 68.1632 38.3705 67.1632 38.9265 66.3564L40.79 63.6521C40.7918 63.6496 40.7936 63.6469 40.7953 63.6444L45.6355 56.6203C45.972 56.1318 46.15 55.5598 46.15 54.9662V40.1017H53.7448V42.4265C53.7448 42.8634 54.0989 43.2175 54.5358 43.2175C54.9726 43.2175 55.3268 42.8634 55.3268 42.4265V40.0359C56.2898 39.7956 57.0056 38.9232 57.0056 37.8867V37.7129C57.0056 36.4916 56.012 35.498 54.7907 35.498H45.1041C43.8828 35.498 42.8893 36.4916 42.8893 37.7129V37.8868C42.8893 38.9233 43.6049 39.7957 44.568 40.036V54.966C44.568 55.2376 44.4867 55.4991 44.333 55.7224L40.9297 60.6609V48.3613C41.6202 47.9859 42.0898 47.2538 42.0898 46.4141C42.0898 45.1927 41.0963 44.1992 39.875 44.1992H30.6992C29.4779 44.1992 28.4844 45.1927 28.4844 46.4141C28.4844 47.2538 28.954 47.9859 29.6445 48.3613V60.2832C29.6445 60.7201 29.9987 61.0742 30.4355 61.0742C30.8724 61.0742 31.2266 60.7201 31.2266 60.2832V48.6289H39.3477V62.9567L38.293 64.4873V55.959C38.293 55.5221 37.9388 55.168 37.502 55.168H33.0723C32.6354 55.168 32.2812 55.5221 32.2812 55.959V66.4004C32.2812 68.0578 33.6297 69.4062 35.2871 69.4062C35.9302 69.4062 36.5266 69.2032 37.016 68.858C37.0958 69.1692 37.2123 69.4742 37.3661 69.7668C37.3821 69.7974 37.3986 69.8278 37.4153 69.8578C36.7792 70.25 36.0436 70.4609 35.2871 70.4609C33.0481 70.4609 31.2266 68.6394 31.2266 66.4004V63.4473C31.2266 63.0104 30.8724 62.6562 30.4355 62.6562C29.9987 62.6562 29.6445 63.0104 29.6445 63.4473V66.4004C29.6445 67.9932 30.3079 69.434 31.373 70.4609H24.9539C23.8766 70.4609 23 71.3375 23 72.4149V74.3078C23 75.3852 23.8766 76.2617 24.9539 76.2617H75.0461C76.1234 76.2617 77 75.3852 77 74.3078V72.4149C77 71.3375 76.1234 70.4609 75.0461 70.4609ZM68.4654 54.9212L69.3718 56.3453C69.3762 56.3526 69.3808 56.3598 69.3855 56.3668L70.6586 58.3673C70.7342 58.486 70.7591 58.6272 70.7285 58.7648C70.6979 58.9023 70.6157 59.0197 70.4968 59.0953C70.378 59.171 70.2369 59.1956 70.0993 59.1652C69.9618 59.1346 69.8444 59.0524 69.7687 58.9335L68.4701 56.8931C68.4643 56.8836 68.4584 56.8742 68.4522 56.865L67.5764 55.4888C67.8889 55.324 68.1861 55.1338 68.4654 54.9212ZM73.9414 59.7559C73.9414 61.4715 72.5457 62.8672 70.8301 62.8672C69.1144 62.8672 67.7188 61.4715 67.7188 59.7559C67.7188 59.448 67.7625 59.1481 67.8481 58.862L68.4342 59.783C68.7367 60.2583 69.2063 60.5874 69.7563 60.7096C69.9099 60.7438 70.0644 60.7606 70.2179 60.7606C70.6145 60.7606 71.0037 60.648 71.3465 60.4299C71.8218 60.1273 72.1508 59.6579 72.273 59.1079C72.3952 58.5578 72.2959 57.9932 71.9933 57.5178L71.481 56.713C72.8852 57.0131 73.9414 58.2635 73.9414 59.7559ZM61.3906 36.9746C61.3906 35.2008 62.8336 33.7578 64.6074 33.7578C66.3812 33.7578 67.8242 35.2008 67.8242 36.9746C67.8242 38.3712 66.9296 39.5627 65.6834 40.0063C65.6711 40.0103 65.6587 40.0145 65.6467 40.0192C65.3206 40.1308 64.971 40.1914 64.6075 40.1914C64.2441 40.1914 63.8945 40.1308 63.5683 40.0192C63.5562 40.0146 63.544 40.0103 63.5316 40.0063C62.2852 39.5627 61.3906 38.3712 61.3906 36.9746ZM64.6074 41.7734C64.7857 41.7734 64.9616 41.7636 65.1348 41.7445V44.3955C65.1346 44.4057 65.1346 44.416 65.1348 44.4261V45.9395C65.1348 46.2302 64.8982 46.4668 64.6074 46.4668C64.3166 46.4668 64.0801 46.2302 64.0801 45.9395V44.4261C64.0803 44.4159 64.0803 44.4057 64.0801 44.3955V41.7445C64.2533 41.7636 64.4292 41.7734 64.6074 41.7734ZM62.498 45.5293V45.9395C62.498 47.1026 63.4443 48.0488 64.6074 48.0488C65.7705 48.0488 66.7168 47.1026 66.7168 45.9395V45.5293C68.34 46.3184 69.4062 47.9719 69.4062 49.8418C69.4062 51.9361 68.0577 53.7213 66.1833 54.3747C66.1652 54.3802 66.1472 54.3863 66.1293 54.3932C65.6509 54.5536 65.1392 54.6406 64.6074 54.6406C62.3658 54.6406 60.4783 53.0957 59.9536 51.0147C59.9496 50.9954 59.945 50.9763 59.9396 50.9576C59.8539 50.5994 59.8086 50.2258 59.8086 49.8418C59.8086 49.4763 59.8493 49.1192 59.9269 48.7751C59.9376 48.7408 59.946 48.7056 59.952 48.6695C60.2941 47.2994 61.2247 46.1484 62.498 45.5293ZM58.2466 49.3325C58.2334 49.5007 58.2266 49.6705 58.2266 49.8418C58.2266 50.0255 58.2344 50.2075 58.2497 50.3872L55.3267 50.3955V49.3408L58.2466 49.3325ZM44.4712 37.7129C44.4712 37.3639 44.755 37.0801 45.104 37.0801H54.7906C55.1396 37.0801 55.4234 37.3639 55.4234 37.7129V37.8868C55.4234 38.2358 55.1396 38.5196 54.7906 38.5196H45.104C44.755 38.5196 44.4712 38.2358 44.4712 37.8868V37.7129ZM30.6992 47.0469C30.3502 47.0469 30.0664 46.7631 30.0664 46.4141C30.0664 46.0651 30.3502 45.7812 30.6992 45.7812H39.875C40.224 45.7812 40.5078 46.0651 40.5078 46.4141C40.5078 46.7631 40.224 47.0469 39.875 47.0469H30.6992ZM36.7109 66.4004C36.7109 67.1855 36.0722 67.8242 35.2871 67.8242C34.502 67.8242 33.8633 67.1855 33.8633 66.4004V56.75H36.7109V66.4004ZM75.418 74.3078C75.418 74.5128 75.2511 74.6797 75.0461 74.6797H24.9539C24.7489 74.6797 24.582 74.5128 24.582 74.3078V72.4149C24.582 72.2098 24.7489 72.043 24.9539 72.043H75.0461C75.2511 72.043 75.418 72.2098 75.418 72.4149V74.3078Z" fill="black"/>
<path d="M33.0723 39.7695C34.846 39.7695 36.2891 38.3265 36.2891 36.5527C36.2891 34.779 34.846 33.3359 33.0723 33.3359C31.2985 33.3359 29.8555 34.779 29.8555 36.5527C29.8555 38.3265 31.2985 39.7695 33.0723 39.7695ZM33.0723 34.918C33.9737 34.918 34.707 35.6513 34.707 36.5527C34.707 37.4542 33.9737 38.1875 33.0723 38.1875C32.1708 38.1875 31.4375 37.4542 31.4375 36.5527C31.4375 35.6513 32.1708 34.918 33.0723 34.918Z" fill="black"/>
<path d="M55.1152 33.2305C56.2492 33.2305 57.1719 32.3078 57.1719 31.1738C57.1719 30.0398 56.2492 29.1172 55.1152 29.1172C53.9812 29.1172 53.0586 30.0398 53.0586 31.1738C53.0586 32.3078 53.9812 33.2305 55.1152 33.2305ZM55.1152 30.6992C55.3769 30.6992 55.5898 30.9122 55.5898 31.1738C55.5898 31.4355 55.3769 31.6484 55.1152 31.6484C54.8536 31.6484 54.6406 31.4355 54.6406 31.1738C54.6406 30.9122 54.8536 30.6992 55.1152 30.6992Z" fill="black"/>
<path d="M44.3574 33.3359C47.0035 33.3359 49.1562 31.1832 49.1562 28.5371C49.1562 25.891 47.0035 23.7383 44.3574 23.7383C41.7113 23.7383 39.5586 25.891 39.5586 28.5371C39.5586 31.1832 41.7113 33.3359 44.3574 33.3359ZM44.3574 25.3203C46.1312 25.3203 47.5742 26.7633 47.5742 28.5371C47.5742 30.3109 46.1312 31.7539 44.3574 31.7539C42.5836 31.7539 41.1406 30.3109 41.1406 28.5371C41.1406 26.7633 42.5836 25.3203 44.3574 25.3203Z" fill="black"/>
<path d="M83.5545 4C83.5545 4 84.7572 11.8893 94.1091 12.4348C84.7572 12.9803 83.5545 20.8696 83.5545 20.8696C83.5545 20.8696 82.3518 12.9803 73 12.4348C82.3518 11.8893 83.5545 4 83.5545 4Z" fill="#0EBED9"/>
<path d="M15.5 81C15.5 81 16.2407 86.1443 22 86.5C16.2407 86.8557 15.5 92 15.5 92C15.5 92 14.7593 86.8557 9 86.5C14.7593 86.1443 15.5 81 15.5 81Z" fill="#0EBED9"/>
</svg>
