<svg width="100" height="100" viewBox="0 0 100 100" fill="none" xmlns="http://www.w3.org/2000/svg">
<circle cx="50" cy="50" r="50" fill="#DCF1FF"/>
<g clip-path="url(#clip0_582_3)">
<path d="M69.4577 35.7029C68.7236 35.7029 30.7549 35.7029 30.5421 35.7029C28.5151 35.7029 26.866 37.352 26.866 39.3791V66.9533C26.866 68.7462 28.1945 70.4053 29.9625 70.6886H70.0374C71.8053 70.4053 73.1339 68.7462 73.1339 66.9533C73.1339 66.0359 73.1339 40.209 73.1339 39.3791C73.1339 37.352 71.4847 35.7029 69.4577 35.7029Z" fill="#695D67"/>
<path d="M31.1637 66.9532V39.3789C31.1637 37.352 32.8128 35.7028 34.8397 35.7028C32.2388 35.7028 30.5859 35.7028 30.5419 35.7028C28.5149 35.7028 26.8658 37.3519 26.8658 39.3789V66.9532C26.8658 68.7461 28.1944 70.4052 29.9624 70.6885H34.2602C32.4922 70.4052 31.1637 68.746 31.1637 66.9532Z" fill="#544E55"/>
<path d="M75.595 70.5828H24.4047C24.0658 70.5828 23.791 70.8603 23.791 71.2026V73.3344C23.791 74.9162 25.0727 76.2104 26.6392 76.2104H73.3606C74.9271 76.2104 76.2088 74.9162 76.2088 73.3344V71.2026C76.2087 70.8603 75.9339 70.5828 75.595 70.5828Z" fill="#DFEBFA"/>
<path d="M75.595 70.5828H24.4047C24.0658 70.5828 23.791 70.8603 23.791 71.2026V73.3344C23.791 74.9162 25.0727 76.2104 26.6392 76.2104H73.3606C74.9271 76.2104 76.2088 74.9162 76.2088 73.3344V71.2026C76.2087 70.8603 75.9339 70.5828 75.595 70.5828Z" fill="#DFEBFA"/>
<path d="M32.647 73.3344V71.2026C32.647 70.8603 32.9218 70.5828 33.2607 70.5828H24.4047C24.0658 70.5828 23.791 70.8603 23.791 71.2026V73.3344C23.791 74.9162 25.0727 76.2104 26.6392 76.2104H35.4953C33.9288 76.2105 32.647 74.9162 32.647 73.3344Z" fill="#B1DBFC"/>
<path d="M42.3541 70.5828V72.0131C42.3541 72.716 42.9237 73.2911 43.6198 73.2911H56.3798C57.076 73.2911 57.6455 72.716 57.6455 72.0131V70.5828" fill="#B1DBFC"/>
<path d="M49.2623 72.0131V70.5828H42.3541V72.0131C42.3541 72.716 42.9237 73.2912 43.6199 73.2912H50.5281C49.832 73.2912 49.2623 72.716 49.2623 72.0131Z" fill="#8BCAFF"/>
<path d="M69.1719 38.9804C67.711 38.9804 32.3758 38.9804 30.8278 38.9804C30.4635 38.9804 30.1683 39.2757 30.1683 39.64V66.6506C30.1683 67.0148 30.4636 67.3101 30.8278 67.3101H69.1719C69.536 67.3101 69.8313 67.0148 69.8313 66.6506C69.8313 65.312 69.8313 40.708 69.8313 39.64C69.8313 39.2757 69.536 38.9804 69.1719 38.9804Z" fill="#8BCAFF"/>
<path d="M34.4662 66.6506C34.4662 65.8007 34.4662 41.3545 34.4662 39.64C34.4662 39.2757 34.7615 38.9804 35.1256 38.9804C32.7342 38.9804 31.1314 38.9804 30.8278 38.9804C30.4635 38.9804 30.1683 39.2757 30.1683 39.64V66.6506C30.1683 67.0148 30.4636 67.3101 30.8278 67.3101H35.1256C34.7615 67.3101 34.4662 67.0148 34.4662 66.6506Z" fill="#5CB3F8"/>
<path d="M63.0109 23.7926H41.7451L35.6046 29.9331V61.6256C35.6046 62.377 36.2137 62.9861 36.965 62.9861H63.0349C63.7863 62.9861 64.3954 62.377 64.3954 61.6256V25.1771C64.3954 24.4124 63.7755 23.7926 63.0109 23.7926Z" fill="#8479C2"/>
<path d="M38.1886 61.5183V27.3492L35.6046 29.9331V61.6257C35.6046 62.377 36.2137 62.9861 36.965 62.9861H39.1991C38.6086 62.7595 38.1886 62.1887 38.1886 61.5183Z" fill="#6E60B8"/>
<path d="M35.6046 29.9331H40.3606C41.1253 29.9331 41.7451 29.3133 41.7451 28.5486V23.7926L35.6046 29.9331Z" fill="#6E60B8"/>
<path d="M41.7451 23.7926L35.6046 29.9331H38.163L41.7451 26.351V23.7926Z" fill="#6353B2"/>
<path d="M40.1138 43.8113H41.4049C41.8419 43.8113 42.1959 43.4573 42.1959 43.0203C42.1959 42.5833 41.8419 42.2293 41.4049 42.2293H40.1138C39.6768 42.2293 39.3228 42.5833 39.3228 43.0203C39.3228 43.4573 39.6768 43.8113 40.1138 43.8113Z" fill="black"/>
<path d="M43.5566 43.0203C43.5566 43.4572 43.9107 43.8113 44.3477 43.8113H59.8863C60.3232 43.8113 60.6773 43.4572 60.6773 43.0203C60.6773 42.5833 60.3232 42.2293 59.8863 42.2293H44.3477C43.9108 42.2293 43.5566 42.5834 43.5566 43.0203Z" fill="black"/>
<path d="M40.1138 47.2299H41.4049C41.8419 47.2299 42.1959 46.8758 42.1959 46.4388C42.1959 46.0019 41.8419 45.6478 41.4049 45.6478H40.1138C39.6768 45.6478 39.3228 46.0019 39.3228 46.4388C39.3228 46.8758 39.6768 47.2299 40.1138 47.2299Z" fill="black"/>
<path d="M59.8863 45.6478H44.3477C43.9107 45.6478 43.5566 46.0019 43.5566 46.4388C43.5566 46.8758 43.9107 47.2299 44.3477 47.2299H59.8863C60.3232 47.2299 60.6773 46.8758 60.6773 46.4388C60.6773 46.0019 60.3232 45.6478 59.8863 45.6478Z" fill="black"/>
<path d="M40.1138 50.6485H41.4049C41.8419 50.6485 42.1959 50.2945 42.1959 49.8575C42.1959 49.4206 41.8419 49.0665 41.4049 49.0665H40.1138C39.6768 49.0665 39.3228 49.4206 39.3228 49.8575C39.3228 50.2945 39.6768 50.6485 40.1138 50.6485Z" fill="black"/>
<path d="M59.8863 49.0665H44.3477C43.9107 49.0665 43.5566 49.4206 43.5566 49.8575C43.5566 50.2945 43.9107 50.6485 44.3477 50.6485H59.8863C60.3232 50.6485 60.6773 50.2945 60.6773 49.8575C60.6773 49.4206 60.3232 49.0665 59.8863 49.0665Z" fill="black"/>
<path d="M40.1138 54.0671H41.4049C41.8419 54.0671 42.1959 53.713 42.1959 53.2761C42.1959 52.8391 41.8419 52.485 41.4049 52.485H40.1138C39.6768 52.485 39.3228 52.8391 39.3228 53.2761C39.3228 53.713 39.6768 54.0671 40.1138 54.0671Z" fill="black"/>
<path d="M59.8863 52.485H44.3477C43.9107 52.485 43.5566 52.8391 43.5566 53.2761C43.5566 53.713 43.9107 54.0671 44.3477 54.0671H59.8863C60.3232 54.0671 60.6773 53.713 60.6773 53.2761C60.6773 52.8391 60.3232 52.485 59.8863 52.485Z" fill="black"/>
<path d="M40.1138 57.4857H41.4049C41.8419 57.4857 42.1959 57.1316 42.1959 56.6947C42.1959 56.2577 41.8419 55.9037 41.4049 55.9037H40.1138C39.6768 55.9037 39.3228 56.2577 39.3228 56.6947C39.3228 57.1316 39.6768 57.4857 40.1138 57.4857Z" fill="black"/>
<path d="M59.8863 55.9037H44.3477C43.9107 55.9037 43.5566 56.2577 43.5566 56.6947C43.5566 57.1316 43.9107 57.4857 44.3477 57.4857H59.8863C60.3232 57.4857 60.6773 57.1316 60.6773 56.6947C60.6773 56.2577 60.3232 55.9037 59.8863 55.9037Z" fill="black"/>
<path d="M53.2089 39.3371C53.4828 39.6771 53.9806 39.7309 54.3211 39.4569L57.6385 36.785C57.8249 36.6348 57.9332 36.4083 57.9332 36.1689C57.9332 35.9295 57.8249 35.7031 57.6385 35.5529L54.3211 32.8809C53.9807 32.6066 53.4828 32.6606 53.2089 33.0007C52.9348 33.3411 52.9884 33.8389 53.3287 34.113L55.8812 36.1689L53.3287 38.2248C52.9884 38.4989 52.9348 38.9968 53.2089 39.3371Z" fill="black"/>
<path d="M43.8071 36.7848L47.1243 39.4568C47.4651 39.7311 47.9628 39.6768 48.2366 39.337C48.5107 38.9966 48.457 38.4988 48.1168 38.2247L45.5643 36.1688L48.1168 34.1129C48.457 33.8388 48.5106 33.341 48.2366 33.0006C47.9626 32.6605 47.4648 32.6067 47.1243 32.8808L43.8071 35.5527C43.6206 35.7029 43.5123 35.9294 43.5123 36.1688C43.5123 36.4082 43.6208 36.6346 43.8071 36.7848Z" fill="black"/>
<path d="M49.6112 39.5932C50.0255 39.7278 50.4726 39.5017 50.6078 39.0851L52.3424 33.7412C52.4772 33.3258 52.2498 32.8795 51.8343 32.7446C51.4186 32.6097 50.9726 32.8371 50.8377 33.2528L49.103 38.5967C48.9682 39.0121 49.1956 39.4583 49.6112 39.5932Z" fill="black"/>
<path d="M26.6401 77H48.1552C48.5921 77 48.9462 76.6459 48.9462 76.209C48.9462 75.772 48.5921 75.418 48.1552 75.418H26.6401C25.5058 75.418 24.583 74.4827 24.583 73.3329V71.3723H41.5642V72.0116C41.5642 73.1524 42.4868 74.0806 43.6209 74.0806H56.3807C57.5148 74.0806 58.4375 73.1524 58.4375 72.0116V71.3723H75.4187V73.3329C75.4187 74.4826 74.4959 75.418 73.3615 75.418H51.8466C51.4096 75.418 51.0555 75.772 51.0555 76.209C51.0555 76.6459 51.4096 77 51.8466 77H73.3615C75.3681 77 77.0008 75.3549 77.0008 73.3329V71.2011C77.0008 70.4231 76.3705 69.7903 75.5959 69.7903H72.8913C73.5379 69.0093 73.9258 68.0136 73.9258 66.9515V39.3773C73.9258 36.9142 71.9219 34.9102 69.4588 34.9102H65.1873V25.1755C65.1872 23.9759 64.2113 23 63.0117 23H41.7459C41.5273 23 41.3262 23.0921 41.1865 23.2316L35.0459 29.3721C34.9073 29.5109 34.8143 29.7122 34.8143 29.9315V34.9102H30.5429C28.0798 34.9102 26.0758 36.9142 26.0758 39.3773V66.9515C26.0758 68.0136 26.4636 69.0093 27.1103 69.7903H24.4057C23.631 69.7903 23.001 70.4231 23.001 71.2011V73.3329C23.001 75.3549 24.6334 77 26.6401 77ZM56.8554 72.0116C56.8554 72.2756 56.638 72.4986 56.3807 72.4986H43.6209C43.3637 72.4986 43.1462 72.2756 43.1462 72.0116V71.3723H56.8554V72.0116ZM40.9549 25.7006V28.5469C40.9549 28.8741 40.6887 29.1403 40.3613 29.1403H37.515C38.0142 28.6413 40.4563 26.1993 40.9549 25.7006ZM36.3965 30.7225H40.3614C41.561 30.7225 42.537 29.7466 42.537 28.547V24.582H63.0118C63.3391 24.582 63.6053 24.8482 63.6053 25.1755V61.6241C63.6053 61.9381 63.3498 62.1935 63.036 62.1935H36.9659C36.6518 62.1935 36.3965 61.938 36.3965 61.6241C36.3965 60.4756 36.3965 31.9469 36.3965 30.7225ZM27.6578 39.3773C27.6578 37.7864 28.952 36.4922 30.5429 36.4922H34.8143V38.188H30.8289C30.029 38.188 29.3783 38.8387 29.3783 39.6386V66.6492C29.3783 67.449 30.029 68.0998 30.8289 68.0998H69.1729C69.9727 68.0998 70.6234 67.449 70.6234 66.6492V55.3346C70.6234 54.8976 70.2694 54.5436 69.8324 54.5436C69.3955 54.5436 69.0414 54.8976 69.0414 55.3346V66.5178H30.9603V39.77H34.8144V61.6241C34.8144 62.8105 35.7796 63.7755 36.9659 63.7755H63.0359C64.2222 63.7755 65.1872 62.8105 65.1872 61.6241V39.77H69.0413V51.6431C69.0413 52.08 69.3954 52.4341 69.8323 52.4341C70.2693 52.4341 70.6233 52.08 70.6233 51.6431V39.6386C70.6233 38.8387 69.9726 38.188 69.1728 38.188H65.1872V36.4922H69.4586C71.0495 36.4922 72.3437 37.7864 72.3437 39.3773V66.9515C72.3437 68.3338 71.328 69.5437 69.9713 69.7903H30.0302C28.6736 69.5437 27.6578 68.3338 27.6578 66.9515V39.3773Z" fill="black"/>
</g>
<path d="M83.5545 4C83.5545 4 84.7572 11.8893 94.1091 12.4348C84.7572 12.9803 83.5545 20.8696 83.5545 20.8696C83.5545 20.8696 82.3518 12.9803 73 12.4348C82.3518 11.8893 83.5545 4 83.5545 4Z" fill="#0EBED9"/>
<path d="M15.5 81C15.5 81 16.2407 86.1443 22 86.5C16.2407 86.8557 15.5 92 15.5 92C15.5 92 14.7593 86.8557 9 86.5C14.7593 86.1443 15.5 81 15.5 81Z" fill="#0EBED9"/>
<defs>
<clipPath id="clip0_582_3">
<rect width="54" height="54" fill="white" transform="translate(23 23)"/>
</clipPath>
</defs>
</svg>
