<svg width="100" height="100" viewBox="0 0 100 100" fill="none" xmlns="http://www.w3.org/2000/svg">
<circle cx="50" cy="50" r="50" fill="#DCF1FF"/>
<g clip-path="url(#clip0_582_4)">
<path d="M66.8223 27.7988H33.1777C32.77 27.7988 32.4395 27.4683 32.4395 27.0605V24.5293C32.4395 24.1216 32.77 23.791 33.1777 23.791H66.8223C67.23 23.791 67.5605 24.1216 67.5605 24.5293V27.0605C67.5605 27.4683 67.23 27.7988 66.8223 27.7988Z" fill="#8B818E"/>
<path d="M66.8223 23.791H63.6582C64.0659 23.791 64.3965 24.1216 64.3965 24.5293V27.0605C64.3965 27.4683 64.0659 27.7988 63.6582 27.7988H66.8223C67.23 27.7988 67.5605 27.4683 67.5605 27.0605V24.5293C67.5605 24.1216 67.23 23.791 66.8223 23.791Z" fill="#756E78"/>
<path d="M66.8223 76.209H33.1777C32.77 76.209 32.4395 75.8784 32.4395 75.4707V72.9395C32.4395 72.5317 32.77 72.2012 33.1777 72.2012H66.8223C67.23 72.2012 67.5605 72.5317 67.5605 72.9395V75.4707C67.5605 75.8784 67.23 76.209 66.8223 76.209Z" fill="#8B818E"/>
<path d="M66.8223 72.2012H63.6582C64.0659 72.2012 64.3965 72.5317 64.3965 72.9395V75.4707C64.3965 75.8784 64.0659 76.209 63.6582 76.209H66.8223C67.23 76.209 67.5605 75.8784 67.5605 75.4707V72.9395C67.5605 72.5317 67.23 72.2012 66.8223 72.2012Z" fill="#756E78"/>
<path d="M35.6688 35.6687V27.7988H64.3314V35.6687C64.3314 43.5837 57.9151 50 50.0001 50C42.0851 50 35.6688 43.5837 35.6688 35.6687Z" fill="#ECF5FF"/>
<path d="M61.1672 27.7988V35.6687C61.1672 43.0489 55.5884 49.1251 48.418 49.9127C48.9376 49.9697 49.4652 50 50 50C57.915 50 64.3313 43.5837 64.3313 35.6687V27.7988H61.1672Z" fill="#DCEAFC"/>
<path d="M64.3314 64.3313V72.2012H35.6688V64.3313C35.6688 56.4164 42.0851 50 50.0001 50C57.9151 50 64.3314 56.4164 64.3314 64.3313Z" fill="#ECF5FF"/>
<path d="M50 50C49.4652 50 48.9376 50.0303 48.418 50.0873C55.5884 50.8749 61.1672 56.9511 61.1672 64.3313V72.2012H64.3313V64.3313C64.3313 56.4163 57.915 50 50 50Z" fill="#DCEAFC"/>
<path d="M35.6688 72.2011L48.2271 63.7047C49.298 62.9801 50.7021 62.9801 51.7732 63.7047L64.3314 72.2011H35.6688Z" fill="#F3D9A6"/>
<path d="M50.4371 46.6981C54.7342 46.4615 58.0258 42.7862 57.7893 38.4891C57.5527 34.1921 53.8774 30.9004 49.5804 31.1369C45.2833 31.3735 41.9916 35.0488 42.2282 39.3459C42.4647 43.6429 46.14 46.9346 50.4371 46.6981Z" fill="#9DC6FB"/>
<path d="M50 31.1111C49.4579 31.1111 48.9289 31.1667 48.418 31.2721C51.9608 32.0031 54.6243 35.1401 54.6243 38.8994C54.6243 42.6587 51.9608 45.7956 48.418 46.5267C48.9289 46.6321 49.4579 46.6877 50 46.6877C54.3013 46.6877 57.7883 43.2007 57.7883 38.8994C57.7883 34.5981 54.3013 31.1111 50 31.1111Z" fill="#80B4FB"/>
<path d="M57.6744 37.5781C57.0465 33.9064 53.8507 31.1111 49.9999 31.1111C49.438 31.1111 48.8905 31.1719 48.3624 31.285C48.5178 31.9105 48.6763 32.6452 48.8191 33.512C49.0525 34.9297 49.1504 36.1318 49.8259 36.3493C50.4838 36.5612 51.0186 35.623 51.931 35.8001C52.6966 35.9487 52.8038 36.703 53.4869 37.2644C54.4134 38.0262 56.1564 38.2333 57.6744 37.5781Z" fill="#B3E59F"/>
<path d="M57.6745 37.5781C56.9483 33.4373 52.9839 30.3674 48.4238 31.2735C51.6125 31.9341 54.0867 34.5439 54.5465 37.8013C55.4671 38.0715 56.6244 38.0313 57.6745 37.5781Z" fill="#95D6A4"/>
<path d="M45.4457 36.3136C45.2014 35.5254 44.5315 34.7917 43.7144 34.3022C42.7702 35.5909 42.2117 37.1796 42.2117 38.8995C42.2117 40.9722 43.0229 42.8544 44.3432 44.2499C45.3202 43.6004 46.0204 42.5548 46.0867 41.6171C46.1308 40.9935 45.8581 40.9344 45.6205 39.6939C45.2647 37.8364 45.7423 37.2712 45.4457 36.3136Z" fill="#B3E59F"/>
<path d="M47.3582 46.2275C48.1831 46.5249 49.0724 46.6878 50 46.6878C52.3007 46.6878 54.3677 45.6897 55.7934 44.1034C55.2728 43.3315 54.4876 42.6144 54.0436 42.2093C53.4282 41.6478 51.9611 40.3093 51.0563 40.7429C50.3489 41.082 50.6944 42.1645 50.0786 43.5672C49.4378 45.0272 48.2307 45.7525 47.3582 46.2275Z" fill="#B3E59F"/>
<path d="M50.5484 46.6664C52.3438 46.5698 54.4024 45.674 55.7933 44.1034C55.2747 43.3437 54.4542 42.5757 53.9329 42.1085C52.9205 44.3436 50.8845 46.016 48.4221 46.5257C48.6094 46.5632 49.5344 46.7518 50.5484 46.6664Z" fill="#95D6A4"/>
<path d="M50 56.4313C49.5631 56.4313 49.209 56.7854 49.209 57.2223V59.1678C49.209 59.6046 49.5631 59.9588 50 59.9588C50.4369 59.9588 50.791 59.6046 50.791 59.1678V57.2223C50.791 56.7853 50.4369 56.4313 50 56.4313ZM45.1309 68.7024C44.6941 68.7024 44.3399 69.0565 44.3399 69.4934C44.3399 69.9302 44.6941 70.2844 45.1309 70.2844C45.5678 70.2844 45.9219 69.9302 45.9219 69.4934C45.9219 69.0565 45.5678 68.7024 45.1309 68.7024ZM48.1038 66.412C47.6669 66.412 47.3128 66.7662 47.3128 67.203C47.3128 67.6399 47.6669 67.994 48.1038 67.994C48.5406 67.994 48.8948 67.6399 48.8948 67.203C48.8948 66.7662 48.5406 66.412 48.1038 66.412ZM54.8074 55.1375C56.551 56.0532 57.9953 57.4386 58.9841 59.144C59.2055 59.5258 59.6928 59.6475 60.0652 59.4316C60.4431 59.2125 60.5719 58.7285 60.3528 58.3506C59.2143 56.3868 57.551 54.7913 55.543 53.7369C55.1559 53.5336 54.678 53.6825 54.4749 54.0694C54.2716 54.4562 54.4205 54.9344 54.8074 55.1375ZM65.1223 35.6687V28.5898H66.8223C67.6655 28.5898 68.3516 27.9038 68.3516 27.0605V24.5293C68.3516 23.6861 67.6655 23 66.8223 23H33.1777C32.3345 23 31.6484 23.6861 31.6484 24.5293V27.0605C31.6484 27.9038 32.3345 28.5898 33.1777 28.5898H34.8777V35.6687C34.8777 42.3189 39.1927 47.9802 45.17 50C39.1927 52.0198 34.8777 57.6811 34.8777 64.3313V71.4102H33.1777C32.3345 71.4102 31.6484 72.0962 31.6484 72.9395V75.4707C31.6484 76.3139 32.3345 77 33.1777 77H66.8223C67.6655 77 68.3516 76.3139 68.3516 75.4707V72.9395C68.3516 72.0962 67.6655 71.4102 66.8223 71.4102H65.1223V64.3313C65.1223 57.6811 60.8073 52.0198 54.83 50C60.8073 47.9802 65.1223 42.3189 65.1223 35.6687ZM66.7695 72.9922V75.418H33.2305V72.9922H66.7695ZM63.5403 64.3313V70.711L59.1915 67.7688C58.8296 67.5241 58.3379 67.619 58.093 67.9807C57.8482 68.3426 57.9432 68.8343 58.3049 69.0792L61.7506 71.4102H38.2494L48.6701 64.3599C49.4779 63.8134 50.522 63.8134 51.3298 64.3599L55.7059 67.3206C56.0676 67.5655 56.5595 67.4706 56.8043 67.1087C57.0491 66.7469 56.9542 66.2552 56.5924 66.0103L52.2163 63.0495C50.8699 62.1386 49.1301 62.1387 47.7838 63.0495L36.4597 70.7109V64.3312C36.4597 57.1306 42.1097 51.2257 49.209 50.8146V54.2591C49.209 54.696 49.5631 55.0502 50 55.0502C50.4369 55.0502 50.791 54.696 50.791 54.2591V50.8146C57.8903 51.2258 63.5403 57.1307 63.5403 64.3313ZM50 49.209C42.5339 49.209 36.4597 43.1348 36.4597 35.6687V28.5898H40.1023C40.5391 28.5898 40.8933 28.2357 40.8933 27.7988C40.8933 27.362 40.5391 27.0078 40.1023 27.0078H33.2305V24.582H66.7695V27.0078H43.8059C43.3691 27.0078 43.0149 27.362 43.0149 27.7988C43.0149 28.2357 43.3691 28.5898 43.8059 28.5898H63.5404V35.6687C63.5403 43.1348 57.4661 49.209 50 49.209ZM50 30.3201C45.3763 30.3201 41.4206 34.2957 41.4206 38.8994C41.4206 43.5799 45.4023 47.4788 50 47.4788C54.6834 47.4788 58.5794 43.5937 58.5794 38.8994C58.5794 34.2312 54.7802 30.3201 50 30.3201ZM50 31.9021C53.2208 31.9021 55.9387 34.0901 56.7496 37.0574C55.6188 37.3429 54.5311 37.0989 53.9893 36.6535C53.7998 36.4978 53.661 36.3034 53.5141 36.0976C53.2201 35.686 52.8542 35.1736 52.0817 35.0236C51.3202 34.876 50.7372 35.2051 50.3516 35.423C50.266 35.4714 50.1466 35.5389 50.0689 35.5717C49.9036 35.3233 49.7712 34.4745 49.6817 33.8996C49.5801 33.2476 49.4602 32.5657 49.3238 31.9353C49.5464 31.9139 49.7719 31.9021 50 31.9021ZM45.2977 41.5611C45.2616 42.0712 44.9323 42.6664 44.446 43.1487C43.5417 41.9697 43.0027 40.4966 43.0027 38.8994C43.0027 37.6399 43.3389 36.4581 43.9237 35.4361C44.299 35.7762 44.5717 36.1659 44.6901 36.5478C44.7824 36.8456 44.7629 37.09 44.7309 37.4948C44.6892 38.02 44.6323 38.7394 44.8435 39.8425C44.9689 40.4971 45.1048 40.8603 45.2039 41.1255C45.2927 41.3625 45.3086 41.4052 45.2977 41.5611ZM50 45.8967C49.7716 45.8967 49.5459 45.8849 49.3229 45.8634C49.8747 45.3852 50.4249 44.7463 50.8029 43.8851C51.1149 43.1747 51.2137 42.5315 51.286 42.0619C51.3194 41.844 51.3647 41.5505 51.4141 41.4504C51.5103 41.4237 51.9889 41.4055 53.5104 42.7936C53.8149 43.0714 54.3166 43.5293 54.7461 44.035C53.498 45.1895 51.8303 45.8967 50 45.8967ZM55.7894 42.8249C55.3415 42.3232 54.8749 41.8969 54.5768 41.6249C53.7729 40.8915 52.1003 39.3656 50.7146 40.0294C49.9409 40.4001 49.8248 41.1553 49.7223 41.8214C49.6569 42.2468 49.5828 42.7289 49.3543 43.2492C48.909 44.2636 48.1231 44.8731 47.298 45.3535C46.6592 45.0851 46.0683 44.7247 45.5422 44.2887C46.3104 43.5341 46.8119 42.5757 46.8757 41.6726C46.9109 41.1733 46.7965 40.8673 46.6858 40.5712C46.6019 40.3471 46.4976 40.068 46.3974 39.5449C46.2262 38.6515 46.2697 38.1033 46.308 37.6197C46.3451 37.1516 46.3834 36.6675 46.2012 36.0794C45.9845 35.38 45.5116 34.7077 44.8625 34.1551C45.6518 33.301 46.6508 32.6446 47.7768 32.2662C47.9071 32.8678 48.0214 33.5206 48.1184 34.1431C48.3374 35.5483 48.5265 36.7617 49.5834 37.1021C50.228 37.3097 50.7494 37.0152 51.13 36.8001C51.4503 36.6191 51.6088 36.5432 51.7803 36.5766C51.9106 36.6018 51.9773 36.6677 52.2267 37.0169C52.4081 37.271 52.6339 37.5871 52.9847 37.8754C53.6972 38.4612 54.6991 38.7642 55.7548 38.7642C56.1632 38.7642 56.5796 38.7172 56.9905 38.6253C57.0492 40.1513 56.6001 41.6384 55.7894 42.8249Z" fill="black"/>
</g>
<path d="M83.5545 4C83.5545 4 84.7572 11.8893 94.1091 12.4348C84.7572 12.9803 83.5545 20.8696 83.5545 20.8696C83.5545 20.8696 82.3518 12.9803 73 12.4348C82.3518 11.8893 83.5545 4 83.5545 4Z" fill="#0EBED9"/>
<path d="M15.5 81C15.5 81 16.2407 86.1443 22 86.5C16.2407 86.8557 15.5 92 15.5 92C15.5 92 14.7593 86.8557 9 86.5C14.7593 86.1443 15.5 81 15.5 81Z" fill="#0EBED9"/>
<defs>
<clipPath id="clip0_582_4">
<rect width="54" height="54" fill="white" transform="translate(23 23)"/>
</clipPath>
</defs>
</svg>
