<svg width="100" height="100" viewBox="0 0 100 100" fill="none" xmlns="http://www.w3.org/2000/svg">
<circle cx="50" cy="50" r="50" fill="#DCF1FF"/>
<g clip-path="url(#clip0_582_5)">
<path d="M73.2559 68.807V62.1638H71.6524V62.8146H68.047V62.1638H35.9334V62.8146H31.1875V62.1638H25.0566C24.3577 62.1638 23.791 62.7305 23.791 63.4294V70.0726H71.9902C72.6892 70.0726 73.2559 69.5059 73.2559 68.807Z" fill="#AE6C6C"/>
<path d="M74.9434 62.1638H73.2559V68.807C73.2559 69.5059 72.6892 70.0726 71.9902 70.0726H23.791V70.7054C23.791 71.4044 24.3577 71.971 25.0566 71.971H31.1875V71.5157H35.9334V71.971H68.0471V71.5157H71.6525V71.971H74.9434C75.6423 71.971 76.209 71.4044 76.209 70.7054V63.4294C76.209 62.7304 75.6423 62.1638 74.9434 62.1638Z" fill="#9B5E5E"/>
<path d="M36.832 46.4254C36.8392 46.4621 36.8473 46.4986 36.8569 46.5344C36.8473 46.4986 36.8391 46.4622 36.832 46.4254Z" fill="#7BACDF"/>
<path d="M71.5408 38.3455C71.5417 38.3466 71.5426 38.3476 71.5435 38.3487C71.5692 38.3581 71.5953 38.3666 71.6208 38.3764C71.5941 38.3662 71.5677 38.3553 71.5408 38.3455Z" fill="#7BACDF"/>
<path d="M64.3782 32.1425C35.8313 32.1425 37.7625 32.1385 37.5832 32.1486C37.4585 32.4219 37.3873 32.7244 37.3873 33.0437C37.3873 34.2386 38.3593 35.2106 39.5542 35.2106H65.0111V32.7753C65.011 32.4258 64.7277 32.1425 64.3782 32.1425Z" fill="#F2FBFF"/>
<path d="M68.5939 53.0583H33.582V59.1051H69.5431V54.0076C69.5431 53.4834 69.1181 53.0583 68.5939 53.0583Z" fill="#F2FBFF"/>
<path d="M31.1876 62.1638H35.9335V71.971H31.1876V62.1638Z" fill="#F2FBFF"/>
<path d="M31.1876 70.0726H35.9335V71.971H31.1876V70.0726Z" fill="#DFF6FD"/>
<path d="M71.6525 71.971H68.047V62.1638H71.6525V71.971Z" fill="#FFF0AD"/>
<path d="M68.0469 70.0726H71.6523V71.971H68.0469V70.0726Z" fill="#FFE177"/>
<path d="M39.5541 30.877C38.6787 30.877 37.9247 31.3998 37.5831 32.1487C37.625 32.1464 37.6666 32.1426 37.7088 32.1426H63.7453C64.0948 32.1426 64.3781 32.4259 64.3781 32.7754V35.2107H66.2765V30.877H39.5541Z" fill="#DFF6FD"/>
<path d="M67.7004 28.0293H39.5541C36.7847 28.0293 34.5396 30.2743 34.5396 33.0438C34.5396 34.2768 34.9854 35.4052 35.7236 36.2785C35.8575 36.3275 35.994 36.3707 36.1328 36.4083C36.2716 36.4458 38.8938 37.0274 38.8946 37.0276H67.0121V35.2107C65.1885 35.2107 40.5711 35.2107 39.6072 35.2107C38.4338 35.2107 37.4331 34.2999 37.3888 33.1273C37.3422 31.8946 38.3315 30.877 39.5541 30.877H67.7004C68.4868 30.877 69.1242 30.2395 69.1242 29.4531C69.1242 28.6667 68.4868 28.0293 67.7004 28.0293Z" fill="#FDB97E"/>
<path d="M67.7004 35.2104H67.0122C66.9843 35.9721 66.3596 36.5815 65.591 36.5815C34.9437 36.5815 36.8923 36.7054 35.7236 36.2783C36.6434 37.3664 38.0177 38.0581 39.554 38.0581H67.7004C68.4868 38.0581 69.1242 37.4206 69.1242 36.6343C69.1242 35.848 68.4868 35.2104 67.7004 35.2104Z" fill="#FEA95C"/>
<path d="M68.0021 41.9881H39.8893V44.5938H69.6629C69.7267 44.3636 69.7403 44.1351 69.713 43.9174C69.8389 42.902 69.0399 41.9881 68.0021 41.9881Z" fill="#F2FBFF"/>
<path d="M69.9005 41.1441H39.8893V42.4097H68.0021C69.1261 42.4097 69.9708 43.4815 69.6629 44.5936H69.9005C70.8515 44.5936 71.6253 43.8198 71.6253 42.8688C71.6253 41.9177 70.8515 41.1441 69.9005 41.1441Z" fill="#DFF6FD"/>
<path d="M73.1817 47.6796H32.6389C28.6588 47.6796 25.3411 50.8457 25.2896 54.8256C25.2657 56.664 25.9286 58.3461 27.0358 59.6357C27.832 60.0576 27.8674 60.0204 31.1876 60.9689H72.5936V59.1053C70.7734 59.1053 34.6682 59.1053 32.6095 59.1053C30.325 59.1053 28.4027 57.3064 28.3488 55.0226C28.2932 52.6699 30.1908 50.7383 32.531 50.7383H73.1818C74.0264 50.7383 74.7111 50.0536 74.7111 49.209C74.7111 48.3644 74.0264 47.6796 73.1817 47.6796Z" fill="#F07281"/>
<path d="M73.1816 59.1052H72.5933C72.5141 59.8755 71.8633 60.4763 71.0722 60.4763H30.4215C29.198 60.4763 28.0462 60.1714 27.0356 59.6357C28.3638 61.1826 30.3322 62.1638 32.5309 62.1638H73.1816C74.0262 62.1638 74.7109 61.4791 74.7109 60.6345C74.7109 59.7899 74.0263 59.1052 73.1816 59.1052Z" fill="#EB5569"/>
<path d="M72.5 39.1192L71.5407 38.3455L71.541 38.3478C71.0288 38.1618 70.4769 38.0582 69.9004 38.0582H38.3462C37.494 38.0582 36.8032 38.749 36.8032 39.6012C36.8032 40.4534 37.494 41.1442 38.3462 41.1442H69.8547C70.7905 41.1442 71.5904 41.8705 71.6241 42.8057C71.6593 43.7854 70.8725 44.5937 69.9005 44.5937C68.4584 44.5937 38.6518 44.5937 38.3462 44.5937C37.3819 44.5937 36.6527 45.4706 36.8301 46.414H36.8295C36.832 46.4278 36.8333 46.4308 36.8302 46.4143L38.051 46.9943H67.7827C71.131 46.9943 73.5978 43.9548 73.0671 41.6173L72.5 39.1192Z" fill="#7BACDF"/>
<path d="M71.5408 38.3455C72.3301 39.2025 72.8127 40.3464 72.8127 41.6032C72.8127 44.2601 70.6589 46.4139 68.002 46.4139H36.8295C36.9602 47.1335 37.5888 47.6795 38.3462 47.6795H69.9005C72.5573 47.6795 74.7111 45.5257 74.7111 42.8689C74.711 40.7882 73.3899 39.0163 71.5408 38.3455Z" fill="#5F99D7"/>
<path d="M34.2148 50.7382L33.8633 51.0373V52.6369L34.2499 53.0235L34.2171 53.0585H68.5938C69.1181 53.0585 69.543 53.4835 69.543 54.0078V59.1053H71.6524V50.7382H34.2148Z" fill="#DFF6FD"/>
<path d="M33.9686 52.7774H29.2225L28.5953 53.5037C28.4377 53.956 28.3474 54.4014 28.3474 54.9217C28.3474 57.2285 30.2241 59.1052 32.5309 59.1052H34.2147V53.0585L33.9686 52.7774Z" fill="#8D9CA8"/>
<path d="M29.8587 51.7057C29.2723 52.1938 28.8388 52.8298 28.5952 53.5038C29.1717 53.2193 29.8195 53.0587 30.5 53.0587H34.2146V50.7383H32.5308C31.5261 50.7382 30.5867 51.0999 29.8587 51.7057Z" fill="#7A8C98"/>
<path d="M38.051 54.6214V63.7663L39.3312 64.7988C39.4863 64.924 39.7385 64.8287 39.7385 64.6446C39.7385 62.6132 39.7385 56.1849 39.7385 54.6215H38.051V54.6214Z" fill="#FFD15B"/>
<path d="M38.0511 63.7663C38.0511 61.1763 38.0511 56.0022 38.0511 54.6214H34.215V64.6441C34.215 64.8282 34.4671 64.924 34.6223 64.7988L36.8119 63.0327C36.9049 62.9577 37.0487 62.9577 37.1416 63.0327L38.0511 63.7663Z" fill="#FFE177"/>
<path d="M75.366 61.4169C75.4538 61.1723 75.502 60.9089 75.502 60.6345C75.502 59.3551 74.4612 58.3142 73.1817 58.3142H72.4434V51.5292H73.1817C74.4612 51.5292 75.502 50.4883 75.502 49.2089C75.502 48.1174 74.7443 47.2001 73.7274 46.9539C74.8185 45.9312 75.502 44.4787 75.502 42.8688C75.502 39.7801 72.9891 37.2672 69.9004 37.2672H69.8221C69.8821 37.0665 69.9155 36.8543 69.9155 36.6344C69.9155 35.413 68.9219 34.4195 67.7006 34.4195H67.0678V31.6678H67.7006C68.9219 31.6678 69.9155 30.6743 69.9155 29.453C69.9155 28.2317 68.9219 27.2381 67.7006 27.2381H45.0559C44.6191 27.2381 44.2649 27.5923 44.2649 28.0292C44.2649 28.466 44.6191 28.8202 45.0559 28.8202H67.7006C68.0496 28.8202 68.3334 29.1041 68.3334 29.453C68.3334 29.8019 68.0496 30.0858 67.7006 30.0858C66.6604 30.0858 41.8779 30.0858 39.5543 30.0858C39.2995 30.0858 39.052 30.1182 38.8159 30.179C37.541 30.5078 36.5964 31.6674 36.5964 33.0436C36.5964 34.6638 37.9154 36.0014 39.5543 36.0014H39.6074H67.7005C68.0495 36.0014 68.3333 36.2853 68.3333 36.6342C68.3333 36.9832 68.0495 37.2671 67.7005 37.2671H39.5542C37.2253 37.2671 35.3308 35.3724 35.3308 33.0436C35.3308 30.7147 37.2254 28.8201 39.5543 28.8201H41.3645C41.8014 28.8201 42.1556 28.4659 42.1556 28.0291C42.1556 27.5922 41.8014 27.238 41.3645 27.238H39.5543C36.3531 27.238 33.7487 29.8424 33.7487 33.0436C33.7487 35.1704 34.8991 37.0327 36.6095 38.0438C36.2384 38.4573 36.0122 39.0031 36.0122 39.601C36.0122 40.8879 37.0592 41.9349 38.3461 41.9349H39.0981V43.8024H38.3461C37.0592 43.8024 36.0122 44.8494 36.0122 46.1365C36.0122 46.3995 36.0566 46.6523 36.1372 46.8883H32.639C28.2071 46.8883 24.5553 50.4442 24.4986 54.8151C24.4704 56.9817 25.2927 59.0236 26.8139 60.5645C27.1054 60.8598 27.4159 61.1292 27.7421 61.3725H25.0566C23.9226 61.3725 23 62.2951 23 63.4291V70.7051C23 71.8391 23.9226 72.7617 25.0566 72.7617H31.1875H35.9334H57.9398C58.3766 72.7617 58.7308 72.4076 58.7308 71.9707C58.7308 71.5339 58.3766 71.1797 57.9398 71.1797H36.7244V64.1192L36.9767 63.9157L38.8344 65.4142C39.5187 65.9658 40.5295 65.4699 40.5295 64.6444V62.9548H67.2561V71.18H61.6313C61.1945 71.18 60.8403 71.5342 60.8403 71.971C60.8403 72.4079 61.1945 72.762 61.6313 72.762H74.9435C76.0775 72.762 77.0001 71.8394 77.0001 70.7054V63.4294C77 62.4402 76.2979 61.6123 75.366 61.4169ZM39.6074 34.4195C38.8286 34.4195 38.1784 33.7968 38.1784 33.0437C38.1784 32.2851 38.7955 31.6678 39.5543 31.6678H65.4858V34.4195H39.6074ZM70.8614 58.3142H40.5295V54.6214C40.5295 54.1846 40.1754 53.8304 39.7385 53.8304H35.0059V51.5293H70.8615V58.3142H70.8614ZM37.6382 62.417C37.2519 62.1055 36.6952 62.1102 36.3152 62.417L35.0059 63.4731C35.0059 61.8055 35.0059 57.2931 35.0059 55.4124H38.9475V63.4731L37.6382 62.417ZM29.1534 54.6113C29.3101 52.8774 30.7745 51.5292 32.531 51.5292H33.4238V58.3142H32.6095C30.6377 58.3142 28.9675 56.6488 29.1534 54.6113ZM40.6801 41.9351H69.8546C70.3372 41.9351 70.7483 42.2802 70.8216 42.7241C70.911 43.2949 70.4671 43.8026 69.9004 43.8026H40.6801V41.9351ZM37.5942 46.1366C37.5942 45.722 37.9315 45.3847 38.3461 45.3847H69.9004C71.3671 45.3847 72.5447 44.1219 72.4044 42.6305C72.2871 41.3889 71.2546 40.3532 69.8553 40.3532C67.724 40.3532 38.9189 40.3532 38.346 40.3532C37.9314 40.3532 37.5941 40.0159 37.5941 39.6013C37.5941 39.1867 37.9314 38.8494 38.346 38.8494H69.9003C72.1167 38.8494 73.9199 40.6526 73.9199 42.869C73.9199 45.0855 72.1167 46.8887 69.9003 46.8887H38.3461C37.9315 46.8886 37.5942 46.5513 37.5942 46.1366ZM26.0805 54.8358C26.1261 51.326 29.0682 48.4706 32.639 48.4706H73.1817C73.5888 48.4706 73.92 48.8018 73.92 49.2089C73.92 49.616 73.5888 49.9471 73.1817 49.9471C72.9229 49.9471 33.3316 49.9471 32.531 49.9471C29.8583 49.9471 27.6677 52.0664 27.5616 54.721C27.4548 57.4407 29.5781 59.8961 32.6095 59.8961H33.4238V61.3727C32.2747 61.3727 29.9903 61.5307 27.9396 59.4533C26.7182 58.2159 26.058 56.5761 26.0805 54.8358ZM24.582 70.7054V63.4294C24.582 63.1678 24.795 62.9548 25.0566 62.9548H30.3965V71.18H25.0566C24.795 71.18 24.582 70.9671 24.582 70.7054ZM35.1424 71.18H31.9786V62.9548H33.4239V64.6441C33.4239 65.4573 34.4117 65.9848 35.1424 65.3955V71.18ZM40.5295 59.8962H73.1818C73.5889 59.8962 73.9201 60.2274 73.9201 60.6345C73.9201 61.0416 73.5889 61.3728 73.1818 61.3728C71.8099 61.3728 42.7113 61.3728 40.5295 61.3728V59.8962ZM68.838 62.9548H70.8614V71.18H68.838V62.9548ZM75.418 70.7054C75.418 70.9671 75.205 71.18 74.9434 71.18H72.4434V62.9548H73.1817H74.9434C75.205 62.9548 75.418 63.1678 75.418 63.4294V70.7054Z" fill="black"/>
</g>
<path d="M83.5545 4C83.5545 4 84.7572 11.8893 94.1091 12.4348C84.7572 12.9803 83.5545 20.8696 83.5545 20.8696C83.5545 20.8696 82.3518 12.9803 73 12.4348C82.3518 11.8893 83.5545 4 83.5545 4Z" fill="#0EBED9"/>
<path d="M15.5 81C15.5 81 16.2407 86.1443 22 86.5C16.2407 86.8557 15.5 92 15.5 92C15.5 92 14.7593 86.8557 9 86.5C14.7593 86.1443 15.5 81 15.5 81Z" fill="#0EBED9"/>
<defs>
<clipPath id="clip0_582_5">
<rect width="54" height="54" fill="white" transform="translate(23 23)"/>
</clipPath>
</defs>
</svg>
