<svg width="100" height="100" viewBox="0 0 100 100" fill="none" xmlns="http://www.w3.org/2000/svg">
<circle cx="50" cy="50" r="50" fill="#DCF1FF"/>
<g clip-path="url(#clip0_582_6)">
<path d="M32.0499 29.1546H43.2464V71.7799H32.0499V29.1546Z" fill="#F5F8F9"/>
<path d="M32.0499 29.1548H43.2464V35.3791H32.0499V29.1548Z" fill="#E8EDF2"/>
<path d="M32.0499 29.1548H35.6839V71.7801H32.0499V29.1548Z" fill="#E8EDF2"/>
<path d="M31.9827 31.9756H43.3138C44.8717 31.9756 46.1345 30.7127 46.1345 29.1548C46.1345 27.5969 44.8717 26.334 43.3138 26.334H31.9827C30.4249 26.334 29.162 27.5969 29.162 29.1548C29.1619 30.7126 30.4248 31.9756 31.9827 31.9756Z" fill="#E8EDF2"/>
<path d="M35.2716 31.1497C35.7823 31.6604 36.4872 31.9756 37.2665 31.9756H31.9829C31.2035 31.9756 30.4986 31.6604 29.9879 31.1497C29.4772 30.6389 29.162 29.9341 29.162 29.1547C29.162 27.5973 30.4242 26.3338 31.983 26.3338H37.2667C35.7081 26.3338 34.4458 27.5973 34.4458 29.1547C34.4457 29.934 34.7609 30.6389 35.2716 31.1497Z" fill="#D9E7EC"/>
<path d="M72.0164 46.9663V72.1265H60.8196V42.4366L64.4538 43.1075L68.382 47.0368L72.0164 46.9663Z" fill="#F5F8F9"/>
<path d="M64.4538 43.1075V72.1265H60.8196V42.4366L64.4538 43.1075Z" fill="#E8EDF2"/>
<path d="M27.3459 69.7202L30.0204 60.9857C30.2671 60.1801 31.0109 59.63 31.8534 59.63H34.7861C35.5123 59.63 36.176 59.2197 36.5007 58.5703L38.712 54.1479C39.0367 53.4984 39.7005 53.0883 40.4266 53.0883H45.7959C46.5535 53.0883 47.24 53.5344 47.5476 54.2267L50.5614 61.0077C50.8691 61.7 51.5556 62.1461 52.3131 62.1461H54.2131C55.0389 62.1461 55.772 62.675 56.0323 63.4588L58.1123 69.7203L39.074 72.6297L27.3459 69.7202Z" fill="#F5F8F9"/>
<path d="M43.7808 53.0892C43.0544 53.0892 42.3911 53.499 42.0658 54.1484L39.8551 58.5708C39.5298 59.2202 38.8665 59.63 38.1401 59.63H35.2082C34.3645 59.63 33.6218 60.1811 33.3746 60.9856L30.6999 69.7209H27.3457L30.0204 60.9856C30.2662 60.1811 31.0103 59.63 31.8527 59.63H34.7859C35.5123 59.63 36.1755 59.2202 36.5009 58.5708L38.7115 54.1484C39.0369 53.499 39.7002 53.0892 40.4266 53.0892H43.7808Z" fill="#E8EDF2"/>
<path d="M74.2361 69.7203H25.7639C24.6743 69.7203 23.791 70.6036 23.791 71.6932C23.791 72.7828 24.6743 73.6661 25.7639 73.6661H74.2362C75.3258 73.6661 76.2091 72.7828 76.2091 71.6932C76.209 70.6035 75.3257 69.7203 74.2361 69.7203Z" fill="#9BE69D"/>
<path d="M29.4199 73.0873C29.7764 73.4448 30.2689 73.6652 30.8142 73.6652H25.7643C25.2191 73.6652 24.7255 73.4448 24.369 73.0873C24.0114 72.7308 23.791 72.2383 23.791 71.693C23.791 70.6024 24.6738 69.7197 25.7643 69.7197H30.8142C29.7247 69.7197 28.8419 70.6024 28.8419 71.693C28.8419 72.2383 29.0623 72.7308 29.4199 73.0873Z" fill="#6FD7A3"/>
<path d="M53.8807 69.7204L51.409 66.0847C51.1517 65.7061 50.7459 65.4544 50.2923 65.392L46.8077 64.9129C45.9997 64.8018 45.2354 65.31 45.0254 66.0982L44.0603 69.7204" fill="#E8EDF2"/>
<path d="M47.7887 65.0486C47.3669 65.2447 47.0357 65.6202 46.9081 66.098L45.942 69.7208H44.0604L45.0255 66.098C45.2353 65.3101 46 64.8018 46.8079 64.9136L47.7887 65.0486Z" fill="#D9E7EC"/>
<path d="M76.1912 69.7399C75.6701 69.2172 74.9756 68.9294 74.2357 68.9294H72.8076V46.9667C72.8076 46.7541 72.7221 46.5507 72.5705 46.402C72.4189 46.2532 72.2125 46.1717 72.0013 46.1758L68.7035 46.24L65.0128 42.5484C64.8997 42.4351 64.7547 42.3588 64.5971 42.3297L60.9626 41.6589C60.7315 41.6164 60.4937 41.6786 60.313 41.8288C60.1325 41.9791 60.0281 42.2019 60.0281 42.4369V57.2784C60.0281 57.7153 60.3821 58.0695 60.8191 58.0695C61.256 58.0695 61.6101 57.7153 61.6101 57.2784V43.387L63.6628 43.7659V66.3168C63.6628 66.7537 64.0169 67.1078 64.4539 67.1078C64.8908 67.1078 65.2449 66.7537 65.2449 66.3168V45.0178L67.591 47.3646V66.3168C67.591 66.7537 67.9451 67.1078 68.382 67.1078C68.819 67.1078 69.1731 66.7537 69.1731 66.3168V47.813L71.2257 47.7732V68.9295H61.6101V60.9697C61.6101 60.5329 61.256 60.1787 60.8191 60.1787C60.3821 60.1787 60.0281 60.5329 60.0281 60.9697V68.9295H58.6832L56.7832 63.2095C56.4148 62.1004 55.3821 61.3551 54.2133 61.3551H52.3134C51.8688 61.3551 51.465 61.0927 51.2844 60.6865L48.2706 53.9053C47.8363 52.9285 46.8649 52.2973 45.796 52.2973H44.0379V32.6935C45.6837 32.3572 46.9257 30.8983 46.9257 29.1547C46.9257 27.1631 45.3055 25.5428 43.3138 25.5428H31.9828C29.9911 25.5428 28.3709 27.163 28.3709 29.1547C28.3709 30.8985 29.6131 32.3575 31.2593 32.6936V37.8498C31.2593 38.2867 31.6133 38.6408 32.0503 38.6408C32.4872 38.6408 32.8413 38.2867 32.8413 37.8498V32.7664H42.4558V52.2972H40.4266C40.4188 52.2972 40.4112 52.2979 40.4034 52.298V35.3787C40.4034 34.9418 40.0493 34.5877 39.6124 34.5877C39.1754 34.5877 38.8214 34.9418 38.8214 35.3787V52.8223C38.4832 53.0714 38.2013 53.4006 38.0045 53.7941L36.4747 56.8536V35.3787C36.4747 34.9418 36.1206 34.5877 35.6837 34.5877C35.2467 34.5877 34.8927 34.9418 34.8927 35.3787V58.8316C34.8573 58.8348 34.8222 58.839 34.7861 58.839H32.8413V41.5391C32.8413 41.1023 32.4872 40.7481 32.0503 40.7481C31.6133 40.7481 31.2593 41.1023 31.2593 41.5391V58.9055C30.3221 59.1133 29.5552 59.8035 29.2641 60.7542L26.7609 68.9295H25.7643C24.2401 68.9295 23 70.169 23 71.6927C23 72.4311 23.2876 73.1253 23.8089 73.6466C24.33 74.1693 25.0245 74.4571 25.7643 74.4571H37.2341C37.671 74.4571 38.0251 74.1029 38.0251 73.6661C38.0251 73.2292 37.671 72.8751 37.2341 72.8751H25.7643C25.4479 72.8751 25.1514 72.7524 24.9283 72.5287C24.705 72.3054 24.582 72.0085 24.582 71.6927C24.582 71.0414 25.1123 70.5115 25.7643 70.5115H74.2357C74.5521 70.5115 74.8486 70.6342 75.0726 70.8587C75.2953 71.0807 75.418 71.377 75.418 71.6929C75.418 72.3448 74.8877 72.8752 74.2357 72.8752H40.9255C40.4885 72.8752 40.1345 73.2293 40.1345 73.6662C40.1345 74.103 40.4885 74.4572 40.9255 74.4572H74.2357C75.7599 74.4572 77 73.2171 77 71.6929C77 70.9533 76.7122 70.2592 76.1912 69.7399ZM29.9529 29.1547C29.9529 28.0354 30.8635 27.1248 31.9828 27.1248H43.3138C44.433 27.1248 45.3437 28.0353 45.3437 29.1547C45.3437 30.2739 44.433 31.1844 43.3138 31.1844H43.2509C43.2496 31.1844 43.2482 31.1842 43.2468 31.1842H32.0503C32.0489 31.1842 32.0475 31.1844 32.0462 31.1844H31.9828C30.8635 31.1844 29.9529 30.2739 29.9529 29.1547ZM30.7766 61.2173C30.9225 60.741 31.3551 60.421 31.8534 60.421H34.7861C35.8185 60.421 36.7465 59.8475 37.2082 58.9241L39.4195 54.5017C39.6114 54.1176 39.9973 53.8792 40.4266 53.8792H45.7959C46.2404 53.8792 46.6443 54.1417 46.8249 54.5479L49.8386 61.3289C50.2727 62.3058 51.2441 62.937 52.3132 62.937H54.2132C54.6991 62.937 55.1286 63.2469 55.2818 63.708L57.0163 68.9294H54.2999L52.0635 65.6399C51.6809 65.077 51.0747 64.701 50.4004 64.6082L46.9157 64.1291C45.7153 63.9641 44.5735 64.7227 44.2613 65.8943L43.4527 68.9294H28.4153L30.7766 61.2173ZM52.3867 68.9294H45.0897L45.7898 66.3016C45.8968 65.8999 46.2886 65.6397 46.7 65.6963L50.1847 66.1755C50.4158 66.2072 50.6236 66.3361 50.7548 66.5292L52.3867 68.9294Z" fill="black"/>
</g>
<path d="M83.5545 4C83.5545 4 84.7572 11.8893 94.1091 12.4348C84.7572 12.9803 83.5545 20.8696 83.5545 20.8696C83.5545 20.8696 82.3518 12.9803 73 12.4348C82.3518 11.8893 83.5545 4 83.5545 4Z" fill="#0EBED9"/>
<path d="M15.5 81C15.5 81 16.2407 86.1443 22 86.5C16.2407 86.8557 15.5 92 15.5 92C15.5 92 14.7593 86.8557 9 86.5C14.7593 86.1443 15.5 81 15.5 81Z" fill="#0EBED9"/>
<defs>
<clipPath id="clip0_582_6">
<rect width="54" height="54" fill="white" transform="translate(23 23)"/>
</clipPath>
</defs>
</svg>
