<svg width="100" height="100" viewBox="0 0 100 100" fill="none" xmlns="http://www.w3.org/2000/svg">
<circle cx="50" cy="50" r="50" fill="#DCF1FF"/>
<path d="M57.6624 59.0198C57.9127 58.4351 58.1639 57.8575 58.4156 57.2871C58.0757 54.5244 56.8609 51.8513 54.9876 49.6145C53.6606 48.03 52.8034 46.0522 52.8034 43.5869C52.8034 37.9251 56.8216 35.0382 61.6092 33.6081C66.3115 32.2034 65.9571 25.4376 61.1449 24.4751C44.3536 21.1168 25.8388 29.7071 24.0958 47.3052C23.2181 56.1664 27.0879 63.5286 32.3917 69.3191C37.9989 75.4409 47.323 75.6328 53.243 70.581C54.3761 67.1497 55.8785 63.1872 57.6624 59.0198Z" fill="#DBEDFF"/>
<path d="M40.251 69.3192C34.9473 63.5286 31.0774 56.1665 31.9551 47.3053C33.313 33.5958 44.8496 25.3535 57.8204 23.9678C41.9946 22.2843 25.7244 30.8626 24.0958 47.3053C23.2181 56.1665 27.0879 63.5286 32.3917 69.3192C36.3641 73.6562 42.202 75.0161 47.3735 73.6445C44.7409 72.9412 42.2579 71.5101 40.251 69.3192Z" fill="#B5DCFF"/>
<path d="M45.4138 36.6463C47.3305 36.6463 48.8843 35.0925 48.8843 33.1758C48.8843 31.2592 47.3305 29.7054 45.4138 29.7054C43.4971 29.7054 41.9434 31.2592 41.9434 33.1758C41.9434 35.0925 43.4971 36.6463 45.4138 36.6463Z" fill="#F4DD45"/>
<path d="M43.846 68.2627C46.1025 68.2627 47.9318 66.4334 47.9318 64.1769C47.9318 61.9204 46.1025 60.0912 43.846 60.0912C41.5895 60.0912 39.7603 61.9204 39.7603 64.1769C39.7603 66.4334 41.5895 68.2627 43.846 68.2627Z" fill="#64D465"/>
<path d="M36.8619 46.3962C39.2805 46.3962 41.2412 44.4356 41.2412 42.017C41.2412 39.5984 39.2805 37.6377 36.8619 37.6377C34.4433 37.6377 32.4827 39.5984 32.4827 42.017C32.4827 44.4356 34.4433 46.3962 36.8619 46.3962Z" fill="#F87C68"/>
<path d="M35.3811 58.9518C37.7997 58.9518 39.7604 56.9912 39.7604 54.5726C39.7604 52.154 37.7997 50.1933 35.3811 50.1933C32.9625 50.1933 31.0018 52.154 31.0018 54.5726C31.0018 56.9912 32.9625 58.9518 35.3811 58.9518Z" fill="#7FB3FA"/>
<path d="M45.8465 33.1758C45.8465 31.9829 46.4487 30.9307 47.3654 30.3062C46.8093 29.9272 46.1375 29.7055 45.4138 29.7055C43.4971 29.7055 41.9434 31.2593 41.9434 33.176C41.9434 35.0926 43.4971 36.6464 45.4138 36.6464C46.1375 36.6464 46.8093 36.4246 47.3654 36.0457C46.4487 35.421 45.8465 34.3688 45.8465 33.1758Z" fill="#FCC101"/>
<path d="M43.6633 64.1769C43.6633 62.6273 44.5262 61.2792 45.7976 60.5866C45.2177 60.2707 44.5529 60.0911 43.846 60.0911C41.5895 60.0911 39.7603 61.9203 39.7603 64.1768C39.7603 66.4333 41.5895 68.2627 43.846 68.2627C44.5529 68.2627 45.2177 68.0831 45.7976 67.7672C44.5262 67.0747 43.6633 65.7266 43.6633 64.1769Z" fill="#40C140"/>
<path d="M36.3857 42.017C36.3857 40.2998 37.3746 38.8143 38.8135 38.0966C38.2258 37.8034 37.5634 37.6376 36.8619 37.6376C34.4433 37.6376 32.4827 39.5982 32.4827 42.0168C32.4827 44.4355 34.4433 46.3961 36.8619 46.3961C37.5634 46.3961 38.2258 46.2303 38.8135 45.9371C37.3746 45.2196 36.3857 43.7342 36.3857 42.017Z" fill="#EC625E"/>
<path d="M34.9049 54.5726C34.9049 52.8553 35.8938 51.3699 37.3327 50.6522C36.7449 50.359 36.0826 50.1932 35.3811 50.1932C32.9625 50.1932 31.0018 52.1538 31.0018 54.5724C31.0018 56.9911 32.9625 58.9517 35.3811 58.9517C36.0826 58.9517 36.7449 58.7859 37.3327 58.4927C35.8938 57.7752 34.9049 56.2897 34.9049 54.5726Z" fill="#64A6F4"/>
<path d="M66.8053 52.5332L62.0593 50.5645L61.3807 50.7337C60.125 53.2508 58.8291 56.0478 57.5569 59.0198C55.3741 64.1193 53.612 68.913 52.4333 72.8007C52.0591 74.035 52.644 75.3572 53.8065 75.9159C55.0499 76.5135 56.5424 76.044 57.2212 74.8431C59.2196 71.3073 61.4705 66.7249 63.652 61.6289C64.9242 58.6568 66.0536 55.7885 67.008 53.1425L66.8053 52.5332Z" fill="#CE775F"/>
<path d="M55.4391 73.1953C56.6179 69.3076 58.3799 64.5139 60.5628 59.4144C61.7793 56.5725 63.0173 53.8913 64.2212 51.4612L62.0593 50.5644L61.3807 50.7337C60.125 53.2508 58.8291 56.0478 57.5569 59.0197C55.3741 64.1192 53.612 68.913 52.4333 72.8006C52.0591 74.0349 52.644 75.3571 53.8065 75.9158C54.5825 76.2887 55.4556 76.246 56.1674 75.8693C55.4498 75.2044 55.1427 74.1731 55.4391 73.1953Z" fill="#C0694E"/>
<path d="M67.2221 40.1609L70.6258 41.6179C70.7806 41.6842 70.91 41.785 71.0103 41.9068C72.2249 41.2142 74.384 39.7082 75.4125 37.3053C76.5458 34.6579 75.6805 29.8534 75.2179 27.7663C75.1042 27.2534 74.524 27.005 74.0745 27.2768C72.245 28.3827 68.1714 31.073 67.0381 33.7205C66.0095 36.1233 66.4102 38.725 66.7475 40.082C66.9051 40.0705 67.0672 40.0945 67.2221 40.1609Z" fill="#FFE97B"/>
<path d="M69.7101 35.3728C70.6418 33.1963 73.56 30.9916 75.5855 29.6613C75.4618 28.9192 75.3285 28.2647 75.218 27.7663C75.1043 27.2534 74.5241 27.005 74.0746 27.2768C72.2452 28.3827 68.1716 31.073 67.0382 33.7205C66.0096 36.1233 66.4104 38.725 66.7476 40.082C66.9051 40.0705 67.0672 40.0945 67.2221 40.1609L69.2671 41.0362C68.9936 39.5929 68.8374 37.4115 69.7101 35.3728Z" fill="#F4DD45"/>
<path d="M65.5006 43.2181C64.2478 45.2393 62.8418 47.7992 61.3807 50.7338L67.0081 53.1427C68.1229 50.0598 69.0045 47.2755 69.6023 44.9738C69.4756 44.9713 69.3475 44.9457 69.2241 44.8928L65.8204 43.4358C65.6968 43.3829 65.5899 43.3079 65.5006 43.2181Z" fill="#477B9E"/>
<path d="M64.3865 51.1284C65.6675 48.5555 66.9061 46.2707 68.0363 44.3844L65.8202 43.4357C65.6968 43.3829 65.5899 43.3079 65.5006 43.218C64.2478 45.2392 62.8418 47.7991 61.3807 50.7337L64.0224 51.8645C64.1441 51.617 64.2655 51.371 64.3865 51.1284Z" fill="#3F6D8E"/>
<path d="M70.6711 41.5125L67.2674 40.0554C66.7465 39.8325 66.1434 40.074 65.9205 40.5949L65.2359 42.1942C65.0129 42.7152 65.2544 43.3182 65.7753 43.5412L69.179 44.9982C69.6999 45.2212 70.303 44.9797 70.526 44.4588L71.2106 42.8594C71.4335 42.3385 71.192 41.7355 70.6711 41.5125Z" fill="#DBEDFF"/>
<path d="M67.7751 43.2875L68.5102 41.5702C68.6575 41.2263 68.9592 40.9963 69.2998 40.9256L67.2674 40.0556C66.7465 39.8326 66.1434 40.0741 65.9205 40.595L65.2359 42.1944C65.0129 42.7153 65.2544 43.3183 65.7753 43.5413L68.0053 44.4959C67.6994 44.1866 67.5934 43.7119 67.7751 43.2875Z" fill="#B5DCFF"/>
<path d="M45.4332 37.4734C47.783 37.4734 49.6947 35.5618 49.6947 33.2121C49.6947 30.8623 47.783 28.9506 45.4332 28.9506C43.0835 28.9506 41.1719 30.8623 41.1719 33.2121C41.1719 35.5618 43.0835 37.4734 45.4332 37.4734ZM45.4332 30.5327C46.9107 30.5327 48.1127 31.7346 48.1127 33.2121C48.1127 34.6895 46.9107 35.8914 45.4332 35.8914C43.9558 35.8914 42.7539 34.6895 42.7539 33.2121C42.7539 31.7347 43.9558 30.5327 45.4332 30.5327Z" fill="black"/>
<path d="M43.8658 69.09C46.5548 69.09 48.7426 66.9022 48.7426 64.2132C48.7426 61.5242 46.5548 59.3364 43.8658 59.3364C41.1768 59.3364 38.989 61.5242 38.989 64.2132C38.989 66.9022 41.1768 69.09 43.8658 69.09ZM43.8658 60.9185C45.6826 60.9185 47.1605 62.3965 47.1605 64.2132C47.1605 66.0299 45.6825 67.5079 43.8658 67.5079C42.0491 67.5079 40.571 66.0299 40.571 64.2132C40.571 62.3965 42.049 60.9185 43.8658 60.9185Z" fill="black"/>
<path d="M36.8813 36.8829C34.0304 36.8829 31.7111 39.2023 31.7111 42.0532C31.7111 44.9042 34.0304 47.2235 36.8813 47.2235C39.7323 47.2235 42.0516 44.9042 42.0516 42.0532C42.0516 39.2023 39.7323 36.8829 36.8813 36.8829ZM36.8813 45.6416C34.9028 45.6416 33.2931 44.0319 33.2931 42.0533C33.2931 40.0747 34.9029 38.4651 36.8813 38.4651C38.8598 38.4651 40.4696 40.0747 40.4696 42.0533C40.4696 44.0319 38.8599 45.6416 36.8813 45.6416Z" fill="black"/>
<path d="M35.4008 59.7792C38.2517 59.7792 40.571 57.4599 40.571 54.6089C40.571 51.758 38.2517 49.4387 35.4008 49.4387C32.5498 49.4387 30.2305 51.758 30.2305 54.6089C30.2305 57.4599 32.5498 59.7792 35.4008 59.7792ZM35.4008 51.0206C37.3794 51.0206 38.989 52.6302 38.989 54.6088C38.989 56.5874 37.3792 58.1971 35.4008 58.1971C33.4223 58.1971 31.8125 56.5874 31.8125 54.6088C31.8125 52.6302 33.4222 51.0206 35.4008 51.0206Z" fill="black"/>
<path d="M40.554 74.7271C40.9832 74.8061 41.3956 74.5208 41.4742 74.091C41.5528 73.6612 41.2679 73.2493 40.8381 73.1708C37.8062 72.6172 35.094 71.1131 32.9947 68.8211C26.8798 62.1451 24.1572 54.9446 24.9026 47.4194C26.5845 30.4367 44.4933 21.9836 61.0094 25.287C63.2407 25.7332 64.1097 27.5519 64.1757 28.9736C64.2409 30.377 63.5538 32.2437 61.4025 32.8864C58.6229 33.7167 56.4251 34.9287 54.8703 36.4884C51.3068 40.0635 50.9981 46.0955 54.4008 50.1586C56.081 52.165 57.1558 54.5979 57.5167 57.2068C55.7255 61.2781 53.8937 65.8888 52.4761 70.1563C50.1985 72.0376 47.3168 73.1776 44.3359 73.3723C43.8999 73.4008 43.5695 73.7772 43.598 74.2132C43.6254 74.6316 43.9733 74.9528 44.3867 74.9528C44.404 74.9528 44.4214 74.9522 44.439 74.951C47.0058 74.7834 49.5072 73.9834 51.6819 72.6577C51.2219 74.2604 51.9729 75.9393 53.4834 76.6651C55.0964 77.4403 57.0492 76.8261 57.9294 75.2687C59.4526 72.5736 61.1031 69.3027 62.702 65.8093C62.884 65.4122 62.7092 64.9427 62.3121 64.7609C61.9147 64.579 61.4455 64.7538 61.2637 65.1509C59.683 68.6042 58.0538 71.8337 56.5522 74.4903C56.08 75.3257 55.0333 75.6545 54.1686 75.2393C53.3505 74.8461 52.9473 73.9324 53.2099 73.0666C55.2519 66.3308 58.6574 58.1317 61.777 51.7918L66.0286 53.6118C65.0373 56.3132 63.9081 59.1261 62.7558 61.793C62.5828 62.1941 62.7677 62.6595 63.1687 62.8326C63.5705 63.0059 64.0354 62.8208 64.2085 62.4197C66.3788 57.3832 68.8011 51.0924 70.2146 45.8C70.7171 45.6195 71.0802 45.2561 71.2727 44.8064L71.9573 43.2071C72.104 42.8644 72.1364 42.5013 72.0723 42.1598C73.389 41.3193 75.232 39.8201 76.187 37.589C77.3668 34.8331 76.5828 30.1642 76.0104 27.6264C75.9008 27.1402 75.5616 26.7327 75.1034 26.5365C74.645 26.3403 74.1162 26.3761 73.6886 26.6325C71.4574 27.9703 67.5379 30.626 66.3582 33.3817C65.4035 35.6118 65.5905 37.9794 65.891 39.5123C65.5917 39.7065 65.3565 39.9846 65.2129 40.32L64.5283 41.9193C64.3343 42.3725 64.3249 42.8844 64.5397 43.3706C62.4172 46.8489 60.3099 51.0703 58.6101 54.7741C58.0131 52.7131 56.9995 50.7979 55.6138 49.1431C54.2869 47.5587 53.6141 45.7016 53.6141 43.6233C53.6141 39.1384 56.3868 36.0361 61.8554 34.4024C64.3458 33.6584 65.8768 31.4987 65.7561 28.9004C65.6562 26.7514 64.2457 24.3211 61.3197 23.7359C43.9088 20.2536 25.1075 29.3019 23.3281 47.2636C22.5366 55.2553 25.3964 62.8678 31.8281 69.8897C34.1624 72.4382 37.1798 74.111 40.554 74.7271ZM65.753 44.4199C66.7897 44.8636 67.5811 45.2025 68.6177 45.6462C68.1006 47.5481 67.4001 49.7583 66.5656 52.1207L62.485 50.3739C63.6186 48.1389 64.7341 46.1065 65.753 44.4199ZM70.5029 42.5844L69.8183 44.1837C69.7629 44.3128 69.6183 44.3537 69.5098 44.3072L66.106 42.8502C65.9957 42.8029 65.9279 42.6694 65.9825 42.5418L66.6671 40.9423C66.7205 40.818 66.8616 40.7699 66.9758 40.8189L70.3794 42.2759C70.4891 42.3229 70.5566 42.459 70.5029 42.5844ZM67.8124 34.0041C68.1588 33.195 69.5013 30.9926 74.4741 28.0059C75.7461 33.666 75.0788 36.1571 74.7325 36.9663C73.9157 38.8744 72.2727 40.1699 71.1314 40.8833C71.0891 40.861 71.0457 40.8404 71.0017 40.8216L67.5981 39.3645H67.598C67.554 39.3458 67.5093 39.3287 67.4639 39.3135C67.1925 37.995 66.9958 35.9121 67.8124 34.0041Z" fill="black"/>
<path d="M83.5545 4C83.5545 4 84.7572 11.8893 94.1091 12.4348C84.7572 12.9803 83.5545 20.8696 83.5545 20.8696C83.5545 20.8696 82.3518 12.9803 73 12.4348C82.3518 11.8893 83.5545 4 83.5545 4Z" fill="#0EBED9"/>
<path d="M15.5 81C15.5 81 16.2407 86.1443 22 86.5C16.2407 86.8557 15.5 92 15.5 92C15.5 92 14.7593 86.8557 9 86.5C14.7593 86.1443 15.5 81 15.5 81Z" fill="#0EBED9"/>
</svg>
