<svg width="100" height="100" viewBox="0 0 100 100" fill="none" xmlns="http://www.w3.org/2000/svg">
<circle cx="50" cy="50" r="50" fill="#DCF1FF"/>
<g clip-path="url(#clip0_878_4)">
<path d="M71.958 53.9919L72.4124 58.4307L71.958 63.3365H69.1104L68.3784 58.8806L69.1104 53.9919H71.958Z" fill="#EF5227"/>
<path d="M74.7247 32.1399V35.304L70.4943 36.0534L66.2629 35.304V32.1399L70.0878 31.5654L74.7247 32.1399Z" fill="#F1F2F2"/>
<path d="M74.7247 30.2415V32.1399H66.2629V28.9758H73.4591C74.1583 28.9758 74.7247 29.5422 74.7247 30.2415Z" fill="#B7E546"/>
<path d="M74.7247 35.304V37.0547C74.7247 37.7529 74.1583 38.3204 73.4591 38.3204H66.2629V35.304H74.7247Z" fill="#EF5227"/>
<path d="M68.0687 32.1399V35.3039L66.8517 35.8918L65.4114 35.3039V32.1399L66.8517 31.6372L68.0687 32.1399Z" fill="#DEE1E1"/>
<path d="M68.0687 35.304L68.0671 38.3204H65.4114V35.304H68.0687Z" fill="#D83724"/>
<path d="M65.4114 28.9758H68.0687V32.1399H65.4114V28.9758Z" fill="#ABD641"/>
<path d="M74.7246 42.75V49.5622C74.7246 50.2615 74.1583 50.8278 73.459 50.8278H70.4943L69.7825 46.2681L70.4943 41.4844H73.459C74.1583 41.4844 74.7246 42.0507 74.7246 42.75Z" fill="#EF5227"/>
<path d="M66.2629 41.4844H70.4943V50.8278H66.2629V41.4844Z" fill="#F1F2F2"/>
<path d="M74.7247 55.2576V62.0709C74.7247 62.7691 74.1583 63.3365 73.4591 63.3365H71.9583V53.9919H73.4591C74.1583 53.9919 74.7247 54.5583 74.7247 55.2576Z" fill="#77777F"/>
<path d="M66.2629 53.9919H69.1106V63.3365H66.2629V53.9919Z" fill="#FDCD08"/>
<path d="M65.636 41.4844H68.0679V50.8278H65.636V41.4844Z" fill="#DEE1E1"/>
<path d="M68.0673 53.9919L68.0656 63.3365H65.1328V53.9919H68.0673Z" fill="#FAAB18"/>
<path d="M30.716 23.791L33.2861 41.4845L30.716 69.4347L25.2791 69.9758V54.1043L25.6385 52.9414L25.2791 51.659V43.324L25.6385 41.3852L25.2791 40.6723V28.1405C25.2791 25.739 27.226 23.791 29.6286 23.791H30.716Z" fill="#FAAB18"/>
<path d="M66.2757 28.1405L66.2736 65.8994L30.7158 69.4347V23.791H61.9261C64.3287 23.791 66.2757 25.739 66.2757 28.1405Z" fill="#FDCD08"/>
<path d="M64.1395 72.8682C63.3122 71.1796 63.3122 69.2032 64.1395 67.5144L29.2291 66.4373C29.2291 66.4373 23.4844 73.8336 29.5881 74.1208C35.6918 74.4081 64.1395 72.8682 64.1395 72.8682Z" fill="#F1F2F2"/>
<path d="M63.5817 71.0705C63.6724 71.6875 63.858 72.295 64.1386 72.8687C64.1386 72.8687 36.7481 74.1497 30.7155 73.1784C26.033 72.4244 29.8747 67.1824 29.8747 67.1824L64.1385 67.5141C63.8579 68.0878 63.6723 68.6953 63.5816 69.3123H31.2956C30.8104 69.3123 30.416 69.7068 30.416 70.1909C30.416 70.676 30.8104 71.0705 31.2956 71.0705H63.5817Z" fill="#DEE1E1"/>
<path d="M64.5484 72.7585C65.5012 72.7585 66.2736 73.5309 66.2736 74.4837C66.2736 74.5563 66.2692 74.6277 66.2604 74.6978C66.155 75.5496 65.2277 76.0552 64.3473 76.0552L31.4007 75.8532C28.0773 75.8532 25.6111 73.5148 25.6111 70.1913C25.6111 66.8679 27.9426 64.301 31.266 64.301L31.8584 64.1738H64.5482C65.5011 64.1738 66.2735 64.9463 66.2735 65.8991C66.2735 66.8519 65.5011 67.6243 64.5482 67.6243H31.2958C29.8781 67.6243 28.7288 68.7736 28.7288 70.1913C28.7288 71.6091 29.8781 72.7584 31.2958 72.7584H64.5484V72.7585Z" fill="#FAAB18"/>
<path d="M66.13 74.6268H32.2398C31.8863 74.6268 31.5409 74.5928 31.2066 74.5277C27.2625 73.7603 25.7723 68.8266 28.5939 65.9657C28.6036 65.9558 28.6134 65.946 28.6233 65.9362C29.7117 64.8478 31.2157 64.1738 32.8779 64.1738H31.2958C29.5388 64.1767 27.9699 64.9175 26.8609 66.1253V66.125C25.8505 67.2217 25.2742 68.6992 25.2788 70.1908C25.2788 73.5152 27.9725 76.2089 31.2958 76.2089H32.8779H64.548C65.0247 76.2089 65.4561 76.0159 65.7683 75.7037C66.0499 75.4221 66.2345 75.0434 66.2682 74.6216C66.2229 74.6247 66.1764 74.6268 66.13 74.6268Z" fill="#F5901E"/>
<path d="M56.0361 60.5154H40.9563C40.5486 60.5154 40.218 60.1848 40.218 59.7771V58.0896C40.218 57.6819 40.5486 57.3513 40.9563 57.3513L41.5888 57.2458H56.1416C56.5493 57.2458 56.8799 57.5764 56.8799 57.9841V59.1441L56.7744 59.7771C56.7744 60.1848 56.4438 60.5154 56.0361 60.5154Z" fill="#F1F2F2"/>
<path d="M56.8795 59.1443V59.8826C56.8795 60.2907 56.5494 60.6208 56.1412 60.6208H40.8503C40.4432 60.6208 40.1121 60.2907 40.1121 59.8826V57.9841C40.1121 57.577 40.4432 57.2458 40.8503 57.2458H41.5886V58.7224C41.5886 58.9555 41.7774 59.1443 42.0105 59.1443H56.8795Z" fill="#DEE1E1"/>
<path d="M38.537 37.7231C39.4564 35.525 40.5499 33.5731 42.4151 32.3799C43.3424 31.7867 44.3514 31.3322 45.4077 31.0304C47.7818 30.3521 50.4351 30.9863 52.8899 32.0143C56.4953 33.5243 58.3962 36.2505 59.0833 39.662C59.3714 41.0917 59.8481 42.7834 59.5028 44.3292C59.3594 44.9705 59.158 45.6082 58.8956 46.2356C58.4929 47.1984 57.9724 48.0758 57.3577 48.8583C56.7754 49.5997 55.9813 50.2087 55.2594 50.7429C52.195 53.011 48.1695 53.4273 44.2996 51.8066C38.5562 49.4012 36.1333 43.4703 38.537 37.7231Z" fill="#B4E3F5"/>
<path d="M44.2322 52.1163C44.0088 52.0226 43.7007 52.0932 43.4865 51.9871C40.7095 50.612 38.7259 48.2169 37.8024 45.4525C37.6427 44.9741 37.7971 44.2342 37.7021 43.7371L39.8229 40.1638C40.0423 44.3431 42.5959 48.2325 46.7143 49.9559L44.2322 52.1163Z" fill="#83D3F0"/>
<path d="M57.3573 48.8578C56.7637 49.6138 55.7473 50.1984 55.017 50.7563C51.9913 53.0678 48.2865 53.7026 44.4343 52.0892C44.2107 51.9953 43.7012 52.0925 43.4871 51.986C44.2665 51.2625 45.0364 50.4609 45.1503 49.4031C45.2073 48.8747 45.3496 48.3611 45.5848 47.8959C45.5891 47.8896 45.5922 47.8833 45.5954 47.877C45.7125 47.646 45.8696 47.4424 46.0521 47.2684C46.1132 47.2104 46.185 47.1513 46.2641 47.0923C46.4898 46.9225 46.7366 46.7864 46.9928 46.6767L48.7753 45.911C49.4903 45.6758 50.0578 45.7591 50.4269 46.5006C50.4754 46.5976 51.0924 47.7135 51.0924 47.7135C51.6229 48.65 52.7177 49.0266 53.6416 48.5899C53.8947 48.4697 54.1679 48.4085 54.4442 48.4085C54.5455 48.4085 54.6467 48.4159 54.7469 48.4328L57.3573 48.8578Z" fill="#B7E546"/>
<path d="M59.5026 44.329C59.1798 44.1655 58.6198 43.8839 58.1019 43.6223C57.3405 43.2374 56.7815 42.5423 56.5695 41.7154C56.5674 41.706 56.5642 41.6954 56.5621 41.6849C56.4355 41.1902 56.1054 40.7736 55.6445 40.5321L55.5992 40.5089C55.1372 40.2674 54.6278 40.1324 54.1068 40.1144L53.7049 40.0997C53.2483 40.0838 52.8085 39.9562 52.4224 39.7358C52.0354 39.5154 51.7021 39.2021 51.4553 38.8172C50.8995 37.9502 50.8721 36.8449 51.3846 35.9516L51.4005 35.9252C51.5302 35.6985 51.5945 35.4464 51.5945 35.1954C51.5945 34.8948 51.5028 34.5953 51.3214 34.3411C51.141 34.0879 50.8531 33.9466 50.5567 33.9466C50.4375 33.9466 50.3173 33.9698 50.2013 34.0173C49.8996 34.1407 49.579 34.2029 49.2584 34.2029C48.9314 34.2029 48.6055 34.1386 48.2976 34.0099C47.0077 33.4699 45.9857 32.4395 45.4552 31.1454L45.4077 31.0304C47.7818 30.3522 50.3943 30.4461 52.8485 31.4734C57.9648 33.6165 60.6722 39.0945 59.5026 44.329Z" fill="#B7E546"/>
<path d="M42.8997 38.005L42.7953 38.3004C42.6371 38.7486 42.385 39.1515 42.0612 39.4848C41.7374 39.8181 41.343 40.0817 40.8989 40.2526C40.3262 40.473 39.9181 40.9888 39.8337 41.5973L39.5743 43.4631C39.511 43.9197 39.2705 44.3321 38.9045 44.6116L37.8034 45.4522C37.6632 45.0326 37.7928 44.4585 37.7023 44.0241C37.2535 41.8698 37.4177 39.7803 38.3306 37.5973C38.9843 36.0333 39.8212 34.8979 40.9269 33.805C41.3713 33.3656 41.8668 32.7319 42.3997 32.3899L42.1571 32.971C42.0126 33.317 41.9388 33.6872 41.9388 34.0616C41.9388 34.109 41.9398 34.1554 41.9419 34.2029C41.9567 34.494 42.0158 34.7788 42.117 35.0477C42.2172 35.3167 42.3596 35.5708 42.5389 35.7997C43.0284 36.4251 43.1644 37.2573 42.8997 38.005Z" fill="#B7E546"/>
<path d="M57.2887 48.9443C57.2877 48.9454 57.2877 48.9454 57.2877 48.9464C54.1141 53.0169 48.0775 54.3585 43.4871 51.9861C44.2665 51.2625 45.0364 50.461 45.1503 49.4031C45.1587 49.3261 45.1682 49.2491 45.1809 49.1732C45.6639 49.4685 46.1755 49.7301 46.7144 49.9558C50.3183 51.464 54.2618 50.9556 57.2887 48.9443Z" fill="#ABD641"/>
<path d="M42.3996 32.3909C41.717 33.2379 41.1199 34.1809 40.6826 35.2396C39.861 37.2024 39.6384 39.2653 39.9295 41.226C39.8831 41.3441 39.8515 41.4686 39.8336 41.5972L39.5741 43.463C39.5108 43.9197 39.2704 44.332 38.9044 44.6115L37.8033 45.4521C36.1323 40.7459 38.1358 35.0214 42.3996 32.3909Z" fill="#ABD641"/>
<path d="M73.4593 39.1109C74.5933 39.1109 75.5159 38.1882 75.5159 37.0542V30.2414C75.5159 29.1074 74.5933 28.1847 73.4593 28.1847H67.067V28.1409C67.0668 25.3062 64.7607 23 61.926 23H29.6283C26.7936 23 24.4873 25.3062 24.4873 28.1409V69.9756C24.3617 73.7728 27.4686 77.0069 31.2959 77H64.5484C65.9358 77 67.0646 75.8712 67.0646 74.4837C67.0646 73.1297 65.9894 72.0226 64.648 71.97C64.2114 70.8187 64.2114 69.5641 64.648 68.4129C65.9894 68.3603 67.0646 67.2533 67.0646 65.8993L67.0647 64.1273H73.4592C74.5932 64.1273 75.5158 63.2047 75.5158 62.0707V55.2577C75.5158 54.1237 74.5932 53.2011 73.4592 53.2011H67.0654L67.0655 51.6191H73.4592C74.5932 51.6191 75.5158 50.6964 75.5158 49.5624V42.7496C75.5158 41.6156 74.5932 40.6929 73.4592 40.6929H67.0661L67.0662 39.1109H73.4593ZM73.4593 37.5288H67.0663L67.0664 36.0949H73.9339V37.0542C73.9339 37.3159 73.721 37.5288 73.4593 37.5288ZM73.9339 34.5129H67.0665L67.0666 32.9308H73.9339V34.5129ZM73.4593 29.7668C73.721 29.7668 73.9339 29.9797 73.9339 30.2414V31.3488H67.0667L67.0668 29.7668H73.4593ZM29.9247 49.6732C28.3125 49.795 27.0005 50.2944 26.0694 51.104V43.8003C26.0694 41.1015 28.3629 40.4257 29.9247 40.2785V49.6732ZM26.0694 54.7839C26.0694 52.0849 28.3629 51.4091 29.9247 51.2619V63.5216C28.3883 63.837 27.0396 64.6721 26.0694 65.8338V54.7839ZM64.5484 66.8333H31.2959C29.4442 66.8333 27.9378 68.3397 27.9378 70.1914C27.9378 72.043 29.4442 73.5494 31.2959 73.5494H37.3462C37.7831 73.5494 38.1372 73.1953 38.1372 72.7584C38.1372 72.3214 37.7831 71.9673 37.3462 71.9673H31.2959C30.3166 71.9673 29.5199 71.1706 29.5199 70.1914C29.5199 69.2121 30.3166 68.4154 31.2959 68.4154H62.9826C62.6553 69.5799 62.6553 70.8028 62.9826 71.9673H41.0376C40.6006 71.9673 40.2466 72.3214 40.2466 72.7584C40.2466 73.1953 40.6006 73.5494 41.0376 73.5494H64.5484C65.0636 73.5494 65.4826 73.9685 65.4826 74.4836C65.4826 74.9987 65.0636 75.418 64.5484 75.418H31.2959C28.414 75.418 26.0694 73.0734 26.0694 70.1914C26.0694 67.3095 28.4139 64.9649 31.2959 64.9649H64.5484C65.0636 64.9649 65.4826 65.384 65.4826 65.8991C65.4827 66.4143 65.0636 66.8333 64.5484 66.8333ZM69.9016 62.5452V54.783H71.1673V62.5452H69.9016ZM73.9339 55.2577V62.0707C73.9339 62.3324 73.721 62.5453 73.4593 62.5453H72.7494V54.7831H73.4593C73.721 54.7831 73.9339 54.996 73.9339 55.2577ZM68.3196 54.7831V62.5453H67.0649L67.0654 54.7831H68.3196ZM73.9339 42.7496V49.5624C73.9339 49.8241 73.721 50.037 73.4593 50.037H71.285V42.2749H73.4593C73.721 42.2749 73.9339 42.4878 73.9339 42.7496ZM69.7028 42.2749V50.037H67.0656L67.0657 47.8903C67.0657 47.4535 66.7116 47.0993 66.2747 47.0993C65.8378 47.0993 65.4837 47.4534 65.4837 47.8903L65.4827 63.5636C65.1936 63.4475 64.8785 63.3829 64.5483 63.3829H31.5067V35.4935C31.5067 35.0566 31.1526 34.7025 30.7157 34.7025C30.2787 34.7025 29.9247 35.0566 29.9247 35.4935V38.6898C28.3125 38.8117 27.0005 39.3111 26.0694 40.1207V28.1409C26.0694 26.1785 27.6658 24.582 29.6283 24.582H29.9248V31.8021C29.9248 32.2391 30.2788 32.5931 30.7158 32.5931C31.1527 32.5931 31.5068 32.2391 31.5068 31.8021V24.582H61.9261C63.8884 24.582 65.4849 26.1785 65.4849 28.1409L65.484 44.1988C65.484 44.6356 65.838 44.9898 66.275 44.9898C66.7118 44.9898 67.066 44.6358 67.066 44.1988L67.0661 42.2749H69.7028Z" fill="black"/>
<path d="M58.1813 34.6791C57.9212 34.3282 57.426 34.2546 57.0749 34.5146C56.7239 34.7748 56.6502 35.27 56.9103 35.621C58.5028 37.7695 59.1923 40.4381 58.9089 43.0387L58.2682 42.7156C57.7363 42.4472 57.3463 41.9617 57.1977 41.3799C57.0599 40.7864 56.5489 40.0492 55.8618 39.7117C55.3141 39.4252 54.698 39.2622 54.0802 39.2408L53.6922 39.2273C53.0682 39.2056 52.4947 38.8784 52.158 38.3523C51.8488 37.8836 51.7444 37.0166 52.1256 36.3753C52.5538 35.6281 52.5076 34.6922 52.0079 33.991C51.5479 33.3454 50.7147 33.1051 49.9812 33.4058C49.5829 33.5697 49.1447 33.5679 48.7476 33.4015C47.8553 33.028 47.1316 32.3793 46.6649 31.5486C48.6301 31.1958 50.6574 31.4138 52.5427 32.2033C53.1683 32.4653 53.7686 32.7873 54.327 33.1602C54.6903 33.403 55.1816 33.305 55.4241 32.9419C55.6667 32.5787 55.569 32.0873 55.2057 31.8448C54.5632 31.4157 53.8728 31.0454 53.154 30.7441C50.1812 29.4992 46.902 29.487 43.9198 30.7102C40.9381 31.9333 38.6109 34.2451 37.3668 37.2196C33.976 45.406 40.156 53.9523 48.4953 53.9587C54.0574 54.0347 59.2742 49.8253 60.3148 44.2896C60.9837 40.9695 60.234 37.4486 58.1813 34.6791ZM38.8263 37.83C39.3627 36.5478 40.1311 35.4078 41.0852 34.4541C41.0857 34.4959 41.0858 34.5377 41.0879 34.5793C41.1236 35.2883 41.3738 35.9582 41.8116 36.5169C42.1026 36.8882 42.1825 37.3758 42.025 37.8213L41.9278 38.0964C41.7091 38.7153 41.2328 39.2055 40.6211 39.4412C39.8186 39.7505 39.2466 40.472 39.1285 41.3243L38.8873 43.0639C38.8785 43.3262 38.5369 43.6765 38.2105 43.8857C37.824 41.9166 37.9955 39.8164 38.8263 37.83ZM52.4717 51.5864C50.0052 52.5982 47.3046 52.6364 44.8223 51.7043C45.4189 51.1016 45.9434 50.3797 46.0571 49.4611C46.1062 49.0638 46.2221 48.696 46.4001 48.3712C46.5674 48.15 46.5711 47.9736 47.3873 47.5992L49.0972 46.9012C49.5793 46.7547 49.6384 46.8659 49.7346 47.0486C49.7822 47.1392 50.1658 47.7952 50.3944 48.1853C51.1093 49.377 52.6045 49.8468 53.8723 49.2776C54.0736 49.1872 54.2955 49.1558 54.5143 49.1875L55.8335 49.3775C54.8792 50.3126 53.7447 51.0642 52.4717 51.5864ZM57.0435 47.9536L54.7399 47.6217C54.2239 47.5472 53.7003 47.6209 53.2246 47.8342C52.6873 48.0751 52.0538 47.8763 51.7552 47.3786C51.4778 46.9052 51.1689 46.375 51.134 46.311C50.8457 45.7635 50.1319 44.9171 48.5926 45.4013C48.5441 45.4132 46.8961 46.0935 46.7891 46.1346C46.1448 46.4042 45.4305 46.8422 45.0141 47.6081C44.738 48.1122 44.5606 48.6704 44.4868 49.2669C44.4093 49.8935 43.8641 50.4646 43.2837 50.9819C41.0998 49.7317 39.5053 47.7719 38.6719 45.524C39.4239 44.9848 40.3184 44.3535 40.4541 43.2817L40.6954 41.5419C40.7346 41.2593 40.924 41.0202 41.1898 40.9177C42.2336 40.5154 43.0463 39.6793 43.4192 38.6237L43.5164 38.3487C43.8552 37.3903 43.6832 36.3408 43.0566 35.5413C42.8214 35.241 42.6869 34.8811 42.6676 34.5001C42.6539 34.2271 42.7023 33.9495 42.8078 33.6974L43.163 32.848C43.5951 32.5938 44.0479 32.3678 44.52 32.1742C44.7104 32.0961 44.9024 32.0244 45.0955 31.9579C45.7172 33.2715 46.7864 34.2958 48.1363 34.861C48.9235 35.1907 49.7919 35.1937 50.5819 34.8695C50.6315 34.8491 50.6881 34.8653 50.7194 34.9093C50.8618 35.1092 50.8749 35.3759 50.7534 35.5879C50.1273 36.6166 50.1306 38.1299 50.8252 39.2052C51.4423 40.1696 52.4933 40.769 53.6369 40.8086L54.0249 40.8221C54.4073 40.8355 54.7888 40.9363 55.1277 41.1136C55.3263 41.2082 55.5619 41.4231 55.6656 41.7754C55.9265 42.7966 56.6154 43.6542 57.5557 44.1286L58.6029 44.6565C58.4854 45.0876 58.34 45.5133 58.1654 45.9306C57.8633 46.6532 57.4849 47.329 57.0435 47.9536Z" fill="black"/>
<path d="M56.141 56.4548H40.8503C40.0071 56.4548 39.321 57.1409 39.321 57.9841V59.8826C39.321 60.7258 40.0071 61.4119 40.8503 61.4119H56.1411C56.9843 61.4119 57.6704 60.7258 57.6704 59.8826V57.9841C57.6703 57.1409 56.9843 56.4548 56.141 56.4548ZM56.0883 59.8298H40.9031V58.0369H56.0884V59.8298H56.0883Z" fill="black"/>
</g>
<path d="M83.5545 4C83.5545 4 84.7572 11.8893 94.1091 12.4348C84.7572 12.9803 83.5545 20.8696 83.5545 20.8696C83.5545 20.8696 82.3518 12.9803 73 12.4348C82.3518 11.8893 83.5545 4 83.5545 4Z" fill="#0EBED9"/>
<path d="M15.5 81C15.5 81 16.2407 86.1443 22 86.5C16.2407 86.8557 15.5 92 15.5 92C15.5 92 14.7593 86.8557 9 86.5C14.7593 86.1443 15.5 81 15.5 81Z" fill="#0EBED9"/>
<defs>
<clipPath id="clip0_878_4">
<rect width="54" height="54" fill="white" transform="translate(23 23)"/>
</clipPath>
</defs>
</svg>
