<svg width="100" height="100" viewBox="0 0 100 100" fill="none" xmlns="http://www.w3.org/2000/svg">
<circle cx="50" cy="50" r="50" fill="#DCF1FF"/>
<path d="M40.2708 65.9364H62.7759V40.6235C61.3189 39.1422 59.586 37.9929 56.8938 37.9929C49.3309 37.9929 49.3309 47.068 41.768 47.068C41.2322 47.068 40.7355 47.0223 40.2708 46.9374V65.9364Z" fill="#B3E59F"/>
<path d="M41.768 47.068C42.1745 47.068 42.5586 47.0415 42.9237 46.9916V65.9365H40.2708V46.9375C40.7354 47.0224 41.2322 47.068 41.768 47.068Z" fill="#95D6A4"/>
<path d="M40.2707 65.8972V46.8981C34.8715 45.9176 33.8602 39.6695 28.8303 38.2444V65.8972H40.2707Z" fill="#FFE177"/>
<path d="M31.4832 39.6366V65.8972H28.8303V38.2444C29.8586 38.5351 30.7192 39.0286 31.4832 39.6366Z" fill="#FFD15B"/>
<path d="M72.0357 65.9357H62.792V40.6228C65.4311 43.3022 67.164 47.0672 72.0357 47.0672V65.9357Z" fill="#FFE177"/>
<path d="M65.4454 43.6723V65.9355H62.7925V40.6226C63.7306 41.5755 64.554 42.6642 65.4454 43.6723Z" fill="#FFD15B"/>
<path d="M76.7668 65.262L72.2455 60.7408C71.9346 60.4299 71.4308 60.4299 71.12 60.7408C70.8092 61.0516 70.8092 61.5555 71.12 61.8662L74.283 65.0291H63.1637V42.6009C63.2549 42.7097 63.346 42.8189 63.4374 42.9287C65.3218 45.1898 67.4575 47.7525 71.6117 47.7525C72.0513 47.7525 72.4076 47.3961 72.4076 46.9566C72.4076 46.5171 72.0513 46.1607 71.6117 46.1607C68.2029 46.1607 66.4821 44.0958 64.6602 41.9095C62.7757 39.6484 60.6401 37.0857 56.4859 37.0857C52.3328 37.0857 50.1972 39.6478 48.3129 41.9081C47.485 42.9013 46.703 43.8394 45.7736 44.5943C45.4325 44.8714 45.3805 45.3726 45.6576 45.7138C45.9347 46.055 46.4361 46.1068 46.7772 45.8298C47.8267 44.9773 48.6954 43.9352 49.5355 42.9272C51.3573 40.7416 53.0781 38.6773 56.4859 38.6773C58.7521 38.6773 60.272 39.5906 61.572 40.8449V65.0291H58.2772C57.8375 65.0291 57.4813 65.3855 57.4813 65.825C57.4813 66.2645 57.8375 66.6209 58.2772 66.6209H74.2823L71.1199 69.7832C70.809 70.094 70.809 70.598 71.1199 70.9087C71.2753 71.0642 71.479 71.1418 71.6827 71.1418C71.8863 71.1418 72.0901 71.0642 72.2455 70.9087L76.7668 66.3874C77.0776 66.0768 77.0776 65.5729 76.7668 65.262Z" fill="black"/>
<path d="M54.5631 65.0293H40.6587V47.7264C40.8862 47.7431 41.1194 47.7525 41.3602 47.7525C41.9432 47.7525 42.5088 47.7019 43.0414 47.602C43.4734 47.521 43.7579 47.1051 43.6769 46.6731C43.5958 46.2411 43.1803 45.9568 42.748 46.0376C42.3119 46.1194 41.8451 46.1609 41.3603 46.1609C37.9527 46.1609 36.2321 44.0964 34.4105 41.9107C32.9876 40.2034 31.5194 38.4433 29.2184 37.5958V27.5158L32.3811 30.6784C32.5364 30.8338 32.7402 30.9116 32.9438 30.9116C33.1474 30.9116 33.3512 30.8339 33.5065 30.6784C33.8174 30.3676 33.8174 29.8637 33.5065 29.553L28.9854 25.0318C28.9668 25.0132 28.9472 24.9956 28.9268 24.9788C28.918 24.9716 28.9085 24.9653 28.8995 24.9585C28.8878 24.9497 28.8764 24.9406 28.8643 24.9326C28.8533 24.9253 28.8419 24.9189 28.8307 24.9121C28.8196 24.9055 28.8088 24.8986 28.7974 24.8925C28.786 24.8863 28.7742 24.8811 28.7625 24.8756C28.7506 24.87 28.7391 24.8641 28.7269 24.859C28.7155 24.8544 28.7039 24.8505 28.6925 24.8464C28.6795 24.8417 28.6667 24.8368 28.6533 24.8327C28.642 24.8293 28.6304 24.8268 28.6188 24.8239C28.6052 24.8204 28.5917 24.8167 28.5778 24.8138C28.5648 24.8113 28.5518 24.8098 28.5388 24.8079C28.5261 24.806 28.5137 24.8036 28.5007 24.8024C28.4778 24.8001 28.4549 24.7992 28.432 24.7989C28.4288 24.7989 28.4257 24.7983 28.4225 24.7983C28.4193 24.7983 28.4163 24.7988 28.4131 24.7989C28.3902 24.7992 28.3671 24.8001 28.3443 24.8024C28.3314 24.8036 28.3189 24.806 28.3062 24.8079C28.2933 24.8098 28.2802 24.8113 28.2673 24.8138C28.2534 24.8166 28.2398 24.8204 28.2261 24.8239C28.2146 24.8268 28.2031 24.8293 28.1917 24.8327C28.1785 24.8368 28.1656 24.8417 28.1526 24.8464C28.1411 24.8505 28.1294 24.8544 28.1182 24.859C28.1061 24.864 28.0944 24.87 28.0825 24.8756C28.0709 24.8811 28.0591 24.8863 28.0476 24.8925C28.0363 24.8986 28.0254 24.9055 28.0143 24.9121C28.0031 24.9188 27.9917 24.9251 27.9808 24.9325C27.9686 24.9406 27.9571 24.9497 27.9453 24.9585C27.9363 24.9653 27.927 24.9715 27.9182 24.9787C27.8978 24.9954 27.8783 25.013 27.8596 25.0317L23.3384 29.553C23.0276 29.8638 23.0276 30.3677 23.3384 30.6784C23.4938 30.8338 23.6975 30.9116 23.9011 30.9116C24.1048 30.9116 24.3085 30.8339 24.4639 30.6784L27.6267 27.5158V65.0293H23.7959C23.3563 65.0293 23 65.3856 23 65.8251C23 66.2647 23.3563 66.621 23.7959 66.621H27.6267V71.4908C27.6267 71.9303 27.983 72.2866 28.4225 72.2866C28.8621 72.2866 29.2184 71.9303 29.2184 71.4908V66.621H54.5631C55.0028 66.621 55.359 66.2647 55.359 65.8251C55.359 65.3856 55.0028 65.0293 54.5631 65.0293ZM29.2184 39.3256C30.8262 40.1005 31.9799 41.4803 33.1877 42.9296C34.6892 44.7314 36.3517 46.7233 39.0669 47.4584V65.0294H29.2184V39.3256Z" fill="black"/>
<path d="M51.2124 55.3456C50.7279 55.3456 50.4514 55.0821 50.3783 55.0014C50.0831 54.6757 49.5799 54.6509 49.2541 54.9461C48.9284 55.2412 48.9036 55.7445 49.1988 56.0703C49.6982 56.6213 50.4322 56.9375 51.2125 56.9375C52.212 56.9375 53.0532 56.2891 53.2127 55.3959C53.3291 54.7438 53.0401 53.8257 51.8428 53.3842C51.4107 53.2247 51.004 53.0526 50.8145 52.9706C50.8211 52.946 50.8533 52.9075 50.9388 52.8817C51.3219 52.7661 51.8264 53.0382 51.9739 53.1432C52.3273 53.4004 52.8229 53.3245 53.0826 52.9721C53.3435 52.6184 53.2683 52.1201 52.9146 51.8592C52.793 51.7694 51.6912 50.9927 50.4798 51.3577C49.8083 51.5599 49.3325 52.0936 49.2382 52.7504C49.1487 53.3737 49.4192 53.9732 49.944 54.3154C49.9792 54.3384 50.016 54.3584 50.0544 54.3755C50.0784 54.3862 50.6494 54.6405 51.292 54.8774C51.5708 54.9803 51.6496 55.0946 51.6458 55.1162C51.6335 55.1836 51.4917 55.3456 51.2124 55.3456Z" fill="black"/>
<path d="M40.6585 69.4358C40.319 69.4358 40.03 69.6488 39.9156 69.948C39.5664 69.7771 39.1741 69.6807 38.7598 69.6807C37.3051 69.6807 36.1218 70.8641 36.1218 72.3186C36.1218 73.7733 37.3052 74.9566 38.7598 74.9566C39.1741 74.9566 39.5664 74.8602 39.9156 74.6893C40.03 74.9885 40.319 75.2015 40.6585 75.2015C41.098 75.2015 41.4544 74.8451 41.4544 74.4056V70.2316C41.4544 69.7921 41.098 69.4358 40.6585 69.4358ZM38.7599 73.3648C38.1829 73.3648 37.7137 72.8955 37.7137 72.3186C37.7137 71.7418 38.183 71.2724 38.7599 71.2724C39.3367 71.2724 39.8061 71.7418 39.8061 72.3186C39.806 72.8956 39.3367 73.3648 38.7599 73.3648Z" fill="black"/>
<path d="M62.368 69.4938C61.9081 69.4938 61.4809 69.6038 61.1059 69.7978V68.268C61.1059 67.8285 60.7497 67.4722 60.31 67.4722C59.8704 67.4722 59.5142 67.8285 59.5142 68.268V74.4057C59.5142 74.8452 59.8704 75.2016 60.31 75.2016C60.5936 75.2016 60.8418 75.0529 60.9828 74.8296C61.3862 75.0658 61.857 75.2016 62.368 75.2016C63.9417 75.2016 65.222 73.9214 65.222 72.3477C65.222 70.774 63.9417 69.4938 62.368 69.4938ZM62.368 73.6098C61.672 73.6098 61.1059 73.0437 61.1059 72.3477C61.1059 71.6517 61.672 71.0854 62.368 71.0854C63.0641 71.0854 63.6303 71.6517 63.6303 72.3477C63.6303 73.0437 63.064 73.6098 62.368 73.6098Z" fill="black"/>
<path d="M42.9863 31.1863V34.4193C42.9863 34.8588 43.3427 35.2152 43.7822 35.2152C44.2217 35.2152 44.5781 34.8588 44.5781 34.4193V31.1934H44.7001C45.1396 31.1934 45.496 30.837 45.496 30.3975C45.496 29.958 45.1396 29.6016 44.7001 29.6016H44.5781V29.0656C44.6532 29.0559 44.7565 29.0555 44.8343 29.0671C45.2652 29.1377 45.6733 28.8476 45.7473 28.4164C45.8217 27.9832 45.5309 27.5717 45.0977 27.4974C44.9334 27.4691 44.0837 27.3538 43.4892 27.8548C43.1649 28.1281 42.9863 28.5318 42.9863 28.9915V29.6087C42.5944 29.6584 42.2913 29.9923 42.2913 30.3975C42.2913 30.8028 42.5945 31.1366 42.9863 31.1863Z" fill="black"/>
<path d="M51.7201 34.0365C51.8637 34.1447 52.0319 34.1969 52.1987 34.1969C52.4399 34.1969 52.6784 34.0876 52.8347 33.8802L53.8301 32.5601L54.8887 33.9551C55.0454 34.1614 55.283 34.2698 55.5233 34.2698C55.6909 34.2698 55.86 34.217 56.0038 34.1079C56.354 33.8422 56.4223 33.343 56.1566 32.9928L54.8259 31.2394L55.927 29.7791C56.1916 29.4281 56.1216 28.9291 55.7707 28.6644C55.4195 28.3996 54.9206 28.4698 54.656 28.8208L53.8259 29.9217L52.9888 28.8187C52.7231 28.4687 52.2237 28.4001 51.8737 28.6659C51.5235 28.9316 51.4551 29.4308 51.7208 29.781L52.83 31.2424L51.5637 32.9218C51.2991 33.2729 51.3692 33.7719 51.7201 34.0365Z" fill="black"/>
<path d="M48.4848 34.6408C48.5527 34.6408 48.6217 34.632 48.6903 34.6137C49.115 34.5005 49.3675 34.0644 49.2543 33.6397C48.5577 31.0266 49.2123 29.2558 49.2259 29.2202C49.3861 28.813 49.1876 28.3524 48.7808 28.1897C48.3727 28.0265 47.9096 28.225 47.7463 28.6331C47.7102 28.7234 46.8715 30.8813 47.7163 34.0497C47.8111 34.4058 48.133 34.6408 48.4848 34.6408Z" fill="black"/>
<path d="M58.4677 33.6397C58.3546 34.0644 58.6071 34.5005 59.0317 34.6137C59.1003 34.632 59.1694 34.6408 59.2373 34.6408C59.589 34.6408 59.9109 34.4057 60.0058 34.0497C60.8506 30.8813 60.0119 28.7234 59.9758 28.6331C59.8126 28.225 59.3494 28.0265 58.9412 28.1897C58.5331 28.3529 58.3346 28.8161 58.4978 29.2242C58.5047 29.2415 59.1666 31.0186 58.4677 33.6397Z" fill="black"/>
<path d="M83.5545 4C83.5545 4 84.7572 11.8893 94.1091 12.4348C84.7572 12.9803 83.5545 20.8696 83.5545 20.8696C83.5545 20.8696 82.3518 12.9803 73 12.4348C82.3518 11.8893 83.5545 4 83.5545 4Z" fill="#0EBED9"/>
<path d="M15.5 81C15.5 81 16.2407 86.1443 22 86.5C16.2407 86.8557 15.5 92 15.5 92C15.5 92 14.7593 86.8557 9 86.5C14.7593 86.1443 15.5 81 15.5 81Z" fill="#0EBED9"/>
</svg>
