<svg  viewBox="0 0 72 72" fill="none" xmlns="http://www.w3.org/2000/svg">
<path d="M1.93994 46.5383V49.9751C1.93994 53.7384 4.99079 56.7894 8.75432 56.7894H63.2454C67.0088 56.7894 70.0598 53.7386 70.0598 49.9751V46.5383H1.93994Z" fill="#CEE8FA"/>
<path d="M42.3864 68.0752H29.6128C28.5413 68.0752 27.6729 67.2065 27.6729 66.1352V56.1294H31.5527V64.1953H40.4465V56.1294H44.3263V66.1352C44.3263 67.2067 43.4578 68.0752 42.3864 68.0752Z" fill="#2D527C"/>
<path d="M63.2454 58.7294H8.75429C3.92722 58.7294 0 54.8022 0 49.975V12.6792C0 7.85188 3.92722 3.9248 8.75429 3.9248H63.2457C68.0728 3.9248 72 7.85202 72 12.6792V49.975C71.9997 54.8022 68.0725 58.7294 63.2454 58.7294ZM8.75429 7.80449C6.06654 7.80449 3.87983 9.9912 3.87983 12.6791V49.9748C3.87983 52.6626 6.06654 54.8494 8.75429 54.8494H63.2457C65.9335 54.8494 68.1202 52.6627 68.1202 49.9748V12.6792C68.1202 9.99148 65.9337 7.80463 63.2457 7.80463C63.2456 7.80449 8.75429 7.80449 8.75429 7.80449Z" fill="#2D527C"/>
<path d="M50.9027 68.0751H21.0971C20.0257 68.0751 19.1572 67.2065 19.1572 66.1352C19.1572 65.0639 20.0257 64.1953 21.0971 64.1953H50.9025C51.9738 64.1953 52.8424 65.0639 52.8424 66.1352C52.8424 67.2065 51.9739 68.0751 50.9027 68.0751Z" fill="#2D527C"/>
<path d="M69.9626 48.5428H59.9375C58.8662 48.5428 57.9976 47.6742 57.9976 46.6029C57.9976 45.5316 58.8662 44.663 59.9375 44.663H69.9627C71.034 44.663 71.9026 45.5316 71.9026 46.6029C71.9028 47.6742 71.034 48.5428 69.9626 48.5428Z" fill="#2D527C"/>
<path d="M50.3855 48.5428H2.03708C0.965665 48.5428 0.097168 47.6742 0.097168 46.6029C0.097168 45.5316 0.965665 44.663 2.03708 44.663H50.3855C51.4567 44.663 52.3254 45.5316 52.3254 46.6029C52.3254 47.6742 51.4567 48.5428 50.3855 48.5428Z" fill="#2D527C"/>
<path d="M17.6604 35.1537V27.6771C17.6604 25.547 19.3873 23.8199 21.5176 23.8199C23.6478 23.8199 25.3748 25.5468 25.3748 27.6771V35.1537C25.3748 37.2839 23.6479 39.0109 21.5176 39.0109C19.3873 39.011 17.6604 37.2842 17.6604 35.1537Z" fill="#CEE8FA"/>
<path d="M21.5176 40.9508C18.321 40.9508 15.7205 38.3504 15.7205 35.1537V27.6769C15.7205 24.4803 18.3212 21.8798 21.5176 21.8798C24.714 21.8798 27.3147 24.4802 27.3147 27.6769V35.1537C27.3148 38.3504 24.7141 40.9508 21.5176 40.9508ZM21.5176 25.7599C20.4603 25.7599 19.6003 26.6201 19.6003 27.6771V35.154C19.6003 36.2111 20.4605 37.0713 21.5176 37.0713C22.5746 37.0713 23.4348 36.2111 23.4348 35.154V27.677C23.435 26.6199 22.5748 25.7599 21.5176 25.7599Z" fill="#2D527C"/>
<path d="M32.1428 35.1537V22.0662C32.1428 19.936 33.8697 18.209 36 18.209C38.1302 18.209 39.8572 19.9359 39.8572 22.0662V35.1537C39.8572 37.2838 38.1303 39.0109 36 39.0109C33.8698 39.011 32.1428 37.2841 32.1428 35.1537Z" fill="#CEE8FA"/>
<path d="M36 40.9509C32.8034 40.9509 30.2029 38.3505 30.2029 35.1538V22.0661C30.2029 18.8696 32.8036 16.269 36 16.269C39.1964 16.269 41.7971 18.8695 41.7971 22.0661V35.1538C41.7971 38.3505 39.1965 40.9509 36 40.9509ZM36 20.1492C34.9428 20.1492 34.0827 21.0094 34.0827 22.0664V35.1541C34.0827 36.2111 34.9429 37.0713 36 37.0713C37.0571 37.0713 37.9173 36.2111 37.9173 35.1541V22.0664C37.9173 21.0091 37.0571 20.1492 36 20.1492Z" fill="#2D527C"/>
<path d="M46.625 35.1537V16.4555C46.625 14.3253 48.3519 12.5983 50.4822 12.5983C52.6124 12.5983 54.3394 14.3251 54.3394 16.4555V35.1537C54.3394 37.2839 52.6125 39.0109 50.4822 39.0109C48.3519 39.011 46.625 37.2842 46.625 35.1537Z" fill="#CEE8FA"/>
<path d="M50.4822 40.9508C47.2856 40.9508 44.6851 38.3504 44.6851 35.1537V16.4554C44.6851 13.2589 47.2855 10.6583 50.4822 10.6583C53.6787 10.6583 56.2794 13.2588 56.2794 16.4554V35.154C56.2793 38.3504 53.6787 40.9508 50.4822 40.9508ZM50.4822 14.5382C49.4251 14.5382 48.5649 15.3984 48.5649 16.4554V35.154C48.5649 36.2111 49.4251 37.0712 50.4822 37.0712C51.5394 37.0712 52.3996 36.2111 52.3996 35.154V16.4554C52.3994 15.3982 51.5395 14.5382 50.4822 14.5382Z" fill="#2D527C"/>
</svg>
