<svg width="72" height="72" viewBox="0 0 72 72" fill="none" xmlns="http://www.w3.org/2000/svg">
<g clip-path="url(#clip0_301_9740)">
<path d="M2.18026 36.5558C0.976363 36.5558 0 35.5798 0 34.3756V2.70052C0 1.49635 0.976363 0.520264 2.18026 0.520264C3.38415 0.520264 4.36052 1.49635 4.36052 2.70052V34.3754C4.36066 35.5798 3.38429 36.5558 2.18026 36.5558Z" fill="#2D527C"/>
<path d="M50.3352 71.4797H2.18026C0.976363 71.4797 0 70.5037 0 69.2995V45.2822C0 44.078 0.976363 43.1019 2.18026 43.1019C3.38415 43.1019 4.36052 44.078 4.36052 45.2822V67.1191H50.3351C51.5391 67.1191 52.5153 68.0952 52.5153 69.2993C52.5155 70.5037 51.5394 71.4797 50.3352 71.4797Z" fill="#2D527C"/>
<path d="M68.7786 71.4797H61.0079C59.8039 71.4797 58.8276 70.5036 58.8276 69.2994C58.8276 68.0952 59.804 67.1191 61.0079 67.1191H68.7786C69.9826 67.1191 70.9589 68.0952 70.9589 69.2994C70.9589 70.5036 69.9828 71.4797 68.7786 71.4797Z" fill="#2D527C"/>
<path d="M18.7682 55.3033C22.6129 55.3033 25.7297 52.1865 25.7297 48.3418C25.7297 44.497 22.6129 41.3802 18.7682 41.3802C14.9234 41.3802 11.8066 44.497 11.8066 48.3418C11.8066 52.1865 14.9234 55.3033 18.7682 55.3033Z" fill="#CEE8FA"/>
<path d="M62.8587 23.936C66.7035 23.936 69.8203 20.8192 69.8203 16.9745C69.8203 13.1297 66.7035 10.0129 62.8587 10.0129C59.014 10.0129 55.8972 13.1297 55.8972 16.9745C55.8972 20.8192 59.014 23.936 62.8587 23.936Z" fill="#CEE8FA"/>
<path d="M62.8584 7.8324C57.8177 7.8324 53.7166 11.9336 53.7166 16.9742C53.7166 20.3649 55.5739 23.3285 58.3228 24.9066L55.3195 34.2564L50.8977 33.5652C49.9933 29.4692 46.3361 26.395 41.9723 26.395C36.9316 26.395 32.8305 30.4962 32.8305 35.5368C32.8305 38.1063 33.8976 40.4298 35.6103 42.0923L31.1731 50.688L27.9009 48.7539C27.9069 48.6173 27.9113 48.4805 27.9113 48.3424C27.9113 43.3015 23.8101 39.2006 18.7692 39.2006C13.7285 39.2006 9.62745 43.3018 9.62745 48.3424C9.62745 50.5319 10.4019 52.5434 11.6903 54.1192L8.49879 60.0259C7.92644 61.0853 8.32132 62.4081 9.38051 62.9804C9.71013 63.1586 10.0651 63.2429 10.4151 63.2429C11.1904 63.2429 11.9409 62.8285 12.3353 62.0985L15.2169 56.7654C16.3094 57.2281 17.5102 57.484 18.7692 57.484C22.0887 57.484 25.0001 55.7054 26.6018 53.0513L30.9419 55.6165C31.2811 55.8169 31.6645 55.9199 32.0513 55.9199C32.2534 55.9199 32.4565 55.8917 32.6545 55.8348C33.2312 55.6688 33.7136 55.2727 33.9889 54.7396L39.3775 44.301C40.2007 44.5451 41.0712 44.6784 41.9724 44.6784C46.1739 44.6784 49.7202 41.8285 50.7854 37.9609L56.4882 38.8524C56.6019 38.8703 56.7148 38.8789 56.8266 38.8789C57.7599 38.8789 58.6077 38.278 58.9009 37.365L62.5173 26.107C62.6309 26.111 62.7442 26.1157 62.8587 26.1157C67.8994 26.1157 72.0005 22.0145 72.0005 16.9739C72.0005 11.9333 67.899 7.8324 62.8584 7.8324ZM18.7692 53.1238C16.1328 53.1238 13.988 50.979 13.988 48.3425C13.988 45.7061 16.1328 43.5613 18.7692 43.5613C21.4057 43.5613 23.5506 45.7061 23.5506 48.3425C23.5506 50.9791 21.4055 53.1238 18.7692 53.1238ZM41.9723 40.3182C39.3359 40.3182 37.191 38.1733 37.191 35.5369C37.191 32.9004 39.3359 30.7556 41.9723 30.7556C44.6087 30.7556 46.7536 32.9004 46.7536 35.5369C46.7536 38.1733 44.6087 40.3182 41.9723 40.3182ZM62.8584 21.7557C60.222 21.7557 58.0772 19.6109 58.0772 16.9745C58.0772 14.338 60.222 12.1932 62.8584 12.1932C65.4949 12.1932 67.6397 14.338 67.6397 16.9745C67.6397 19.6109 65.4949 21.7557 62.8584 21.7557Z" fill="#2D527C"/>
</g>
<defs>
<clipPath id="clip0_301_9740">
<rect width="72" height="72" fill="white"/>
</clipPath>
</defs>
</svg>
