<svg width="72" height="72" viewBox="0 0 72 72" fill="none" xmlns="http://www.w3.org/2000/svg">
<path d="M46.6106 36.4518H25.3899V33.364C25.3899 27.504 30.1403 22.7537 36.0002 22.7537C41.8602 22.7537 46.6105 27.5041 46.6105 33.364V36.4518H46.6106Z" fill="#CEE8FA"/>
<path d="M46.6102 38.3986H25.3896C24.3145 38.3986 23.4426 37.5267 23.4426 36.4516V33.3638C23.4426 26.4398 29.0758 20.8064 35.9997 20.8064C42.9237 20.8064 48.5568 26.4398 48.5568 33.3638V36.4516C48.557 37.527 47.6854 38.3986 46.6102 38.3986ZM27.3365 34.5048H44.6632V33.3639C44.6632 28.5868 40.7768 24.7004 35.9999 24.7004C31.223 24.7004 27.3365 28.5869 27.3365 33.3639V34.5048Z" fill="#2D527C"/>
<path d="M36.0003 22.6658C40.425 22.6658 44.0119 19.0789 44.0119 14.6542C44.0119 10.2296 40.425 6.6427 36.0003 6.6427C31.5757 6.6427 27.9888 10.2296 27.9888 14.6542C27.9888 19.0789 31.5757 22.6658 36.0003 22.6658Z" fill="#CEE8FA"/>
<path d="M35.9998 24.6133C30.5085 24.6133 26.041 20.1458 26.041 14.6542C26.041 9.16295 30.5085 4.69543 35.9998 4.69543C41.4911 4.69543 45.9586 9.16295 45.9586 14.6542C45.9589 20.1456 41.4911 24.6133 35.9998 24.6133ZM35.9998 8.58906C32.6555 8.58906 29.9348 11.3099 29.9348 14.6541C29.9348 17.9983 32.6556 20.7192 35.9998 20.7192C39.344 20.7192 42.0648 17.9983 42.0648 14.6541C42.0648 11.3099 39.3441 8.58906 35.9998 8.58906Z" fill="#2D527C"/>
<path d="M70.053 67.3045H52.165C51.0899 67.3045 50.218 66.4326 50.218 65.3576V62.7547C50.218 56.7495 55.1038 51.8639 61.109 51.8639C62.1841 51.8639 63.056 52.7358 63.056 53.8108C63.056 54.8859 62.1841 55.7578 61.109 55.7578C57.2508 55.7578 54.1118 58.8965 54.1118 62.7547V63.4106H68.1061V62.7547C68.1061 62.1835 68.0372 61.6155 67.9016 61.067C67.6434 60.0232 68.2803 58.9678 69.3242 58.7097C70.3672 58.451 71.4233 59.0884 71.6815 60.1325C71.8927 60.9867 71.9998 61.8689 71.9998 62.755V65.3578C72 66.4329 71.1284 67.3045 70.053 67.3045Z" fill="#2D527C"/>
<path d="M61.1057 55.7578C56.3082 55.7578 52.4053 51.8546 52.4053 47.057C52.4053 42.2595 56.3085 38.3566 61.1057 38.3566C65.903 38.3566 69.8062 42.2598 69.8062 47.057C69.8065 51.8547 65.9033 55.7578 61.1057 55.7578ZM61.1057 42.2502C58.4552 42.2502 56.299 44.4064 56.299 47.0569C56.299 49.7074 58.4552 51.8637 61.1057 51.8637C63.7562 51.8637 65.9124 49.7074 65.9124 47.0569C65.9124 44.4064 63.7564 42.2502 61.1057 42.2502Z" fill="#2D527C"/>
<path d="M19.835 67.3045H1.94695C0.871875 67.3045 0 66.4328 0 65.3577V62.7549C0 56.7496 4.88573 51.864 10.8908 51.864C11.9659 51.864 12.8378 52.7359 12.8378 53.811C12.8378 54.886 11.9659 55.7579 10.8908 55.7579C7.03266 55.7579 3.89391 58.8967 3.89391 62.7549V63.4107H17.8882V62.7549C17.8882 62.1836 17.8193 61.6157 17.6836 61.0671C17.4257 60.0234 18.0624 58.968 19.1064 58.7098C20.1495 58.4512 21.2055 59.0885 21.4637 60.1326C21.675 60.9868 21.7821 61.8691 21.7821 62.7551V65.358C21.782 66.4329 20.9101 67.3045 19.835 67.3045Z" fill="#2D527C"/>
<path d="M10.8877 55.7578C6.09016 55.7578 2.18726 51.8546 2.18726 47.057C2.18726 42.2595 6.09045 38.3566 10.8877 38.3566C15.685 38.3566 19.5882 42.2598 19.5882 47.057C19.5882 51.8547 15.685 55.7578 10.8877 55.7578ZM10.8877 42.2502C8.23723 42.2502 6.08102 44.4064 6.08102 47.0569C6.08102 49.7074 8.23723 51.8637 10.8877 51.8637C13.5382 51.8637 15.6944 49.7074 15.6944 47.0569C15.6944 44.4064 13.5382 42.2502 10.8877 42.2502Z" fill="#2D527C"/>
<path d="M36.0002 54.9235C34.9251 54.9235 34.0532 54.0516 34.0532 52.9765V43.0594C34.0532 41.9843 34.9251 41.1124 36.0002 41.1124C37.0753 41.1124 37.9471 41.9843 37.9471 43.0594V52.9765C37.9471 54.0518 37.0754 54.9235 36.0002 54.9235Z" fill="#2D527C"/>
<path d="M49.1383 54.9234H22.862C21.7869 54.9234 20.915 54.0516 20.915 52.9765C20.915 51.9014 21.7869 51.0295 22.862 51.0295H49.1383C50.2134 51.0295 51.0853 51.9014 51.0853 52.9765C51.0853 54.0516 50.2134 54.9234 49.1383 54.9234Z" fill="#2D527C"/>
</svg>
