<svg width="487" height="431" viewBox="0 0 487 431" fill="none" xmlns="http://www.w3.org/2000/svg">
<path d="M42.1205 239.675C91.5787 345.341 208.444 395.126 303.146 350.874C397.849 306.621 437.531 159.882 388.073 54.2159C338.614 -51.4502 271.342 79.1296 176.639 123.382C81.9368 167.634 -7.33759 134.009 42.1205 239.675Z" fill="#F1F6FF"/>
<path d="M203.816 345.184C313.132 345.184 401.75 340.015 401.75 333.638C401.75 327.261 313.132 322.091 203.816 322.091C94.5009 322.091 5.88318 327.261 5.88318 333.638C5.88318 340.015 94.5009 345.184 203.816 345.184Z" fill="#EDEDED"/>
<path d="M74.5968 333.056L48.8713 323.591L22.86 333.067C22.6517 333.142 22.4284 333.166 22.2089 333.137C21.9893 333.108 21.7801 333.026 21.5988 332.899C21.4175 332.772 21.2695 332.603 21.1674 332.407C21.0653 332.211 21.0121 331.993 21.0122 331.771C21.0117 331.509 21.0865 331.253 21.2276 331.032C21.3688 330.812 21.5704 330.636 21.8085 330.527L48.8713 317.94L75.6585 330.486C75.8958 330.596 76.0967 330.772 76.2377 330.993C76.3787 331.213 76.454 331.469 76.4548 331.73C76.4605 331.956 76.411 332.179 76.3104 332.38C76.2099 332.582 76.0615 332.755 75.8781 332.886C75.6947 333.017 75.482 333.101 75.2586 333.131C75.0353 333.16 74.808 333.135 74.5968 333.056Z" fill="#263238"/>
<path opacity="0.3" d="M74.5968 333.056L48.8713 323.591L22.86 333.067C22.6517 333.142 22.4284 333.166 22.2089 333.137C21.9893 333.108 21.7801 333.026 21.5988 332.899C21.4175 332.772 21.2695 332.603 21.1674 332.407C21.0653 332.211 21.0121 331.993 21.0122 331.771C21.0117 331.509 21.0865 331.253 21.2276 331.032C21.3688 330.812 21.5704 330.636 21.8085 330.527L48.8713 317.94L75.6585 330.486C75.8958 330.596 76.0967 330.772 76.2377 330.993C76.3787 331.213 76.454 331.469 76.4548 331.73C76.4605 331.956 76.411 332.179 76.3104 332.38C76.2099 332.582 76.0615 332.755 75.8781 332.886C75.6947 333.017 75.482 333.101 75.2586 333.131C75.0353 333.16 74.808 333.135 74.5968 333.056Z" fill="white"/>
<path opacity="0.2" d="M42.8075 325.794L48.8714 323.591L54.6494 325.723V320.684L48.8714 317.981L42.8075 320.786V325.794Z" fill="black"/>
<path d="M48.7283 333.24C48.1592 333.246 47.608 333.041 47.1817 332.664C46.7554 332.287 46.4844 331.765 46.4212 331.2L45.6964 323.581V260.341H51.7296V323.581L51.0048 331.2C50.9444 331.761 50.6784 332.279 50.2581 332.656C49.8378 333.033 49.2929 333.241 48.7283 333.24Z" fill="#263238"/>
<path opacity="0.3" d="M48.7283 333.24C48.1592 333.246 47.608 333.041 47.1817 332.664C46.7554 332.287 46.4844 331.765 46.4212 331.2L45.6964 323.581V260.341H51.7296V323.581L51.0048 331.2C50.9444 331.761 50.6784 332.279 50.2581 332.656C49.8378 333.033 49.2929 333.241 48.7283 333.24Z" fill="white"/>
<path opacity="0.2" d="M51.7298 260.33H45.7272V267.695H51.7298V260.33Z" fill="black"/>
<path d="M35.2736 195.163C35.739 195.151 36.1986 195.267 36.6021 195.499C37.0055 195.731 37.3371 196.07 37.5603 196.478C48.5449 214.866 52.4906 236.608 48.6672 257.678C48.6089 258.21 48.3615 258.704 47.9699 259.069C47.5784 259.434 47.0687 259.646 46.5336 259.667C44.8696 259.79 15.2444 259.667 14.1725 259.667C13.7337 259.678 13.2979 259.591 12.8963 259.414C12.4948 259.237 12.1374 258.973 11.8497 258.642C11.562 258.31 11.3511 257.92 11.232 257.497C11.113 257.075 11.0887 256.632 11.161 256.199C14.6208 236.581 10.8762 216.374 0.61561 199.294C0.378349 198.869 0.258245 198.389 0.267597 197.903C0.276949 197.417 0.415423 196.942 0.668837 196.527C0.922251 196.112 1.2815 195.771 1.70982 195.541C2.13814 195.31 2.62015 195.197 3.10649 195.214C3.96401 195.142 33.385 195.193 35.2736 195.163Z" fill="#0EBED9"/>
<path opacity="0.2" d="M35.2736 195.163C35.739 195.151 36.1986 195.267 36.6021 195.499C37.0055 195.731 37.3371 196.07 37.5603 196.478C48.5449 214.866 52.4906 236.608 48.6672 257.678C48.6089 258.21 48.3615 258.704 47.9699 259.069C47.5784 259.434 47.0687 259.646 46.5336 259.667C44.8696 259.79 15.2444 259.667 14.1725 259.667C13.7337 259.678 13.2979 259.591 12.8963 259.414C12.4948 259.237 12.1374 258.973 11.8497 258.642C11.562 258.31 11.3511 257.92 11.232 257.497C11.113 257.075 11.0887 256.632 11.161 256.199C14.6208 236.581 10.8762 216.374 0.61561 199.294C0.378349 198.869 0.258245 198.389 0.267597 197.903C0.276949 197.417 0.415423 196.942 0.668837 196.527C0.922251 196.112 1.2815 195.771 1.70982 195.541C2.13814 195.31 2.62015 195.197 3.10649 195.214C3.96401 195.142 33.385 195.193 35.2736 195.163Z" fill="black"/>
<path d="M11.161 256.179C14.6208 236.56 10.8762 216.353 0.615622 199.273C-1.22191 196.213 3.56589 193.429 5.40342 196.478C16.3828 214.868 20.3281 236.608 16.5103 257.678C15.8774 261.177 10.5281 259.718 11.161 256.21V256.179Z" fill="#0EBED9"/>
<g opacity="0.1">
<path opacity="0.1" d="M11.161 256.179C14.6208 236.56 10.8762 216.353 0.615622 199.273C-1.22191 196.213 3.56589 193.429 5.40342 196.478C16.3828 214.868 20.3281 236.608 16.5103 257.678C15.8774 261.177 10.5281 259.718 11.161 256.21V256.179Z" fill="white"/>
</g>
<path d="M103.589 254.578C96.797 252.85 89.8317 251.892 82.825 251.722C75.6075 251.538 48.6264 251.722 42.2154 251.722C34.4005 251.711 26.6151 252.681 19.042 254.608C14.2849 255.822 15.7447 262.676 20.0629 262.768C20.4406 262.768 102.037 262.768 102.333 262.768C106.754 262.931 108.397 255.812 103.589 254.578Z" fill="#0EBED9"/>
<path opacity="0.3" d="M103.589 254.578C96.797 252.85 89.8317 251.892 82.825 251.722C75.6075 251.538 48.6264 251.722 42.2154 251.722C34.4005 251.711 26.6151 252.681 19.042 254.608C14.2849 255.822 15.7447 262.676 20.0629 262.768C20.4406 262.768 102.037 262.768 102.333 262.768C106.754 262.931 108.397 255.812 103.589 254.578Z" fill="black"/>
<path d="M21.196 262.585C34.9522 259.086 49.3663 259.086 63.1225 262.585C68.3084 263.9 70.5236 255.893 65.3377 254.578C50.1297 250.722 34.1989 250.722 18.991 254.578C13.805 255.893 15.9999 263.9 21.196 262.585Z" fill="#0EBED9"/>
<g opacity="0.3">
<path opacity="0.3" d="M21.196 262.585C34.9522 259.086 49.3663 259.086 63.1225 262.585C68.3084 263.9 70.5236 255.893 65.3377 254.578C50.1297 250.722 34.1989 250.722 18.991 254.578C13.805 255.893 15.9999 263.9 21.196 262.585Z" fill="white"/>
</g>
<path d="M96.3002 211.228L105.682 210.83L108.489 209.035C108.816 208.823 109.184 208.681 109.569 208.617C109.953 208.554 110.347 208.571 110.725 208.667L112.767 209.167C113.282 209.296 113.823 209.28 114.33 209.119C114.836 208.959 115.288 208.661 115.635 208.259C115.914 207.935 116.117 207.552 116.228 207.14C116.34 206.727 116.358 206.294 116.28 205.874C116.203 205.453 116.033 205.055 115.781 204.709C115.53 204.363 115.205 204.078 114.829 203.873L111.766 202.221C111.288 201.961 110.746 201.843 110.203 201.88C109.661 201.918 109.14 202.111 108.704 202.435L103.763 206.087L96.3206 205.567L96.3002 211.228Z" fill="#FBD0CD"/>
<path d="M86.1427 174.895L82.8964 203.455L101.159 204.761L100.353 211.319C100.353 211.319 81.8858 214.543 75.1175 212.696C68.3492 210.85 77.3634 179.944 77.3634 179.944L86.1427 174.895Z" fill="#6FA926"/>
<path opacity="0.2" d="M86.1427 174.895L82.8964 203.455L101.159 204.761L100.353 211.319C100.353 211.319 81.8858 214.543 75.1175 212.696C68.3492 210.85 77.3634 179.944 77.3634 179.944L86.1427 174.895Z" fill="white"/>
<path opacity="0.1" d="M80.283 210.126C75.5156 207.647 81.9164 183.871 84.1725 176.038L77.3634 179.965C77.3634 179.965 68.3492 210.871 75.1175 212.717C79.2826 213.849 87.8577 213.074 93.8501 212.299C89.7667 212.299 83.7947 211.952 80.283 210.126Z" fill="black"/>
<path d="M69.9827 230.71C56.4988 233.222 42.748 233.997 29.0669 233.015C29.0669 233.015 32.2111 196.448 43.3588 176.435C45.1322 173.257 48.0534 170.874 51.5257 169.775C59.5292 167.286 72.4021 165.052 86.1019 174.875C86.1428 174.895 79.2112 187.808 69.9827 230.71Z" fill="#6FA926"/>
<path opacity="0.4" d="M69.9827 230.71C56.4988 233.222 42.748 233.997 29.0669 233.015C29.0669 233.015 32.2111 196.448 43.3588 176.435C45.1322 173.257 48.0534 170.874 51.5257 169.775C59.5292 167.286 72.4021 165.052 86.1019 174.875C86.1428 174.895 79.2112 187.808 69.9827 230.71Z" fill="white"/>
<path d="M76.6385 184.004C76.6385 184.222 76.5739 184.435 76.4527 184.616C76.3316 184.797 76.1594 184.938 75.9579 185.022C75.7564 185.105 75.5348 185.127 75.3209 185.084C75.107 185.042 74.9106 184.937 74.7564 184.783C74.6022 184.629 74.4972 184.432 74.4547 184.219C74.4121 184.005 74.4339 183.784 74.5174 183.582C74.6008 183.381 74.7422 183.209 74.9235 183.088C75.1048 182.967 75.3179 182.902 75.536 182.902C75.8284 182.902 76.1088 183.018 76.3156 183.225C76.5224 183.431 76.6385 183.712 76.6385 184.004Z" fill="#6FA926"/>
<path d="M72.7594 195.234C72.7594 195.452 72.6947 195.665 72.5736 195.846C72.4524 196.027 72.2802 196.168 72.0788 196.252C71.8773 196.335 71.6556 196.357 71.4417 196.314C71.2279 196.272 71.0314 196.167 70.8772 196.013C70.723 195.859 70.618 195.663 70.5755 195.449C70.533 195.235 70.5548 195.014 70.6382 194.812C70.7217 194.611 70.863 194.439 71.0443 194.318C71.2256 194.197 71.4388 194.132 71.6568 194.132C71.9492 194.132 72.2297 194.248 72.4364 194.455C72.6432 194.662 72.7594 194.942 72.7594 195.234Z" fill="#6FA926"/>
<path d="M68.1348 211.228C68.7437 211.228 69.2373 210.734 69.2373 210.126C69.2373 209.518 68.7437 209.024 68.1348 209.024C67.5258 209.024 67.0322 209.518 67.0322 210.126C67.0322 210.734 67.5258 211.228 68.1348 211.228Z" fill="#6FA926"/>
<path d="M66.3382 222.519C66.3402 222.737 66.2773 222.951 66.1574 223.134C66.0374 223.316 65.866 223.459 65.6647 223.544C65.4634 223.629 65.2414 223.652 65.0269 223.611C64.8124 223.57 64.6149 223.465 64.4597 223.312C64.3045 223.158 64.1985 222.962 64.1551 222.748C64.1117 222.534 64.133 222.312 64.2161 222.11C64.2993 221.908 64.4406 221.736 64.6221 221.614C64.8036 221.493 65.0172 221.428 65.2357 221.428C65.5263 221.428 65.8052 221.542 66.0117 221.747C66.2181 221.951 66.3355 222.229 66.3382 222.519Z" fill="#6FA926"/>
<path opacity="0.1" d="M77.9962 198.141L64.133 201.262L53.2099 198.263L48.9019 185.962L47.9729 179.047H44.9104C44.9104 179.047 41.9805 201.079 51.9849 210.126C58.2223 215.767 68.4104 212.095 75.1889 208.525C76.1757 204.689 77.1115 201.228 77.9962 198.141Z" fill="black"/>
<path d="M86.9696 297.214L82.1614 318.134L88.1334 320.449L96.7289 299.407L86.9696 297.214Z" fill="#FBD0CD"/>
<path d="M87.7863 319.072L82.3655 316.175C82.2501 316.116 82.1181 316.097 81.9905 316.121C81.8628 316.145 81.7469 316.211 81.6611 316.308L77.7921 320.786C77.7086 320.878 77.6445 320.987 77.6033 321.104C77.5622 321.222 77.5449 321.347 77.5525 321.471C77.5601 321.595 77.5925 321.717 77.6476 321.829C77.7028 321.941 77.7796 322.04 77.8738 322.122C77.9231 322.169 77.9779 322.21 78.0371 322.244C80.3136 323.417 82.3859 324.376 85.1831 325.886C88.5009 327.671 87.4392 327.61 91.3082 329.762C93.6357 331.057 95.5039 328.619 94.5749 327.956C90.3384 324.896 89.7667 322.856 88.8888 320.266C88.6752 319.749 88.2843 319.326 87.7863 319.072Z" fill="#263238"/>
<path d="M38.5915 232.321L67.8593 230.71C67.8593 230.71 116.564 238.319 115.839 251.926C115.115 265.532 95.4224 308.434 95.4224 308.434L83.8051 305.21C83.8051 305.21 92.6559 262.075 98.4237 254.924C98.4237 254.924 62.0507 250.661 52.9447 248.243C47.8914 246.907 35.8147 249.161 38.5915 232.321Z" fill="#263238"/>
<path opacity="0.2" d="M93.4522 254.333C93.6287 250.299 92.8633 246.28 91.2165 242.593C88.5113 236.473 66.2158 232.811 55.5479 231.373L38.5915 232.301C35.8148 249.141 47.8915 246.887 52.8835 248.223C59.9274 250.11 83.1722 253.078 93.4522 254.333Z" fill="black"/>
<path d="M67.0527 302.977L66.2871 324.427L72.7491 324.733L77.0469 303.283L67.0527 302.977Z" fill="#FBD0CD"/>
<path d="M72.2897 322.785L66.0217 322.918C65.8891 322.918 65.7611 322.966 65.6602 323.052C65.5593 323.137 65.4921 323.256 65.4704 323.387L64.2658 329.282C64.2243 329.533 64.2776 329.79 64.4154 330.003C64.5532 330.216 64.7656 330.37 65.011 330.435H65.2152C67.8286 330.343 70.1357 330.16 73.382 330.098C77.2204 330.027 76.2506 330.506 80.7628 330.486C83.4783 330.486 83.9172 327.426 82.8045 327.253C77.5267 326.692 75.975 325.111 73.9129 323.264C73.4507 322.908 72.8717 322.737 72.2897 322.785Z" fill="#263238"/>
<path d="M46.4214 232.321C46.4214 232.321 85.663 233.708 87.9803 245.704C90.2976 257.699 77.1286 311.432 77.1286 311.432H65.3684C65.3684 311.432 66.7466 263.227 70.6768 253.078C70.6768 253.078 38.3566 258.178 29.8427 250.824C23.7176 245.591 30.9963 232.321 30.9963 232.321H46.4214Z" fill="#263238"/>
<path d="M82.8249 302.671L97.4537 306.74L94.7791 312.361L81.4468 309.056L82.8249 302.671Z" fill="#263238"/>
<path opacity="0.3" d="M82.8249 302.671L97.4537 306.74L94.7791 312.361L81.4468 309.056L82.8249 302.671Z" fill="black"/>
<path d="M82.1512 194.112L93.84 190.267L101.323 193.612C101.674 193.767 101.982 194.004 102.221 194.305C102.459 194.605 102.62 194.959 102.691 195.336L103.477 199.589C103.541 199.93 103.53 200.281 103.443 200.616C103.357 200.952 103.197 201.264 102.976 201.531C102.755 201.798 102.477 202.013 102.163 202.16C101.849 202.308 101.506 202.384 101.16 202.384C100.609 202.383 100.075 202.192 99.6487 201.844L93.0744 196.417L82.8658 200.497L82.1512 194.112Z" fill="#FBD0CD"/>
<path d="M64.2046 308.434L78.9865 309.127L77.5982 315.013L64.2046 314.319V308.434Z" fill="#263238"/>
<path opacity="0.3" d="M64.2046 308.434L78.9865 309.127L77.5982 315.013L64.2046 314.319V308.434Z" fill="black"/>
<path d="M45.6658 174.895C47.9423 171.488 51.5663 167.929 60.7438 197.957L88.2762 191.195L89.0826 198.692C89.0826 198.692 66.6239 210.718 57.6098 209.035C48.5956 207.352 39.4079 184.259 45.6658 174.895Z" fill="#6FA926"/>
<path opacity="0.2" d="M45.6658 174.895C47.9423 171.488 51.5663 167.929 60.7438 197.957L88.2762 191.195L89.0826 198.692C89.0826 198.692 66.6239 210.718 57.6098 209.035C48.5956 207.352 39.4079 184.259 45.6658 174.895Z" fill="white"/>
<path d="M74.4436 164.44L69.2271 169.326C69.2271 169.326 71.2688 175.66 76.4649 175.66C81.661 175.66 78.5066 167.643 78.5066 167.643L74.4436 164.44Z" fill="#FBD0CD"/>
<path d="M77.2001 179.332L79.7318 178.006L80.8037 176.395L80.3545 171.397C76.1717 169.295 71.6116 168.046 66.9405 167.725L66.7466 170.05L69.5743 178.21L72.8717 179.302L77.2001 179.332Z" fill="#FBD0CD"/>
<path opacity="0.1" d="M78.5169 167.643L74.4335 164.44L73.7393 165.083C73.3412 167.47 72.8818 172.427 75.5258 174.375C75.9339 174.707 76.4159 174.936 76.9312 175.042C77.4465 175.149 77.9799 175.13 78.4863 174.987C80.6505 173.1 78.5169 167.643 78.5169 167.643Z" fill="black"/>
<path d="M75.7504 179.965L79.6705 182.005C82.4268 178.73 81.7122 174.14 81.1099 171.743C80.6505 171.499 80.1911 171.264 79.7317 171.05C80.2523 174.671 79.8338 178.649 75.5156 178.771C68.7473 178.975 67.7367 170.326 67.5836 167.735L66.1238 167.643C63.98 177.221 69.9826 182.005 69.9826 182.005L75.7504 179.965Z" fill="#6FA926"/>
<path opacity="0.2" d="M75.7504 179.965L79.6705 182.005C82.4268 178.73 81.7122 174.14 81.1099 171.743C80.6505 171.499 80.1911 171.264 79.7317 171.05C80.2523 174.671 79.8338 178.649 75.5156 178.771C68.7473 178.975 67.7367 170.326 67.5836 167.735L66.1238 167.643C63.98 177.221 69.9826 182.005 69.9826 182.005L75.7504 179.965Z" fill="white"/>
<path d="M92.4923 152.323C96.2286 154.74 95.1261 160.799 91.2264 163.288C90.1239 156.352 92.4923 152.323 92.4923 152.323Z" fill="#263238"/>
<path opacity="0.4" d="M92.4923 152.323C96.2286 154.74 95.1261 160.799 91.2264 163.288C90.1239 156.352 92.4923 152.323 92.4923 152.323Z" fill="black"/>
<path d="M75.3829 156.311C73.9843 162.696 72.8308 166.348 75.046 170.591C76.072 172.598 77.8534 174.117 79.9991 174.813C82.1447 175.509 84.4792 175.326 86.4898 174.304C88.0263 173.515 89.2892 172.281 90.1138 170.764C93.0539 165.572 94.8506 156.005 89.4911 151.558C88.3573 150.561 86.9808 149.88 85.5001 149.584C84.0194 149.288 82.4868 149.387 81.0565 149.871C79.6262 150.355 78.3488 151.207 77.3528 152.341C76.3568 153.475 75.6773 154.851 75.3829 156.331V156.311Z" fill="#FBD0CD"/>
<path d="M74.7091 162.268C78.129 164.022 80.3238 158.035 79.8134 155.128C84.2541 158.188 94.2381 157.718 97.1679 153.669C100.363 149.232 95.5652 145.509 91.2266 144.132C90.9425 144.057 90.6459 144.042 90.3555 144.087C90.0652 144.132 89.7875 144.238 89.5399 144.396C89.2923 144.554 89.0803 144.762 88.9173 145.006C88.7543 145.25 88.6437 145.526 88.5928 145.815C88.5461 146.012 88.4347 146.188 88.2763 146.315C87.3599 145.533 86.3643 144.85 85.3056 144.275C84.5649 143.911 83.7274 143.792 82.9144 143.935C82.1013 144.078 81.355 144.475 80.7832 145.07C80.2728 145.529 79.0478 145.621 76.5773 144.795C71.473 143.061 70.5849 148.63 73.0758 149.711C70.8197 151.088 67.0936 154.873 69.1047 158.198C71.1157 161.523 72.841 165.919 71.7078 166.643C72.7797 167.062 74.6275 165.96 74.7091 162.268Z" fill="#263238"/>
<path d="M71.5138 160.86C71.5472 162.322 72.1261 163.719 73.137 164.777C74.4743 166.133 76.0158 165.113 76.3629 163.308C76.6692 161.676 76.3629 159.014 74.6479 158.341C72.9328 157.667 71.5036 159.034 71.5138 160.86Z" fill="#FBD0CD"/>
<path d="M84.2847 161.095C84.1418 161.605 84.2847 162.115 84.6318 162.186C84.9789 162.257 85.3464 161.962 85.4995 161.452C85.6526 160.942 85.4995 160.432 85.1422 160.37C84.7849 160.309 84.4276 160.585 84.2847 161.095Z" fill="#263238"/>
<path d="M89.9912 162.9C89.8483 163.41 89.9912 163.92 90.3383 163.981C90.6854 164.042 91.0529 163.757 91.206 163.247C91.3591 162.737 91.206 162.227 90.8487 162.166C90.4914 162.104 90.1443 162.421 89.9912 162.9Z" fill="#263238"/>
<path d="M88.1027 162.604C88.2667 164.348 88.6579 166.062 89.2665 167.704C88.845 167.843 88.3985 167.888 87.9579 167.837C87.5172 167.786 87.0929 167.64 86.7144 167.408L88.1027 162.604Z" fill="#EBAEA8"/>
<path d="M83.0598 158.667C83.0082 158.657 82.9594 158.637 82.9168 158.606C82.8601 158.547 82.8284 158.468 82.8284 158.387C82.8284 158.305 82.8601 158.226 82.9168 158.167C83.3071 157.863 83.7654 157.657 84.2526 157.568C84.7398 157.479 85.2412 157.51 85.714 157.657C85.7516 157.672 85.7859 157.694 85.815 157.722C85.8441 157.75 85.8674 157.783 85.8835 157.82C85.8997 157.857 85.9083 157.897 85.909 157.937C85.9097 157.978 85.9024 158.018 85.8875 158.055C85.8729 158.093 85.8509 158.127 85.823 158.156C85.795 158.185 85.7616 158.208 85.7246 158.224C85.6876 158.241 85.6477 158.249 85.6074 158.25C85.567 158.251 85.5269 158.243 85.4894 158.228C85.1225 158.113 84.7332 158.089 84.3547 158.156C83.9761 158.224 83.6194 158.381 83.315 158.616C83.2799 158.645 83.2383 158.665 83.1938 158.674C83.1493 158.682 83.1032 158.68 83.0598 158.667Z" fill="#263238"/>
<path d="M93.0027 161.747C92.9571 161.725 92.9175 161.692 92.8873 161.651C92.8571 161.611 92.8371 161.563 92.8292 161.513C92.7748 161.119 92.6304 160.743 92.4074 160.414C92.1843 160.085 91.8886 159.812 91.5429 159.616C91.474 159.568 91.4268 159.495 91.4115 159.413C91.3962 159.331 91.4141 159.246 91.4612 159.177C91.498 159.122 91.5517 159.08 91.6143 159.058C91.6769 159.036 91.745 159.035 91.8083 159.055C92.2447 159.293 92.6189 159.63 92.9008 160.04C93.1827 160.449 93.3645 160.919 93.4315 161.411C93.4389 161.45 93.4384 161.491 93.4301 161.53C93.4218 161.57 93.4058 161.607 93.383 161.64C93.3603 161.673 93.3312 161.702 93.2975 161.724C93.2637 161.745 93.226 161.761 93.1865 161.768C93.1245 161.776 93.0614 161.769 93.0027 161.747Z" fill="#263238"/>
<path d="M83.8356 169.142C84.1194 169.225 84.4097 169.283 84.7033 169.316C84.7479 169.325 84.7944 169.316 84.8326 169.291C84.8708 169.267 84.8977 169.228 84.9075 169.183C84.9103 169.16 84.9082 169.136 84.9014 169.113C84.8946 169.09 84.8832 169.069 84.8679 169.051C84.8526 169.033 84.8337 169.018 84.8124 169.007C84.7911 168.997 84.7679 168.991 84.7441 168.989C84.004 168.908 83.2932 168.655 82.6677 168.251C82.0422 167.848 81.5194 167.304 81.1405 166.664C81.1307 166.643 81.1168 166.624 81.0996 166.609C81.0824 166.593 81.0622 166.581 81.0403 166.574C81.0185 166.566 80.9953 166.563 80.9722 166.564C80.949 166.566 80.9264 166.572 80.9057 166.582C80.8837 166.591 80.8638 166.604 80.8474 166.621C80.831 166.638 80.8185 166.658 80.8107 166.681C80.8029 166.703 80.8001 166.727 80.8024 166.75C80.8047 166.774 80.8121 166.796 80.8241 166.817C81.1445 167.386 81.5762 167.886 82.0935 168.285C82.6109 168.685 83.2033 168.976 83.8356 169.142Z" fill="#F99893"/>
<path d="M73.9231 149.915C73.2075 149.738 72.5521 149.374 72.0245 148.859C71.4969 148.345 71.1163 147.699 70.9218 146.988C70.878 146.854 70.795 146.736 70.6834 146.65C70.5719 146.564 70.437 146.513 70.2962 146.504C70.1554 146.495 70.0152 146.529 69.8938 146.601C69.7724 146.672 69.6753 146.779 69.6151 146.906C68.7474 148.753 68.3493 151.303 73.9231 149.915Z" fill="#2E353A"/>
<path d="M122.155 209.374C122.369 209.374 122.574 209.443 122.726 209.567C122.878 209.691 122.964 209.859 122.965 210.034V212.885C122.965 213.061 122.88 213.23 122.728 213.355C122.576 213.48 122.37 213.55 122.155 213.55H95.9085C95.8389 213.55 95.772 213.528 95.7222 213.488C95.6725 213.448 95.6438 213.393 95.6423 213.336V209.564C95.6438 209.507 95.6725 209.452 95.7222 209.412C95.772 209.372 95.8389 209.35 95.9085 209.35L122.155 209.374Z" fill="#0EBED9"/>
<path opacity="0.9" d="M106.729 209.35H95.6424V213.55H106.729C106.855 213.55 106.975 213.5 107.064 213.411C107.152 213.322 107.202 213.201 107.202 213.075V209.819C107.2 209.694 107.15 209.575 107.062 209.487C106.973 209.399 106.854 209.35 106.729 209.35Z" fill="white"/>
<path d="M109.07 209.35H135.81C136.261 209.35 136.627 209.647 136.627 210.014V212.886C136.627 213.253 136.261 213.55 135.81 213.55H109.07C108.619 213.55 108.253 213.253 108.253 212.886V210.014C108.253 209.647 108.619 209.35 109.07 209.35Z" fill="#0EBED9"/>
<path opacity="0.2" d="M109.07 209.35H135.81C136.261 209.35 136.627 209.647 136.627 210.014V212.886C136.627 213.253 136.261 213.55 135.81 213.55H109.07C108.619 213.55 108.253 213.253 108.253 212.886V210.014C108.253 209.647 108.619 209.35 109.07 209.35Z" fill="black"/>
<path opacity="0.5" d="M121.234 209.35H125.748C125.952 209.35 126.118 209.471 126.118 209.62V213.279C126.118 213.429 125.952 213.55 125.748 213.55H121.234C121.029 213.55 120.864 213.429 120.864 213.279V209.62C120.864 209.471 121.029 209.35 121.234 209.35Z" fill="#0EBED9"/>
<path opacity="0.5" d="M115.906 209.35H119.516C119.68 209.35 119.813 209.471 119.813 209.62V213.279C119.813 213.429 119.68 213.55 119.516 213.55H115.906C115.742 213.55 115.609 213.429 115.609 213.279V209.62C115.609 209.471 115.742 209.35 115.906 209.35Z" fill="#0EBED9"/>
<path d="M127.383 202.013C127.492 202.013 127.601 202.038 127.703 202.085C127.804 202.133 127.897 202.202 127.974 202.289C128.052 202.377 128.114 202.481 128.156 202.595C128.198 202.709 128.219 202.832 128.219 202.956V208.408C128.219 208.531 128.198 208.654 128.156 208.768C128.114 208.883 128.052 208.987 127.974 209.074C127.897 209.162 127.804 209.231 127.703 209.278C127.601 209.326 127.492 209.35 127.383 209.35H98.013C97.9411 209.348 97.8727 209.315 97.8224 209.257C97.7721 209.199 97.744 209.121 97.744 209.04V202.31C97.744 202.229 97.7721 202.151 97.8224 202.093C97.8727 202.035 97.9411 202.002 98.013 202L127.383 202.013Z" fill="#0EBED9"/>
<path opacity="0.9" d="M110.935 203.05H97.7441V208.3H110.935C111.06 208.3 111.18 208.251 111.268 208.165C111.356 208.078 111.405 207.961 111.405 207.838V203.523C111.407 203.462 111.396 203.4 111.373 203.343C111.35 203.286 111.316 203.233 111.272 203.189C111.228 203.145 111.176 203.11 111.118 203.086C111.06 203.062 110.998 203.05 110.935 203.05Z" fill="white"/>
<path d="M113.311 202H136.823C137.295 202 137.677 202.423 137.677 202.945V208.405C137.677 208.927 137.295 209.35 136.823 209.35H113.311C112.839 209.35 112.456 208.927 112.456 208.405V202.945C112.456 202.423 112.839 202 113.311 202Z" fill="#0EBED9"/>
<path opacity="0.2" d="M113.311 202H136.823C137.295 202 137.677 202.423 137.677 202.945V208.405C137.677 208.927 137.295 209.35 136.823 209.35H113.311C112.839 209.35 112.456 208.927 112.456 208.405V202.945C112.456 202.423 112.839 202 113.311 202Z" fill="white"/>
<path opacity="0.6" d="M115.066 203.05H131.915C132.196 203.05 132.423 203.354 132.423 203.729V207.621C132.423 207.996 132.196 208.3 131.915 208.3H115.066C114.785 208.3 114.558 207.996 114.558 207.621V203.729C114.558 203.354 114.785 203.05 115.066 203.05Z" fill="#0EBED9"/>
<path d="M238.25 195.387C237.783 195.375 237.322 195.492 236.917 195.724C236.512 195.956 236.179 196.295 235.953 196.703C224.974 215.093 221.028 236.832 224.846 257.903C224.906 258.434 225.154 258.926 225.545 259.291C225.937 259.655 226.445 259.868 226.98 259.892C228.644 260.004 258.269 259.892 259.341 259.892C259.779 259.9 260.214 259.813 260.615 259.635C261.015 259.457 261.372 259.193 261.659 258.862C261.946 258.531 262.157 258.142 262.277 257.72C262.397 257.299 262.423 256.856 262.352 256.424C258.897 236.805 262.641 216.6 272.898 199.518C273.135 199.093 273.255 198.614 273.246 198.127C273.236 197.641 273.098 197.166 272.844 196.751C272.591 196.336 272.232 195.996 271.803 195.765C271.375 195.534 270.893 195.421 270.407 195.438C269.549 195.367 240.138 195.418 238.25 195.387Z" fill="#0EBED9"/>
<path opacity="0.2" d="M238.25 195.387C237.783 195.375 237.322 195.492 236.917 195.724C236.512 195.956 236.179 196.295 235.953 196.703C224.974 215.093 221.028 236.832 224.846 257.903C224.906 258.434 225.154 258.926 225.545 259.291C225.937 259.655 226.445 259.868 226.98 259.892C228.644 260.004 258.269 259.892 259.341 259.892C259.779 259.9 260.214 259.813 260.615 259.635C261.015 259.457 261.372 259.193 261.659 258.862C261.946 258.531 262.157 258.142 262.277 257.72C262.397 257.299 262.423 256.856 262.352 256.424C258.897 236.805 262.641 216.6 272.898 199.518C273.135 199.093 273.255 198.614 273.246 198.127C273.236 197.641 273.098 197.166 272.844 196.751C272.591 196.336 272.232 195.996 271.803 195.765C271.375 195.534 270.893 195.421 270.407 195.438C269.549 195.367 240.138 195.418 238.25 195.387Z" fill="black"/>
<path d="M262.352 256.404C258.897 236.785 262.641 216.58 272.898 199.498C274.745 196.438 269.947 193.653 268.11 196.703C257.133 215.094 253.191 236.833 257.013 257.903C257.646 261.402 262.985 259.943 262.352 256.434V256.404Z" fill="#0EBED9"/>
<g opacity="0.2">
<path opacity="0.2" d="M262.352 256.404C258.897 236.785 262.641 216.58 272.898 199.498C274.745 196.438 269.947 193.653 268.11 196.703C257.133 215.094 253.191 236.833 257.013 257.903C257.646 261.402 262.985 259.943 262.352 256.434V256.404Z" fill="white"/>
</g>
<path d="M244.191 333.24L218.466 323.774L192.454 333.25C192.246 333.325 192.022 333.349 191.802 333.32C191.582 333.291 191.372 333.209 191.19 333.082C191.008 332.956 190.859 332.787 190.756 332.591C190.653 332.395 190.598 332.177 190.596 331.955C190.597 331.692 190.673 331.435 190.816 331.214C190.959 330.993 191.163 330.818 191.403 330.71L218.466 318.164L245.253 330.7C245.488 330.813 245.686 330.99 245.825 331.21C245.964 331.43 246.038 331.684 246.039 331.945C246.039 332.166 245.986 332.384 245.884 332.58C245.782 332.777 245.634 332.946 245.452 333.073C245.271 333.2 245.062 333.281 244.842 333.31C244.623 333.34 244.399 333.315 244.191 333.24Z" fill="#263238"/>
<path opacity="0.3" d="M244.191 333.24L218.466 323.774L192.454 333.25C192.246 333.325 192.022 333.349 191.802 333.32C191.582 333.291 191.372 333.209 191.19 333.082C191.008 332.956 190.859 332.787 190.756 332.591C190.653 332.395 190.598 332.177 190.596 331.955C190.597 331.692 190.673 331.435 190.816 331.214C190.959 330.993 191.163 330.818 191.403 330.71L218.466 318.164L245.253 330.7C245.488 330.813 245.686 330.99 245.825 331.21C245.964 331.43 246.038 331.684 246.039 331.945C246.039 332.166 245.986 332.384 245.884 332.58C245.782 332.777 245.634 332.946 245.452 333.073C245.271 333.2 245.062 333.281 244.842 333.31C244.623 333.34 244.399 333.315 244.191 333.24Z" fill="white"/>
<path opacity="0.2" d="M212.402 326.018L218.466 323.815L224.244 325.937V320.908L218.466 318.195L212.402 321.01V326.018Z" fill="black"/>
<path d="M218.323 333.495C217.758 333.496 217.213 333.288 216.793 332.911C216.373 332.535 216.107 332.016 216.046 331.455L215.322 323.836V260.596H221.324V323.836L220.599 331.455C220.539 332.016 220.273 332.535 219.853 332.911C219.432 333.288 218.887 333.496 218.323 333.495Z" fill="#263238"/>
<path opacity="0.3" d="M218.323 333.495C217.758 333.496 217.213 333.288 216.793 332.911C216.373 332.535 216.107 332.016 216.046 331.455L215.322 323.836V260.596H221.324V323.836L220.599 331.455C220.539 332.016 220.273 332.535 219.853 332.911C219.432 333.288 218.887 333.496 218.323 333.495Z" fill="white"/>
<path opacity="0.2" d="M221.324 260.555H215.322V267.919H221.324V260.555Z" fill="black"/>
<path d="M170.904 254.792C177.698 253.073 184.662 252.115 191.668 251.936C198.875 251.762 225.867 251.936 232.278 251.936C240.092 251.931 247.877 252.901 255.451 254.822C260.208 256.036 258.738 262.901 254.43 262.982C254.053 262.982 172.466 262.982 172.17 262.982C167.678 263.146 166.045 256.036 170.904 254.792Z" fill="#0EBED9"/>
<path opacity="0.3" d="M170.904 254.792C177.698 253.073 184.662 252.115 191.668 251.936C198.875 251.762 225.867 251.936 232.278 251.936C240.092 251.931 247.877 252.901 255.451 254.822C260.208 256.036 258.738 262.901 254.43 262.982C254.053 262.982 172.466 262.982 172.17 262.982C167.678 263.146 166.045 256.036 170.904 254.792Z" fill="black"/>
<path d="M253.246 262.799C239.485 259.31 225.07 259.31 211.31 262.799C206.134 264.125 203.919 256.118 209.104 254.792C224.312 250.936 240.243 250.936 255.451 254.792C260.627 256.118 258.432 264.125 253.246 262.799Z" fill="#0EBED9"/>
<g opacity="0.3">
<path opacity="0.3" d="M253.246 262.799C239.485 259.31 225.07 259.31 211.31 262.799C206.134 264.125 203.919 256.118 209.104 254.792C224.312 250.936 240.243 250.936 255.451 254.792C260.627 256.118 258.432 264.125 253.246 262.799Z" fill="white"/>
</g>
<path d="M213.678 161.39C213.678 161.39 208.655 160.901 210.217 153.445C211.779 145.988 211.646 138.91 222.733 139.715C222.733 139.715 231.512 137.522 233.962 145.764C236.412 154.006 240.087 159.85 234.248 162.278C226.898 165.338 225.06 158.565 225.06 158.565L214.311 159.585L213.678 161.39Z" fill="#614A43"/>
<path d="M212.034 172.304C205.674 171.397 208.737 193.5 203.03 197.58C199.876 199.763 184.012 193.898 184.012 193.898L181.776 186.758C181.721 186.575 181.625 186.407 181.496 186.266C181.367 186.125 181.208 186.014 181.031 185.942L177.723 184.626C177.506 184.546 177.27 184.527 177.042 184.57C176.814 184.613 176.602 184.717 176.429 184.871C176.255 185.024 176.126 185.222 176.056 185.443C175.985 185.664 175.976 185.9 176.029 186.125L177.223 191.399C177.273 191.629 177.387 191.841 177.55 192.011L182.154 196.897C182.154 196.897 201.07 206.077 205.634 204.536C210.983 202.772 212.963 193.041 214.29 187.247C215.332 182.861 216.904 172.998 212.034 172.304Z" fill="#FFC3BD"/>
<path d="M204.643 304.751L206.573 319.654L201.142 319.796L197.232 305.414L204.643 304.751Z" fill="#FFC3BD"/>
<path d="M201.07 318.96H207.267C207.397 318.963 207.522 319.008 207.624 319.09C207.725 319.171 207.797 319.283 207.828 319.409L209.094 325.202C209.123 325.324 209.127 325.449 209.106 325.572C209.086 325.695 209.041 325.813 208.974 325.918C208.908 326.024 208.821 326.115 208.719 326.186C208.617 326.258 208.501 326.308 208.38 326.335C208.312 326.345 208.243 326.345 208.175 326.335C205.613 326.335 203.337 326.131 200.141 326.131C196.374 326.131 197.324 326.579 192.893 326.63C190.229 326.63 189.749 323.621 190.852 323.479C196.037 322.836 197.507 321.275 199.508 319.399C199.956 319.062 200.513 318.906 201.07 318.96Z" fill="#263238"/>
<path opacity="0.1" d="M199.498 313.758L197.232 305.414L204.643 304.751L205.756 313.36L199.498 313.758Z" fill="black"/>
<path d="M223.335 215.287H214.566C213.119 219.231 212.189 223.345 211.8 227.527C211.34 233.749 223.335 229.139 223.335 229.139L224.356 220.612L223.335 215.287Z" fill="#263238"/>
<path d="M167.484 284.107L161.706 300.947L156.857 299.56L160.788 281.801L167.484 284.107Z" fill="#FFC3BD"/>
<path d="M156.949 298.264L162.911 300.07C163.037 300.102 163.148 300.176 163.226 300.28C163.303 300.384 163.344 300.511 163.34 300.641L163.115 306.557C163.113 306.686 163.084 306.813 163.03 306.931C162.977 307.048 162.9 307.154 162.805 307.241C162.709 307.328 162.597 307.394 162.475 307.436C162.352 307.478 162.223 307.495 162.094 307.485C162.03 307.495 161.964 307.495 161.9 307.485C159.43 306.791 157.255 306.088 154.162 305.282C150.518 304.333 151.324 305.006 147.016 303.946C144.423 303.313 144.719 300.253 145.852 300.396C151.028 301.069 152.866 299.692 155.265 298.407C155.788 298.149 156.39 298.098 156.949 298.264Z" fill="#263238"/>
<path opacity="0.1" d="M164.33 293.287L158.572 291.808L160.788 281.801L167.484 284.107L164.33 293.287Z" fill="black"/>
<path d="M240.812 214.492C240.812 214.492 249.734 229.404 248.193 241.858C246.652 254.313 235.126 260.902 190.811 239.686C190.811 239.686 181.715 249.09 166.637 289.37L158.94 287.065C158.94 287.065 167.637 240.502 175.406 227.252C183.175 214.002 217.721 229.557 220.324 226.946C222.651 224.62 220.63 215.42 220.63 215.42L240.812 214.492Z" fill="#263238"/>
<path d="M168.515 288.605L166.902 291.716L157.674 288.605V285.035L168.515 288.605Z" fill="#0EBED9"/>
<path d="M244.406 174.63L213.004 172.284C212.557 172.247 212.106 172.31 211.685 172.466C211.265 172.623 210.883 172.87 210.569 173.19C210.254 173.51 210.014 173.896 209.865 174.319C209.716 174.742 209.662 175.193 209.707 175.64C210.009 177.379 210.186 179.138 210.238 180.903C209.962 184.228 208.196 189.206 208.768 191.48C209.247 193.296 211.156 195.356 211.912 197.407C213.555 201.844 213.831 216.215 213.831 216.215C223.978 217.858 242.037 215.42 242.037 215.42C237.954 200.824 244.079 183.8 245.906 176.721C245.966 176.483 245.974 176.236 245.928 175.995C245.883 175.754 245.785 175.526 245.642 175.327C245.499 175.128 245.315 174.962 245.101 174.842C244.887 174.722 244.65 174.649 244.406 174.63Z" fill="#0EBED9"/>
<path opacity="0.7" d="M244.406 174.63L213.004 172.284C212.557 172.247 212.106 172.31 211.685 172.466C211.265 172.623 210.883 172.87 210.569 173.19C210.254 173.51 210.014 173.896 209.865 174.319C209.716 174.742 209.662 175.193 209.707 175.64C210.009 177.379 210.186 179.138 210.238 180.903C209.962 184.228 208.196 189.206 208.768 191.48C209.247 193.296 211.156 195.356 211.912 197.407C213.555 201.844 213.831 216.215 213.831 216.215C223.978 217.858 242.037 215.42 242.037 215.42C237.954 200.824 244.079 183.8 245.906 176.721C245.966 176.483 245.974 176.236 245.928 175.995C245.883 175.754 245.785 175.526 245.642 175.327C245.499 175.128 245.315 174.962 245.101 174.842C244.887 174.722 244.65 174.649 244.406 174.63Z" fill="white"/>
<path opacity="0.1" d="M239.73 191.868L228.878 202.966L213.412 206.077H213.31C213.453 207.78 213.555 209.494 213.637 211.003C217.914 211.003 231.89 210.707 235.922 207.199C237.96 205.252 239.624 202.95 240.833 200.405C241.025 197.915 241.348 195.436 241.802 192.98L239.73 191.868Z" fill="black"/>
<path opacity="0.2" d="M185.747 243.868L183.328 241.991C183.328 241.991 174.783 246.611 179.03 259.769C181.301 254.948 183.819 250.246 186.574 245.683L185.747 243.868Z" fill="black"/>
<path d="M222.763 251.936C214.709 250.008 204.286 246.142 190.811 239.696C190.811 239.696 180.408 239.839 179.714 247.56C179.02 255.281 197.263 308.76 197.263 308.76L205.685 308.036C205.685 308.036 200.723 254.751 199.56 251.987L222.763 251.936Z" fill="#263238"/>
<path opacity="0.2" d="M190.811 239.686C189.605 239.732 188.408 239.903 187.238 240.196C192.889 245.019 199.226 248.976 206.042 251.936H222.764C214.709 250.008 204.286 246.142 190.811 239.686Z" fill="black"/>
<path d="M206.695 306.598L206.92 310.055L197.11 310.82L195.721 307.536L206.695 306.598Z" fill="#0EBED9"/>
<path d="M229.583 160.024L222.733 166.745C223.876 172.274 219.823 172.794 219.823 172.794C219.823 172.794 220.15 174.742 225.112 174.477C227.332 174.453 229.544 174.186 231.706 173.681C228.715 171.295 229.154 164.022 229.583 160.024Z" fill="#FFC3BD"/>
<path opacity="0.1" d="M222.794 169.867C222.997 168.834 222.976 167.77 222.733 166.745L228.858 160.748L229.45 161.441C229.45 161.441 228.215 169.091 222.794 169.867Z" fill="black"/>
<path d="M230.175 151.119C230.675 157.708 231.032 160.493 228.194 164.297C223.917 170.04 215.709 169.214 213.239 162.9C211.024 157.219 210.574 147.396 216.618 143.908C217.947 143.135 219.452 142.715 220.99 142.686C222.528 142.657 224.048 143.021 225.405 143.743C226.763 144.465 227.914 145.522 228.748 146.812C229.583 148.103 230.074 149.586 230.175 151.119Z" fill="#FFC3BD"/>
<path d="M216.689 157.8C216.384 159.084 215.903 160.319 215.26 161.472C215.559 161.628 215.888 161.716 216.225 161.732C216.562 161.748 216.898 161.691 217.21 161.564L216.689 157.8Z" fill="#EBAEA8"/>
<path d="M221.681 153.281C221.724 153.268 221.763 153.243 221.794 153.21C221.818 153.186 221.838 153.158 221.851 153.126C221.865 153.095 221.872 153.061 221.872 153.026C221.872 152.992 221.865 152.958 221.851 152.927C221.838 152.895 221.818 152.867 221.794 152.843C221.424 152.518 220.981 152.288 220.503 152.171C220.025 152.053 219.526 152.053 219.048 152.17C218.981 152.189 218.925 152.233 218.892 152.293C218.858 152.354 218.85 152.425 218.869 152.491C218.888 152.557 218.932 152.613 218.993 152.647C219.053 152.68 219.124 152.688 219.19 152.669C219.587 152.58 220 152.587 220.394 152.688C220.788 152.789 221.152 152.982 221.457 153.251C221.489 153.273 221.527 153.287 221.566 153.292C221.604 153.298 221.644 153.294 221.681 153.281Z" fill="#2E353A"/>
<path d="M211.932 154.189C211.975 154.175 212.014 154.151 212.045 154.118C212.306 153.811 212.637 153.569 213.009 153.413C213.382 153.257 213.786 153.191 214.188 153.22C214.257 153.227 214.325 153.209 214.381 153.17C214.438 153.131 214.478 153.073 214.495 153.006C214.501 152.936 214.48 152.867 214.436 152.812C214.392 152.757 214.329 152.72 214.26 152.71C213.77 152.666 213.277 152.74 212.822 152.927C212.367 153.113 211.964 153.406 211.646 153.781C211.622 153.805 211.602 153.834 211.589 153.865C211.575 153.897 211.568 153.931 211.568 153.965C211.568 153.999 211.575 154.033 211.589 154.065C211.602 154.096 211.622 154.125 211.646 154.148C211.684 154.184 211.731 154.207 211.782 154.216C211.833 154.226 211.885 154.22 211.932 154.199V154.189Z" fill="#2E353A"/>
<path d="M220.324 156.382C220.405 156.913 220.181 157.402 219.823 157.402C219.466 157.402 219.139 157.066 219.068 156.525C218.996 155.984 219.221 155.505 219.568 155.505C219.915 155.505 220.252 155.852 220.324 156.382Z" fill="#2E353A"/>
<path d="M214.301 157.219C214.382 157.749 214.158 158.239 213.811 158.239C213.464 158.239 213.127 157.892 213.045 157.361C212.963 156.831 213.198 156.341 213.545 156.341C213.892 156.341 214.239 156.678 214.301 157.219Z" fill="#2E353A"/>
<path d="M213.698 156.352L212.371 156.158C212.371 156.158 213.167 157.066 213.698 156.352Z" fill="#2E353A"/>
<path d="M219.721 155.515L218.394 155.332C218.394 155.332 219.191 156.229 219.721 155.515Z" fill="#2E353A"/>
<path d="M220.752 161.778C220.857 161.592 220.946 161.398 221.018 161.197C221.025 161.182 221.028 161.166 221.029 161.15C221.03 161.134 221.027 161.118 221.021 161.102C221.016 161.087 221.007 161.073 220.996 161.061C220.985 161.05 220.971 161.04 220.957 161.034C220.941 161.027 220.923 161.024 220.906 161.025C220.889 161.026 220.872 161.03 220.857 161.038C220.841 161.046 220.828 161.056 220.817 161.07C220.806 161.083 220.798 161.099 220.793 161.115C220.61 161.627 220.31 162.089 219.917 162.465C219.523 162.84 219.047 163.118 218.527 163.277C218.493 163.285 218.464 163.305 218.445 163.333C218.426 163.362 218.419 163.397 218.425 163.431C218.428 163.447 218.435 163.462 218.445 163.476C218.455 163.489 218.467 163.501 218.482 163.509C218.496 163.518 218.512 163.524 218.528 163.526C218.545 163.528 218.562 163.527 218.578 163.522C219.039 163.392 219.468 163.17 219.842 162.87C220.215 162.571 220.525 162.199 220.752 161.778Z" fill="#F99893"/>
<path d="M225.071 141.48C220.834 140.46 216.444 142.643 216.444 142.643C216.444 142.643 211.544 146.998 212.667 151.211C213.185 150.829 213.77 150.549 214.392 150.385C214.222 148.788 214.667 147.186 215.638 145.907C215.376 147.295 215.432 148.725 215.801 150.089C217.847 149.887 219.912 150.13 221.855 150.803C221.855 150.803 222.702 149.059 221.855 145.274C222.962 147.247 223.545 149.47 223.55 151.731C223.601 155.648 228.654 156.596 228.654 156.596C228.654 156.596 231.808 156.26 231.778 152.037C231.747 147.814 229.307 142.571 225.071 141.48Z" fill="#614A43"/>
<path d="M223.203 141.266C223.203 141.266 221.161 136.309 217.21 137.522C213.259 138.736 220.201 138.726 223.203 141.266Z" fill="#614A43"/>
<path d="M232.421 156.076C232.324 156.702 232.105 157.302 231.775 157.843C231.446 158.384 231.013 158.855 230.502 159.228C229.123 160.248 227.858 159.126 227.745 157.525C227.653 156.086 228.256 153.832 229.879 153.445C230.233 153.378 230.598 153.4 230.941 153.508C231.284 153.616 231.596 153.807 231.847 154.065C232.099 154.322 232.283 154.638 232.383 154.983C232.483 155.329 232.496 155.694 232.421 156.046V156.076Z" fill="#FFC3BD"/>
<path d="M244.804 174.487C241.68 173.467 237.403 185.371 235.616 189.083C234.881 190.624 233.697 194.071 232.799 196.795C232.426 197.959 231.771 199.014 230.894 199.866C230.016 200.719 228.942 201.342 227.766 201.68L211.034 206.423L204.235 204.383C203.983 204.307 203.718 204.288 203.458 204.329C203.198 204.37 202.951 204.468 202.734 204.618L199.315 206.944C199.064 207.115 198.86 207.345 198.72 207.614C198.579 207.882 198.506 208.181 198.508 208.484C198.503 208.735 198.551 208.985 198.648 209.218C198.745 209.45 198.889 209.66 199.071 209.833C199.254 210.007 199.47 210.141 199.707 210.226C199.944 210.312 200.196 210.347 200.448 210.33L210.554 209.534C210.554 209.534 226.888 210.483 234.034 206.474C241.18 202.466 250.224 176.344 244.804 174.487Z" fill="#FFC3BD"/>
<path d="M231.778 210.371H173.793C173.374 210.371 172.971 210.537 172.674 210.834C172.378 211.13 172.211 211.533 172.211 211.952C172.211 212.371 172.378 212.773 172.674 213.07C172.971 213.366 173.374 213.533 173.793 213.533H231.778C232.197 213.533 232.6 213.366 232.897 213.07C233.193 212.773 233.36 212.371 233.36 211.952C233.36 211.533 233.193 211.13 232.897 210.834C232.6 210.537 232.197 210.371 231.778 210.371Z" fill="#263238"/>
<path opacity="0.3" d="M231.778 210.371H173.793C173.374 210.371 172.971 210.537 172.674 210.834C172.378 211.13 172.211 211.533 172.211 211.952C172.211 212.371 172.378 212.773 172.674 213.07C172.971 213.366 173.374 213.533 173.793 213.533H231.778C232.197 213.533 232.6 213.366 232.897 213.07C233.193 212.773 233.36 212.371 233.36 211.952C233.36 211.533 233.193 211.13 232.897 210.834C232.6 210.537 232.197 210.371 231.778 210.371Z" fill="white"/>
<path d="M174.651 212.564H194.445C194.568 212.566 194.689 212.537 194.798 212.481C194.907 212.425 195.001 212.343 195.07 212.242C195.14 212.141 195.184 212.025 195.198 211.903C195.211 211.781 195.195 211.658 195.149 211.544L184.308 180.546C184.162 180.123 183.886 179.758 183.519 179.501C183.152 179.245 182.714 179.111 182.266 179.118H162.472C162.35 179.118 162.23 179.148 162.122 179.205C162.015 179.262 161.922 179.344 161.853 179.444C161.784 179.544 161.74 179.66 161.725 179.781C161.71 179.901 161.725 180.024 161.768 180.138L172.64 211.166C172.789 211.578 173.063 211.934 173.423 212.184C173.783 212.434 174.212 212.567 174.651 212.564Z" fill="#263238"/>
<path opacity="0.5" d="M174.651 212.564H194.445C194.568 212.566 194.689 212.537 194.798 212.481C194.907 212.425 195.001 212.343 195.07 212.242C195.14 212.141 195.184 212.025 195.198 211.903C195.211 211.781 195.195 211.658 195.149 211.544L184.308 180.546C184.162 180.123 183.886 179.758 183.519 179.501C183.152 179.245 182.714 179.111 182.266 179.118H162.472C162.35 179.118 162.23 179.148 162.122 179.205C162.015 179.262 161.922 179.344 161.853 179.444C161.784 179.544 161.74 179.66 161.725 179.781C161.71 179.901 161.725 180.024 161.768 180.138L172.64 211.166C172.789 211.578 173.063 211.934 173.423 212.184C173.783 212.434 174.212 212.567 174.651 212.564Z" fill="white"/>
<path d="M173.691 212.564H193.516C193.639 212.566 193.76 212.537 193.869 212.481C193.978 212.425 194.072 212.343 194.142 212.242C194.211 212.141 194.255 212.025 194.269 211.903C194.282 211.781 194.266 211.658 194.22 211.544L183.359 180.546C183.21 180.125 182.933 179.761 182.567 179.505C182.201 179.249 181.764 179.114 181.317 179.118H161.523C161.4 179.117 161.279 179.146 161.17 179.202C161.06 179.258 160.967 179.34 160.896 179.44C160.826 179.54 160.781 179.656 160.766 179.778C160.75 179.9 160.765 180.023 160.808 180.138L171.68 211.146C171.828 211.561 172.1 211.92 172.46 212.174C172.82 212.428 173.25 212.564 173.691 212.564Z" fill="#263238"/>
<path d="M178.006 197.978C178.705 197.738 178.945 196.598 178.543 195.431C178.142 194.265 177.25 193.514 176.551 193.754C175.853 193.994 175.612 195.134 176.014 196.301C176.416 197.467 177.308 198.218 178.006 197.978Z" fill="white"/>
<path opacity="0.2" d="M197.018 213.533C196.598 213.533 196.195 213.366 195.899 213.07C195.602 212.773 195.435 212.371 195.435 211.952C195.435 211.533 195.602 211.13 195.899 210.834C196.195 210.537 196.598 210.371 197.018 210.371H231.727C232.146 210.371 232.549 210.537 232.845 210.834C233.142 211.13 233.309 211.533 233.309 211.952C233.309 212.371 233.142 212.773 232.845 213.07C232.549 213.366 232.146 213.533 231.727 213.533H197.018Z" fill="white"/>
<path d="M369.685 333.24C369.965 333.234 370.241 333.171 370.496 333.056C370.752 332.941 370.982 332.776 371.172 332.57C371.363 332.365 371.51 332.123 371.605 331.86C371.7 331.596 371.741 331.316 371.726 331.037L366.05 220.357H360.048L367.561 331.292C367.585 331.831 367.822 332.339 368.22 332.704C368.618 333.069 369.145 333.262 369.685 333.24Z" fill="#263238"/>
<path opacity="0.5" d="M369.685 333.24C369.965 333.234 370.241 333.171 370.496 333.056C370.752 332.941 370.982 332.776 371.172 332.57C371.363 332.365 371.51 332.123 371.605 331.86C371.7 331.596 371.741 331.316 371.726 331.037L366.05 220.357H360.048L367.561 331.292C367.585 331.831 367.822 332.339 368.22 332.704C368.618 333.069 369.145 333.262 369.685 333.24Z" fill="white"/>
<path opacity="0.2" d="M366.091 220.397H360.088L360.589 227.772H366.469L366.091 220.397Z" fill="black"/>
<path d="M285.781 333.24C285.5 333.234 285.224 333.171 284.969 333.056C284.713 332.941 284.483 332.776 284.293 332.57C284.103 332.365 283.955 332.123 283.86 331.86C283.765 331.596 283.724 331.316 283.739 331.037L289.384 220.397H295.387L287.884 331.333C287.837 331.856 287.595 332.344 287.205 332.697C286.816 333.051 286.307 333.245 285.781 333.24Z" fill="#263238"/>
<path opacity="0.5" d="M285.781 333.24C285.5 333.234 285.224 333.171 284.969 333.056C284.713 332.941 284.483 332.776 284.293 332.57C284.103 332.365 283.955 332.123 283.86 331.86C283.765 331.596 283.724 331.316 283.739 331.037L289.384 220.397H295.387L287.884 331.333C287.837 331.856 287.595 332.344 287.205 332.697C286.816 333.051 286.307 333.245 285.781 333.24Z" fill="white"/>
<path opacity="0.2" d="M288.996 227.772H294.876L295.377 220.397H289.374L288.996 227.772Z" fill="black"/>
<path d="M152.202 333.24C152.482 333.233 152.758 333.171 153.014 333.056C153.269 332.941 153.499 332.776 153.69 332.57C153.88 332.365 154.027 332.123 154.122 331.86C154.218 331.596 154.259 331.316 154.244 331.037L148.609 220.397H142.606L150.109 331.333C150.155 331.855 150.396 332.34 150.784 332.694C151.171 333.047 151.677 333.242 152.202 333.24Z" fill="#263238"/>
<path opacity="0.5" d="M152.202 333.24C152.482 333.233 152.758 333.171 153.014 333.056C153.269 332.941 153.499 332.776 153.69 332.57C153.88 332.365 154.027 332.123 154.122 331.86C154.218 331.596 154.259 331.316 154.244 331.037L148.609 220.397H142.606L150.109 331.333C150.155 331.855 150.396 332.34 150.784 332.694C151.171 333.047 151.677 333.242 152.202 333.24Z" fill="white"/>
<path opacity="0.2" d="M148.609 220.397H142.606L143.106 227.772H148.986L148.609 220.397Z" fill="black"/>
<path d="M68.298 333.24C68.0178 333.234 67.7418 333.171 67.4862 333.056C67.2307 332.941 67.0009 332.776 66.8105 332.57C66.62 332.365 66.4729 332.123 66.3777 331.86C66.2825 331.596 66.2412 331.316 66.2563 331.037L71.9425 220.397H77.9451L70.4316 331.333C70.3974 331.867 70.1546 332.366 69.7555 332.723C69.3564 333.079 68.833 333.265 68.298 333.24Z" fill="#263238"/>
<path opacity="0.5" d="M68.298 333.24C68.0178 333.234 67.7418 333.171 67.4862 333.056C67.2307 332.941 67.0009 332.776 66.8105 332.57C66.62 332.365 66.4729 332.123 66.3777 331.86C66.2825 331.596 66.2412 331.316 66.2563 331.037L71.9425 220.397H77.9451L70.4316 331.333C70.3974 331.867 70.1546 332.366 69.7555 332.723C69.3564 333.079 68.833 333.265 68.298 333.24Z" fill="white"/>
<path opacity="0.2" d="M71.5137 227.772H77.3938L77.894 220.397H71.8914L71.5137 227.772Z" fill="black"/>
<path d="M370.92 216.889H66.1033V220.397H370.92V216.889Z" fill="#263238"/>
<path opacity="0.3" d="M370.92 216.889H66.1033V220.397H370.92V216.889Z" fill="white"/>
<path opacity="0.2" d="M370.92 216.889H283.586V220.397H370.92V216.889Z" fill="black"/>
<path d="M378.77 213.38H58.2528V216.889H378.77V213.38Z" fill="#A3ABAF"/>
<path opacity="0.3" d="M378.77 213.38H275.736V216.889H378.77V213.38Z" fill="black"/>
<path d="M299.252 210H271.357C271.207 210 271.064 210.176 270.957 210.489C270.851 210.802 270.791 211.228 270.789 211.673C270.791 212.119 270.851 212.544 270.957 212.857C271.064 213.171 271.207 213.346 271.357 213.346H299.252C299.401 213.346 299.544 213.17 299.649 212.856C299.754 212.542 299.813 212.117 299.813 211.673C299.813 211.229 299.754 210.804 299.649 210.49C299.544 210.176 299.401 210 299.252 210Z" fill="#FFA945"/>
<path opacity="0.6" d="M274.417 211H295.184C295.53 211 295.81 211.093 295.81 211.207V212.393C295.81 212.507 295.53 212.6 295.184 212.6H274.417C274.071 212.6 273.791 212.507 273.791 212.393V211.207C273.791 211.093 274.071 211 274.417 211Z" fill="#D28E35"/>
<path d="M332.097 143.224C332.097 143.224 326.053 144.377 326.156 140.695C326.258 137.012 332.495 138.726 332.495 138.726L332.097 143.224Z" fill="#1A2E35"/>
<path opacity="0.4" d="M332.097 143.224C332.097 143.224 326.053 144.377 326.156 140.695C326.258 137.012 332.495 138.726 332.495 138.726L332.097 143.224Z" fill="black"/>
<path d="M328.32 152.037L325.553 156.382C326.062 156.704 326.639 156.902 327.238 156.961C327.838 157.019 328.442 156.936 329.004 156.719L328.32 152.037Z" fill="#FFC3BD"/>
<path d="M326.646 151.435C326.646 151.996 326.931 152.455 327.299 152.455C327.666 152.455 327.993 151.986 327.983 151.435C327.973 150.884 327.707 150.415 327.329 150.415C326.952 150.415 326.666 150.874 326.646 151.435Z" fill="#1A2E35"/>
<path d="M348.277 147.937C348.522 155.383 348.788 158.534 345.409 162.686C340.06 167.092 331.117 167.612 328.636 160.391C326.421 153.883 326.39 142.826 333.363 139.154C334.899 138.356 336.612 137.962 338.343 138.008C340.074 138.053 341.764 138.538 343.255 139.416C344.747 140.295 345.99 141.537 346.869 143.028C347.747 144.518 348.232 146.207 348.277 147.937Z" fill="#EBAEA8"/>
<path opacity="0.2" d="M337.814 165.858L337.763 165.491C337.733 165.301 337.664 165.12 337.56 164.959C337.456 164.797 337.319 164.66 337.158 164.555C336.998 164.45 336.817 164.38 336.627 164.35C336.437 164.32 336.243 164.33 336.058 164.379L332.995 165.205C334.522 165.82 336.178 166.045 337.814 165.858Z" fill="black"/>
<path d="M328.667 148.895C328.618 148.902 328.568 148.896 328.521 148.878C328.475 148.861 328.434 148.831 328.401 148.793C328.174 148.51 327.882 148.284 327.55 148.135C327.218 147.986 326.856 147.918 326.493 147.937C326.416 147.943 326.34 147.92 326.279 147.873C326.219 147.826 326.178 147.757 326.166 147.682C326.16 147.643 326.162 147.604 326.172 147.567C326.182 147.529 326.199 147.494 326.223 147.464C326.247 147.433 326.277 147.408 326.311 147.389C326.345 147.371 326.382 147.359 326.421 147.355C326.879 147.314 327.339 147.386 327.763 147.564C328.186 147.742 328.56 148.02 328.851 148.375C328.906 148.431 328.937 148.506 328.937 148.584C328.937 148.663 328.906 148.738 328.851 148.793C328.829 148.823 328.801 148.847 328.77 148.864C328.738 148.882 328.703 148.892 328.667 148.895Z" fill="#1A2E35"/>
<path d="M337.538 163.981L339.171 175.028L348.41 173.12L345.45 161.809L337.538 163.981Z" fill="#EBAEA8"/>
<path d="M333.822 153.261L332.26 154.505C331.596 151.675 331.803 148.71 332.852 145.999L330.994 143.173L331.28 141.266C331.28 141.266 328.391 136.594 330.647 135.207C332.903 133.82 334.343 136.706 334.343 136.706C334.343 136.706 335.895 132.096 338.61 132.728C341.325 133.361 339.937 136.247 339.937 136.247C339.937 136.247 344.327 133.075 346.399 134.636C348.471 136.196 345.878 138.379 345.878 138.379C345.878 138.379 351.136 138.502 351.309 140.572C351.483 142.643 349.166 142.826 349.166 142.826C349.166 142.826 352.637 144.03 352.575 145.886C352.514 147.743 349.809 147.845 349.809 147.845C349.809 147.845 353.331 150.089 352.575 152.047C352.387 152.58 351.998 153.019 351.49 153.269C350.983 153.518 350.397 153.56 349.86 153.383C349.86 153.383 351.687 155.719 351.075 156.984C350.861 157.357 350.544 157.66 350.162 157.857C349.78 158.054 349.349 158.137 348.921 158.096L345.919 163.42C345.126 163.152 344.276 163.096 343.454 163.257C342.632 163.418 341.867 163.791 341.234 164.338L335.844 155.485L333.822 153.261Z" fill="#1A2E35"/>
<path d="M332.893 151.252C332.761 151.995 332.776 152.756 332.939 153.493C333.102 154.23 333.409 154.928 333.842 155.546C335.006 157.188 336.905 156.454 337.62 154.699C338.293 153.108 338.487 150.344 336.793 149.324C336.421 149.103 336 148.979 335.568 148.962C335.136 148.946 334.706 149.038 334.319 149.229C333.931 149.421 333.598 149.706 333.349 150.059C333.1 150.413 332.943 150.822 332.893 151.252Z" fill="#EBAEA8"/>
<path d="M350.278 171.917L348.451 166.756C346.114 165.883 343.595 165.612 341.125 165.968C338.656 166.325 336.316 167.297 334.322 168.796L339.508 171.856L350.278 171.917Z" fill="#263238"/>
<path opacity="0.2" d="M349.431 169.54C345.258 168.562 340.888 168.842 336.875 170.346L339.508 171.917H350.278L349.431 169.54Z" fill="black"/>
<path d="M317.968 205.934L311.149 202.517C310.952 202.429 310.738 202.383 310.521 202.383C310.305 202.383 310.091 202.429 309.893 202.517L304.32 204.72C304.048 204.825 303.812 205.006 303.64 205.241C303.468 205.476 303.367 205.755 303.35 206.046L303.248 207.862C303.234 208.114 303.282 208.365 303.389 208.594C303.495 208.823 303.656 209.023 303.858 209.175C304.06 209.327 304.296 209.427 304.545 209.467C304.795 209.507 305.05 209.484 305.289 209.402L307.331 208.688C310.621 210.015 314.278 210.124 317.642 208.994L317.968 205.934Z" fill="#EBAEA8"/>
<path d="M292.069 206.332L285.301 202.874C285.107 202.778 284.895 202.723 284.679 202.715C284.462 202.706 284.246 202.743 284.045 202.823L278.461 205.077C278.19 205.187 277.955 205.372 277.785 205.611C277.615 205.849 277.517 206.131 277.502 206.423L277.4 208.259C277.384 208.512 277.431 208.765 277.537 208.996C277.642 209.226 277.803 209.427 278.005 209.58C278.207 209.734 278.444 209.835 278.694 209.875C278.945 209.915 279.201 209.893 279.441 209.81L281.483 209.096C284.771 210.435 288.432 210.544 291.794 209.402L292.069 206.332Z" fill="#EBAEA8"/>
<path d="M354.014 173.865C350.676 176.701 342.326 185.024 331.484 204.516H317.631C317.631 204.516 315.671 206.107 316.478 210.116C316.478 210.116 330.688 215.165 334.547 213.441C338.406 211.717 350.88 192.613 356.475 185.809C358.414 183.453 361.753 180.301 356.934 174.171C356.765 173.955 356.555 173.776 356.315 173.643C356.076 173.511 355.812 173.428 355.539 173.399C355.267 173.371 354.991 173.397 354.73 173.477C354.468 173.557 354.224 173.689 354.014 173.865Z" fill="#263238"/>
<path opacity="0.2" d="M338.538 201.211L335.211 198.08C334.006 200.12 332.76 202.211 331.484 204.516H328.177L330.28 213.696C331.717 213.966 333.197 213.889 334.598 213.472C335.619 213.013 337.222 211.36 339.141 209.045L338.538 201.211Z" fill="black"/>
<path d="M336.027 307.046L339.192 322.367L345.429 321.439L343.928 306.526L336.027 307.046Z" fill="#EBAEA8"/>
<path opacity="0.2" d="M344.919 316.359L343.928 306.526L336.027 307.046L338.008 316.624L344.919 316.359Z" fill="black"/>
<path d="M373.094 236.411C373.094 236.411 376.259 253.017 365.417 253.017C354.576 253.017 340.131 256.567 340.131 256.567C340.131 256.567 344.286 260.504 345.235 310.759L336.231 311.147C336.231 311.147 321.276 254.425 324.226 248.192C328.381 239.41 349.9 236.411 349.9 236.411H373.094Z" fill="#6FA926"/>
<path d="M335.19 309.372L345.593 309.066L346.123 314.135L335.854 314.584L335.19 309.372Z" fill="#6FA926"/>
<path opacity="0.5" d="M335.19 309.372L345.593 309.066L346.123 314.135L335.854 314.584L335.19 309.372Z" fill="white"/>
<path d="M336.344 323.326C335.673 323.485 334.968 323.39 334.363 323.06C334.285 322.97 334.237 322.858 334.226 322.739C334.215 322.62 334.241 322.5 334.302 322.397C334.343 322.301 334.403 322.215 334.478 322.143C334.554 322.071 334.643 322.015 334.741 321.979C335.762 321.551 338.212 322.571 338.324 322.612C338.353 322.625 338.376 322.647 338.393 322.674C338.409 322.702 338.417 322.733 338.416 322.765C338.411 322.796 338.398 322.826 338.379 322.851C338.359 322.876 338.333 322.895 338.304 322.907C337.663 323.102 337.008 323.242 336.344 323.326ZM335.149 322.193C335.051 322.203 334.955 322.227 334.863 322.265C334.802 322.285 334.745 322.318 334.698 322.362C334.65 322.406 334.612 322.46 334.588 322.52C334.496 322.724 334.588 322.805 334.588 322.856C334.935 323.244 336.578 323.05 337.773 322.765C336.955 322.415 336.079 322.221 335.19 322.193H335.149Z" fill="#0EBED9"/>
<path d="M338.324 322.907H338.252C337.436 322.663 335.711 321.439 335.762 320.694C335.762 320.51 335.864 320.286 336.282 320.184C336.588 320.119 336.908 320.178 337.17 320.347C337.847 320.99 338.304 321.828 338.477 322.744C338.489 322.766 338.495 322.791 338.495 322.816C338.495 322.84 338.489 322.865 338.477 322.887C338.458 322.907 338.432 322.921 338.404 322.924C338.376 322.928 338.348 322.922 338.324 322.907ZM336.415 320.47H336.343C336.078 320.531 336.068 320.643 336.058 320.684C336.058 321.122 337.232 322.102 338.099 322.489C337.933 321.76 337.544 321.101 336.987 320.602C336.827 320.489 336.629 320.442 336.435 320.47H336.415Z" fill="#0EBED9"/>
<path d="M338.896 321.918L346.042 321.071C346.172 321.055 346.303 321.083 346.415 321.152C346.526 321.22 346.611 321.325 346.654 321.449L348.625 327.059C348.668 327.177 348.688 327.302 348.683 327.427C348.678 327.553 348.648 327.676 348.595 327.79C348.542 327.904 348.466 328.006 348.373 328.091C348.28 328.175 348.171 328.241 348.053 328.283L347.849 328.334C345.286 328.599 343 328.732 339.815 329.109C336.058 329.568 337.058 329.904 332.669 330.496C330.014 330.843 329.167 327.885 330.27 327.599C335.374 326.324 335.711 324.703 337.487 322.622C337.857 322.226 338.357 321.976 338.896 321.918Z" fill="#263238"/>
<path opacity="0.1" d="M343 250.222H327.156L323.797 251.64C324.113 256.438 324.757 261.21 325.727 265.92L341.662 261.33C340.784 257.199 340.1 256.556 340.1 256.556C340.1 256.556 341.55 256.199 343.867 255.71L343 250.222Z" fill="black"/>
<path opacity="0.1" d="M353.698 251.375C353.506 252.247 353.393 253.134 353.361 254.027C357.013 253.466 360.694 253.125 364.387 253.007C365.561 251.777 366.258 250.168 366.352 248.47C366.445 246.772 365.93 245.097 364.897 243.745L358.547 246.632L353.698 251.375Z" fill="black"/>
<path d="M317.764 311.157L323.644 325.437L329.381 324.284L325.441 309.005L317.764 311.157Z" fill="#EBAEA8"/>
<path opacity="0.2" d="M328.065 319.205L325.441 309.005L317.764 311.157L321.592 320.439L328.065 319.205Z" fill="black"/>
<path d="M365.285 237.36C365.285 237.36 368.46 253.966 357.608 253.966C346.756 253.966 314.212 263.962 314.212 263.962C314.212 263.962 318.999 265.726 327.309 312.085L317.907 314.217C317.907 314.217 294.427 263.666 297.357 257.434C301.512 248.662 342.071 237.36 342.071 237.36H365.285Z" fill="#6FA926"/>
<path d="M316.753 313.605L327.911 311.218L329.065 315.829L318.366 318.297L316.753 313.605Z" fill="#6FA926"/>
<path opacity="0.5" d="M316.753 313.605L327.911 311.218L329.065 315.829L318.366 318.297L316.753 313.605Z" fill="white"/>
<path d="M320.102 326.1C319.434 326.248 318.736 326.154 318.132 325.835C318.052 325.743 318.004 325.629 317.993 325.508C317.982 325.387 318.009 325.266 318.07 325.162C318.111 325.066 318.171 324.979 318.247 324.907C318.322 324.835 318.411 324.78 318.509 324.743C319.53 324.315 321.98 325.335 322.082 325.376C322.111 325.39 322.136 325.412 322.154 325.439C322.172 325.466 322.182 325.497 322.184 325.529C322.182 325.561 322.17 325.592 322.15 325.617C322.13 325.643 322.103 325.662 322.072 325.672C321.429 325.871 320.77 326.014 320.102 326.1ZM318.918 324.958C318.819 324.966 318.723 324.99 318.632 325.029C318.569 325.046 318.511 325.079 318.463 325.123C318.415 325.167 318.378 325.223 318.356 325.284C318.264 325.488 318.356 325.57 318.356 325.621C318.703 326.008 320.347 325.825 321.541 325.529C320.711 325.171 319.821 324.974 318.918 324.947V324.958Z" fill="#0EBED9"/>
<path d="M322.052 325.661H321.98C321.164 325.417 319.428 324.193 319.479 323.448C319.479 323.264 319.581 323.04 320 322.948C320.15 322.912 320.307 322.906 320.46 322.933C320.612 322.959 320.758 323.016 320.888 323.101C321.57 323.741 322.031 324.58 322.205 325.498C322.216 325.52 322.223 325.545 322.223 325.57C322.223 325.595 322.216 325.619 322.205 325.641C322.186 325.661 322.16 325.675 322.132 325.678C322.104 325.682 322.076 325.676 322.052 325.661ZM320.143 323.224H320.01C319.734 323.285 319.734 323.397 319.724 323.438C319.724 323.887 320.898 324.866 321.766 325.243C321.603 324.515 321.218 323.856 320.663 323.356C320.503 323.243 320.306 323.196 320.112 323.224H320.143Z" fill="#0EBED9"/>
<path d="M322.623 324.672L329.718 323.825C329.848 323.807 329.981 323.834 330.093 323.903C330.205 323.972 330.289 324.078 330.331 324.203L332.311 329.813C332.396 330.052 332.383 330.316 332.274 330.545C332.165 330.775 331.969 330.951 331.729 331.037L331.535 331.088C328.973 331.353 326.686 331.486 323.501 331.873C319.734 332.322 320.745 332.659 316.355 333.25C313.701 333.607 312.844 330.639 313.956 330.353C319.061 329.089 319.397 327.457 321.164 325.376C321.549 324.973 322.068 324.723 322.623 324.672Z" fill="#263238"/>
<path d="M326.819 173.263C326.814 172.941 326.873 172.62 326.994 172.321C327.116 172.022 327.296 171.751 327.525 171.523C327.754 171.296 328.026 171.117 328.326 170.997C328.625 170.877 328.946 170.818 329.269 170.825L350.186 171.233C352.695 171.283 355.146 171.99 357.295 173.282C359.445 174.574 361.218 176.407 362.437 178.598C367.286 187.247 373.666 204.944 373.513 238.258H338.804C338.804 238.258 327.023 195.02 326.819 173.263Z" fill="#263238"/>
<path opacity="0.4" d="M327.329 181.668C327.83 186.676 328.646 192.194 329.637 197.774C334.894 186.768 332.076 177.761 332.076 177.761L327.329 181.668Z" fill="black"/>
<path d="M326.89 171.754C324.451 174.599 320.663 180.291 309.189 201.16L291.64 204.893C291.64 204.893 289.68 206.505 290.487 210.565C290.487 210.565 309.322 213.798 313.18 212.054C317.039 210.31 326.89 195.499 331.413 187.839C333.281 184.677 334.271 178.445 328.657 171.774C328.549 171.646 328.414 171.542 328.263 171.47C328.111 171.398 327.946 171.36 327.778 171.358C327.61 171.356 327.444 171.391 327.291 171.459C327.138 171.527 327.001 171.628 326.89 171.754Z" fill="#263238"/>
<path d="M387.989 333.036L362.253 323.57L336.242 333.046C336.033 333.122 335.81 333.146 335.59 333.117C335.371 333.087 335.162 333.006 334.98 332.879C334.799 332.752 334.651 332.583 334.549 332.386C334.447 332.19 334.394 331.972 334.394 331.751C334.396 331.489 334.472 331.234 334.612 331.014C334.753 330.794 334.954 330.618 335.19 330.506L362.253 317.94L389.05 330.486C389.286 330.598 389.484 330.774 389.624 330.994C389.763 331.215 389.837 331.47 389.836 331.73C389.841 331.953 389.79 332.174 389.689 332.373C389.589 332.572 389.441 332.743 389.258 332.872C389.076 333.001 388.865 333.083 388.644 333.112C388.423 333.14 388.198 333.114 387.989 333.036Z" fill="#263238"/>
<path opacity="0.3" d="M387.989 333.036L362.253 323.57L336.242 333.046C336.033 333.122 335.81 333.146 335.59 333.117C335.371 333.087 335.162 333.006 334.98 332.879C334.799 332.752 334.651 332.583 334.549 332.386C334.447 332.19 334.394 331.972 334.394 331.751C334.396 331.489 334.472 331.234 334.612 331.014C334.753 330.794 334.954 330.618 335.19 330.506L362.253 317.94L389.05 330.486C389.286 330.598 389.484 330.774 389.624 330.994C389.763 331.215 389.837 331.47 389.836 331.73C389.841 331.953 389.79 332.174 389.689 332.373C389.589 332.572 389.441 332.743 389.258 332.872C389.076 333.001 388.865 333.083 388.644 333.112C388.423 333.14 388.198 333.114 387.989 333.036Z" fill="white"/>
<path opacity="0.2" d="M356.189 325.784L362.253 323.57L368.041 325.702V320.674L362.253 317.96L356.189 320.776V325.784Z" fill="black"/>
<path d="M362.12 333.24C361.556 333.241 361.011 333.033 360.59 332.656C360.17 332.279 359.904 331.761 359.844 331.2L359.119 323.581V260.341H365.121V323.581L364.386 331.2C364.326 331.759 364.062 332.276 363.643 332.653C363.225 333.029 362.683 333.238 362.12 333.24Z" fill="#263238"/>
<path opacity="0.3" d="M362.12 333.24C361.556 333.241 361.011 333.033 360.59 332.656C360.17 332.279 359.904 331.761 359.844 331.2L359.119 323.581V260.341H365.121V323.581L364.386 331.2C364.326 331.759 364.062 332.276 363.643 332.653C363.225 333.029 362.683 333.238 362.12 333.24Z" fill="white"/>
<path opacity="0.2" d="M365.121 260.31H359.119V267.674H365.121V260.31Z" fill="black"/>
<path d="M403.863 254.557C397.071 252.829 390.106 251.871 383.099 251.701C375.881 251.518 348.9 251.701 342.489 251.701C334.675 251.696 326.89 252.666 319.316 254.588C314.559 255.802 316.018 262.656 320.337 262.748C320.725 262.748 402.311 262.748 402.607 262.748C407.079 262.911 408.722 255.791 403.863 254.557Z" fill="#0EBED9"/>
<path opacity="0.3" d="M403.863 254.557C397.071 252.829 390.106 251.871 383.099 251.701C375.881 251.518 348.9 251.701 342.489 251.701C334.675 251.696 326.89 252.666 319.316 254.588C314.559 255.802 316.018 262.656 320.337 262.748C320.725 262.748 402.311 262.748 402.607 262.748C407.079 262.911 408.722 255.791 403.863 254.557Z" fill="black"/>
<path d="M321.521 262.564C335.277 259.066 349.691 259.066 363.447 262.564C368.633 263.88 370.849 255.873 365.663 254.557C350.455 250.702 334.524 250.702 319.316 254.557C314.14 255.873 316.335 263.89 321.521 262.564Z" fill="#0EBED9"/>
<g opacity="0.3">
<path opacity="0.3" d="M321.521 262.564C335.277 259.066 349.691 259.066 363.447 262.564C368.633 263.88 370.849 255.873 365.663 254.557C350.455 250.702 334.524 250.702 319.316 254.557C314.14 255.873 316.335 263.89 321.521 262.564Z" fill="white"/>
</g>
<path d="M382.037 195.142C381.569 195.132 381.108 195.25 380.703 195.484C380.298 195.718 379.965 196.058 379.74 196.468C368.762 214.858 364.82 236.599 368.643 257.668C368.694 258.208 368.938 258.711 369.33 259.086C369.722 259.46 370.235 259.681 370.777 259.708C372.441 259.82 402.056 259.708 403.138 259.708C403.577 259.719 404.013 259.632 404.414 259.455C404.816 259.278 405.173 259.014 405.461 258.683C405.749 258.351 405.96 257.961 406.079 257.538C406.198 257.116 406.222 256.673 406.15 256.24C402.691 236.622 406.435 216.415 416.695 199.334C417.961 197.233 416.093 195.254 414.204 195.254C413.347 195.122 383.926 195.183 382.037 195.142Z" fill="#0EBED9"/>
<path opacity="0.2" d="M382.037 195.142C381.569 195.132 381.108 195.25 380.703 195.484C380.298 195.718 379.965 196.058 379.74 196.468C368.762 214.858 364.82 236.599 368.643 257.668C368.694 258.208 368.938 258.711 369.33 259.086C369.722 259.46 370.235 259.681 370.777 259.708C372.441 259.82 402.056 259.708 403.138 259.708C403.577 259.719 404.013 259.632 404.414 259.455C404.816 259.278 405.173 259.014 405.461 258.683C405.749 258.351 405.96 257.961 406.079 257.538C406.198 257.116 406.222 256.673 406.15 256.24C402.691 236.622 406.435 216.415 416.695 199.334C417.961 197.233 416.093 195.254 414.204 195.254C413.347 195.122 383.926 195.183 382.037 195.142Z" fill="black"/>
<path d="M373.982 256.159C370.528 236.54 374.273 216.335 384.528 199.253C386.376 196.193 381.578 193.408 379.74 196.468C368.762 214.858 364.82 236.599 368.643 257.668C369.276 261.167 374.615 259.708 373.982 256.199V256.159Z" fill="#0EBED9"/>
<g opacity="0.2">
<path opacity="0.2" d="M373.982 256.159C370.528 236.54 374.273 216.335 384.528 199.253C386.376 196.193 381.578 193.408 379.74 196.468C368.762 214.858 364.82 236.599 368.643 257.668C369.276 261.167 374.615 259.708 373.982 256.199V256.159Z" fill="white"/>
</g>
<path d="M444.335 158C444.335 158 445.417 165.87 453.744 166.413C445.407 166.951 444.335 174.827 444.335 174.827C444.335 174.827 443.253 166.956 434.926 166.413C443.264 165.868 444.335 158 444.335 158Z" fill="#FFA945"/>
<path d="M132.074 76C132.074 76 133.156 83.8705 141.483 84.4133C133.146 84.9507 132.074 92.8265 132.074 92.8265C132.074 92.8265 130.992 84.9561 122.665 84.4133C131.002 83.8705 132.074 76 132.074 76Z" fill="#0EBED9"/>
<path d="M263.282 116C263.282 116 263.685 118.806 266.785 119C263.681 119.192 263.282 122 263.282 122C263.282 122 262.88 119.194 259.78 119C262.884 118.806 263.282 116 263.282 116Z" fill="#0EBED9"/>
<path d="M390.827 86C390.827 86 391.505 90.681 396.769 91C391.502 91.3238 390.827 96 390.827 96C390.827 96 390.148 91.3167 384.884 91C390.151 90.681 390.827 86 390.827 86Z" fill="#6FA926"/>
<path d="M301.215 24C301.215 24 302.298 31.8705 310.625 32.4133C302.287 32.9507 301.215 40.8265 301.215 40.8265C301.215 40.8265 300.133 32.9561 291.806 32.4133C300.144 31.8678 301.215 24 301.215 24Z" fill="#6FA926"/>
</svg>
