<svg width="501" height="454" viewBox="0 0 501 454" fill="none" xmlns="http://www.w3.org/2000/svg">
<path d="M463.909 250.523C411.577 362.329 289.346 415.672 190.898 369.67C92.4493 323.667 52.111 169.172 104.443 57.3661C156.775 -54.4397 226.002 82.8142 324.45 128.817C422.899 174.82 516.241 138.717 463.909 250.523Z" fill="#F1F6FF"/>
<path d="M352.71 84C352.71 84 353.793 91.8705 362.119 92.4133C353.782 92.9507 352.71 100.827 352.71 100.827C352.71 100.827 351.628 92.9561 343.301 92.4133C351.639 91.8678 352.71 84 352.71 84Z" fill="#FFA945"/>
<path d="M44.661 295C44.661 295 43.3392 303.875 33.0413 304.489C43.3357 305.104 44.661 313.978 44.661 313.978C44.661 313.978 45.9828 305.104 56.2807 304.489C45.9863 303.877 44.661 295 44.661 295Z" fill="#6FA926"/>
<path d="M197.641 157.885C195.738 162.503 184.54 162.185 172.809 157.352C161.077 152.518 153.098 144.856 155.001 140.238C155.448 139.171 156.722 135.172 157.996 134.622C162.368 132.773 170.691 136.927 179.703 140.642C188.095 144.082 197.692 146.326 199.181 150.876C200.076 153.645 198.183 156.569 197.641 157.885Z" fill="#FFA945"/>
<path opacity="0.2" d="M199.181 150.876C199.896 154.496 198.321 156.234 197.641 157.885C196.961 159.536 194.972 160.62 192.192 160.998C191.845 161.057 191.494 161.097 191.142 161.118C189.01 161.244 186.871 161.131 184.764 160.783C184.463 160.783 184.162 160.688 183.852 160.637C181.379 160.193 178.942 159.567 176.562 158.762L175.701 158.47C174.745 158.134 173.764 157.764 172.783 157.36C171.802 156.956 170.872 156.5 169.951 156.096L169.159 155.718C166.99 154.646 164.899 153.421 162.902 152.054L162.196 151.555C160.453 150.324 158.856 148.899 157.436 147.307C157.221 147.066 157.023 146.834 156.834 146.593C154.983 144.254 154.252 142.018 154.983 140.238C155.465 139.094 156.498 135.181 157.979 134.613C159.8 134.101 161.727 134.101 163.548 134.613L164.408 134.82C168.712 135.92 174.134 138.371 179.669 140.65C186.193 143.342 193.914 146.137 197.701 149.362C197.926 149.552 198.142 149.753 198.346 149.964C198.649 150.245 198.928 150.55 199.181 150.876Z" fill="black"/>
<g opacity="0.2">
<path opacity="0.2" d="M164.839 134.08L164.443 134.802L157.454 147.298C157.238 147.057 157.04 146.825 156.851 146.584L163.565 134.596L164.09 133.667L164.839 134.08Z" fill="black"/>
</g>
<g opacity="0.2">
<path opacity="0.2" d="M170.123 139.18L162.919 152.08L162.213 151.581L169.375 138.784L170.123 139.18Z" fill="black"/>
</g>
<g opacity="0.2">
<path opacity="0.2" d="M183.37 146.576L176.562 158.762L175.701 158.47L182.587 146.12L183.37 146.576Z" fill="black"/>
</g>
<g opacity="0.2">
<path opacity="0.2" d="M177.207 143.136L169.968 156.096L169.177 155.718L176.458 142.68L177.207 143.136Z" fill="black"/>
</g>
<g opacity="0.2">
<path opacity="0.2" d="M191.4 148.932L184.764 160.783C184.463 160.783 184.162 160.688 183.852 160.637L190.643 148.502L191.4 148.932Z" fill="black"/>
</g>
<path d="M199.13 153.86C197.227 158.478 186.167 158.298 174.427 153.456C162.687 148.614 154.716 140.96 156.627 136.342C158.538 131.724 169.59 131.913 181.33 136.746C193.07 141.579 201.032 149.216 199.13 153.86Z" fill="#FFA945"/>
<path opacity="0.2" d="M195.136 152.183C193.793 155.442 185.169 154.987 175.882 151.16C166.594 147.333 160.156 141.579 161.499 138.32C162.842 135.06 171.466 135.516 180.762 139.343C190.058 143.17 196.487 148.924 195.136 152.183Z" fill="white"/>
<path d="M256.961 116.14C260.025 120.088 254.19 129.642 244.145 137.408C234.101 145.174 223.488 148.27 220.432 144.288C219.727 143.377 216.869 140.324 217.041 138.896C217.618 134.192 225.356 129.049 233.068 123.081C240.246 117.525 246.951 110.318 251.642 111.29C254.491 111.918 256.092 115.022 256.961 116.14Z" fill="#F4A640"/>
<path opacity="0.2" d="M251.642 111.324C255.145 112.511 255.868 114.764 256.961 116.14C258.055 117.516 258.011 119.813 256.961 122.418C256.841 122.737 256.695 123.055 256.54 123.382C255.597 125.293 254.442 127.093 253.097 128.748C252.916 128.989 252.718 129.221 252.52 129.462C250.901 131.391 249.141 133.196 247.252 134.863L246.59 135.439C245.824 136.101 245.015 136.763 244.18 137.408C243.345 138.053 242.51 138.664 241.666 139.24C241.434 139.412 241.184 139.575 240.952 139.739C238.941 141.087 236.835 142.288 234.652 143.334C234.385 143.471 234.126 143.583 233.877 143.703C231.936 144.6 229.901 145.275 227.809 145.716C227.499 145.785 227.198 145.836 226.896 145.879C223.944 146.318 221.637 145.879 220.458 144.323C219.701 143.342 216.817 140.496 217.067 138.939C217.517 137.099 218.474 135.422 219.83 134.097C220.019 133.882 220.226 133.667 220.441 133.444C223.548 130.227 228.36 126.779 233.094 123.124C238.68 118.824 244.946 113.5 249.619 111.832C249.902 111.728 250.189 111.639 250.48 111.565C250.861 111.457 251.249 111.376 251.642 111.324Z" fill="black"/>
<g opacity="0.2">
<path opacity="0.2" d="M219.985 132.738L220.415 133.444L227.783 145.716C227.473 145.785 227.172 145.836 226.871 145.879L219.804 134.08L219.253 133.22L219.985 132.738Z" fill="black"/>
</g>
<g opacity="0.2">
<path opacity="0.2" d="M227.034 130.692L234.626 143.334C234.359 143.471 234.101 143.583 233.851 143.703L226.294 131.13L227.034 130.692Z" fill="black"/>
</g>
<g opacity="0.2">
<path opacity="0.2" d="M240.04 122.9L247.227 134.871L246.564 135.447L239.299 123.339L240.04 122.9Z" fill="black"/>
</g>
<g opacity="0.2">
<path opacity="0.2" d="M233.997 126.521L241.641 139.24C241.408 139.412 241.159 139.575 240.926 139.739L233.249 126.959L233.997 126.521Z" fill="black"/>
</g>
<g opacity="0.2">
<path opacity="0.2" d="M246.082 117.095L253.071 128.748C252.89 128.989 252.692 129.221 252.494 129.462L245.342 117.542L246.082 117.095Z" fill="black"/>
</g>
<path d="M241.539 134.033C251.577 126.265 257.235 116.768 254.175 112.821C251.116 108.875 240.498 111.973 230.46 119.742C220.423 127.51 214.765 137.007 217.825 140.954C220.884 144.9 231.501 141.802 241.539 134.033Z" fill="#FFA945"/>
<path opacity="0.2" d="M240.294 131.64C248.239 125.491 252.926 118.245 250.764 115.455C248.601 112.665 240.407 115.388 232.462 121.536C224.518 127.685 219.83 134.931 221.993 137.721C224.156 140.511 232.35 137.788 240.294 131.64Z" fill="white"/>
<path d="M215.414 97.6504C214.433 103.309 201.729 105.7 187.338 103.12C172.947 100.54 162.093 93.8922 163.1 88.2334C163.332 86.9176 163.737 82.1274 165.088 81.1728C169.555 78.0252 179.936 80.6568 190.987 82.6176C201.316 84.4494 212.617 84.5956 215.414 89.3514C217.11 92.2754 215.699 96.0336 215.414 97.6504Z" fill="#FFA945"/>
<path opacity="0.2" d="M215.414 89.36C217.136 93.2644 215.767 95.595 215.414 97.6246C215.062 99.6542 213.09 101.348 210.061 102.466C209.691 102.613 209.303 102.733 208.907 102.853C206.538 103.519 204.101 103.92 201.643 104.049C201.29 104.049 200.946 104.049 200.584 104.109C197.688 104.215 194.789 104.109 191.908 103.791L190.901 103.662C189.739 103.516 188.543 103.344 187.346 103.129C186.15 102.914 184.988 102.673 183.843 102.406C183.516 102.337 183.189 102.251 182.862 102.174C180.158 101.507 177.506 100.645 174.926 99.594C174.608 99.4736 174.306 99.336 174.005 99.2156C171.741 98.2527 169.593 97.0382 167.601 95.595C167.3 95.38 167.025 95.165 166.741 94.9414C164.073 92.7656 162.704 90.4264 163.091 88.2506C163.35 86.8402 163.556 82.2306 165.071 81.19C166.586 80.1494 168.755 79.8226 171.337 79.814H172.37C177.534 79.986 184.188 81.4222 190.979 82.6262C198.983 84.0538 208.357 85.3008 213.4 88.0012C213.696 88.1578 213.984 88.3301 214.261 88.5172C214.667 88.7677 215.053 89.0494 215.414 89.36Z" fill="black"/>
<g opacity="0.2">
<path opacity="0.2" d="M172.654 78.9368L172.378 79.8398L167.593 95.6122C167.292 95.3972 167.016 95.1822 166.732 94.9586L171.328 79.8312L171.69 78.653L172.654 78.9368Z" fill="black"/>
</g>
<g opacity="0.2">
<path opacity="0.2" d="M179.849 83.3399L174.918 99.5853C174.599 99.4649 174.298 99.3273 173.997 99.2069L178.903 83.0389L179.849 83.3399Z" fill="black"/>
</g>
<g opacity="0.2">
<path opacity="0.2" d="M196.573 88.4312L191.9 103.817L190.893 103.688L195.618 88.1388L196.573 88.4312Z" fill="black"/>
</g>
<g opacity="0.2">
<path opacity="0.2" d="M188.801 86.0747L183.835 102.415C183.508 102.346 183.18 102.26 182.853 102.183L187.846 85.7651L188.801 86.0747Z" fill="black"/>
</g>
<g opacity="0.2">
<path opacity="0.2" d="M206.188 89.102L201.634 104.075C201.281 104.075 200.937 104.075 200.576 104.135L205.232 88.8182L206.188 89.102Z" fill="black"/>
</g>
<path d="M216.085 92.7097C217.092 87.0515 206.239 80.3897 191.843 77.8301C177.447 75.2705 164.96 77.7824 163.952 83.4406C162.945 89.0988 173.798 95.7606 188.194 98.3202C202.59 100.88 215.077 98.3679 216.085 92.7097Z" fill="#FFA945"/>
<path opacity="0.2" d="M211.185 91.8447C211.898 87.8466 203.24 82.9636 191.849 80.9382C180.458 78.9128 170.646 80.5121 169.934 84.5102C169.222 88.5084 177.879 93.3914 189.27 95.4168C200.662 97.4421 210.473 95.8429 211.185 91.8447Z" fill="white"/>
<path d="M290.555 242.122L201.979 247.282C198.85 247.466 195.779 248.212 192.915 249.483L96.704 292.483C95.0159 293.225 93.6335 294.522 92.7876 296.16C91.9417 297.797 91.6835 299.674 92.0561 301.479L107.954 376.6C108.222 377.81 108.764 378.942 109.538 379.91C110.312 380.878 111.297 381.657 112.419 382.186C113.54 382.716 114.768 382.982 116.008 382.965C117.248 382.948 118.467 382.647 119.573 382.087L214.536 334.718L302.227 331.785C303.306 331.757 304.366 331.498 305.338 331.028C306.309 330.558 307.169 329.886 307.86 329.058C308.552 328.23 309.059 327.264 309.347 326.224C309.636 325.185 309.699 324.096 309.534 323.03L297.802 251.1C297.191 247.385 294.368 242.01 290.555 242.122Z" fill="#0EBED9"/>
<path opacity="0.1" d="M290.555 242.122L201.979 247.282C198.85 247.466 195.779 248.212 192.915 249.483L96.704 292.483C95.0159 293.225 93.6335 294.522 92.7876 296.16C91.9417 297.797 91.6835 299.674 92.0561 301.479L107.954 376.6C108.222 377.81 108.764 378.942 109.538 379.91C110.312 380.878 111.297 381.657 112.419 382.186C113.54 382.716 114.768 382.982 116.008 382.965C117.248 382.948 118.467 382.647 119.573 382.087L214.536 334.718L302.227 331.785C303.306 331.757 304.366 331.498 305.338 331.028C306.309 330.558 307.169 329.886 307.86 329.058C308.552 328.23 309.059 327.264 309.347 326.224C309.636 325.185 309.699 324.096 309.534 323.03L297.802 251.1C297.191 247.385 294.368 242.01 290.555 242.122Z" fill="black"/>
<path d="M112.746 193.189L66.2805 236.022L149.66 326.474L196.125 283.641L112.746 193.189Z" fill="#6FA926"/>
<path opacity="0.5" d="M196.169 283.634L149.681 326.445L66.2776 236.033L96.7815 207.937L112.765 193.214L115.425 196.103L196.169 283.634Z" fill="#FAFAFA"/>
<path d="M113.063 198.736L72.047 236.513L150.073 321.088L191.089 283.311L113.063 198.736Z" stroke="#0EBED9" stroke-miterlimit="10"/>
<path d="M140.797 269.925C145.502 265.592 144.906 257.3 139.468 251.405C134.029 245.51 125.807 244.244 121.102 248.577C116.398 252.91 116.993 261.202 122.431 267.097C127.87 272.992 136.092 274.258 140.797 269.925Z" fill="#6FA926"/>
<path opacity="0.1" d="M149.191 289.749L132.673 295.45L96.7815 207.937L112.765 193.214L115.425 196.103L149.191 289.749Z" fill="black"/>
<path d="M152.409 157.786L92.9752 179.318L134.928 294.924L194.361 273.393L152.409 157.786Z" fill="#6FA926"/>
<path opacity="0.5" d="M152.409 157.786L92.9752 179.318L134.928 294.924L194.361 273.393L152.409 157.786Z" fill="#FAFAFA"/>
<path d="M150.541 162.999L98.0984 181.998L137.34 290.134L189.782 271.135L150.541 162.999Z" stroke="#6FA926" stroke-miterlimit="10"/>
<path d="M148.589 239.359C154.604 237.18 157.263 229.303 154.528 221.766C151.793 214.228 144.699 209.885 138.684 212.064C132.669 214.243 130.01 222.12 132.745 229.657C135.48 237.195 142.574 241.538 148.589 239.359Z" fill="#6FA926"/>
<path d="M291.132 245.175L203.769 250.094C200.672 250.263 197.634 251.007 194.809 252.287L100.009 295.046C98.3394 295.8 96.9771 297.101 96.1476 298.734C95.3182 300.366 95.0711 302.233 95.4474 304.024L111.345 379.18C111.601 380.382 112.129 381.51 112.89 382.476C113.65 383.442 114.622 384.221 115.731 384.754C116.84 385.286 118.056 385.557 119.286 385.547C120.516 385.536 121.727 385.244 122.827 384.692L216.387 337.59L302.872 334.855C303.943 334.822 304.994 334.56 305.955 334.088C306.917 333.616 307.766 332.945 308.447 332.118C309.128 331.292 309.625 330.33 309.905 329.297C310.184 328.264 310.24 327.183 310.068 326.126L298.302 254.205C297.691 250.455 294.902 245.071 291.132 245.175Z" fill="#0EBED9"/>
<path opacity="0.2" d="M207.324 263.252L282.284 258.642" stroke="black" stroke-width="2" stroke-linecap="round" stroke-linejoin="round"/>
<path opacity="0.2" d="M198.346 265.187L212.04 328.036" stroke="black" stroke-width="2" stroke-linecap="round" stroke-linejoin="round"/>
<path opacity="0.2" d="M107.041 321.93L116.699 370.27C116.699 370.27 124.101 351.092 107.041 321.93Z" fill="#FAFAFA"/>
<path opacity="0.2" d="M108.307 322.497C108.642 323.357 194.086 286.721 194.086 286.721C194.317 295.027 192.239 303.235 188.082 310.431C183.924 317.628 177.851 323.531 170.537 327.485C144.818 341.89 108.307 322.497 108.307 322.497Z" fill="#FAFAFA"/>
<path d="M165.062 323.925C167.106 323.925 168.763 322.269 168.763 320.227C168.763 318.185 167.106 316.529 165.062 316.529C163.018 316.529 161.361 318.185 161.361 320.227C161.361 322.269 163.018 323.925 165.062 323.925Z" fill="#0EBED9"/>
<path opacity="0.2" d="M194.129 286.721C194.129 286.721 204.724 302.657 202.159 329.799L194.129 286.721Z" fill="black"/>
<g opacity="0.2">
<path opacity="0.2" d="M102.953 302.941L104.924 302.072" stroke="#FAFAFA" stroke-linecap="round" stroke-linejoin="round"/>
<path opacity="0.2" d="M109.012 300.266L188.801 265.024" stroke="#FAFAFA" stroke-linecap="round" stroke-linejoin="round" stroke-dasharray="5.2 5.2"/>
<path opacity="0.2" d="M190.849 264.121L192.812 263.252" stroke="#FAFAFA" stroke-linecap="round" stroke-linejoin="round"/>
</g>
<path opacity="0.2" d="M209.837 277.382L284.797 272.764" stroke="black" stroke-width="2" stroke-linecap="round" stroke-linejoin="round"/>
<path opacity="0.2" d="M213.211 295.003L288.171 290.385" stroke="black" stroke-width="2" stroke-linecap="round" stroke-linejoin="round"/>
<path d="M271.74 169.822C271.74 169.822 269.855 189.885 262.392 191.614C257.771 192.611 252.953 192.13 248.621 190.238L242.553 185.577L239.592 195.897C239.592 195.897 242.828 200.291 249.585 197.247C249.585 197.247 261.635 202.545 268.297 197.247C274.959 191.949 277.094 177.415 277.094 177.415L271.74 169.822Z" fill="#FFC3BD"/>
<path d="M277.739 160.104C277.739 160.104 272.532 151.237 274.899 135.164C277.266 119.09 290.753 117.104 295.961 118.265C301.168 119.426 305.428 124.422 308.975 133.934C312.521 143.445 313.829 145.922 319.742 144.254C325.655 142.585 341.389 137.374 345.77 142.009C347.031 143.275 347.959 144.832 348.474 146.542C348.989 148.252 349.074 150.063 348.723 151.813C348.723 151.813 370.611 146.498 368.717 166.003C366.824 185.508 335.235 203.714 305.187 184.442C275.14 165.169 277.739 160.104 277.739 160.104Z" fill="#614A43"/>
<path d="M277.498 207.309C277.498 207.309 271.551 258.419 271.748 282.387C271.946 306.355 280.468 362.84 280.468 362.84H290.977C290.977 362.84 289.591 317.673 289.789 302.219C289.987 286.764 292.759 261.197 292.759 261.197C292.759 261.197 296.124 284.176 300.092 292.294C304.06 300.413 326.068 329.145 341.338 338.063L348.473 331.519C348.473 331.519 332.61 311.911 326.662 302.201C320.715 292.492 315.37 289.74 313.184 271.68C310.997 253.62 314.776 224.733 308.432 207.3L277.498 207.309Z" fill="#263238"/>
<path opacity="0.2" d="M292.759 261.197L288.188 228.8C288.188 228.8 284.582 248.271 291.683 272.05L292.759 261.197Z" fill="black"/>
<path d="M282.628 365.704L282.981 375.74L290.03 376.325L290.383 375.387V364.999L282.628 365.704Z" fill="#FFC3BD"/>
<path d="M279.28 361.885L279.925 365.644L292.027 365.936L292.793 361.421L279.28 361.885Z" fill="#0EBED9"/>
<path d="M338.024 338.76L349.239 328.32L351.709 332.25L342.078 341.056L338.024 338.76Z" fill="#0EBED9"/>
<path d="M343.429 338.76L350.831 344.986L355.583 339.405L349.506 333.127L343.429 338.76Z" fill="#FFC3BD"/>
<path d="M357.02 338.975L361.496 341.727C361.7 341.853 361.874 342.021 362.006 342.221C362.137 342.421 362.224 342.647 362.259 342.884C362.295 343.12 362.278 343.362 362.21 343.592C362.142 343.821 362.024 344.033 361.866 344.212C358.621 347.876 350.332 357.181 349.506 357.835C348.482 358.695 347.242 357.25 346.924 355.96C346.924 355.96 349.273 352.847 349.506 350.852C349.604 349.311 349.604 347.766 349.506 346.225C349.488 345.839 349.617 345.461 349.867 345.167L354.868 339.302C355.126 338.996 355.487 338.795 355.883 338.735C356.278 338.674 356.683 338.76 357.02 338.975Z" fill="#263238"/>
<path d="M291.752 376.6L292.681 381.76C292.724 381.996 292.714 382.238 292.653 382.47C292.592 382.702 292.481 382.918 292.328 383.102C292.174 383.287 291.982 383.435 291.765 383.538C291.548 383.64 291.312 383.694 291.072 383.695C286.174 383.695 273.711 383.747 272.669 383.575C271.37 383.36 271.602 381.502 272.368 380.418C272.368 380.418 276.25 380.092 277.877 378.913C279.087 377.965 280.236 376.943 281.32 375.852C281.596 375.581 281.965 375.425 282.353 375.413L290.056 375.233C290.456 375.218 290.848 375.349 291.16 375.6C291.471 375.851 291.681 376.206 291.752 376.6Z" fill="#263238"/>
<path d="M309.56 178.964L320.302 171.43C320.302 171.43 317.444 160.009 313.209 159.442C308.975 158.874 287.956 154.875 274.589 159.442C274.589 159.442 269.786 160.809 268.306 174.285L274.021 176.108C274.021 176.108 276.069 201.341 277.335 205.228H307.839C307.839 205.228 308.183 183.53 309.56 178.964Z" fill="#6FA926"/>
<path d="M311.875 177.338C311.875 177.338 315.946 188.948 316.669 195.192C316.669 195.192 306.995 191.339 304.499 189.576L302.605 182.782L296.201 179.66L294.299 184.82L299.644 191.442C299.644 191.442 314.216 205.064 321.601 201.951C328.986 198.838 318.683 172.591 318.683 172.591L311.875 177.338Z" fill="#FFC3BD"/>
<path d="M284.547 126.503C284.547 126.503 280.821 133.934 281.105 139.98C281.389 146.025 284.444 148.494 290.254 149.345C290.254 149.345 292.733 157.085 286.226 157.868C285.727 157.928 285.554 159.897 285.589 160.215C285.761 161.471 287.009 162.159 288.171 162.451C289.395 162.722 290.644 162.861 291.898 162.864C293.214 162.91 294.524 162.655 295.727 162.12C296.93 161.585 297.996 160.784 298.844 159.777C298.982 159.613 300.29 157.945 300.29 157.945C300.29 157.945 297.183 156.406 298.276 146.326C299.759 145.362 300.898 143.953 301.529 142.302C302.123 141.987 302.648 141.557 303.074 141.037C303.499 140.517 303.817 139.918 304.008 139.274C304.473 137.262 302.691 134.476 299.438 137.262C299.438 137.262 293.31 134.166 290.986 123.321C289.262 125.08 286.992 126.202 284.547 126.503Z" fill="#FFC3BD"/>
<path d="M286.295 138.328L286.82 134.355L284.005 137.468C284.295 137.777 284.653 138.015 285.05 138.164C285.447 138.314 285.873 138.37 286.295 138.328Z" fill="#EBAEA8"/>
<path d="M287.93 141.235C287.93 141.235 290.9 141.691 292.328 139.79" stroke="#F99893" stroke-width="0.75" stroke-linecap="round" stroke-linejoin="round"/>
<path d="M290.9 128.791C291.574 128.6 292.287 128.594 292.964 128.774C293.641 128.954 294.257 129.313 294.747 129.814" stroke="#222221" stroke-linecap="round" stroke-linejoin="round"/>
<path d="M285.761 127.931C285.761 127.931 284.04 127.664 283.274 128.636" stroke="#222221" stroke-linecap="round" stroke-linejoin="round"/>
<path d="M292.096 134.02C292.018 134.622 291.631 135.06 291.235 135.009C290.839 134.957 290.572 134.433 290.65 133.831C290.727 133.229 291.115 132.79 291.511 132.842C291.906 132.893 292.173 133.418 292.096 134.02Z" fill="#222221"/>
<path d="M285.225 132.689C285.303 132.091 285.041 131.564 284.64 131.512C284.239 131.46 283.851 131.902 283.774 132.501C283.696 133.099 283.958 133.626 284.358 133.678C284.759 133.73 285.147 133.287 285.225 132.689Z" fill="#222221"/>
<path d="M291.519 132.842L290.159 132.248C290.177 132.397 290.234 132.539 290.323 132.659C290.413 132.779 290.532 132.874 290.669 132.934C290.807 132.994 290.958 133.017 291.107 133.001C291.256 132.984 291.398 132.93 291.519 132.842Z" fill="#222221"/>
<path d="M284.771 131.569L283.411 130.975C283.429 131.124 283.486 131.266 283.575 131.386C283.665 131.506 283.784 131.601 283.921 131.661C284.059 131.721 284.209 131.744 284.359 131.728C284.508 131.712 284.65 131.657 284.771 131.569Z" fill="#222221"/>
<path d="M276.267 203.886V207.472L309.319 207.748L308.432 203.482L276.267 203.886Z" fill="#6FA926"/>
<path d="M276.672 186.48L258.493 249.655C257.889 251.771 256.664 253.657 254.976 255.071C253.289 256.484 251.216 257.36 249.026 257.585C247.631 257.718 246.224 257.589 244.877 257.206L210.13 247.222C207.321 246.412 204.948 244.522 203.531 241.967C202.115 239.412 201.77 236.399 202.573 233.591L220.76 170.398C221.572 167.595 223.463 165.228 226.018 163.816C228.574 162.404 231.586 162.062 234.393 162.864L269.166 172.84C271.969 173.659 274.333 175.554 275.739 178.111C277.146 180.667 277.482 183.677 276.672 186.48Z" fill="#E7E7E7"/>
<path opacity="0.2" d="M276.672 186.48L258.493 249.655C257.889 251.771 256.664 253.657 254.976 255.071C253.289 256.484 251.216 257.36 249.026 257.585C247.631 257.718 246.224 257.589 244.877 257.206L210.13 247.222C207.321 246.412 204.948 244.522 203.531 241.967C202.115 239.412 201.77 236.399 202.573 233.591L220.76 170.398C221.572 167.595 223.463 165.228 226.018 163.816C228.574 162.404 231.586 162.062 234.393 162.864L269.166 172.84C271.969 173.659 274.333 175.554 275.739 178.111C277.146 180.667 277.482 183.677 276.672 186.48Z" fill="black"/>
<path d="M273.651 187.228L255.472 250.412C255.013 252.021 254.191 253.503 253.071 254.746C251.951 255.989 250.561 256.96 249.008 257.585C247.614 257.718 246.207 257.589 244.86 257.206L210.13 247.222C207.321 246.412 204.948 244.522 203.531 241.967C202.115 239.412 201.77 236.399 202.573 233.591L220.76 170.398C221.22 168.792 222.041 167.312 223.162 166.072C224.282 164.832 225.671 163.864 227.224 163.243C228.618 163.101 230.027 163.229 231.372 163.621L266.076 173.64C268.88 174.445 271.251 176.326 272.67 178.872C274.09 181.418 274.442 184.423 273.651 187.228Z" fill="#D4D4D4"/>
<path opacity="0.5" d="M273.651 187.228L255.472 250.412C255.013 252.021 254.191 253.503 253.071 254.746C251.951 255.989 250.561 256.96 249.008 257.585C247.614 257.718 246.207 257.589 244.86 257.206L210.13 247.222C207.321 246.412 204.948 244.522 203.531 241.967C202.115 239.412 201.77 236.399 202.573 233.591L220.76 170.398C221.22 168.792 222.041 167.312 223.162 166.072C224.282 164.832 225.671 163.864 227.224 163.243C228.618 163.101 230.027 163.229 231.372 163.621L266.076 173.64C268.88 174.445 271.251 176.326 272.67 178.872C274.09 181.418 274.442 184.423 273.651 187.228Z" fill="#FAFAFA"/>
<path d="M224.78 192.601L221.06 191.553L207.672 239.017L211.392 240.064L224.78 192.601Z" fill="#FAFAFA"/>
<path d="M216.731 241.571L213.013 240.496L226.397 193.05L230.107 194.117L216.731 241.571Z" fill="#FAFAFA"/>
<path d="M222.137 243.119L218.418 242.053L231.803 194.607L235.521 195.673L222.137 243.119Z" fill="#FAFAFA"/>
<path opacity="0.5" d="M257.166 201.891L253.446 200.844L240.058 248.307L243.778 249.354L257.166 201.891Z" fill="black"/>
<path d="M256.695 188.475L254.887 194.916L252.684 194.297C251.616 193.995 250.712 193.282 250.17 192.314C249.628 191.347 249.492 190.205 249.792 189.137L250.997 184.837L255.447 186.11C255.926 186.259 256.326 186.591 256.56 187.034C256.794 187.478 256.843 187.996 256.695 188.475Z" fill="#FAFAFA"/>
<path d="M255.636 185.319L251.186 184.046L252.52 179.333C252.669 178.804 252.921 178.31 253.261 177.879C253.601 177.447 254.023 177.087 254.503 176.819C254.982 176.551 255.51 176.379 256.056 176.315C256.602 176.25 257.155 176.294 257.684 176.444L259.974 177.089L257.977 184.029C257.911 184.269 257.797 184.493 257.643 184.688C257.489 184.884 257.297 185.046 257.079 185.167C256.86 185.287 256.62 185.362 256.373 185.388C256.125 185.414 255.874 185.391 255.636 185.319Z" fill="#FAFAFA"/>
<path d="M259.853 187.4L264.329 188.681L263.141 192.887C262.994 193.417 262.744 193.912 262.404 194.345C262.064 194.778 261.642 195.139 261.162 195.407C260.682 195.676 260.153 195.847 259.606 195.91C259.06 195.974 258.506 195.928 257.977 195.776L255.653 195.123L257.504 188.69C257.572 188.45 257.687 188.227 257.842 188.032C257.998 187.837 258.19 187.675 258.409 187.555C258.627 187.435 258.868 187.359 259.116 187.333C259.364 187.306 259.614 187.329 259.853 187.4Z" fill="#FAFAFA"/>
<path d="M265.913 183.1L264.562 187.882L260.086 186.6C259.607 186.46 259.202 186.137 258.96 185.7C258.718 185.264 258.659 184.75 258.795 184.27L260.792 177.329L263.021 177.957C263.549 178.105 264.042 178.355 264.473 178.694C264.904 179.032 265.264 179.452 265.533 179.93C265.802 180.408 265.973 180.933 266.038 181.477C266.104 182.021 266.061 182.573 265.913 183.1Z" fill="#FAFAFA"/>
<path d="M86.6407 115C86.6407 115 85.4371 122.889 76.0774 123.435C85.4371 123.98 86.6407 131.87 86.6407 131.87C86.6407 131.87 87.8444 123.98 97.2041 123.435C87.8444 122.889 86.6407 115 86.6407 115Z" fill="#0EBED9"/>
<path d="M163.059 32C163.059 32 162.157 37.9191 155.143 38.3261C162.164 38.7354 163.066 44.6522 163.066 44.6522C163.066 44.6522 163.968 38.7354 170.989 38.3261C163.961 37.9191 163.059 32 163.059 32Z" fill="#6FA926"/>
<path d="M403.753 276C403.753 276 404.835 283.87 413.162 284.413C404.824 284.951 403.753 292.827 403.753 292.827C403.753 292.827 402.67 284.956 394.344 284.413C402.681 283.87 403.753 276 403.753 276Z" fill="#0EBED9"/>
</svg>
