<svg width="581" height="526" viewBox="0 0 581 526" fill="none" xmlns="http://www.w3.org/2000/svg">
<path d="M538.212 290.901C477.497 420.727 335.683 482.668 221.463 429.251C107.243 375.834 60.4424 196.438 121.158 66.612C181.874 -63.2139 262.192 96.1618 376.412 149.579C490.632 202.996 598.928 161.075 538.212 290.901Z" fill="#F5F8FF"/>
<path d="M309 395.969C433.215 395.969 533.912 390.09 533.912 382.838C533.912 375.586 433.215 369.707 309 369.707C184.784 369.707 84.0874 375.586 84.0874 382.838C84.0874 390.09 184.784 395.969 309 395.969Z" fill="#DCDCDC"/>
<path d="M362.731 31.915C361.664 29.2105 360.061 26.7496 358.018 24.6802C355.976 22.6107 353.536 20.9754 350.846 19.8724C348.156 18.7695 345.271 18.2216 342.363 18.2618C339.456 18.302 336.587 18.9294 333.928 20.1062C324.045 24.4678 318.686 37.1466 322.409 47.2734C324.269 52.3865 328 56.603 332.849 59.0707C334.866 60.037 336.577 61.5426 337.791 63.4207L340.853 68.3159C341.858 69.9181 343.391 71.1193 345.187 71.7122C346.982 72.3052 348.929 72.2527 350.69 71.5638L358.416 68.5131C360.173 67.8128 361.631 66.521 362.537 64.8606C363.444 63.2003 363.742 61.2755 363.381 59.4186L362.221 53.549C361.849 51.471 362.062 49.3304 362.835 47.3662C364.72 42.3815 364.683 36.8738 362.731 31.915Z" fill="#FFA945"/>
<path d="M351.711 81.3312C351.216 81.3298 350.726 81.2272 350.273 81.0296C349.835 80.8446 349.439 80.5737 349.109 80.233C348.778 79.8923 348.519 79.4887 348.347 79.046C348.008 78.161 348.031 77.1782 348.411 76.3099C348.791 75.4417 349.497 74.7578 350.377 74.406L360.62 70.3576C361.505 70.0156 362.489 70.037 363.358 70.4172C364.227 70.7974 364.91 71.5057 365.26 72.3876C365.444 72.8247 365.538 73.294 365.538 73.768C365.538 74.2421 365.444 74.7114 365.26 75.1484C364.878 76.0268 364.165 76.7188 363.276 77.074L353.08 81.076C352.645 81.2525 352.18 81.3393 351.711 81.3312ZM361.942 71.2276C361.636 71.2261 361.332 71.2852 361.049 71.4016L350.76 75.45C350.308 75.6244 349.918 75.9296 349.64 76.3267C349.363 76.7237 349.21 77.1945 349.201 77.6789C349.192 78.1633 349.328 78.6393 349.591 79.0461C349.855 79.4529 350.233 79.7719 350.679 79.9624C350.976 80.0888 351.295 80.1539 351.618 80.1539C351.941 80.1539 352.261 80.0888 352.558 79.9624L362.801 75.9256C363.099 75.8064 363.37 75.6291 363.599 75.4041C363.828 75.179 364.01 74.9108 364.135 74.6148C364.264 74.3205 364.331 74.0025 364.331 73.681C364.331 73.3595 364.264 73.0415 364.135 72.7472C363.95 72.2844 363.629 71.8883 363.215 71.6108C362.801 71.3334 362.313 71.1877 361.815 71.1928L361.942 71.2276Z" fill="#263238"/>
<path d="M356.931 87.5717C356.62 87.5684 356.313 87.5054 356.026 87.3861C355.497 87.1339 355.082 86.6904 354.866 86.1449L354.692 85.6925C354.583 85.4184 354.53 85.1254 354.534 84.8305C354.539 84.5356 354.602 84.2445 354.719 83.9739C354.837 83.7033 355.007 83.4586 355.219 83.2539C355.431 83.0492 355.682 82.8884 355.957 82.7809L362.348 80.2521C362.905 80.05 363.518 80.0684 364.061 80.3034C364.605 80.5385 365.038 80.9725 365.271 81.5165L365.445 81.9689C365.659 82.523 365.646 83.139 365.41 83.6837C365.173 84.2285 364.732 84.6584 364.181 84.8805L357.72 87.4093C357.469 87.5114 357.202 87.5665 356.931 87.5717ZM363.137 81.2497C363.002 81.2536 362.868 81.2811 362.743 81.3309L356.351 83.8597C356.218 83.911 356.097 83.9881 355.994 84.0865C355.891 84.185 355.808 84.3029 355.751 84.4334C355.694 84.5639 355.663 84.7044 355.661 84.8469C355.658 84.9893 355.684 85.1308 355.736 85.2633L355.91 85.7157C355.963 85.8491 356.041 85.9707 356.141 86.0738C356.24 86.1769 356.359 86.2594 356.49 86.3165C356.622 86.3736 356.763 86.4042 356.907 86.4066C357.05 86.409 357.192 86.3832 357.325 86.3305L363.717 83.8017C363.851 83.7495 363.973 83.6714 364.076 83.5719C364.18 83.4723 364.263 83.3533 364.32 83.2217C364.375 83.0913 364.403 82.9513 364.403 82.8099C364.403 82.6685 364.375 82.5285 364.32 82.3981L364.146 81.9457C364.06 81.747 363.919 81.5765 363.741 81.4535C363.563 81.3305 363.353 81.2599 363.137 81.2497Z" fill="#263238"/>
<path d="M337.896 52.4935C337.105 52.4949 336.328 52.2807 335.65 51.8737C334.972 51.4668 334.417 50.8827 334.046 50.1841C333.675 49.4855 333.501 48.699 333.544 47.9092C333.587 47.1193 333.844 46.356 334.288 45.7014C334.732 45.0469 335.346 44.5257 336.064 44.1941C336.782 43.8625 337.577 43.733 338.363 43.8196C339.15 43.9061 339.897 44.2053 340.526 44.6852C341.155 45.165 341.641 45.8072 341.932 46.5427L343.533 50.5911L339.485 52.1803C338.98 52.3854 338.44 52.4917 337.896 52.4935ZM337.896 44.9535C337.424 44.9484 336.957 45.0482 336.528 45.2455C336.099 45.4428 335.72 45.7327 335.417 46.0944C335.114 46.4561 334.894 46.8805 334.775 47.3371C334.656 47.7937 334.639 48.271 334.727 48.7347C334.814 49.1984 335.004 49.637 335.281 50.0187C335.559 50.4004 335.917 50.7158 336.331 50.9422C336.745 51.1686 337.204 51.3003 337.676 51.3278C338.147 51.3554 338.618 51.2781 339.056 51.1015L342.025 49.9415L340.865 46.9835C340.625 46.3916 340.212 45.8857 339.68 45.5319C339.149 45.178 338.523 44.9927 337.884 44.9999L337.896 44.9535Z" fill="white"/>
<path d="M350.725 71.9585L342.037 49.9301L350.029 46.7749L358.717 68.8033L357.639 69.2325L349.368 48.2829L343.533 50.5913L351.804 71.5293L350.725 71.9585Z" fill="white"/>
<path d="M349.368 48.2824L347.779 44.234C347.462 43.4337 347.39 42.5574 347.571 41.7161C347.753 40.8748 348.18 40.1062 348.799 39.5077C349.417 38.9091 350.199 38.5076 351.046 38.3537C351.893 38.1999 352.766 38.3008 353.556 38.6435C354.345 38.9863 355.015 39.5556 355.481 40.2793C355.947 41.003 356.188 41.8487 356.173 42.7093C356.158 43.5698 355.888 44.4066 355.397 45.1137C354.907 45.8209 354.217 46.3665 353.416 46.6816L349.368 48.2824ZM351.815 39.4432C351.418 39.4486 351.025 39.5273 350.655 39.6752C350.265 39.8287 349.909 40.0578 349.608 40.3494C349.307 40.6409 349.066 40.9892 348.9 41.3741C348.734 41.759 348.646 42.173 348.641 42.5921C348.635 43.0113 348.713 43.4274 348.869 43.8164L350.029 46.7744L352.987 45.6144C353.678 45.3432 354.254 44.8391 354.613 44.1892C354.973 43.5394 355.094 42.7844 354.957 42.0545C354.819 41.3246 354.431 40.6655 353.86 40.1909C353.289 39.7164 352.57 39.456 351.827 39.4548L351.815 39.4432Z" fill="white"/>
<path d="M367.383 103.568C363.026 103.574 358.677 103.221 354.379 102.513L354.576 101.353C358.794 102.049 363.062 102.398 367.336 102.397L367.383 103.568Z" fill="#FFA945"/>
<path d="M391.36 115.586L391.975 114.333C394.114 109.57 394.544 104.215 393.193 99.1717C388.679 100.789 384.016 101.955 379.273 102.652L379.099 101.492C383.961 100.764 388.734 99.5359 393.343 97.8261L393.923 97.6173L394.097 98.1973C395.57 103.231 395.379 108.605 393.552 113.521C407.809 107.848 422.691 87.7109 422.691 63.7221C422.691 42.4245 397.856 25.0941 367.325 25.0941C336.793 25.0941 311.969 42.4245 311.969 63.7221C311.969 79.2081 325.159 93.1629 345.609 99.2645L345.273 100.424C324.393 94.1721 310.844 79.7881 310.844 63.7685C310.844 41.8329 336.202 23.9805 367.359 23.9805C398.517 23.9805 423.886 41.8329 423.886 63.7685C423.886 88.9869 407.646 110.064 392.682 115.133L391.36 115.586Z" fill="#FFA945"/>
<path d="M423.563 33.7758L384.92 40.6799C382.145 41.1757 380.298 43.8272 380.794 46.6021L384.907 69.6231C385.402 72.3981 388.054 74.2456 390.829 73.7499L429.471 66.8457C432.246 66.3499 434.094 63.6985 433.598 60.9236L429.485 37.9025C428.989 35.1276 426.338 33.28 423.563 33.7758Z" fill="#FFA945"/>
<path d="M414.281 52.5285L400.593 47.5869L403.157 61.9013L414.281 52.5285Z" fill="white"/>
<path d="M268.701 244.137H170.148C168.104 244.137 166.447 245.794 166.447 247.838V253.092C166.447 255.136 168.104 256.793 170.148 256.793H268.701C270.745 256.793 272.402 255.136 272.402 253.092V247.838C272.402 245.794 270.745 244.137 268.701 244.137Z" fill="#0EBED9"/>
<path d="M267.588 375.879H270.523L267.147 256.793H263.075L267.588 375.879Z" fill="#0EBED9"/>
<path opacity="0.3" d="M267.588 375.879H270.523L267.147 256.793H263.075L267.588 375.879Z" fill="white"/>
<path d="M240.525 375.879H237.59L240.977 256.793H245.037L240.525 375.879Z" fill="#0EBED9"/>
<path opacity="0.3" d="M240.525 375.879H237.59L240.977 256.793H245.037L240.525 375.879Z" fill="white"/>
<path d="M198.324 375.879H201.271L197.883 256.793H193.812L198.324 375.879Z" fill="#0EBED9"/>
<path opacity="0.3" d="M198.324 375.879H201.271L197.883 256.793H193.812L198.324 375.879Z" fill="white"/>
<path d="M171.273 375.879H168.327L171.714 256.793H175.774L171.273 375.879Z" fill="#0EBED9"/>
<path opacity="0.3" d="M171.273 375.879H168.327L171.714 256.793H175.774L171.273 375.879Z" fill="white"/>
<path d="M298.919 345.614L309.383 342.076L300.775 317.646L290.324 321.184L298.919 345.614Z" fill="#FFC3BD"/>
<path d="M308.605 338.039L297.145 343.12C297.05 343.153 296.963 343.207 296.891 343.277C296.819 343.346 296.763 343.431 296.726 343.525C296.69 343.619 296.674 343.719 296.68 343.819C296.686 343.92 296.714 344.017 296.762 344.106L301.112 352.945C301.384 353.409 301.814 353.758 302.323 353.931C302.832 354.103 303.386 354.087 303.884 353.885C307.84 352.064 309.615 351.008 314.661 348.792C317.769 347.435 324.022 345.011 327.896 342.517C331.771 340.023 328.731 336.427 326.829 337.146C322.317 338.863 314.811 338.793 310.705 337.912C310.009 337.737 309.275 337.781 308.605 338.039Z" fill="#263238"/>
<path opacity="0.2" d="M290.324 321.196L300.787 317.646L305.694 331.624L295.057 334.664L290.324 321.196Z" fill="black"/>
<path d="M224.807 211.101C224.807 211.101 277.007 220.52 281.218 237.665C289.489 271.56 308.141 324.572 308.141 324.572L288.282 330.372C288.282 330.372 259.885 269.576 256.313 249.114C227.023 249.114 191.353 251.434 186.713 239.045C182.641 228.048 184.091 211.147 184.091 211.147L224.807 211.101Z" fill="#263238"/>
<path d="M287.192 333.84L310.392 326.184L308.408 315.709L283.109 324.618L287.192 333.84Z" fill="#6FA926"/>
<path d="M253.447 349.326L265.001 350.208L258.215 321.695L247.439 324.131L253.447 349.326Z" fill="#FFC3BD"/>
<path d="M264.711 347.424L252.264 346.043C252.164 346.025 252.061 346.028 251.962 346.053C251.864 346.078 251.772 346.124 251.692 346.188C251.613 346.252 251.548 346.332 251.503 346.423C251.458 346.515 251.432 346.614 251.429 346.716L250.779 356.553C250.801 357.085 251.006 357.594 251.359 357.993C251.712 358.392 252.191 358.658 252.717 358.745C257.043 359.151 259.12 359.117 264.595 359.72C267.959 360.091 274.594 361.123 279.199 360.88C283.805 360.636 282.969 356.008 280.951 355.695C276.183 354.917 269.734 351.113 266.613 348.294C266.087 347.811 265.421 347.507 264.711 347.424Z" fill="#263238"/>
<path opacity="0.2" d="M247.439 324.143L258.215 321.707L261.637 336.114L250.745 338.028L247.439 324.143Z" fill="black"/>
<path d="M197.64 211.101C197.64 211.101 261.103 220.601 258.192 244.625C254.004 279.262 264.757 329.363 264.757 329.363L244.399 333.005C244.399 333.005 229.435 270.736 229.319 249.961C208.671 249.961 172.595 251.434 167.979 238.999C163.907 228.002 165.357 211.101 165.357 211.101H197.64Z" fill="#263238"/>
<path d="M242.996 336.392L266.88 331.195L265.999 320.581L239.899 326.787L242.996 336.392Z" fill="#6FA926"/>
<path d="M231.117 144.342C232.811 150.977 234.47 157.671 236.094 164.341C237.718 171.011 239.307 177.692 240.989 184.281L242.253 189.188L242.903 191.601L243.239 192.761V192.911V192.981C243.239 192.981 243.239 192.877 243.181 192.83C243.094 192.593 242.985 192.364 242.857 192.146L242.683 191.879L242.555 191.705L242.323 191.45C242.079 191.218 242.045 191.253 242.103 191.311C242.227 191.439 242.368 191.552 242.52 191.647C243.031 191.991 243.566 192.297 244.121 192.563C245.374 193.178 246.835 193.723 248.332 194.327C254.364 196.565 261.022 198.468 267.495 200.521L266.474 207.922C262.912 207.963 259.35 207.824 255.802 207.504C252.192 207.207 248.602 206.703 245.049 205.996C243.141 205.626 241.259 205.138 239.411 204.535C238.345 204.194 237.303 203.783 236.291 203.305C235.669 203.016 235.068 202.682 234.493 202.307C233.693 201.798 232.957 201.194 232.301 200.509C232.092 200.277 231.895 200.057 231.663 199.755L231.338 199.315L231.013 198.769C230.774 198.361 230.568 197.935 230.398 197.493L230.213 196.96L229.76 195.684L228.89 193.155C228.322 191.473 227.73 189.791 227.255 188.121C225.155 181.416 223.241 174.746 221.455 168.029C219.668 161.313 217.975 154.608 216.42 147.811L231.117 144.342Z" fill="#FFC3BD"/>
<path d="M214.808 136.315C221.176 129.216 231.268 134.181 235.525 150.073C237.59 157.798 236.941 161.835 236.941 161.835L214.97 168.61C210.249 158.17 206.143 145.99 214.808 136.315Z" fill="#6FA926"/>
<g opacity="0.2">
<path opacity="0.2" d="M214.808 136.315C221.176 129.216 231.268 134.181 235.525 150.073C237.59 157.798 236.941 161.835 236.941 161.835L214.97 168.61C210.249 158.17 206.143 145.99 214.808 136.315Z" fill="black"/>
</g>
<path d="M279.014 197.54L277.042 196.937C275.848 196.576 274.593 196.461 273.353 196.6L269.119 197.099C267.754 197.423 266.473 198.032 265.359 198.886C264.246 199.739 263.325 200.818 262.658 202.052L261.219 204.86C261.939 210.033 272.425 208.34 272.425 208.34H282.32L281.995 201.31C281.945 200.452 281.632 199.629 281.099 198.955C280.566 198.28 279.838 197.786 279.014 197.54Z" fill="#FFC3BD"/>
<path d="M285.8 186.218C285.519 188.124 284.716 189.914 283.48 191.392C282.424 192.935 281.334 194.466 280.232 196.032C278.016 199.06 275.754 202.041 273.272 204.883C273.163 205.006 273.013 205.085 272.851 205.105C272.688 205.125 272.523 205.085 272.388 204.992C272.252 204.9 272.156 204.761 272.115 204.602C272.075 204.443 272.095 204.275 272.17 204.129C273.887 200.765 275.824 197.563 277.807 194.385C278.805 192.799 279.826 191.226 280.87 189.664C281.771 187.956 283.123 186.527 284.779 185.534C284.902 185.459 285.043 185.42 285.186 185.421C285.33 185.423 285.47 185.465 285.591 185.542C285.712 185.62 285.809 185.73 285.871 185.859C285.932 185.989 285.956 186.134 285.939 186.276L285.8 186.218Z" fill="#263238"/>
<path d="M216.281 129.436L203.904 125.956L187.977 125.214C185.562 125.1 183.176 125.784 181.187 127.159C179.198 128.534 177.716 130.524 176.969 132.823C173.929 142.103 171.169 155.467 169.104 167.032C166.654 181.598 165.409 196.341 165.38 211.112H224.807C226.025 178.11 229.911 161.986 232.208 150.305C232.882 146.844 232.387 143.257 230.802 140.108C229.217 136.959 226.631 134.425 223.45 132.905L216.281 129.436Z" fill="#6FA926"/>
<path d="M199.681 131.756C201.189 135.631 207.024 143.913 213.81 147.15C217.58 144.424 218.392 138.473 218.961 135.689L199.681 131.756Z" fill="white"/>
<path d="M218.961 135.689C219.401 134.158 219.217 132.515 218.45 131.119C217.487 129.611 217.731 127.882 218.694 126.107C219.457 124.694 220.414 123.394 221.536 122.245L213.752 113.139L207.407 105.784C206.862 112.663 206.328 121.189 200.899 126.525C198.985 128.416 198.579 128.984 199.681 131.757C201.189 135.631 206.641 141.037 213.369 144.273C214.827 143.287 216.072 142.02 217.032 140.546C217.993 139.072 218.648 137.42 218.961 135.689Z" fill="#FFC3BD"/>
<path opacity="0.2" d="M219.146 120.678L214.75 113.544C214.669 113.73 214.564 113.927 214.46 114.136C214.064 115.019 213.746 115.935 213.509 116.874C212.708 120.04 215.399 124.564 218.346 126.722C218.473 126.525 218.578 126.316 218.694 126.107C219.444 124.768 220.335 123.512 221.35 122.36C221.408 122.316 221.47 122.277 221.536 122.244L219.146 120.678Z" fill="black"/>
<path d="M234.505 103.626C235.525 110.204 244.945 93.2793 239.678 89.5673C233.252 85.0201 232.579 91.1101 234.505 103.626Z" fill="#263238"/>
<path d="M207.697 95.0423C207.094 105.726 206.177 111.932 211.084 118.103C218.462 127.383 232.625 124.321 236.535 114.101C240.015 104.891 240.444 88.9755 230.178 83.3379C219.912 77.7003 208.3 84.3703 207.697 95.0423Z" fill="#FFC3BD"/>
<path d="M228.751 88.6276C228.751 88.6276 235.583 95.3324 240.455 92.56C245.327 89.7876 246.313 82.6072 240.455 76.32C237.637 73.2924 233.368 70.3344 224.993 70.52C225.653 71.1637 226.444 71.6582 227.313 71.97C227.313 71.97 216.687 70.1952 209.286 73.246C209.879 74.1379 210.674 74.8772 211.606 75.4036C204.402 74.8584 197.396 77.7236 202.326 84.4864C195.795 85.1244 194.334 93.4764 197.814 98.9864C201.294 104.496 201.909 108.626 206.56 111.132C206.56 103.626 208.288 101.852 208.288 101.852C211.641 100.425 215.504 93.2792 214.727 89.6716C221.895 92.56 229.54 93.5112 228.751 88.6276Z" fill="#263238"/>
<path d="M204.043 84.2427C201.77 82.6225 200.004 80.3898 198.951 77.8047C198.115 81.5399 201.978 85.7971 201.978 85.7971L204.043 84.2427Z" fill="#263238"/>
<path d="M202.361 100.877C202.44 103.323 203.4 105.659 205.064 107.454C207.279 109.774 210.295 107.802 210.864 104.821C211.328 102.141 210.191 98.0466 207.384 96.8402C204.577 95.6338 202.28 97.8842 202.361 100.877Z" fill="#FFC3BD"/>
<path d="M225.19 100.552C225.016 101.434 225.329 102.257 225.897 102.397C226.466 102.536 227.057 101.933 227.255 101.051C227.452 100.17 227.115 99.3459 226.547 99.2067C225.979 99.0675 225.364 99.6823 225.19 100.552Z" fill="#263238"/>
<path d="M235.05 102.907C234.864 103.789 235.189 104.601 235.757 104.74C236.326 104.879 236.917 104.276 237.115 103.395C237.312 102.513 236.964 101.689 236.395 101.562C235.827 101.434 235.224 102.026 235.05 102.907Z" fill="#263238"/>
<path d="M231.767 102.837C232.023 105.364 232.616 107.845 233.53 110.215C231.906 111.039 229.865 109.797 229.865 109.797L231.767 102.837Z" fill="#E9B3AD"/>
<path d="M228.043 114.727C227.022 114.514 226.054 114.095 225.199 113.497C224.344 112.899 223.618 112.133 223.067 111.247C223.045 111.217 223.029 111.182 223.022 111.145C223.014 111.108 223.015 111.069 223.023 111.033C223.031 110.996 223.047 110.961 223.07 110.931C223.093 110.901 223.121 110.875 223.155 110.857C223.188 110.839 223.224 110.828 223.262 110.825C223.3 110.822 223.338 110.827 223.373 110.84C223.409 110.853 223.441 110.873 223.468 110.899C223.496 110.925 223.517 110.957 223.531 110.992C224.146 111.939 224.969 112.733 225.939 113.312C226.908 113.891 227.997 114.24 229.122 114.333C229.156 114.334 229.19 114.343 229.221 114.358C229.251 114.373 229.278 114.394 229.3 114.42C229.322 114.447 229.338 114.477 229.348 114.51C229.357 114.543 229.359 114.578 229.354 114.611C229.353 114.646 229.344 114.68 229.329 114.711C229.314 114.742 229.293 114.77 229.267 114.793C229.241 114.816 229.211 114.833 229.178 114.844C229.145 114.854 229.11 114.858 229.076 114.855C228.729 114.833 228.385 114.79 228.043 114.727Z" fill="#263238"/>
<path d="M223.891 97.003C223.81 96.9706 223.738 96.9188 223.682 96.8522C223.594 96.7439 223.552 96.6056 223.565 96.4668C223.578 96.3281 223.645 96.2 223.751 96.1098C224.379 95.5678 225.131 95.189 225.941 95.0069C226.75 94.8248 227.592 94.845 228.391 95.0658C228.524 95.1104 228.633 95.2057 228.695 95.3308C228.757 95.4559 228.767 95.6005 228.722 95.7328C228.677 95.8651 228.582 95.9742 228.457 96.0362C228.332 96.0982 228.187 96.108 228.055 96.0634C227.425 95.9038 226.767 95.8986 226.135 96.048C225.502 96.1974 224.916 96.4972 224.424 96.9218C224.351 96.9827 224.263 97.0224 224.169 97.0367C224.075 97.051 223.979 97.0394 223.891 97.003Z" fill="#263238"/>
<path d="M236.268 97.2002C236.251 97.116 236.251 97.0292 236.268 96.945C236.308 96.812 236.398 96.6994 236.519 96.6304C236.64 96.5614 236.782 96.5412 236.917 96.5738C237.716 96.7867 238.451 97.1919 239.058 97.754C239.664 98.3161 240.124 99.018 240.397 99.7986C240.417 99.8649 240.423 99.9343 240.415 100.003C240.408 100.072 240.387 100.138 240.353 100.199C240.32 100.259 240.275 100.312 240.22 100.355C240.166 100.398 240.104 100.43 240.038 100.448C239.971 100.468 239.902 100.474 239.833 100.466C239.765 100.459 239.698 100.438 239.638 100.404C239.577 100.371 239.524 100.326 239.481 100.271C239.439 100.217 239.407 100.155 239.388 100.089C239.165 99.4781 238.796 98.9315 238.312 98.4967C237.829 98.0619 237.246 97.7522 236.616 97.5946C236.53 97.5627 236.453 97.5099 236.392 97.4411C236.332 97.3723 236.289 97.2896 236.268 97.2002Z" fill="#263238"/>
<path d="M190.459 141.141C188.232 147.497 186.005 154.121 184.021 160.617C183.012 163.865 182.096 167.125 181.272 170.338C180.474 173.424 179.854 176.553 179.416 179.711C179.416 180.059 179.323 180.441 179.312 180.778V181.288C179.312 181.451 179.312 181.694 179.312 181.613C179.312 181.532 179.219 181.683 179.312 181.926C179.606 182.813 180.084 183.627 180.715 184.316C182.708 186.522 184.968 188.47 187.443 190.116C193.029 193.882 198.862 197.269 204.901 200.254L202.419 207.4C198.824 206.615 195.28 205.616 191.805 204.407C188.265 203.194 184.808 201.749 181.458 200.08C177.784 198.288 174.385 195.98 171.366 193.225C169.447 191.457 167.901 189.323 166.819 186.949C166.143 185.424 165.75 183.789 165.659 182.123C165.659 181.601 165.659 181.416 165.659 181.137V180.325C165.659 179.78 165.659 179.281 165.659 178.759C165.858 174.897 166.343 171.055 167.109 167.264C167.805 163.598 168.675 160.049 169.614 156.522C171.496 149.518 173.746 142.618 176.354 135.851L190.459 141.141Z" fill="#FFC3BD"/>
<path d="M187.2 125.144C198.545 125.04 200.691 133.868 194.519 147.857C192.158 152.913 189.273 157.706 185.912 162.16L167.155 152.196C169.661 141.025 174.243 125.26 187.2 125.144Z" fill="#6FA926"/>
<path d="M218.52 199.141L214.367 196.821C213.688 196.448 212.908 196.302 212.14 196.403L207.152 197.099C203.799 197.447 201.352 200.011 199.531 202.238L197.408 204.836C197.303 210.08 210.551 208.85 210.551 208.85L222.151 208.699L221.791 204.129C221.699 203.092 221.353 202.094 220.782 201.224C220.211 200.354 219.434 199.638 218.52 199.141Z" fill="#FFC3BD"/>
<path d="M465.994 206.112H151.994V220.81H465.994V206.112Z" fill="#0EBED9"/>
<path opacity="0.3" d="M253.842 206.112H151.994V220.81H253.842V206.112Z" fill="white"/>
<path d="M160.404 220.81H155.601V382.838H160.404V220.81Z" fill="#0EBED9"/>
<path opacity="0.7" d="M160.404 220.81H155.601V382.838H160.404V220.81Z" fill="white"/>
<path d="M250.246 220.81H245.443V382.838H250.246V220.81Z" fill="#0EBED9"/>
<path opacity="0.7" d="M250.246 220.81H245.443V382.838H250.246V220.81Z" fill="white"/>
<path d="M372.556 220.81H367.754V382.838H372.556V220.81Z" fill="#0EBED9"/>
<path opacity="0.7" d="M372.556 220.81H367.754V382.838H372.556V220.81Z" fill="white"/>
<path d="M462.398 220.81H457.596V382.838H462.398V220.81Z" fill="#0EBED9"/>
<path opacity="0.7" d="M462.398 220.81H457.596V382.838H462.398V220.81Z" fill="white"/>
<path d="M431.96 141.152H346.12C344.649 141.205 343.239 141.756 342.122 142.715C341.005 143.674 340.247 144.984 339.972 146.43L331.017 200.823C330.88 201.471 330.891 202.142 331.051 202.785C331.211 203.428 331.514 204.027 331.938 204.536C332.362 205.045 332.897 205.451 333.5 205.724C334.104 205.997 334.762 206.13 335.425 206.112H421.265C422.739 206.061 424.153 205.51 425.273 204.548C426.392 203.587 427.151 202.273 427.424 200.823L436.379 146.43C436.517 145.781 436.505 145.11 436.345 144.466C436.185 143.823 435.88 143.224 435.454 142.715C435.028 142.207 434.493 141.802 433.887 141.531C433.282 141.26 432.623 141.131 431.96 141.152Z" fill="#263238"/>
<path d="M377.451 202.562H296.634C296.102 202.562 295.671 202.994 295.671 203.525V205.149C295.671 205.681 296.102 206.112 296.634 206.112H377.451C377.983 206.112 378.414 205.681 378.414 205.149V203.525C378.414 202.994 377.983 202.562 377.451 202.562Z" fill="#263238"/>
<path opacity="0.2" d="M431.96 141.152H347.999C346.528 141.205 345.118 141.756 344.001 142.715C342.884 143.674 342.126 144.984 341.851 146.43L332.896 200.823C332.756 201.471 332.766 202.143 332.925 202.787C333.084 203.431 333.387 204.031 333.812 204.541C334.237 205.05 334.772 205.457 335.377 205.729C335.982 206.001 336.641 206.132 337.304 206.112H421.207C422.681 206.061 424.095 205.51 425.215 204.548C426.334 203.587 427.093 202.273 427.366 200.823L436.321 146.43C436.458 145.786 436.447 145.12 436.29 144.481C436.133 143.842 435.833 143.246 435.414 142.739C434.995 142.231 434.466 141.825 433.868 141.551C433.27 141.276 432.618 141.14 431.96 141.152Z" fill="white"/>
<path d="M209.773 202.563C209.773 202.563 237.416 206.681 250.756 201.24C256.997 204.245 279.223 205.729 286.96 202.563C284.57 205.335 278.956 206.112 278.956 206.112H220.643C215.04 206.112 210.759 203.665 209.773 202.563Z" fill="#0EBED9"/>
<path opacity="0.7" d="M209.773 202.563C209.773 202.563 237.416 206.681 250.756 201.24C256.997 204.245 279.223 205.729 286.96 202.563C284.57 205.335 278.956 206.112 278.956 206.112H220.643C215.04 206.112 210.759 203.665 209.773 202.563Z" fill="white"/>
<path d="M93.401 221C93.401 221 94.4825 228.87 102.802 229.413C94.4717 229.951 93.401 237.827 93.401 237.827C93.401 237.827 92.3196 229.956 83.9998 229.413C92.3304 228.868 93.401 221 93.401 221Z" fill="#FFA945"/>
<path d="M508.61 178C508.61 178 507.289 186.875 497 187.489C507.286 188.104 508.61 196.978 508.61 196.978C508.61 196.978 509.93 188.104 520.22 187.489C509.934 186.877 508.61 178 508.61 178Z" fill="#6FA926"/>
<path d="M141.554 34C141.554 34 140.351 41.8893 131 42.4348C140.351 42.9803 141.554 50.8696 141.554 50.8696C141.554 50.8696 142.757 42.9803 152.109 42.4348C142.757 41.8893 141.554 34 141.554 34Z" fill="#0EBED9"/>
<path d="M453.5 94C453.5 94 452.987 97.2737 449 97.5C452.987 97.7263 453.5 101 453.5 101C453.5 101 454.013 97.7263 458 97.5C454.013 97.2737 453.5 94 453.5 94Z" fill="#0EBED9"/>
<path d="M290.909 115C290.909 115 290.008 120.919 283 121.326C290.014 121.735 290.916 127.652 290.916 127.652C290.916 127.652 291.817 121.735 298.832 121.326C291.81 120.919 290.909 115 290.909 115Z" fill="#6FA926"/>
</svg>
